<svg xmlns="http://www.w3.org/2000/svg" width="1024" height="1024" viewBox="0 0 1024 1024"><path d="M511.647 958.875s-335.33-373.685-335.33-558.879c0-185.208 150.132-335.331 335.33-335.331 185.195 0 335.331 150.123 335.327 335.331 0 185.194-335.327 558.879-335.327 558.879zm0-851.217c-161.447 0-292.337 132.805-292.337 296.635S511.647 898.69 511.647 898.69s292.338-330.568 292.338-494.397-130.894-296.635-292.338-296.635zm-.005 404.115c-77.167 0-139.717-62.554-139.717-139.721 0-77.171 62.55-139.721 139.717-139.721 77.172 0 139.721 62.55 139.721 139.721 0 77.162-62.548 139.721-139.721 139.721zm.005-240.751c-56.979 0-103.178 46.198-103.178 103.178s46.199 103.178 103.178 103.178c56.989 0 103.178-46.198 103.178-103.178s-46.189-103.178-103.178-103.178zm0 0"/></svg>