<svg xmlns="http://www.w3.org/2000/svg" xmlns:xlink="http://www.w3.org/1999/xlink" width="1024" height="1024" viewBox="0 0 1024 1024"><defs><path id="c" d="M64.05 175.767H960.2v672.987H64.05z"/></defs><clipPath id="d"><use xlink:href="#c" overflow="visible"/></clipPath><path d="M888.205 287.7H744.323c-74.853-83.951-98.406-111.933-127.087-111.933H410.859c-28.682 0-51.767 27.981-127.087 111.933h-31.01v-37.313h-79.289V287.7h-31.476c-41.043 0-78.122 30.783-78.122 71.591v410.412c0 40.808 37.079 77.654 78.122 77.654h746.208c41.042 0 71.117-36.846 71.117-77.654V359.29c.001-40.808-30.075-71.59-71.117-71.59zm33.812 482.002c0 21.684-14.461 40.34-33.811 40.34H141.997c-20.29 0-40.808-20.285-40.808-40.34V359.29c0-19.123 18.884-34.285 40.808-34.285h158.097l11.199-7.458c9.325-10.498 17.95-23.319 25.881-32.183 26.353-29.615 45.471-50.601 58.997-62.727 10.96-9.793 14.461-9.558 14.461-9.558h206.37s3.728-.235 15.621 10.492c14.228 12.827 34.285 38.473 62.033 69.489a4377.048 4377.048 0 0 0 21.685 24.486l11.192 7.458h160.672c20.518 0 33.811 13.994 33.811 34.285v410.413zm0 0" clip-path="url(#d)"/><path d="M511.599 356.489c-109.831 0-199.379 89.546-199.379 199.379 0 109.831 89.548 199.379 199.379 199.379 109.832 0 199.379-89.548 199.379-199.379 0-109.832-89.546-199.379-199.379-199.379zm0 361.445c-89.541 0-162.066-72.525-162.066-162.066 0-89.548 72.525-162.066 162.066-162.066 89.548 0 162.066 72.518 162.066 162.066 0 89.541-72.518 162.066-162.066 162.066zm0 0M735.464 362.319h39.641v39.641h-39.641z"/><path d="M436.98 555.868c0 41.212 33.407 74.619 74.619 74.619 41.213 0 74.619-33.407 74.619-74.619 0-41.213-33.406-74.619-74.619-74.619-41.212 0-74.619 33.406-74.619 74.619zm0 0"/></svg>