<svg xmlns="http://www.w3.org/2000/svg" xmlns:xlink="http://www.w3.org/1999/xlink" width="1024" height="1024" viewBox="0 0 1024 1024"><defs><path id="s" d="M63.006 63.897h894.391v895.661H63.006z"/></defs><clipPath id="t"><use xlink:href="#s" overflow="visible"/></clipPath><path d="M862.802 64.744H156.295c-51.523 0-93.448 41.925-93.448 93.448v706.647c0 51.524 41.925 93.448 93.448 93.448h706.647c51.524 0 93.448-41.923 93.448-93.448V158.191c0-51.523-42.063-93.447-93.588-93.447zm31.902 800.095c0 17.503-14.258 31.9-31.901 31.9H156.295c-17.503 0-31.9-14.251-31.9-31.9V158.191c0-17.503 14.257-31.9 31.9-31.9h706.647c17.503 0 31.9 14.257 31.9 31.9l-.138 706.648zm0 0" clip-path="url(#t)"/></svg>