<svg xmlns="http://www.w3.org/2000/svg" xmlns:xlink="http://www.w3.org/1999/xlink" width="1024" height="1024" viewBox="0 0 1024 1024"><defs><path id="q" d="M64.006 63.397h893.021v894.289H64.006z"/></defs><clipPath id="r"><use xlink:href="#q" overflow="visible"/></clipPath><path d="M862.577 64.242H157.152c-51.444 0-93.304 41.86-93.304 93.304v705.565c0 51.445 41.86 93.304 93.304 93.304h705.565c51.445 0 93.304-41.859 93.304-93.304V157.547c0-51.444-41.999-93.305-93.444-93.305zM458.348 787.846L188.303 513.289l69.06-55.534 156.168 122.338c63.704-75.967 205.779-227.338 401.55-347.282l16.63 38.195c-179.847 165.331-326.993 397.888-373.363 516.84zm0 0" clip-path="url(#r)"/></svg>