<svg xmlns="http://www.w3.org/2000/svg" xmlns:xlink="http://www.w3.org/1999/xlink" width="1024" height="1024" viewBox="0 0 1024 1024"><defs><path id="u" d="M63.503 63.393h895.204v896.165H63.503z"/></defs><clipPath id="v"><use xlink:href="#u" overflow="visible"/></clipPath><path d="M901.966 259.633v-55.901c0-46.317-37.544-83.861-83.857-83.861l-55.905-.004V63.961h55.905c77.19 0 139.766 62.577 139.766 139.771v55.901h-55.909zm.004 251.586c0 148.221-82.436 277.162-203.935 343.578l92.119 103.669h-83.861l-75.053-75.052c-38.016 12.318-78.494 19.151-120.618 19.151-42.121 0-82.603-6.838-120.62-19.151l-75.053 75.052h-83.86l92.122-103.669C201.713 788.381 119.277 659.44 119.277 511.219c0-216.137 175.211-391.348 391.345-391.348 216.132 0 391.348 175.211 391.348 391.348zM510.622 175.781c-185.256 0-335.435 150.174-335.435 335.438 0 185.257 150.179 335.435 335.435 335.435 185.26 0 335.438-150.178 335.438-335.435 0-185.265-150.178-335.438-335.438-335.438zm195.672 363.385H510.622c-15.437 0-27.951-12.515-27.951-27.954V287.588c0-15.441 12.515-27.955 27.951-27.955 15.44 0 27.954 12.515 27.954 27.955V483.26h167.722c15.437 0 27.95 12.519 27.95 27.951 0 15.44-12.513 27.955-27.954 27.955zM203.138 119.871c-46.313 0-83.861 37.544-83.861 83.861v55.901H63.372v-55.901c0-77.194 62.577-139.771 139.766-139.771h55.906v55.906l-55.906.004zm0 0" clip-path="url(#v)"/></svg>