<svg xmlns="http://www.w3.org/2000/svg" xmlns:xlink="http://www.w3.org/1999/xlink" width="1024" height="1024" viewBox="0 0 1024 1024"><defs><path id="w" d="M64.014 63.904h893.771v895.654H64.014z"/></defs><clipPath id="x"><use xlink:href="#w" overflow="visible"/></clipPath><path d="M577.244 511.309l365.608-365.608c18.475-18.446 18.475-48.42 0-66.898-18.485-18.448-48.422-18.448-66.899 0L510.346 444.41 144.731 78.804c-18.438-18.448-48.413-18.448-66.86 0-18.475 18.477-18.475 48.452 0 66.898L443.487 511.31 77.871 876.915c-18.475 18.485-18.475 48.422 0 66.898 18.485 18.485 48.422 18.485 66.86 0l365.616-365.606 365.606 365.606c18.477 18.485 48.415 18.485 66.899 0 18.475-18.475 18.475-48.413 0-66.898L577.244 511.309zm0 0" clip-path="url(#x)"/></svg>