<svg xmlns="http://www.w3.org/2000/svg" xmlns:xlink="http://www.w3.org/1999/xlink" width="1024" height="1024" viewBox="0 0 1024 1024"><defs><path id="E" d="M64 137.89h896.355v748.557H64z"/></defs><clipPath id="F"><use xlink:href="#E" overflow="visible"/></clipPath><path d="M960.203 568.174c0-94.788-57.107-182.342-152.776-234.192a16.048 16.048 0 0 0-6.294-1.873c-52.975-113.183-193.157-194.266-357.339-194.266-209.507 0-379.944 132.038-379.944 294.327 0 91.683 55.459 178.361 148.971 233.84l-25.557 122.305a16.046 16.046 0 0 0 6.447 16.389 16.07 16.07 0 0 0 9.273 2.945c2.871 0 5.757-.773 8.32-2.328l132.732-80.483c.48.856 1.038 1.688 1.688 2.47C408.73 802.747 512.4 847.784 623.065 847.784c42.708 0 84.234-6.51 123.562-19.354l103.714 54.946a16.033 16.033 0 0 0 7.517 1.868c3.521 0 7.008-1.159 9.904-3.42a16.071 16.071 0 0 0 5.668-16.542l-22.787-90.734c69.781-52.918 109.56-127.575 109.56-206.374zM238.69 643.828C149.316 594.444 95.96 515.321 95.96 432.164c0-144.588 156.033-262.218 347.834-262.218 191.807 0 347.84 117.63 347.84 262.218 0 144.594-156.033 262.218-347.84 262.218-30.172 0-60.106-2.925-88.987-8.686a15.949 15.949 0 0 0-11.464 2.02l-117.082 70.988 20.38-97.546a16.054 16.054 0 0 0-7.951-17.33zM823.191 754.88a16.036 16.036 0 0 0-6.314 17.015l16.629 66.22-77.943-41.286a16.148 16.148 0 0 0-12.78-.978c-37.9 13.157-78.182 19.823-119.717 19.823-92.915 0-180.102-34.295-237.861-92.666a493.977 493.977 0 0 0 58.59 3.483c209.508 0 379.95-132.038 379.95-294.328 0-18.746-2.285-37.094-6.627-54.877 69.995 46.866 110.976 116.529 110.976 190.887-.001 71.547-38.234 139.586-104.903 186.707zm0 0" clip-path="url(#F)"/><path d="M339.851 419.678c0-30.363-24.695-55.064-55.049-55.064-30.363 0-55.059 24.7-55.059 55.064 0 30.358 24.695 55.057 55.059 55.057 30.353.001 55.049-24.699 55.049-55.057zm-78.003 0c0-12.659 10.295-22.954 22.954-22.954 12.647 0 22.944 10.295 22.944 22.954 0 12.652-10.296 22.949-22.944 22.949-12.659 0-22.954-10.296-22.954-22.949zm0 0M443.794 474.736c30.363 0 55.064-24.699 55.064-55.057 0-30.363-24.7-55.064-55.064-55.064-30.358 0-55.057 24.7-55.057 55.064-.001 30.357 24.693 55.057 55.057 55.057zm0-78.012c12.659 0 22.954 10.295 22.954 22.954 0 12.652-10.295 22.949-22.954 22.949-12.652 0-22.949-10.296-22.949-22.949 0-12.659 10.296-22.954 22.949-22.954zm0 0M596.311 474.736c30.363 0 55.059-24.699 55.059-55.057 0-30.363-24.695-55.064-55.059-55.064-30.363 0-55.064 24.7-55.064 55.064 0 30.357 24.701 55.057 55.064 55.057zm0-78.012c12.658 0 22.954 10.295 22.954 22.954 0 12.652-10.296 22.949-22.954 22.949-12.657 0-22.953-10.296-22.953-22.949 0-12.659 10.296-22.954 22.953-22.954zm0 0"/></svg>