<svg xmlns="http://www.w3.org/2000/svg" xmlns:xlink="http://www.w3.org/1999/xlink" width="1024" height="1024" viewBox="0 0 1024 1024"><defs><path id="a" d="M63.995 68.543h895.912v886.78H63.995z"/></defs><clipPath id="b"><use xlink:href="#a" overflow="visible"/></clipPath><path d="M764.659 954.064H181.434c-63.694 0-117.44-51.756-117.44-117.445V251.406c0-65.687 53.746-121.422 117.44-121.422h392.137c11.943 0 19.902 7.966 19.902 19.907 0 11.943-7.959 19.902-19.902 19.902H181.434c-41.799 0-77.63 37.82-77.63 81.612V834.63c0 41.804 33.838 77.631 77.63 77.631h583.225c43.792 0 81.612-35.827 81.612-77.631V444.487c0-11.943 7.966-19.902 19.907-19.902 11.943 0 19.902 7.959 19.902 19.902V836.62c.001 63.699-55.733 117.444-121.421 117.444zm0 0" clip-path="url(#b)"/><path d="M298.879 776.908c-9.954 0-21.897-3.982-29.861-11.947-13.931-11.943-17.913-33.838-11.943-53.74 113.463-234.884 119.434-242.844 121.422-244.838L756.7 88.186c25.872-25.879 71.659-25.879 97.537 0l85.589 85.589c25.879 25.879 25.879 69.671 0 97.537L561.625 649.511c-1.989 1.993-9.948 9.952-242.844 121.427-3.978 3.977-11.943 5.97-19.902 5.97zm111.468-282.659c-9.954 15.925-75.642 151.283-115.45 234.884-1.989 3.982 0 5.971 1.988 7.961 1.994 1.993 3.982 0 5.971 0 81.612-39.81 216.97-105.498 232.895-115.452l376.208-376.207c11.942-11.943 11.942-29.856 0-39.81l-85.596-85.596c-9.948-9.949-29.855-9.949-39.808 0l-376.208 374.22zm0 0" clip-path="url(#b)"/><path d="M862.196 340.979c-5.971 0-9.954-1.989-13.936-5.971L696.983 183.729c-7.959-7.965-7.959-19.907 0-27.867 7.959-7.965 19.907-7.965 27.867 0L876.127 307.14c7.966 7.965 7.966 19.907 0 27.867-3.977 3.982-7.959 5.972-13.931 5.972zM539.728 659.463c-5.97 0-9.948-1.988-13.931-5.97L380.486 508.187c-7.959-7.966-7.959-19.907 0-27.868 7.965-7.965 19.907-7.965 27.872 0l145.306 145.306c7.961 7.966 7.961 19.907 0 27.868-3.982 3.982-9.954 5.97-13.936 5.97zm0 0"/></svg>