<svg xmlns="http://www.w3.org/2000/svg" xmlns:xlink="http://www.w3.org/1999/xlink" width="1024" height="1024" viewBox="0 0 1024 1024"><path d="M694.397 723.542c-2.368 0-4.732-.873-6.472-2.676l-75.383-75.193a9.183 9.183 0 0 1-.062-13.064c3.612-3.729 9.457-3.667 13.064-.061l69.222 69.038 163.269-144.605c3.729-3.422 9.699-3.047 13.059.807 3.359 3.796 2.985 9.642-.807 13.064L700.552 721.24c-1.741 1.495-3.981 2.302-6.155 2.302zm0 0"/><path d="M751.054 450.811c104.181 0 189.016 84.461 189.016 188.266s-84.773 188.27-189.016 188.27c-104.237 0-189.015-84.464-189.015-188.27s84.778-188.266 189.015-188.266m0-18.473c-114.562 0-207.422 92.551-207.422 206.739 0 114.193 92.859 206.743 207.422 206.743 114.569 0 207.427-92.55 207.427-206.743 0-114.188-92.858-206.739-207.427-206.739zm0 0M486.971 535.584a9.127 9.127 0 0 1-5.785-2.054L85.18 213.969c-3.977-3.174-4.598-9.02-1.429-13.002 3.169-3.981 9.083-4.541 12.997-1.367l390.098 314.772L858.22 199.786c3.981-3.293 9.828-2.8 12.997 1.058 3.298 3.919 2.8 9.765-1.058 12.997L493.002 533.406a9.442 9.442 0 0 1-6.031 2.178zm0 0"/><defs><path id="Q" d="M63 177.89h896.355v669.096H63z"/></defs><clipPath id="R"><use xlink:href="#Q" overflow="visible"/></clipPath><path d="M90.965 667.13c-2.364 0-4.727-.872-6.529-2.737a9.233 9.233 0 0 1 0-13.059l245.18-244.373c3.605-3.607 9.452-3.607 13.059 0 3.61 3.61 3.61 9.457 0 13.062L97.499 664.393c-1.803 1.865-4.233 2.737-6.534 2.737zm0 0" clip-path="url(#R)"/><path d="M486.097 685.974H109.812c-25.876 0-46.958-21.022-46.958-46.896V225.6c0-25.814 21.082-46.836 46.958-46.836h735.473c25.932 0 47.02 21.022 47.02 46.836v183.54c0 5.101-4.172 9.206-9.267 9.206-5.101 0-9.268-4.105-9.268-9.206V225.6c0-15.612-12.75-28.362-28.485-28.362H109.812c-15.735 0-28.485 12.75-28.485 28.362v413.477c0 15.611 12.75 28.361 28.485 28.361h376.285c5.101 0 9.206 4.167 9.206 9.268s-4.105 9.268-9.206 9.268zm0 0" clip-path="url(#R)"/></svg>