<svg xmlns="http://www.w3.org/2000/svg" width="1024" height="1024" viewBox="0 0 1024 1024"><path d="M878.495 188.89H145.449C100.471 188.89 64 225.1 64 269.757V754.96c0 44.662 36.471 80.872 81.449 80.872h733.046c44.979 0 81.449-36.21 81.449-80.872V269.757c.001-44.657-36.47-80.867-81.449-80.867zm-733.046 40.434h733.046c4.793 0 9.302.968 13.58 2.486L539.57 581.777c-7.375 7.327-17.178 11.371-27.6 11.371-10.417 0-20.221-4.044-27.6-11.371L131.889 231.81c4.254-1.519 8.786-2.486 13.56-2.486zM104.725 754.96V269.757c0-2.407.316-4.74.715-7.027l251.425 249.628-251.426 249.634c-.398-2.293-.714-4.62-.714-7.032zm773.77 40.434H145.449c-4.775 0-9.307-.969-13.561-2.467l253.775-251.976 69.912 69.414c15.591 15.479 35.993 23.216 56.394 23.216 20.421 0 40.827-7.738 56.394-23.216l69.917-69.414 253.816 251.976c-4.299 1.498-8.808 2.467-13.601 2.467zm40.725-40.434c0 2.412-.321 4.739-.72 7.032L667.075 512.358 918.5 262.73c.399 2.286.72 4.62.72 7.027V754.96zm0 0"/></svg>