<svg xmlns="http://www.w3.org/2000/svg" xmlns:xlink="http://www.w3.org/1999/xlink" width="1024" height="1024" viewBox="0 0 1024 1024"><path d="M751.814 450.494c104.161 0 188.979 84.444 188.979 188.229s-84.756 188.233-188.979 188.233c-104.217 0-188.978-84.448-188.978-188.233s84.761-188.229 188.978-188.229m0-18.469c-114.54 0-207.381 92.533-207.381 206.699 0 114.171 92.841 206.702 207.381 206.702 114.546 0 207.386-92.531 207.386-206.702 0-114.166-92.84-206.699-207.386-206.699zm0 0M487.782 535.25a9.124 9.124 0 0 1-5.784-2.054L86.07 213.698c-3.976-3.174-4.597-9.018-1.428-12.999 3.169-3.98 9.081-4.54 12.994-1.366l390.022 314.711 371.301-314.525c3.98-3.293 9.826-2.8 12.994 1.058 3.297 3.918 2.799 9.764-1.058 12.994L493.812 533.073a9.44 9.44 0 0 1-6.03 2.177zm0 0"/><defs><path id="a" d="M63.894 177.627h896.179v668.964H63.894z"/></defs><clipPath id="b"><use xlink:href="#a" overflow="visible"/></clipPath><path d="M91.854 666.771c-2.363 0-4.726-.872-6.528-2.736a9.23 9.23 0 0 1 0-13.056l245.131-244.325a9.23 9.23 0 0 1 13.056 0c3.61 3.61 3.61 9.455 0 13.06L98.387 664.035c-1.804 1.864-4.233 2.736-6.533 2.736zm0 0" clip-path="url(#b)"/><path d="M486.908 685.611H110.697c-25.871 0-46.949-21.018-46.949-46.887V225.327c0-25.809 21.078-46.826 46.949-46.826h735.329c25.927 0 47.011 21.018 47.011 46.826v183.504c0 5.1-4.171 9.204-9.266 9.204-5.1 0-9.266-4.104-9.266-9.204V225.327c0-15.609-12.748-28.357-28.48-28.357H110.697c-15.732 0-28.48 12.748-28.48 28.357v413.396c0 15.608 12.748 28.356 28.48 28.356h376.211c5.1 0 9.204 4.166 9.204 9.266s-4.104 9.266-9.204 9.266zm0 0" clip-path="url(#b)"/><path d="M745.101 704.204h13.37l3.913-154.962h-.307c-.186-5.598-4.664-10.134-10.263-10.134-5.593 0-10.072 4.536-10.262 10.134h-.37l3.919 154.962zm0 0M760.643 717.512c-2.362-2.302-5.408-3.359-8.952-3.359-3.359 0-6.282.996-8.644 3.359-2.548 2.178-3.73 5.1-3.73 8.644 0 3.359 1.182 6.282 3.73 8.644 2.362 2.362 5.223 3.544 8.644 3.544 3.42 0 6.404-1.182 8.952-3.358 2.362-2.363 3.549-5.224 3.549-8.83 0-3.545-1.186-6.405-3.549-8.644zm0 0"/></svg>