<svg xmlns="http://www.w3.org/2000/svg" xmlns:xlink="http://www.w3.org/1999/xlink" width="1024" height="1024" viewBox="0 0 1024 1024"><defs><path id="U" d="M64.006 63.892h894.706v895.667H64.006z"/></defs><clipPath id="V"><use xlink:href="#U" overflow="visible"/></clipPath><path d="M510.881 958.466c-246.468 0-447.006-200.538-447.006-447.001 0-246.468 200.538-447.006 447.006-447.006 246.462 0 447.001 200.538 447.001 447.006 0 246.462-200.538 447.001-447.001 447.001zm0-866.067c-231.075 0-419.066 187.992-419.066 419.066 0 231.069 187.992 419.066 419.066 419.066 231.069 0 419.066-187.997 419.066-419.066 0-231.075-187.996-419.066-419.066-419.066zm0 0" clip-path="url(#V)"/><path d="M511.383 738.344c-99.796 0-188.303-67.022-215.232-163.016l26.903-7.541c23.548 83.951 101.023 142.592 188.329 142.592 87.498 0 164.999-58.808 188.411-143.07l26.903 7.491c-26.737 96.3-115.27 163.544-215.314 163.544zm0 0M287.826 399.852c0 30.859 25.015 55.874 55.874 55.874 30.86 0 55.874-25.015 55.874-55.874s-25.014-55.874-55.874-55.874c-30.859-.001-55.874 25.014-55.874 55.874zm0 0M622.63 399.852c0 30.859 25.015 55.874 55.874 55.874 30.86 0 55.874-25.015 55.874-55.874s-25.014-55.874-55.874-55.874c-30.859-.001-55.874 25.014-55.874 55.874zm0 0"/></svg>