<svg xmlns="http://www.w3.org/2000/svg" width="1024" height="1024" viewBox="0 0 1024 1024"><path d="M732.952 685.977s-14.492 19.17-33.891 37.96l223.37 218.879 37.072-34.66-226.551-222.179zm79.323-237.271c0 217.286-167.377 380.4-374.837 380.4C221.115 825.964 64.254 655.62 64.254 448.998c0-199.584 168.84-367.884 373.184-367.884 207.461 0 374.837 170.488 374.837 367.592zM436.074 130.979c-177.823 0-321.955 144.24-321.955 324.128 0 179.893 144.131 325.131 321.955 325.131 177.848 0 326.331-145.238 326.331-325.131 0-179.887-148.484-324.128-326.331-324.128zm0 0"/></svg>