<svg xmlns="http://www.w3.org/2000/svg" xmlns:xlink="http://www.w3.org/1999/xlink" width="1024" height="1024" viewBox="0 0 1024 1024"><defs><path id="aa" d="M115.37 64.072h794.729v895.486H115.37z"/></defs><clipPath id="ab"><use xlink:href="#aa" overflow="visible"/></clipPath><path d="M401.296 930.536c-9.097 0-18.136-3.581-24.686-10.664-85.945-93.069-224.966-93.966-227.833-93.966h-.204c-18.137 0-32.94-14.158-33.066-31.693-.145-17.641 14.464-32.017 32.673-32.202 6.865-.359 171.062-.189 277.725 115.299 12.174 13.154 10.98 33.342-2.634 45.108-6.279 5.43-14.154 8.118-21.975 8.118zm221.59-.059c-8.025 0-16.089-2.818-22.469-8.539-13.387-11.975-14.212-32.202-1.786-45.142 110.463-115.333 271.331-115.202 277.672-114.945 18.277.19 32.91 14.629 32.711 32.27-.199 17.534-14.938 31.624-33.042 31.624h-.266c-2.743 0-138.953.868-228.595 94.475-6.482 6.832-15.367 10.257-24.225 10.257zm-58.252-162.493H459.917c-3.334 0-6.574-.481-9.656-1.402C338.479 752.71 243.48 689.99 182.245 589.436c-71.075-116.808-87.368-268.143-40.484-376.611 5.057-11.654 16.758-19.354 29.848-19.616l9.947-.097c62.943 0 121.733 11.504 175.239 34.249 38.65-68.334 82.797-120.191 131.476-154.44a33.576 33.576 0 0 1 8.786-5.337c10.209-4.274 22.075-3.352 31.421 2.533a30.64 30.64 0 0 1 4.521 3.446c48.81 34.633 91.735 85.713 130.603 155.492 54.544-23.822 114.693-35.908 179.291-35.908l10.106.097c13.095.257 24.793 7.948 29.84 19.616 46.898 108.493 30.63 259.837-40.513 376.636C781.1 689.99 686.135 752.759 574.381 766.635c-3.138.845-6.38 1.349-9.747 1.349zm-98.837-63.89h92.957a31.544 31.544 0 0 1 2.144-.324c119.488-12.843 188.019-86.927 224.471-146.765 55.806-91.738 72.725-211.604 43.915-299.849-60.139 1.893-115.261 16.152-163.999 42.479-7.967 4.269-17.389 5.176-26 2.61-8.666-2.61-15.846-8.583-19.835-16.481-33.507-66.257-69.43-115.009-109.283-148.239-39.878 33.157-76.588 82.268-109.371 146.351-3.993 7.788-11.067 13.673-19.66 16.287-8.588 2.654-17.836 1.766-25.773-2.387-47.713-25.084-101.54-38.727-160.062-40.58-28.816 88.249-11.897 208.11 43.909 299.81 36.457 59.838 104.945 133.892 224.403 146.765.728.096 1.451.188 2.184.323zm46.229 254.272c-18.244 0-33.042-14.279-33.042-31.949V736.029c0-17.66 14.803-31.935 33.042-31.935 18.242 0 33.04 14.275 33.04 31.935v190.388c-.029 17.67-14.798 31.949-33.04 31.949zm0 0" clip-path="url(#ab)"/></svg>