<svg xmlns="http://www.w3.org/2000/svg" xmlns:xlink="http://www.w3.org/1999/xlink" width="1024" height="1024" viewBox="0 0 1024 1024"><defs><path id="a" d="M63.871 401.871h896.484v220.421H63.871z"/></defs><clipPath id="b"><use xlink:href="#a" overflow="visible"/></clipPath><path d="M172.622 403.047c60.156 0 108.925 48.769 108.925 108.925 0 60.162-48.763 108.925-108.925 108.925-60.156 0-108.925-48.763-108.925-108.925 0-60.156 48.769-108.925 108.925-108.925zm0 0" clip-path="url(#b)"/><path d="M511.505 403.047c60.156 0 108.925 48.769 108.925 108.925 0 60.162-48.769 108.925-108.925 108.925-60.162 0-108.927-48.763-108.927-108.925 0-60.156 48.765-108.925 108.927-108.925zm0 0"/><path d="M511.505 403.047c60.156 0 108.925 48.769 108.925 108.925 0 60.162-48.769 108.925-108.925 108.925-60.162 0-108.927-48.763-108.927-108.925 0-60.156 48.765-108.925 108.927-108.925zm0 0M850.381 403.047c60.162 0 108.931 48.769 108.931 108.925 0 60.162-48.769 108.925-108.931 108.925-60.156 0-108.925-48.763-108.925-108.925 0-60.156 48.769-108.925 108.925-108.925zm0 0"/></svg>