<svg xmlns="http://www.w3.org/2000/svg" width="1024" height="1024" viewBox="0 0 1024 1024"><path d="M512.076 959.863c247.07 0 448.084-201.014 448.083-448.085 0-247.073-201.014-448.085-448.083-448.085S63.991 264.705 63.991 511.778c0 247.071 201.014 448.085 448.085 448.085zm-.001-672.129c30.931 0 56.011 25.078 56.011 56.014 0 30.929-25.078 56.008-56.011 56.008s-56.011-25.078-56.011-56.008c0-30.934 25.078-56.014 56.011-56.014zM456.064 511.78c0-30.931 25.078-56.011 56.011-56.011s56.011 25.078 56.011 56.011v168.028c0 30.931-25.078 56.011-56.011 56.011s-56.011-25.078-56.011-56.011V511.78z"/></svg>