<svg xmlns="http://www.w3.org/2000/svg" xmlns:xlink="http://www.w3.org/1999/xlink" width="1024" height="1024" viewBox="0 0 1024 1024"><path d="M914.25 365.928c-.226-.235-.46-6.354-.698-6.58l6.8-6.932-6.809 15.174c-11.787-11.586-35.381-23.215-57.297-23.905l-21.109-.295V166.312c0-45.126-24.587-65.298-69.261-65.298H256.391c-44.692 0-68.094 20.168-68.094 65.298l-1.176 175.779-20.867-.657c-20.654 1.189-38.73 10.573-53.043 24.276l-7.904-14.087 6.72 11.744.908.264-14.59-18.558.358-.349c15.494-14.829 35.589-24.421 57.369-27.515V166.312c.004-55.753 45.007-101.118 100.326-101.118H765.87c55.319 0 100.321 45.36 100.321 101.118v150.544c23.231 2.706 44.572 12.728 60.858 28.72.298.294.597.584.877.874l-13.67 17.114v2.352h-.004v.012zm0 0"/><defs><path id="i" d="M69.877 64.627h884.561v895.295H69.877z"/></defs><clipPath id="j"><use xlink:href="#i" overflow="visible"/></clipPath><path d="M156.065 325.928h31.056v98.641l-31.056-5.884v-92.757zM836.36 282.14h29.888v140.841l-29.888 3.538-1.172-144.378h1.172zM430.153 407.871l68.294 68.298a16.33 16.33 0 0 0 11.586 4.806 16.316 16.316 0 0 0 11.582-4.806l68.303-68.298c.46-.456.89-.941 1.29-1.453 23.616-25.299 23.084-65.217-1.534-89.831-21.502-21.468-54.637-24.608-79.544-9.366a64.27 64.27 0 0 0-34.268-9.792 64.225 64.225 0 0 0-45.731 18.95 64.227 64.227 0 0 0-18.949 45.727 64.261 64.261 0 0 0 18.404 45.186l.567.579" clip-path="url(#j)"/><path d="M926.898 345.435a9.649 9.649 0 0 0-13.414.214L527.066 732.071c-3.67 3.669-8.996 5.774-14.625 5.774-5.611 0-10.934-2.105-14.595-5.77L111.872 345.184a9.647 9.647 0 0 0-13.533-.119c-18.98 18.357-28.593 39.505-28.593 62.861v457.303c0 51.611 45.36 93.601 101.113 93.601h681.949c55.762 0 101.122-41.99 101.118-93.601V408.097c1.202-35.773-25.874-61.579-27.028-62.662zm0 0" clip-path="url(#j)"/></svg>