<svg xmlns="http://www.w3.org/2000/svg" width="1024" height="1024" viewBox="0 0 1024 1024"><path d="M591.984 509.825c0 20.281 16.444 36.726 36.726 36.726h106.884c20.281 0 36.726-16.445 36.726-36.726 0-20.282-16.445-36.727-36.726-36.727H628.71c-20.282.001-36.726 16.445-36.726 36.727zM184.576 780.359c-26.289-.031-47.594-21.336-47.625-47.625V289.869c.031-26.289 21.336-47.594 47.625-47.625h495.579c20.282 0 36.727-16.444 36.727-36.726s-16.444-36.726-36.727-36.726H184.576c-66.769.008-121.078 54.327-121.078 121.077v442.865c0 66.76 54.318 121.078 121.078 121.078 20.282 0 36.726-16.44 36.726-36.726 0-20.283-16.444-36.727-36.726-36.727zm653.733-611.568c-20.287 0-36.727 16.444-36.727 36.726s16.44 36.726 36.727 36.726c26.289.026 47.602 21.331 47.634 47.625v442.865c-.032 26.289-21.336 47.594-47.626 47.625H342.74c-20.282 0-36.726 16.444-36.726 36.727 0 20.287 16.444 36.726 36.726 36.726h495.578c66.76 0 121.079-54.318 121.079-121.078V289.869c0-66.75-54.31-121.069-121.079-121.069l-.009-.009zM573.445 509.825c0-20.282-16.444-36.727-36.726-36.727H293.24c-20.282 0-36.726 16.444-36.726 36.727 0 20.281 16.444 36.726 36.726 36.726h243.478c20.283.001 36.727-16.445 36.727-36.726zm0 0"/></svg>