<svg xmlns="http://www.w3.org/2000/svg" xmlns:xlink="http://www.w3.org/1999/xlink" width="1024" height="1024" viewBox="0 0 1024 1024"><defs><path id="c" d="M63.875 81.621h896.103v861.262H63.875z"/></defs><clipPath id="d"><use xlink:href="#c" overflow="visible"/></clipPath><path d="M831.588 941.834h-639.76c-67.24 0-127.953-61.374-127.953-127.953 0 0 1.111-252.471 1.111-341.78 0-42.653 25.932-67.24 62.865-84.727V259.422c0-52.691 34.929-106.625 85.3-106.625h191.93l42.648-42.652c35.594-37.254 92.339-37.254 127.953 0l42.652 42.652h191.93c50.346 0 85.3 53.934 85.3 106.625v127.952c34.355 18.172 63.977 44.591 63.977 85.3v341.207c0 66.579-60.714 127.953-127.953 127.953zm63.976-426.507c0-31.179-29.28-65.403-63.164-65.403l-.812 1.426v-170.6c0-42.14-22.05-63.976-63.977-63.976H255.805c-41.928 0-63.977 21.837-63.977 63.976v170.601c-33.888 0-63.977 32.798-63.977 63.977V835.21c0 31.174 30.088 42.649 63.977 42.649h639.76c33.884 0 63.977-32.798 63.977-63.977V515.327zm-366.539 231.38a26.015 26.015 0 0 1-23.845.299C289.627 639.931 307.967 511.319 308.86 505.924c-.361-1.664.361-55.192 35.868-90.76 19.405-19.451 44.677-29.26 75.151-29.26 46.083 0 77.328 21.73 96.82 46.428 19.872-24.378 51.051-45.956 96.003-46.428 82.849 0 112.429 70.162 112.363 117.311 2.092 90.973-65.701 174.507-196.04 243.492zm85.128-308.835c-56.319.578-72.269 54.553-72.933 56.832-3.238 11.367-14.306 17.724-25.719 18.958-11.859-.2-22.074-8.419-24.82-19.96-1.365-5.546-15.524-55.831-70.757-55.831-16.335 0-28.768 4.587-38.172 13.991-17.36 17.36-21.115 48.601-21.05 58.177-.811 7.632-10.067 97.607 155.738 184.378 102.554-56.917 158.045-123.41 156.593-188.133-.044-5.714-.683-68.412-58.88-68.412zm0 0" clip-path="url(#d)"/></svg>