<svg xmlns="http://www.w3.org/2000/svg" xmlns:xlink="http://www.w3.org/1999/xlink" width="1024" height="1024" viewBox="0 0 1024 1024"><path d="M913.852 365.546c-.23-.23-.46-6.35-.704-6.58l6.801-6.933-6.801 15.178c-11.799-11.586-35.384-23.219-57.3-23.905l-21.109-.294V165.935c0-45.126-24.584-65.298-69.27-65.298H255.996c-44.699 0-68.097 20.168-68.097 65.298l-1.176 175.786-20.863-.657c-20.654 1.18-38.734 10.564-53.043 24.267l-7.905-14.087 6.721 11.744.903.264-14.59-18.552.367-.353c15.489-14.837 35.585-24.421 57.36-27.518V165.94c0-55.757 45.002-101.117 100.324-101.117H765.47c55.317 0 100.324 45.36 100.324 101.117v150.543c23.237 2.711 44.568 12.728 60.854 28.72l.887.878-13.678 17.105-.005 2.36zm0 0"/><defs><path id="g" d="M69.475 64.252H954.03v895.289H69.475z"/></defs><clipPath id="h"><use xlink:href="#g" overflow="visible"/></clipPath><path d="M155.663 325.546h31.056v98.642l-31.056-5.885v-92.757zm680.3-43.783h29.879v140.835l-29.879 3.533-1.176-144.369h1.176zm0 0" clip-path="url(#h)"/><path d="M852.411 958.448H170.462c-55.757 0-101.117-41.989-101.117-93.597V407.544c0-23.352 9.621-44.504 28.597-62.865a9.65 9.65 0 0 1 13.529.123L497.446 731.69c3.657 3.661 8.988 5.77 14.595 5.77 5.624 0 10.951-2.109 14.621-5.783l386.419-386.41c3.677-3.682 9.617-3.775 13.41-.217 1.151 1.086 28.226 26.888 27.033 62.664v457.13c.013 51.615-45.356 93.604-101.113 93.604zM121.936 407.556v53.64l-.337 392.693c0 36.036 35.811 63.777 76.936 63.777h621.439c41.125 0 78.108-27.741 78.108-63.777l-.341-392.693c0-.098-.003-.204 0-.306-.003.306 0-51.76 0-51.76L535.55 758.28c-6.61 6.392-16.001 10.052-25.742 10.052-9.736 0-19.115-3.669-25.741-10.052L121.936 407.556zm0 0" clip-path="url(#h)"/><path d="M429.75 407.493l68.302 68.298a16.32 16.32 0 0 0 11.586 4.806 16.306 16.306 0 0 0 11.577-4.806l68.303-68.298c.46-.465.894-.954 1.29-1.457 23.616-25.295 23.075-65.213-1.534-89.83-21.502-21.467-54.637-24.603-79.548-9.362a64.274 64.274 0 0 0-34.268-9.796 64.228 64.228 0 0 0-45.731 18.949 64.25 64.25 0 0 0-18.949 45.727 64.245 64.245 0 0 0 18.404 45.19c.193.19.376.378.568.579"/></svg>