<svg xmlns="http://www.w3.org/2000/svg" xmlns:xlink="http://www.w3.org/1999/xlink" width="1024" height="1024" viewBox="0 0 1024 1024"><defs><path id="e" d="M63.737 81.186h896.365v861.515H63.737z"/></defs><clipPath id="f"><use xlink:href="#e" overflow="visible"/></clipPath><path d="M831.675 941.651H191.728c-67.26 0-127.991-61.392-127.991-127.991 0 0 1.112-252.545 1.112-341.88 0-42.665 25.939-67.26 62.884-84.752v-127.99c0-52.707 34.96-106.656 85.325-106.656h191.986l42.66-42.664c35.625-37.265 92.366-37.265 127.991 0l42.664 42.664h191.986c50.361 0 85.325 53.95 85.325 106.656v127.99c34.365 18.178 63.995 44.604 63.995 85.325V813.66c.001 66.599-60.731 127.991-127.99 127.991zm63.995-426.632c0-31.188-29.289-65.422-63.183-65.422l-.813 1.427V280.373c0-42.152-22.056-63.995-63.995-63.995H255.723c-41.94 0-63.995 21.843-63.995 63.995v170.651c-33.898 0-63.995 32.808-63.995 63.995v319.976c0 31.184 30.097 42.661 63.995 42.661h639.947c33.894 0 63.995-32.807 63.995-63.995V515.019zM529.024 746.466a26.023 26.023 0 0 1-23.852.299c-215.616-107.107-197.25-235.757-196.377-241.153-.361-1.665.361-55.208 35.879-90.787 19.411-19.456 44.69-29.269 75.173-29.269 46.097 0 77.351 21.736 96.868 46.441 19.858-24.385 51.046-45.97 96.011-46.441 82.873 0 112.462 70.182 112.396 117.346 2.092 91-65.721 174.559-196.098 243.564zm0 0" clip-path="url(#f)"/></svg>