<svg xmlns="http://www.w3.org/2000/svg" width="1024" height="1024" viewBox="0 0 1024 1024"><path d="M718.574 140.279c-61.287 0-119.481 23.255-163.908 65.481-4.252 4.016-26.645 26.703-43.983 44.309l-43.982-43.774c-44.453-42.584-102.861-66.016-164.444-66.016-131.171 0-237.898 106.727-237.898 237.898 0 76.602 38.269 134.083 71.072 169.59l294.484 297.488c23.315 23.287 49.187 38.451 80.5 38.451s57.214-15.165 80.618-38.569l294.336-297.371 2.056-2.292c35.506-44.277 69.047-86.085 69.047-167.298 0-131.17-106.727-237.897-237.898-237.897zm0 0"/></svg>