<svg xmlns="http://www.w3.org/2000/svg" width="1024" height="1024" viewBox="0 0 1024 1024"><path d="M511.141 884.965c-26.976 0-54.015-11.817-80.786-38.588L132.766 545.505C97.134 501.066 63.5 459.082 63.5 377.64c0-131.637 107.106-238.743 238.743-238.743 49.507 0 96.988 15.009 137.365 43.45 13.461 9.49 16.712 28.115 7.19 41.603-9.49 13.456-28.051 16.712-41.598 7.19-30.204-21.306-65.836-32.559-102.957-32.559-98.75 0-179.058 80.308-179.058 179.058 0 57.266 18.921 84.037 55.181 129.337l294.306 297.325c14.895 14.89 26.921 20.797 38.469 20.978 11.848.177 23.246-5.761 38.588-21.102L845.05 505.843c24.261-26.292 54.047-70.668 54.047-128.202 0-98.75-80.308-179.058-179.058-179.058-44.821 0-87.734 16.652-120.803 46.885l-125.037 125.07c-11.671 11.671-30.533 11.671-42.199 0-11.67-11.667-11.67-30.527 0-42.198l125.994-126.027c45.064-41.21 102.271-63.413 162.046-63.413 131.637 0 238.743 107.106 238.743 238.743 0 76.815-38.378 134.559-70.577 169.445L592.044 846.259c-26.857 26.889-53.896 38.706-80.903 38.706zm0 0"/></svg>