<svg xmlns="http://www.w3.org/2000/svg" xmlns:xlink="http://www.w3.org/1999/xlink" width="1024" height="1024" viewBox="0 0 1024 1024"><defs><path id="c" d="M73.875 63.88h875.699v895.678H73.875z"/></defs><clipPath id="d"><use xlink:href="#c" overflow="visible"/></clipPath><path d="M88.862 906.147l37.158 37.157c20.17 20.171 53.009 20.171 73.179 0l504.078-504.077c20.17-20.17 20.17-53.009 0-73.179l-37.158-37.158c-20.17-20.17-53.009-20.17-73.179 0L88.862 832.968c-20.17 20.17-20.17 53.009 0 73.179zM583.336 508.32l-59.43-59.429 94.55-94.55c6.123-6.123 16.148-6.123 22.332 0l37.157 37.163c6.064 6.059 6.064 16.268 0 22.331l-94.609 94.485zM114.313 858.419l384.078-384.073 59.429 59.429-384.072 384.078c-6.064 6.059-16.268 6.059-22.272 0l-37.163-37.162c-6.118-6.123-6.118-16.148 0-22.272zm0 0M539.871 205.588c0-8.587-5.642-16.148-13.863-18.673-31.758-9.484-70.839-24.791-78.34-32.293-7.566-7.566-22.753-46.587-32.358-78.34-4.923-16.268-32.358-16.511-37.281 0-9.544 31.753-24.851 70.774-32.412 78.34-7.507 7.503-46.529 22.809-78.222 32.353-8.226 2.465-13.868 10.026-13.868 18.613 0 8.583 5.642 16.145 13.808 18.668 31.753 9.545 70.774 24.851 78.281 32.358 7.561 7.561 22.808 46.582 32.412 78.28 2.465 8.221 10.026 13.865 18.673 13.865 8.642 0 16.149-5.643 18.668-13.865 9.485-31.698 24.732-70.719 32.298-78.28 7.561-7.566 46.582-22.813 78.28-32.358 8.282-2.46 13.924-10.085 13.924-18.668zm-78.217 0c-17.11 7.14-33.378 15.366-41.54 23.532-8.166 8.103-16.392 24.43-23.413 41.481-7.145-17.051-15.37-33.378-23.532-41.481-8.166-8.165-24.434-16.391-41.541-23.532 17.106-7.085 33.375-15.31 41.541-23.472 8.162-8.166 16.446-24.494 23.532-41.541 7.021 17.106 15.307 33.434 23.473 41.541 8.102 8.162 24.37 16.387 41.48 23.472zm0 0M896.817 168.609c0-6.367-4.145-11.949-10.269-13.748-23.408-7.022-52.285-18.37-57.868-23.894-5.583-5.583-16.809-34.396-23.894-57.869-3.659-12.004-23.889-12.187-27.553 0-7.081 23.473-18.37 52.285-23.949 57.869-5.583 5.524-34.401 16.872-57.814 23.894-6.064 1.8-10.264 7.442-10.264 13.748 0 6.362 4.141 11.945 10.205 13.745 23.472 7.025 52.289 18.311 57.872 23.894 5.579 5.582 16.868 34.396 23.949 57.868a14.35 14.35 0 0 0 13.748 10.264c6.362 0 11.945-4.14 13.745-10.264 7.025-23.472 18.31-52.285 23.894-57.868 5.583-5.583 34.396-16.868 57.868-23.894a14.262 14.262 0 0 0 10.33-13.745zm-74.92 0c-8.102 3.361-15.846 7.263-19.689 11.167-3.902 3.837-7.804 11.582-11.106 19.689-3.362-8.108-7.263-15.852-11.167-19.689-3.842-3.843-11.586-7.805-19.689-11.167 8.103-3.361 15.847-7.263 19.689-11.107 3.903-3.842 7.805-11.586 11.167-19.689 3.362 8.103 7.263 15.847 11.106 19.689 3.843 3.844 11.587 7.746 19.689 11.107zm0 0" clip-path="url(#d)"/><path d="M688.57 648.133c0 6.124 4.021 11.588 9.906 13.329 22.748 6.843 50.664 17.765 56.068 23.169 5.4 5.405 16.328 33.379 23.17 56.069 1.74 5.885 7.145 9.906 13.328 9.906 6.182 0 11.588-4.022 13.327-9.906 6.783-22.69 17.767-50.664 23.171-56.069 5.404-5.404 33.379-16.327 56.068-23.169 5.886-1.8 9.966-7.205 9.966-13.329 0-6.123-4.02-11.586-9.966-13.328-22.688-6.843-50.664-17.77-56.068-23.169-5.404-5.405-16.268-33.379-23.171-56.069-3.544-11.646-23.174-11.826-26.715 0-6.842 22.69-17.77 50.664-23.17 56.069-5.404 5.399-33.319 16.327-56.008 23.169-5.885 1.742-9.906 7.146-9.906 13.328zm71.915 0c8.047-3.302 15.668-7.204 19.51-11.046 3.843-3.843 7.686-11.464 11.047-19.511 3.302 8.047 7.205 15.668 11.047 19.511 3.842 3.842 11.463 7.684 19.506 11.046-8.043 3.363-15.664 7.205-19.506 11.047-3.842 3.779-7.686 11.464-11.047 19.507-3.362-8.042-7.204-15.663-11.047-19.507-3.782-3.842-11.463-7.744-19.51-11.047zm0 0M874.064 518.048c-4.502 0-8.464-2.944-9.723-7.204-4.983-16.571-12.966-36.92-16.928-40.881-3.962-3.962-24.315-11.885-40.881-16.868-4.264-1.264-7.205-5.226-7.205-9.728s2.941-8.464 7.265-9.723c16.566-4.983 36.919-12.966 40.821-16.868 3.962-3.962 11.885-24.315 16.928-40.881 2.578-8.647 16.867-8.523 19.451 0 4.978 16.566 12.965 36.919 16.867 40.881 3.962 3.902 24.311 11.885 40.881 16.868 4.319 1.259 7.265 5.221 7.265 9.723 0 4.502-2.945 8.464-7.265 9.728-16.57 4.983-36.919 12.965-40.881 16.868-3.962 3.961-11.889 24.31-16.867 40.881-1.265 4.26-5.225 7.204-9.728 7.204zm0 0"/></svg>