<svg xmlns="http://www.w3.org/2000/svg" width="1024" height="1024" viewBox="0 0 1024 1024"><path d="M490.867 676.12c-91.148 0-165.23-74.131-165.23-165.231V227.63c0-91.124 74.082-165.236 165.23-165.236 91.1 0 165.235 74.112 165.235 165.236v283.259c0 91.1-74.135 165.231-165.235 165.231zm0-566.516c-65.055 0-118.025 52.971-118.025 118.026v283.259c0 65.049 52.97 118.021 118.025 118.021s118.026-52.971 118.026-118.021V227.63c0-65.054-52.971-118.026-118.026-118.026zm0 0"/><path d="M797.732 510.889c0-13.027-10.606-23.609-23.604-23.609-13.003 0-23.606 10.582-23.606 23.609 0 143.195-116.455 259.651-259.65 259.651-143.2 0-259.655-116.456-259.655-259.651 0-13.027-10.558-23.609-23.606-23.609-13.046 0-23.604 10.582-23.604 23.609 0 161.265 125.076 293.858 283.255 305.941v95.339h-70.811c-13.052 0-23.604 10.602-23.604 23.606 0 12.998 10.552 23.604 23.604 23.604h188.835c13.003 0 23.606-10.606 23.606-23.604 0-13.003-10.607-23.606-23.606-23.606h-70.814V816.83c158.228-12.083 283.26-144.676 283.26-305.941zm0 0"/></svg>