<svg xmlns="http://www.w3.org/2000/svg" xmlns:xlink="http://www.w3.org/1999/xlink" width="1024" height="1024" viewBox="0 0 1024 1024"><defs><path id="a" d="M166.415 64.041h691.32v896.095h-691.32z"/></defs><clipPath id="b"><use xlink:href="#a" overflow="visible"/></clipPath><path d="M849.569 913.723H460.442l272.752-98.868c16.904-6.121 30.406-18.459 38.024-34.739 7.618-16.281 8.44-34.556 2.312-51.454l-17.674-48.774c-2.179-5.997-8.804-9.096-14.796-6.922-5.999 2.172-9.098 8.799-6.924 14.791l17.681 48.776c4.02 11.099 3.485 23.101-1.523 33.794-5.001 10.691-13.866 18.796-24.967 22.817L418.372 904.398c-11.099 4.022-23.099 3.483-33.79-1.518-10.693-5.008-18.796-13.873-22.819-24.968l-169.6-467.922c-8.305-22.91 3.579-48.303 26.489-56.609l306.954-111.26c11.098-4.022 23.096-3.482 33.79 1.521 10.693 5.003 18.796 13.872 22.814 24.959l69.278 191.804c2.167 6.001 8.785 9.106 14.786 6.939 5.999-2.167 9.106-8.787 6.939-14.786L603.93 260.742c-6.126-16.9-18.464-30.401-34.744-38.02-16.28-7.619-34.554-8.44-51.451-2.314L210.78 331.667c-34.886 12.643-52.977 51.311-40.335 86.195l169.604 467.92c8.247 22.754 27.569 38.352 49.689 42.951a8.161 8.161 0 0 0 4.437 1.316h5.782c1.138.06 2.28.096 3.422.101 1.142 0 2.285-.041 3.43-.101h442.759a8.168 8.168 0 0 0 8.166-8.166 8.168 8.168 0 0 0-8.166-8.165v.005h.001zM690.194 184.898a16.47 16.47 0 0 1-12.73-5.991c-5.803-7.026-4.813-17.427 2.212-23.228l48.54-40.102c7.023-5.803 17.423-4.815 23.226 2.212 5.801 7.025 4.815 17.425-2.212 23.228l-48.539 40.1a16.448 16.448 0 0 1-10.499 3.781h.002zm90.226 113.427c-1.08 0-2.186-.108-3.283-.332l-56.604-11.431c-8.932-1.803-14.709-10.508-12.906-19.438 1.805-8.932 10.51-14.707 19.437-12.906l56.604 11.431c8.934 1.803 14.713 10.508 12.904 19.438-1.58 7.832-8.463 13.238-16.152 13.238zm-183.638-145.04c-7.498 0-14.282-5.143-16.054-12.761l-13.097-56.24c-2.066-8.872 3.451-17.743 12.326-19.811 8.874-2.065 17.745 3.454 19.811 12.328l13.099 56.242c2.065 8.872-3.453 17.743-12.328 19.811a16.625 16.625 0 0 1-3.757.431zm23.067 806.851H386.587a6.602 6.602 0 0 1-6.703-6.497 6.598 6.598 0 0 1 6.495-6.705h233.47a6.599 6.599 0 0 1 6.597 6.597 6.6 6.6 0 0 1-6.597 6.605z" clip-path="url(#b)" fill="#d9d7d8"/><path d="M566.347 607.817a4.951 4.951 0 0 1-1.731-9.589l46.38-17.286a4.95 4.95 0 0 1 3.458 9.276l-46.38 17.286a4.915 4.915 0 0 1-1.726.311v.002h-.001zm-71.114 26.509a4.95 4.95 0 0 1-1.73-9.589l46.378-17.29a4.946 4.946 0 0 1 6.363 2.906l.003.005a4.95 4.95 0 0 1-2.907 6.365h-.002l-46.38 17.29a4.908 4.908 0 0 1-1.725.313zm-71.116 26.507a4.948 4.948 0 0 1-1.732-9.587l46.38-17.29a4.948 4.948 0 0 1 6.369 2.905 4.948 4.948 0 0 1-2.909 6.368h-.002l-46.378 17.29a4.862 4.862 0 0 1-1.728.314zm-53.839 20.068a4.95 4.95 0 0 1-1.731-9.587l29.102-10.85a4.956 4.956 0 0 1 6.382 2.88 4.944 4.944 0 0 1-2.878 6.377l-.046.019-29.102 10.846a4.941 4.941 0 0 1-1.727.315zm136.513 76.511L460.409 774.7a4.952 4.952 0 1 0 1.732 9.587c.573 0 1.157-.099 1.726-.313l46.38-17.288a4.947 4.947 0 0 0 2.911-6.362h-.002a4.942 4.942 0 0 0-6.36-2.912h-.005zm-71.117 26.505l-34.036 12.685a4.95 4.95 0 0 0-2.911 6.363l.002.005a4.961 4.961 0 0 0 4.64 3.225c.573 0 1.157-.104 1.726-.313l34.036-12.691a4.94 4.94 0 0 0 2.909-6.356c0-.007 0-.007-.002-.007a4.947 4.947 0 0 0-6.36-2.912l-.004.001zm333.768-364.325l-17.945-9.737c-7.156-3.885-17.416 1.172-22.911 11.298L579.278 696.341c-.663 1.225-1.007 2.577-.966 3.82l.979 30.445a4.675 4.675 0 0 0-1.388.297l-46.38 17.288a4.952 4.952 0 1 0-.022 9.902c.6.007 1.191-.101 1.754-.313.573 0 1.157-.101 1.726-.315l44.638-16.639.012.357c.108 3.355 2.87 4.857 5.741 3.114l35.113-21.253c1.063-.644 2.01-1.668 2.675-2.89l149.306-275.189c5.493-10.129 4.138-21.486-3.025-25.373h.001z" fill="#d9d7d8"/></svg>