<svg xmlns="http://www.w3.org/2000/svg" width="1024" height="1024" viewBox="0 0 1024 1024"><path d="M512.108 639.876c-23.558 0-42.637 19.099-42.637 42.635 0 23.56 19.079 42.657 42.637 42.657 23.532 0 42.633-19.097 42.633-42.657 0-23.536-19.101-42.635-42.633-42.635zm21.315 124.901v66.982c0 11.77-9.551 21.316-21.316 21.316-11.768 0-21.317-9.546-21.317-21.316v-66.982c-36.711-9.507-63.954-42.567-63.954-82.266 0-47.089 38.181-85.268 85.272-85.268 47.09 0 85.27 38.179 85.27 85.268-.001 39.699-27.245 72.759-63.955 82.266zM810.554 533.29c0-23.536-19.104-42.635-42.635-42.635H256.296c-23.556 0-42.637 19.099-42.637 42.635v362.395c0 23.558 19.08 21.321 42.637 21.321h511.623c23.531 0 42.635 2.237 42.635-21.321V533.29zm-85.273-213.176c0-117.735-95.46-213.175-213.173-213.175-117.739 0-213.199 95.439-213.199 213.175h.022V448.02H725.28V320.114h.001zm42.638 639.527H256.296c-47.09 0-85.27-16.845-85.27-63.956V533.29c0-47.09 38.179-85.27 85.27-85.27V320.114c0-141.271 114.518-255.81 255.811-255.81 141.271 0 255.811 114.538 255.811 255.81V448.02c47.089 0 85.27 38.179 85.27 85.27v362.395c.001 47.111-38.18 63.956-85.269 63.956z" fill="#3b3c3c"/></svg>