<svg xmlns="http://www.w3.org/2000/svg" width="1024" height="1024" viewBox="0 0 1024 1024"><path d="M512.442 898.055c34.537 0 62.527-27.991 62.527-62.523 0-34.516-27.99-62.529-62.527-62.529-34.533 0-62.523 28.012-62.523 62.529 0 34.533 27.99 62.523 62.523 62.523zm0-83.364c11.525 0 20.841 9.315 20.841 20.841 0 11.525-9.316 20.84-20.841 20.84s-20.841-9.315-20.841-20.84c-.001-11.526 9.316-20.841 20.841-20.841zM700.016 64.393H324.867c-46.037 0-83.364 37.328-83.364 83.364v729.457c0 46.037 37.328 83.364 83.364 83.364h375.149c46.041 0 83.369-37.328 83.369-83.364V147.757c0-46.036-37.328-83.364-83.369-83.364zm41.683 812.821c0 23.007-18.675 41.683-41.683 41.683H324.867c-23.007 0-41.682-18.675-41.682-41.683V752.162h458.513v125.052zm0-166.733H283.186V272.809h458.513v437.672zm0-479.355H283.186v-83.369c0-23.007 18.674-41.682 41.682-41.682h375.149c23.007 0 41.683 18.674 41.683 41.682v83.369zm-145.888-83.369H429.077c-11.504 0-20.841 9.337-20.841 20.841 0 11.529 9.337 20.846 20.841 20.846H595.81c11.525 0 20.841-9.316 20.841-20.846.001-11.504-9.315-20.841-20.84-20.841zm0 0"/></svg>