<svg xmlns="http://www.w3.org/2000/svg" xmlns:xlink="http://www.w3.org/1999/xlink" width="1024" height="1024" viewBox="0 0 1024 1024"><defs><path id="ay" d="M64.004 63.762h894.12v895.797H64.004z"/></defs><clipPath id="az"><use xlink:href="#ay" overflow="visible"/></clipPath><path d="M928.456 600.177c-17.883 0-29.809 11.926-29.809 29.807V856.53L615.465 573.35c-11.926-11.926-29.807-11.926-41.733 0-11.926 11.919-11.926 29.807 0 41.733l283.182 283.182H630.368c-17.883 0-29.809 11.919-29.809 29.807 0 17.883 11.926 29.809 29.809 29.809h298.089c17.882 0 29.808-11.926 29.808-29.809V629.985c-.001-17.882-11.927-29.808-29.809-29.808zM448.536 406.42L165.354 123.24H391.9c17.883 0 29.809-11.928 29.809-29.809 0-17.882-11.926-29.807-29.809-29.807H93.812c-17.882 0-29.807 11.926-29.807 29.807V391.52c0 17.882 11.926 29.809 29.807 29.809 17.883 0 29.809-11.928 29.809-29.809V164.974l283.182 283.182c11.926 11.926 29.807 11.926 41.733 0 11.926-8.945 11.926-29.808 0-41.736zm0 0" clip-path="url(#az)"/></svg>