<svg xmlns="http://www.w3.org/2000/svg" width="1024" height="1024" viewBox="0 0 1024 1024"><path d="M905.886 713.294l-72.482-64.271c21.171-43.521 33.089-92.356 33.089-144.045 0-166.422-123.161-303.721-283.235-326.685V82.89c212.406 23.511 377.649 203.432 377.649 422.088.001 75.809-20.231 146.715-55.021 208.316zm-417.037-596.37v226.564L365.1 233.757l123.749-116.833zm94.41 213.086c69.181 28.016 118.018 95.734 118.018 174.969 0 8.568-.827 16.925-1.935 25.158l-116.083-102.93V330.01zm311.11 610.156l-106.143-94.009c-58.674 43.428-128.611 72.46-204.967 80.91v-95.405c48.248-6.915 92.665-24.877 131.799-50.272L594.215 674.376c-3.684 1.814-7.132 4.013-10.956 5.569v-15.272l-94.41-83.599v301.548L263.868 670.195H64V339.761h152.311L71.125 211.193l62.715-70.569 823.244 728.947-62.715 70.595zm0 0"/></svg>