<svg xmlns="http://www.w3.org/2000/svg" xmlns:xlink="http://www.w3.org/1999/xlink" width="1024" height="1024" viewBox="0 0 1024 1024"><defs><path id="e" d="M64.329 63.096h895.365v896.462H64.329z"/></defs><clipPath id="f"><use xlink:href="#e" overflow="visible"/></clipPath><path d="M924.364 336.515c-22.551-53.311-54.825-101.186-95.933-142.294-41.105-41.104-88.982-73.382-142.294-95.929C630.928 74.937 572.296 63.1 511.872 63.1S392.815 74.937 337.607 98.292c-53.311 22.546-101.186 54.825-142.294 95.929-41.104 41.108-73.382 88.982-95.929 142.294-23.355 55.209-35.192 113.841-35.192 174.265 0 60.424 11.837 119.056 35.193 174.265 22.546 53.311 54.825 101.185 95.929 142.294 41.108 41.104 88.982 73.382 142.294 95.929 55.209 23.355 113.841 35.193 174.265 35.193s119.056-11.837 174.265-35.193c53.311-22.546 101.189-54.825 142.294-95.929 41.108-41.108 73.382-88.982 95.933-142.294 23.351-55.209 35.188-113.841 35.188-174.265-.001-60.424-11.838-119.056-35.189-174.265zm-43.402 330.173c-20.173 47.695-49.06 90.535-85.854 127.329s-79.634 65.677-127.329 85.854c-49.367 20.879-101.823 31.466-155.908 31.466s-106.54-10.588-155.908-31.466c-47.695-20.173-90.535-49.06-127.329-85.854s-65.681-79.634-85.854-127.329c-20.879-49.367-31.466-101.823-31.466-155.908s10.588-106.54 31.471-155.908c20.173-47.695 49.055-90.535 85.849-127.329 36.794-36.794 79.634-65.681 127.329-85.854 49.367-20.879 101.823-31.466 155.908-31.466 54.089 0 106.54 10.588 155.908 31.466 47.695 20.173 90.535 49.06 127.329 85.854s65.681 79.634 85.854 127.329c20.882 49.367 31.466 101.823 31.466 155.908s-10.588 106.541-31.466 155.908zm0 0" clip-path="url(#f)"/><path d="M507.914 667.893c-11.217 0-20.454 3.298-28.37 11.217-7.915 7.256-11.217 16.492-11.217 27.709 0 11.213 3.302 20.449 11.217 28.365 7.916 7.26 17.152 11.217 28.37 11.217 11.217 0 20.449-3.957 28.37-11.217 7.916-7.255 11.874-16.491 11.874-28.365 0-11.217-3.958-20.454-11.218-27.709-7.916-7.919-17.809-11.217-29.026-11.217zm0 0M619.411 301.078c-25.732-23.747-59.38-34.964-101.6-34.964-47.503 0-84.448 14.515-110.837 43.54-26.389 27.709-38.922 64.654-38.922 110.837h52.117c0-32.328 7.259-57.395 21.774-75.868 15.832-21.771 40.244-32.328 73.227-32.328 27.708 0 49.484 7.256 64.654 23.091 14.515 14.515 22.431 34.964 22.431 61.353 0 18.473-6.594 35.625-19.789 52.121-3.958 5.278-11.879 13.194-22.431 23.751-35.624 31.667-57.4 56.735-66.636 76.528-7.916 16.492-11.873 35.625-11.873 57.395v15.175h52.777v-15.175c0-17.813 3.961-33.644 12.538-48.159 6.596-11.874 16.492-23.751 31.007-36.286 29.03-25.732 46.843-42.885 53.437-50.8 16.496-21.771 25.072-47.503 25.072-77.19-.005-39.579-12.538-70.59-36.946-93.021zm0 0"/></svg>