<svg xmlns="http://www.w3.org/2000/svg" xmlns:xlink="http://www.w3.org/1999/xlink" width="1024" height="1024" viewBox="0 0 1024 1024"><defs><path id="g" d="M65 62.89h893.513v896.668H65z"/></defs><clipPath id="h"><use xlink:href="#g" overflow="visible"/></clipPath><path d="M512.883 62.661C265.523 62.661 65 263.185 65 510.545c0 247.361 200.523 447.889 447.883 447.889 218.108 0 403.45-156.974 441.022-369.364a446.808 446.808 0 0 0 4.248-29.856c1.298-11.995-7.373-22.769-19.372-24.069-11.994-1.298-22.774 7.377-24.067 19.372a407.678 407.678 0 0 1-3.833 26.942c-33.898 191.606-201.176 333.275-397.997 333.275-223.226 0-404.189-180.962-404.189-404.189 0-223.226 180.963-404.189 404.189-404.189 162.749 0 307.663 97.072 371.165 243.892 4.789 11.074 17.65 16.172 28.724 11.379 11.074-4.789 16.172-17.65 11.379-28.725C853.795 170.223 693.213 62.661 512.883 62.661zm0 0" clip-path="url(#h)"/><path d="M903.423 360.82l21.845-21.849H698.596c-12.069 0-21.85 9.784-21.85 21.849s9.781 21.85 21.85 21.85h226.673c12.069 0 21.85-9.785 21.85-21.85V119.979c0-12.069-9.781-21.85-21.85-21.85-12.065 0-21.845 9.781-21.845 21.85V360.82zm0 0"/></svg>