<svg xmlns="http://www.w3.org/2000/svg" xmlns:xlink="http://www.w3.org/1999/xlink" width="1024" height="1024" viewBox="0 0 1024 1024"><defs><path id="aO" d="M64.05 117.765h896.137v788.243H64.05z"/></defs><clipPath id="aP"><use xlink:href="#aO" overflow="visible"/></clipPath><path d="M957.226 305.618c0-.127 0-.189.061-.256.512-.9.896-1.795 1.218-2.752.256-.512.45-.962.645-1.341.251-.771.251-1.412.445-2.118.189-.828.383-1.529.45-2.24.062-.446 0-.83 0-1.218.062-1.152.127-2.175 0-3.265-.067-.507-.194-1.022-.323-1.539-.127-.891-.256-1.857-.512-2.81-.127-.45-.383-.833-.512-1.288a22.746 22.746 0 0 0-1.151-2.938c0-.067-.065-.132-.065-.194-.252-.45-.512-.83-.83-1.28-.512-.768-.962-1.601-1.54-2.307-.511-.64-1.089-1.213-1.591-1.73-.517-.512-.962-1.019-1.479-1.469a17.247 17.247 0 0 0-2.492-1.729c-.388-.189-.644-.512-1.027-.701l-.38-.194s-.07 0-.132-.067L676.213 121.458c-.127-.067-.256-.133-.45-.261-.701-.318-1.34-.579-2.046-.896a23.679 23.679 0 0 0-2.241-.9 10.516 10.516 0 0 0-1.34-.251 16.707 16.707 0 0 0-3.014-.639H666.1c-1.152-.067-2.236-.067-3.387.062-.451.066-.901.189-1.289.256a18.996 18.996 0 0 0-3.07.639c-.517.194-.962.383-1.407.577-.962.385-1.796.702-2.753 1.218l-.383.195-141.788 79.307-142.171-79.502c-.895-.511-1.857-.767-2.753-1.151-.45-.189-.9-.383-1.407-.577a19.11 19.11 0 0 0-3.202-.64c-.323-.066-.702-.189-1.09-.256a22.313 22.313 0 0 0-3.581-.061h-.768a18.455 18.455 0 0 0-3.33.639c-.383.127-.701.127-1.024.189-.89.323-1.658.701-2.558 1.09a6.82 6.82 0 0 0-1.796.706c-.127.061-.317.122-.511.256L75.587 274.383c-.445.256-.768.579-1.085.83a15.462 15.462 0 0 0-2.501 1.668l-1.535 1.531c-.512.577-1.089 1.089-1.539 1.668-.64.701-1.09 1.601-1.597 2.369-.261.45-.577.763-.771 1.151-.067.062-.067.189-.067.261-.512.89-.83 1.857-1.151 2.748-.19.516-.451.961-.579 1.477-.251.701-.318 1.469-.445 2.298-.129.711-.318 1.345-.384 2.051v1.796c0 .89-.061 1.728 0 2.62.062.577.256 1.218.384 1.795.132.896.256 1.73.512 2.564.261.507.45.895.639 1.407.383.962.773 1.924 1.218 2.752 0 .067.067.129.067.256.127.129.317.251.383.512a24.232 24.232 0 0 0 2.88 3.776c.383.384.768.763 1.213 1.152.962.895 2.051 1.663 3.203 2.491.383.261.767.578 1.218.834.194.127.317.127.383.189l122.069 64.588-106.066 51.207c-.383.127-.768.45-1.151.639-.768.45-1.478.833-2.118 1.345-.639.384-1.151.9-1.72 1.407-.579.512-1.151.962-1.606 1.535-.579.639-1.09 1.341-1.601 1.919-.318.384-.64.711-.896 1.09-.127.065-.194.321-.321.515-.384.701-.763 1.474-1.152 2.114-.317.701-.639 1.34-.89 1.922-.261.702-.388 1.341-.639 2.047-.133.9-.323 1.539-.45 2.307-.129.768-.129 1.407-.195 2.052-.065.828-.127 1.596-.127 2.235 0 .839.127 1.474.261 2.179.062.768.189 1.607.317 2.308.129.639.323 1.213.574 1.924.261.828.517 1.601.9 2.364.067.256.129.388.19.644.127.189.321.383.45.639.828 1.408 1.663 2.88 2.819 4.16.251.256.445.639.768.9 1.213 1.28 2.491 2.369 3.96 3.449l137.245 91.156c-.384 1.602-.64 3.33-.64 5.055v135.586c0 .38.124.763.124 1.146.065 1.152.132 2.241.321 3.265.129.768.384 1.34.64 2.108.194.773.388 1.35.639 2.118.261.768.644 1.341.962 1.985.318.639.639 1.345 1.089 1.99.384.639.891 1.146 1.346 1.728.512.507.89 1.147 1.407 1.72a69.876 69.876 0 0 0 2.431 1.99c.388.256.639.639 1.028.768l.061.127L499.09 900.75c.446.255 1.024.506 1.535.767.512.384 1.024.64 1.474.891.828.388 1.658.771 2.558 1.027.384.124.83.256 1.28.384.323.127.639.256.962.256 1.658.383 3.321.639 5.055.639v.124c.062-.124.062-.251.062-.251 1.728 0 3.396-.256 4.998-.64.383 0 .639-.127 1.024-.256.445-.132.895-.261 1.278-.383.895-.261 1.725-.639 2.497-1.028a32.204 32.204 0 0 0 1.474-.763c.512-.388 1.089-.639 1.472-.9.062 0 .124 0 .124-.127l263.028-179.936c.445-.261.773-.639 1.151-.9.763-.639 1.602-1.28 2.241-1.857.578-.639 1.024-1.279 1.469-1.729.388-.639.9-1.151 1.35-1.729.384-.639.701-1.34 1.019-1.984.388-.64.773-1.28 1.029-1.985.321-.768.512-1.341.701-2.113.194-.768.45-1.341.577-2.109.261-1.151.323-2.24.385-3.391 0-.256.127-.645.127-1.029V566.215c0-1.728-.256-3.448-.639-4.993l137.306-91.218a34.021 34.021 0 0 0 3.97-3.387c.256-.321.445-.711.701-.962 1.152-1.278 2.047-2.69 2.88-4.164.129-.186.256-.384.385-.64.127-.189.127-.383.261-.577.383-.83.639-1.601.89-2.431.261-.701.388-1.28.644-1.857.124-.773.261-1.474.261-2.308.124-.701.251-1.34.251-2.113 0-.768 0-1.469-.062-2.24-.065-.768-.065-1.346-.189-2.114-.137-.701-.388-1.407-.517-2.108-.256-.773-.383-1.474-.701-2.18-.261-.639-.577-1.213-.833-1.79-.38-.83-.763-1.54-1.279-2.308-.127-.127-.127-.383-.251-.512-.261-.383-.639-.701-.9-1.027a25.173 25.173 0 0 0-1.606-1.985 11.232 11.232 0 0 0-1.592-1.469 12.362 12.362 0 0 0-1.729-1.412c-.701-.574-1.472-1.019-2.245-1.407-.38-.189-.763-.579-1.151-.701l-106-51.209 122.008-64.526c.122-.127.251-.127.383-.251l1.151-.773c1.28-.828 2.37-1.601 3.392-2.625.384-.321.773-.701 1.147-1.089 1.151-1.218 2.118-2.497 2.881-3.909.189-.057.321-.184.45-.313h-.001zM664.881 594.249l-108.118-70.543 218.926-117.972L875.8 454.067 664.881 594.244v.005zm-305.724 0l-210.98-140.181 100.12-48.334 218.916 117.972-108.051 70.543h-.005zm-.122-426.576l106.71 59.789-217.386 126.423-113.75-60.106 224.426-126.102v-.004zm152.986 328.19l-216.23-116.57 216.23-125.655 216.296 125.655-216.296 116.57zM558.242 227.4l106.705-59.789L889.44 293.713l-113.684 60.11-217.509-126.428-.005.005zm-211.88 413.386c.251.122.577.261.89.383 1.28.768 2.568 1.341 3.974 1.858.574.255 1.147.511 1.858.766 1.857.512 3.771.773 5.699.773.062 0 .127.124.256.124.062 0 .122-.124.251-.124a21.4 21.4 0 0 0 5.699-.773 48.027 48.027 0 0 0 1.795-.766c1.341-.384 2.686-1.024 3.971-1.729.256-.129.577-.256.833-.384l117.589-76.749v274.162L271.853 689.821v-98.519l74.514 49.485h-.005zm405.829 49.03l-217.325 148.51V564.164l117.592 76.749c.323.133.578.261.834.384 1.28.768 2.625 1.34 3.965 1.857.64.127 1.152.383 1.729.639 1.858.512 3.842.773 5.761.773.067 0 .129.129.256.129 0 0 .067-.129.133-.129 1.979 0 3.96-.261 5.888-.9.639-.124 1.218-.384 1.725-.639a24.87 24.87 0 0 0 3.97-1.858c.323-.261.64-.261.901-.383l74.57-49.48v98.515-.005zm0 0" clip-path="url(#aP)"/></svg>