<svg xmlns="http://www.w3.org/2000/svg" xmlns:xlink="http://www.w3.org/1999/xlink" width="1024" height="1024" viewBox="0 0 1024 1024"><defs><path id="a" d="M64.012 87.531h896.009v848.916H64.012z"/></defs><clipPath id="b"><use xlink:href="#a" overflow="visible"/></clipPath><path d="M874.418 421.714H682.42c15.626-42.421 35.724-122.789 24.559-209.86-4.467-58.042-40.184-102.693-89.3-118.323-35.723-11.161-73.673-6.695-93.766 13.398-24.557 24.557-35.722 73.673-49.116 127.25-8.932 37.956-17.858 75.906-31.256 95.999-35.718 62.514-129.484 87.071-140.649 91.537h-60.275c-13.398 0-22.33 8.928-22.33 22.326v468.827c0 13.394 8.932 22.326 22.33 22.326h71.44c2.229 0 6.695 0 8.928-2.233h413.017c212.089 0 223.254-417.479 223.254-421.945-2.233-49.118-46.883-89.302-84.838-89.302zm-721.106-2.233H86.337c-13.393 0-22.324 8.928-22.324 22.326v468.827c0 13.398 8.932 22.326 22.324 22.326h66.976c13.398 0 22.324-8.928 22.324-22.326V441.806c0-11.164-11.16-22.325-22.325-22.325zm0 0" clip-path="url(#b)"/></svg>