<svg xmlns="http://www.w3.org/2000/svg" xmlns:xlink="http://www.w3.org/1999/xlink" width="1024" height="1024" viewBox="0 0 1024 1024"><defs><path id="c" d="M64 82.995h896.029v856.549H64z"/></defs><clipPath id="d"><use xlink:href="#c" overflow="visible"/></clipPath><path d="M877.032 419.469H683.881c15.725-42.677 35.938-123.528 24.705-211.124-4.493-58.392-40.424-103.31-89.836-119.035-35.938-11.227-74.116-6.734-94.33 13.478-24.705 24.706-35.937 74.116-49.411 128.015-8.986 38.185-17.966 76.364-31.444 96.576-38.179 62.89-123.528 89.842-130.263 92.089h-71.87c-13.478 0-22.459 8.98-22.459 22.459v473.894c0 6.739 2.241 11.227 6.734 15.719 4.493 4.493 8.986 6.739 15.725 6.739l80.852-2.246c60.643 0 332.4-2.246 413.255-2.246 213.365 0 224.597-419.99 224.597-424.483-.001-49.41-44.919-89.835-83.104-89.835zM735.538 888.87c-89.837 0-424.483 2.246-424.483 2.246h-47.164V464.388h62.884c4.493-2.246 110.055-31.445 157.218-112.301 15.721-26.953 24.706-65.132 35.933-107.803 11.232-42.672 22.46-92.083 38.179-110.055 4.493-4.488 24.705-8.98 47.17-2.241 15.719 4.487 53.899 24.7 60.638 83.097 13.473 112.296-33.692 215.611-33.692 217.857-2.246 6.739-2.246 15.719 2.246 22.459 4.493 6.74 11.232 11.233 17.971 11.233h224.591c13.48 0 38.185 17.966 38.185 44.917.003 74.118-31.441 377.319-179.676 377.319zM153.837 464.388c13.478 0 22.459-8.987 22.459-22.46 0-13.478-8.98-22.459-22.459-22.459H86.459c-13.473 0-22.459 8.98-22.459 22.459v471.648c0 13.473 8.986 22.459 22.459 22.459h67.379c13.478 0 22.459-8.986 22.459-22.459 0-13.474-8.98-22.46-22.459-22.46h-44.919V464.388h44.918zm0 0" clip-path="url(#d)"/></svg>