<svg xmlns="http://www.w3.org/2000/svg" width="1024" height="1024" viewBox="0 0 1024 1024"><path d="M511.966 63.14C264.948 63.14 64 264.088 64 511.106c0 247.024 200.948 447.972 447.966 447.972 247.024 0 447.972-200.948 447.972-447.972 0-247.018-200.949-447.966-447.972-447.966zm149.75 471.934L501.474 693.559c-6.24 6.142-14.369 9.248-22.493 9.248-8.257 0-16.513-3.17-22.752-9.502-12.417-12.578-12.319-32.8.254-45.245l137.403-135.894L457.605 375.5c-12.479-12.509-12.45-32.766.064-45.246 12.509-12.509 32.766-12.445 45.246.069l158.9 159.344c.03.034.03.069.064.098.034.035.064.035.098.064 2.945 2.979 5.053 6.435 6.592 10.048.062.128.224.259.254.386 4.734 11.615 2.365 25.437-7.107 34.811zm0 0"/></svg>