<svg xmlns="http://www.w3.org/2000/svg" xmlns:xlink="http://www.w3.org/1999/xlink" width="1024" height="1024" viewBox="0 0 1024 1024"><defs><path id="ag" d="M65 123.086h895.941v778.248H65z"/></defs><clipPath id="ah"><use xlink:href="#ag" overflow="visible"/></clipPath><path d="M931.126 422.209c-16.507 0-29.868-13.356-29.868-29.864V183.288H124.733v209.058c0 16.508-13.372 29.864-29.865 29.864C78.37 422.209 65 408.853 65 392.345V153.424c0-16.478 13.37-29.864 29.868-29.864h836.257c16.508 0 29.865 13.356 29.865 29.864v238.921c0 16.508-13.357 29.864-29.864 29.864zM384.62 670.086l98.509 119.402v-426.95c0-16.508 13.375-29.921 29.868-29.921 16.508 0 29.864 13.413 29.864 29.921v425.81l97.59-118.262c11.695-11.782 30.682-11.782 42.411 0 11.695 11.752 11.695 30.826 0 42.583L535.218 891.594c-6.24 6.275-14.511 8.956-22.69 8.516-8.18.44-16.465-2.241-22.704-8.516L342.213 712.669c-11.714-11.757-11.714-30.831 0-42.583 11.71-11.782 30.698-11.782 42.407 0zm0 0" clip-path="url(#ah)"/></svg>