<svg xmlns="http://www.w3.org/2000/svg" xmlns:xlink="http://www.w3.org/1999/xlink" width="1024" height="1024" viewBox="0 0 1024 1024"><defs><path id="k" d="M81.157 63.89h861.446v896.614H81.157z"/></defs><clipPath id="l"><use xlink:href="#k" overflow="visible"/></clipPath><path d="M931.041 487.729L758.967 315.655c-13.769-13.763-34.416-13.763-48.181 0-13.769 13.769-13.769 34.416 0 48.181l113.57 113.569H493.972c-20.648 0-34.411 13.769-34.411 34.418 0 20.648 13.763 34.411 34.411 34.411h330.385l-113.57 113.57c-13.769 13.769-13.769 34.416 0 48.181 6.886 6.884 13.765 10.323 24.088 10.323 10.324 0 17.209-3.439 24.093-10.323L931.041 532.47s0-3.439 3.44-3.439c10.325-10.324 10.325-30.977-3.44-41.302zm0 0" clip-path="url(#l)"/><path d="M838.12 752.725c-20.648 0-34.411 13.763-34.411 34.417v68.828c0 20.648-13.77 34.411-34.418 34.411h-585.05c-20.649 0-34.418-13.763-34.418-34.411V167.674c0-20.649 13.769-34.418 34.418-34.418h585.051c20.648 0 34.418 13.769 34.418 34.418v68.828c0 20.647 13.763 34.417 34.411 34.417 20.649 0 34.418-13.77 34.418-34.417v-68.828c0-58.505-44.741-103.246-103.246-103.246H184.241c-58.505 0-103.246 44.741-103.246 103.246v688.297c0 58.504 44.741 103.246 103.246 103.246h585.051c58.505 0 103.246-44.742 103.246-103.246v-68.828c0-20.655-13.769-34.418-34.418-34.418zm0 0" clip-path="url(#l)"/></svg>