<svg xmlns="http://www.w3.org/2000/svg" xmlns:xlink="http://www.w3.org/1999/xlink" width="1024" height="1024" viewBox="0 0 1024 1024"><defs><path id="m" d="M64 181.89h895.987v660.232H64z"/></defs><clipPath id="n"><use xlink:href="#m" overflow="visible"/></clipPath><path d="M605.476 606.599C675.775 572.517 722.64 500.09 722.64 417.013c0-117.162-95.861-213.023-213.023-213.023-117.163 0-213.018 95.861-213.018 213.023 0 83.077 48.991 155.505 117.157 189.586-89.469 31.956-161.891 110.775-181.068 208.762-2.126 6.392 0 12.784 4.261 17.045 4.263 4.256 10.654 8.518 17.041 8.518h511.252c6.393 0 12.785-2.131 17.041-8.518 4.261-4.261 6.392-10.653 4.261-17.045-19.171-97.987-89.468-174.676-181.068-208.762zm-349.355-125.68c0-10.654-6.387-19.172-17.04-21.303-61.776-14.909-72.429-78.819-72.429-115.031 0-68.166 46.865-119.293 108.645-119.293 12.779 0 21.303-8.518 21.303-21.303 0-12.779-8.524-21.301-21.303-21.301-85.211 0-151.248 68.166-151.248 161.896 0 61.774 21.303 106.509 57.518 134.203-59.649 25.562-104.383 76.689-117.162 146.986-2.131 10.649 4.261 23.433 17.041 25.559h4.261c10.648 0 19.171-6.387 21.301-17.04 14.909-70.298 61.774-117.163 132.073-127.811 10.653-2.13 19.171-12.783 17.04-25.562zM959.094 627.9c-14.914-70.292-57.518-121.418-117.162-146.981 36.212-27.694 57.513-74.56 57.513-134.203 0-91.599-66.036-161.896-151.243-161.896-12.784 0-21.301 8.523-21.301 21.301 0 12.78 8.518 21.303 21.301 21.303 63.905 0 108.64 51.126 108.64 119.293 0 36.212-8.523 100.117-72.428 115.031-10.648 2.131-14.911 10.648-14.911 21.303v2.131c-2.131 10.648 6.393 23.432 17.041 23.432 70.297 10.648 117.162 57.513 132.071 127.811 2.131 10.653 10.653 17.04 21.303 17.04h4.261c10.654-4.257 17.046-14.911 14.915-25.565zm0 0" clip-path="url(#n)"/></svg>