<svg xmlns="http://www.w3.org/2000/svg" xmlns:xlink="http://www.w3.org/1999/xlink" width="1024" height="1024" viewBox="0 0 1024 1024"><defs><path id="y" d="M63.705 62.806h896.013v897.368H63.705z"/></defs><clipPath id="z"><use xlink:href="#y" overflow="visible"/></clipPath><path d="M511.4 958.968c-246.927 0-447.846-200.884-447.846-447.846 0-246.927 200.919-447.847 447.846-447.847 246.962 0 447.847 200.885 447.847 447.847S758.362 958.968 511.4 958.968zm0-831.429c-211.518 0-383.584 172.065-383.584 383.584 0 211.489 172.066 383.584 383.584 383.584 211.489 0 383.585-172.066 383.585-383.584.001-211.52-172.095-383.584-383.585-383.584zm0 0" clip-path="url(#z)"/><path d="M463.206 302.27c0 26.617 21.577 48.196 48.195 48.196 26.619 0 48.196-21.578 48.196-48.196 0-26.621-21.577-48.2-48.196-48.2-26.618.001-48.195 21.579-48.195 48.2zm0 0M511.4 768.175c-17.738 0-32.133-14.366-32.133-32.134v-289.18c0-17.739 14.395-32.134 32.133-32.134 17.739 0 32.134 14.395 32.134 32.134v289.18c0 17.767-14.395 32.134-32.134 32.134zm0 0"/></svg>