<svg xmlns="http://www.w3.org/2000/svg" xmlns:xlink="http://www.w3.org/1999/xlink" width="1024" height="1024" viewBox="0 0 1024 1024"><defs><path id="C" d="M141.985 64.467h741.051v896.376H141.985z"/></defs><clipPath id="D"><use xlink:href="#C" overflow="visible"/></clipPath><path d="M876.445 726.098c-1.139-1.605-114.955-159.943-114.955-277.091 0-162.41-73.431-245.653-156.859-276.72V157.51c0-51.033-41.527-92.56-92.56-92.56-51.028 0-92.555 41.527-92.555 92.56v14.744c-83.426 31.071-156.859 114.315-156.859 276.725 0 116.87-113.787 275.02-114.926 276.596a30.978 30.978 0 0 0-5.122 25.022c1.972 8.639 7.589 16.073 15.428 20.268 5.461 2.965 103.543 55.227 225.164 81.482 20.639 64.021 71.176 107.337 128.87 107.337 57.699 0 108.233-43.316 128.844-107.305 121.592-26.132 219.675-78.088 225.135-81.02a30.714 30.714 0 0 0 15.489-20.268c1.973-8.671.122-17.804-5.094-24.993zM481.221 157.509c0-17.001 13.85-30.855 30.849-30.855 17 0 30.855 13.855 30.855 30.855v.894a242.387 242.387 0 0 0-20.55-.894h-20.61c-6.784 0-13.634.306-20.545.894v-.894zm30.85 740.47c-21.533 0-41.588-12.927-55.904-34.027 18.511 1.939 37.21 3.178 55.904 3.178 18.7 0 37.395-1.239 55.905-3.178-14.312 21.133-34.4 34.027-55.905 34.027zm0 0" clip-path="url(#D)"/></svg>