<svg xmlns="http://www.w3.org/2000/svg" xmlns:xlink="http://www.w3.org/1999/xlink" width="1024" height="1024" viewBox="0 0 1024 1024"><defs><path id="I" d="M64.513 84.825h895.673v854.092H64.513z"/></defs><clipPath id="J"><use xlink:href="#I" overflow="visible"/></clipPath><path d="M510.128 937.673c-21.704 0-45.729-13.021-71.418-38.675L249.478 709.766H163.78c-54.816 0-99.423-44.606-99.423-99.421v-198.84c0-54.816 44.606-99.423 99.423-99.423h85.698l189.136-189.131c25.451-25.456 49.445-38.346 71.315-38.346 23.763 0 51.535 16.208 51.535 61.775v729.089c.001 45.932-27.67 62.204-51.336 62.204zM163.78 378.361c-18.261 0-33.143 14.882-33.143 33.143v198.84c0 18.295 14.882 33.142 33.143 33.142h99.423c8.778 0 17.228 3.48 23.427 9.709l198.911 198.941c3.508 3.484 6.725 6.433 9.643 8.885V160.893a151.707 151.707 0 0 0-9.709 8.916L286.631 368.652c-6.2 6.231-14.649 9.709-23.427 9.709H163.78zm0 0" clip-path="url(#J)"/><path d="M677.024 737.073a33.007 33.007 0 0 1-19.317-6.229c-14.847-10.671-18.261-31.384-7.591-46.266l13.123-17.962c34.3-46.492 63.929-86.693 63.929-155.689 0-71.489-26.244-106.184-59.488-150.098-5.866-7.721-11.732-15.54-17.532-23.595-10.67-14.847-7.287-35.56 7.59-46.265 14.882-10.736 35.56-7.292 46.265 7.59 5.437 7.59 11.035 14.978 16.537 22.27 35.858 47.392 72.909 96.373 72.909 190.097 0 90.77-40.793 146.147-76.782 195.027l-12.663 17.335c-6.495 9.018-16.639 13.785-26.98 13.785zm0 0"/><path d="M789.771 849.588a33.043 33.043 0 0 1-21.84-8.222c-13.755-12.061-15.145-33.006-3.085-46.76 66.518-75.858 128.025-162.654 128.025-283.679 0-121.03-61.507-207.862-128.025-283.654-12.06-13.784-10.67-34.694 3.085-46.79 13.689-12.065 34.629-10.706 46.76 3.043C886.109 265.023 959.15 367.59 959.15 510.927c0 143.33-73.041 245.933-144.459 327.359-6.594 7.49-15.742 11.302-24.92 11.302zm0 0"/></svg>