<svg xmlns="http://www.w3.org/2000/svg" xmlns:xlink="http://www.w3.org/1999/xlink" width="1024" height="1024" viewBox="0 0 1024 1024"><defs><path id="ac" d="M66 119.09h895.987v784.85H66z"/></defs><clipPath id="ad"><use xlink:href="#ac" overflow="visible"/></clipPath><path d="M933.005 539.133h-55.933c-15.461 0-27.973-12.535-27.973-27.967 0-15.461 12.512-27.966 27.973-27.966h55.933c15.461 0 27.966 12.505 27.966 27.966.006 15.431-12.505 27.967-27.966 27.967zM821.133 203.517v-27.968l55.939-55.933 27.966 27.967v27.967l-55.934 55.939-27.971-27.972zm-125.855 415.23c-4.149 2.458-8.766 4.291-13.983 4.291-15.456 0-27.967-12.54-27.967-27.971 0-15.456 12.505-27.967 27.967-27.967v-1.419c31.902-6.476 55.938-34.69 55.938-68.503 0-33.837-24.036-62.028-55.938-68.498v-1.423c-15.456 0-27.967-12.535-27.967-27.968 0-15.456 12.505-27.967 27.967-27.967 5.217 0 9.834 1.804 13.983 4.291 55.881 12.779 97.889 61.803 97.889 121.564s-42.009 108.787-97.889 121.57zM569.422 902.716s-26.49 1.039-42.413-10.106L261.778 706.94H121.933C91.046 706.939 66 681.897 66 651.005V371.327c0-30.892 25.046-55.938 55.933-55.938h139.845l265.226-185.67c9.834-6.88 20.078-10.103 32.067-10.103 0 0 66.285-4.427 66.285 55.933v671.234c.005 30.887-25.042 55.933-55.934 55.933zm0-671.232c0-58.255-27.966-27.966-27.966-27.966l-251.711 167.81H149.906c-15.461 0-27.973 12.505-27.973 27.967V623.04c0 15.431 12.512 27.966 27.973 27.966h139.839l251.711 167.812s27.966 24.47 27.966 0V231.484zm335.617 615.299v27.966l-27.966 27.966-55.939-55.933v-27.966l27.966-27.973 55.939 55.94zm0 0" clip-path="url(#ad)"/></svg>