<svg xmlns="http://www.w3.org/2000/svg" xmlns:xlink="http://www.w3.org/1999/xlink" width="1024" height="1024" viewBox="0 0 1024 1024"><defs><path id="G" d="M64.158 84.651h897.028v855.384H64.158z"/></defs><clipPath id="H"><use xlink:href="#G" overflow="visible"/></clipPath><path d="M510.448 938.789c-21.737 0-45.798-13.04-71.526-38.733L249.403 710.538h-85.828c-54.899 0-99.573-44.674-99.573-99.572V411.825c0-54.899 44.674-99.573 99.573-99.573h85.828l189.422-189.417c25.489-25.495 49.52-38.404 71.423-38.404 23.799 0 51.613 16.232 51.613 61.868v730.192c.001 46.001-27.712 62.298-51.413 62.298zm0 0" clip-path="url(#H)"/><path d="M677.596 737.886c-6.7 0-13.472-2.02-19.346-6.239-14.87-10.687-18.289-31.431-7.603-46.336l13.143-17.989c34.352-46.563 64.025-86.825 64.025-155.925 0-71.597-26.284-106.345-59.578-150.325-5.874-7.732-11.75-15.563-17.559-23.63-10.686-14.87-7.298-35.614 7.601-46.335 14.905-10.752 35.614-7.303 46.335 7.601 5.445 7.601 11.051 15.001 16.562 22.304 35.912 47.464 73.019 96.519 73.019 190.384 0 90.907-40.854 146.368-76.898 195.322l-12.682 17.362c-6.503 9.031-16.662 13.806-27.019 13.806zm0 0"/><path d="M790.513 850.571a33.095 33.095 0 0 1-21.873-8.234c-13.775-12.08-15.168-33.056-3.09-46.831 66.618-75.973 128.218-162.9 128.218-284.108 0-121.213-61.6-208.176-128.218-284.083-12.078-13.805-10.686-34.746 3.09-46.861 13.709-12.084 34.682-10.722 46.831 3.048 71.526 81.62 144.677 184.343 144.677 327.896 0 143.547-73.152 246.305-144.677 327.855-6.604 7.5-15.766 11.318-24.958 11.318zm0 0"/></svg>