<svg xmlns="http://www.w3.org/2000/svg" xmlns:xlink="http://www.w3.org/1999/xlink" width="1024" height="1024" viewBox="0 0 1024 1024"><defs><path id="E" d="M142.14 64.124h741.059V960.51H142.14z"/></defs><clipPath id="F"><use xlink:href="#E" overflow="visible"/></clipPath><path d="M876.607 725.762c-1.139-1.573-114.956-160.189-114.956-277.094 0-162.411-73.432-245.655-156.86-276.723v-14.777c0-51.033-41.528-92.561-92.561-92.561-51.029 0-92.556 41.528-92.556 92.561v15.982c-10.399 7.618-15.521 21.012-11.388 33.968 5.184 16.228 22.584 25.117 38.784 19.994 17.122-5.461 35.605-8.239 54.856-8.239h20.61c111.106 0 177.406 85.895 177.406 229.767 0 104.16 70.289 226.955 106.228 282.983-55.317 25.239-176.479 73.461-293.94 73.461-117.15 0-238.555-48.562-293.906-73.889C254.297 675.284 324.518 552.8 324.518 448.64c0-60.195 11.2-110.117 33.294-148.406 8.512-14.778 3.457-33.632-11.294-42.145-14.839-8.55-33.628-3.455-42.145 11.289-27.582 47.761-41.56 108.083-41.56 179.262 0 116.872-113.789 275.023-114.927 276.599a30.98 30.98 0 0 0-5.122 25.023c1.972 8.639 7.589 16.073 15.428 20.268 5.461 2.965 103.544 55.227 225.167 81.483 20.639 64.022 71.177 107.338 128.872 107.338 57.699 0 108.234-43.316 128.845-107.306 121.594-26.133 219.677-78.089 225.138-81.021 7.834-4.195 13.511-11.6 15.489-20.268a30.952 30.952 0 0 0-5.096-24.994zM501.925 157.167c-7.001 0-13.696.956-20.545 1.511v-1.511c0-17.001 13.85-30.856 30.85-30.856 17.001 0 30.856 13.855 30.856 30.856v.894a242.387 242.387 0 0 0-20.55-.894h-20.611zm10.304 740.478c-21.533 0-41.588-12.927-55.905-34.028 18.511 1.939 37.211 3.178 55.905 3.178 18.7 0 37.395-1.239 55.906-3.178-14.312 21.133-34.4 34.028-55.906 34.028zm0 0" clip-path="url(#F)"/></svg>