<svg xmlns="http://www.w3.org/2000/svg" width="1024" height="1024" viewBox="0 0 1024 1024"><path d="M511.632 63.753c-246.637 0-447.276 200.639-447.276 447.276 0 246.644 200.639 447.282 447.276 447.282 246.643 0 447.282-200.639 447.282-447.282.001-246.637-200.638-447.276-447.282-447.276zm0 767.113c-26.451 0-47.92-21.469-47.92-47.921 0-26.451 21.469-47.92 47.92-47.92 26.457 0 47.926 21.469 47.926 47.92.001 26.451-21.469 47.921-47.926 47.921zm88.438-326.642c-27.798 27.768-56.486 56.458-56.486 82.236v54.029c0 17.633-14.313 31.945-31.951 31.945-17.632 0-31.945-14.312-31.945-31.945V586.46c0-52.264 39.936-92.2 75.205-127.441 25.847-25.847 52.586-52.558 52.586-73.866 0-53.259-43.002-96.578-95.847-96.578-53.736 0-95.84 41.467-95.84 94.409 0 17.633-14.313 31.946-31.951 31.946s-31.951-14.313-31.951-31.946c0-87.287 71.662-158.31 159.742-158.31 88.085 0 159.742 71.984 159.742 160.479.001 47.794-36.259 84.025-71.304 119.071zm0 0"/></svg>