<svg xmlns="http://www.w3.org/2000/svg" width="1024" height="1024" viewBox="0 0 1024 1024"><path d="M463.459 783.041c0 26.452 21.442 47.895 47.894 47.895 26.457 0 47.9-21.444 47.9-47.895s-21.444-47.894-47.9-47.894c-26.451 0-47.894 21.443-47.894 47.894zm0 0"/><path d="M511.353 958.312c-246.502 0-447.031-200.529-447.031-447.037 0-246.502 200.529-447.031 447.031-447.031 246.508 0 447.037 200.529 447.037 447.031 0 246.508-200.529 447.037-447.037 447.037zm0-829.919c-211.125 0-382.882 171.757-382.882 382.882 0 211.097 171.757 382.888 382.882 382.888 211.097 0 382.888-171.791 382.888-382.888 0-211.124-171.79-382.882-382.888-382.882zm0 0"/><path d="M511.353 672.626c-17.622 0-31.927-14.305-31.927-31.933v-53.995c0-52.241 39.914-92.154 75.164-127.371 25.833-25.867 52.558-52.563 52.558-73.859 0-53.23-42.978-96.525-95.794-96.525-53.706 0-95.788 41.444-95.788 94.357 0 17.623-14.305 31.928-31.933 31.928S351.7 400.923 351.7 383.3c0-87.239 71.623-158.223 159.655-158.223 88.037 0 159.655 71.944 159.655 160.391 0 47.802-36.239 84.013-71.266 119.04-27.782 27.718-56.455 56.392-56.455 82.156v53.999c-.002 17.624-14.307 31.963-31.936 31.963zm0 0"/></svg>