<svg xmlns="http://www.w3.org/2000/svg" xmlns:xlink="http://www.w3.org/1999/xlink" width="1024" height="1024" viewBox="0 0 1024 1024"><defs><path id="O" d="M65.161 63.89h895.162v896.614H65.161z"/></defs><clipPath id="P"><use xlink:href="#O" overflow="visible"/></clipPath><path d="M743.592 384.037c-13.49-13.385-35.309-13.248-48.663.278L444.043 637.916 332.989 523.795c-13.286-13.658-35.068-13.9-48.665-.688-13.626 13.255-13.937 35.068-.687 48.665L419.162 711.05c.069.099.206.099.278.204.069.069.099.206.168.273 2.17 2.137 4.853 3.445 7.399 4.889 1.344.725 2.41 1.928 3.787 2.479a34.19 34.19 0 0 0 13.006 2.578c4.374 0 8.744-.862 12.876-2.51 1.34-.551 2.374-1.655 3.645-2.342 2.584-1.445 5.267-2.716 7.468-4.884.069-.069.105-.211.21-.278.069-.101.168-.137.273-.206L743.834 432.7c13.386-13.49 13.248-35.272-.242-48.663zm0 0" clip-path="url(#P)"/><path d="M856.543 959.216H168.246C111.322 959.216 65 912.889 65 855.971V167.674c0-56.924 46.322-103.246 103.246-103.246h688.297c56.919 0 103.246 46.322 103.246 103.246v688.297c0 56.918-46.327 103.245-103.246 103.245zm-688.297-825.96c-18.963 0-34.418 15.454-34.418 34.418v688.297c0 18.994 15.454 34.411 34.418 34.411h688.297c18.994 0 34.411-15.417 34.411-34.411V167.674c0-18.963-15.417-34.418-34.411-34.418H168.246zm0 0" clip-path="url(#P)"/></svg>