<svg xmlns="http://www.w3.org/2000/svg" xmlns:xlink="http://www.w3.org/1999/xlink" width="1024" height="1024" viewBox="0 0 1024 1024"><defs><path id="K" d="M64.151 62.89h896.036v897.391H64.151z"/></defs><clipPath id="L"><use xlink:href="#K" overflow="visible"/></clipPath><path d="M511.857 63.359C264.924 63.359 64 264.285 64 511.218c0 246.968 200.89 447.857 447.857 447.857 246.968 0 447.858-200.889 447.858-447.857.001-246.933-200.889-447.859-447.858-447.859zm216.124 373.985L470.698 697.423c-.064.064-.192.099-.261.197-.093.063-.093.191-.191.255-2.055 1.991-4.594 3.211-6.972 4.565-1.186.672-2.151 1.701-3.407 2.181-3.855 1.544-7.934 2.348-12.018 2.348-4.113 0-8.256-.805-12.144-2.412-1.285-.545-2.315-1.638-3.536-2.315-2.377-1.348-4.849-2.539-6.908-4.56-.063-.063-.098-.196-.162-.26-.063-.093-.191-.093-.255-.191l-126.535-130.04c-12.371-12.724-12.081-33.061.643-45.432 12.722-12.341 33.031-12.115 45.436.643l103.688 106.547L682.32 392.134c12.469-12.626 32.84-12.753 45.436-.255 12.561 12.498 12.689 32.841.225 45.465zm0 0" clip-path="url(#L)"/></svg>