<svg xmlns="http://www.w3.org/2000/svg" xmlns:xlink="http://www.w3.org/1999/xlink" width="1024" height="1024" viewBox="0 0 1024 1024"><defs><path id="S" d="M64.087 96.936h895.851v829.746H64.087z"/></defs><clipPath id="T"><use xlink:href="#S" overflow="visible"/></clipPath><path d="M941.117 767.331L601.574 159.334c-22.078-39.594-54.94-62.311-90.036-62.311-35.126 0-67.959 22.716-90.1 62.346L82.309 767.297c-21.946 39.341-24.181 79.223-6.091 110.075 18.091 30.789 54.303 48.115 99.385 48.115h672.254c45.048 0 81.293-17.326 99.35-48.115 18.126-30.851 15.861-70.703-6.09-110.041zM479.825 319.277c0-17.609 14.294-31.903 31.903-31.903 17.614 0 31.907 14.294 31.907 31.903V606.43c0 17.643-14.293 31.903-31.907 31.903-17.609 0-31.903-14.26-31.903-31.903V319.277zm31.903 510.619c-26.45 0-47.857-21.44-47.857-47.857 0-26.421 21.407-47.861 47.857-47.861 26.451 0 47.861 21.44 47.861 47.861 0 26.417-21.411 47.857-47.861 47.857zm0 0" clip-path="url(#T)"/></svg>