<svg xmlns="http://www.w3.org/2000/svg" xmlns:xlink="http://www.w3.org/1999/xlink" width="1024" height="1024" viewBox="0 0 1024 1024"><defs><path id="U" d="M63.881 96.947h895.428v830.85H63.881z"/></defs><clipPath id="V"><use xlink:href="#U" overflow="visible"/></clipPath><path d="M847.292 926.598H175.358c-45.06 0-81.259-17.663-99.337-48.471-18.083-30.807-15.883-71.05 6.058-110.373l339.028-607.579c22.068-39.61 54.884-62.315 89.994-62.315 35.113 0 67.897 22.676 90.027 62.252l339.383 607.705c21.936 39.324 24.204 79.537 6.088 110.34-18.048 30.807-54.277 48.441-99.307 48.441zM511.135 161.64c-11.163 0-23.95 11.066-34.316 29.596L137.792 798.878c-10.622 19.071-13.109 36.2-6.764 47.006 6.351 10.779 22.517 16.969 44.33 16.969h671.934c21.849 0 37.985-6.156 44.331-16.969 6.311-10.778 3.858-27.902-6.793-46.973L545.451 191.236c-10.336-18.53-23.187-29.596-34.316-29.596zm0 0" clip-path="url(#V)"/><path d="M511.326 638.884c-17.601 0-31.888-14.257-31.888-31.892V319.978c0-17.605 14.287-31.892 31.888-31.892 17.605 0 31.892 14.287 31.892 31.892v287.014c0 17.635-14.288 31.892-31.892 31.892zm0 0M463.491 750.631c0 26.418 21.417 47.833 47.835 47.833s47.838-21.415 47.838-47.833c0-26.423-21.42-47.84-47.838-47.84s-47.835 21.416-47.835 47.84zm0 0"/></svg>