<svg xmlns="http://www.w3.org/2000/svg" xmlns:xlink="http://www.w3.org/1999/xlink" width="1024" height="1024" viewBox="0 0 1024 1024"><defs><path id="aQ" d="M64 63.89h895.243V958H64z"/></defs><clipPath id="aR"><use xlink:href="#aQ" overflow="visible"/></clipPath><path d="M405.233 742.724c-89.243 0-174.026-35.7-240.963-98.172-133.867-133.866-133.867-348.057 0-481.924 66.936-62.471 151.719-98.171 240.963-98.171 89.248 0 174.031 35.7 240.961 98.171 133.867 133.867 133.867 348.058 0 481.924-62.47 62.471-147.254 98.172-240.961 98.172zm0-642.567c-80.32 0-156.179 31.235-214.191 89.242-116.019 116.02-116.019 312.358 0 428.377 58.012 58.012 133.871 89.248 214.191 89.248 80.319 0 156.178-31.236 214.19-89.248 116.019-116.019 116.019-312.357 0-428.377-58.012-58.007-133.871-89.242-214.19-89.242zm0 0" clip-path="url(#aR)"/><path d="M873.773 956.909c-22.312 0-44.624-8.923-58.012-22.311L619.423 738.259c-17.852-17.848-22.311-35.699-22.311-58.012 0-22.307 8.923-44.62 22.311-58.007 31.236-31.236 84.783-31.236 120.479 0l196.343 196.339c17.847 17.851 22.307 35.699 22.307 58.012 0 22.311-8.923 44.624-22.307 58.007-17.852 13.388-40.165 22.311-62.472 22.311zM677.43 631.164c-13.388 0-22.311 4.464-31.236 13.388-8.923 8.925-13.388 22.312-13.388 31.236 0 13.388 4.465 22.312 13.388 31.236l196.343 196.339c17.848 17.852 49.084 17.852 66.931 0 8.925-8.925 13.388-22.312 13.388-31.236 0-13.384-4.463-22.311-13.388-31.236L713.131 644.552c-8.925-8.924-22.313-13.388-35.701-13.388zm0 0"/></svg>