<svg xmlns="http://www.w3.org/2000/svg" xmlns:xlink="http://www.w3.org/1999/xlink" width="1024" height="1024" viewBox="0 0 1024 1024"><defs><path id="c" d="M63.934 66.283h896.331v891.876H63.934z"/></defs><clipPath id="d"><use xlink:href="#c" overflow="visible"/></clipPath><path d="M953.579 917.974L756.546 720.94c60.667-69.497 97.621-160.131 97.621-259.373 0-217.943-177.181-395.239-395.124-395.239-217.945 0-395.24 177.295-395.24 395.239 0 217.889 177.295 395.124 395.24 395.124 102.151 0 195.13-39.248 265.411-103.153l196.863 196.863a22.828 22.828 0 0 0 16.159 6.709c5.814 0 11.798-2.235 16.159-6.709 8.945-8.945 8.945-23.427-.056-32.427m-494.536-107.07c-192.674 0-349.447-156.723-349.447-349.392 0-192.673 156.773-349.447 349.447-349.447 192.613 0 349.447 156.774 349.447 349.447-.056 192.726-156.834 349.392-349.447 349.392" clip-path="url(#d)"/></svg>