<svg xmlns="http://www.w3.org/2000/svg" xmlns:xlink="http://www.w3.org/1999/xlink" width="1024" height="1024" viewBox="0 0 1024 1024"><defs><path id="a" d="M132.133 64.614h759.302v894.657H132.133z"/></defs><clipPath id="b"><use xlink:href="#a" overflow="visible"/></clipPath><path d="M855.845 193.623c-114.263-4.96-223.656-43.6-325.16-114.886l-19.24-13.495-19.192 13.495C390.808 150.009 281.41 188.663 167.862 193.6h-35.866v302.153c0 221.331 152.682 410.867 371.313 460.897l9.54 1.526 6.854-1.526C738.285 906.619 890.94 717.084 890.94 495.753V193.6l-35.095.023zM511.867 921.986l-.2.049-1.032-.161c-202.041-46.522-343.098-221.651-343.098-426.108V229.128h1.085c120.744-5.235 236.092-45.767 342.844-120.459 106.792 74.693 222.141 115.224 343.609 120.472l.307 266.612c.015 204.657-141.3 379.933-343.515 426.233zm203.87-549.164c-5.942-5.844-15.58-5.76-21.416.173L465.727 610.271 329.066 465.162c-5.649-6.12-15.287-6.507-21.407-.845l-3.864 3.567c-6.12 5.649-6.507 15.287-.845 21.407l151.463 160.803c5.644 6.115 15.282 6.503 21.402.845L719.669 397.92c5.843-5.947 5.754-15.585-.174-21.416l-3.758-3.682zm0 0" clip-path="url(#b)"/></svg>