<svg xmlns="http://www.w3.org/2000/svg" xmlns:xlink="http://www.w3.org/1999/xlink" width="1024" height="1024" viewBox="0 0 1024 1024"><defs><path id="c" d="M131.512 64.281h760.214v895.732H131.512z"/></defs><clipPath id="d"><use xlink:href="#c" overflow="visible"/></clipPath><path d="M856.093 193.445c-114.4-4.966-223.925-43.652-325.551-115.024L511.279 64.91l-19.215 13.511c-101.567 71.358-211.096 110.058-324.78 115.001h-35.909v302.516c0 221.597 152.866 411.36 371.759 461.451l9.552 1.528 6.863-1.528c218.844-50.091 371.682-239.854 371.682-461.451V193.422l-35.138.023zm-136.34 204.537l-244.16 253.323c-6.127 5.655-15.763 5.281-21.428-.846L302.52 489.464c-5.655-6.127-5.281-15.763.846-21.428l3.87-3.576c6.127-5.651 15.763-5.277 21.431.846l136.839 145.283 228.855-237.557c5.851-5.954 15.501-6.029 21.441-.178l3.749 3.7c5.963 5.838 6.039 15.488.202 21.428zm0 0" clip-path="url(#d)"/></svg>