<svg xmlns="http://www.w3.org/2000/svg" xmlns:xlink="http://www.w3.org/1999/xlink" width="1024" height="1024" viewBox="0 0 1024 1024"><defs><path id="bm" d="M63.509 63.891h894.707v895.667H63.509z"/></defs><clipPath id="bn"><use xlink:href="#bm" overflow="visible"/></clipPath><path d="M510.384 64.458c-246.971 0-447.006 200.035-447.006 447.006 0 246.965 200.035 447.001 447.006 447.001 246.965 0 447.001-200.035 447.001-447.001 0-246.97-200.035-447.006-447.001-447.006zm235.793 585.574c-10.057 5.589-26.818-6.701-42.463-30.168-5.589 24.584-21.234 46.934-42.468 64.813 22.35 7.823 36.879 22.351 36.879 36.879 0 25.702-40.229 45.819-89.403 45.819-44.697 0-81.576-16.767-88.282-37.996h-11.177c-6.701 21.229-43.58 37.996-88.281 37.996-49.169 0-89.399-20.117-89.399-45.819 0-15.645 14.523-29.056 36.875-36.879-21.229-17.879-36.875-40.229-42.463-64.813-15.645 22.346-32.408 34.641-42.468 30.168-15.645-7.823-12.29-50.286 6.705-93.87 14.529-34.642 34.645-60.342 50.29-65.931v-6.706c0-13.411 3.35-25.702 10.056-35.762v-2.233c0-6.706 1.116-12.29 4.472-16.763 5.584-91.637 64.813-163.156 160.918-163.156 96.108 0 155.334 71.52 159.805 162.04 2.234 4.468 4.468 11.173 4.468 16.762v2.234c6.706 10.061 10.061 22.35 10.061 35.763v6.705c15.645 5.584 35.757 31.29 50.286 65.931 17.883 44.7 21.234 87.163 5.589 94.986zm0 0" clip-path="url(#bn)"/></svg>