<svg xmlns="http://www.w3.org/2000/svg" width="1024" height="1024" viewBox="0 0 1024 1024"><path d="M511.682 63.394c-247.241 0-447.671 200.431-447.671 447.671 0 247.241 200.429 447.671 447.671 447.671 247.24 0 447.669-200.429 447.669-447.671.001-247.241-200.429-447.671-447.669-447.671zM248.344 262.511c5.409-9.599 12.967-16.955 22.673-22.062 9.701-5.102 19.348-7.763 28.952-7.968 9.599 0 19.25 2.607 28.956 7.817 9.701 5.204 17.259 12.615 22.673 22.214 5.409 9.604 8.168 19.714 8.275 30.334.097 10.624-2.505 20.529-7.817 29.718-5.512 9.398-12.918 16.804-22.215 22.214-9.295 5.414-19.255 8.022-29.874 7.817-10.624 0-20.579-2.651-29.874-7.968-9.296-5.307-16.6-12.611-21.907-21.906-5.317-9.297-7.968-19.354-7.968-30.183.002-10.421 2.712-20.424 8.126-30.027zM350.222 764.09l-97.132 45.352V582.086h97.132V764.09zm1.533-267.487c-5.317 9.188-12.616 16.497-21.907 21.906-9.3 5.414-19.255 8.016-29.879 7.812-10.624 0-20.579-2.651-29.869-7.963-9.301-5.312-16.601-12.567-21.912-21.755-5.312-9.194-7.968-19.201-7.968-30.03 0-10.825 2.656-20.935 7.968-30.334 5.517-9.599 13.07-16.898 22.674-21.906 9.599-5.004 19.304-7.607 29.108-7.812 9.809 0 19.509 2.553 29.113 7.655 9.599 5.111 17.157 12.41 22.673 21.911 5.517 9.496 8.27 19.66 8.27 30.485-.205 10.83-2.964 20.837-8.271 30.031zm129.608 270.246l-96.824 45.653V240.448h409.355l-32.17 66.491H481.363v459.91zm16.546-334.594v-63.117h94.374V330.53h94.066v38.608h99.578l-29.109 63.117h-70.469v55.766h106.32l-29.108 63.122h-273.62v-63.122h102.341v-55.766h-94.373zm266.877 366.153h-276.07v-63.117h103.566v-56.683h-96.517v-62.815h96.517v-45.961h94.066v45.961H789.3l-29.108 62.815h-73.844v56.683h108.468l-30.03 63.117zm0 0"/></svg>