<svg xmlns="http://www.w3.org/2000/svg" xmlns:xlink="http://www.w3.org/1999/xlink" width="1024" height="1024" viewBox="0 0 1024 1024"><defs><path id="be" d="M64.009 62.89h895.394v896.668H64.009z"/></defs><clipPath id="bf"><use xlink:href="#be" overflow="visible"/></clipPath><path d="M511.936 63.49c-247.141 0-447.491 200.349-447.491 447.491 0 247.137 200.349 447.485 447.491 447.485 247.137 0 447.485-200.348 447.485-447.485 0-247.142-200.348-447.491-447.485-447.491zM402.392 696.441h-90.606V404.873h90.606v291.568zm-45.854-327.34c-28.611 0-47.139-20.338-47.139-45.361 0-25.641 19.053-45.302 48.303-45.302s47.139 19.662 47.69 45.302c.058 25.081-18.47 45.361-48.854 45.361zm376.751 327.34h-90.574V534.838c0-37.581-13.141-63.16-45.917-63.16-25.023 0-39.91 17.306-46.526 33.968-2.388 5.917-2.969 14.305-2.969 22.609v168.13h-90.664V497.808c0-36.359-1.165-66.801-2.392-92.992h78.693l4.191 40.496h1.779c11.945-19.053 41.164-47.081 90.05-47.081 59.607 0 104.328 39.916 104.328 125.769v172.441zm0 0" clip-path="url(#bf)"/></svg>