<svg xmlns="http://www.w3.org/2000/svg" xmlns:xlink="http://www.w3.org/1999/xlink" width="1024" height="1024" viewBox="0 0 1024 1024"><defs><path id="bu" d="M63.537 63.855h894.432v895.703H63.537z"/></defs><clipPath id="bv"><use xlink:href="#bu" overflow="visible"/></clipPath><path d="M510.484 64.145c-246.927 0-447.099 200.173-447.099 447.099 0 246.921 200.172 447.094 447.099 447.094 246.921 0 447.093-200.173 447.093-447.094-.001-246.93-200.168-447.099-447.093-447.099zM271.608 277.626c3.231-5.679 8.121-8.651 14.762-8.651h218.107c12.842 0 19.136 6.204 19.136 18.871 0 107.177.084 214.355.084 321.531 0 12.321-6.289 18.521-18.693 18.521H479.5c-12.32 0-18.694-6.29-18.694-18.521v-266.15c0-7.773-3.494-11.356-11.184-11.356H343.146c-7.689 0-12.757 5.331-12.757 13.015v261.26c0 12.49-4.453 21.662-16.941 21.662-8.473 0-16.683-1.221-25.156-.61-12.405.873-16.861-7.247-16.861-16.857-.09-.089 0-267.028-.09-320.31-.001-3.674-1.569-9.084.267-12.405zm252.089 461.553c-.089 9.957-6.989 16.425-16.946 15.546-43.85-3.752-79.753-22.709-107.703-56.602-.789-.873-1.484-1.831-2.446-2.878-3.148 3.578-6.205 7.247-9.347 10.656-20.878 22.446-46.386 37.035-76.168 44.461-8.91 2.183-17.904 3.489-27.078 4.104-6.378.437-13.889-5.768-13.978-12.32-.263-12.663-.7-25.414 0-38.082.526-8.91 4.805-13.889 15.72-16.683 34.682-8.91 56.344-26.73 69.879-60.274 4.195-12.663 8.473-25.677 8.389-37.908-.089-74.159 0-149.101 0-223.354 0-8.121 3.315-8.994 11.53-8.994h42.45c9.084 0 10.568 1.395 10.568 10.304 0 74.422.178 148.932-.085 223.354-.089 20.53 6.027 38.871 17.467 55.555 14.589 21.23 34.588 34.945 59.57 41.406 2.01.522 4.021 1.048 6.032 1.747a17.652 17.652 0 0 1 12.141 16.594c.089 11.096.089 22.273.005 33.368zm265.892-390.19c0 11.178-5.768 16.857-16.861 16.857-41.666 0-80.537.179-122.202 0-3.669 0-8.473 4.895-8.384 8.389.174 35.023 2.622 66.558 2.447 101.587 0 3.315 2.357 3.752 5.937 3.752 37.823-.174 75.91 0 113.729 0 12.057 0 16.861 4.805 16.861 16.857 0 81.499-.173 167.104 0 248.598 0 10.92-5.683 16.857-16.861 16.857-64.291-.263-129.539 0-193.829 0-12.137 0-21.047-8.91-21.047-21.047V496.433c0-11.442 7.947-16.331 19.303-16.331 3.231 0 6.548-.174 9.779.089 2.531.174 4.542-2.188 4.542-4.805-.089-18.173 0-36.603 0-54.769.179-15.547.179-30.751.179-46.297v-92.678c0-13.015 7.862-21.051 21.046-21.051h21.056c11.532 0 19.394 6.989 19.394 18.61 0 6.899 1.921 12.403 1.658 19.303-.089 3.057 1.394 4.195 4.19 4.195 41.666-.09 80.537 0 122.202 0 12.14 0 16.861 8.905 16.861 21.051v25.239zm0 0" clip-path="url(#bv)"/><path d="M612.618 555.48v130.592c0 7.858 5.151 12.315 12.926 12.315h80.105c8.557 0 12.052-3.583 12.052-12.231.089-21.92.089-43.845.089-65.859 0-22.009.263-42.796.263-64.817 0-7.942-4.63-12.661-12.667-12.661h-80.101c-7.163 0-12.667 5.415-12.667 12.661zm0 0"/></svg>