<svg xmlns="http://www.w3.org/2000/svg" xmlns:xlink="http://www.w3.org/1999/xlink" width="1024" height="1024" viewBox="0 0 1024 1024"><defs><path id="bw" d="M64.009 63.391h895.206v896.167H64.009z"/></defs><clipPath id="bx"><use xlink:href="#bw" overflow="visible"/></clipPath><path d="M511.134 63.959c-247.015 0-447.256 200.241-447.256 447.256 0 247.009 200.241 447.25 447.256 447.25 247.009 0 447.25-200.241 447.25-447.25 0-247.015-200.241-447.256-447.25-447.256zM279.832 769.165c-1.16 9.217-6.192 13.168-11.508 13.168-6.018 0-12.421-5.081-13.918-13.168-2.798-15.202-12.766-64.714 12.66-153.805 25.456-89.055 81.959-141.69 81.336-143.234-2.482-6.193-3.851-12.942-3.851-20.107 0-29.645 23.289-51.453 52.916-51.453 29.614 0 51.93 21.808 51.93 51.453 0 29.614-22.316 52.903-51.93 52.903-12.259 0-22.141-2.214-31.026-8.995-2.359-1.801-49.832 52.348-73.441 128.032-20.602 66.037-10.651 125.483-13.168 145.206zm272.842-304.52c-3.391 56.755-48.412 148.916-157.597 148.916-21.284 0-53.427-4.283-45.656-21.745 7.767-17.48 41.169-7.29 45.656-7.29 74.716 0 125.645-67.201 128.366-119.882 2.708-52.711-30.596-136.977-128.366-136.977-99.37 0-129.269 86.433-129.269 136.977 0 30.041 24.645 59.655 8.995 68.314a12.461 12.461 0 0 1-6.146 1.625c-14.933-.034-32.733-26.014-32.733-69.939 0-80.649 52.967-166.029 161.542-166.029 108.562-.003 159.315 97.175 155.208 166.03zm142.645-42.299c-.465 4.108-3.791 6.974-8.138 6.91 0 0-.922.064-2.593.064-9.298 0-41.63-2.074-67.201-28.915-30.198-31.679-35.056-104.275 21.207-136.099 56.259-31.81 109.081 4.108 123.093 30.484 12.34 23.259 15.808 40.726 10.238 65.021-5.589 24.291-16.571 35.629-16.571 35.629-2.901 3.945-8.25 4.457-11.973 1.481.11.094.222.204.349.302l-.606-.512c.094.064.176.128.257.21-3.425-3.298-3.63-8.518-.495-11.897 0 0 3.28-1.195 10.156-17.381 6.863-16.225 6.688-51.534-10.174-70.685-28.782-32.686-62.837-36.047-94.678-18.439-22.718 12.548-43.062 42.095-35.47 77.471 7.597 35.389 37.415 49.559 44.96 52.421 16.192 6.146 28.195 6.193 28.195 6.193 4.331.418 8.152 3.663 9.444 7.742a8.814 8.814 0 0 0 .013-1.945l.401 3.885a8.736 8.736 0 0 0-.414-1.94zm120.642 66.484h-.129c-2.977 0-37.492-8.663-76.545-41.746-39.766-33.7-55.782-79.232-56.179-79.232-13.756 0-28.962-12.818-28.962-26.476 0-13.674 7.119-31.396 28.962-31.396s29.896 17.718 29.896 31.396c0 13.658-7.005 18.5-12.131 21.78-1.101.699 8.343 38.844 45.818 71.593 18.93 16.542 51.726 35.104 67.375 39.847 15.634 4.743 3.182 14.008 1.895 14.234zm0 0" clip-path="url(#bx)"/></svg>