<svg xmlns="http://www.w3.org/2000/svg" xmlns:xlink="http://www.w3.org/1999/xlink" width="1024" height="1024" viewBox="0 0 1024 1024"><defs><path id="bk" d="M64.009 63.391h895.206v896.167H64.009z"/></defs><clipPath id="bl"><use xlink:href="#bk" overflow="visible"/></clipPath><path d="M511.134 63.959c-247.028 0-447.256 200.228-447.256 447.256 0 247.022 200.228 447.25 447.256 447.25 247.023 0 447.25-200.228 447.25-447.25 0-247.028-200.227-447.256-447.25-447.256zm43.353 597.613c-40.645-3.157-57.693-23.284-89.534-42.628-17.527 91.854-38.913 179.938-102.309 225.947-19.57-138.87 28.736-243.167 51.155-353.891-38.239-64.377 4.611-193.967 85.285-162.015 99.264 39.271-85.954 239.363 38.38 264.353C667.28 619.421 720.281 368.09 639.802 286.354c-116.317-118.018-338.571-2.683-311.264 166.297 6.654 41.314 49.341 53.836 17.053 110.86-74.439-16.489-96.661-75.22-93.812-153.488 4.616-128.14 115.113-217.844 225.978-230.227 140.185-15.679 271.762 51.462 289.933 183.346 20.461 148.798-63.289 310.005-213.203 298.43zm0 0" clip-path="url(#bl)"/></svg>