<svg xmlns="http://www.w3.org/2000/svg" xmlns:xlink="http://www.w3.org/1999/xlink" width="1024" height="1024" viewBox="0 0 1024 1024"><defs><path id="bq" d="M63.965 63.143h895.113v896.415H63.965z"/></defs><clipPath id="br"><use xlink:href="#bq" overflow="visible"/></clipPath><path d="M511.867 351.905c-37.461 42.748-60.278 98.537-60.278 159.836 0 61.251 22.817 117.087 60.278 159.86 37.461-42.773 60.233-98.658 60.233-159.86 0-61.276-22.772-117.088-60.233-159.836zm-.583-288.48c-247.121 0-447.47 200.353-447.47 447.465 0 247.136 200.349 447.465 447.47 447.465s447.46-200.328 447.46-447.465c0-247.112-200.338-447.465-447.46-447.465zM148.665 674.052c-38.748-43.042-62.543-99.822-62.543-162.311 0-121.724 89.61-222.324 206.424-240.001v185.621c-.025.001 4.079 113.396-143.881 216.691zm180.442 80.697c-40.376 0-78.345-9.953-111.844-27.41 29.376-21.364 88.269-72.05 109.535-148.014 0 0 39.334 88.9 117.993 145.637-34.425 18.811-73.66 29.787-115.684 29.787zm184.726-81.158c-.631-.68-1.335-1.31-1.966-1.99-.485.508-1.018 1.022-1.526 1.53-39.96-25.492-126.923-90.407-143.773-218.489V271.936c57.587 8.96 108.542 37.969 145.299 79.994 36.732-41.976 87.618-70.965 145.207-79.945v185.402c-.001-.025 4.029 113.052-143.241 216.204zm180.774 81.158c-40.547 0-78.565-10.271-112.162-27.87 29.571-21.633 87.736-72.079 108.91-147.554 0 0 39.568 89.531 118.813 146.243-34.379 18.621-73.708 29.181-115.561 29.181zm36.511-300.13V271.741c116.873 17.627 206.555 118.178 206.555 240.001 0 60.62-22.338 115.893-59.045 158.452-34.373-18.377-136.147-83.61-147.51-215.575zm0 0" clip-path="url(#br)"/></svg>