<svg xmlns="http://www.w3.org/2000/svg" width="1024" height="1024" viewBox="0 0 1024 1024"><path d="M702.209 487.574c-87.017 0-163.089 48.278-203.278 119.627l-92.546-45.679c23.028-30.225 36.779-68.068 36.779-109.064 0-26.866-5.872-52.324-16.426-75.227l169.213-73.305a149.086 149.086 0 0 0 121.198 62.496c82.502 0 149.636-67.647 149.636-150.787 0-83.139-67.134-150.786-149.591-150.786-82.502 0-149.596 67.647-149.596 150.786 0 11.491 1.279 22.69 3.708 33.46L392.082 326.83a176.826 176.826 0 0 0-126.947-53.765c-98.125 0-177.945 80.457-177.945 179.394 0 98.93 79.82 179.387 177.945 179.387 34.356 0 66.452-9.873 93.655-26.899l117.535 58.066c-5.022 19.157-7.704 39.248-7.704 59.983 0 129.837 104.809 235.457 233.588 235.457 128.818 0 233.671-105.62 233.671-235.457 0-129.8-104.853-235.422-233.671-235.422zm14.984-374.617c56.468.279 102.056 46.211 101.913 102.678.143 56.468-45.446 102.399-101.913 102.678-56.461-.279-102.035-46.217-101.872-102.678-.189-56.473 45.4-102.425 101.872-102.678zm-14.984 785.384c-95.91 0-173.944-78.671-173.944-175.308 0-96.722 78.034-175.393 173.944-175.393 95.955 0 173.983 78.671 173.983 175.393-.001 96.637-78.028 175.308-173.983 175.308zm0 0"/></svg>