<svg xmlns="http://www.w3.org/2000/svg" xmlns:xlink="http://www.w3.org/1999/xlink" width="1024" height="1024" viewBox="0 0 1024 1024"><defs><path id="bA" d="M63.477 63.279h895.219v896.279H63.477z"/></defs><clipPath id="bB"><use xlink:href="#bA" overflow="visible"/></clipPath><path d="M957.648 502.788C953.124 263.684 758.111 68.671 519.011 64.151 265.214 59.628 58.894 265.948 63.417 519.745c4.52 239.1 199.533 434.113 438.637 438.637 253.798 4.519 460.114-201.797 455.594-455.594zm-622.493 28.545c34.665 0 91.784-22.977 108.245-42.982 6.456-7.038 2.328-8.841-25.302-11.17-37.049-2.906-50.022-14.714-57.06-51.767-6.516-31.758-5.295-87.657 1.16-100.625 7.099-12.334 26.523-15.296 32.978-4.713 2.389 4.131 4.131 25.884 4.714 49.443 1.165 64.736 4.709 67.702 90.619 64.736 38.274-1.221 80.036-2.381 94.169-2.963 37.636 0 50.608-15.879 45.894-57.063-4.127-37.049-12.386-52.347-32.978-60.023-18.203-7.681-121.799-10.005-162.979-3.553-30.593 4.131-31.175 4.131-31.175-10.583 0-17.626 6.455-22.335 35.306-28.213 31.758-6.452 135.289-5.291 161.815 1.747 50.022 12.972 58.224 21.752 72.999 83.059 8.78 36.472 8.197 52.933-2.386 78.234-11.751 28.85-34.146 35.888-105.92 35.306-57.702-.582-58.866 0-68.867 15.297-12.39 19.949-62.411 59.384-84.75 67.642-67.642 24.082-105.334 26.466-111.211 7.62-5.869-18.26 7.042-29.429 34.729-29.429zm102.371-172.402c4.127-4.71 26.522-7.038 70.031-6.512 83.522.638 79.394-.583 77.07 18.264l-1.747 15.878-73.581.583c-65.899 0-73.58-1.165-75.322-10.587-1.165-5.874.581-13.495 3.549-17.626zm36.467 342.415c-35.885 25.302-101.789 53.575-124.762 53.575-37.631 0-35.306-37.054 2.968-47.641 65.318-17.681 132.441-55.312 211.836-118.245 31.813-24.72 35.306-25.944 44.729-14.253 8.203 10.005 6.456 11.807-48.274 58.866-18.268 15.879-33.565 32.34-33.565 37.049 0 4.131-4.709 7.676-10.005 7.676-5.292 0-24.72 10.005-42.927 22.973zm249.527-79.915c-2.906 36.471-12.911 55.312-42.922 82.36-47.115 42.345-113.015 62.937-135.349 42.927-14.719-13.554-26.471-42.401-21.757-53.57 2.911-8.259 5.296-8.259 21.757.582 37.048 18.845 90.037-1.165 120.631-45.312 30.596-44.726 17.624-93.587-24.72-93.587-15.297 0-21.171-3.489-27.044-16.461-11.23-22.92-33.565-24.081-58.867-2.328-117.668 101.789-227.133 157.106-251.851 127.672-15.879-18.785-3.549-28.208 61.768-47.054 22.395-6.511 59.443-25.883 100.628-53.565 58.862-38.8 65.318-44.674 62.989-58.228-2.385-11.166 0-15.879 10.587-20.007 7.62-2.971 20.588-4.131 28.85-2.91 8.203.582 27.048 2.966 42.345 4.713 67.647 7.676 118.251 68.867 112.955 134.768zm0 0" clip-path="url(#bB)"/></svg>