<svg xmlns="http://www.w3.org/2000/svg" width="1024" height="1024" viewBox="0 0 1024 1024"><path d="M263.656 684.707c-109.739 0-199.782-90.045-199.782-199.782 0-109.743 90.043-199.786 199.782-199.786 109.743 0 199.786 90.043 199.786 199.786 2.81 106.922-87.233 199.782-199.786 199.782zm0-346.104c-78.785 0-143.502 64.716-143.502 143.507 0 78.785 64.717 143.507 143.502 143.507 78.79 0 143.507-64.722 143.507-143.507 0-78.792-64.717-143.507-143.507-143.507zm517.748-16.885c-70.343 0-126.624-56.275-126.624-126.622 0-70.343 56.281-126.624 126.624-126.624 70.349 0 126.628 56.281 126.628 126.624.001 70.347-56.279 126.622-126.628 126.622zm0-199.782c-39.39 0-70.343 30.954-70.343 70.349 0 39.39 30.952 70.343 70.343 70.343 39.395 0 70.349-30.952 70.349-70.343 0-39.395-30.954-70.349-70.349-70.349zm25.328 832.9c-84.418 0-151.951-67.533-151.951-151.949 0-84.418 67.533-151.949 151.951-151.949 84.416 0 151.949 67.531 151.949 151.949 0 84.416-67.533 151.949-151.949 151.949zm0-247.619c-53.464 0-95.67 42.206-95.67 95.67s42.206 95.676 95.67 95.676 95.668-42.212 95.668-95.676-42.204-95.67-95.668-95.67zm0 0"/><path d="M430.376 540.692l283.891 177.612-29.855 47.719-283.891-177.605 29.855-47.726zm248.103-329.049l26.956 49.379L423.853 414.66l-26.956-49.385 281.582-153.632zm0 0"/></svg>