<svg xmlns="http://www.w3.org/2000/svg" xmlns:xlink="http://www.w3.org/1999/xlink" width="1024" height="1024" viewBox="0 0 1024 1024"><defs><path id="bg" d="M63.51 63.395h895.106v896.163H63.51z"/></defs><clipPath id="bh"><use xlink:href="#bg" overflow="visible"/></clipPath><path d="M510.613 958.502c-247.006 0-447.236-200.191-447.236-447.197 0-246.985 200.229-447.159 447.236-447.159 246.969 0 447.159 200.173 447.159 447.159 0 247.006-200.19 447.197-447.159 447.197zM341.944 511.343l-63.257 63.235c-34.919 34.94-34.919 91.554 0 126.473l42.175 42.158c34.919 34.936 91.576 34.936 126.474 0l63.277-63.234c27.482-27.503 32.975-68.285 17.158-101.513l-80.435 80.432-21.077 21.082c-23.275 23.271-61.024 23.271-84.315 0-23.271-23.293-23.271-61.041 0-84.316l21.076-21.076 80.436-80.454c-33.19-15.804-74.01-10.311-101.512 17.213zm252.986-42.196c11.644-11.648 11.644-30.493 0-42.158-11.666-11.649-30.532-11.649-42.158 0L426.259 553.501c-11.644 11.627-11.644 30.493 0 42.158 11.666 11.627 30.531 11.627 42.158 0L594.93 469.147zm147.571-147.572l-42.158-42.158c-34.94-34.94-91.594-34.94-126.495 0l-63.235 63.235c-27.524 27.524-33.017 68.323-17.197 101.534l80.436-80.454 21.077-21.08c23.27-23.253 61.024-23.253 84.315 0 23.271 23.309 23.271 61.062 0 84.337l-21.082 21.076-80.432 80.432c33.228 15.82 74.01 10.328 101.513-17.154l63.256-63.278c34.92-34.896 34.92-91.554.002-126.49zm0 0" clip-path="url(#bh)"/></svg>