<svg xmlns="http://www.w3.org/2000/svg" xmlns:xlink="http://www.w3.org/1999/xlink" width="1024" height="1024" viewBox="0 0 1024 1024"><defs><path id="c" d="M149.337 63.107h724.509v896.542H149.337z"/></defs><clipPath id="d"><use xlink:href="#c" overflow="visible"/></clipPath><path d="M174.337 749.192c14.467-5.259 30.253-1.315 40.775 10.522C299.298 867.58 446.63 913.619 582.113 864.95c169.692-60.511 257.826-248.613 197.316-418.305-60.511-169.691-248.613-257.821-418.305-197.314-5.259 2.635-11.838 3.949-17.1 6.578 6.578 18.416 13.157 36.832 18.416 52.618 7.892 22.36 14.471 39.461 15.786 44.724 3.944 5.259 3.944 13.152 1.314 19.731-5.259 10.522-17.1 14.471-27.624 10.522h-1.314l-19.731-9.208-134.174-63.14-34.202-17.102c-5.259-2.63-9.208-6.573-10.522-11.838-1.315-5.263-1.315-10.522 1.314-15.786l7.894-15.781 9.208-18.416 63.14-134.174 7.894-21.045v-1.319c5.263-10.523 17.1-14.467 27.624-9.208 6.578 2.635 10.522 9.208 11.836 15.786 2.635 5.264 7.894 22.365 15.786 44.724 6.578 17.102 13.158 36.832 21.045 57.877 5.264-2.63 11.843-5.259 17.102-6.573 210.467-74.983 439.349 34.197 514.332 243.349 74.979 209.153-34.202 439.35-242.04 513.014-164.428 59.196-342.007 3.949-445.928-123.647-3.945-3.945-7.894-9.208-9.208-14.472-7.894-18.415 2.635-40.775 22.365-47.353zm0 0" clip-path="url(#d)"/></svg>