<svg xmlns="http://www.w3.org/2000/svg" xmlns:xlink="http://www.w3.org/1999/xlink" width="1024" height="1024" viewBox="0 0 1024 1024"><defs><path id="a" d="M149.169 63.105h724.618v896.677H149.169z"/></defs><clipPath id="b"><use xlink:href="#a" overflow="visible"/></clipPath><path d="M847.76 749.293c-14.473-5.26-30.262-1.316-40.787 10.524-84.198 107.882-231.548 153.929-367.056 105.252-169.717-60.52-257.86-248.651-197.345-418.368 60.521-169.716 248.656-257.86 418.368-197.344 5.265 2.635 11.839 3.949 17.104 6.579-6.581 18.419-13.155 36.837-18.419 52.626-7.895 22.363-14.474 39.467-15.789 44.731-3.946 5.26-3.946 13.154-1.316 19.734 5.265 10.524 17.104 14.473 27.628 10.524h1.314l19.734-9.209 134.194-63.15 34.207-17.104c5.26-2.63 9.209-6.574 10.524-11.839 1.316-5.264 1.316-10.524-1.314-15.789l-7.895-15.784-7.894-19.738L789.87 96.749l-9.209-19.734v-1.32c-5.26-10.525-17.104-14.469-27.628-9.209-6.574 2.635-10.525 9.209-11.839 15.789-2.63 5.265-7.895 22.368-15.789 44.731-6.579 17.104-13.154 36.837-21.049 57.886-5.265-2.63-11.839-5.26-17.104-6.574-210.498-74.994-439.415 34.202-514.404 243.386-74.991 209.183 34.202 439.416 242.071 513.09 164.452 59.206 342.063 3.95 445.995-123.665 3.946-3.946 7.895-9.209 9.209-14.474 7.895-18.419-2.629-40.782-22.363-47.362zm0 0" clip-path="url(#b)"/></svg>