<svg xmlns="http://www.w3.org/2000/svg" xmlns:xlink="http://www.w3.org/1999/xlink" width="1024" height="1024" viewBox="0 0 1024 1024"><defs><path id="bO" d="M63.875 62.843h895.754v896.716H63.875z"/></defs><clipPath id="bP"><use xlink:href="#bO" overflow="visible"/></clipPath><path d="M511.273 63.411c-248.178 0-447.53 199.352-447.53 447.53 0 248.172 199.352 447.524 447.53 447.524 248.172 0 447.524-199.352 447.524-447.524 0-248.178-199.351-447.53-447.524-447.53zm0 854.372c-223.765 0-406.843-183.083-406.843-406.842 0-223.765 183.079-406.843 406.843-406.843 223.759 0 406.842 183.079 406.842 406.843.001 223.759-183.082 406.842-406.842 406.842zm244.106-427.189H531.614V266.835c0-10.175-10.171-20.346-20.341-20.346-10.175 0-20.346 10.171-20.346 20.346V510.94c0 10.17 10.171 20.341 20.346 20.341h244.106c10.17 0 20.341-10.171 20.341-20.341 0-10.175-10.171-20.346-20.341-20.346zm0 0" clip-path="url(#bP)"/></svg>