<svg xmlns="http://www.w3.org/2000/svg" width="1024" height="1024" viewBox="0 0 1024 1024"><path d="M944.889 718.603l-140.51-131.377h-.287c-7.319-9.202-18.609-15.108-31.279-15.108-12.675 0-23.96 5.907-31.283 15.108-5.424 6.821-8.677 15.453-8.677 24.847 0 .694.023 1.389.054 2.076l-.224.703 16.672 94.634H645.461c-31.221 39.454-79.525 64.768-133.742 64.768-54.222 0-102.523-25.314-133.748-64.768h-103.97l16.672-94.634-.228-.703c.037-.686.054-1.381.054-2.076a39.767 39.767 0 0 0-8.676-24.847c-7.319-9.202-18.609-15.108-31.279-15.108-12.675 0-23.96 5.907-31.279 15.108h-.287L77.418 719.584C69.189 726.903 64 737.57 64 749.446v130.086c0 22.069 17.892 39.96 39.955 39.96h815.526c22.069 0 39.957-17.891 39.957-39.96V749.446c0-12.419-5.666-23.512-14.549-30.843zm-261.09 160.929c-22.068 0-39.96-17.891-39.96-39.955 0-22.068 17.892-39.96 39.96-39.96 22.069 0 39.955 17.892 39.955 39.96 0 22.064-17.886 39.955-39.955 39.955zm122.104 0c-22.064 0-39.955-17.891-39.955-39.955 0-22.068 17.892-39.96 39.955-39.96 22.068 0 39.96 17.892 39.96 39.96 0 22.064-17.892 39.955-39.96 39.955zm0 0"/><path d="M258.154 433.731h147.784v203.427c0 22.069 17.887 39.96 39.957 39.96h130.089c22.069 0 39.957-17.891 39.957-39.96V433.731h149.344c22.068 0 39.96-17.891 39.96-39.96 0-12.168-5.45-23.063-14.033-30.391L542.778 119.711c-7.296-9.609-18.842-15.821-31.839-15.821-11.42 0-21.71 4.796-28.993 12.477L230.249 365.186c-.184.18-.372.364-.555.547-7.108 7.216-11.495 17.112-11.495 28.038 0 22.069 17.886 39.96 39.955 39.96zm0 0"/></svg>