<svg xmlns="http://www.w3.org/2000/svg" xmlns:xlink="http://www.w3.org/1999/xlink" width="1024" height="1024" viewBox="0 0 1024 1024"><defs><path id="g" d="M64.333 188.557h895.923v646.836H64.333z"/></defs><clipPath id="h"><use xlink:href="#g" overflow="visible"/></clipPath><path d="M564.754 503.551c49.018-22.767 83.167-72.331 83.167-129.845 0-78.963-64.235-143.199-143.195-143.199-78.976 0-143.212 64.235-143.212 143.199 0 57.514 34.15 107.078 83.167 129.845-112.847 27.152-197.036 128.66-197.036 249.71 0 31.554 22.695 42.283 39.272 50.117l1.244.515c68.097 24.029 166.456 30.446 213.849 30.446 51.682 0 152.882-8.391 220.215-31.648 32.721-12.544 39.589-33.806 39.589-49.418-.013-121.062-84.213-222.57-197.06-249.722zM387.67 373.706c0-64.54 52.516-117.029 117.039-117.029 64.528 0 117.029 52.503 117.029 117.029 0 64.523-52.502 117.039-117.029 117.039-64.523 0-117.039-52.498-117.039-117.039zm325.585 404.386c-63.429 21.896-163.242 30.073-211.257 30.073-45.565 0-139.772-6.057-204.51-28.722-18.615-8.838-23.682-13.205-23.682-26.17 0-127.322 103.585-230.906 230.903-230.906 127.321 0 230.906 103.584 230.906 230.906.012 7.556-2.578 17.213-22.36 24.819zm0 0" clip-path="url(#h)"/><path d="M239.156 771.361a12.044 12.044 0 0 0-.729-2.583c-.146-.369-.133-.768-.317-1.137-3.72-7.263-5.518-15.32-5.518-24.677 0-107.446 64.579-202.827 164.539-243.008.197-.082.317-.254.514-.335.824-.369 1.51-.94 2.253-1.48.686-.514 1.386-.965 1.956-1.6.146-.171.357-.241.502-.412.387-.476.519-1.06.837-1.562.477-.781.952-1.506 1.258-2.368.287-.794.381-1.6.514-2.419.133-.832.263-1.625.236-2.476-.025-.914-.261-1.771-.489-2.66-.146-.566-.09-1.15-.317-1.72-.078-.211-.249-.331-.356-.528-.369-.806-.927-1.479-1.455-2.209-.518-.686-.965-1.39-1.587-1.957-.176-.163-.253-.372-.425-.532a150.002 150.002 0 0 1-12.779-11.961l-2.66-2.775-2.184-.519a12.765 12.765 0 0 0-3.745-6.083c-1.402-1.205-2.698-2.845-4.033-4.315-.043-.121 0-.249-.043-.369a12.833 12.833 0 0 0-5.542-6.787c-14.119-20.919-23.142-55.665-23.142-81.478 0-48.383 23.871-93.833 63.868-121.577.514-.356.806-.887 1.256-1.308.477-.438 1.055-.716 1.48-1.231.171-.202.197-.45.343-.666.545-.75.875-1.557 1.244-2.393.317-.738.691-1.442.862-2.21.185-.833.185-1.652.211-2.501.025-.832.094-1.626-.026-2.446-.12-.794-.437-1.51-.703-2.278-.305-.858-.58-1.703-1.082-2.484-.133-.214-.146-.463-.291-.678-.373-.528-.914-.819-1.339-1.283-.425-.463-.7-1.047-1.202-1.454a143.517 143.517 0 0 0-89.655-31.61c-78.976 0-143.212 64.237-143.212 143.2 0 57.513 34.15 107.077 83.172 129.849C148.522 489.475 64.333 590.983 64.333 712.046c0 15.612 6.882 36.873 40.01 49.577 38.739 13.376 86.939 20.969 120.573 24.977a12.71 12.71 0 0 0 5.676-.674c.343-.12.66-.223.991-.369.279-.12.571-.171.837-.304.407-.214.648-.583 1.029-.819a11.233 11.233 0 0 0 3.612-3.466 11.962 11.962 0 0 0 1.974-4.514c.103-.45.344-.819.395-1.295.055-.425-.103-.824-.103-1.244a11.42 11.42 0 0 0-.171-2.554zm-34.785-438.883c0-64.54 52.51-117.029 117.038-117.029 21.262 0 41.494 5.663 59.435 16.341a174.06 174.06 0 0 0-60.572 131.62c0 26.081 7.607 58.986 20.837 84.374a114.428 114.428 0 0 1-19.701 1.746c-64.526 0-117.037-52.511-117.037-117.052zM90.503 712.046c0-127.322 103.585-230.906 230.906-230.906 14.698 0 29.413 1.681 43.978 4.5-97.3 48.688-158.965 147.219-158.965 257.313 0 5.186.554 10.15 1.386 14.976-29.714-4.222-65.347-10.85-94.507-20.906-20.203-7.753-22.798-17.422-22.798-24.977zm672.856-249.723c49.023-22.755 83.173-72.331 83.173-129.845 0-78.963-64.235-143.199-143.2-143.199-33.102 0-65.36 11.548-90.855 32.523l-13.257 10.901 14.012 9.896c39.362 27.839 62.859 72.992 62.859 120.809 0 27.496-11.751 60.744-31.395 88.939l-7.903 11.352-2.539 2.622a144.415 144.415 0 0 1-12.279 11.364l-17.066 14.025 20.494 8.246c99.973 40.181 164.551 135.562 164.551 243.008 0 6.101-1.055 15.35-6.151 24.81l-11.867 22.094 24.9-2.895c34.492-4.012 83.936-11.657 123.988-25.496 32.721-12.544 39.573-33.807 39.573-49.418-.015-121.076-84.203-222.584-197.038-249.736zM642.562 232.45a117.253 117.253 0 0 1 60.756-17.001c64.541 0 117.026 52.503 117.026 117.029 0 64.528-52.498 117.039-117.026 117.039-3.478 0-7.173.107-10.939.198-3.733.107-7.573.201-11.382.201h-.012c-1.219 0-2.527 0-3.918-.043 15.947-28.31 25.166-59.525 25.166-86.489a174.232 174.232 0 0 0-59.671-130.934zm269.291 504.415c-30.143 10.403-66.776 17.177-97.236 21.437a79.922 79.922 0 0 0 1.498-15.349c.266-108.931-61.216-208.603-158.679-257.248a231.762 231.762 0 0 1 45.882-4.578c127.322 0 230.894 103.584 230.894 230.906.001 7.568-2.594 17.25-22.359 24.832zm0 0" clip-path="url(#h)"/></svg>