<svg xmlns="http://www.w3.org/2000/svg" width="1024" height="1024" viewBox="0 0 1024 1024"><path d="M704.718 416.488a261.4 261.4 0 0 0-26.349 1.326 259.222 259.222 0 0 0 6.683-58.587c0-144.01-118.509-261.185-264.179-261.185-145.678 0-264.183 117.175-264.183 261.185 0 77.594 34.287 149.973 94.394 199.872C143.193 616.711 71.579 726.617 63.472 847.958l-.338 5.057c-.004.106-.013.209-.018.312l-.03.458h.022c-.013.252-.022.496-.022.744 0 13.566 5.227 24.56 18.78 24.56 13.557 0 18.79-10.994 18.79-24.56 0-.248-.013-.492-.018-.744h.509l.381-5.04c8.898-115.313 81.94-216.282 186.354-257.894 31.174 14.489 90.282 29.574 132.964 29.574a263.86 263.86 0 0 0 34.471-2.264 259.918 259.918 0 0 0-5.523 53.385c0 141.701 113.303 255.059 254.922 255.059S959.64 813.246 959.64 671.546c0-141.699-113.299-255.058-254.922-255.058zm-283.85 162.88c-116.4 0-222.622-105.127-222.622-220.163 0-115.018 106.222-220.129 222.622-220.129 116.417 0 222.644 105.115 222.644 220.129 0 23.303-4.363 46.199-12.286 67.905C557.49 449 498.12 503.1 469.111 573.391c-15.7 3.898-31.874 5.977-48.243 5.977zm283.85 300.003C591.42 879.371 497 784.904 497 671.543c0-22.969 3.88-45.168 11.003-65.959 8.856-25.822 22.725-49.48 40.397-69.77a213.493 213.493 0 0 1 37.385-33.84c22.289-15.815 47.722-27.37 75.036-33.428a202.672 202.672 0 0 1 43.896-4.825c113.298 0 207.709 94.467 207.709 207.821.001 113.362-94.41 207.829-207.708 207.829zm0 0"/><path d="M832.177 586.526L685.835 732.944 610.298 662.1l-33.043 33.065 108.58 108.631 184.108-184.21-37.766-33.06zm0 0"/></svg>