<svg xmlns="http://www.w3.org/2000/svg" xmlns:xlink="http://www.w3.org/1999/xlink" width="1024" height="1024" viewBox="0 0 1024 1024"><defs><path id="q" d="M64.995 178.895h894.692v665.803H64.995z"/></defs><clipPath id="r"><use xlink:href="#q" overflow="visible"/></clipPath><path d="M891.407 179.956h-758.54c-37.469 0-68.026 30.558-68.026 68.026v527.46c0 37.469 30.557 68.026 68.026 68.026h758.435c37.468 0 68.026-30.557 68.026-68.026v-527.46c.106-37.573-30.453-68.026-67.921-68.026zm30.353 595.386c0 16.745-13.609 30.349-30.352 30.349h-758.54c-16.745 0-30.352-13.604-30.352-30.349V247.877c0-16.744 13.608-30.347 30.352-30.347h758.435c16.743 0 30.352 13.604 30.352 30.347v527.465h.105zm0 0" clip-path="url(#r)"/><path d="M789.998 367.396H630.294c-10.363 0-18.838 8.475-18.838 18.836 0 10.363 8.475 18.836 18.838 18.836h159.703c10.362 0 18.836-8.473 18.836-18.836.001-10.362-8.369-18.836-18.835-18.836zm0 0M789.998 492.561H630.294c-10.363 0-18.838 8.48-18.838 18.836 0 10.363 8.475 18.843 18.838 18.843h159.703c10.362 0 18.836-8.48 18.836-18.843.001-10.356-8.369-18.836-18.835-18.836zm0 0M789.998 617.731H630.294c-10.363 0-18.838 8.475-18.838 18.836 0 10.358 8.475 18.838 18.838 18.838h159.703c10.362 0 18.836-8.48 18.836-18.838.001-10.361-8.369-18.836-18.835-18.836zm0 0M478.126 543.004c-10.991-8.16-23.235-15.066-36.42-20.615 14.757-18.422 22.917-41.339 22.917-65.514 0-28.57-11.196-55.257-31.606-75.142-20.405-19.886-47.406-30.563-75.876-29.829-26.998.63-52.536 11.616-71.792 30.978-19.256 19.36-30.138 44.899-30.662 71.901-.524 24.489 7.325 47.721 21.977 66.454-14.231 5.758-27.421 13.083-39.246 21.873-34.117 25.223-52.85 59.342-52.85 95.971v.105c0 16.325 13.394 29.613 29.823 29.613h286.966c16.43 0 29.723-13.288 29.828-29.613v-.105c-.209-36.735-18.94-70.854-53.059-96.077zm-185.87-87.598c.314-17.263 7.325-33.698 19.675-46.048 12.351-12.449 28.675-19.467 45.944-19.881 18.317-.419 35.586 6.382 48.664 19.152 13.085 12.764 20.305 29.928 20.305 48.14 0 20.824-9.418 40.08-25.749 52.955l.105.21c-14.127-2.827-28.674-4.186-43.64-4.186a230.468 230.468 0 0 0-40.186 3.557c-16.323-13.184-25.537-32.755-25.118-53.899zm-69.594 175.615c2.512-21.559 15.491-41.758 37.155-57.769 25.952-19.256 60.7-29.828 97.954-29.828 37.258 0 72.006 10.573 97.959 29.828 21.663 16.011 34.537 36.315 37.154 57.769H222.662zm0 0"/></svg>