<svg xmlns="http://www.w3.org/2000/svg" width="1024" height="1024" viewBox="0 0 1024 1024"><path d="M318.346 299.557c0-100.891 82.461-182.977 183.831-182.977 101.372 0 183.833 82.086 183.833 182.977 0 100.893-82.461 182.977-183.833 182.977-101.37 0-183.831-82.085-183.831-182.977zm476.71 336.653c-44.078-59.862-105.56-106.161-176.908-131.672 71.759-40.47 120.384-117.116 120.384-204.981 0-129.853-106.02-235.499-236.357-235.499-130.331 0-236.353 105.646-236.353 235.499 0 84.65 45.188 158.784 112.656 200.298-152.512 47.923-263.42 190.105-263.42 357.679 0 5.08.565 10.002.768 15.029h52.524c-.24-5.014-.77-9.949-.77-15.029 0-177.813 145.291-322.478 323.894-322.478 92.564 0 176.101 38.948 235.191 101.154h68.391zm87.758 157.547h-87.535v-87.52c0-14.514-11.764-26.26-26.26-26.26-14.501 0-26.264 11.747-26.264 26.26v87.52h-87.537c-14.516 0-26.262 11.768-26.262 26.262 0 14.503 11.746 26.262 26.262 26.262h87.537v87.556c0 14.501 11.764 26.262 26.264 26.262 14.496 0 26.26-11.761 26.26-26.262v-87.556h87.535c14.503 0 26.271-11.759 26.271-26.262-.001-14.494-11.769-26.262-26.271-26.262z" fill="#3b3c3c"/></svg>