<svg xmlns="http://www.w3.org/2000/svg" xmlns:xlink="http://www.w3.org/1999/xlink" width="1024" height="1024" viewBox="0 0 1024 1024"><defs><path id="bU" d="M63.503 63.39H958.71v896.168H63.503z"/></defs><clipPath id="bV"><use xlink:href="#bU" overflow="visible"/></clipPath><path d="M249.959 944.991c.251-.055.392-.055-.307-.055-.67 0-.559.055-.277.055-.141.056-.031.056.277.056.337-.001.478-.001.307-.056zm704.426-27.17c2.069 3.86 3.493 8.022 3.493 12.694 0 15.427-12.774 27.95-28.509 27.95-15.739 0-28.544-12.523-28.544-27.95h-.699c-39.19-175.831-198.578-307.489-389.499-307.489-190.951 0-350.399 131.658-389.534 307.489h-.725c0 15.427-12.804 27.95-28.514 27.95s-28.484-12.523-28.484-27.95c0-4.671 1.399-8.834 3.493-12.694 35.249-156.649 153.02-282.943 307.404-330.27-88.166-47.576-148.601-138.424-148.601-244.059 0-154.389 127.581-279.534 284.96-279.534 157.348 0 284.924 125.145 284.924 279.534 0 105.635-60.432 196.483-148.57 244.033 154.39 47.354 272.072 173.616 307.405 330.296zM738.559 343.492c0-123.499-102.061-223.628-227.931-223.628-125.931 0-227.962 100.129-227.962 223.628 0 123.499 102.057 223.598 227.962 223.598 125.87-.001 227.931-100.099 227.931-223.598zm0 0" clip-path="url(#bV)"/></svg>