<svg xmlns="http://www.w3.org/2000/svg" width="1024" height="1024" viewBox="0 0 1024 1024"><path d="M804.983 550.993c-85.299 0-154.477 69.172-154.477 154.477 0 85.299 69.178 154.477 154.477 154.477 85.305 0 154.476-69.178 154.476-154.477.001-85.305-69.171-154.477-154.476-154.477zm76.315 115.117l-87.375 87.37a15.4 15.4 0 0 1-10.936 4.511c-4.261 0-8.123-1.729-10.938-4.511l-43.687-43.687c-2.748-2.782-2.56-7.444.467-10.471 3.027-3.032 7.694-3.215 10.471-.467l38.218 38.218c1.39 1.391 3.337 2.258 5.468 2.258s4.078-.867 5.468-2.258l81.934-81.933a7.72 7.72 0 0 1 10.936 0c2.967 3.06 2.967 7.939-.026 10.97zm0 0M565.547 379.738h278.055c8.529 0 15.449-6.92 15.449-15.448 0-8.524-6.92-15.444-15.449-15.444H565.547c-8.528 0-15.449 6.92-15.449 15.444 0 8.528 6.922 15.448 15.449 15.448zm0 0M565.547 503.323h278.055c8.529 0 15.449-6.921 15.449-15.449 0-8.528-6.92-15.449-15.449-15.449H565.547c-8.528 0-15.449 6.921-15.449 15.449 0 8.528 6.922 15.449 15.449 15.449zm0 0M596.445 626.902c8.523 0 15.443-6.92 15.443-15.449 0-8.528-6.92-15.448-15.443-15.448h-30.898c-8.528 0-15.449 6.92-15.449 15.448 0 8.529 6.921 15.449 15.449 15.449h30.898zm0 0M428.928 574.008c-5.624 6.425-4.973 16.189 1.419 21.813 36.827 32.288 57.961 78.875 57.961 127.814 0 8.528 6.92 15.448 15.449 15.448 8.528 0 15.449-6.92 15.449-15.448 0-57.835-24.967-112.86-68.466-151.045-6.457-5.593-16.188-4.975-21.812 1.418zm0 0M117.566 723.634c0 8.528 6.92 15.448 15.449 15.448 8.523 0 15.443-6.92 15.443-15.448 0-73.283 48.076-138.656 117.343-161.27a135.025 135.025 0 0 0 52.582 10.625c74.985 0 135.941-60.988 135.941-135.939 0-74.953-60.988-135.908-135.941-135.908-74.951 0-135.939 60.989-135.939 135.908 0 42.48 19.993 80.019 50.607 104.981-69.233 32.656-115.485 103.408-115.485 181.603zm95.775-286.613c0-57.9 47.114-105.014 105.043-105.014s105.043 47.114 105.043 105.014c0 57.929-47.114 105.043-105.043 105.043-57.929.029-105.043-47.114-105.043-105.043zm0 0"/><path d="M648.532 812.276H133.015c-7.911 0-19.682-3.032-25.707-9.056s-12.912-13.931-12.912-21.841V225.261c0-7.91 6.887-15.816 12.912-21.84 6.025-6.025 17.796-9.051 25.707-9.051H874.5c7.911 0 11.955 3.027 17.98 9.051 6.026 6.025 5.191 13.931 5.191 21.84v327.523a184.438 184.438 0 0 1 30.898 22.492V225.261c0-15.816-2.164-31.636-14.242-43.687-12.049-12.078-24.01-18.103-39.826-18.103H133.015c-15.822 0-35.498 6.025-47.549 18.103-12.083 12.05-21.968 27.871-21.968 43.687v556.117c0 15.817 9.885 31.638 21.968 43.687 12.05 12.078 31.727 18.103 47.549 18.103h539.922c-9.207-9.362-17.329-19.743-24.405-30.892zm0 0"/></svg>