<svg xmlns="http://www.w3.org/2000/svg" width="1024" height="1024" viewBox="0 0 1024 1024"><path d="M775.753 275.667H537.907c-9.903.061-17.895 8.126-17.865 18.033 0 10.095 8.057 18.09 17.865 18.09h237.846a17.926 17.926 0 0 0 12.695-5.325 17.937 17.937 0 0 0 5.17-12.764 17.871 17.871 0 0 0-17.865-18.034zm0 90.056H537.907c-9.865 0-17.865 8.169-17.865 18.09 0 9.925 8 18.094 17.865 18.094h237.846c9.925 0 17.865-8.169 17.865-18.094 0-9.921-7.94-18.09-17.865-18.09zM619.966 473.928c0-9.894-7.969-17.942-17.861-18.033h-64.199c-9.89.091-17.865 8.139-17.865 18.033 0 10.038 8.057 18.146 17.865 18.146h64.199c9.935-.095 17.927-8.207 17.861-18.146zm-320.298 27.73a65.963 65.963 0 0 1-14.521 11.401 94.041 94.041 0 0 1-28.011 11.963 412.158 412.158 0 0 0-30.624 9.358 88.915 88.915 0 0 0-25.748 14.292 37.973 37.973 0 0 0-13.382 25.86c-3.007 19.903-3.743 36.124-2.042 48.658 1.644 12.529 3.967 20.019 7.03 22.511a38.528 38.528 0 0 0 13.102 4.539c6.974 1.532 15.424 3.119 25.406 4.539 9.982 1.526 21.041 3.002 33.233 4.365a1311.295 1311.295 0 0 0 72.87 6.178 524.248 524.248 0 0 0 61.59 0 1228.796 1228.796 0 0 0 76.051-6.351 642.1 642.1 0 0 0 20.586-2.891V527.916c-2.441-.683-4.652-1.306-7.036-1.873a228.28 228.28 0 0 1-24.722-8.394 63.952 63.952 0 0 1-19.626-11.396 46.912 46.912 0 0 1-10.432-13.5 39 39 0 0 1-3.799-14.234 52.456 52.456 0 0 1 .905-14.006c1.19-7.602 3.63-13.044 7.259-16.22 3.631-3.289 8.282-7.144 13.949-11.739a29.905 29.905 0 0 0 6.582-8.961 106.802 106.802 0 0 0 5.161-11.739c1.587-4.538 3.115-9.47 4.59-14.632a23.89 23.89 0 0 0 8.618-5.102 29.636 29.636 0 0 0 6.582-8.961 40.897 40.897 0 0 0 3.855-15.312 32.207 32.207 0 0 0-3.176-20.586 16.113 16.113 0 0 0-5.045-5.954c0-12.59-.683-24.956-2.215-37.149a230.553 230.553 0 0 0-7.709-33.8 96.314 96.314 0 0 0-17.242-32.208 69.253 69.253 0 0 0-13.724-12.933 108.649 108.649 0 0 0-20.189-11.396 132.365 132.365 0 0 0-24.273-8.056 111.54 111.54 0 0 0-26.029-3.003c-6.918 0-14.061.567-21.495 1.588a97.49 97.49 0 0 0-43.834 18.825 87.63 87.63 0 0 0-19.284 20.816 97.508 97.508 0 0 0-14.234 30.338 217.882 217.882 0 0 0-8.334 66.466 28.33 28.33 0 0 0-5.901 9.64 40.152 40.152 0 0 0-2.549 11.06 32.85 32.85 0 0 0 2.038 14.174 35.39 35.39 0 0 0 11.401 18.374 22.507 22.507 0 0 0 6.239 3.232c1.588 5.162 3.064 10.095 4.535 14.633 1.532 3.967 3.232 7.883 4.937 11.739 1.869 3.743 3.968 6.75 6.408 8.904 5.101 4.253 9.808 8.394 14.005 12.59 4.198 4.197 6.638 9.696 7.204 16.787.338 4.877.511 9.299.511 13.27 0 3.968-.795 7.767-2.267 11.453a38.183 38.183 0 0 1-7.204 11.007zM151.029 704.115c-23.671-2.717-41.523-22.788-41.454-46.615V204.039c0-25.744 20.812-44.911 46.218-44.911h676.726c25.406 0 48.203 19.167 48.203 44.911v281.342c11.344 9.017 35.163 18.943 44.691 29.776V174.666c0-34.592-43.726-60.284-77.806-60.284H126.869c-34.138 0-62.04 39.017-62.04 73.666v484.876c0 32.437 24.441 72.645 55.576 75.99h385.463c-2.782-10.15-4.82-34.082-6.239-44.743h-348.6v-.056zm485.556-29.434a21.225 21.225 0 0 0-15.143 6.75 21.394 21.394 0 0 0-5.555 15.368 21.32 21.32 0 0 0 6.576 14.746l88.921 83.815a21.558 21.558 0 0 0 16.278 5.672 21.66 21.66 0 0 0 15.026-8.618l119.887-165.2c6.858-9.501 4.838-22.741-4.538-29.772-9.424-6.693-22.46-4.682-29.431 4.539L722.73 747.954l-71.573-67.488a19.973 19.973 0 0 0-14.572-5.785m110.699-193.324c-116.427 0-210.792 95.555-210.792 213.513 0 117.901 94.364 213.516 210.792 213.516 116.313 0 210.734-95.615 210.734-213.516 0-118.014-94.421-213.513-210.734-213.513zm0 386.878c-94.595 0-171.267-77.637-171.267-173.421s76.672-173.478 171.267-173.478c94.481 0 171.21 77.638 171.21 173.478 0 95.784-76.73 173.421-171.21 173.421zm0 0" fill="#323333"/></svg>