<svg xmlns="http://www.w3.org/2000/svg" width="1024" height="1024" viewBox="0 0 1024 1024"><path d="M793.718 629.748c24.677 0 30.911-6.278 30.911-30.886 0-14.238-10.126-25.892-20.472-34.072l-1.951-1.971c-34.4-26.577-70.31-51.911-111.522-67.657 52.446-45.036 85.875-111.744 85.875-186.298 0-135.557-109.973-245.466-245.599-245.466-135.581 0-245.511 109.909-245.511 245.466 0 74.554 33.386 141.262 85.876 186.298C203.818 559.395 84.6 721.309 84.513 911.498v.088c.088 24.564 10.875 42.874 35.375 42.874 24.766 0 26.535-17.756 26.579-42.301 0-196.912 118.378-382.902 384.538-378.505 80.794 1.329 175.422 32.396 233.132 80.46 15.653 13.047 19.103 13.223 26.137 15.213l3.444.421zM531.004 485.943c-126.823-.24-187.801-90.938-187.801-177.079 0-86.12 69.691-186.919 188.022-186.919 137.616 0 188.071 101.838 188.071 187.953-.001 86.19-80.083 179.319-188.292 176.045zm81.851 261.851c0 24.653 19.992 36.415 44.663 36.415h238.169c24.677 0 44.663-11.762 44.663-36.415 0-24.695-19.987-34.072-44.663-34.072H657.519c-24.672.001-44.664 9.377-44.664 34.072zm282.833 145.173H657.519c-24.672 0-44.663 8.739-44.663 33.39 0 24.672 19.992 33.631 44.663 33.631h238.169c24.677 0 44.663-8.978 44.663-33.631.005-24.652-19.987-33.39-44.663-33.39zm0 0"/></svg>