<svg xmlns="http://www.w3.org/2000/svg" width="1024" height="1024" viewBox="0 0 1024 1024"><path d="M620.819 174.003c0 60.043-48.672 108.72-108.72 108.72-60.043 0-108.72-48.677-108.72-108.72s48.677-108.72 108.72-108.72c60.048 0 108.72 48.677 108.72 108.72zm0 0M620.819 512.246c0 60.043-48.677 108.721-108.72 108.721s-108.72-48.679-108.72-108.721c0-60.047 48.677-108.72 108.72-108.72 60.042 0 108.72 48.673 108.72 108.72zm0 0"/><path d="M620.819 512.246c0 60.043-48.677 108.721-108.72 108.721s-108.72-48.679-108.72-108.721c0-60.047 48.677-108.72 108.72-108.72 60.042 0 108.72 48.673 108.72 108.72zm0 0M620.819 850.485c0 60.048-48.672 108.72-108.72 108.72-60.043 0-108.72-48.672-108.72-108.72 0-60.043 48.677-108.72 108.72-108.72 60.048 0 108.72 48.678 108.72 108.72zm0 0"/></svg>