<svg xmlns="http://www.w3.org/2000/svg" width="1024" height="1024" viewBox="0 0 1024 1024"><path d="M511.941 958.769c-60.46 0-119.128-11.848-174.369-35.211-53.342-22.564-101.245-54.858-142.374-95.988-41.13-41.129-73.424-89.029-95.988-142.375C75.847 629.955 64 571.29 64 510.831c0-60.46 11.847-119.128 35.211-174.368 22.564-53.342 54.857-101.246 95.988-142.375 41.129-41.129 89.032-73.424 142.374-95.988 55.241-23.362 113.908-35.21 174.368-35.21 60.459 0 119.123 11.848 174.363 35.211 53.346 22.564 101.245 54.858 142.375 95.988 41.129 41.129 73.423 89.033 95.988 142.375 23.363 55.24 35.21 113.908 35.21 174.368 0 60.459-11.846 119.123-35.214 174.363l-49.746-21.039c20.536-48.549 30.944-100.133 30.949-153.329 0-217.207-176.718-393.925-393.929-393.925-217.212 0-393.925 176.719-393.925 393.93s176.713 393.925 393.925 393.925c109.368 0 214.737-46.048 289.092-126.336l39.626 36.701c-41.512 44.827-90.738 80.137-146.309 104.939-57.539 25.683-118.913 38.708-182.405 38.708zm0 0"/><path d="M783.667 610.38c-8.754 0-17.002-1.783-24.677-5.343-23.897-11.087-39.596-38.118-46.658-80.344-3.006-17.976-3.763-34.793-3.9-45.086-49.093-33.736-71.593-69.875-66.898-107.525 4.639-37.181 35.731-72.358 92.406-104.553 39.836-22.629 77.95-35.52 79.552-36.056l11.452 34.141c-.704.237-37.019 12.59-73.689 33.497-45.318 25.824-70.902 52.607-73.99 77.447-3.08 24.794 16.761 51.134 58.972 78.3l8.643 5.562-.396 10.266c-1.03 28.208 4.858 90.201 29.679 101.693 14.699 6.808 39.557-4.103 70.515-30.778-1.624-10.661-3.317-27.947-1.397-46.761 4.403-43.148 25.193-73.389 60.133-87.452l13.449 33.402c-54.239 21.838-35.335 102.465-35.137 103.277l2.513 10.357-7.865 7.186c-23.909 21.842-44.978 35.983-64.415 43.225-9.92 3.694-19.371 5.545-28.292 5.545zm41.275-344.767l-5.726-17.071 5.735 17.067c-.004.004-.004.004-.009.004zm0 0M513.93 394.135c-29.849 0-51.95-10.086-62.229-28.393-12.014-21.405-7.139-50.078 14.923-87.564.532-7.69 1.976-23.656 5.451-39.82 2.968-13.811 6.873-25.095 11.606-33.548 10.259-18.338 23.505-22.187 32.809-22.187 24.296 0 46.967 24.867 75.803 83.14l1.258 2.542.417 2.81c.137.94 3.339 23.316-2.117 48.822-7.698 35.98-28.437 61.035-59.974 72.462l-1.809.656-1.907.258c-.619.088-6.268.822-14.231.822zm3.35-175.051c-2.452 2.857-7.353 11.951-11.134 32.53-3.105 16.938-3.819 32.655-3.827 32.814l-.202 4.635-2.418 3.969c-22.964 37.638-18.509 51.68-16.598 55.086 3.466 6.172 15.28 10.009 30.829 10.009 3.26 0 5.949-.171 7.612-.313 18.415-7.346 29.837-21.925 34.896-44.502 3.346-14.927 2.659-28.823 2.17-34.407-24.033-47.918-37.432-57.828-41.328-59.821zm0 0M258.613 849.095c-2.496 0-4.429-.064-5.723-.201l3.772-35.812c10.915.958 100.623-5.722 179.944-12.534 25.112-5.877 31.091-33.149 32.251-40.489-6.727-47.733 13.196-75.353 31.297-90.185 19.197-15.73 39.755-19.983 42.035-20.417l2.131-.404 2.161.117c23.427 1.211 42.049-3.858 53.874-14.665a41.868 41.868 0 0 0 7.29-8.75c-11.276-21.981-29.175-35.318-53.303-39.691-20.45-3.707-37.878.387-38.049.43l-17.389 4.329-4.415-17.362c-6.805-26.761-18.914-44.987-35.026-52.706-5.751-2.757-11.061-3.707-14.635-4.003-13.251 11.19-25.936 12.577-34.703 11.546-24.046-2.839-39.012-25.928-41.886-30.743-7.423-11.104-12.569-13.342-13.771-13.218-3.815.331-11.706 9.867-15.64 18.892l-.486 1.143-.609.996c-12.955 21.594-38.303 35.477-75.335 41.271-25.421 3.974-47.479 2.6-48.407 2.539l-7.968-.52-4.965-6.258c-.872-1.1-9.824-10.958-54.635-17.989-25.344-3.982-48.732-4.901-48.964-4.914l1.348-35.984c1.027.038 25.456.989 52.857 5.266 34.781 5.435 57.783 13.368 71.198 24.695 22.59.258 69.166-3.766 83.47-25.799 3.887-8.582 18.613-36.812 44.876-39.196 17.379-1.577 33.294 8.38 47.319 29.596l.588.953c3.157 5.322 10.181 12.943 15.262 13.509 3.479.404 7.77-3.583 10.026-5.979l4.252-4.524 6.131-.94c1.958-.3 19.707-2.655 40.24 7.186 16.027 7.681 36.74 24.399 49.653 60.73 9.553-.786 22.289-.881 36.086 1.619 27.045 4.901 63.449 20.704 83.312 68.153l2.418 5.778-1.688 6.031c-.464 1.658-4.975 16.611-20.154 30.49-12.384 11.323-34.618 24.269-71.469 24.274-1.929 0-3.884-.039-5.89-.112-4.209 1.156-15.348 4.803-25.227 13.247-15.52 13.261-21.323 32.96-17.251 58.548l.353 2.221-.202 2.238c-.146 1.602-1.645 16.1-9.373 32.088-11.065 22.89-29.252 37.564-52.599 42.427l-1.056.219-1.074.095c-26.209 2.254-150.181 12.764-182.252 12.769zm0 0"/></svg>