<svg xmlns="http://www.w3.org/2000/svg" xmlns:xlink="http://www.w3.org/1999/xlink" width="1024" height="1024" viewBox="0 0 1024 1024"><defs><path id="bY" d="M64.01 154.397h896.345v718.101H64.01z"/></defs><clipPath id="bZ"><use xlink:href="#bY" overflow="visible"/></clipPath><path d="M945.92 464.866h-.196c-3.983 27.446-17.614 29.633-33.813 29.633-19.413 0-35.098-12.212-35.098-31.63 0-16.843 6.94-33.94 6.94-33.94 2.06-7.073 18.452-51.107-10.799-116.873-53.677-90.129-161.747-91.419-174.474-86.273-12.856 5.012-31.886 7.588-31.886 7.588-19.545 0-35.167-15.882-35.167-35.231 0-16.2 10.865-29.893 25.652-34.136 0 0 .324-.515.834-.643 1.094-.191 2.187-1.285 3.345-1.413 15.043-2.894 68.661-13.439 120.861-1.222 93.341 21.857 221.466 112.112 163.801 304.14zm-255.092-129.67c-13.371 0-24.17-10.799-24.17-24.106 0-13.498 10.737-24.361 24.17-24.361 0 0 150.882-27.903 132.882 134.226 0 .967-.128 1.736-.324 2.575-1.667 11.506-11.825 20.252-23.719 20.252-13.439 0-24.366-10.737-24.366-24.111 0-.001 23.915-108.386-84.473-84.475zm12.281 45.839c40.886 40.886 6.749 97.138 6.749 97.138s-16.971 18.77 17.936 25.519c34.971 7.009 144.967 57.924 84.474 186.691-60.559 128.572-260.106 191.121-408.03 179.55-140.528-11.054-321.3-57.727-339.942-227.832 0 0-9.903-77.013 64.8-176.72 0 0 107.423-150.049 232.521-192.862 125.231-42.557 139.827 29.571 139.827 72.129-6.622 36.196-19.094 57.408 27.898 42.817 0 0 123.107-57.089 173.767-6.43zm-287.938 92.698c-146.832 6.754-265.505 85.44-265.505 183.474 0 97.977 118.673 171.586 265.505 164.704 146.895-6.621 265.824-98.549 265.824-196.525 0-97.843-118.929-158.402-265.824-151.653zM294.889 760.068c-41.077-22.306-39.6-66.086-39.6-66.086s-17.033-138.281 130.567-155.576c147.857-17.161 174.278 124.074 129.277 182.126-44.868 57.989-133.844 86.337-220.244 39.536zm51.302-113.209c-27.578 2.894-47.315 26.936-47.315 49.886 0 23.08 22.243 38.957 49.758 35.744 27.451-3.148 49.821-24.366 49.821-47.315 0-23.076-20.638-41.336-52.264-38.315zm97.201-16.652c-4.948-8.161-16.327-10.475-27.26-2.378-9.446 6.881-11.378 19.997-6.233 28.094 4.948 8.357 16.391 9.324 25.779 2.378 9.126-7.2 12.663-19.736 7.714-28.094zm0 0" clip-path="url(#bZ)"/></svg>