<svg xmlns="http://www.w3.org/2000/svg" xmlns:xlink="http://www.w3.org/1999/xlink" width="1024" height="1024" viewBox="0 0 1024 1024"><defs><path id="A" d="M64.111 135.061h895.704v754.272H64.111z"/></defs><clipPath id="B"><use xlink:href="#A" overflow="visible"/></clipPath><path d="M417.961 379.254c-83.806-165.388-295.875-140.11-342.416.65 0 0-6.475 45.64-11.585 93.129v288.431l136.17 127.869V537.285s14.776-168.305 217.792-158.023l.039-.008zM218.16 647.775s223.588 30.844 231.296-197.862c-3.568-214.703 272.05-228.942 346.932-74.525 0 0-195.306 2.564-215.863 164.463 0 0 2.575 199.791-151.625 220.343 0-.002-167.043 28.914-210.74-112.419zm386.631-2.634c83.806 165.388 292.035 138.182 338.574-2.569 0 0 14.155-32.214 15.418-91.211v-288.43l-136.17-127.869V487.11s-14.805 168.305-217.83 158.031h.008zm0 0" clip-path="url(#B)" fill="#1d2088"/></svg>