<svg xmlns="http://www.w3.org/2000/svg" width="1024" height="1024" viewBox="0 0 1024 1024"><path fill="#0068b2" d="M64.81 65.323h893.361v893.361H64.81z"/><path d="M511.008 955.77L66.745 511.521 511.008 67.258l444.258 444.263L511.008 955.77zm0 0" fill="#fff"/><path d="M378.142 253.503l.998-3.884.994-1.935.999-1.935 2.914-2.904 2.904-1.94 29.104-11.638 7.769-1.935 7.763-2.913 15.421-3.904 15.522-2.906 8.733-.993 7.764-.999 16.487-1.94h32.94l17.467 1.999 15.517 1.934 16.492 2.906 15.518 3.884 15.522 4.85 14.552 5.819 14.552 6.788 2.904 1.935 2.914 2.915 1.935 2.904v1.94l.999 1.934v2.914l-.999 2.914-.999 1.935-.994 1.94-1.939 1.935-1.935.998-5.77 2.944-7.764 3.879-8.742 4.806-9.704 6.783-4.849 3.884-5.819 4.849-5.819 6.79-5.75 5.828-4.849 5.819-3.884 5.82-6.785 11.638-5.819 11.638-2.914 10.668-2.904 9.703-1.939 7.764-.994 5.819v431.645l-10.673 1.935-10.668.999h-44.646l-11.638-1.935-10.668-.999V371.866l-.999-6.783-1.934-8.733-2.914-8.733-3.855-9.684-4.849-10.668-2.904-5.819-3.894-5.867-3.879-4.855-3.885-5.819-5.819-5.819-4.848-5.819-5.82-4.849-4.853-3.884-5.829-3.869-4.849-2.914-8.733-4.855-6.788-3.879-5.8-2.949-1.934-.994-1.935-1.939-1.896-1.876-.998-1.935v-5.821zm268.685 523.799l-15.542 7.773-16.487 6.79-17.457 5.819-16.487 3.884V376.685l.999-10.667 2.914-9.704 2.914-8.733 2.904-7.763 4.848-7.764 3.885-6.788 9.698-11.639 5.819-4.848 4.854-4.854 9.698-6.783 4.849-2.914 4.854-1.935 3.879-1.94 3.884-1.935v488.876l-.026.008zm24.255-518.009l13.554 9.771 13.582 9.698 12.608 10.673 11.658 10.62 11.638 11.638 9.698 12.602 5.819 6.789 4.855 6.788 17.467 27.164 7.763 14.553 6.79 15.522 5.839 15.532 5.819 15.518 3.884 16.491 3.879 16.487 1.999 17.467-.999 2.914-1.935 2.904-2.914 3.885-3.884 2.914-1.935 1.934-5.829 1.999-3.884.994h-3.884l-4.85-.994-3.884-.999-3.88-.999-3.884-1.934-3.884-1.94-4.868-3.899-2.906-2.904-1.934-1.94-3.924-4.868-1.94-4.854-2.914-5.814-.993-.999-.999-1.94-1.94-.993h-3.879l-1.94.993-2.914 1.94-1.935 3.879-3.884 5.82-5.814 9.703-1.94 6.788-2.914 6.785-.999 4.853v3.88l-.993 9.703v5.819l.993 5.819 1.94 6.789 2.914 6.783 2.914 6.789.999 3.884 1.935 2.914 4.848 5.819 3.885 4.849 1.934.998 1.935.994h2.904l.999-.994 1.94-.998 1.935-2.914 2.913-6.79 3.885-4.848 3.889-5.79 2.914-1.935 2.904-2.904 2.915-1.94 7.769-3.869 3.879-.999 4.854-.999h4.848l3.885.999 3.879.999 3.884 2.914 3.884 1.934 2.914 2.914 1.935 2.914 1.935 1.935v1.94l-1.935 17.457L802 580.387l-1.935 7.763-1.935 8.733-5.779 15.523-5.82 15.522-6.788 15.518-7.764 14.552-8.733 13.587-8.733 13.583-9.703 13.583-5.819 5.819-4.85 6.788-11.656 11.619-11.639 11.638-12.607 9.698-13.583 10.673-13.581 8.733V259.322l.007-.029zM352.896 763.719l-14.552-10.673-7.754-4.897-7.763-5.819-6.79-5.819-6.783-6.789-6.789-5.819-5.819-6.783-12.607-13.588-5.819-7.754-5.819-6.788-4.859-7.715-5.819-7.764-9.703-15.522-3.88-8.733-4.853-7.764-6.785-17.457-3.884-8.733-2.904-8.733-2.914-8.733-2.914-9.703-1.935-8.733-1.94-9.699-2.904-19.405-1.934-19.402-.999-19.402v-9.674l.999-9.698v-9.704l1.934-9.703.999-9.698 1.94-9.704 3.879-18.426 5.819-18.432 2.904-8.733 3.885-8.733 6.783-17.457 4.854-7.768 3.879-8.733 9.703-15.518 10.591-15.503 11.638-14.552 12.607-13.582 12.686-12.608 13.583-12.602 15.522-10.673 14.553-10.668v218.245l-.999 2.914-.999 2.904-5.829 5.829-3.894 1.934-1.935.999-2.914.994-2.904.999h-5.819l-3.884-.999-3.88-.994-4.853-.999-2.914-1.934-3.83-1.95-5.82-3.879-1.934-2.904-1.94-1.94-3.879-4.868-1.94-4.854-2.914-5.814-.999-.999-1.935-1.94-.998-.993h-3.88l-1.939.993-2.914 1.94-2.842 3.924-3.884 5.819-4.849 9.698-2.904 6.79-1.94 6.783-.993 4.854v3.879l-.999 9.703v5.819l.999 5.82 1.934 6.788 1.935 6.783 2.904 6.789 1.935 3.884 1.94 2.914 3.879 5.819 4.854 4.849 3.869 1.997h2.914l1.999-1.997 2.904-2.914 2.914-6.789 2.914-4.848 4.82-5.829 2.914-1.935 2.904-2.904 2.914-1.94 2.914-1.934 3.884-1.935 4.849-.999 3.884-.999h4.849l7.769 1.999 3.879 1.935 2.904 1.934 4.854 4.854 2.904 3.879v219.225h-.015zm90.209 37.828l-17.457-4.853-16.487-4.849-7.764-3.884-7.759-2.886-7.763-3.879-7.734-3.904V288.416l6.788 2.906 9.698 4.848 4.849 3.885 4.854 2.913 4.848 3.885 4.85 4.848 4.854 5.82 4.849 5.819 3.884 5.819 4.849 6.783 2.913 7.769 2.914 8.733 2.906 8.733 1.905 10.687v429.683zm0 0" fill="#e60012"/></svg>