<svg xmlns="http://www.w3.org/2000/svg" width="1024" height="1024" viewBox="0 0 1024 1024"><g fill="#ea5504"><path d="M372.103 670.127l.191-.239h-.191l-.161.229.161.01zm0 0"/><path d="M378.042 658.805l-2.471-1.24-2.331-1.392-2.207-1.499-2.091-1.632-2.003-1.758-1.832-1.88-2.598-3.062-.952-.781-1.002-.479-1.099-.112-1.089.249-1.002.591-1.002.869a146.734 146.734 0 0 1-3.628 4.371l-.551.655-1.71 1.787-1.802 1.729-1.861 1.642-1.998 1.602-5.24 3.849 1.318-6.149h.089l.273-2.452v-1.538l-.19-1.47-.151-.44-.2-.41-.318-.449-.42-.381-.484-.283-1.158-.376-1.304-.171H326.67l-1.23.079-1.104.278-.938.445-.753.639-.556.758-.361.904-.2.995-.049 1.002v53.345l.049.63.18.64.318.581.445.488.528.371.6.269.65.141.743.059.728-.059.678-.151.601-.269.533-.38.41-.489.298-.571.181-.63.059-.63v-12.884l1.714.6c.449.133.918.239 1.358.333.795.136 1.602.2 2.412.19h.938l.924-.123.908-.21.889-.278.86-.41.8-.46.743-.58.679-.67.561-.751.479-.802.371-.859.288-.86.21-.899.23-1.914v-.997l-.059-1.182a39.648 39.648 0 0 0-.351-2.319c-.24-1.09-.548-2.139-.84-3.215l-1.222-3.16-1.997-4.41-.23-1.432.298-3.111 1.891 1.42.63.279.694.171h.708l.728-.146.723-.284.718-.39 2.526-1.662.259 1.783c.103.313.225.62.371.919l.385.523.465.42.556.298.6.19.669.092h7.004l-2.052 1.891-.351.576-.229.601-.099.683v.699l.108.708c.523 2.101 1.002 4.245 1.524 6.364.518 2.121.85 4.504 1.24 6.751l.669 4.801.161.731.25.67.316.61.455.541.528.43.62.289.698.141h.753l.679-.161 2.002-.899-.293 2.101v.708l.141.679.781 1.813h-12.122l2.447-2.272.371-.546.239-.645.122-.699v-.736a48.488 48.488 0 0 0-.341-2.003 88.47 88.47 0 0 0-.86-3.4l-.728-2.373-.82-2.378-.933-2.452-2.159-5.001-1.212-2.589-.429-.639-.45-.553-.523-.469-.546-.341-.64-.249-.669-.084-.684.084-.649.229-.621.308-.508.454-.41.548-.239.62-.103.64c.111 2.242 1.553 4.512 2.432 6.603l1.998 5.114 1.45 4.459 1.123 4.24.23.713.308.64.371.556 2.403 2.242h-9.695l-.65.074-.61.175-.571.274-.489.401-.39.478-.269.571-.19.63-.084.738.054.713.156.64.254.566.381.513.459.401.548.288.6.181.659.102h35.504l.62-.102.566-.191.503-.298.45-.4.341-.494.25-.546.16-.591.108-.733-.108-.756-.16-.601-.25-.541-.341-.499-.45-.41-.513-.298-.585-.191-.611-.083h-9.084c.4-.728.83-1.47 1.172-2.208l.117-.273 2.002-5.68.889-2.872.822-2.911.698-2.941.601-2.998.483-3.005.348-3.067v-.791l-.059-.741-.171-.699-.269-.63-.429-.581-.523-.449-.65-.333-.718-.165-1.909-.153-1.232 1.48a5.527 5.527 0 0 0-.581 1.27l-.723 4.122-1.187 6.158-.65 2.872-2.519 9.383c-.333-2.637-.63-5.319-1.001-7.951-.249-1.719-.551-3.428-.83-5.124l-1.002-4.576-1.172-4.342-.249-.639-1.998-2.882h13.099l1.002-1.524.24-.556.244-1.363-.122-1.901 4.132 2.149 2.857.19 2.281-1.997.143-2.951-2.091-1.899-2.685-1.226zm-42.008 26.775l-.064.591-.138.679a4.16 4.16 0 0 1-.331.64 3.805 3.805 0 0 1-.561.581 7.096 7.096 0 0 1-.778.131h-.19l-2.583-.43h-.669l-.64.138-1.568.684v-33.613h5.788l-2.569 12.166-.22 2.237.049 1.232c.069.6.181 1.192.333 1.773.2.59.44 1.138.679 1.689.62 1.348 1.24 2.692 1.802 4.084l.601 1.617.805 3.072c.094.533.171 1.002.235 1.592l.019 1.137zm14.642-22.545l2.551-2.329 1.44-1.49 1.23-1.42 2.052-2.721c.161-.171.308-.361.469-.533l1.002-1.089 1.997 1.909 1.25 1.383 1.514 1.422c.84.688 1.69 1.387 2.521 1.997 1.338 1.002 2.711 1.919 4.059 2.853l-20.085.018zm68.438 11.952l-.489-.899-.64-.771-.79-.64-.879-.489-.991-.303-1.05-.097-1.07.097-.972.303-.899.499-.761.64-.65.761-.479.909-.303.972-.098 1.069.098 1.05.303.982.479.88.65.781.761.649.899.489.972.293 1.07.117 1.05-.117.991-.293.879-.489.79-.649.64-.781.489-.88.303-.982.108-1.05-.108-1.069-.303-.982zm-115.711 20.977l-3.551-1.929-3.233-2.002-2.886-1.998-2.564-2.096-2.218-2.119-2.701-3.121h18.555l.581-.059.586-.2.503-.299.43-.38.336-.504.235-.518.146-.571.054-.59-.054-.64-.136-.548-.245-.541-.328-.479-.439-.42-.513-.313-.576-.19-.591-.049h-20.757v-5.422h13.744l1.002-.108 1-.313.87-.469.781-.63.62-.781.488-.86.299-1 .111-1.001v-14.003l-.111-1.002-.299-1.002-.488-.879-.62-.758-.781-.649-.879-.474-1.002-.288-1.002-.103h-33.559l-1.002.103-1 .288-.889.474-.763.649-1.387 1.68-.811-2.481-.249-.504-2.319-1.558h-1.002l-.753.171-.718.318-.674.513-.518.566-.42.684-.333.776-.219.874-.65 3.248-.81 3.082-.997 2.911-1.055 2.76-1.289 2.633-1.49 2.471-1.602 2.339-1.817 2.272-.41.639-.293.67-.181.688v.714l.093.688.23.679.351.655.566.786 2.526 1.002 3.56-1.891v30.286l.079.733.18.709.279.63.4.571.533.459.62.323.689.2.781.069.748-.069.703-.2.601-.323.546-.469.391-.571.288-.62.181-.699.103-.733v-3.096l2.232 1.215.576.133h.62l.62-.123.601-.22 3.301-1.846 3-1.86 2.765-1.916 2.529-1.929 2.271-1.997 3.791-3.854v16.235l.078.63.19.63.304.541.4.479.498.381.591.279.65.16.708.059.669-.059.62-.16.571-.279.504-.381.385-.479.294-.551.19-.61.088-.64V689.88l2.672 2.778 2.378 2.184 2.564 2.119 2.75 1.998 2.931 2.002 3.111 1.891 3.473 1.929 2.568.131 2.091-2.061.469-3-1.548-2.002-4.11-1.885zm-30.229-10.784l-2.002 2.003-2.349 1.997-2.682 2.003-2.998 2.071-3.39 2.071-4.763 2.78V680.98l2.188 1.45.571.19.581.059h17.002l-2.158 2.501zm4.133-8.801h-19.004l-.704.088c-.333.097-.649.24-.938.42l-1.709 1.553v-15.692c.508-1.304.997-2.623 1.479-4.005l2.628-7.932v15.004l.093 1.001.308 1 .469.87.63.781.763.63.879.478 1.002.304 1 .108h13.095l.009 5.392zm-10.585-12.006a3.555 3.555 0 0 1-.469-.2l-.22-.219-.21-.338v-9.383l.089-.323.18-.239.249-.22.313-.141h28.645l.381.131.289.259.229.479v9.685l-.997.499-28.479.01zm521.777 8.124l-.333-.576-.469-.504-.551-.4-.63-.308-4.107-1.192-3.112-1.129-3.633-1.67.092.23-4.254-3.003-2.091-1.852-1.85-2.056-1.339-1.896.289-.997.273-1.202h11.611c-.679 1.002-1.339 2.003-1.998 2.931-.551.718-1.124 1.432-1.622 2.149l-.269.62-.171.64v.674l.099.63 1.279 3.16 3.003-.904.591-.269.556-.4.553-.489 1.773-2.271 1.47-2.281 1.177-2.369.943-2.442.249-1.23.049-1.138-.21-1.065-.518-.908-.83-.699-1.002-.44-1.25-.254-1.45-.078H756.19l.239-3.732-1.689-1.997-.879-.254-.655-.069-.669.059-.61.22-.548.341-.493.469-.401.551-.938 1.998-.698 1.304-1.632 2.549-2.173 2.721-1.871 2.232-.118-2.731-1.87-1.861-10.404-3.682-1.719-.543-.731-.108h-.679l-.65.108-.6.274-.533.356-.45.484-.37.591-.25.669-.17.698v.723l.151.65.313.591.429.478.509.411.581.316 1.22.474 1.002.269c1.069.308 2.139.64 3.18 1.002l3.17 1.128c1.163.45 2.301.933 3.418 1.422l.684.2.679.098 1.758-.049v1.114l.143.649.62 1.388-3 1.25-3.321 2.042-3.311 2.002-3.492 1.827c-1.442.674-2.902 1.343-4.332 2.062l-.581.419-.489.494-.351.581-.21.63-.049.679.113.689.259.669.381.649.508.543.581.38.659.25.679.078h.713l.699-.126.733-.21 4.279-2.003c1.563-.82 3.15-1.632 4.674-2.481l2.159-1.129-.059 2.443.136.756.884 1.724h-4.522l-1.002.098-1.002.308-.918.503-.791.65-.669.781-.488.918-.323 1.001-.098 1.002v16.821l.058.645.201.669.288.538 2.749 2.681-6.521.484-.746.126-.674.24-.611.331-.498.42-.42.509-.269.62-.141.649v.791l.22.733.313.61.41.508.518.43.581.294.659.2.689.078h.751l6.614-.488 5.851-1.193 5.07-1.899 4.302-2.583 3.478-3.322 2.671-4 1.812-4.679 1.002-5.314.059-.776v-.733l-.488-2.003h14.32l.312.102.229.151.289.376c.062.186.107.381.131.571V695.8l.22 2.301-3.531-1.47a111.721 111.721 0 0 0-5.222-1.861l-1.002-.328-2.462-.674-.708-.107h-.669l-.659.089a3.852 3.852 0 0 0-1.114.493l-1.348 1.148-.074 1.832.123.62.239.6.361.509.469.449.553.351.63.304 2.929.869 2.818.938 2.785 1.002 2.749 1.108 2.711 1.212 2.672 1.314 2.637 1.387 2.745 1.563 2.638.548 2.212-1.808v-2.813l-1.909-1.997-7.146-3.722 1.793-1.002.523-.429.42-.543.318-.591.2-.669.067-.639v-15.283l-.108-1.002-.313-1.001-1.518-2.798 5.391 1.358 2.731-.171 1.602-2.091v-.938l-.093-.688-.305-.673zm-43.016-7.361l-.908-3.218 1.309-.323a5.577 5.577 0 0 0 1.782-1.002 22.61 22.61 0 0 0 1.778-1.719c.884-.943 1.724-2.003 2.575-2.998h7.399l-.42 1.528-1.07 2.291-1.509 2.062-1.889 1.861-2.375 1.699-2.788 1.49-3.238 1.328-3.482 1.075 2.836-4.074zm6.897 18.686l-.21.776-.645 4.132-1.299 3.472-1.997 2.931-2.653 2.442-3.36 1.949-7.302 2.549 2.321-2.838.326-.59.191-.65.072-.649V682.89l.098-.346.171-.235.22-.22.551-.165h14.302l-.786 1.898zm-4.742-8.625l6.149-2.657 2.564-1.402 2.281-1.622 1.998-1.812 2.549-3.077 1 1.289 2.121 2.271 2.373 1.998 2.647 1.822 5.793 3.16-29.475.03zm-77.332-9.529h-.01.01zm42.668 38.331l-.259-.655-.371-.546-.566-.474-.571-.376-.669-.293-.733-.19-2.339-.376-2.232-.464-2.208-.586-2.163-.674-2.149-.802-2.101-.889-3.072-1.499 2.594-2.539 1.616-1.832 1.544-1.929 1.44-2.061 1.368-2.174 1.26-2.281 1.192-2.388.669-1.729.351-1.64v-.773l-.068-.737-.171-.724-.274-.688-.42-.62-.469-.514-.556-.459-3.844-2.252h8.532l.689-.087.649-.18.581-.279.523-.381.43-.498.318-.581.19-.64.064-.713-.064-.689-.146-.62-.294-.591-.4-.498-.538-.381-.62-.278-.693-.151h-6.579l-1.373-.323v-11.693l-.078-1.138-.249-1.001-.445-.933-.63-.766-.83-.602-.948-.4-1.089-.23-1.172-.068H680.09l-1.324.068-1.177.23-1.002.381-.86.61-.684.776-.439 1.002-.249 1.079-.079 1.212v4.743l-.064 1.622-.269 1.47-.478 1.367-.704 1.242-2.437 3.242v-.498l-3.361 2.247-.523.523-.429.571-.289.639-.141.679.059.728.229.714.401.679 1.094 1.279-1.87 1.05c-1.002.65-2.003 1.373-3.005 2.081v-11.179h7.805l-.19-4.533-.18-.479-.313-.494-.42-.42-.489-.288-.561-.19h-5.661v-11.253l-.058-.581-.171-.563-.298-.508-.401-.41-.503-.323-.548-.219-.59-.138h-1.363l-.581.128-.566.229-.459.343-.401.4-.303.518-.17.553v11.756h-5.969l-.571.166-.508.283-.41.41-.353.499-.21.571-.131.59v1.339l.131.581.21.546.328.503.41.401.523.308.563.161.575.059h5.422v14.594l-2.071 1-2.657 1.373c-.85.44-1.743.869-2.593 1.397l-.43.4-.336.465-.22.536-.133.553v.61l.089.6.19.67.323.6.371.498.42.411.478.321.528.22.563.098h.571l.6-.088c.82-.381 1.622-.761 2.398-1.163l1.934-1v13.826l-2.682-1.001-2.921-.049-1.62 2.369v.899l.088.683.19.64.313.61.42.558.538.503.64.4.742.348 2.423.63 2.109.293 1.852-.083 1.607-.469 1.279-.919 1.593-2.309 1.182 1.997.449.523.519.42.61.318.659.2.713.084h.748l.811-.103 2.773-.719 2.657-.781 2.574-.859 2.481-.914 2.388-.995 2.311-1.094 3.912-2.082 1.67 1.002 2.319 1.26 2.501 1.143 2.682 1.05 2.852.948 3 .849 3.198.763 3.443.659h.763l.708-.049.649-.18.611-.318.513-.445.395-.536.284-.63.19-.753v-.83l-.265-.569zm-37.418-33.882l1.593-1.67 1.289-1.802.997-1.929.713-2.003.41-2.148.143-2.262v-4.728h13.729v10.74l.143 1.763.321 1.489.23.601.288.546.353.45.39.4.489.361 4.131 2.091h-27.508l2.289-1.899zm1.432 27.699l-2.003.8-4.287 1.46-4.845 1.348-.728.294-.62.375-2.003 1.744v-19.375c2.003-1.163 4-2.339 5.905-3.531l.649-.401 2.711-3.213-1.002 4.102v.714l.143.747.278.733.411.738 2.568 3.561 2.574 3.193c.84.996 1.68 1.88 2.568 2.808l1.862 1.901-4.181 2.002zm13.69-8.493l-2.998 2.539-1.793-1.539-1.118-1.133c-.699-.718-1.402-1.47-2.091-2.207l-1.27-1.519-2.413-3.233-2.227-3.371h21.437l-1.222 2.462-1.002 1.67-1.118 1.617-1.24 1.593-1.422 1.553-1.523 1.568zm0 0"/><path d="M756.419 695.383l-.551 1.442 1.64-1.402.069-1.788-1.158 1.748zm-251.139 3.942l-2.901-1.852-2.584-1.998-1.645-1.459c1.607-1.534 3.247-3.005 4.791-4.601.83-.83 1.607-1.695 2.388-2.501l.561-.601.391-.58.288-.611.151-.639v-.65l-.151-.669-.269-.591-.39-.573-.62-.649-3.233-.87 2.071-1.714.63-.756.484-.879.308-1.002.113-1.002v-22.384l-.113-1.002-.299-1.002-.493-.879-.62-.761-.776-.64-.884-.469-.997-.293-1.002-.099h-23.068l-1.001.099-1.002.293-.889.469-.756.64-.62.741-1.001 1.998-1.432-.708-.61-.191-.63-.078h-8.762c.118-.684.26-1.392.42-2.081l.049-.284.059-.669v-.689l-.156-.649-.283-.581-.41-.523-.518-.42-.601-.328-.718-.264-.845-.068h-.698l-.66.161-.59.278-.528.41-.42.533-.343.601-.229.669-.753 2.998-.83 2.803-1.001 2.682-.997 2.578-1.162 2.482-1.26 2.378-1.392 2.262-1.5 2.232-.4.698-.288.714-.161.728v.723l.141.698.308.64.44.581.703.65 2.77.469 2.598-1.652 1.294-1.768h1.607v7.151h-5.997l-.601.078-.581.161-.541.294-.44.395-.346.503-.245.581-.126.63v1.378l.136.63.245.571.346.513.43.385.531.313.571.191.601.098h5.998v20.606l.229 1.719.21.724.274.669.356.61.455.498.536.455.591.288.64.2.649.049h.694l.689-.161.679-.239 1.479-.766 2.321-1.66 2.363-1.944a114.425 114.425 0 0 0 3.61-3.487l2.139-2.213v4.411l.141 1.832.371 1.577.63 1.275.918.997 1.192.581 1.393.17 1.489-.229 1.68-.553 2.159-1.367 2.299-1.754c1.29-1.138 2.549-2.301 3.791-3.448l1.42-1.392.459-.699.343-.683.21-.699.259-2.672 2.529 2.769 3.405 3.003 3.81 2.628 4.302 2.354 2.892.6 2.417-1.572.269-2.912-1.997-2.109-3.35-1.857zm-49.012-36.148l2.368-5.543h10.873a5.812 5.812 0 0 0 1.25-.259l1.528-.64v7.732l-.997 2.129.997 2.149v9.636l-1.997-1.094-.563-.181-.581-.059h-8v-7.151h6.584l.649-.083.61-.166.576-.274.494-.375.39-.494.909-1.909-.909-1.929-.38-.503-.494-.401-.546-.278-.62-.201-.66-.087-11.481-.019zm16.083 32.006l-3.854-1.212-2.301 1.295c-1.002 1.059-1.949 2.158-2.998 3.218l-2.081 2.129V683.75h8.048l.581-.099.571-.21 2.003-1.24.031 12.982zm6.721-40.06l.077-.288.191-.284.229-.181.294-.106.249-.05h18.003l.353.138.269.239.209.381v5.685h-19.932l.058-5.534zm0 12.225h19.937v5.5l-.2.323-.141.165-.4.284h-19.254l.058-6.272zm7.78 27.327l-2.482 1.548-1.46 1.709c-.356.353-.728.723-1.108 1.114-.88.83-1.822 1.719-2.721 2.578V680.32h4l1.104 3.859 1.719 4.235 2.139 3.897 2.603 3.644-3.794-1.28zm9.783-8.425l-.601.62-1.948 1.871-1.602-3c-.499-1.059-.997-2.109-1.398-3.17l-.8-2.319h11.883c-1.88 2.066-3.684 4.069-5.593 6.07l.059-.072zm279.018-19.532l-.019-.044-.05.01.069.034zm-154.423 8.269l-.488-.899-.63-.771-.791-.64-.899-.489-.982-.303-1.05-.097-1.05.097-.992.303-.889.499-.761.64-.649.761-.479.899-.313.982-.097 1.069.097 1.05.313.982.479.88.649.781.761.649.889.489.992.293 1.05.117 1.05-.117.991-.293.889-.489.791-.64.63-.79.488-.87.313-.992.118-1.05-.118-1.069-.312-.982zm-98.796-9.202l.61.679 2.559.933 2.344-1.22 2.778-3.41 2.599-3.604 2.519-3.961 2.554-4.372.401-2.798-1.862-2.329-2.823-.161-1.987 2.012-2.023 3.659-2.212 3.482-2.482 3.38-2.768 3.322-.41.551-.318.62-.201.65-.034.679.103.649.269.65.384.589zm21.714-11.825l.464.523.546.381.611.279.659.17.723.079h32.138l.738-.049.733-.161.65-.279.6-.39.469-.528.351-.601.21-.733.069-.771-.079-.756-.219-.669-.343-.611-.468-.524-.59-.41-.65-.288-.733-.181-.738-.039h-32.128l-.733.069-.669.18-.62.279-.528.4-.474.513-.318.63-.18.679-.049.728.049.771.18.699.329.61zm-9.72 8.132l-1.924 2.116-1.138 2.217-1.128 2.052-1.202 2.002-1.25 1.998-2.691 3.722-3.005 3.619-1.148 2.501 1.06 2.701 2.662 1.002 2.471-1.279 1.929-2.282v23.557l.079.743.171.708.268.64.401.581.503.469.62.361.689.21.761.069.776-.069.714-.21.6-.351.518-.469.371-.591.269-.64.161-.718.077-.743v-33.281l1.891-3.228a10.047 10.047 0 0 0 1.314-5.24l-2.003-2.213-2.816.046zm51.475 3.825l-.313-.61-.41-.504-.518-.41-.581-.279-.639-.19-.679-.059h-38.292l-.733.059-.679.181-.62.268-.528.411-.42.503-.323.6-.249.997.078 1.163.171.708.323.63.449.543.518.381.611.288.649.171.713.103h24.235v26.432l-.049 1.002-.131.802-.21.679a3.687 3.687 0 0 1-.499.743 6.705 6.705 0 0 1-.474.449l-.63.22-.508.141-1.001.107c-.61 0-1.22 0-1.822-.088l-2.998-.469-6.49-1.573a6.945 6.945 0 0 0-1.002-.133h-.351l-.768.143-.493.229-1.66 2.003.093 3.16 2.339 1.622 3.252.84 2.867.64 2.603.508 2.408.323 2.174.141h1.938l1.719-.225 1.504-.376 1.29-.541 1.138-.771 1.001-.996.762-1.192.556-1.402.391-1.568.22-1.773.083-1.919v-27.191h6.818l.664-.087.63-.171.576-.278.533-.381.42-.508.313-.61.166-.704.073-.756-.073-.743-.135-.683zm161.143-206.899c0 5.001.948 8.944 7.312 12.162 5.114 2.564 13.554 6.554 21.133 10.124 7.595-3.57 16.006-7.56 21.168-10.124 6.364-3.21 7.302-7.141 7.302-12.162v-5.44h-56.916v5.44zm0 0"/><path d="M897.387 299.004H126.615a35.544 35.544 0 0 0-25.133 10.413 35.542 35.542 0 0 0-10.399 25.138v241.786c-.005 19.629 15.903 35.547 35.532 35.562h770.773c19.629-.015 35.536-15.933 35.532-35.562V334.555a35.546 35.546 0 0 0-10.399-25.138 35.548 35.548 0 0 0-25.134-10.413zM698.434 410.772c.02-8.035 6.546-14.535 14.584-14.53h50.141V389.4a2.831 2.831 0 0 1 2.823-2.843h19.004c.753 0 1.47.303 2.003.835.526.533.825 1.255.82 2.008v6.842h50.16c8.045 0 14.564 6.521 14.564 14.565v9.44a2.827 2.827 0 0 1-2.817 2.828H836.52a2.793 2.793 0 0 1-1.998-.825 2.795 2.795 0 0 1-.82-2.003v-8.254H717.317v8.254a2.796 2.796 0 0 1-.825 2.003 2.8 2.8 0 0 1-2.003.825h-13.226a2.85 2.85 0 0 1-2.002-.825 2.843 2.843 0 0 1-.826-2.003v-9.475zm-365.766 64.741c-.015 9.168-7.453 16.591-16.621 16.586h-49.814v23.357a2.804 2.804 0 0 1-2.832 2.818h-20.197a2.793 2.793 0 0 1-1.997-.82 2.789 2.789 0 0 1-.821-1.998v-23.357h-49.755c-9.168.005-16.606-7.418-16.616-16.586v-54.215c.005-9.173 7.445-16.611 16.616-16.616h49.795v-14.843a2.81 2.81 0 0 1 .82-2.007 2.81 2.81 0 0 1 1.998-.835h20.186a2.827 2.827 0 0 1 2.833 2.842v14.843h49.784c9.173.005 16.611 7.438 16.621 16.616v54.215zm178.434 22.496a16.607 16.607 0 0 1-16.616 16.596H371.864a16.605 16.605 0 0 1-16.616-16.596v-90.133c.01-9.167 7.448-16.592 16.616-16.587h122.593a16.593 16.593 0 0 1 11.741 4.85 16.61 16.61 0 0 1 4.875 11.737l.029 90.133zm171.956-9.231a2.818 2.818 0 0 1-2.813 2.808h-62.014v23.859a2.81 2.81 0 0 1-2.843 2.818h-19.004a2.814 2.814 0 0 1-2.832-2.818v-23.849h-62.015a2.821 2.821 0 0 1-2.823-2.808v-12.675a2.826 2.826 0 0 1 2.823-2.813h62.015v-61.882h-57.013c-.758 0-1.48-.303-2.012-.84a2.85 2.85 0 0 1-.831-2.012V396.56a2.8 2.8 0 0 1 2.843-2.788h138.627a2.814 2.814 0 0 1 2.823 2.788v12.006a2.856 2.856 0 0 1-2.823 2.852h-57.018v61.844h62.02a2.82 2.82 0 0 1 2.808 2.813l.082 12.703zm-140.331-67.593h19.117a5.293 5.293 0 0 1 4.801 2.633l19.004 37.06a1.706 1.706 0 1 1-1.645 2.618h-19.117a5.337 5.337 0 0 1-4.811-2.618l-19.004-37.06a1.698 1.698 0 0 1 1.655-2.633zm127.927 2.633l-19.005 37.06a5.362 5.362 0 0 1-4.82 2.618h-19.107a1.694 1.694 0 0 1-1.67-.776 1.71 1.71 0 0 1 .019-1.842l19.01-37.06a5.285 5.285 0 0 1 4.791-2.633h19.13a1.73 1.73 0 0 1 1.647.806 1.717 1.717 0 0 1-.025 1.827h.03zm182.979 26.927a2.837 2.837 0 0 1-2.847 2.833H826.38v7.682c0 8.924-4.074 17.354-15.004 22.663-4.142 2.003-9.285 4.504-14.745 7.126 9.724 3.952 18.305 5.778 27.365 5.778h23.059a2.886 2.886 0 0 1 2.891 2.882v12.122a2.9 2.9 0 0 1-2.891 2.902h-22.678a88.948 88.948 0 0 1-29.578-5.46c-3.81-1.412-11.004-4.591-19.336-8.362-8.279 3.771-15.493 7.004-19.312 8.362a88.955 88.955 0 0 1-29.549 5.43h-22.649a2.92 2.92 0 0 1-2.911-2.901V499.66a2.904 2.904 0 0 1 2.911-2.882h23.01c9.089 0 17.661-1.831 27.375-5.783a2813.392 2813.392 0 0 1-14.754-7.121c-10.932-5.319-15.004-13.744-15.004-22.668v-7.628h-24.358a2.829 2.829 0 0 1-2.818-2.833v-12.273a2.828 2.828 0 0 1 2.818-2.828h24.397V425.25a2.92 2.92 0 0 1 2.901-2.911h16.616a2.918 2.918 0 0 1 2.911 2.911v10.414h56.906V425.25a2.918 2.918 0 0 1 2.911-2.911h16.597a2.906 2.906 0 0 1 2.911 2.911v10.414h24.362a2.849 2.849 0 0 1 2.852 2.827l.047 12.254zm0 0"/><path d="M377.412 496.988h111.501v-89.395H377.412v89.395zm11.396-25.544h33.437v-14.648H393.59v-13.871h28.645v-10.144h-33.427v-15.053h88.735v15.053h-33.481v10.134h28.646v13.871h-28.646v14.648h16.645v-6.544h16.827v21.577h-88.726v-15.023zm0 0M197.436 423.091h42.961v50.654h-42.961v-50.654zm68.797 0h42.942v50.654h-42.942v-50.654zm0 0"/><path d="M959.846 328.142l-.948-6.242-1.553-6.003-2.111-5.773-2.652-5.489-3.141-5.173-3.6-4.88-4-4.449-4.464-4.064-4.84-3.61-5.183-3.141-5.519-2.661-5.783-2.121-6.003-1.543-6.232-1.002-6.159-.308H126.444l-6.174.308-6.232 1.002-5.998 1.543-5.773 2.121-5.495 2.642-5.186 3.141-4.983 3.628-4.454 4.049-4 4.445-3.62 4.85-3.141 5.171-2.642 5.49-2.149 5.793-1.553 6.003-1.002 6.252-.298 6.168v355.353l.298 6.159 1.002 6.252 1.553 6.003 2.111 5.773 2.671 5.5 3.141 5.191 3.62 4.811 4 4.474 4.464 4.069 4.831 3.608 5.181 3.141 5.5 2.642 5.773 2.121 6.002 1.553 6.233.948 6.168.321h771.216l6.164-.321 6.227-.948 6.003-1.553 5.793-2.121 5.49-2.642 5.181-3.141 4.83-3.608 4.475-4.05 4-4.474 3.609-4.83 3.141-5.191 2.652-5.49 2.111-5.773 1.553-6.003.948-6.232.323-6.169V334.326l-.162-6.184zm-9.193 361.273c-.005 29.432-23.869 53.291-53.306 53.291H126.615c-29.432-.005-53.291-23.864-53.296-53.291v-354.86a53.315 53.315 0 0 1 15.591-37.721 53.312 53.312 0 0 1 37.706-15.624h770.762a53.288 53.288 0 0 1 53.306 53.317l-.031 354.888zm0 0"/></g></svg>