<svg xmlns="http://www.w3.org/2000/svg" xmlns:xlink="http://www.w3.org/1999/xlink" width="1024" height="1024" viewBox="0 0 1024 1024"><defs><path id="W" d="M64.292 73.973h895.361V950.45H64.292z"/></defs><clipPath id="X"><use xlink:href="#W" overflow="visible"/></clipPath><path d="M512.042 949.252c3.069-107.841 81.935-194.752 178.134-194.781-98.132-.059-178.154-90.394-178.247-201.192-.077 110.767-80.109 201.133-178.193 201.192a183.408 183.408 0 0 1-.107-6.513c0-110.91 80.066-201.323 178.242-201.358.059 1.796.094 3.621.094 5.479 0-1.859.029-3.683.098-5.479 98.18.064 178.242 90.497 178.242 201.358 0 2.171-.03 4.343-.089 6.513.059 2.137.089 4.308.089 6.473 0 85.843-48.008 159.44-115.281 188.307h384.532L735.74 511.522 511.93 73.773l-223.814 437.73L64.292 949.252h384.56c-67.253-28.867-115.261-102.464-115.261-188.307 0-2.166 0-4.336.107-6.473 96.234 0 175.056 86.93 178.114 194.781h.23zm0 0" clip-path="url(#X)" fill="#ba893c"/></svg>