<svg xmlns="http://www.w3.org/2000/svg" xmlns:xlink="http://www.w3.org/1999/xlink" width="1024" height="1024" viewBox="0 0 1024 1024"><defs><path id="U" d="M64.067 153.49h896.036v717.049H64.067z"/></defs><clipPath id="V"><use xlink:href="#U" overflow="visible"/></clipPath><path d="M502.505 350.5l87.46 47.064-83.41 51.138-87.455-44.41 83.405-53.831v.039zm4.009-56.516L701.631 402.98l-87.455 53.821s216.605 24.222 295.992 125.166c0 0 119.466 171.164-159.023 258.634 0 0-539.235 131.61-687.229-168.474l126.466-4.005s98.191 185.163 305.404 162.286c0 0 364.594-12.908 302.701-213.412 0 0-73.994-134.558-322.899-131.875l-153.391-86.178 184.355-104.914-.038-.045zm0 0" clip-path="url(#V)" fill="#1d2088"/><path d="M428.08 619.786l87.446-48.394 88.799 48.443-91.494 48.448-84.76-48.448.009-.049zm104.138-463.895c136.372 9.426 361.396 42.42 427.562 202.622H824.655c-47.465-208.596-530.492-238.518-602.678-31.164-37.099 95.057 101.13 204.069 200.706 202.728 20.706-.278 53.831-11.627 85.249-4.405l175.745 93.375-175.92 103.135L315.5 613.04l88.324-51.959c-143.969-15.01-349.53-94.007-322.135-228.535 34.436-169.023 314.127-186.066 450.499-176.645l.03-.01zm0 0" clip-path="url(#V)" fill="#5aa572"/></svg>