<svg xmlns="http://www.w3.org/2000/svg" xmlns:xlink="http://www.w3.org/1999/xlink" width="1024" height="1024" viewBox="0 0 1024 1024"><defs><path id="Q" d="M64.167 314.873h896.036v394.772H64.167z"/></defs><clipPath id="R"><use xlink:href="#Q" overflow="visible"/></clipPath><path d="M64.167 315.944h201.138s36.565 0 43.883 11.001h-36.574v10.999h58.501s11 7.309 11 10.995H276.27v11.001h73.135s7.318 3.662 7.318 14.628H129.992v11h230.384v11H126.33v11h234.046s0 7.308-3.661 10.999l-230.385 3.447v11h226.738s0 11-7.309 11H122.683v11H338.44s0 10.994-7.324 14.628H126.33v10.999h190.168s-3.657 14.629-32.908 10.995h-36.575v11h58.516s25.599 0 29.257 11l-84.105 3.662v10.994h98.733s11 7.309 11 11H129.992v11l234.041-3.662s11 7.31 11 11H130.051v11h248.615s3.657 3.662 0 11l-248.674 3.656v11h248.674s3.657 7.319 0 11H129.992v18.29h248.674s3.657 7.318-3.661 11H130.022v10.994h237.673s0 11-7.309 11H276.27v11h73.135s-3.657 11-11 11H276.27v18.29h43.889s-7.319 14.628-62.169 10.995H71.485V315.944h-7.318zm0 0" clip-path="url(#R)" fill="#e6a400"/><path d="M389.632 568.265s-7.309-51.198 54.859-62.163c0 0 109.7-21.937 113.362 47.535l3.656 127.988 7.289 21.952h-58.491l-3.662-18.29s-29.255 29.255-73.135 18.29c0 0-51.198-3.662-51.198-58.517 0 0-3.657-36.569 32.908-47.535 0 0 54.86-14.633 73.135-14.633 0 0 36.57-7.318 7.318-32.908 0 0-47.535-10.995-47.535 21.942l-58.516-3.662h.01zm186.51-58.507h54.855V531.7s29.255-29.26 51.198-29.26c0 0 58.516-11 69.483 54.86v146.278h-54.884v-131.65s-14.628-36.57-54.86-14.628c0 0-18.285 7.318-14.628 51.193v95.086h-54.825l3.661-193.821zm193.815-76.791h51.198l3.627 146.268 62.168-80.453h62.164l-54.855 76.792 65.825 124.331-62.168 3.662-43.883-80.453-25.599 36.565v43.888h-54.825l-3.662-270.611.01.011zM502.973 612.153v25.599s-7.308 21.937-25.593 25.598c0 0-32.908 21.937-43.889-7.308 0 0-3.661-14.633 11-21.942 0-3.657 54.855-14.628 58.507-21.937l-.025-.01zm0 0" clip-path="url(#R)" fill="#6a1585"/></svg>