<svg xmlns="http://www.w3.org/2000/svg" xmlns:xlink="http://www.w3.org/1999/xlink" width="1024" height="1024" viewBox="0 0 1024 1024"><defs><path id="Y" d="M63.75 123.839h896.27v776.568H63.75z"/></defs><clipPath id="Z"><use xlink:href="#Y" overflow="visible"/></clipPath><path d="M588.285 124.263v91.652s74.755-24.149 72.34 60.251l2.415 224.319-106.06 60.221 2.416-147.075c.769-47.412-95.699-47.471-94.915 0l2.415 147.075-106.146-65.047 2.416-219.454c-2.416-84.4 72.33-60.25 72.33-60.25v-91.692h152.789zM63.75 766.426l79.383-45.813s-58.283-52.672 16.02-92.772l193.04-114.257 105.217 61.79-128.601 71.452c-41.434 23.029 6.766 106.605 47.466 82.193l126.175-75.622-3.322 124.412-191.254 107.652c-71.891 44.27-88.349-32.522-88.349-32.522l-79.383 45.818L63.75 766.426zM883.649 897.55l-79.383-45.804s-16.458 76.807-88.35 32.488L520.402 774.175l.901-121.977 126.176 75.622c40.645 24.383 88.939-59.159 47.459-82.193L566.38 574.145l109.387-59.364 188.89 111.861c74.293 40.1 15.962 92.772 15.962 92.772l79.383 45.887-76.353 132.249zm0 0" clip-path="url(#Z)" fill="#e50012"/></svg>