<svg xmlns="http://www.w3.org/2000/svg" xmlns:xlink="http://www.w3.org/1999/xlink" width="1024" height="1024" viewBox="0 0 1024 1024"><defs><path id="q" d="M63.992 241.818h896.045v540.867H63.992z"/></defs><clipPath id="r"><use xlink:href="#q" overflow="visible"/></clipPath><path d="M568.658 253.697s-220.485-63.995-431.633 104.784c0 0-171.049 152.369 10.389 311.699 0 0 160.923 154.61 496.972 99.384 0 0 282.414-29.998 312.388-233.472 0 0 45.748-176.693-241.391-216.129 0 0-296.603-53.634-457.535 162.49 0 0 195.642 108.856 263.475 145.132L740.63 506.114l-96.244-48.908-119.895 61.524-97.811-53.634s94.653-86.767 241.386-59.996c0 0 255.58 9.467 164.077 181.42 0 0-88.355 138.829-457.531 89.921 0 0-347.089-72.564-141.994-309.2 0 0 81.997-97.801 336.049-113.582l-.009.038zm0 0" clip-path="url(#r)" fill="#004098"/></svg>