<svg xmlns="http://www.w3.org/2000/svg" xmlns:xlink="http://www.w3.org/1999/xlink" width="1024" height="1024" viewBox="0 0 1024 1024"><path d="M511.177 64.622c-13.404 0-26.813.45-40.217 1.786v215.827c.029 9.857 8.013 17.846 17.875 17.87h44.684c9.857-.024 17.846-8.013 17.87-17.87V66.407c-13.404-1.345-26.808-1.785-40.212-1.785zm27.257 292.68h62.51c9.859-.024 17.846-8.013 17.876-17.87V109.306h44.684v366.413a20.507 20.507 0 0 1-5.984 14.52 20.486 20.486 0 0 1-14.5 6.026H541.56c-19.656 0-20.556 10.278-20.556 10.278V374.727c-.44-9.408 7.593-17.425 17.43-17.425zm0 0" fill="#008566"/><defs><path id="g" d="M64.484 64.121h894.035v895.387H64.484z"/></defs><clipPath id="h"><use xlink:href="#g" overflow="visible"/></clipPath><path d="M484.818 357.302h-62.559c-9.862-.024-17.846-8.013-17.876-17.87V109.306H359.7v366.413a20.52 20.52 0 0 0 6.003 14.554 20.503 20.503 0 0 0 14.559 6.003h101.46c19.657 0 20.556 10.278 20.556 10.278V374.727c.41-9.408-7.631-17.425-17.46-17.425zM377.521 654.003h71.497c9.886 0 17.905 8.004 17.924 17.89v277.526h35.746V535.64a20.508 20.508 0 0 0-6.003-14.559 20.519 20.519 0 0 0-14.554-6.001h-101.43c-19.656 0-20.561-10.279-20.561-10.279v131.777c-.45 9.388 7.598 17.425 17.425 17.425h-.044zm268.108 0h-71.443c-9.867.025-17.86 8.023-17.875 17.89v277.526h-35.746V535.64a20.487 20.487 0 0 1 6.003-14.559 20.519 20.519 0 0 1 14.554-6.001h101.421c19.657 0 20.561-10.279 20.561-10.279v131.777c.451 9.388-7.597 17.425-17.425 17.425h-.05zm0 0" clip-path="url(#h)" fill="#008566"/><path d="M618.87 77.576v92.944c144.77 45.578 249.777 180.971 249.777 340.945 0 197.501-159.969 357.47-357.47 357.47S153.7 708.966 153.7 511.465c0-160.415 105.457-295.806 250.682-341.386V77.135c-195.274 48.251-340.05 224.314-340.05 434.33 0 246.656 200.187 446.843 446.843 446.843S958.02 758.121 958.02 511.465c0-209.575-144.335-385.601-339.15-433.889zm0 0" clip-path="url(#h)" fill="#008566"/><path d="M533.068 895.748h-44.683c-9.862-.029-17.846-8.013-17.876-17.875V654.454h80.43v223.419c-.025 9.862-8.014 17.846-17.871 17.875zm0 0" fill="#008566"/></svg>