<svg xmlns="http://www.w3.org/2000/svg" width="1024" height="1024" viewBox="0 0 1024 1024"><path d="M550.59 754.97l140.539 171.424h221.269L783.821 788.847l-5.974-8.971-.999-3.98-.999-3.99v-10.958l.999-3.991.999-3.98 1.992-4.989 3.981-5.978 4.979-8.969 5.988-6.978 128.577-149.508 8.969-10.968 6.972-9.96 4.979-9.969 5.988-9.969 3.98-9.969 2.997-9.97 1.992-9.959v-28.908l-1.992-9.969-2.997-8.97-3.98-9.97-5.988-9.959-4.979-7.98-6.972-9.96L656.248 96.153l-43.856 38.867 132.562 160.467 7.977 10.968 5.978 10.963 2.991 5.978.999 4.979.984 5.988v4.979l-.984 11.962-2.996 10.968-4.989 10.958-6.973 10.968L555.58 605.46l-4.989 3.981-1.983 4.989-5.987 6.976-4.981 8.971-2.991 8.969-3.98 8.971-1.998 8.97-.999 9.969-1.992 8.971v9.959l1.992 9.969.999 10.968 2.991 8.971 3.986 9.969 3.99 9.969 4.979 9.969 3.99 4.979 1.983 3.99zm0 0" fill="#004d28"/><path d="M346.274 335.361l.993-15.957 2.997-16.946.999-7.97 2.981-8.971 5.988-14.948 6.973-13.95 3.98-6.986 3.995-6.973 9.969-11.957 8.971-12.961 12.951-9.959 11.966-8.979 13.95-8.961 13.95-6.986 14.958-4.979 8.97-2.992 7.972-.999 7.975-1.987 8.971-.994h7.97l8.971-1.998 14.948 1.998 14.949 2.981 14.958 1.998 13.949 5.983 6.977 2.986 6.973 2.992 13.959 6.976 12.956 7.972 10.963 9.969 8.975 10.968 5.973 4.979 3.996 5.973 9.954 10.968 6.987 13.95 6.976 13.959.994 6.978 2.987 6.973 3.99 14.948 2.991 14.959h-96.681l-67.775-67.785-87.713 85.729 87.713 85.705 67.775-67.765h96.681l-2.991 16.931-3.99 13.965-2.987 6.973-.994 6.976-6.976 13.96-6.987 13.949-9.954 10.958-9.97 10.963-8.975 10.968-10.963 9.97-6.978 3.98-5.978 3.99-6.981 3.986-6.977 2.991-13.95 5.978-13.949 4.989-14.958 3.98-14.949 1.993-14.948.999-16.941-.999-16.946-2.982-7.972-.998-8.97-2.992-14.958-5.978-13.95-6.981-6.977-3.986-6.973-3.99-11.966-9.959-12.951-9.97-8.971-11.961-9.969-12.951-7.975-13.964-6.973-12.951-5.988-15.947-2.981-7.972-.999-7.982-1.998-8.96-.999-7.977-.993-7.97v-8.97zm0 0" fill="#d21b21"/><path d="M471.863 754.97L332.324 926.393H110.057l129.575-137.546 4.981-8.971 1.992-3.98.999-3.99v-10.958l-.999-3.991-1.992-3.98-.999-4.989-3.981-5.978-5.987-8.969-6.978-6.978L99.094 576.554l-7.977-10.968-6.973-9.96-5.978-9.969-4.989-9.969-3.98-9.969-2.997-9.97-2.991-9.959v-28.908l2.991-9.969 2.997-8.97 3.98-9.97 3.99-9.959 6.978-7.98 6.973-9.96L367.205 96.153l43.856 38.867-132.562 160.467-8.976 10.968-4.979 10.963-2.991 5.978-.999 4.979-1.983 5.988v4.979l1.983 11.962 1.997 10.968 5.978 10.958 6.983 10.968L467.873 605.46l3.99 3.981 2.982 4.989 4.989 6.976 4.979 8.971 3.98 8.969 3.99 8.971.999 8.97 1.998 9.969.999 8.971v9.959l-.999 9.969-1.998 10.968-1.992 8.971-4.981 9.969-3.995 9.969-4.979 9.969-2.991 4.979-2.981 3.99zm0 0" fill="#004d28"/></svg>