<svg xmlns="http://www.w3.org/2000/svg" xmlns:xlink="http://www.w3.org/1999/xlink" width="1024" height="1024" viewBox="0 0 1024 1024"><defs><path id="c" d="M63.373 79.95h897.016v864.296H63.373z"/></defs><clipPath id="d"><use xlink:href="#c" overflow="visible"/></clipPath><path d="M928.151 252.753l-31.753-40.65s-124.49 20.326-121.938-49.54c0 0 8.889-52.077-81.302-31.751 0 0-21.591-20.316-20.326-31.758 0 0 6.352-30.49-91.476-13.974 0 0-144.812 17.782-303.577 199.421 0 0-160.056 130.827-160.056-3.814 0 0-87.643 88.915-40.651 160.056 0 0 53.349 74.936 154.976 13.969 0 0-31.751 246.414 130.832 374.713 0 0 170.217 157.509 365.834 101.617 0 0 163.85-34.3 226.094-199.426 0 0-29.211 29.209-41.918 26.677 0 0 44.465-53.349 47.007-76.218 0 0-1.275-31.756-26.681 17.784 0 0 6.357-30.491-11.427-15.241 0 0-86.382 100.341-123.224 105.416 0 0-273.101 161.323-397.586-163.85 0 0-53.349-153.699 72.378-269.282 125.723-115.581 248.961-104.151 362.021-20.326 0 0 57.157-64.774 81.292-52.077 0 0 21.592-12.697 11.432-31.756l.049.01zm0 0" clip-path="url(#d)" fill="#e60012"/><path d="M549.502 407.239l277.906-1.311v211.363H549.502V407.239zm0 0" fill="#e60012"/></svg>