<svg xmlns="http://www.w3.org/2000/svg" xmlns:xlink="http://www.w3.org/1999/xlink" width="1024" height="1024" viewBox="0 0 1024 1024"><path d="M168.705 629.983a379.114 379.114 0 0 1-98.169-47.687 444.416 444.416 0 0 0 81.937 195.012c0-1.437-.077-2.873-.077-4.32a631.627 631.627 0 0 1 16.309-143.005zm252.251-8.54a379.833 379.833 0 0 1-181.348 23.656 558.195 558.195 0 0 0-7.882 214.756 444.652 444.652 0 0 0 224.577 95.167c-62.924-99.688-75.985-222.944-35.347-333.608v.029zM259.854 421.014c-67.947-7.628-123.982-56.699-140.511-123.042a444.257 444.257 0 0 0-54.034 196.402 313.946 313.946 0 0 0 121.493 72.827 627.421 627.421 0 0 1 73.052-146.187zm59.29-74.917a633.954 633.954 0 0 1 45.693-44.773c20.86-42.275 8.195-93.434-29.984-121.089-38.177-27.66-90.735-23.758-124.406 9.241-33.671 32.994-38.64 85.46-11.764 124.192 26.881 38.728 77.767 52.431 120.461 32.429zm546.299 438.524c14.975-43.282-2.469-91.129-41.782-114.624-39.317-23.495-89.716-16.188-120.742 17.503-31.026 33.69-34.164 84.523-7.516 121.775 26.646 37.247 75.769 50.698 117.673 32.215a449.211 449.211 0 0 0 52.367-56.869zm0 0" fill="#f2943a"/><defs><path id="w" d="M64.978 64.428h894.008v895.205H64.978z"/></defs><clipPath id="x"><use xlink:href="#w" overflow="visible"/></clipPath><path d="M764.59 143.382a444.401 444.401 0 0 0-155.997-67.839 377.53 377.53 0 0 1 36.546 82.594 631.473 631.473 0 0 1 119.451-14.755zm-105.095 85.742a380.37 380.37 0 0 1-21.23 170.421 379.36 379.36 0 0 1 309.549 14.747 445.385 445.385 0 0 0-97.974-194.618 558.937 558.937 0 0 0-190.301 9.45h-.044zm298.733 267.972c-120.275-85.785-284.149-75.804-393.122 23.943a377.307 377.307 0 0 1-24.172 24.723c-103.362 117.678-103.79 293.648-.999 411.824a444.067 444.067 0 0 0 179.931-50.448c-63.695-22.35-109.466-82.809-109.466-154.16-.024-77.139 53.888-143.79 129.326-159.894 75.44-16.105 151.867 22.726 183.341 93.151a445.358 445.358 0 0 0 35.381-174.513c.01-4.908-.064-9.784-.22-14.626zm-439.883-21.95a312.407 312.407 0 0 0 77.748-206.695c0-6.985-.248-13.966-.707-20.81a557.276 557.276 0 0 0-194.783 119.091 164.877 164.877 0 0 1-16.851 16.509 557.701 557.701 0 0 0-125.03 197.969c7.843.59 15.759.892 23.753.907a312.485 312.485 0 0 0 211.507-82.098 405.011 405.011 0 0 1 24.363-24.873zM440.89 243.578a627.418 627.418 0 0 1 141.158-67.941 313.485 313.485 0 0 0-61.117-110.528 440.552 440.552 0 0 0-9.212-.102 445.12 445.12 0 0 0-181.771 38.542c60.318 20.173 105.014 74.465 110.942 140.029zm0 0" clip-path="url(#x)" fill="#f2943a"/><path d="M540.934 545.762a377.307 377.307 0 0 0 24.172-24.723c108.944-99.752 272.799-109.767 393.079-24.02a447.004 447.004 0 0 0-10.371-82.726 379.382 379.382 0 0 0-309.549-14.78 380.288 380.288 0 0 0 21.23-170.387 558.897 558.897 0 0 1 190.344-9.45 449.242 449.242 0 0 0-85.211-76.291 631.223 631.223 0 0 0-119.452 14.727 377.779 377.779 0 0 0-36.541-82.595 447.387 447.387 0 0 0-87.705-10.404 313.568 313.568 0 0 1 61.127 110.556 627.393 627.393 0 0 0-141.16 67.942c-5.937-65.565-50.623-119.857-110.95-140.058a448.555 448.555 0 0 0-210.606 194.452c16.538 66.333 72.574 115.389 140.511 123.012A627.516 627.516 0 0 0 186.8 567.175a313.948 313.948 0 0 1-121.493-72.828 455.998 455.998 0 0 0-.332 17.347 449.975 449.975 0 0 0 5.548 70.577 379.287 379.287 0 0 0 98.169 47.686 631.746 631.746 0 0 0-16.309 143.015c0 1.447 0 2.893.077 4.321a449.381 449.381 0 0 0 79.253 82.546 558.192 558.192 0 0 1 7.882-214.756 379.89 379.89 0 0 0 181.348-23.656c-40.632 110.66-27.567 233.916 35.357 333.599a451.033 451.033 0 0 0 83.584 2.534c-102.791-118.176-102.363-294.147.999-411.825l.051.027zM181.278 258.436c.015-39.907 24.528-75.707 61.721-90.16 37.198-14.454 79.448-4.593 106.406 24.829 26.958 29.424 33.086 72.379 15.443 108.171a632.916 632.916 0 0 0-45.694 44.773 96.77 96.77 0 0 1-137.865-87.613h-.011zm101.198 323.681c-7.979 0-15.895-.302-23.753-.907a557.701 557.701 0 0 1 125.03-197.969 164.98 164.98 0 0 0 16.851-16.509 557.36 557.36 0 0 1 194.832-119.053c.449 6.884.712 13.815.712 20.811a312.444 312.444 0 0 1-77.802 206.655 393.663 393.663 0 0 0-24.333 24.873 312.477 312.477 0 0 1-211.537 82.099zm0 0" clip-path="url(#x)" fill="#fed966"/><path d="M773.968 589.467a163.527 163.527 0 0 0-115.658 47.872 163.516 163.516 0 0 0-47.91 115.638c0 71.352 45.772 131.81 109.466 154.16a448.01 448.01 0 0 0 93.219-65.608c-41.88 18.462-90.97 5.012-117.596-32.215-26.628-37.233-23.49-88.031 7.516-121.703 31.006-33.671 81.377-40.974 120.67-17.499 39.293 23.471 56.732 71.288 41.777 114.552a446.4 446.4 0 0 0 57.658-98.393c-26.255-58.87-84.679-96.794-149.142-96.804zm0 0" fill="#fed966"/></svg>