<svg xmlns="http://www.w3.org/2000/svg" width="1024" height="1024" viewBox="0 0 1024 1024"><path d="M510.441 433.144a1939.748 1939.748 0 0 1-120.175 207.613c-113.721 6.818-224.861 23.94-325.865 51.451C208.78 534.532 328.196 328.975 391.226 125.024h.218c27.414 101.134 68.242 206.026 118.997 308.12zm0 0" fill="#bc0015"/><path d="M390.266 640.723a1941.992 1941.992 0 0 1 240.312.531c63.468 95.635 134.515 183.644 209.63 257.371-209.128-47.064-447.969-48.179-657.175-.897l-.199-.342 3.463-3.458 3.458-3.521 3.464-3.521 3.438-3.551 3.464-3.58 3.444-3.585 3.438-3.6 3.444-3.6 3.439-3.662 3.414-3.629 3.41-3.664 3.414-3.692 6.761-7.442 3.381-3.741 3.351-3.741 3.385-3.799 3.351-3.799 3.352-3.833 3.352-3.829 3.351-3.882 3.322-3.858 3.322-3.912 3.303-3.882a1788.997 1788.997 0 0 0 125.911-167.882zm0 0" fill="#730000"/><path d="M630.588 641.264a1946.66 1946.66 0 0 1-120.147-208.091c50.838-102.07 91.467-206.814 117.965-308.129 64.842 204.71 184.141 411.773 330.283 568.306l-.142.248c-101.641-27.443-213.478-44.974-327.988-52.344l.029.01zm0 0" fill="#e4001f"/><path d="M630.588 641.264c114.501 7.403 226.381 24.939 327.993 52.344L840.218 898.595c-75.124-73.696-146.191-161.705-209.63-257.369v.038zm0 0" fill="#bc0015"/><path d="M390.266 640.723c-63.044 94.852-133.502 182.5-207.424 256.645L64.401 692.218c101.003-27.549 212.124-44.632 325.865-51.471v-.024zm0 0" fill="#e4001f"/><path d="M628.406 125.024c-26.469 101.272-67.097 206.08-117.965 308.086-50.755-102.06-91.583-206.951-118.997-308.086h236.962zm0 0" fill="#730000"/></svg>