<svg xmlns="http://www.w3.org/2000/svg" xmlns:xlink="http://www.w3.org/1999/xlink" width="1024" height="1024" viewBox="0 0 1024 1024"><defs><path id="a" d="M64.15 63.94h893.016v895.568H64.15z"/></defs><clipPath id="b"><use xlink:href="#a" overflow="visible"/></clipPath><path d="M69.024 488.223S98.929 52.096 552.523 64.606c0 0 371.357 22.488 403.754 426.207l-214.34-.049s-127.096 5.004-231.784-196.876c0 0-117.137 179.652-244.255 194.604l-196.874-.269zm-5.004 27.408l219.324 5.004s34.883 0 64.8 27.413l-279.139.161L64 515.651l.02-.02zm10.007 57.314h318.988s27.423 10.007 37.385 34.888l-348.916 2.502-7.477-37.352.02-.038zm17.445 64.69l368.864.108s52.339 49.847 39.878 171.96c0 0 24.921 19.932 29.915-2.492 0 0-17.454-169.468 37.377-169.468l368.976-2.492-22.581 49.96-127.092-.113s-44.862-10.008-42.37 64.8c0 0 1.911 230.172-226.848 206.735 0 0-239.183 12.578-236.72-194.276 0 0 10.007-89.719-52.339-69.773H108.956l-17.504-54.938.02-.011zm498.463-29.802s10.007-39.873 64.793-29.905l291.6-2.492-5.004 29.915-351.415 2.492.026-.01zm77.264-57.323s14.952-32.398 39.868-32.398l244.245 5.004-5.004 29.916-279.138-2.493.029-.029zm0 0" clip-path="url(#b)" fill="#004ea2"/></svg>