<svg xmlns="http://www.w3.org/2000/svg" xmlns:xlink="http://www.w3.org/1999/xlink" width="1024" height="1024" viewBox="0 0 1024 1024"><defs><path id="s" d="M63.333 150.273h897.036v723.155H63.333z"/></defs><clipPath id="t"><use xlink:href="#s" overflow="visible"/></clipPath><path d="M140.112 468.186c-50.374.44-72.717 27.216-75.909 78.681-1.549 24.977-.552 50.111-.572 75.176v247.95c5.777 1.28 8.169 2.634 10.059 2.121 116.499-31.59 232.978-63.25 349.437-94.967V467.404c-94.317-.131-188.658.128-283.015.782zm0 0" clip-path="url(#t)" fill="#024770"/><path d="M955.02 436.65c7.612-63.063 7.572-62.912-45.686-80.792a177277.112 177277.112 0 0 1-182.701-61.447v142.2c75.479.601 151.119.039 228.387.039zm0 0" clip-path="url(#t)" fill="#e66711"/><path d="M937.337 267.137c-59.413-35.93-118.127-73.01-177.119-109.626-22.221-13.793-31.752-4.403-32.441 18.521-.694 22.772-1.574 45.706.528 68.299.733 7.85 8.613 19.019 15.808 21.654 70.243 26.135 141.036 50.794 215.225 77.141-1.883-29.471 8.807-57.39-22.001-75.989zm0 0" clip-path="url(#t)" fill="#ba2631"/><path d="M476.274 210.217c-32.803-11.07-47.531-9.272-53.157 12.792-1.783 7.008-2.673 15.944-2.903 27.226-1.002 47.862 1.872 95.89-1.002 143.601-.708 11.882.533 20.133 3.876 25.799 5.567 9.439 17.015 11.721 35.037 11.711 80.822 0 161.629 4.116 242.461 5.083 8.68.103 17.381.123 26.027.191V294.41a663040.801 663040.801 0 0 1-250.339-84.193zm0 0" fill="#da251c"/><path d="M726.643 690.665V467.356l-33.375.679c-90.045-.166-180.095-.377-270.141-.631v309.733a178100.094 178100.094 0 0 0 278.733-76.301l24.792-6.608v-3.574l-.009.011zm0 0" fill="#005e78"/><path d="M931.329 468.485c-59.124.801-118.273.952-177.388-.059h-3.172l-26.585-1.002 2.41 206.696v20.118s92.866-27.026 155.895-45.506a3098.192 3098.192 0 0 0 53.292-15.427 13.302 13.302 0 0 0 2.753-1.206c14.449-4.697 16.829-25.208 16.829-25.208.288-1.226.484-2.474.582-3.725 2.552-36.209.342-72.727 1.369-109.113.611-19.37-6.966-25.827-25.985-25.568zm0 0" fill="#45916b"/></svg>