<svg xmlns="http://www.w3.org/2000/svg" xmlns:xlink="http://www.w3.org/1999/xlink" width="1024" height="1024" viewBox="0 0 1024 1024"><defs><path id="M" d="M66.816 64.305h890.543v895.37H66.816z"/></defs><clipPath id="N"><use xlink:href="#M" overflow="visible"/></clipPath><path d="M670.047 481.19l-80.611 84.089 197.25 188.988 80.611-83.992-197.25-189.085zm-205.209-35.332l80.611-84.09-209.085-200.432-80.514 83.992 208.988 200.53zM576.7 578.517l-80.509 84.095 197.245 189.086 80.611-84.095L576.7 578.517zm-93.25 97.332l-78.419 81.802 63.395 60.907-12.741 13.236-253.672-243.223 12.736-13.237 65.684 62.895 78.419-81.802-209.086-200.432L71.842 437.3l80.907 77.628-86.082 89.664L435.78 958.481l85.985-89.766 81.009 77.525 77.924-81.305L483.45 675.849zm74.741-327.415l74.241-77.428-65.684-62.894 12.736-13.237 253.675 243.127-12.736 13.334-63.395-60.805-74.241 77.423 197.245 189.085 76.529-79.911-80.907-77.526 77.526-80.912L584.067 64.902l-77.525 80.908-80.912-77.622-76.53 79.814 209.091 200.432zM371.593 543.087l80.509-83.992-208.989-200.427-80.611 84.09 209.091 200.329zm0 0" clip-path="url(#N)" fill="#dfb711"/></svg>