<svg xmlns="http://www.w3.org/2000/svg" width="1024" height="1024" viewBox="0 0 1024 1024"><path d="M146.16 561.937l-4.325 24.505h129.732l5.758-24.505H146.16zm330.087 24.505l4.32-24.505H333.546l-5.763 24.505h148.464zm82.16-123.958l-20.179 99.453-5.774 24.505-20.179 99.454h-204.7l-4.325 23.056h239.297l31.717-147.016 20.18-99.453h286.839l-21.618 99.453H630.48l-51.926 246.49H281.65l-4.325 23.115h332.954l31.711-145.577 20.215-99.513H855.34l-20.18 99.454H698.222L667.954 831.54l-21.618 99.454H199.49l51.925-245.041H64l21.618-99.454 4.325-24.564 21.618-99.453h185.944l51.926-245.042h204.7l25.962-123.968h379.026l-21.62 99.454H614.624l-4.345 24.514-20.18 99.454h-204.7l-5.763 23.066h240.751l4.32-23.066 21.628-99.454h286.84l-21.618 99.454H682.361l-25.958 122.52H359.494l-5.768 23.067h204.7-.019zm0 0" fill="#007f3e"/></svg>