<svg xmlns="http://www.w3.org/2000/svg" xmlns:xlink="http://www.w3.org/1999/xlink" width="1024" height="1024" viewBox="0 0 1024 1024"><defs><path id="O" d="M64.62 64.295h895.163v895.213H64.62z"/></defs><clipPath id="P"><use xlink:href="#O" overflow="visible"/></clipPath><path d="M491.381 64.959c225.778-3.502 366.227 118.639 432.051 275.794 22.805 54.619 53.119 158.659 23.005 228.581-47.017 108.837-218.073 182.564-356.022 202.873 81.729-119.642 114.337-285.802 44.513-444.257-10.301-23.309-24.706-65.023-45.915-77.127-24.51-10.804-56.821-8.005-86.129-12.905-74.327-12.304-177.562-15.607-255.489-2.901-33.014 4.8-66.024 9.505-99.033 14.306a73.21 73.21 0 0 0 1.397-4.303c21.511-23.309 43.116-46.716 64.623-70.024 36.316-28.913 76.228-56.52 122.044-75.725 30.108-12.607 64.525-21.511 99.035-28.614 18.602-1.898 37.213-3.799 55.92-5.698zm0 0" clip-path="url(#P)" fill="#e46214"/><path d="M428.157 249.325h4.303c-81.727 119.642-114.341 285.799-44.517 444.252 10.306 23.309 24.71 65.023 45.919 77.127l73.224 11.405c104.338 17.809 274.397 16.407 367.429-11.405-6.502 15.405-20.408 25.009-30.113 37.118-70.821 87.828-238.082 180.063-414.843 141.446-81.23-17.706-145.652-49.617-200.969-92.831-96.635-75.529-237.188-308.51-119.045-455.759 51.917-64.725 146.853-103.938 235.385-131.447 27.709-6.6 55.517-13.308 83.227-19.906zm0 0" clip-path="url(#P)" fill="#e46214"/><path d="M413.854 403.577c41.513.899 86.93 12.704 133.445 5.701 21.009-1.402 42.115-2.901 63.122-4.299l8.602 8.602c-2.403 34.71-4.802 69.522-7.204 104.236 1.904 30.508 3.805 60.919 5.705 91.433-2.901 2.398-5.705 4.802-8.602 7.101-20.11-1.402-40.214-2.901-60.324-4.303-45.416 1.402-90.931 2.901-136.346 4.303-2.403-2.901-4.802-5.705-7.205-8.601l5.706-88.532c5.602-37.713-11.904-79.53-4.304-111.44 2.599-1.401 5.002-2.799 7.405-4.201zm0 0" fill="#e46214"/></svg>