<svg xmlns="http://www.w3.org/2000/svg" xmlns:xlink="http://www.w3.org/1999/xlink" width="1024" height="1024" viewBox="0 0 1024 1024"><defs><path id="K" d="M63.984 261.49h896.702v501.032H63.984z"/></defs><clipPath id="L"><use xlink:href="#K" overflow="visible"/></clipPath><path d="M312.03 262.132h623.264c20.393 5.981 26.28 19.513 24.028 37.291L773.018 735.431c-10.241 14.067-24.72 23.444-45.387 25.887H82.135c-16.986-1.702-22.148-16.304-15.485-43.806L246.724 296.17c15.225-20.77 37.094-31.997 65.317-34.077l-.011.039zm0 0" clip-path="url(#L)" fill="#00908c"/><path d="M312.664 262.132h184.297c-28.227 2.09-50.096 13.307-65.317 34.077L251.6 717.511c-6.703 27.468-1.55 42.055 15.451 43.762H82.729c-16.986-1.673-22.139-16.26-15.456-43.762L247.347 296.17c15.254-20.78 37.093-32.025 65.317-34.038zm0 0" clip-path="url(#L)" fill="#e60012"/><path d="M496.961 262.132h226.82c-28.228 2.09-50.092 13.307-65.317 34.077L478.428 717.511c-6.698 27.468-1.545 42.055 15.456 43.762H267.066c-16.991-1.673-22.144-16.26-15.456-43.762L431.654 296.17c15.22-20.77 37.089-31.997 65.317-34.077l-.01.039zm0 0" fill="#00508e"/><path d="M336.117 442.608h31.995l.363 14.381h28.557v27.875h-41.981c-6.865 11.584-20.27 16.25-34.411 12.762l-.137-22.497c11.835-1.438 16.721-11.369 15.593-32.512l.021-.009zm400.95 48.698h-23.739l-19.763-29.655c-1.727 1.006-2.193 4.524-3.92 5.51-2.885 1.643-5.446.432-8.332 2.075l.191 130.011c8.244 5.367 5.531 12.281 6.128 20.554 6.595-1.319 10.756.712 17.335-.613 3.748-12.855 12.139-27.605 16.491-41.279 1.006-3.16-.481-6.546.392-9.51h-26.319l.452-25.122 31.024.305c0-5.279.608-15.407.608-20.682h-32.084v-25.628l93.211 1.521-.299 24.175-30.72 1.065-.613 20.834 29.356-.451.147 22.811-31.049.432c-2.772 0-1.006 6.088-2.713 8.69v2.011c3.959.481 8.734-1.496 12.36 1.526 3.336 2.782 1.266 9.725 4.018 14.317 4.803 7.969 6.291 18.514 19.989 19.922l-.191 29.479H768.68c-9.809-12.831-19.721-20.246-23.739-39.621l-3.949 2.011c-4.357 15.937-11.605 27.521-21.747 37.56h-29.64c-1.124-2.541.574-7.727.107-8.832-.76-1.84-3.733 1.143-8.037-1.006-1.276 7.184 1.065 6.031-2.1 9.888-9.617-.089-18.419.314-26.53-1.001-5.024-.815.294-7.336-4.784-8.273-12.963-2.39-38.526-.555-57.524-.604v-25.784c7.182-1.276 6.024 1.526 9.887-1.629V447.814c8.562.663 17.133.103 25.696.766.662 3.297-.506 8.719.147 12.055 1.639-1.094 6.51 2.282 6.703.221 1.187-12.507 26.721-15.681 51.088-13.223 5.235.535-.462-4.372 5.308-4.651 9.465-.461 19.523-1.619 29.662-1.006 4.484 10.221 6.893 17.423 17.796 21.747v27.673l.043-.09zm25.691-47.442h27.678v3.949c6.339 17.247-9.809 33.013-18.09 42.428l-23.263.152-.172-26.28c10.049-1.859 10.471-3.645 13.837-10.338v-9.892l.01-.019zm-349.696 2.011h22.11l.731 15.814c15.828-15.622 37.501-17.29 77.937-14.567l.201 82.882c0 11.266-10.186 15.667-11.241 17.202l-70.091-.691.319 59.616c1.953 3.468 4.391 6.152 7.547 6.132l20.098-.132-.3 27.644-43.138-.172c-3.817-.481-5.024-3.577-5.024-7.856l.883-185.966-.032.094zm219.454 24.818c-4.754 10.049-5.132 21.104-4.793 37.816 11.599-1.237 18.09-5.325 24.342-11.86-.667-8.557.539-17.079-.113-25.622-5.928 0-13.503-.334-19.436-.334zm-194.253 4.201v25.024c2.011-2.012 4.852-2.836 6.834-4.813 16.3-13.797 22.782-6.59 36.668-10.329v-9.892l-43.502.01zm-119.579 30.288h81.052v21.747h-31.623v23.827h29.656v25.593h-13.886c-6.355 12.261-16.653 26.647-13.842 41.509h21.747v23.729l-37.56 2.007c-18.882-10.829-17.085-36.898-15.819-67.216h-21.732v-25.662h21.742V526.89h-19.775v-21.747l.04.039zm163.09 20.854l.496-11.82-42.207.181v11.909l41.692-.27h.019zm145.708-3.017v33.547c8.563-2.012 16.079-3.95 24.612-5.933V522.93l-24.612.089zm-129.741 31.534h19.549c-.662 9.225-.191 20.028-.854 29.253-7.63 3.194-16.731 2.841-29.204 2.6v6.154c3.106 9.774 1.006 18.929 10.923 22.821 4.189-4.283 9.048-3.489 18.09-3.508-.662 9.225.25 18.448-.402 27.673-16.388.402-29.435 1.688-37.07-3.375-20.288-13.454-15.323-47.232-24.892-77.677.663-1.315 2.012-2.635 2.655-3.95h21.741c2.012 5.274 1.933 10.991 3.911 16.261 8.925-.422 10.431-1.85 15.598-4.401v-11.85h-.045zm131.361 17.796v31.634h21.784c-.662-10.54 0-20.55-.623-31.088-6.594 0-14.538-.545-21.104-.545h-.057zm0 0" fill="#fff"/></svg>