<svg xmlns="http://www.w3.org/2000/svg" xmlns:xlink="http://www.w3.org/1999/xlink" width="1024" height="1024" viewBox="0 0 1024 1024"><defs><path id="C" d="M66.952 64.564h890.173v895.111H66.952z"/></defs><clipPath id="D"><use xlink:href="#C" overflow="visible"/></clipPath><path d="M525.88 448.227c114.817 0 215.572 9.275 302.459 26.332 52.771 10.877 94.569 21.749 128.689 35.714L510.42 65.063 66.803 508.68c38.806-13.97 88.383-26.337 147.34-35.714 94.568-16.959 198.512-24.739 311.737-24.739zm0 0" clip-path="url(#D)" fill="#ffca02"/><path d="M510.42 958.478l443.613-445.111c-62.046-4.686-147.341-4.686-254.378 3.092-113.224 7.779-190.735 18.656-235.723 32.518-40.301 12.372-58.957 29.431-55.863 49.581 0 6.186 3.092 13.965 9.279 20.151l10.872 9.279c15.46 10.872 24.842 15.563 27.929 18.651 13.97 12.372 18.656 27.935 15.563 46.489-6.181 24.842-55.86 51.174-147.34 77.613L510.42 958.478zm0 0" fill="#314693"/></svg>