<svg xmlns="http://www.w3.org/2000/svg" xmlns:xlink="http://www.w3.org/1999/xlink" width="1024" height="1024" viewBox="0 0 1024 1024"><defs><path id="o" d="M64.027 64.12h894.139v895.388H64.027z"/></defs><clipPath id="p"><use xlink:href="#o" overflow="visible"/></clipPath><path d="M512.422 958.31c-248.401 0-448.545-200.081-448.545-445.056A447.646 447.646 0 0 1 512.422 64.718c244.977 0 445.046 200.135 445.046 448.536 0 244.975-200.08 445.046-445.046 445.046v.01zm-82.834-796.95c-158.693 37.973-275.982 179.399-275.982 351.894 0 117.313 58.635 224.289 148.335 289.77-37.974-62.081-51.751-189.743-51.751-189.743-6.875-210.428 141.43-275.996 141.43-275.996 75.936-44.838 120.774 3.483 120.774 3.483l31.044 30.977c27.586 31.074 69.023 17.305 69.023 17.305 79.341-37.967 34.494-127.706 34.494-127.706-41.39-103.467-148.331-106.917-217.367-99.984zm144.884 703.792c169.094-27.586 296.765-175.92 296.765-351.898 0-113.831-55.21-217.327-137.99-282.896C812.583 392.51 764.292 530.5 764.292 530.5 719.455 678.894 605.6 699.566 605.6 699.566c-79.371 20.671-106.918-37.974-106.918-37.974-20.765-27.547-51.839-27.547-51.839-27.547-65.548-3.425-75.882 55.225-75.882 55.225 0 6.918-3.453 17.248-3.453 20.677 6.883 65.568 44.832 103.497 44.832 103.497 48.322 48.322 124.204 55.225 162.181 51.751l-.049-.043zM415.81 513.254l100.057 100.072L615.91 513.254 515.867 409.766 415.81 513.254zm0 0" clip-path="url(#p)" fill="#a30000"/></svg>