<svg xmlns="http://www.w3.org/2000/svg" xmlns:xlink="http://www.w3.org/1999/xlink" width="1024" height="1024" viewBox="0 0 1024 1024"><defs><path id="ae" d="M64.232 66.138h895.743v891.877H64.232z"/></defs><clipPath id="af"><use xlink:href="#ae" overflow="visible"/></clipPath><path d="M958.939 492.329c-5.751-157.713-103.985-265.072-103.985-265.072C703.083 50.506 508.195 67.061 508.195 67.061c-208.077-6.642-336.056 150.283-336.153 150.181-87.533 104.087-97.446 199.849-97.446 199.849-38.761 161.087 42.13 299.773 42.13 299.773 60.273 109.044 123.913 159.398 227.11 207.278 103.293 47.881 260.116 41.241 357.561-7.435 97.447-48.669 156.823-102.3 211.345-203.909 54.426-101.609 46.197-220.469 46.197-220.469zM466.065 858.221s-163.469-9.119-253.479-165.947c0 0-77.62-110.626-45.403-248.518 32.217-138.091 107.359-193.4 122.229-207.482 14.87-13.974 111.027-71.172 176.653-70.179v164.353h-69.391s-94.174 5.751-97.445 109.838v151.968s2.478 93.283 99.923 104.087h66.913v161.88zm-56.109-258.63s-16.553 4.163-19.032-14.87V439.395s2.478-15.663 14.87-15.663h203.909s17.348-3.273 19.033 15.663v141.164s4.162 22.304-12.391 19.032H409.956zm397.116 106.565C741.05 806.87 615.55 853.168 556.866 858.124V696.243h77.619s82.577-16.554 87.534-102.402V421.254s-13.186-86.739-104.881-90.806h-60.271l.102-164.353s103.191 8.223 186.561 85.049 104.88 153.555 113.902 194.893c9.118 41.239 15.659 159.401-50.36 260.119zm0 0" clip-path="url(#af)" fill="#b81c22"/></svg>