<svg xmlns="http://www.w3.org/2000/svg" xmlns:xlink="http://www.w3.org/1999/xlink" width="1024" height="1024" viewBox="0 0 1024 1024"><defs><path id="S" d="M85.476 63.811h853.308v896.032H85.476z"/></defs><clipPath id="T"><use xlink:href="#S" overflow="visible"/></clipPath><path d="M479.885 95.567s75.958-58.645 206.575-15.998c0 0 43.985 15.998 94.618 61.307l157.279 165.266-83.964 83.955-239.91-243.925S574.49 96.863 479.876 95.529l.009.038zm346.521 323.841l-98.625 95.967s-15.998 22.657-29.325 1.333L517.191 339.453s-15.993-21.323-27.981-2.662l-182.594 186.58s-11.998 18.661 2.706 26.629l178.55 178.611s14.631 23.986 27.986 5.326l185.265-186.581s5.325-15.998 34.645-11.998h189.233s8.002 191.915-138.608 311.867c0 0-190.591 190.575-451.809 73.3 0 0-251.898-87.966-249.235-414.478 0 0 6.662-218.567 205.25-334.514 0 0 145.271-107.955 261.223-27.986l274.573 275.868.011-.007zm0 0" clip-path="url(#T)" fill="#003b90"/></svg>