<svg xmlns="http://www.w3.org/2000/svg" xmlns:xlink="http://www.w3.org/1999/xlink" width="1024" height="1024" viewBox="0 0 1024 1024"><defs><path id="aa" d="M63.989 78.775H960.02v866.253H63.989z"/></defs><clipPath id="ab"><use xlink:href="#aa" overflow="visible"/></clipPath><path d="M956.687 105.895c.622-2.284 1.246-4.569 1.763-6.849 2.493-10.583-1.864-15.563-5.081-17.641-1.454-.931-3.115-1.241-4.773-1.348-.521 0-.936-.101-1.454-.101H802.816c-7.158 0-14.109.416-20.127 4.565-6.328 4.458-9.859 11.099-12.347 18.365-8.197 23.137-14.317 47.105-20.026 70.967-3.941 16.393-7.159 32.996-9.961 49.592-1.555 9.549-3.111 19.196-4.459 28.74h-140.07c-.314-12.656-.208-25.416 0-38.077.209-11.516.725-23.031 1.45-34.552.623-10.062 1.353-20.021 2.284-29.981.725-8.197 1.663-16.395 2.594-24.591.831-6.849 4.773-29.779 5.913-34.445 2.908-11.519-8.09-10.583-8.09-10.583H427.636c-10.376-.207-11.617 5.604-11.202 9.545.208 2.695 1.034 5.497 1.348 8.197 11.308 83.937 6.12 154.488 6.12 154.488h-138.93c-3.213-45.752-25.002-119.212-32.474-143.18-1.348-4.464-2.488-9.028-4.251-13.386-2.491-6.535-5.917-10.375-9.236-12.654-5.917-3.947-15.67-2.7-22.306-2.7H78.5c-18.989 0-12.656 18.466-12.656 18.466 113.714 402.259 20.335 753.472 3.526 810.852a206.305 206.305 0 0 1-3.734 11.308c-3.84 11.099-.831 17.017 2.385 19.92 3.319 3.115 7.884 2.7 12.139 2.7 0 0 110.913.309 142.355-.106 6.22-.101 12.654-.831 17.842-4.458 8.198-5.71 12.038-15.563 14.632-25.529 3.318-12.762 6.434-25.625 9.645-38.387 7.68-30.088 18.263-73.875 22.519-103.755h140.172c1.245 55.925-3.425 104.273-6.952 132.081-1.14 9.337-3.216 18.258-5.395 27.286-1.039 4.149-1.454 9.235 2.903 11.622 4.257 2.386 9.753 1.246 14.423 1.246H591.05c3.323 0 6.849.309 10.067-.623 4.771-1.454 5.81-5.087 5.704-7.989-.101-5.503-1.763-10.999-2.386-16.501-10.062-80.613-5.188-147.122-5.188-147.122h138.93c3.84 55.404 34.967 151.069 34.967 151.069 4.048 13.902 12.863 18.572 18.572 20.127 3.84 1.039 7.884.831 11.831.831h141.208c18.988 0 12.656-18.471 12.656-18.471-58.413-191.532-70.759-402.361-45.96-600.327 7.052-56.133 17.427-111.952 31.127-166.941 2.07-8.82 11.722-43.269 14.109-51.67zM302.821 597.38c4.878-95.036 4.048-171.196 4.048-171.196h413.465c-4.878 95.042-4.048 171.196-4.048 171.196H302.821zm0 0" clip-path="url(#ab)" fill="#023b94"/></svg>