<svg xmlns="http://www.w3.org/2000/svg" xmlns:xlink="http://www.w3.org/1999/xlink" width="1024" height="1024" viewBox="0 0 1024 1024"><defs><path id="e" d="M99.82 63.711h824.536v896.131H99.82z"/></defs><clipPath id="f"><use xlink:href="#e" overflow="visible"/></clipPath><path d="M770.571 735.102c-52.491 1.723-101.006 3.388-153.498 5.081-33.24 141.385-308.087 103.2-277.471-76.203 15.378-106.279 158.981-152.684 248.124-72.446 19.589 22.14 29.185 42.674 35.471 87.689 44.031-1.7 103.392-3.393 147.402-5.088 2.237-228.618-257.427-344.636-452.144-233.68-186.669 106.347-165.122 430.346 30.483 513.1v5.081c-106.662-2.094-223.609-84.707-249.118-182.884l1.444-527.078c84.65-57.569 178.223-126.583 262.852-184.162l10.16 5.083c-5.846 79.458-2.16 210.482 2.536 306.094 53.054-51.483 88.781-105.286 180.358-123.205 59.031-11.53 115.503-4.582 151.142 7.618 267.512 91.65 284.168 437.319 57.151 556.289-5.081 0-16.112 10.027-24.544 11.663 0-1.695 5.283-9.023 9.303-16.745l20.319-76.207h.03zm0 0" clip-path="url(#f)" fill="#1d2088"/></svg>