<svg xmlns="http://www.w3.org/2000/svg" xmlns:xlink="http://www.w3.org/1999/xlink" width="1024" height="1024" viewBox="0 0 1024 1024"><defs><path id="u" d="M64 277.04h896.036v469.767H64z"/></defs><clipPath id="v"><use xlink:href="#u" overflow="visible"/></clipPath><path d="M492.407 505.455l13.998 11.903 14.799-4.301c41.398-11.698 82.592-24.701 133.189-40.1-32.298-29.295-56.295-51.794-81.293-73.091-1.001-.8-2.002-1.704-3.199-2.5h-.102c-2.197-1.601-4.697-3.202-7.299-4.501l-7.5-4.6-5.8 1.499c-.201 0-.401.103-.601.103-1.299.299-2.5.699-3.799.996l-.6.2c-42.698 11.504-85.093 24.998-137.49 40.798 33.401 28.797 59.395 51.999 85.697 73.594zm407.769-109.49c-119.791-103.694-265.581-120.094-415.37-118.693l-31.497 2.1 41.096 37.2s26.697-5.401 45.997-2.602h.099c39.601 6.303 80.194 7.499 119.093 16.4 50.699 11.6 98.992 31.096 132.593 74.595 28.694 37.096 28.294 76.493-.4 112.99-6.303 8.002-12.7 16-21 26.302l117.492 90.194c6.098-1.801 12.098-6.601 18.997-13.202 70.995-67.795 70.796-157.891-7.1-225.284zM600.197 630.549l-28.196-26.599-44.899 2.7c-66.094 1.299-129.791-12.299-189.187-43.196-91.692-47.799-103.791-109.191-34.699-188.785-15.096-16.6-25.994-28.602-35.296-36.599h-.097l-3.3-2.7-15.503-12.597c-1.996 0-6.898 1.196-7.196 1.299-8.999 2.7-18.1 6.698-18.1 6.698-10.102 4.302-22.401 11.699-38.996 21.898-29.099 17.796-57.296 38.898-80.796 63.495-48.399 50.895-53.697 118.693-11 173.988 22.9 29.597 52.795 56.895 85.195 75.292 163.89 92.996 339.077 93.895 526.061 58.897-36.395-32.595-67.896-58.595-96.893-87.294-2.298-2.299-4.598-4.495-7.098-6.497zm0 0" clip-path="url(#v)" fill="#a72217"/></svg>