<svg xmlns="http://www.w3.org/2000/svg" xmlns:xlink="http://www.w3.org/1999/xlink" width="1024" height="1024" viewBox="0 0 1024 1024"><defs><path id="k" d="M64.817 64.607h893.959v895.26H64.817z"/></defs><clipPath id="l"><use xlink:href="#k" overflow="visible"/></clipPath><path d="M940.116 633.886l4.074-14.986 3.531-14.977 3.019-15.265 2.434-14.986 1.108-7.636.792-7.903.84-7.63.801-7.606.259-7.903.58-7.903v-7.904l.269-7.888-.269-11.465-.259-11.157-.849-11.177-.792-11.171-1.109-11.177-1.372-10.883-1.642-10.912-2.168-10.624-2.165-10.615-2.486-10.624-2.424-10.355-3.024-10.355-3.268-10.093-3.541-10.097-3.805-10.063-3.81-9.804-4.382-9.803-4.332-9.824-4.91-9.545-4.914-9.535-5.182-9.241-5.442-9.271-5.969-9.276-6.024-8.984-6.233-8.982-6.555-8.725-6.82-8.715-6.814-8.451-7.342-8.724-7.616-8.163-7.664-8.455-8.182-8.163-8.142-7.903-8.451-7.923-8.456-7.342-8.456-7.347-8.708-7.078-8.725-6.824-8.984-6.555-8.982-6.253-8.989-5.999-9.3-5.735-9.247-5.442-9.5-5.441-9.565-4.884-9.515-4.651-9.833-4.622-9.824-4.103-10.043-4.088-10.088-3.815-10.092-3.267-10.092-3.254-10.355-3.009-10.362-2.725-10.616-2.447-10.624-2.173-10.614-1.929-10.893-1.612-10.883-1.369-10.937-1.353-11.142-.82-11.157-.548-11.201-.562h-22.88l-11.465.562-11.416.548-11.206.82-10.883 1.353-10.883 1.368-10.883 1.612-10.938 1.929-10.624 2.173-10.625 2.448-10.35 2.726-10.355 3.009-10.044 3.254-10.087 3.267-10.092 3.815-9.834 4.088-9.774 4.103-9.823 4.622-9.516 4.651-9.564 4.884-9.242 5.441-9.305 5.442-9.242 5.735-8.982 5.999-8.984 6.253-8.725 6.555-8.713 6.824-8.725 7.078-8.715 7.347-8.192 7.342-8.455 7.923-8.133 7.903-8.192 8.163-7.616 8.455-7.649 8.163-7.357 8.724-7.068 8.451-6.555 8.715-6.551 8.725-6.243 8.982-6.281 8.984-5.715 9.276-5.442 9.271-5.173 9.241-5.182 9.535-4.651 9.545-4.333 9.824-4.382 9.803-4.069 9.804-3.541 10.063-3.541 10.097-3.273 10.093-3.009 10.355-2.701 10.355-2.482 10.624-2.173 10.615-1.901 10.624-1.631 10.912-1.378 10.883-1.05 11.177-1.113 11.17-.528 11.177-.323 11.157-.259 11.465.259 11.43.323 11.446.528 11.176 1.113 11.152 1.05 11.177 1.378 10.903 1.631 10.888 1.901 10.653 2.173 10.614 2.482 10.624 2.701 10.615 3.009 10.36 3.273 10.068 3.541 10.35 3.541 9.833 4.069 10.068 4.382 9.824 4.333 9.803 4.651 9.545 5.182 9.53 5.173 9.516 5.442 9.276 5.715 9.261 6.281 9.251 6.243 9.007 6.551 8.72 6.555 8.989 7.068 8.45 7.357 8.715 7.649 8.431 7.616 8.456 8.192 8.192 8.133 7.893 8.455 7.904 8.192 7.616 8.715 7.102 8.725 7.083 8.713 6.81 8.725 6.525 8.984 6.263 8.982 6.004 9.242 5.73 9.305 5.442 9.242 5.441 9.564 4.914 9.516 4.909 9.823 4.332 9.774 4.392 9.834 3.8 10.092 3.815 10.087 3.531 10.044 3.009 10.355 2.995 10.35 2.721 10.624 2.457 10.624 2.192 10.938 1.901 21.766 3.283 10.883 1.079 11.206.822 11.416.518 11.465.561h11.465l16.065-.259 15.798-.561 15.534-1.349 15.539-1.641 15.216-2.193 14.747-2.721 14.942-3.273 14.488-3.536 14.156-4.362 14.166-4.627 13.893-5.177 13.638-5.447 13.315-6.261 13.365-6.541 13.105-7.083 12.784-7.372 8.725-5.441 8.45-5.447 8.187-5.441 7.611-5.73 7.616-5.442 7.073-5.735 6.819-5.71 6.556-5.735 5.969-5.989 6.022-5.745 5.442-5.964 5.173-5.999 4.913-6.267 4.602-5.989 4.123-6.291 4.069-6.263 3.541-6.267 3.272-6.263 3.009-6.253 2.702-6.55 2.481-6.531 1.899-6.555 1.906-6.521 1.377-6.814 1.05-6.55.85-6.795.264-6.814.259-6.819-.259-7.073-.264-6.824-.85-7.083-1.05-7.074-1.377-5.73-1.373-5.974-1.641-5.471-1.642-5.705-2.158-5.471-2.175-5.183-2.476-5.173-2.691-5.177-3.015-4.894-3.009-4.91-3.542-4.884-3.541-4.651-3.805-4.362-3.81-4.363-4.382-4.352-4.332-4.362-4.651-4.069-4.915-3.835-5.178-3.8-5.123-3.8-5.501-3.57-5.705-3.541-5.97-3.254-6.286-3.541-6.291-3.009-6.501-2.985-6.815-3.009-7.083-2.721-7.342-2.721-7.391-2.721-7.616-2.461-7.923-2.452-20.398-7.083 6.506-3.8 6.281-4.104 5.97-4.088 5.495-4.362 5.183-4.627 4.861-4.621 4.38-4.909 4.069-5.182 3.805-5.183 3.278-5.441 3.274-5.735 2.481-5.701 2.432-6.004 1.911-5.994 1.367-6.261 1.373-6.551.533-7.616.269-7.073-.269-7.37-.533-7.372-1.373-7.054-1.9-7.112-2.168-6.785-2.751-7.112-3.273-6.78-3.8-6.824-4.392-6.814-4.864-6.531-5.491-6.545-5.974-6.551-6.551-6.262-6.814-6.261-7.611-6.556-7.606-6.261-7.923-5.711-8.191-5.461-8.402-5.183-8.725-4.884-9.036-4.357-9.242-4.362-9.515-3.835-9.824-3.8-10.092-3.283-10.355-2.98-10.624-2.72-10.884-2.721-11.205-2.193-11.416-1.901-13.107-1.909-13.043-1.632-13.638-1.377-13.633-1.084-13.897-1.08-14.157-.82-14.166-.548-14.683-.273-14.747-.259-15.006.259h-15.216l-15.534.533-15.798.82-16.065.84-16.115.79-16.33 1.378v140.867l13.058-1.631 13.105-1.642 13.043-1.079L378 429.263l13.107-.82 13.315-.533 13.375-.288h26.945l13.374.551 13.633.556 13.629 1.085 13.584 1.079 13.623 1.378 13.898 1.631 13.907 1.642 11.191 1.9 10.624 2.175 9.775 2.456 9.305 2.452 8.451 2.995 7.874 3.009 7.342 3.273 6.555 3.541 3.009 1.607 2.691 1.935 2.751 2.16 2.432 1.91 2.481 2.193 1.901 2.16 2.168 2.202 1.642 2.16 1.631 2.462 1.642 2.452 1.373 2.457 1.059 2.72.85 2.462.792 2.711.576 2.731.531 3.014v4.879l-.531 2.462-.576 2.721-2.173 5.994-3.01 6.824-1.9 2.72-2.165 2.721-2.427 2.447-3.014 1.906-3.01 1.91-3.283 1.632-3.541 1.377-3.8 1.08-4.073.82-4.651.82-4.656.259h-10.35l-5.442-.259-5.705-.82-6.293-.82-16.324-1.901-16.066-1.641-16.056-1.368-15.855-1.089-15.48-.812-15.534-.562-15.539-.259-15.275-.274-15.006.274-14.947.259-15.006.562-14.693.812-14.425 1.089-14.478 1.368-14.166 1.641-14.157 1.901v143.588l19.867-2.188 19.339-2.165 19.08-1.636 19.075-1.373 18.279-.82 18.24-.82 17.692-.259h17.439l17.164.551 16.921.528 16.325 1.109 16.115 1.612 15.798 1.631 15.538 2.198 14.952 2.432 14.738 2.741 11.683 2.173 10.937 2.721 10.352 2.721 9.515 3.009 8.984 3.541 8.191 3.541 3.805 1.899 3.541 1.906 3.533 1.93 3.278 2.158 3.014 2.203 2.96 2.16 2.75 2.461 2.433 2.188 2.481 2.433 2.16 2.462 1.899 2.451 1.909 2.721 1.632 2.721 1.383 2.721 1.367 2.721.792 3.009 1.114 2.721.528 2.994.531 3.009.576 3.274v2.432l.264 2.721-.264 2.75v2.427l-.576 2.721-.531 2.452-.792 2.75-.85 2.433-1.05 2.75-1.377 2.432-1.373 2.721-1.641 2.74-3.541 5.452-4.333 5.431-2.741 3.283-3.283 2.98-3.278 3.014-3.531 2.721-3.541 2.721-3.8 2.731-3.815 2.451-4.123 2.462-4.069 2.429-4.323 2.193-4.649 2.188-4.651 2.173-4.914 1.9-5.133 1.901-5.168 1.641-5.505 1.642-5.442 1.632-5.701 1.377-5.715 1.343-6.281 1.08-12.525 2.197-13.105 1.906-13.898 1.338-14.683 1.109-15.275.561h-24.521l-8.456-.288-8.451-.533-8.392-.553-8.196-.82-8.192-1.089-7.874-1.109-8.192-1.343-7.874-1.636-7.923-1.906-7.611-1.899-7.654-2.188-7.614-2.175-7.611-2.74-7.395-2.731-7.343-2.72-7.342-3.249-7.352-3.273-7.073-3.273-7.147-3.81-6.76-3.835-6.814-4.059-6.809-4.103-6.824-4.353-6.556-4.631-6.55-4.908-6.491-4.914-6.556-5.183-6.291-5.441-6.233-5.442-6.024-5.735-6.233-5.989-5.759-5.974-5.706-6.291-5.71-6.263-5.442-6.263-5.182-6.253-4.909-6.555-4.914-6.531-4.651-6.55-4.332-6.814-4.382-6.521-4.074-7.083-3.8-6.814-7.083-14.167-3.274-7.083-3.278-7.37-3.014-7.083-2.701-7.635-2.482-7.338-2.428-7.634-2.163-7.636-1.96-7.611-1.9-7.903-1.583-7.923-1.367-7.893-1.383-8.163-.84-8.172-1.059-8.187-.581-8.162-.528-8.451-.264-8.466v-16.877l.264-8.45.528-8.437.581-8.181 1.059-8.163.84-8.162 1.383-7.903 1.367-8.197 1.583-7.631 1.9-7.903 1.96-7.606 2.163-7.923 2.428-7.352 2.481-7.634 2.701-7.342 3.014-7.372 3.278-7.342 3.274-7.083 3.541-7.083 3.541-7.073 3.8-7.118 4.074-6.79 4.382-6.814 4.332-6.55 4.651-6.814 4.914-6.521 4.909-6.555 5.182-6.263 5.442-6.262 5.71-6.263 5.706-6.263 5.759-6.002 6.233-5.989 6.288-5.735 6.238-5.442 6.286-5.441 6.551-5.183 6.501-4.914 6.555-4.889 6.55-4.641 13.629-8.724 6.819-4.074 7.083-3.82 7.073-3.81 7.083-3.542 7.083-3.272 7.342-3.009 7.347-2.995 7.4-2.721 7.606-2.72 7.352-2.188 7.923-2.175 7.601-2.158 7.933-1.671 7.874-1.612 7.923-1.373 7.874-1.338 8.192-1.119 8.455-.81 8.133-.533 8.451-.556 8.456-.264 8.456-.259 8.46.259 8.456.264 8.451.556 8.133.533 8.196.81 8.192 1.119 7.874 1.338 7.923 1.373 7.874 1.612 7.923 1.671 7.611 2.158 7.664 2.175 7.601 2.188 7.347 2.72 7.659 2.721 7.083 2.995 7.347 3.009 7.083 3.272 7.083 3.542 7.083 3.81 6.809 3.82 7.073 4.074 6.565 4.362 6.81 4.362 6.506 4.641 6.55 4.889 6.283 4.914 6.501 5.183 6.281 5.441 6.024 5.442 6.242 5.735 6.022 5.989 5.706 6.002 5.71 5.975 5.701 6.281 5.495 6.263 5.183 6.262 4.861 6.55 4.908 6.536 4.656 6.54 4.333 6.824 4.118 6.785 4.074 6.819 4.069 7.073 3.541 6.824 3.531 7.372 3.283 7.083 3.273 7.347 3.009 7.362 2.701 7.352 2.482 7.634 2.432 7.611 2.168 7.634 1.954 7.636 1.9 7.898 1.637 7.894 1.324 7.903 1.108 8.197 1.109 8.162.792 8.163.84 8.181.533 8.437.268 8.45v8.456l-1.641 35.952 7.083 4.362 7.083 4.094 7.073 4.631 6.824 4.621 6.541 4.914 6.565 4.909 6.55 4.894 6.232 5.461 6.283 5.451 6.242 5.442 5.755 5.735 5.969 5.7 5.715 6.263 5.442 5.994 5.491 6.551 5.441 6.536zm0 0" clip-path="url(#l)" fill="#e8252a"/></svg>