<svg xmlns="http://www.w3.org/2000/svg" xmlns:xlink="http://www.w3.org/1999/xlink" width="1024" height="1024" viewBox="0 0 1024 1024"><defs><path id="m" d="M65.025 64.203H959.29v895.618H65.025z"/></defs><clipPath id="n"><use xlink:href="#m" overflow="visible"/></clipPath><path d="M64.875 511.559c0-246.925 200.131-447.056 447.056-447.056 246.93 0 447.061 200.131 447.061 447.056 0 246.93-200.131 447.061-447.061 447.061-246.925 0-447.056-200.131-447.056-447.061zm0 0" clip-path="url(#n)" fill="#c52a27"/><path d="M575.969 276.358c2.207 11.621 15.032 17.435 23.552 23.552 40.384 8.915 83.578 15.228 126.868 12.527 6.92 2.505 15.433 4.306 18.644 12.527-1.605 26.957-5.412 54.717-31.366 70.448-16.637 8.016-53.416-12.126-53.116 17.239 13.03 32.765 53.116 13.926 76.663 28.058 10.726 7.115-1.101 21.247 4.711 31.366 0 7.418-3.508 14.431-9.419 18.839-6.117 2.505-13.731 2.505-20.346 4.512-8.514 11.426-31.866 11.426-25.151 29.864 1.302 8.92 11.024 16.837 18.839 20.341 10.823 4.012 25.357-1.399 34.473 3.108a117.763 117.763 0 0 1-6.312 64.141c-13.025 8.915-21.545 25.552-40.785 23.547-7.218 4.511-17.44 9.419-20.146 18.844 0 16.832 19.744 12.125 28.258 21.946 12.331 1.801 22.451-6.914 34.479-1.404 17.938 17.039 5.412 44.798 4.706 65.741l-14.132 17.034c-12.722 5.113-26.052 8.519-39.283 12.527v3.108h-18.639c.699-9.019-9.42-5.212-14.132-8.016-11.422 5.613-20.841-2.906-31.366-4.511-54.316 7.819-91.197-26.655-145.513-18.839-19.738-14.631-48.903-10.824-73.555-9.22-24.252 17.239-54.017 21.046-82.981 26.658-16.334 2.707-20.341-17.439-31.366-23.55-.699-16.535-21.247-26.86-12.527-45.499 13.232-15.633 11.926-37.38 25.054-53.111-.699-17.239 3.308-36.382-9.218-48.605 3.606-23.052 5.108-46.902 11.025-69.049 7.213-8.015 15.933-24.153 29.761-15.633 15.433 24.652 63.035-4.908 63.941 31.366.499 28.263-2.907 59.028-29.766 71.955-13.931 23.15-50.405-8.117-54.717 25.054-4.511 14.631 12.727 21.745 20.341 29.766 15.737-5.613 32.972-8.021 45.499-21.952 18.139-.899 24.451-20.341 42.189-21.946 13.731 5.812 30.667 7.418 39.186 21.946 8.117 2.007 9.924 9.023 17.238 12.527 19.74 15.737 44.793-9.919 61.029 14.133a72.032 72.032 0 0 0 31.366 0c8.119-4.908 15.032-13.027 12.527-23.552 1.404-6.009-1.8-10.119-6.312-13.726-6.312-4.312-12.527 1.101-18.839 1.399-24.451 2.006-42.19-12.727-65.643-14.126-16.534-10.526-36.274-20.646-39.181-42.19-7.819-6.518-4.012-17.738-9.419-25.054-1.404-9.425 7.614-15.635 14.126-20.444 19.344-5.613 33.671 10.72 50.01 3.302 10.521-7.614 27.158-2.901 32.971-18.839 6.009-9.018 2.707-21.946-3.107-29.761a14.45 14.45 0 0 0-15.737 0c-11.22 11.926-30.265 9.821-45.297 7.815-8.112-3.607-17.738-6.312-21.946-15.635 2.408-14.63 0-30.965 14.132-40.785 1.404-10.727-8.117-18.14-15.634-23.552-20.342 7.619-32.972-34.576-48.703-6.112-1.302 20.341 9.018 37.478 3.107 58.024-18.341 11.22-38.584-1.106-57.824-1.605-19.945-9.218-43.995-22.846-53.318-45.297 4.214-16.637-8.112-32.467-1.6-50.005-9.419-21.75 9.919-35.678 10.824-54.722 10.72-9.619 22.245-21.344 37.678-14.327 9.218 8.72 22.25 7.814 29.766 20.341 15.731 3.308 30.465 13.433 47.097 9.42 13.032-5.212 17.538-21.546 32.77-21.947 23.053 0 53.616 9.42 68.849-14.126 8.016-3.611 18.639-7.418 21.947-15.737h32.77v-.098zm0 0" fill="#fff"/></svg>