<svg xmlns="http://www.w3.org/2000/svg" xmlns:xlink="http://www.w3.org/1999/xlink" width="1024" height="1024" viewBox="0 0 1024 1024"><defs><path id="E" d="M64.983 64.323h894.269v895.518H64.983z"/></defs><clipPath id="F"><use xlink:href="#E" overflow="visible"/></clipPath><path d="M109.507 65.323h615.298C666.742 95.503 544.819 168.156 484.76 271.79c-159.398-2-208.263 2.797-208.263 2.797l-16.693 447.008c60.864-36.875 107.932-88.14 138.314-134.609 36.972-56.468 38.876-110.232 61.859-170.793C544.721 192.14 738.795 83.109 868.11 65.323h45.37c24.584 0 44.673 20.084 44.673 44.673v803.877c0 24.584-20.089 44.668-44.673 44.668H290.386c59.862-31.776 176.287-103.132 234.549-203.569 159.399 2.001 208.263-2.796 208.263-2.796l16.59-447.01c-60.76 36.876-107.83 88.141-138.21 134.615-36.876 56.462-38.876 110.226-61.86 170.885-81.046 214.162-262.032 323.29-390.747 347.976h-49.464c-24.589 0-44.673-20.089-44.673-44.673V109.996c-.001-24.589 20.084-44.673 44.673-44.673zm0 0" clip-path="url(#F)" fill="#005bab"/></svg>