<svg xmlns="http://www.w3.org/2000/svg" xmlns:xlink="http://www.w3.org/1999/xlink" width="1024" height="1024" viewBox="0 0 1024 1024"><defs><path id="G" d="M64.192 63.958h895.45v895.6H64.192z"/></defs><clipPath id="H"><use xlink:href="#G" overflow="visible"/></clipPath><path d="M673.953 643.747c0 16.612-13.51 30.02-30.02 30.02H534.654v285.791h334.829c49.833 0 90.158-40.427 90.158-90.158V534.571H673.953v109.176zM643.83 349.75c16.612 0 30.02 13.51 30.02 30.119v109.174h285.791V154.116c0-49.731-40.427-90.158-90.158-90.158H534.654v285.689H643.83v.103zm-293.997 30.119c0-16.609 13.408-30.119 30.02-30.119h109.176V63.958H154.302c-49.833 0-90.163 40.427-90.163 90.158v334.927h285.793V379.869h-.099zm30.119 294c-16.609 0-30.02-13.413-30.02-30.02V534.571H64.042V869.4c0 49.731 40.427 90.158 90.158 90.158h334.829V673.869H379.952zm0 0" clip-path="url(#H)" fill="#e41f1f"/></svg>