<svg xmlns="http://www.w3.org/2000/svg" width="1024" height="1024" viewBox="0 0 1024 1024"><g fill="#e60012"><path d="M763.21 543.787v198.278H543.729V677.96h149.389v-73.164H543.729V406.717h149.389v-67.186H543.729v-64.129H763.21v198.074H613.821v67.156H763.21v3.155zm-503.228 0v198.278h219.457V677.96H330.045v-73.164h149.394V406.717H330.045v-67.186h149.394v-64.129H259.982v198.074h149.394v67.156H259.982v3.155zm0 0"/><path d="M511.686 64.897c-246.844 0-446.91 200.066-446.91 446.91 0 246.85 200.066 446.91 446.91 446.91 246.85 0 446.91-200.06 446.91-446.91 0-246.843-200.06-446.91-446.91-446.91zm0 805.187c-197.874 0-358.267-160.403-358.267-358.267s160.403-358.325 358.267-358.325 358.267 160.413 358.267 358.325c0 197.917-160.403 358.257-358.267 358.257v.01zm0 0"/></g></svg>