<svg xmlns="http://www.w3.org/2000/svg" width="1024" height="1024" viewBox="0 0 1024 1024"><path d="M511.475 150.861c199.017 0 361.32 162.284 361.32 361.295 0 199.017-162.312 361.291-361.32 361.291-199.002 0-361.285-162.332-361.285-361.3-.001-198.963 162.321-361.286 361.285-361.286zm0-85.365C265.49 65.486 64.833 266.168 64.833 512.147c0 245.983 200.647 446.665 446.631 446.665S958.13 758.14 958.13 512.147c0-245.989-200.623-446.661-446.656-446.661v.01zM313.271 298.483v90.041h40.655v-90.041h-40.655zm181.951 434.845l41.196-.141.093-157.378h23.707v61.318h32.636v-61.23h24.116l-.228 88.018-56.373.141v69.273h89.035l-.38-265.457 72.129.218v-36.583h-72.081l.219-133.062h-39.523v67.248h-81.661v48.831l89.053-.228.253 133.777-80.086.273-120.405-.273.218-133.777 89.055.228v-48.831h-88.407v-67.21h-32.656l.248 133.062h-72.109v36.593l72.149-.218-.41 265.457h89.065v-69.283l-56.373-.136-.234-88.017h24.121v61.229h32.638v-61.323h23.717l.049 157.34-2.721.141h-.05zM313.271 492.459v240.87h40.655v-240.87h-40.655zm362.37-193.976v90.041h48.126v-90.041h-48.126zm0 193.976v240.87h48.126v-240.87h-48.126zM447.257 298.483v41.858h57.045v-41.858h-57.045zm81.657 0v41.858h49.4v-41.858h-49.4zm-91.593 136.211v90.041h37.541v-90.041h-37.541zm60.261 0v90.041h37.532v-90.041h-37.532zm57.094 0v90.041h37.541v-90.041h-37.541zm0 0" fill="#e50012"/></svg>