<svg xmlns="http://www.w3.org/2000/svg" xmlns:xlink="http://www.w3.org/1999/xlink" width="1024" height="1024" viewBox="0 0 1024 1024"><defs><path id="ac" d="M64.877 64.193h894.498v895.799H64.877z"/></defs><clipPath id="ad"><use xlink:href="#ac" overflow="visible"/></clipPath><path d="M958.211 493.352h-161.9l7.175 18.5h155.156v-18.5h-.431zM220.865 692.663h247.627L342.124 386.506 220.865 692.663zm546.647-267.128h182.865l-1.784-8.148-1.741-7.718-.582-2.62H759.252l8.271 18.496-.011-.01zM474.66 692.663h247.656L595.929 386.506 474.66 692.663zm0 0" clip-path="url(#ad)" fill="#a61f23"/><path d="M878.464 686.519L781.868 827.26H253.735L149.944 697.83l228.095-588.75L507.52 417.338l123.326-311.314L748.964 382.4h190.601C884.041 198.666 713.478 64.904 511.664 64.904c-246.824 0-446.937 200.113-446.937 446.947 0 246.84 200.103 446.939 446.937 446.939 193.065 0 357.508-122.404 420.042-293.845h-62.48l9.238 21.574zm0 0" clip-path="url(#ad)" fill="#a61f23"/><path d="M813.75 536.505l8.236 18.52H956.55l2.053-18.52H813.75zm26.697 61.673h109.93l1.119-6.754 1.946-11.711H832.255l8.212 18.465h-.02zm-55.466-129.49H956.55l-.166-1.051-1.001-9.716-.841-7.718h-176.78l7.21 18.485h.009zm65.765 154.105l8.206 17.499h81.205l5.156-17.499h-94.577.01zm0 0" fill="#a61f23"/></svg>