<svg xmlns="http://www.w3.org/2000/svg" xmlns:xlink="http://www.w3.org/1999/xlink" width="1024" height="1024" viewBox="0 0 1024 1024"><defs><path id="i" d="M73.426 65.017h876.975v894.368H73.426z"/></defs><clipPath id="j"><use xlink:href="#i" overflow="visible"/></clipPath><path d="M948.405 808.421l.132-636.795C941.708 43.998 811.238 67.081 811.238 67.081L196.87 69.66C69.158 66.92 74.59 208.288 74.59 208.288l-1.314 613.706C74.59 971.353 214.58 956.417 214.58 956.417l611.599 1.772c144.069-1.353 122.226-149.768 122.226-149.768zM792.198 774.47s-323.471-224.037-558.597 29.902c0 0 249.372-295.749 1.358-581.094 0 0 301.721 262.051 558.597-5.421.01-.059-247.348 289.14-1.358 556.613zm0 0" clip-path="url(#j)" fill="#0081cc"/></svg>