<svg xmlns="http://www.w3.org/2000/svg" xmlns:xlink="http://www.w3.org/1999/xlink" width="1024" height="1024" viewBox="0 0 1024 1024"><defs><path id="I" d="M77.232 64.879H946.61v895.388H77.232z"/></defs><clipPath id="J"><use xlink:href="#I" overflow="visible"/></clipPath><path d="M486.761 895.645c0 12.646 1.751 25.628-.579 37.866-1.756 9.202-6.93 21.995-13.95 24.768-7.027 2.769-20.758-2.126-27.187-8.243-38.669-36.791-76.175-74.799-113.877-112.611a119979.522 119979.522 0 0 1-239.139-240.58c-6.18-6.272-13.056-14.282-14.427-22.364-2.384-14.034 7.036-22.68 20.835-23.59 130.917-8.646 245.519 23.021 327.174 134.274 42.674 58.1 61.306 122.742 61.15 210.48zm49.904-9.231c-2.224-192.15 140.431-336.131 332.395-335.902 14.072 0 28.421-1.723 42.115.559 11.318 1.882 27.574 5.98 31.093 13.785 3.395 7.571-3.869 23.843-11.305 31.716-36.173 38.338-73.922 75.187-111.19 112.49a470621.676 470621.676 0 0 1-231.102 231.115c-3.985 3.99-7.352 9.43-12.164 11.512-8.385 3.615-19.435 9.245-26.102 6.399-6.666-2.851-12.057-14.7-13.152-23.231-2.053-15.904-.588-32.269-.588-48.443zm0 0" clip-path="url(#J)" fill="#e4372d"/><path d="M927.407 496.165l-.341-.331-.618.199.959.132zm-199.629 22.081a164.33 164.33 0 0 0-16.939 7.045c.551-.238 6.497-3.099 16.939-7.045zm0 0" clip-path="url(#J)" fill="#5fb644"/><path d="M941.707 470.594l-.141-.131a15.24 15.24 0 0 0-1.781-1.644l-27.545-25.323c-14.719-13.863-29.628-27.545-43.778-41.953-37.04-37.75-72.468-77.091-109.95-114.384-30.889-30.78-64.823-58.575-95.664-89.469-33.584-33.672-64.585-69.898-97.722-104.027-36.801-37.867-68.892-38.056-107.24-.867-34.669 33.623-68.361 68.264-102.49 102.443A140729.303 140729.303 0 0 0 98.209 453.453l-.059.067-4.628 4.676a35.927 35.927 0 0 0-4.156 5.222l-5.917 6.686a15.415 15.415 0 0 0-1.795 1.994l-.097.107a15.278 15.278 0 0 0-1.261 15.946 15.272 15.272 0 0 0 13.644 8.34l15.357.083c35.696 2.719 71.753 1.552 107.268 5.43 57.331 6.267 111.852 24.602 158.191 58.736 58.138 42.85 106.051 95.824 134.834 166.6l2.579 5.483a72.957 72.957 0 0 1 6.808-19.055c40.976-77.26 67.125-108.621 138.688-156.01 17.21-11.392 34.432-23.468 53.204-32.505a163.059 163.059 0 0 1 16.942-7.045c32.486-12.277 108.383-35.039 198.671-22.213l.618-.199a15.29 15.29 0 0 0 14.588-25.235l.019.033zm0 0" clip-path="url(#J)" fill="#5fb644"/></svg>