<svg xmlns="http://www.w3.org/2000/svg" xmlns:xlink="http://www.w3.org/1999/xlink" width="1024" height="1024" viewBox="0 0 1024 1024"><defs><path id="y" d="M64.151 83.215h896.036V940.24H64.151z"/></defs><clipPath id="z"><use xlink:href="#y" overflow="visible"/></clipPath><path d="M67.01 325.462L312.121 83.264h341.404L907.372 322.55v320.92S822.721 687.249 744 663.851c-78.826-23.295-116.681-55.428-116.681-55.428V322.55H338.327v341.404s140.077-67.077 227.537-32.031c87.563 35.042 180.846 110.856 285.976 84.547 105.031-26.207 107.944-69.99 107.944-69.99v239.286s-102.12 61.15-204.239 52.418c-102.119-8.737-136.062-56.233-212.976-72.902-76.918-16.769-99.212-11.645-145.903 0-46.691 11.649-102.119 40.871-102.119 40.871L64 672.691l3.01-347.229zm0 0" clip-path="url(#z)" fill="#d8353b"/></svg>