<?xml version="1.0" encoding="utf-8"?>
<!-- Generator: Adobe Illustrator 17.0.0, SVG Export Plug-In . SVG Version: 6.00 Build 0)  -->
<!DOCTYPE svg PUBLIC "-//W3C//DTD SVG 1.1//EN" "http://www.w3.org/Graphics/SVG/1.1/DTD/svg11.dtd">
<svg version="1.1" xmlns="http://www.w3.org/2000/svg" xmlns:xlink="http://www.w3.org/1999/xlink" x="0px" y="0px" width="1024px"
	 height="1024px" viewBox="0 0 1024 1024" style="enable-background:new 0 0 1024 1024;" xml:space="preserve">
<g id="图层_1">
</g>
<g id="图层_2" style="display:none;">
	<g style="display:inline;">
		<path d="M512.262,959.683C293.919,959.683,117,871.225,117,762.054c0-70.351,73.741-131.976,184.475-167.019v52.892
			c-80.121,26.576-131.71,67.743-131.71,114.127c0,80.117,153.34,144.999,342.632,144.999s342.627-64.881,342.627-144.999
			c0-46.384-51.72-87.551-131.71-114.127v-52.892c110.734,35.044,184.475,96.668,184.475,167.019
			C907.528,871.095,730.609,959.683,512.262,959.683L512.262,959.683z M526.073,788.239l-13.811,13.284l-13.676-13.153
			c-10.161-9.643-249.871-238.277-249.871-461.189c0-145.909,118.16-263.29,263.547-263.29
			c145.394,0,263.556,118.684,263.556,264.593C775.818,545.528,536.234,778.335,526.073,788.239L526.073,788.239z M512.262,116.003
			c-116.075,0-210.786,99.145-210.786,211.182c0,159.462,162.978,348.494,210.786,395.266
			c47.683-47.683,210.791-240.102,210.791-395.266C723.053,215.144,628.34,116.003,512.262,116.003L512.262,116.003z M380.033,353.5
			c0-72.569,59.276-131.584,132.103-131.584c72.956,0,132.232,59.015,132.232,131.584c0,72.565-59.281,131.709-132.232,131.709
			C439.309,485.21,380.033,426.065,380.033,353.5L380.033,353.5z M591.342,353.5c0-43.385-35.436-78.689-79.08-78.689
			c-43.641,0-79.076,35.304-79.076,78.689c0,43.379,35.435,78.688,79.076,78.688C555.906,432.188,591.342,396.884,591.342,353.5
			L591.342,353.5z M591.342,353.5"/>
	</g>
</g>
<g id="图层_3">
	<g>
		<path d="M64.003,287.939l448.172,448.172l448.172-448.172H64.003z M64.003,287.939"/>
	</g>
</g>
<g id="图层_4" style="display:none;">
	<g style="display:inline;">
		<path d="M735.992,63.859l-447.93,447.93l447.93,447.93V63.859z M735.992,63.859"/>
	</g>
</g>
</svg>
