<?xml version="1.0" encoding="utf-8"?>
<!-- Generator: Adobe Illustrator 17.0.0, SVG Export Plug-In . SVG Version: 6.00 Build 0)  -->
<!DOCTYPE svg PUBLIC "-//W3C//DTD SVG 1.1//EN" "http://www.w3.org/Graphics/SVG/1.1/DTD/svg11.dtd">
<svg version="1.1" xmlns="http://www.w3.org/2000/svg" xmlns:xlink="http://www.w3.org/1999/xlink" x="0px" y="0px" width="1024px"
	 height="1024px" viewBox="0 0 1024 1024" style="enable-background:new 0 0 1024 1024;" xml:space="preserve">
<g id="图层_1">
</g>
<g id="图层_2" style="display:none;">
	<g id="图层_3" style="display:inline;">
		<g>
			<path d="M319.998,416.074l192.239,192.239l192.239-192.239H319.998L319.998,416.074z"/>
		</g>
	</g>
</g>
<g id="图层_3_1_" style="display:none;">
	<g id="图层_6" style="display:inline;">
		<g>
			<path d="M320.212,607.125l191.962-191.962l191.962,191.962H320.212z"/>
		</g>
	</g>
</g>
<g id="图层_4" style="display:none;">
	<g id="图层_4_1_" style="display:inline;">
		<g>
			<path d="M608.498,319.772L416.442,511.828l192.055,192.055V319.772z"/>
		</g>
	</g>
</g>
<g id="图层_5" style="display:none;">
	<g id="图层_5_1_" style="display:inline;">
		<g>
			<path d="M415.886,319.71l192.17,192.17l-192.17,192.17V319.71z"/>
		</g>
	</g>
</g>
<g id="图层_6_1_" style="display:none;">
	<g id="图层_7" style="display:inline;">
		<g>
			<g>
				<g>
					<defs>
						<rect id="SVGID_1_" x="320.062" y="410.094" width="384.075" height="204.77"/>
					</defs>
					<clipPath id="SVGID_2_">
						<use xlink:href="#SVGID_1_"  style="overflow:visible;"/>
					</clipPath>
					<path style="clip-path:url(#SVGID_2_);" d="M323.576,413.861c-2.339,2.338-3.513,5.408-3.513,8.478
						c0,3.067,1.175,6.137,3.513,8.475l179.832,179.831c4.688,4.688,12.262,4.688,16.951,0l179.833-179.831
						c4.688-4.687,4.688-12.265,0-16.953c-4.688-4.687-12.265-4.687-16.953,0L511.883,585.216L340.528,413.861
						C335.84,409.173,328.251,409.173,323.576,413.861L323.576,413.861z"/>
				</g>
			</g>
		</g>
	</g>
</g>
<g id="图层_7_1_">
	<g id="图层_10">
		<g>
			<g>
				<g>
					<defs>
						<rect id="SVGID_3_" x="320.125" y="409.015" width="384.012" height="204.736"/>
					</defs>
					<clipPath id="SVGID_4_">
						<use xlink:href="#SVGID_3_"  style="overflow:visible;"/>
					</clipPath>
					<path style="clip-path:url(#SVGID_4_);" d="M700.194,609.532c2.338-2.338,3.513-5.404,3.513-8.474
						c0-3.07-1.174-6.139-3.513-8.474L520.391,412.781c-4.687-4.687-12.26-4.687-16.947,0L323.641,592.585
						c-4.687,4.687-4.687,12.26,0,16.947c4.687,4.687,12.263,4.687,16.95,0l171.327-171.327l171.327,171.327
						C687.931,614.219,695.52,614.219,700.194,609.532L700.194,609.532z"/>
				</g>
			</g>
		</g>
	</g>
</g>
</svg>
