<?xml version="1.0" encoding="utf-8"?>
<!-- Generator: Adobe Illustrator 17.0.0, SVG Export Plug-In . SVG Version: 6.00 Build 0)  -->
<!DOCTYPE svg PUBLIC "-//W3C//DTD SVG 1.1//EN" "http://www.w3.org/Graphics/SVG/1.1/DTD/svg11.dtd">
<svg version="1.1" xmlns="http://www.w3.org/2000/svg" xmlns:xlink="http://www.w3.org/1999/xlink" x="0px" y="0px" width="1024px"
	 height="1024px" viewBox="0 0 1024 1024" style="enable-background:new 0 0 1024 1024;" xml:space="preserve">
<g id="图层_1">
</g>
<g id="图层_2" style="display:none;">
	<g style="display:inline;">
		<g>
			<defs>
				<rect id="SVGID_1_" x="63.819" y="180.206" width="896.048" height="663.938"/>
			</defs>
			<clipPath id="SVGID_2_">
				<use xlink:href="#SVGID_1_"  style="overflow:visible;"/>
			</clipPath>
			<path style="clip-path:url(#SVGID_2_);" d="M294.401,287.737H112.606c-26.938,0-48.786,21.683-48.786,48.425v458.726
				c0,26.742,21.829,48.425,48.786,48.425H911.13c26.953,0,48.783-21.683,48.783-48.425V336.163
				c0-26.762-21.829-48.425-48.783-48.425H733.922c-16.357-12.918-37.297-34.887-56.317-71.314
				c-20.085-38.472-76.551-34.847-76.129-35.871l-179.221-0.347c1.235,1.371-45.383-8.927-73.427,35.773
				C329.029,247.55,311.184,272.429,294.401,287.737L294.401,287.737z M504.298,359.423c104.674,0,204.71,88.285,204.71,197.141
				c0,108.876-100.036,197.141-204.71,197.141c-104.69,0-189.574-88.265-189.574-197.141S399.608,359.423,504.298,359.423
				L504.298,359.423z M798.617,368.377c0,14.86-12.035,26.891-26.892,26.891c-14.84,0-26.875-12.031-26.875-26.891
				c0-14.828,12.035-26.875,26.875-26.875C786.582,341.501,798.617,353.533,798.617,368.377L798.617,368.377z M511.867,395.268
				c89.077,0,161.296,72.222,161.296,161.296c0,89.073-72.2,161.295-161.296,161.295c-89.079,0-161.298-72.222-161.298-161.295
				C350.569,467.471,422.788,395.268,511.867,395.268L511.867,395.268z M171.351,251.893v-23.892
				c0-6.595,4.917-11.954,10.985-11.954h49.715c6.07,0,10.986,5.359,10.986,11.954v23.892H171.351z M171.351,251.893"/>
		</g>
	</g>
</g>
<g id="图层_3">
	<g>
		<g>
			<defs>
				<rect id="SVGID_3_" x="64.05" y="175.767" width="896.15" height="672.987"/>
			</defs>
			<clipPath id="SVGID_4_">
				<use xlink:href="#SVGID_3_"  style="overflow:visible;"/>
			</clipPath>
			<path style="clip-path:url(#SVGID_4_);" d="M888.205,287.7H744.323c-74.853-83.951-98.406-111.933-127.087-111.933H410.859
				c-28.682,0-51.767,27.981-127.087,111.933h-31.01v-37.313h-79.289V287.7h-31.476c-41.043,0-78.122,30.783-78.122,71.591v410.412
				c0,40.808,37.079,77.654,78.122,77.654h746.208c41.042,0,71.117-36.846,71.117-77.654V359.29
				C959.323,318.482,929.247,287.7,888.205,287.7L888.205,287.7z M922.017,769.702c0,21.684-14.461,40.34-33.811,40.34H141.997
				c-20.29,0-40.808-20.285-40.808-40.34V359.29c0-19.123,18.884-34.285,40.808-34.285h158.097l11.199-7.458
				c9.325-10.498,17.95-23.319,25.881-32.183c26.353-29.615,45.471-50.601,58.997-62.727c10.96-9.793,14.461-9.558,14.461-9.558
				h206.37c0,0,3.728-0.235,15.621,10.492c14.228,12.827,34.285,38.473,62.033,69.489c6.763,7.698,13.987,15.855,21.685,24.486
				l11.192,7.458h160.672c20.518,0,33.811,13.994,33.811,34.285V769.702z M922.017,769.702"/>
		</g>
		<path d="M511.599,356.489c-109.831,0-199.379,89.546-199.379,199.379c0,109.831,89.548,199.379,199.379,199.379
			c109.832,0,199.379-89.548,199.379-199.379C710.978,446.036,621.432,356.489,511.599,356.489L511.599,356.489z M511.599,717.934
			c-89.541,0-162.066-72.525-162.066-162.066c0-89.548,72.525-162.066,162.066-162.066c89.548,0,162.066,72.518,162.066,162.066
			C673.665,645.409,601.147,717.934,511.599,717.934L511.599,717.934z M511.599,717.934"/>
		<rect x="735.464" y="362.319" width="39.641" height="39.641"/>
		<path d="M436.98,555.868c0,41.212,33.407,74.619,74.619,74.619c41.213,0,74.619-33.407,74.619-74.619
			c0-41.213-33.406-74.619-74.619-74.619C470.387,481.249,436.98,514.655,436.98,555.868L436.98,555.868z M436.98,555.868"/>
	</g>
</g>
</svg>
