<?xml version="1.0" encoding="utf-8"?>
<!-- Generator: Adobe Illustrator 17.0.0, SVG Export Plug-In . SVG Version: 6.00 Build 0)  -->
<!DOCTYPE svg PUBLIC "-//W3C//DTD SVG 1.1//EN" "http://www.w3.org/Graphics/SVG/1.1/DTD/svg11.dtd">
<svg version="1.1" xmlns="http://www.w3.org/2000/svg" xmlns:xlink="http://www.w3.org/1999/xlink" x="0px" y="0px" width="1024px"
	 height="1024px" viewBox="0 0 1024 1024" style="enable-background:new 0 0 1024 1024;" xml:space="preserve">
<g id="图层_1">
</g>
<g id="图层_2">
	<g>
		<g>
			<defs>
				<rect id="SVGID_1_" x="63.819" y="180.206" width="896.048" height="663.938"/>
			</defs>
			<clipPath id="SVGID_2_">
				<use xlink:href="#SVGID_1_"  style="overflow:visible;"/>
			</clipPath>
			<path style="clip-path:url(#SVGID_2_);" d="M294.401,287.737H112.606c-26.938,0-48.786,21.683-48.786,48.425v458.726
				c0,26.742,21.829,48.425,48.786,48.425H911.13c26.953,0,48.783-21.683,48.783-48.425V336.163
				c0-26.762-21.829-48.425-48.783-48.425H733.922c-16.357-12.918-37.297-34.887-56.317-71.314
				c-20.085-38.472-76.551-34.847-76.129-35.871l-179.221-0.347c1.235,1.371-45.383-8.927-73.427,35.773
				C329.029,247.55,311.184,272.429,294.401,287.737L294.401,287.737z M504.298,359.423c104.674,0,204.71,88.285,204.71,197.141
				c0,108.876-100.036,197.141-204.71,197.141c-104.69,0-189.574-88.265-189.574-197.141S399.608,359.423,504.298,359.423
				L504.298,359.423z M798.617,368.377c0,14.86-12.035,26.891-26.892,26.891c-14.84,0-26.875-12.031-26.875-26.891
				c0-14.828,12.035-26.875,26.875-26.875C786.582,341.501,798.617,353.533,798.617,368.377L798.617,368.377z M511.867,395.268
				c89.077,0,161.296,72.222,161.296,161.296c0,89.073-72.2,161.295-161.296,161.295c-89.079,0-161.298-72.222-161.298-161.295
				C350.569,467.471,422.788,395.268,511.867,395.268L511.867,395.268z M171.351,251.893v-23.892
				c0-6.595,4.917-11.954,10.985-11.954h49.715c6.07,0,10.986,5.359,10.986,11.954v23.892H171.351z M171.351,251.893"/>
		</g>
	</g>
</g>
</svg>
