<?xml version="1.0" encoding="utf-8"?>
<!-- Generator: Adobe Illustrator 17.0.0, SVG Export Plug-In . SVG Version: 6.00 Build 0)  -->
<!DOCTYPE svg PUBLIC "-//W3C//DTD SVG 1.1//EN" "http://www.w3.org/Graphics/SVG/1.1/DTD/svg11.dtd">
<svg version="1.1" xmlns="http://www.w3.org/2000/svg" xmlns:xlink="http://www.w3.org/1999/xlink" x="0px" y="0px" width="1024px"
	 height="1024px" viewBox="0 0 1024 1024" style="enable-background:new 0 0 1024 1024;" xml:space="preserve">
<g id="图层_1">
</g>
<g id="图层_2" style="display:none;">
	<g style="display:inline;">
		<path d="M512.262,959.683C293.919,959.683,117,871.225,117,762.054c0-70.351,73.741-131.976,184.475-167.019v52.892
			c-80.121,26.576-131.71,67.743-131.71,114.127c0,80.117,153.34,144.999,342.632,144.999s342.627-64.881,342.627-144.999
			c0-46.384-51.72-87.551-131.71-114.127v-52.892c110.734,35.044,184.475,96.668,184.475,167.019
			C907.528,871.095,730.609,959.683,512.262,959.683L512.262,959.683z M526.073,788.239l-13.811,13.284l-13.676-13.153
			c-10.161-9.643-249.871-238.277-249.871-461.189c0-145.909,118.16-263.29,263.547-263.29
			c145.394,0,263.556,118.684,263.556,264.593C775.818,545.528,536.234,778.335,526.073,788.239L526.073,788.239z M512.262,116.003
			c-116.075,0-210.786,99.145-210.786,211.182c0,159.462,162.978,348.494,210.786,395.266
			c47.683-47.683,210.791-240.102,210.791-395.266C723.053,215.144,628.34,116.003,512.262,116.003L512.262,116.003z M380.033,353.5
			c0-72.569,59.276-131.584,132.103-131.584c72.956,0,132.232,59.015,132.232,131.584c0,72.565-59.281,131.709-132.232,131.709
			C439.309,485.21,380.033,426.065,380.033,353.5L380.033,353.5z M591.342,353.5c0-43.385-35.436-78.689-79.08-78.689
			c-43.641,0-79.076,35.304-79.076,78.689c0,43.379,35.435,78.688,79.076,78.688C555.906,432.188,591.342,396.884,591.342,353.5
			L591.342,353.5z M591.342,353.5"/>
	</g>
</g>
<g id="图层_3" style="display:none;">
	<g style="display:inline;">
		<path d="M64.003,287.939l448.172,448.172l448.172-448.172H64.003z M64.003,287.939"/>
	</g>
</g>
<g id="图层_4" style="display:none;">
	<g style="display:inline;">
		<path d="M735.992,63.859l-447.93,447.93l447.93,447.93V63.859z M735.992,63.859"/>
	</g>
</g>
<g id="图层_5" style="display:none;">
	<g style="display:inline;">
		<path d="M288.247,63.817l447.924,447.924L288.247,959.665V63.817z M288.247,63.817"/>
	</g>
</g>
<g id="图层_6" style="display:none;">
	<g style="display:inline;">
		<path d="M64.212,736.483l447.987-447.987l447.987,447.987H64.212z M64.212,736.483"/>
	</g>
</g>
<g id="图层_7" style="display:none;">
	<g style="display:inline;">
		<g>
			<defs>
				<rect id="SVGID_1_" x="64.212" y="273.174" width="895.974" height="477.689"/>
			</defs>
			<clipPath id="SVGID_2_">
				<use xlink:href="#SVGID_1_"  style="overflow:visible;"/>
			</clipPath>
			<path style="clip-path:url(#SVGID_2_);" d="M72.408,281.961c-5.456,5.454-8.195,12.616-8.195,19.777
				c0,7.154,2.74,14.317,8.195,19.771L491.923,741.02c10.937,10.935,28.606,10.935,39.543,0l419.516-419.511
				c10.937-10.935,10.937-28.613,0-39.548c-10.935-10.935-28.611-10.935-39.548,0l-399.739,399.74l-399.74-399.74
				C101.019,271.026,83.315,271.026,72.408,281.961L72.408,281.961z M72.408,281.961"/>
		</g>
	</g>
</g>
<g id="图层_8" style="display:none;">
	<g style="display:inline;">
		<g>
			<defs>
				<rect id="SVGID_3_" x="275" y="63.89" width="475.109" height="895.837"/>
			</defs>
			<clipPath id="SVGID_4_">
				<use xlink:href="#SVGID_3_"  style="overflow:visible;"/>
			</clipPath>
			<path style="clip-path:url(#SVGID_4_);" d="M741.335,73.069c-5.443-5.443-12.583-8.179-19.731-8.179
				c-7.147,0-14.293,2.736-19.732,8.179L283.186,491.757c-10.915,10.913-10.915,28.549,0,39.463l418.686,418.686
				c10.915,10.915,28.549,10.915,39.463,0c10.915-10.914,10.915-28.555,0-39.468l-398.948-398.95l398.948-398.95
				C752.25,101.625,752.25,83.957,741.335,73.069L741.335,73.069z M741.335,73.069"/>
		</g>
	</g>
</g>
<g id="图层_9" style="display:none;">
	<g style="display:inline;">
		<g>
			<defs>
				<rect id="SVGID_5_" x="274.458" y="63.868" width="475.12" height="895.859"/>
			</defs>
			<clipPath id="SVGID_6_">
				<use xlink:href="#SVGID_5_"  style="overflow:visible;"/>
			</clipPath>
			<path style="clip-path:url(#SVGID_6_);" d="M282.644,949.914c5.443,5.443,12.59,8.179,19.732,8.179
				c7.147,0,14.294-2.736,19.739-8.179l418.689-418.698c10.915-10.914,10.915-28.548,0-39.464L322.115,73.056
				c-10.915-10.915-28.557-10.915-39.471,0c-10.915,10.914-10.915,28.555,0,39.471l398.957,398.957L282.644,910.444
				C271.729,921.357,271.729,939.026,282.644,949.914L282.644,949.914z M282.644,949.914"/>
		</g>
	</g>
</g>
<g id="图层_10" style="display:none;">
	<g style="display:inline;">
		<g>
			<defs>
				<rect id="SVGID_7_" x="64" y="272.89" width="896.355" height="477.892"/>
			</defs>
			<clipPath id="SVGID_8_">
				<use xlink:href="#SVGID_7_"  style="overflow:visible;"/>
			</clipPath>
			<path style="clip-path:url(#SVGID_8_);" d="M951.153,740.935c5.458-5.458,8.199-12.615,8.199-19.779
				c0-7.166-2.741-14.33-8.199-19.779L531.458,281.681c-10.94-10.94-28.617-10.94-39.558,0L72.206,701.377
				c-10.941,10.94-10.941,28.616,0,39.558c10.94,10.94,28.623,10.94,39.565,0l399.908-399.91l399.91,399.91
				C922.528,751.875,940.241,751.875,951.153,740.935L951.153,740.935z M951.153,740.935"/>
		</g>
	</g>
</g>
<g id="图层_11" style="display:none;">
	<g style="display:inline;">
		<path d="M760.622,113.49L312.574,560.84L262,510.188L710.049,62.836L760.622,113.49z M760.622,113.49"/>
		<path d="M312.984,461.03L760.34,909.079l-50.652,50.573L262.332,511.603L312.984,461.03z M312.984,461.03"/>
	</g>
</g>
<g id="图层_12" style="display:none;">
	<g style="display:inline;">
		<path d="M539.394,466.715c-44.756,0-27.969,55.943-83.917,67.134l-16.782,5.597c-27.97,5.591-33.565,5.591-33.565,27.969
			c0,22.379,11.188,27.974,22.379,27.974h67.13v184.617c0,27.969,5.596,44.752,33.57,44.752c27.97,0,33.565-22.379,33.565-44.752
			V500.285C556.177,472.311,544.989,466.715,539.394,466.715L539.394,466.715z M539.394,466.715"/>
		<path d="M321.212,282.098h11.191c16.782,0,27.969-11.187,27.969-27.97V119.864c0-16.788-11.187-27.974-27.969-27.974h-11.191
			c-16.783,0-27.97,11.187-27.97,27.974v139.861C293.242,270.912,304.429,282.098,321.212,282.098L321.212,282.098z
			 M321.212,282.098"/>
		<g>
			<defs>
				<rect id="SVGID_9_" x="64" y="91.89" width="895.851" height="839.163"/>
			</defs>
			<clipPath id="SVGID_10_">
				<use xlink:href="#SVGID_9_"  style="overflow:visible;"/>
			</clipPath>
			<path style="clip-path:url(#SVGID_10_);" d="M679.254,282.098h11.191c16.783,0,27.97-11.187,27.97-27.97V119.864
				c0-16.788-11.187-27.974-27.97-27.974h-11.191c-16.782,0-27.969,11.187-27.969,27.974v139.861
				C651.285,270.912,668.068,282.098,679.254,282.098L679.254,282.098z M679.254,282.098"/>
			<path style="clip-path:url(#SVGID_10_);" d="M835.898,159.024h-72.726v50.349h72.726c33.569,0,61.539,27.973,61.539,61.539
				v55.943h-783.22v-55.943c0-33.566,27.974-61.539,61.539-61.539h72.731v-50.349h-67.134c-67.135,0-117.483,55.944-117.483,117.483
				V813.57c0,61.54,50.348,117.483,117.483,117.483h660.142c61.539,0,117.482-50.348,117.482-117.483V276.507
				C953.38,214.968,903.032,159.024,835.898,159.024L835.898,159.024z M835.898,875.11H181.352c-33.565,0-61.54-27.974-61.54-61.54
				V382.798h783.22V813.57C903.032,847.136,875.058,875.11,835.898,875.11L835.898,875.11z M835.898,875.11"/>
		</g>
		<rect x="399.533" y="159.024" width="223.778" height="50.348"/>
	</g>
</g>
<g id="图层_13" style="display:none;">
	<g style="display:inline;">
		<g>
			<defs>
				<rect id="SVGID_11_" x="279.511" y="63.392" width="464.899" height="896.166"/>
			</defs>
			<clipPath id="SVGID_12_">
				<use xlink:href="#SVGID_11_"  style="overflow:visible;"/>
			</clipPath>
			<path style="clip-path:url(#SVGID_12_);" d="M279.511,63.959c22.363,326.495,228.098,639.571,465.143,894.506V399.398
				C565.754,318.895,391.322,211.553,279.511,63.959L279.511,63.959z M279.511,63.959"/>
		</g>
	</g>
</g>
<g id="图层_14" style="display:none;">
	<g style="display:inline;">
		<g>
			<defs>
				<rect id="SVGID_13_" x="279" y="62.89" width="465.159" height="896.668"/>
			</defs>
			<clipPath id="SVGID_14_">
				<use xlink:href="#SVGID_13_"  style="overflow:visible;"/>
			</clipPath>
			<path style="clip-path:url(#SVGID_14_);" d="M279,399.085v559.38C516.179,703.387,722.029,390.136,744.404,63.458
				C632.53,211.134,458.001,318.536,279,399.085L279,399.085z M279,399.085"/>
		</g>
	</g>
</g>
<g id="图层_15" style="display:none;">
	<g style="display:inline;">
		<g>
			<defs>
				<rect id="SVGID_15_" x="63" y="194.89" width="897.355" height="633.674"/>
			</defs>
			<clipPath id="SVGID_16_">
				<use xlink:href="#SVGID_15_"  style="overflow:visible;"/>
			</clipPath>
			<path style="clip-path:url(#SVGID_16_);" d="M948.261,205.224c-14.992-14.064-38.641-13.392-52.707,1.639L398.089,736.522
				L126.341,468.764c-14.697-14.474-38.306-14.326-52.781,0.37c-14.474,14.663-14.287,38.312,0.41,52.746l298.978,294.544
				c0.114,0.108,0.262,0.149,0.376,0.256c0.108,0.114,0.147,0.262,0.262,0.376c2.344,2.237,5.184,3.506,7.905,4.996
				c1.343,0.785,2.499,1.941,3.917,2.499c4.399,1.719,9.066,2.613,13.688,2.613c4.89,0,9.773-0.968,14.326-2.908
				c1.531-0.637,2.722-1.941,4.138-2.76c2.801-1.645,5.709-3.023,8.094-5.448c0.114-0.114,0.153-0.296,0.262-0.409
				c0.073-0.114,0.227-0.149,0.335-0.262l523.614-557.446C964.044,242.972,963.259,219.362,948.261,205.224L948.261,205.224z
				 M948.261,205.224"/>
		</g>
	</g>
</g>
<g id="图层_16" style="display:none;">
	<g style="display:inline;">
		<g>
			<defs>
				<rect id="SVGID_17_" x="64.006" y="63.397" width="893.021" height="894.289"/>
			</defs>
			<clipPath id="SVGID_18_">
				<use xlink:href="#SVGID_17_"  style="overflow:visible;"/>
			</clipPath>
			<path style="clip-path:url(#SVGID_18_);" d="M862.577,64.242H157.152c-51.444,0-93.304,41.86-93.304,93.304v705.565
				c0,51.445,41.86,93.304,93.304,93.304h705.565c51.445,0,93.304-41.859,93.304-93.304V157.547
				C956.021,106.103,914.022,64.242,862.577,64.242L862.577,64.242z M458.348,787.846L188.303,513.289l69.06-55.534l156.168,122.338
				c63.704-75.967,205.779-227.338,401.55-347.282l16.63,38.195C651.864,436.337,504.718,668.894,458.348,787.846L458.348,787.846z
				 M458.348,787.846"/>
		</g>
	</g>
</g>
<g id="图层_17" style="display:none;">
	<g style="display:inline;">
		<g>
			<defs>
				<rect id="SVGID_19_" x="63.006" y="63.897" width="894.391" height="895.661"/>
			</defs>
			<clipPath id="SVGID_20_">
				<use xlink:href="#SVGID_19_"  style="overflow:visible;"/>
			</clipPath>
			<path style="clip-path:url(#SVGID_20_);" d="M862.802,64.744H156.295c-51.523,0-93.448,41.925-93.448,93.448v706.647
				c0,51.524,41.925,93.448,93.448,93.448h706.647c51.524,0,93.448-41.923,93.448-93.448V158.191
				C956.39,106.668,914.327,64.744,862.802,64.744L862.802,64.744z M894.704,864.839c0,17.503-14.258,31.9-31.901,31.9H156.295
				c-17.503,0-31.9-14.251-31.9-31.9V158.191c0-17.503,14.257-31.9,31.9-31.9h706.647c17.503,0,31.9,14.257,31.9,31.9
				L894.704,864.839z M894.704,864.839"/>
		</g>
	</g>
</g>
<g id="图层_18" style="display:none;">
	<g style="display:inline;">
		<g>
			<defs>
				<rect id="SVGID_21_" x="63.503" y="63.393" width="895.204" height="896.165"/>
			</defs>
			<clipPath id="SVGID_22_">
				<use xlink:href="#SVGID_21_"  style="overflow:visible;"/>
			</clipPath>
			<path style="clip-path:url(#SVGID_22_);" d="M901.966,259.633v-55.901c0-46.317-37.544-83.861-83.857-83.861l-55.905-0.004
				V63.961h55.905c77.19,0,139.766,62.577,139.766,139.771v55.901H901.966z M901.97,511.219
				c0,148.221-82.436,277.162-203.935,343.578l92.119,103.669h-83.861l-75.053-75.052c-38.016,12.318-78.494,19.151-120.618,19.151
				c-42.121,0-82.603-6.838-120.62-19.151l-75.053,75.052h-83.86l92.122-103.669C201.713,788.381,119.277,659.44,119.277,511.219
				c0-216.137,175.211-391.348,391.345-391.348C726.754,119.871,901.97,295.082,901.97,511.219L901.97,511.219z M510.622,175.781
				c-185.256,0-335.435,150.174-335.435,335.438c0,185.257,150.179,335.435,335.435,335.435
				c185.26,0,335.438-150.178,335.438-335.435C846.06,325.954,695.882,175.781,510.622,175.781L510.622,175.781z M706.294,539.166
				H510.622c-15.437,0-27.951-12.515-27.951-27.954V287.588c0-15.441,12.515-27.955,27.951-27.955
				c15.44,0,27.954,12.515,27.954,27.955V483.26h167.722c15.437,0,27.95,12.519,27.95,27.951
				C734.248,526.651,721.735,539.166,706.294,539.166L706.294,539.166z M203.138,119.871c-46.313,0-83.861,37.544-83.861,83.861
				v55.901H63.372v-55.901c0-77.194,62.577-139.771,139.766-139.771h55.906v55.906L203.138,119.871z M203.138,119.871"/>
		</g>
	</g>
</g>
<g id="图层_19">
	<g>
		<g>
			<defs>
				<rect id="SVGID_23_" x="64.014" y="63.904" width="893.771" height="895.654"/>
			</defs>
			<clipPath id="SVGID_24_">
				<use xlink:href="#SVGID_23_"  style="overflow:visible;"/>
			</clipPath>
			<path style="clip-path:url(#SVGID_24_);" d="M577.244,511.309l365.608-365.608c18.475-18.446,18.475-48.42,0-66.898
				c-18.485-18.448-48.422-18.448-66.899,0L510.346,444.41L144.731,78.804c-18.438-18.448-48.413-18.448-66.86,0
				c-18.475,18.477-18.475,48.452,0,66.898l365.616,365.608L77.871,876.915c-18.475,18.485-18.475,48.422,0,66.898
				c18.485,18.485,48.422,18.485,66.86,0l365.616-365.606l365.606,365.606c18.477,18.485,48.415,18.485,66.899,0
				c18.475-18.475,18.475-48.413,0-66.898L577.244,511.309z M577.244,511.309"/>
		</g>
	</g>
</g>
</svg>
