<?xml version="1.0" encoding="utf-8"?>
<!-- Generator: Adobe Illustrator 17.0.0, SVG Export Plug-In . SVG Version: 6.00 Build 0)  -->
<!DOCTYPE svg PUBLIC "-//W3C//DTD SVG 1.1//EN" "http://www.w3.org/Graphics/SVG/1.1/DTD/svg11.dtd">
<svg version="1.1" xmlns="http://www.w3.org/2000/svg" xmlns:xlink="http://www.w3.org/1999/xlink" x="0px" y="0px" width="1024px"
	 height="1024px" viewBox="0 0 1024 1024" style="enable-background:new 0 0 1024 1024;" xml:space="preserve">
<g id="图层_1">
</g>
<g id="图层_2" style="display:none;">
	<g style="display:inline;">
		<path d="M512.262,959.683C293.919,959.683,117,871.225,117,762.054c0-70.351,73.741-131.976,184.475-167.019v52.892
			c-80.121,26.576-131.71,67.743-131.71,114.127c0,80.117,153.34,144.999,342.632,144.999s342.627-64.881,342.627-144.999
			c0-46.384-51.72-87.551-131.71-114.127v-52.892c110.734,35.044,184.475,96.668,184.475,167.019
			C907.528,871.095,730.609,959.683,512.262,959.683L512.262,959.683z M526.073,788.239l-13.811,13.284l-13.676-13.153
			c-10.161-9.643-249.871-238.277-249.871-461.189c0-145.909,118.16-263.29,263.547-263.29
			c145.394,0,263.556,118.684,263.556,264.593C775.818,545.528,536.234,778.335,526.073,788.239L526.073,788.239z M512.262,116.003
			c-116.075,0-210.786,99.145-210.786,211.182c0,159.462,162.978,348.494,210.786,395.266
			c47.683-47.683,210.791-240.102,210.791-395.266C723.053,215.144,628.34,116.003,512.262,116.003L512.262,116.003z M380.033,353.5
			c0-72.569,59.276-131.584,132.103-131.584c72.956,0,132.232,59.015,132.232,131.584c0,72.565-59.281,131.709-132.232,131.709
			C439.309,485.21,380.033,426.065,380.033,353.5L380.033,353.5z M591.342,353.5c0-43.385-35.436-78.689-79.08-78.689
			c-43.641,0-79.076,35.304-79.076,78.689c0,43.379,35.435,78.688,79.076,78.688C555.906,432.188,591.342,396.884,591.342,353.5
			L591.342,353.5z M591.342,353.5"/>
	</g>
</g>
<g id="图层_3" style="display:none;">
	<g style="display:inline;">
		<path d="M64.003,287.939l448.172,448.172l448.172-448.172H64.003z M64.003,287.939"/>
	</g>
</g>
<g id="图层_4" style="display:none;">
	<g style="display:inline;">
		<path d="M735.992,63.859l-447.93,447.93l447.93,447.93V63.859z M735.992,63.859"/>
	</g>
</g>
<g id="图层_5" style="display:none;">
	<g style="display:inline;">
		<path d="M288.247,63.817l447.924,447.924L288.247,959.665V63.817z M288.247,63.817"/>
	</g>
</g>
<g id="图层_6" style="display:none;">
	<g style="display:inline;">
		<path d="M64.212,736.483l447.987-447.987l447.987,447.987H64.212z M64.212,736.483"/>
	</g>
</g>
<g id="图层_7" style="display:none;">
	<g style="display:inline;">
		<g>
			<defs>
				<rect id="SVGID_1_" x="64.212" y="273.174" width="895.974" height="477.689"/>
			</defs>
			<clipPath id="SVGID_2_">
				<use xlink:href="#SVGID_1_"  style="overflow:visible;"/>
			</clipPath>
			<path style="clip-path:url(#SVGID_2_);" d="M72.408,281.961c-5.456,5.454-8.195,12.616-8.195,19.777
				c0,7.154,2.74,14.317,8.195,19.771L491.923,741.02c10.937,10.935,28.606,10.935,39.543,0l419.516-419.511
				c10.937-10.935,10.937-28.613,0-39.548c-10.935-10.935-28.611-10.935-39.548,0l-399.739,399.74l-399.74-399.74
				C101.019,271.026,83.315,271.026,72.408,281.961L72.408,281.961z M72.408,281.961"/>
		</g>
	</g>
</g>
<g id="图层_8" style="display:none;">
	<g style="display:inline;">
		<g>
			<defs>
				<rect id="SVGID_3_" x="275" y="63.89" width="475.109" height="895.837"/>
			</defs>
			<clipPath id="SVGID_4_">
				<use xlink:href="#SVGID_3_"  style="overflow:visible;"/>
			</clipPath>
			<path style="clip-path:url(#SVGID_4_);" d="M741.335,73.069c-5.443-5.443-12.583-8.179-19.731-8.179
				c-7.147,0-14.293,2.736-19.732,8.179L283.186,491.757c-10.915,10.913-10.915,28.549,0,39.463l418.686,418.686
				c10.915,10.915,28.549,10.915,39.463,0c10.915-10.914,10.915-28.555,0-39.468l-398.948-398.95l398.948-398.95
				C752.25,101.625,752.25,83.957,741.335,73.069L741.335,73.069z M741.335,73.069"/>
		</g>
	</g>
</g>
<g id="图层_9" style="display:none;">
	<g style="display:inline;">
		<g>
			<defs>
				<rect id="SVGID_5_" x="274.458" y="63.868" width="475.12" height="895.859"/>
			</defs>
			<clipPath id="SVGID_6_">
				<use xlink:href="#SVGID_5_"  style="overflow:visible;"/>
			</clipPath>
			<path style="clip-path:url(#SVGID_6_);" d="M282.644,949.914c5.443,5.443,12.59,8.179,19.732,8.179
				c7.147,0,14.294-2.736,19.739-8.179l418.689-418.698c10.915-10.914,10.915-28.548,0-39.464L322.115,73.056
				c-10.915-10.915-28.557-10.915-39.471,0c-10.915,10.914-10.915,28.555,0,39.471l398.957,398.957L282.644,910.444
				C271.729,921.357,271.729,939.026,282.644,949.914L282.644,949.914z M282.644,949.914"/>
		</g>
	</g>
</g>
<g id="图层_10" style="display:none;">
	<g style="display:inline;">
		<g>
			<defs>
				<rect id="SVGID_7_" x="64" y="272.89" width="896.355" height="477.892"/>
			</defs>
			<clipPath id="SVGID_8_">
				<use xlink:href="#SVGID_7_"  style="overflow:visible;"/>
			</clipPath>
			<path style="clip-path:url(#SVGID_8_);" d="M951.153,740.935c5.458-5.458,8.199-12.615,8.199-19.779
				c0-7.166-2.741-14.33-8.199-19.779L531.458,281.681c-10.94-10.94-28.617-10.94-39.558,0L72.206,701.377
				c-10.941,10.94-10.941,28.616,0,39.558c10.94,10.94,28.623,10.94,39.565,0l399.908-399.91l399.91,399.91
				C922.528,751.875,940.241,751.875,951.153,740.935L951.153,740.935z M951.153,740.935"/>
		</g>
	</g>
</g>
<g id="图层_11" style="display:none;">
	<g style="display:inline;">
		<path d="M760.622,113.49L312.574,560.84L262,510.188L710.049,62.836L760.622,113.49z M760.622,113.49"/>
		<path d="M312.984,461.03L760.34,909.079l-50.652,50.573L262.332,511.603L312.984,461.03z M312.984,461.03"/>
	</g>
</g>
<g id="图层_12" style="display:none;">
	<g style="display:inline;">
		<path d="M539.394,466.715c-44.756,0-27.969,55.943-83.917,67.134l-16.782,5.597c-27.97,5.591-33.565,5.591-33.565,27.969
			c0,22.379,11.188,27.974,22.379,27.974h67.13v184.617c0,27.969,5.596,44.752,33.57,44.752c27.97,0,33.565-22.379,33.565-44.752
			V500.285C556.177,472.311,544.989,466.715,539.394,466.715L539.394,466.715z M539.394,466.715"/>
		<path d="M321.212,282.098h11.191c16.782,0,27.969-11.187,27.969-27.97V119.864c0-16.788-11.187-27.974-27.969-27.974h-11.191
			c-16.783,0-27.97,11.187-27.97,27.974v139.861C293.242,270.912,304.429,282.098,321.212,282.098L321.212,282.098z
			 M321.212,282.098"/>
		<g>
			<defs>
				<rect id="SVGID_9_" x="64" y="91.89" width="895.851" height="839.163"/>
			</defs>
			<clipPath id="SVGID_10_">
				<use xlink:href="#SVGID_9_"  style="overflow:visible;"/>
			</clipPath>
			<path style="clip-path:url(#SVGID_10_);" d="M679.254,282.098h11.191c16.783,0,27.97-11.187,27.97-27.97V119.864
				c0-16.788-11.187-27.974-27.97-27.974h-11.191c-16.782,0-27.969,11.187-27.969,27.974v139.861
				C651.285,270.912,668.068,282.098,679.254,282.098L679.254,282.098z M679.254,282.098"/>
			<path style="clip-path:url(#SVGID_10_);" d="M835.898,159.024h-72.726v50.349h72.726c33.569,0,61.539,27.973,61.539,61.539
				v55.943h-783.22v-55.943c0-33.566,27.974-61.539,61.539-61.539h72.731v-50.349h-67.134c-67.135,0-117.483,55.944-117.483,117.483
				V813.57c0,61.54,50.348,117.483,117.483,117.483h660.142c61.539,0,117.482-50.348,117.482-117.483V276.507
				C953.38,214.968,903.032,159.024,835.898,159.024L835.898,159.024z M835.898,875.11H181.352c-33.565,0-61.54-27.974-61.54-61.54
				V382.798h783.22V813.57C903.032,847.136,875.058,875.11,835.898,875.11L835.898,875.11z M835.898,875.11"/>
		</g>
		<rect x="399.533" y="159.024" width="223.778" height="50.348"/>
	</g>
</g>
<g id="图层_13" style="display:none;">
	<g style="display:inline;">
		<g>
			<defs>
				<rect id="SVGID_11_" x="279.511" y="63.392" width="464.899" height="896.166"/>
			</defs>
			<clipPath id="SVGID_12_">
				<use xlink:href="#SVGID_11_"  style="overflow:visible;"/>
			</clipPath>
			<path style="clip-path:url(#SVGID_12_);" d="M279.511,63.959c22.363,326.495,228.098,639.571,465.143,894.506V399.398
				C565.754,318.895,391.322,211.553,279.511,63.959L279.511,63.959z M279.511,63.959"/>
		</g>
	</g>
</g>
<g id="图层_14" style="display:none;">
	<g style="display:inline;">
		<g>
			<defs>
				<rect id="SVGID_13_" x="279" y="62.89" width="465.159" height="896.668"/>
			</defs>
			<clipPath id="SVGID_14_">
				<use xlink:href="#SVGID_13_"  style="overflow:visible;"/>
			</clipPath>
			<path style="clip-path:url(#SVGID_14_);" d="M279,399.085v559.38C516.179,703.387,722.029,390.136,744.404,63.458
				C632.53,211.134,458.001,318.536,279,399.085L279,399.085z M279,399.085"/>
		</g>
	</g>
</g>
<g id="图层_15" style="display:none;">
	<g style="display:inline;">
		<g>
			<defs>
				<rect id="SVGID_15_" x="63" y="194.89" width="897.355" height="633.674"/>
			</defs>
			<clipPath id="SVGID_16_">
				<use xlink:href="#SVGID_15_"  style="overflow:visible;"/>
			</clipPath>
			<path style="clip-path:url(#SVGID_16_);" d="M948.261,205.224c-14.992-14.064-38.641-13.392-52.707,1.639L398.089,736.522
				L126.341,468.764c-14.697-14.474-38.306-14.326-52.781,0.37c-14.474,14.663-14.287,38.312,0.41,52.746l298.978,294.544
				c0.114,0.108,0.262,0.149,0.376,0.256c0.108,0.114,0.147,0.262,0.262,0.376c2.344,2.237,5.184,3.506,7.905,4.996
				c1.343,0.785,2.499,1.941,3.917,2.499c4.399,1.719,9.066,2.613,13.688,2.613c4.89,0,9.773-0.968,14.326-2.908
				c1.531-0.637,2.722-1.941,4.138-2.76c2.801-1.645,5.709-3.023,8.094-5.448c0.114-0.114,0.153-0.296,0.262-0.409
				c0.073-0.114,0.227-0.149,0.335-0.262l523.614-557.446C964.044,242.972,963.259,219.362,948.261,205.224L948.261,205.224z
				 M948.261,205.224"/>
		</g>
	</g>
</g>
<g id="图层_16" style="display:none;">
	<g style="display:inline;">
		<g>
			<defs>
				<rect id="SVGID_17_" x="64.006" y="63.397" width="893.021" height="894.289"/>
			</defs>
			<clipPath id="SVGID_18_">
				<use xlink:href="#SVGID_17_"  style="overflow:visible;"/>
			</clipPath>
			<path style="clip-path:url(#SVGID_18_);" d="M862.577,64.242H157.152c-51.444,0-93.304,41.86-93.304,93.304v705.565
				c0,51.445,41.86,93.304,93.304,93.304h705.565c51.445,0,93.304-41.859,93.304-93.304V157.547
				C956.021,106.103,914.022,64.242,862.577,64.242L862.577,64.242z M458.348,787.846L188.303,513.289l69.06-55.534l156.168,122.338
				c63.704-75.967,205.779-227.338,401.55-347.282l16.63,38.195C651.864,436.337,504.718,668.894,458.348,787.846L458.348,787.846z
				 M458.348,787.846"/>
		</g>
	</g>
</g>
<g id="图层_17" style="display:none;">
	<g style="display:inline;">
		<g>
			<defs>
				<rect id="SVGID_19_" x="63.006" y="63.897" width="894.391" height="895.661"/>
			</defs>
			<clipPath id="SVGID_20_">
				<use xlink:href="#SVGID_19_"  style="overflow:visible;"/>
			</clipPath>
			<path style="clip-path:url(#SVGID_20_);" d="M862.802,64.744H156.295c-51.523,0-93.448,41.925-93.448,93.448v706.647
				c0,51.524,41.925,93.448,93.448,93.448h706.647c51.524,0,93.448-41.923,93.448-93.448V158.191
				C956.39,106.668,914.327,64.744,862.802,64.744L862.802,64.744z M894.704,864.839c0,17.503-14.258,31.9-31.901,31.9H156.295
				c-17.503,0-31.9-14.251-31.9-31.9V158.191c0-17.503,14.257-31.9,31.9-31.9h706.647c17.503,0,31.9,14.257,31.9,31.9
				L894.704,864.839z M894.704,864.839"/>
		</g>
	</g>
</g>
<g id="图层_18" style="display:none;">
	<g style="display:inline;">
		<g>
			<defs>
				<rect id="SVGID_21_" x="63.503" y="63.393" width="895.204" height="896.165"/>
			</defs>
			<clipPath id="SVGID_22_">
				<use xlink:href="#SVGID_21_"  style="overflow:visible;"/>
			</clipPath>
			<path style="clip-path:url(#SVGID_22_);" d="M901.966,259.633v-55.901c0-46.317-37.544-83.861-83.857-83.861l-55.905-0.004
				V63.961h55.905c77.19,0,139.766,62.577,139.766,139.771v55.901H901.966z M901.97,511.219
				c0,148.221-82.436,277.162-203.935,343.578l92.119,103.669h-83.861l-75.053-75.052c-38.016,12.318-78.494,19.151-120.618,19.151
				c-42.121,0-82.603-6.838-120.62-19.151l-75.053,75.052h-83.86l92.122-103.669C201.713,788.381,119.277,659.44,119.277,511.219
				c0-216.137,175.211-391.348,391.345-391.348C726.754,119.871,901.97,295.082,901.97,511.219L901.97,511.219z M510.622,175.781
				c-185.256,0-335.435,150.174-335.435,335.438c0,185.257,150.179,335.435,335.435,335.435
				c185.26,0,335.438-150.178,335.438-335.435C846.06,325.954,695.882,175.781,510.622,175.781L510.622,175.781z M706.294,539.166
				H510.622c-15.437,0-27.951-12.515-27.951-27.954V287.588c0-15.441,12.515-27.955,27.951-27.955
				c15.44,0,27.954,12.515,27.954,27.955V483.26h167.722c15.437,0,27.95,12.519,27.95,27.951
				C734.248,526.651,721.735,539.166,706.294,539.166L706.294,539.166z M203.138,119.871c-46.313,0-83.861,37.544-83.861,83.861
				v55.901H63.372v-55.901c0-77.194,62.577-139.771,139.766-139.771h55.906v55.906L203.138,119.871z M203.138,119.871"/>
		</g>
	</g>
</g>
<g id="图层_19" style="display:none;">
	<g style="display:inline;">
		<g>
			<defs>
				<rect id="SVGID_23_" x="64.014" y="63.904" width="893.771" height="895.654"/>
			</defs>
			<clipPath id="SVGID_24_">
				<use xlink:href="#SVGID_23_"  style="overflow:visible;"/>
			</clipPath>
			<path style="clip-path:url(#SVGID_24_);" d="M577.244,511.309l365.608-365.608c18.475-18.446,18.475-48.42,0-66.898
				c-18.485-18.448-48.422-18.448-66.899,0L510.346,444.41L144.731,78.804c-18.438-18.448-48.413-18.448-66.86,0
				c-18.475,18.477-18.475,48.452,0,66.898l365.616,365.608L77.871,876.915c-18.475,18.485-18.475,48.422,0,66.898
				c18.485,18.485,48.422,18.485,66.86,0l365.616-365.606l365.606,365.606c18.477,18.485,48.415,18.485,66.899,0
				c18.475-18.475,18.475-48.413,0-66.898L577.244,511.309z M577.244,511.309"/>
		</g>
	</g>
</g>
<g id="图层_20" style="display:none;">
	<g style="display:inline;">
		<g>
			<defs>
				<rect id="SVGID_25_" x="185.018" y="63.901" width="653.722" height="895.826"/>
			</defs>
			<clipPath id="SVGID_26_">
				<use xlink:href="#SVGID_25_"  style="overflow:visible;"/>
			</clipPath>
			<path style="clip-path:url(#SVGID_26_);" d="M838.988,65.449l-239.33,407.162H788.24v89.962H568.517v123.976H788.24v91.098
				H568.517v180.509H455.489V777.647H227.693v-91.098h227.795V562.573H227.693v-89.962H422.06L185.018,65.449h127.437
				c110.75,202.243,177.993,330.472,201.854,384.681h2.318c8.073-22.283,30.196-67.282,66.337-134.961L718.48,65.449H838.988z
				 M838.988,65.449"/>
		</g>
	</g>
</g>
<g id="图层_21" style="display:none;">
	<g style="display:inline;">
		<path d="M512.445,63.075l-348.73,208.633l350.987,210.066l348.8-208.706L512.445,63.075z M512.445,63.075"/>
		<path d="M129.876,749.759l349.879,209.34V539.017L129.876,329.62V749.759z M129.876,749.759"/>
		<path d="M544.986,541.697v417.403l350.045-209.34V332.396L544.986,541.697z M544.986,541.697"/>
	</g>
</g>
<g id="图层_22" style="display:none;">
	<g style="display:inline;">
		<g>
			<defs>
				<rect id="SVGID_27_" x="62.958" y="155.803" width="897.229" height="711.896"/>
			</defs>
			<clipPath id="SVGID_28_">
				<use xlink:href="#SVGID_27_"  style="overflow:visible;"/>
			</clipPath>
			<path style="clip-path:url(#SVGID_28_);" d="M953.922,283.61c-3.618-3.697-8.061-5.598-13.2-5.657
				c-12.545-0.141-26.571,10.966-36.119,20.304l-341.71,331.95c-12.529,12.257-58.653,87.171-60.607,90.354l-7.471,12.149
				l12.164-7.447c3.227-1.97,79.147-48.489,91.648-60.71l341.71-331.951C955.526,317.749,967.074,297.083,953.922,283.61
				L953.922,283.61z M953.922,283.61"/>
		</g>
		<path d="M740.656,386.854c0,27.671-22.461,50.131-50.137,50.131c-27.676,0-50.137-22.459-50.137-50.131
			c0-27.677,22.461-50.137,50.137-50.137C718.196,336.718,740.656,359.177,740.656,386.854L740.656,386.854z M740.656,386.854"/>
		<path d="M214.252,562.314c-27.676,0-50.137-22.454-50.137-50.127c0-27.676,22.461-50.136,50.137-50.136
			c27.671,0,50.132,22.459,50.132,50.136C264.384,539.859,241.923,562.314,214.252,562.314L214.252,562.314z M214.252,562.314"/>
		<path d="M289.449,386.854c0-27.677,22.465-50.137,50.136-50.137c27.672,0,50.137,22.459,50.137,50.137
			c0,27.671-22.465,50.131-50.137,50.131C311.913,436.985,289.449,414.551,289.449,386.854L289.449,386.854z M289.449,386.854"/>
		<g>
			<defs>
				<rect id="SVGID_29_" x="62.958" y="155.803" width="897.229" height="711.896"/>
			</defs>
			<clipPath id="SVGID_30_">
				<use xlink:href="#SVGID_29_"  style="overflow:visible;"/>
			</clipPath>
			<path style="clip-path:url(#SVGID_30_);" d="M464.918,336.718c0-27.671,22.46-50.132,50.132-50.132
				c27.676,0,50.136,22.461,50.136,50.132c0,27.672-22.46,50.137-50.136,50.137C487.378,386.854,464.918,364.419,464.918,336.718
				L464.918,336.718z M464.918,336.718"/>
			<path style="clip-path:url(#SVGID_30_);" d="M852.667,506.737c-23.043,149.319-159.101,300.647-352.769,300.647
				c-36.868,0-76.18-7.294-107.851-20.006c-33.685-13.522-48.963-29.421-52.028-39.786c-1.598-5.412-3.099-11.323-4.693-17.581
				c-4.66-18.348-9.944-39.141-20.299-56.393c-18.416-30.689-44.914-37.132-63.908-37.132c-7.182,0-14.834,0.919-22.729,2.718
				c-12.892,2.942-25.423,4.434-37.224,4.434c-25.184,0-67.625-6.678-68.93-51.427c-6.605-228.476,181.16-352.567,370.163-374.197
				c13.367-1.53,27.667-2.302,42.505-2.302c53.246,0,111.801,10.021,152.82,26.16c9.269,3.647,14.407,6.028,39.292,18.225
				c25.716,12.6,46.46,30.502,63.048,47.756l30.224-53.202c-18.065-17.053-40.427-34.487-67.258-47.639
				c-24.948-12.222-31.969-15.547-43.667-20.152c-47.449-18.666-114.3-30.263-174.458-30.263c-17.068,0-33.626,0.905-49.217,2.685
				c-115.786,13.249-221.206,59.195-296.838,129.377C103.14,368.189,59.677,473.746,63.153,593.926
				c1.008,34.555,15.152,63.166,40.901,82.75c22.436,17.058,52.556,26.073,87.112,26.073c16.22,0,33.17-1.99,50.385-5.915
				c3.588-0.817,6.811-1.238,9.568-1.238c11.498,0,17.033,10.071,26.914,48.968c1.662,6.527,3.373,13.274,5.294,19.781
				c9.456,31.984,39.435,58.917,86.702,77.89c38.407,15.421,85.742,24.259,129.87,24.259c54.228,0,106.722-10.159,156.021-30.194
				c46.353-18.837,88.71-45.868,125.901-80.35c35.826-33.221,65.425-71.961,87.962-115.155
				c22.578-43.262,36.975-88.872,42.794-135.586c0.259-2.121,0.508-4.332,0.733-6.561l0.146-1.472v-0.059
				c0.225-2.342,0.405-4.707,0.572-7.084L852.667,506.737z M852.667,506.737"/>
		</g>
	</g>
</g>
<g id="图层_23" style="display:none;">
	<g style="display:inline;">
		<g>
			<defs>
				<rect id="SVGID_31_" x="64" y="137.89" width="896.355" height="748.557"/>
			</defs>
			<clipPath id="SVGID_32_">
				<use xlink:href="#SVGID_31_"  style="overflow:visible;"/>
			</clipPath>
			<path style="clip-path:url(#SVGID_32_);" d="M960.203,568.174c0-94.788-57.107-182.342-152.776-234.192
				c-2.01-1.086-4.152-1.692-6.294-1.873c-52.975-113.183-193.157-194.266-357.339-194.266
				c-209.507,0-379.944,132.038-379.944,294.327c0,91.683,55.459,178.361,148.971,233.84l-25.557,122.305
				c-1.306,6.261,1.223,12.701,6.447,16.389c2.773,1.957,6.02,2.945,9.273,2.945c2.871,0,5.757-0.773,8.32-2.328l132.732-80.483
				c0.48,0.856,1.038,1.688,1.688,2.47C408.73,802.747,512.4,847.784,623.065,847.784c42.708,0,84.234-6.51,123.562-19.354
				l103.714,54.946c2.361,1.252,4.945,1.868,7.517,1.868c3.521,0,7.008-1.159,9.904-3.42c4.988-3.908,7.204-10.397,5.668-16.542
				l-22.787-90.734C920.424,721.63,960.203,646.973,960.203,568.174L960.203,568.174z M238.69,643.828
				C149.316,594.444,95.96,515.321,95.96,432.164c0-144.588,156.033-262.218,347.834-262.218
				c191.807,0,347.84,117.63,347.84,262.218c0,144.594-156.033,262.218-347.84,262.218c-30.172,0-60.106-2.925-88.987-8.686
				c-3.947-0.793-8.036-0.074-11.464,2.02l-117.082,70.988l20.38-97.546C248.075,654.256,244.856,647.233,238.69,643.828
				L238.69,643.828z M823.191,754.88c-5.429,3.824-7.923,10.584-6.314,17.015l16.629,66.22l-77.943-41.286
				c-3.937-2.078-8.559-2.425-12.78-0.978c-37.9,13.157-78.182,19.823-119.717,19.823c-92.915,0-180.102-34.295-237.861-92.666
				c19.315,2.309,38.909,3.483,58.59,3.483c209.508,0,379.95-132.038,379.95-294.328c0-18.746-2.285-37.094-6.627-54.877
				c69.995,46.866,110.976,116.529,110.976,190.887C928.093,639.72,889.86,707.759,823.191,754.88L823.191,754.88z M823.191,754.88"
				/>
		</g>
		<path d="M339.851,419.678c0-30.363-24.695-55.064-55.049-55.064c-30.363,0-55.059,24.7-55.059,55.064
			c0,30.358,24.695,55.057,55.059,55.057C315.155,474.736,339.851,450.036,339.851,419.678L339.851,419.678z M261.848,419.678
			c0-12.659,10.295-22.954,22.954-22.954c12.647,0,22.944,10.295,22.944,22.954c0,12.652-10.296,22.949-22.944,22.949
			C272.143,442.627,261.848,432.331,261.848,419.678L261.848,419.678z M261.848,419.678"/>
		<path d="M443.794,474.736c30.363,0,55.064-24.699,55.064-55.057c0-30.363-24.7-55.064-55.064-55.064
			c-30.358,0-55.057,24.7-55.057,55.064C388.736,450.036,413.43,474.736,443.794,474.736L443.794,474.736z M443.794,396.724
			c12.659,0,22.954,10.295,22.954,22.954c0,12.652-10.295,22.949-22.954,22.949c-12.652,0-22.949-10.296-22.949-22.949
			C420.845,407.019,431.141,396.724,443.794,396.724L443.794,396.724z M443.794,396.724"/>
		<path d="M596.311,474.736c30.363,0,55.059-24.699,55.059-55.057c0-30.363-24.695-55.064-55.059-55.064
			c-30.363,0-55.064,24.7-55.064,55.064C541.247,450.036,565.948,474.736,596.311,474.736L596.311,474.736z M596.311,396.724
			c12.658,0,22.954,10.295,22.954,22.954c0,12.652-10.296,22.949-22.954,22.949c-12.657,0-22.953-10.296-22.953-22.949
			C573.358,407.019,583.654,396.724,596.311,396.724L596.311,396.724z M596.311,396.724"/>
	</g>
</g>
<g id="图层_24" style="display:none;">
	<g style="display:inline;">
		<g>
			<defs>
				<rect id="SVGID_33_" x="64" y="62.89" width="895.558" height="896.519"/>
			</defs>
			<clipPath id="SVGID_34_">
				<use xlink:href="#SVGID_33_"  style="overflow:visible;"/>
			</clipPath>
			<path style="clip-path:url(#SVGID_34_);" d="M930.735,762.573H818.884V243.596L923.268,139.35
				c10.907-10.903,10.907-28.632,0-39.568c-10.902-10.932-28.632-10.932-39.567,0l-103.63,103.523H259.614V91.447
				c0-15.434-12.502-27.961-27.965-27.961c-15.463,0-27.962,12.527-27.962,27.961v111.856H91.831
				c-15.434,0-27.962,12.498-27.962,27.961c0,15.465,12.528,27.967,27.962,27.967h111.855v531.304c0,2.573,0.811,4.894,1.481,7.246
				c0.281,1.062,0.226,2.15,0.614,3.157c2.825,7.049,8.389,12.614,15.438,15.463c1.203,0.478,2.518,0.418,3.747,0.73
				c2.21,0.559,4.305,1.37,6.682,1.37h531.307v111.852c0,15.438,12.528,27.965,27.962,27.965c15.438,0,27.967-12.527,27.967-27.965
				V818.501h111.851c15.438,0,27.967-12.527,27.967-27.965C958.702,775.101,946.173,762.573,930.735,762.573L930.735,762.573z
				 M724.058,259.231L259.614,723.06V259.231H724.058z M299.182,762.573l463.773-463.13v463.13H299.182z M299.182,762.573"/>
		</g>
	</g>
</g>
<g id="图层_25" style="display:none;">
	<g style="display:inline;">
		<path d="M608.104,767.024c-17.698,0-32.002-14.304-32.002-32.002v-352.07c0-17.698,14.304-32.009,32.002-32.009
			c17.698,0,32.009,14.31,32.009,32.009v352.07C640.112,752.72,625.802,767.024,608.104,767.024L608.104,767.024z M416.07,767.024
			c-17.705,0-32.009-14.304-32.009-32.002v-352.07c0-17.698,14.304-32.009,32.009-32.009c17.698,0,32.002,14.31,32.002,32.009
			v352.07C448.073,752.72,433.769,767.024,416.07,767.024L416.07,767.024z M928.165,222.921H768.134V158.91
			c0-52.94-42.728-96.02-95.282-96.02H352.053c-52.934,0-96.013,43.08-96.013,96.02v64.011H96.009
			C78.304,222.921,64,237.225,64,254.93c0,17.698,14.304,32.002,32.009,32.002h832.156c17.698,0,32.009-14.304,32.009-32.002
			C960.174,237.225,945.864,222.921,928.165,222.921L928.165,222.921z M320.051,158.91c0-17.636,14.368-32.009,32.002-32.009
			h320.799c17.543,0,31.271,14.051,31.271,32.009v64.011H320.051V158.91z M736.258,959.064H288.106
			c-52.935,0-96.015-43.08-96.015-96.02V382.473c0-17.67,14.339-32.007,32.004-32.007c17.67,0,32.007,14.338,32.007,32.007v480.571
			c0,17.67,14.369,32.009,32.004,32.009h448.153c17.665,0,32.004-14.339,32.004-32.009V383.782
			c0-17.665,14.309-32.004,32.007-32.004c17.7,0,32.009,14.339,32.009,32.004v479.262
			C832.278,915.984,789.194,959.064,736.258,959.064L736.258,959.064z M736.258,959.064"/>
	</g>
</g>
<g id="图层_26" style="display:none;">
	<g style="display:inline;">
		<path d="M511.816,63.585c247.277,0,447.953,200.676,447.953,447.931c0,247.277-200.676,447.953-447.953,447.953
			c-247.255,0-447.931-200.676-447.931-447.953C63.884,264.261,264.56,63.585,511.816,63.585L511.816,63.585z M511.816,63.585"/>
	</g>
</g>
<g id="图层_27" style="display:none;">
	<g style="display:inline;">
		<path d="M229.796,415.927c0.183,0.183,0.371,0.367,0.555,0.546l251.413,248.539c7.275,7.669,17.554,12.463,28.961,12.463
			c12.983,0,24.514-6.205,31.803-15.803l248.154-243.4c8.574-7.319,14.013-18.198,14.013-30.357
			c0-22.039-17.867-39.911-39.912-39.911H615.607V144.802c0-22.039-17.866-39.911-39.911-39.911h-129.94
			c-22.043,0-39.915,17.872-39.915,39.911v203.203H258.223c-22.043,0-39.911,17.872-39.911,39.911
			C218.312,398.834,222.695,408.719,229.796,415.927L229.796,415.927z M229.796,415.927"/>
		<path d="M943.408,718.913L803.056,587.684h-0.286c-7.311-9.191-18.583-15.091-31.244-15.091c-12.661,0-23.933,5.9-31.243,15.091
			c-5.422,6.813-8.668,15.435-8.668,24.819c0,0.693,0.018,1.388,0.054,2.073l-0.228,0.703l16.653,94.527H644.321
			c-31.19,39.41-79.436,64.695-133.597,64.695c-54.156,0-102.408-25.286-133.598-64.695H273.274l16.653-94.527l-0.223-0.703
			c0.035-0.685,0.054-1.38,0.054-2.073c0-9.384-3.25-18.006-8.671-24.819c-7.311-9.191-18.583-15.091-31.244-15.091
			c-12.661,0-23.933,5.9-31.244,15.091h-0.286l-141.4,132.209c-8.22,7.311-13.403,17.966-13.403,29.829v129.94
			c0,22.045,17.872,39.915,39.911,39.915h814.61c22.044,0,39.915-17.871,39.915-39.915v-129.94
			C957.944,737.317,952.286,726.237,943.408,718.913L943.408,718.913z M682.611,879.661c-22.043,0-39.911-17.871-39.911-39.911
			c0-22.043,17.867-39.915,39.911-39.915c22.045,0,39.911,17.872,39.911,39.915C722.522,861.791,704.656,879.661,682.611,879.661
			L682.611,879.661z M804.582,879.661c-22.043,0-39.915-17.871-39.915-39.911c0-22.043,17.872-39.915,39.915-39.915
			s39.911,17.872,39.911,39.915C844.493,861.791,826.626,879.661,804.582,879.661L804.582,879.661z M804.582,879.661"/>
	</g>
</g>
<g id="图层_28" style="display:none;">
	<g style="display:inline;">
		<g>
			<defs>
				<rect id="SVGID_35_" x="64.005" y="139.04" width="896.182" height="746.119"/>
			</defs>
			<clipPath id="SVGID_36_">
				<use xlink:href="#SVGID_35_"  style="overflow:visible;"/>
			</clipPath>
			<rect x="63.83" y="340.751" style="clip-path:url(#SVGID_36_);" width="895.434" height="49.749"/>
			<rect x="63.83" y="489.995" style="clip-path:url(#SVGID_36_);" width="895.434" height="49.749"/>
			<rect x="63.83" y="639.247" style="clip-path:url(#SVGID_36_);" width="895.434" height="49.749"/>
		</g>
		<path d="M511.569,139.316L364.216,286.773h294.664L511.569,139.316z M511.569,139.316"/>
		<path d="M511.518,883.757l147.361-147.451H364.216L511.518,883.757z M511.518,883.757"/>
	</g>
</g>
<g id="图层_29" style="display:none;">
	<g style="display:inline;">
		<g>
			<defs>
				<rect id="SVGID_37_" x="63.475" y="83.2" width="896.083" height="857.304"/>
			</defs>
			<clipPath id="SVGID_38_">
				<use xlink:href="#SVGID_37_"  style="overflow:visible;"/>
			</clipPath>
			<path style="clip-path:url(#SVGID_38_);" d="M831.103,450.46c-14.72,0-26.634,11.871-26.634,26.514v335.675
				c0,40.627-33.189,73.657-73.958,73.657H190.689c-40.788,0-73.983-33.03-73.983-73.657V275.045
				c0-40.603,33.194-73.675,73.983-73.675h422.727c14.681,0,26.616-11.852,26.616-26.495c0-14.638-11.934-26.513-26.616-26.513
				H190.689c-70.132,0-127.213,56.839-127.213,126.684v537.584c0,69.846,57.057,126.679,127.213,126.679h539.822
				c70.112,0,127.189-56.833,127.189-126.679V476.953C857.718,462.331,845.79,450.46,831.103,450.46L831.103,450.46z
				 M428.331,355.338c0-14.638-11.909-26.514-26.616-26.514H219.989c-14.701,0-26.615,11.876-26.615,26.514
				c0,14.624,11.914,26.495,26.615,26.495h181.726C416.421,381.833,428.331,369.962,428.331,355.338L428.331,355.338z
				 M219.989,472.74c-14.701,0-26.615,11.87-26.615,26.514c0,14.638,11.914,26.489,26.615,26.489h128.475
				c14.706,0,26.615-11.851,26.615-26.489c0-14.644-11.909-26.514-26.615-26.514H219.989z M946.203,177.259l-81.415-81.089
				c-16.741-16.697-46.002-16.697-62.743,0l-100.228,99.825l144.133,143.547l100.291-99.826
				C963.512,222.446,963.492,194.446,946.203,177.259L946.203,177.259z M845.969,264.578L777.1,195.994l56.328-56.124l68.889,68.607
				L845.969,264.578z M385.611,650.45l173.108-24.902l239.254-237.705c10.429-10.346,10.448-27.107,0.043-37.472
				c-10.346-10.384-27.207-10.423-37.631-0.038L533.652,575.614l-81.741,11.749l15.498-80.905l227.199-225.689
				c10.404-10.346,10.448-27.105,0.039-37.491c-10.361-10.366-27.202-10.366-37.631-0.039L418.193,480.498L385.611,650.45z
				 M385.611,650.45"/>
		</g>
	</g>
</g>
<g id="图层_30" style="display:none;">
	<g style="display:inline;">
		<path d="M750.149,451.055c103.893,0,188.492,84.227,188.492,187.745s-84.538,187.749-188.492,187.749
			c-103.948,0-188.491-84.23-188.491-187.749S646.201,451.055,750.149,451.055 M750.149,432.634
			c-114.245,0-206.848,92.295-206.848,206.167c0,113.877,92.602,206.17,206.848,206.17c114.251,0,206.852-92.293,206.852-206.17
			C957.001,524.928,864.4,432.634,750.149,432.634L750.149,432.634z M750.149,432.634"/>
		<path d="M486.796,535.593c-2.05,0-4.093-0.681-5.769-2.048L86.119,214.869c-3.966-3.165-4.585-8.995-1.425-12.966
			c3.161-3.97,9.058-4.528,12.961-1.363l389.018,313.901l370.345-313.715c3.97-3.284,9.8-2.792,12.961,1.055
			c3.289,3.908,2.792,9.738-1.055,12.961l-376.112,318.68C491.074,534.851,488.968,535.593,486.796,535.593L486.796,535.593z
			 M486.796,535.593"/>
		<g>
			<defs>
				<rect id="SVGID_39_" x="64" y="178.89" width="893.872" height="667.242"/>
			</defs>
			<clipPath id="SVGID_40_">
				<use xlink:href="#SVGID_39_"  style="overflow:visible;"/>
			</clipPath>
			<path style="clip-path:url(#SVGID_40_);" d="M91.888,666.775c-2.357,0-4.714-0.87-6.511-2.729c-3.597-3.597-3.597-9.427,0-13.023
				l244.5-243.696c3.595-3.597,9.426-3.597,13.023,0c3.6,3.6,3.6,9.431,0,13.026L98.404,664.046
				C96.605,665.906,94.182,666.775,91.888,666.775L91.888,666.775z M91.888,666.775"/>
			<path style="clip-path:url(#SVGID_40_);" d="M485.925,685.567H110.683c-25.804,0-46.828-20.963-46.828-46.766V226.468
				c0-25.742,21.024-46.706,46.828-46.706h733.436c25.86,0,46.89,20.963,46.89,46.706v183.031c0,5.087-4.16,9.18-9.242,9.18
				c-5.087,0-9.242-4.093-9.242-9.18V226.468c0-15.569-12.715-28.284-28.406-28.284H110.683c-15.691,0-28.406,12.715-28.406,28.284
				V638.8c0,15.568,12.715,28.283,28.406,28.283h375.243c5.087,0,9.18,4.155,9.18,9.242
				C495.105,681.411,491.012,685.567,485.925,685.567L485.925,685.567z M485.925,685.567"/>
		</g>
		<path d="M835.619,740.581c-2.172,0-4.406-0.804-6.204-2.356L658.357,586.203c-3.847-3.473-4.16-9.304-0.809-13.146
			c3.473-3.847,9.304-4.155,13.15-0.809L841.761,724.27c3.843,3.474,4.155,9.304,0.804,13.151
			C840.706,739.464,838.161,740.581,835.619,740.581L835.619,740.581z M835.619,740.581"/>
		<path d="M664.617,740.581c-2.542,0-5.082-1.117-6.946-3.161c-3.412-3.847-3.038-9.677,0.808-13.151l171.059-152.022
			c3.787-3.411,9.616-3.099,13.151,0.809c3.411,3.843,3.038,9.673-0.804,13.146L670.821,738.225
			C669.023,739.777,666.79,740.581,664.617,740.581L664.617,740.581z M664.617,740.581"/>
	</g>
</g>
<g id="图层_31" style="display:none;">
	<g style="display:inline;">
		<path d="M750.925,450.768c104.162,0,188.98,84.445,188.98,188.231s-84.757,188.235-188.98,188.235
			c-104.217,0-188.979-84.448-188.979-188.235S646.708,450.768,750.925,450.768 M750.925,432.298
			c-114.541,0-207.383,92.533-207.383,206.7c0,114.172,92.842,206.704,207.383,206.704c114.547,0,207.388-92.532,207.388-206.704
			C958.313,524.831,865.472,432.298,750.925,432.298L750.925,432.298z M750.925,432.298"/>
		<path d="M486.891,535.524c-2.055,0-4.104-0.683-5.784-2.054L85.177,213.97c-3.976-3.174-4.597-9.018-1.428-12.999
			c3.169-3.98,9.081-4.54,12.994-1.366l390.025,314.713L858.071,199.79c3.98-3.293,9.826-2.8,12.994,1.058
			c3.297,3.918,2.799,9.764-1.058,12.994L492.921,533.347C491.18,534.78,489.069,535.524,486.891,535.524L486.891,535.524z
			 M486.891,535.524"/>
		<g>
			<defs>
				<rect id="SVGID_41_" x="63" y="177.898" width="896.186" height="668.97"/>
			</defs>
			<clipPath id="SVGID_42_">
				<use xlink:href="#SVGID_41_"  style="overflow:visible;"/>
			</clipPath>
			<path style="clip-path:url(#SVGID_42_);" d="M90.96,667.046c-2.363,0-4.726-0.872-6.528-2.736c-3.606-3.606-3.606-9.452,0-13.056
				l245.133-244.327c3.605-3.606,9.45-3.606,13.056,0c3.61,3.61,3.61,9.455,0,13.06L97.493,664.309
				C95.69,666.174,93.261,667.046,90.96,667.046L90.96,667.046z M90.96,667.046"/>
			<path style="clip-path:url(#SVGID_42_);" d="M486.018,685.886H109.804c-25.871,0-46.949-21.018-46.949-46.887v-413.4
				c0-25.809,21.078-46.827,46.949-46.827h735.335c25.927,0,47.011,21.018,47.011,46.827v183.505c0,5.1-4.171,9.204-9.266,9.204
				c-5.1,0-9.266-4.104-9.266-9.204V225.599c0-15.609-12.748-28.357-28.48-28.357H109.804c-15.732,0-28.48,12.748-28.48,28.357
				v413.4c0,15.608,12.748,28.356,28.48,28.356h376.214c5.1,0,9.204,4.166,9.204,9.266
				C495.222,681.72,491.118,685.886,486.018,685.886L486.018,685.886z M486.018,685.886"/>
		</g>
		<path d="M744.213,704.479h13.37l3.913-154.963h-0.307c-0.186-5.598-4.664-10.134-10.263-10.134
			c-5.593,0-10.072,4.536-10.262,10.134h-0.37L744.213,704.479z M744.213,704.479"/>
		<path d="M759.755,717.787c-2.362-2.302-5.408-3.359-8.952-3.359c-3.359,0-6.282,0.996-8.644,3.359
			c-2.548,2.178-3.73,5.1-3.73,8.644c0,3.359,1.182,6.282,3.73,8.644c2.362,2.362,5.223,3.544,8.644,3.544
			c3.42,0,6.404-1.182,8.952-3.358c2.362-2.364,3.549-5.224,3.549-8.83C763.304,722.887,762.117,720.027,759.755,717.787
			L759.755,717.787z M759.755,717.787"/>
	</g>
</g>
<g id="图层_32">
	<g>
		<path d="M694.397,723.542c-2.368,0-4.732-0.873-6.472-2.676l-75.383-75.193c-3.669-3.605-3.669-9.457-0.062-13.064
			c3.612-3.729,9.457-3.667,13.064-0.061l69.222,69.038l163.269-144.605c3.729-3.422,9.699-3.047,13.059,0.807
			c3.359,3.796,2.985,9.642-0.807,13.064L700.552,721.24C698.811,722.735,696.571,723.542,694.397,723.542L694.397,723.542z
			 M694.397,723.542"/>
		<path d="M751.054,450.811c104.181,0,189.016,84.461,189.016,188.266s-84.773,188.27-189.016,188.27
			c-104.237,0-189.015-84.464-189.015-188.27S646.817,450.811,751.054,450.811 M751.054,432.338
			c-114.562,0-207.422,92.551-207.422,206.739c0,114.193,92.859,206.743,207.422,206.743c114.569,0,207.427-92.55,207.427-206.743
			C958.481,524.889,865.623,432.338,751.054,432.338L751.054,432.338z M751.054,432.338"/>
		<path d="M486.971,535.584c-2.055,0-4.105-0.683-5.785-2.054L85.18,213.969c-3.977-3.174-4.598-9.02-1.429-13.002
			c3.169-3.981,9.083-4.541,12.997-1.367l390.098,314.772L858.22,199.786c3.981-3.293,9.828-2.8,12.997,1.058
			c3.298,3.919,2.8,9.765-1.058,12.997L493.002,533.406C491.26,534.839,489.149,535.584,486.971,535.584L486.971,535.584z
			 M486.971,535.584"/>
		<g>
			<defs>
				<rect id="SVGID_43_" x="63" y="177.89" width="896.355" height="669.096"/>
			</defs>
			<clipPath id="SVGID_44_">
				<use xlink:href="#SVGID_43_"  style="overflow:visible;"/>
			</clipPath>
			<path style="clip-path:url(#SVGID_44_);" d="M90.965,667.13c-2.364,0-4.727-0.872-6.529-2.737c-3.607-3.607-3.607-9.453,0-13.059
				l245.18-244.373c3.605-3.607,9.452-3.607,13.059,0c3.61,3.61,3.61,9.457,0,13.062L97.499,664.393
				C95.696,666.258,93.266,667.13,90.965,667.13L90.965,667.13z M90.965,667.13"/>
			<path style="clip-path:url(#SVGID_44_);" d="M486.097,685.974H109.812c-25.876,0-46.958-21.022-46.958-46.896V225.6
				c0-25.814,21.082-46.836,46.958-46.836h735.473c25.932,0,47.02,21.022,47.02,46.836v183.54c0,5.101-4.172,9.206-9.267,9.206
				c-5.101,0-9.268-4.105-9.268-9.206V225.6c0-15.612-12.75-28.362-28.485-28.362H109.812c-15.735,0-28.485,12.75-28.485,28.362
				v413.477c0,15.611,12.75,28.361,28.485,28.361h376.285c5.101,0,9.206,4.167,9.206,9.268S491.198,685.974,486.097,685.974
				L486.097,685.974z M486.097,685.974"/>
		</g>
	</g>
</g>
</svg>
