<?xml version="1.0" encoding="utf-8"?>
<!-- Generator: Adobe Illustrator 17.0.0, SVG Export Plug-In . SVG Version: 6.00 Build 0)  -->
<!DOCTYPE svg PUBLIC "-//W3C//DTD SVG 1.1//EN" "http://www.w3.org/Graphics/SVG/1.1/DTD/svg11.dtd">
<svg version="1.1" xmlns="http://www.w3.org/2000/svg" xmlns:xlink="http://www.w3.org/1999/xlink" x="0px" y="0px" width="1024px"
	 height="1024px" viewBox="0 0 1024 1024" style="enable-background:new 0 0 1024 1024;" xml:space="preserve">
<g id="图层_1">
</g>
<g id="图层_2" style="display:none;">
	<path style="display:inline;" d="M924.816,337.122c-22.623-53.409-54.883-101.332-96.112-142.56s-89.151-73.489-142.56-96.112
		c-55.284-23.425-114.049-35.205-174.552-35.205S392.325,75.159,337.04,98.451c-53.409,22.623-101.332,54.883-142.56,96.112
		c-41.228,41.228-73.489,89.151-96.112,142.56c-23.425,55.284-35.205,114.049-35.205,174.552s11.913,119.268,35.205,174.552
		c22.623,53.409,54.883,101.332,96.112,142.56c41.228,41.228,89.151,73.489,142.56,96.112
		c55.284,23.425,114.049,35.205,174.552,35.205s119.268-11.913,174.552-35.204c53.409-22.623,101.332-54.883,142.56-96.112
		c41.228-41.228,73.489-89.151,96.111-142.56c23.425-55.284,35.205-114.049,35.205-174.552S948.108,392.406,924.816,337.122z
		 M762.847,390.263L453.765,699.344c-12.448,12.448-32.929,12.448-45.378,0L250.432,541.389c-12.448-12.448-12.448-32.929,0-45.378
		c12.448-12.448,32.929-12.448,45.378,0l135.197,135.197l286.326-286.326c12.448-12.448,32.929-12.448,45.378,0
		c12.583,12.448,12.583,32.795,0.135,45.378L762.847,390.263z"/>
</g>
<g id="图层_3">
	<path d="M512.057,64.061c-247.422,0-447.996,200.574-447.996,447.996c0,247.419,200.574,447.995,447.996,447.995
		s447.996-200.574,447.996-447.995S759.478,64.061,512.057,64.061z M710.681,665.425c12.5,12.5,12.498,32.751-0.002,45.251
		c-6.25,6.25-14.439,9.377-22.627,9.377c-8.188,0-16.375-3.123-22.625-9.373l-153.37-153.371L358.685,710.68
		c-6.25,6.25-14.439,9.373-22.627,9.373s-16.377-3.127-22.627-9.377c-12.5-12.5-12.5-32.751,0-45.251l153.371-153.369
		l-153.37-153.372c-12.5-12.5-12.498-32.751,0.002-45.251c12.5-12.5,32.751-12.504,45.251-0.004L512.056,466.8l153.371-153.371
		c12.5-12.5,32.751-12.496,45.251,0.004c12.5,12.5,12.502,32.751,0.002,45.251L557.312,512.056L710.681,665.425z"/>
</g>
</svg>
