<?xml version="1.0" encoding="utf-8"?>
<!-- Generator: Adobe Illustrator 17.0.0, SVG Export Plug-In . SVG Version: 6.00 Build 0)  -->
<!DOCTYPE svg PUBLIC "-//W3C//DTD SVG 1.1//EN" "http://www.w3.org/Graphics/SVG/1.1/DTD/svg11.dtd">
<svg version="1.1" xmlns="http://www.w3.org/2000/svg" xmlns:xlink="http://www.w3.org/1999/xlink" x="0px" y="0px" width="1024px"
	 height="1024px" viewBox="0 0 1024 1024" style="enable-background:new 0 0 1024 1024;" xml:space="preserve">
<g id="图层_1">
</g>
<g id="图层_2">
	<g>
		<path d="M732.952,685.977c0,0-14.492,19.17-33.891,37.96l223.37,218.879l37.072-34.66L732.952,685.977z M812.275,448.706
			c0,217.286-167.377,380.4-374.837,380.4C221.115,825.964,64.254,655.62,64.254,448.998c0-199.584,168.84-367.884,373.184-367.884
			C644.899,81.114,812.275,251.602,812.275,448.706L812.275,448.706z M436.074,130.979c-177.823,0-321.955,144.24-321.955,324.128
			c0,179.893,144.131,325.131,321.955,325.131c177.848,0,326.331-145.238,326.331-325.131
			C762.405,275.22,613.921,130.979,436.074,130.979L436.074,130.979z M436.074,130.979"/>
	</g>
</g>
</svg>
