<?xml version="1.0" encoding="utf-8"?>
<!-- Generator: Adobe Illustrator 17.0.0, SVG Export Plug-In . SVG Version: 6.00 Build 0)  -->
<!DOCTYPE svg PUBLIC "-//W3C//DTD SVG 1.1//EN" "http://www.w3.org/Graphics/SVG/1.1/DTD/svg11.dtd">
<svg version="1.1" xmlns="http://www.w3.org/2000/svg" xmlns:xlink="http://www.w3.org/1999/xlink" x="0px" y="0px" width="1024px"
	 height="1024px" viewBox="0 0 1024 1024" style="enable-background:new 0 0 1024 1024;" xml:space="preserve">
<g id="图层_1">
</g>
<g id="图层_2">
	<g>
		<g>
			<defs>
				<rect id="SVGID_1_" x="63.871" y="401.871" width="896.484" height="220.421"/>
			</defs>
			<clipPath id="SVGID_2_">
				<use xlink:href="#SVGID_1_"  style="overflow:visible;"/>
			</clipPath>
			<path style="clip-path:url(#SVGID_2_);" d="M172.622,403.047c60.156,0,108.925,48.769,108.925,108.925
				c0,60.162-48.763,108.925-108.925,108.925c-60.156,0-108.925-48.763-108.925-108.925
				C63.697,451.816,112.466,403.047,172.622,403.047L172.622,403.047z M172.622,403.047"/>
		</g>
		<path d="M511.505,403.047c60.156,0,108.925,48.769,108.925,108.925c0,60.162-48.769,108.925-108.925,108.925
			c-60.162,0-108.927-48.763-108.927-108.925C402.578,451.816,451.343,403.047,511.505,403.047L511.505,403.047z M511.505,403.047"
			/>
		<path d="M511.505,403.047c60.156,0,108.925,48.769,108.925,108.925c0,60.162-48.769,108.925-108.925,108.925
			c-60.162,0-108.927-48.763-108.927-108.925C402.578,451.816,451.343,403.047,511.505,403.047L511.505,403.047z M511.505,403.047"
			/>
		<path d="M850.381,403.047c60.162,0,108.931,48.769,108.931,108.925c0,60.162-48.769,108.925-108.931,108.925
			c-60.156,0-108.925-48.763-108.925-108.925C741.456,451.816,790.225,403.047,850.381,403.047L850.381,403.047z M850.381,403.047"
			/>
	</g>
</g>
</svg>
