<?xml version="1.0" encoding="utf-8"?>
<!-- Generator: Adobe Illustrator 17.0.0, SVG Export Plug-In . SVG Version: 6.00 Build 0)  -->
<!DOCTYPE svg PUBLIC "-//W3C//DTD SVG 1.1//EN" "http://www.w3.org/Graphics/SVG/1.1/DTD/svg11.dtd">
<svg version="1.1" xmlns="http://www.w3.org/2000/svg" xmlns:xlink="http://www.w3.org/1999/xlink" x="0px" y="0px" width="1024px"
	 height="1024px" viewBox="0 0 1024 1024" style="enable-background:new 0 0 1024 1024;" xml:space="preserve">
<g id="图层_1">
</g>
<g id="图层_2">
	<g>
		<g>
			<defs>
				<rect id="SVGID_1_" x="117.256" y="63.701" width="789.494" height="895.914"/>
			</defs>
			<clipPath id="SVGID_2_">
				<use xlink:href="#SVGID_1_"  style="overflow:visible;"/>
			</clipPath>
			<path style="clip-path:url(#SVGID_2_);" d="M455.179,556.254c4.957,0,9.762-2.585,12.505-7.216l70.347-120.668
				c9.66-16.778,12.178-36.183,7.196-54.872c-4.976-18.635-16.962-34.204-33.694-43.853c-33.349-19.25-79.524-6.814-98.721,26.441
				c-1.731,2.996-3.265,6.086-4.521,9.229c-2.641-2.097-5.451-3.985-8.492-5.719c-33.368-19.251-79.558-6.751-98.754,26.44
				c-9.658,16.68-12.176,36.16-7.181,54.833c4.962,18.679,16.928,34.214,33.627,43.917l120.454,69.511
				C450.267,555.608,452.73,556.254,455.179,556.254L455.179,556.254z M455.179,556.254"/>
			<path style="clip-path:url(#SVGID_2_);" d="M898.474,286.197c-8.124-14.063-21.24-24.07-36.824-28.264l-98.11-26.299v-31.75
				c0-33.467-27.232-60.69-60.703-60.69H602.196l-8.07-30.317c-8.506-31.593-42.607-51.421-74.402-42.925L162.113,161.75
				c-15.638,4.19-28.685,14.269-36.844,28.333c-8.085,14.112-10.27,30.429-6.076,46.057l155.738,581.141
				c5.588,20.981,21.959,36.77,42.099,42.484l-0.138,0.733l357.612,95.816c5.187,1.453,10.427,2.097,15.735,2.097
				c10.501,0,20.899-2.742,30.328-8.193c14.063-8.124,24.144-21.19,28.283-36.843L904.57,332.255
				C908.764,316.636,906.579,300.319,898.474,286.197L898.474,286.197z M702.838,168.036c17.554,0,31.827,14.324,31.827,31.848
				v433.688L609.969,168.036H702.838z M302.775,809.802L147.053,228.637c-2.166-8.124-1.046-16.738,3.25-24.134
				c4.264-7.396,11.111-12.681,19.251-14.889l357.666-95.812c2.688-0.733,5.431-1.051,8.139-1.051
				c14.464,0,27.129,9.723,30.85,23.63l155.743,581.165c4.556,16.943-5.558,34.414-22.52,38.989l-357.612,95.802
				C324.959,836.845,307.229,826.398,302.775,809.802L302.775,809.802z M734.7,747.749v53.826c0,17.594-14.309,31.847-31.862,31.847
				H449.255l257.602-69.043C717.948,761.447,727.279,755.473,734.7,747.749L734.7,747.749z M720.968,905.937
				c-2.18,8.173-7.421,14.987-14.881,19.318c-7.391,4.229-16.004,5.416-24.144,3.231l-246.998-66.207h267.892
				c11.927,0,22.97-3.564,32.419-9.552L720.968,905.937z M876.706,324.816L763.54,747.07V261.486l90.616,24.29
				c8.158,2.205,15.041,7.503,19.303,14.904C877.737,308.024,878.911,316.636,876.706,324.816L876.706,324.816z M876.706,324.816"/>
		</g>
	</g>
</g>
</svg>
