<?xml version="1.0" encoding="utf-8"?>
<!-- Generator: Adobe Illustrator 17.0.0, SVG Export Plug-In . SVG Version: 6.00 Build 0)  -->
<!DOCTYPE svg PUBLIC "-//W3C//DTD SVG 1.1//EN" "http://www.w3.org/Graphics/SVG/1.1/DTD/svg11.dtd">
<svg version="1.1" xmlns="http://www.w3.org/2000/svg" xmlns:xlink="http://www.w3.org/1999/xlink" x="0px" y="0px" width="1024px"
	 height="1024px" viewBox="0 0 1024 1024" style="enable-background:new 0 0 1024 1024;" xml:space="preserve">
<g id="图层_1">
</g>
<g id="图层_2" style="display:none;">
	<g style="display:inline;">
		<g>
			<defs>
				<rect id="SVGID_1_" x="117.256" y="63.701" width="789.494" height="895.914"/>
			</defs>
			<clipPath id="SVGID_2_">
				<use xlink:href="#SVGID_1_"  style="overflow:visible;"/>
			</clipPath>
			<path style="clip-path:url(#SVGID_2_);" d="M455.179,556.254c4.957,0,9.762-2.585,12.505-7.216l70.347-120.668
				c9.66-16.778,12.178-36.183,7.196-54.872c-4.976-18.635-16.962-34.204-33.694-43.853c-33.349-19.25-79.524-6.814-98.721,26.441
				c-1.731,2.996-3.265,6.086-4.521,9.229c-2.641-2.097-5.451-3.985-8.492-5.719c-33.368-19.251-79.558-6.751-98.754,26.44
				c-9.658,16.68-12.176,36.16-7.181,54.833c4.962,18.679,16.928,34.214,33.627,43.917l120.454,69.511
				C450.267,555.608,452.73,556.254,455.179,556.254L455.179,556.254z M455.179,556.254"/>
			<path style="clip-path:url(#SVGID_2_);" d="M898.474,286.197c-8.124-14.063-21.24-24.07-36.824-28.264l-98.11-26.299v-31.75
				c0-33.467-27.232-60.69-60.703-60.69H602.196l-8.07-30.317c-8.506-31.593-42.607-51.421-74.402-42.925L162.113,161.75
				c-15.638,4.19-28.685,14.269-36.844,28.333c-8.085,14.112-10.27,30.429-6.076,46.057l155.738,581.141
				c5.588,20.981,21.959,36.77,42.099,42.484l-0.138,0.733l357.612,95.816c5.187,1.453,10.427,2.097,15.735,2.097
				c10.501,0,20.899-2.742,30.328-8.193c14.063-8.124,24.144-21.19,28.283-36.843L904.57,332.255
				C908.764,316.636,906.579,300.319,898.474,286.197L898.474,286.197z M702.838,168.036c17.554,0,31.827,14.324,31.827,31.848
				v433.688L609.969,168.036H702.838z M302.775,809.802L147.053,228.637c-2.166-8.124-1.046-16.738,3.25-24.134
				c4.264-7.396,11.111-12.681,19.251-14.889l357.666-95.812c2.688-0.733,5.431-1.051,8.139-1.051
				c14.464,0,27.129,9.723,30.85,23.63l155.743,581.165c4.556,16.943-5.558,34.414-22.52,38.989l-357.612,95.802
				C324.959,836.845,307.229,826.398,302.775,809.802L302.775,809.802z M734.7,747.749v53.826c0,17.594-14.309,31.847-31.862,31.847
				H449.255l257.602-69.043C717.948,761.447,727.279,755.473,734.7,747.749L734.7,747.749z M720.968,905.937
				c-2.18,8.173-7.421,14.987-14.881,19.318c-7.391,4.229-16.004,5.416-24.144,3.231l-246.998-66.207h267.892
				c11.927,0,22.97-3.564,32.419-9.552L720.968,905.937z M876.706,324.816L763.54,747.07V261.486l90.616,24.29
				c8.158,2.205,15.041,7.503,19.303,14.904C877.737,308.024,878.911,316.636,876.706,324.816L876.706,324.816z M876.706,324.816"/>
		</g>
	</g>
</g>
<g id="图层_3" style="display:none;">
	<g style="display:inline;">
		<g>
			<defs>
				<rect id="SVGID_3_" x="63.875" y="81.621" width="896.103" height="861.262"/>
			</defs>
			<clipPath id="SVGID_4_">
				<use xlink:href="#SVGID_3_"  style="overflow:visible;"/>
			</clipPath>
			<path style="clip-path:url(#SVGID_4_);" d="M831.588,941.834h-639.76c-67.24,0-127.953-61.374-127.953-127.953
				c0,0,1.111-252.471,1.111-341.78c0-42.653,25.932-67.24,62.865-84.727V259.422c0-52.691,34.929-106.625,85.3-106.625h191.93
				l42.648-42.652c35.594-37.254,92.339-37.254,127.953,0l42.652,42.652h191.93c50.346,0,85.3,53.934,85.3,106.625v127.952
				c34.355,18.172,63.977,44.591,63.977,85.3v341.207C959.541,880.46,898.827,941.834,831.588,941.834L831.588,941.834z
				 M895.564,515.327c0-31.179-29.28-65.403-63.164-65.403l-0.812,1.426V280.75c0-42.14-22.05-63.976-63.977-63.976H255.805
				c-41.928,0-63.977,21.837-63.977,63.976v170.601c-33.888,0-63.977,32.798-63.977,63.977v319.882
				c0,31.174,30.088,42.649,63.977,42.649h639.76c33.884,0,63.977-32.798,63.977-63.977V515.327z M529.025,746.707
				c-7.432,3.952-16.315,4.062-23.845,0.299C289.627,639.931,307.967,511.319,308.86,505.924
				c-0.361-1.664,0.361-55.192,35.868-90.76c19.405-19.451,44.677-29.26,75.151-29.26c46.083,0,77.328,21.73,96.82,46.428
				c19.872-24.378,51.051-45.956,96.003-46.428c82.849,0,112.429,70.162,112.363,117.311
				C727.157,594.188,659.364,677.722,529.025,746.707L529.025,746.707z M614.153,437.872c-56.319,0.578-72.269,54.553-72.933,56.832
				c-3.238,11.367-14.306,17.724-25.719,18.958c-11.859-0.2-22.074-8.419-24.82-19.96c-1.365-5.546-15.524-55.831-70.757-55.831
				c-16.335,0-28.768,4.587-38.172,13.991c-17.36,17.36-21.115,48.601-21.05,58.177c-0.811,7.632-10.067,97.607,155.738,184.378
				c102.554-56.917,158.045-123.41,156.593-188.133C672.989,500.57,672.35,437.872,614.153,437.872L614.153,437.872z
				 M614.153,437.872"/>
		</g>
	</g>
</g>
<g id="图层_4" style="display:none;">
	<g style="display:inline;">
		<g>
			<defs>
				<rect id="SVGID_5_" x="63.737" y="81.186" width="896.365" height="861.515"/>
			</defs>
			<clipPath id="SVGID_6_">
				<use xlink:href="#SVGID_5_"  style="overflow:visible;"/>
			</clipPath>
			<path style="clip-path:url(#SVGID_6_);" d="M831.675,941.651H191.728c-67.26,0-127.991-61.392-127.991-127.991
				c0,0,1.112-252.545,1.112-341.88c0-42.665,25.939-67.26,62.884-84.752v-127.99c0-52.707,34.96-106.656,85.325-106.656h191.986
				l42.66-42.664c35.625-37.265,92.366-37.265,127.991,0l42.664,42.664h191.986c50.361,0,85.325,53.95,85.325,106.656v127.99
				c34.365,18.178,63.995,44.604,63.995,85.325V813.66C959.666,880.259,898.934,941.651,831.675,941.651L831.675,941.651z
				 M895.67,515.019c0-31.188-29.289-65.422-63.183-65.422l-0.813,1.427V280.373c0-42.152-22.056-63.995-63.995-63.995H255.723
				c-41.94,0-63.995,21.843-63.995,63.995v170.651c-33.898,0-63.995,32.808-63.995,63.995v319.976
				c0,31.184,30.097,42.661,63.995,42.661h639.947c33.894,0,63.995-32.807,63.995-63.995V515.019z M529.024,746.466
				c-7.434,3.953-16.32,4.063-23.852,0.299c-215.616-107.107-197.25-235.757-196.377-241.153
				c-0.361-1.665,0.361-55.208,35.879-90.787c19.411-19.456,44.69-29.269,75.173-29.269c46.097,0,77.351,21.736,96.868,46.441
				c19.858-24.385,51.046-45.97,96.011-46.441c82.873,0,112.462,70.182,112.396,117.346
				C727.214,593.902,659.401,677.461,529.024,746.466L529.024,746.466z M529.024,746.466"/>
		</g>
	</g>
</g>
<g id="图层_5">
	<g>
		<path d="M913.852,365.546c-0.23-0.23-0.46-6.35-0.704-6.58l6.801-6.933l-6.801,15.178c-11.799-11.586-35.384-23.219-57.3-23.905
			l-21.109-0.294V165.935c0-45.126-24.584-65.298-69.27-65.298H255.996c-44.699,0-68.097,20.168-68.097,65.298l-1.176,175.786
			l-20.863-0.657c-20.654,1.18-38.734,10.564-53.043,24.267l-7.905-14.087l6.721,11.744l0.903,0.264L97.946,344.7l0.367-0.353
			c15.489-14.837,35.585-24.421,57.36-27.518V165.94c0-55.757,45.002-101.117,100.324-101.117H765.47
			c55.317,0,100.324,45.36,100.324,101.117v150.543c23.237,2.711,44.568,12.728,60.854,28.72l0.887,0.878l-13.678,17.105
			L913.852,365.546z M913.852,365.546"/>
		<g>
			<defs>
				<rect id="SVGID_7_" x="69.475" y="64.252" width="884.555" height="895.289"/>
			</defs>
			<clipPath id="SVGID_8_">
				<use xlink:href="#SVGID_7_"  style="overflow:visible;"/>
			</clipPath>
			<path style="clip-path:url(#SVGID_8_);" d="M155.663,325.546h31.056v98.642l-31.056-5.885V325.546z M835.963,281.763h29.879
				v140.835l-29.879,3.533l-1.176-144.369H835.963z M835.963,281.763"/>
			<path style="clip-path:url(#SVGID_8_);" d="M852.411,958.448H170.462c-55.757,0-101.117-41.989-101.117-93.597V407.544
				c0-23.352,9.621-44.504,28.597-62.865c3.789-3.657,9.809-3.601,13.529,0.123L497.446,731.69c3.657,3.661,8.988,5.77,14.595,5.77
				c5.624,0,10.951-2.109,14.621-5.783l386.419-386.41c3.677-3.682,9.617-3.775,13.41-0.217
				c1.151,1.086,28.226,26.888,27.033,62.664v457.13C953.537,916.459,908.168,958.448,852.411,958.448L852.411,958.448z
				 M121.936,407.556v53.64l-0.337,392.693c0,36.036,35.811,63.777,76.936,63.777h621.439c41.125,0,78.108-27.741,78.108-63.777
				l-0.341-392.693c0-0.098-0.003-0.204,0-0.306c-0.003,0.306,0-51.76,0-51.76L535.55,758.28
				c-6.61,6.392-16.001,10.052-25.742,10.052c-9.736,0-19.115-3.669-25.741-10.052L121.936,407.556z M121.936,407.556"/>
		</g>
		<path d="M429.75,407.493l68.302,68.298c3.068,3.081,7.236,4.811,11.586,4.806c4.346,0.004,8.514-1.726,11.577-4.806l68.303-68.298
			c0.46-0.465,0.894-0.954,1.29-1.457c23.616-25.295,23.075-65.213-1.534-89.83c-21.502-21.467-54.637-24.603-79.548-9.362
			c-10.269-6.43-22.15-9.826-34.268-9.796c-17.164-0.047-33.629,6.775-45.731,18.949c-12.17,12.098-18.992,28.566-18.949,45.727
			c-0.047,16.9,6.567,33.135,18.404,45.19C429.375,407.104,429.558,407.292,429.75,407.493"/>
	</g>
</g>
<g id="图层_6" style="display:none;">
	<g style="display:inline;">
		<path d="M914.277,364.987c-0.226-0.235-0.461-6.36-0.699-6.586l6.806-6.939l-6.815,15.187
			c-11.797-11.596-35.412-23.235-57.346-23.926l-21.128-0.295V165.197c0-45.165-24.608-65.355-69.322-65.355H255.845
			c-44.731,0-68.153,20.186-68.153,65.355l-1.177,175.932l-20.885-0.657c-20.672,1.19-38.764,10.582-53.09,24.297l-7.911-14.1
			l6.726,11.754l0.908,0.264l-14.603-18.574l0.358-0.349c15.507-14.842,35.62-24.443,57.419-27.539V165.197
			c0.004-55.802,45.046-101.206,100.413-101.206h509.916c55.367,0,100.409,45.4,100.409,101.206v150.675
			c23.251,2.709,44.611,12.739,60.911,28.745c0.298,0.295,0.597,0.584,0.878,0.874l-13.682,17.128v2.354h-0.004V364.987z
			 M914.277,364.987"/>
		<g>
			<defs>
				<rect id="SVGID_9_" x="69.168" y="63.423" width="885.332" height="896.075"/>
			</defs>
			<clipPath id="SVGID_10_">
				<use xlink:href="#SVGID_9_"  style="overflow:visible;"/>
			</clipPath>
			<path style="clip-path:url(#SVGID_10_);" d="M155.432,324.952h31.083v98.727l-31.083-5.889V324.952z M836.32,281.126h29.914
				v140.963l-29.914,3.541l-1.173-144.504H836.32z M429.759,406.966l68.353,68.358c3.071,3.083,7.246,4.815,11.596,4.811
				c4.351,0.004,8.526-1.727,11.592-4.811l68.363-68.358c0.461-0.456,0.891-0.942,1.292-1.454
				c23.637-25.321,23.104-65.274-1.535-89.909c-21.521-21.487-54.685-24.629-79.613-9.374c-10.278-6.435-22.169-9.831-34.298-9.8
				c-17.179-0.047-33.658,6.781-45.771,18.966c-12.18,12.108-19.013,28.587-18.966,45.767c-0.043,16.91,6.573,33.16,18.42,45.225
				L429.759,406.966"/>
			<path style="clip-path:url(#SVGID_10_);" d="M926.936,344.476c-3.801-3.56-9.741-3.467-13.426,0.214L526.756,731.449
				c-3.673,3.672-9.004,5.779-14.638,5.779c-5.616,0-10.943-2.107-14.607-5.775L111.2,344.225
				c-3.727-3.732-9.753-3.783-13.545-0.119c-18.996,18.373-28.618,39.539-28.618,62.916v457.701
				c0,51.656,45.4,93.682,101.202,93.682h682.543c55.81,0,101.21-42.026,101.206-93.682V407.192
				C955.191,371.388,928.091,345.56,926.936,344.476L926.936,344.476z M926.936,344.476"/>
		</g>
	</g>
</g>
</svg>
