<?xml version="1.0" encoding="utf-8"?>
<!-- Generator: Adobe Illustrator 17.0.0, SVG Export Plug-In . SVG Version: 6.00 Build 0)  -->
<!DOCTYPE svg PUBLIC "-//W3C//DTD SVG 1.1//EN" "http://www.w3.org/Graphics/SVG/1.1/DTD/svg11.dtd">
<svg version="1.1" xmlns="http://www.w3.org/2000/svg" xmlns:xlink="http://www.w3.org/1999/xlink" x="0px" y="0px" width="1024px"
	 height="1024px" viewBox="0 0 1024 1024" style="enable-background:new 0 0 1024 1024;" xml:space="preserve">
<g id="图层_1">
</g>
<g id="图层_2" style="display:none;">
	<g style="display:inline;">
		<g>
			<defs>
				<rect id="SVGID_1_" x="63.871" y="401.871" width="896.484" height="220.421"/>
			</defs>
			<clipPath id="SVGID_2_">
				<use xlink:href="#SVGID_1_"  style="overflow:visible;"/>
			</clipPath>
			<path style="clip-path:url(#SVGID_2_);" d="M172.622,403.047c60.156,0,108.925,48.769,108.925,108.925
				c0,60.162-48.763,108.925-108.925,108.925c-60.156,0-108.925-48.763-108.925-108.925
				C63.697,451.816,112.466,403.047,172.622,403.047L172.622,403.047z M172.622,403.047"/>
		</g>
		<path d="M511.505,403.047c60.156,0,108.925,48.769,108.925,108.925c0,60.162-48.769,108.925-108.925,108.925
			c-60.162,0-108.927-48.763-108.927-108.925C402.578,451.816,451.343,403.047,511.505,403.047L511.505,403.047z M511.505,403.047"
			/>
		<path d="M511.505,403.047c60.156,0,108.925,48.769,108.925,108.925c0,60.162-48.769,108.925-108.925,108.925
			c-60.162,0-108.927-48.763-108.927-108.925C402.578,451.816,451.343,403.047,511.505,403.047L511.505,403.047z M511.505,403.047"
			/>
		<path d="M850.381,403.047c60.162,0,108.931,48.769,108.931,108.925c0,60.162-48.769,108.925-108.931,108.925
			c-60.156,0-108.925-48.763-108.925-108.925C741.456,451.816,790.225,403.047,850.381,403.047L850.381,403.047z M850.381,403.047"
			/>
	</g>
</g>
<g id="图层_3">
	<g>
		<g>
			<defs>
				<rect id="SVGID_3_" x="73.875" y="63.88" width="875.699" height="895.678"/>
			</defs>
			<clipPath id="SVGID_4_">
				<use xlink:href="#SVGID_3_"  style="overflow:visible;"/>
			</clipPath>
			<path style="clip-path:url(#SVGID_4_);" d="M88.862,906.147l37.158,37.157c20.17,20.171,53.009,20.171,73.179,0l504.078-504.077
				c20.17-20.17,20.17-53.009,0-73.179l-37.158-37.158c-20.17-20.17-53.009-20.17-73.179,0L88.862,832.968
				C68.692,853.138,68.692,885.977,88.862,906.147L88.862,906.147z M583.336,508.32l-59.43-59.429l94.55-94.55
				c6.123-6.123,16.148-6.123,22.332,0l37.157,37.163c6.064,6.059,6.064,16.268,0,22.331L583.336,508.32z M114.313,858.419
				l384.078-384.073l59.429,59.429L173.748,917.853c-6.064,6.059-16.268,6.059-22.272,0l-37.163-37.162
				C108.195,874.568,108.195,864.543,114.313,858.419L114.313,858.419z M114.313,858.419"/>
			<path style="clip-path:url(#SVGID_4_);" d="M539.871,205.588c0-8.587-5.642-16.148-13.863-18.673
				c-31.758-9.484-70.839-24.791-78.34-32.293c-7.566-7.566-22.753-46.587-32.358-78.34c-4.923-16.268-32.358-16.511-37.281,0
				c-9.544,31.753-24.851,70.774-32.412,78.34c-7.507,7.503-46.529,22.809-78.222,32.353c-8.226,2.465-13.868,10.026-13.868,18.613
				c0,8.583,5.642,16.145,13.808,18.668c31.753,9.545,70.774,24.851,78.281,32.358c7.561,7.561,22.808,46.582,32.412,78.28
				c2.465,8.221,10.026,13.865,18.673,13.865c8.642,0,16.149-5.643,18.668-13.865c9.485-31.698,24.732-70.719,32.298-78.28
				c7.561-7.566,46.582-22.813,78.28-32.358C534.229,221.796,539.871,214.171,539.871,205.588L539.871,205.588z M461.654,205.588
				c-17.11,7.14-33.378,15.366-41.54,23.532c-8.166,8.103-16.392,24.43-23.413,41.481c-7.145-17.051-15.37-33.378-23.532-41.481
				c-8.166-8.165-24.434-16.391-41.541-23.532c17.106-7.085,33.375-15.31,41.541-23.472c8.162-8.166,16.446-24.494,23.532-41.541
				c7.021,17.106,15.307,33.434,23.473,41.541C428.276,190.278,444.544,198.503,461.654,205.588L461.654,205.588z M461.654,205.588"
				/>
			<path style="clip-path:url(#SVGID_4_);" d="M896.817,168.609c0-6.367-4.145-11.949-10.269-13.748
				c-23.408-7.022-52.285-18.37-57.868-23.894c-5.583-5.583-16.809-34.396-23.894-57.869c-3.659-12.004-23.889-12.187-27.553,0
				c-7.081,23.473-18.37,52.285-23.949,57.869c-5.583,5.524-34.401,16.872-57.814,23.894c-6.064,1.8-10.264,7.442-10.264,13.748
				c0,6.362,4.141,11.945,10.205,13.745c23.472,7.025,52.289,18.311,57.872,23.894c5.579,5.582,16.868,34.396,23.949,57.868
				c1.8,6.064,7.383,10.264,13.748,10.264c6.362,0,11.945-4.14,13.745-10.264c7.025-23.472,18.31-52.285,23.894-57.868
				c5.583-5.583,34.396-16.868,57.868-23.894C892.673,180.555,896.817,174.971,896.817,168.609L896.817,168.609z M821.897,168.609
				c-8.102,3.361-15.846,7.263-19.689,11.167c-3.902,3.837-7.804,11.582-11.106,19.689c-3.362-8.108-7.263-15.852-11.167-19.689
				c-3.842-3.843-11.586-7.805-19.689-11.167c8.103-3.361,15.847-7.263,19.689-11.107c3.903-3.842,7.805-11.586,11.167-19.689
				c3.362,8.103,7.263,15.847,11.106,19.689C806.051,161.346,813.795,165.248,821.897,168.609L821.897,168.609z M821.897,168.609"/>
		</g>
		<path d="M688.57,648.133c0,6.124,4.021,11.588,9.906,13.329c22.748,6.843,50.664,17.765,56.068,23.169
			c5.4,5.405,16.328,33.379,23.17,56.069c1.74,5.885,7.145,9.906,13.328,9.906c6.182,0,11.588-4.022,13.327-9.906
			c6.783-22.69,17.767-50.664,23.171-56.069c5.404-5.404,33.379-16.327,56.068-23.169c5.886-1.8,9.966-7.205,9.966-13.329
			c0-6.123-4.02-11.586-9.966-13.328c-22.688-6.843-50.664-17.77-56.068-23.169c-5.404-5.405-16.268-33.379-23.171-56.069
			c-3.544-11.646-23.174-11.826-26.715,0c-6.842,22.69-17.77,50.664-23.17,56.069c-5.404,5.399-33.319,16.327-56.008,23.169
			C692.591,636.547,688.57,641.951,688.57,648.133L688.57,648.133z M760.485,648.133c8.047-3.302,15.668-7.204,19.51-11.046
			c3.843-3.843,7.686-11.464,11.047-19.511c3.302,8.047,7.205,15.668,11.047,19.511c3.842,3.842,11.463,7.684,19.506,11.046
			c-8.043,3.363-15.664,7.205-19.506,11.047c-3.842,3.779-7.686,11.464-11.047,19.507c-3.362-8.042-7.204-15.663-11.047-19.507
			C776.213,655.338,768.532,651.436,760.485,648.133L760.485,648.133z M760.485,648.133"/>
		<path d="M874.064,518.048c-4.502,0-8.464-2.944-9.723-7.204c-4.983-16.571-12.966-36.92-16.928-40.881
			c-3.962-3.962-24.315-11.885-40.881-16.868c-4.264-1.264-7.205-5.226-7.205-9.728c0-4.502,2.941-8.464,7.265-9.723
			c16.566-4.983,36.919-12.966,40.821-16.868c3.962-3.962,11.885-24.315,16.928-40.881c2.578-8.647,16.867-8.523,19.451,0
			c4.978,16.566,12.965,36.919,16.867,40.881c3.962,3.902,24.311,11.885,40.881,16.868c4.319,1.259,7.265,5.221,7.265,9.723
			c0,4.502-2.945,8.464-7.265,9.728c-16.57,4.983-36.919,12.965-40.881,16.868c-3.962,3.961-11.889,24.31-16.867,40.881
			C882.527,515.104,878.567,518.048,874.064,518.048L874.064,518.048z M874.064,518.048"/>
	</g>
</g>
</svg>
