<?xml version="1.0" encoding="utf-8"?>
<!-- Generator: Adobe Illustrator 17.0.0, SVG Export Plug-In . SVG Version: 6.00 Build 0)  -->
<!DOCTYPE svg PUBLIC "-//W3C//DTD SVG 1.1//EN" "http://www.w3.org/Graphics/SVG/1.1/DTD/svg11.dtd">
<svg version="1.1" xmlns="http://www.w3.org/2000/svg" xmlns:xlink="http://www.w3.org/1999/xlink" x="0px" y="0px" width="1024px"
	 height="1024px" viewBox="0 0 1024 1024" style="enable-background:new 0 0 1024 1024;" xml:space="preserve">
<g id="图层_1">
</g>
<g id="图层_2">
	<g>
		<g>
			<defs>
				<rect id="SVGID_1_" x="67.875" y="64.143" width="888.396" height="895.915"/>
			</defs>
			<clipPath id="SVGID_2_">
				<use xlink:href="#SVGID_1_"  style="overflow:visible;"/>
			</clipPath>
			<path style="clip-path:url(#SVGID_2_);" d="M852.458,471.881c-44.583,0-82.642,28.586-96.777,68.434H677.88
				c1.542-9.259,2.528-18.728,2.528-28.581c0-63.106-35.396-117.969-87.347-145.889l29.815-98.605
				c7.719,1.861,15.856,2.911,24.241,2.911c56.685,0,102.707-45.987,102.707-102.809c0-56.725-46.022-102.707-102.707-102.707
				c-56.754,0-102.741,45.983-102.741,102.707c0,43.109,26.447,79.867,63.982,95.163l-29.222,96.782
				c-19.715-8.385-41.496-12.949-64.297-12.949c-43.003,0-82.044,16.313-111.51,43.114l-152.9-152.941l-1.651,1.758
				c17.435-18.451,28.201-43.358,28.201-70.824c0-56.72-45.914-102.707-102.702-102.707c-56.759,0-102.746,45.987-102.746,102.707
				c0,56.86,45.987,102.813,102.746,102.813c27.462,0,52.37-10.806,70.748-28.27l-5.4,5.293l152.971,152.9
				c-26.87,29.435-43.284,68.613-43.284,111.62c0,37.603,12.589,72.29,33.743,100.107L252.038,717.702
				c-18.797-24.518-48.336-40.408-81.622-40.408c-56.719,0-102.672,46.09-102.672,102.81c0,56.685,45.953,102.706,102.672,102.706
				c56.72,0,102.775-46.021,102.775-102.706c0-17.956-4.666-34.867-12.768-49.565L392.77,623.695
				c30.238,32.903,73.699,53.672,122.072,53.672c24.552,0,47.737-5.298,68.678-14.946l46.093,104.495
				c-31.113,17.679-52.019,51.003-52.019,89.272c0,56.753,46.021,102.775,102.809,102.775c56.719,0,102.639-46.022,102.639-102.775
				c0-56.685-45.919-102.741-102.639-102.741c-13.153,0-25.572,2.562-37.112,6.907L597.13,655.407
				c37.427-21.47,65.736-57.283,77.343-99.864h77.139c-1.23,6.135-1.72,12.449-1.72,19.01c0,56.72,45.953,102.741,102.634,102.741
				c56.826,0,102.818-46.021,102.818-102.741C955.268,517.868,909.353,471.881,852.458,471.881L852.458,471.881z M852.458,471.881"
				/>
		</g>
	</g>
</g>
</svg>
