<?xml version="1.0" encoding="utf-8"?>
<!-- Generator: Adobe Illustrator 17.0.0, SVG Export Plug-In . SVG Version: 6.00 Build 0)  -->
<!DOCTYPE svg PUBLIC "-//W3C//DTD SVG 1.1//EN" "http://www.w3.org/Graphics/SVG/1.1/DTD/svg11.dtd">
<svg version="1.1" xmlns="http://www.w3.org/2000/svg" xmlns:xlink="http://www.w3.org/1999/xlink" x="0px" y="0px" width="1024px"
	 height="1024px" viewBox="0 0 1024 1024" style="enable-background:new 0 0 1024 1024;" xml:space="preserve">
<g id="图层_1">
</g>
<g id="图层_2">
	<g>
		<g>
			<defs>
				<rect id="SVGID_1_" x="166.415" y="64.041" width="691.32" height="896.095"/>
			</defs>
			<clipPath id="SVGID_2_">
				<use xlink:href="#SVGID_1_"  style="overflow:visible;"/>
			</clipPath>
			<path style="clip-path:url(#SVGID_2_);fill:#D9D7D8;" d="M849.569,913.723H460.442l272.752-98.868
				c16.904-6.121,30.406-18.459,38.024-34.739c7.618-16.281,8.44-34.556,2.312-51.454l-17.674-48.774
				c-2.179-5.997-8.804-9.096-14.796-6.922c-5.999,2.172-9.098,8.799-6.924,14.791l17.681,48.776
				c4.02,11.099,3.485,23.101-1.523,33.794c-5.001,10.691-13.866,18.796-24.967,22.817L418.372,904.398
				c-11.099,4.022-23.099,3.483-33.79-1.518c-10.693-5.008-18.796-13.873-22.819-24.968l-169.6-467.922
				c-8.305-22.91,3.579-48.303,26.489-56.609l306.954-111.26c11.098-4.022,23.096-3.482,33.79,1.521
				c10.693,5.003,18.796,13.872,22.814,24.959l69.278,191.804c2.167,6.001,8.785,9.106,14.786,6.939
				c5.999-2.167,9.106-8.787,6.939-14.786l-69.283-191.816c-6.126-16.9-18.464-30.401-34.744-38.02
				c-16.28-7.619-34.554-8.44-51.451-2.314L210.78,331.667c-34.886,12.643-52.977,51.311-40.335,86.195l169.604,467.92
				c8.247,22.754,27.569,38.352,49.689,42.951c1.319,0.856,2.863,1.316,4.437,1.316h5.782c1.138,0.06,2.28,0.096,3.422,0.101
				c1.142,0,2.285-0.041,3.43-0.101h442.759c4.509,0,8.166-3.658,8.166-8.166c0-4.507-3.658-8.165-8.166-8.165V913.723
				L849.569,913.723z M690.194,184.898c-4.751,0-9.467-2.042-12.73-5.991c-5.803-7.026-4.813-17.427,2.212-23.228l48.54-40.102
				c7.023-5.803,17.423-4.815,23.226,2.212c5.801,7.025,4.815,17.425-2.212,23.228l-48.539,40.1
				c-2.952,2.446-6.666,3.782-10.499,3.781H690.194L690.194,184.898z M780.42,298.325c-1.08,0-2.186-0.108-3.283-0.332
				l-56.604-11.431c-8.932-1.803-14.709-10.508-12.906-19.438c1.805-8.932,10.51-14.707,19.437-12.906l56.604,11.431
				c8.934,1.803,14.713,10.508,12.904,19.438C794.992,292.919,788.109,298.325,780.42,298.325L780.42,298.325z M596.782,153.285
				c-7.498,0-14.282-5.143-16.054-12.761l-13.097-56.24c-2.066-8.872,3.451-17.743,12.326-19.811
				c8.874-2.065,17.745,3.454,19.811,12.328l13.099,56.242c2.065,8.872-3.453,17.743-12.328,19.811
				C599.306,153.14,598.046,153.285,596.782,153.285L596.782,153.285L596.782,153.285z M619.849,960.136H386.587
				c-3.644,0.055-6.647-2.851-6.703-6.497c-0.058-3.646,2.849-6.649,6.495-6.705c0.07,0,0.138,0,0.208,0h233.262
				c3.644,0,6.597,2.957,6.597,6.597C626.446,957.179,623.494,960.136,619.849,960.136L619.849,960.136z"/>
		</g>
		<path style="fill:#D9D7D8;" d="M566.347,607.817c-2.07,0-3.919-1.284-4.64-3.222c-0.955-2.562,0.349-5.411,2.909-6.367l0,0
			l46.38-17.286c2.562-0.957,5.413,0.347,6.367,2.909c0.954,2.56-0.347,5.413-2.909,6.367l-46.38,17.286
			c-0.552,0.207-1.137,0.311-1.726,0.311V607.817L566.347,607.817z M495.233,634.326c-2.736,0-4.951-2.219-4.95-4.95
			c0-2.068,1.284-3.916,3.22-4.639l46.378-17.29c2.56-0.954,5.408,0.345,6.363,2.906c0.002,0.002,0.002,0.003,0.003,0.005
			c0.955,2.56-0.349,5.411-2.907,6.365c-0.002,0-0.002,0-0.002,0l-46.38,17.29C496.408,634.22,495.821,634.326,495.233,634.326
			L495.233,634.326L495.233,634.326z M424.117,660.833c-2.066,0-3.917-1.282-4.639-3.22c-0.954-2.565,0.347-5.415,2.907-6.367l0,0
			l46.38-17.29c2.559-0.957,5.41,0.342,6.367,2.9c0,0.005,0,0.005,0.002,0.005c0.954,2.567-0.347,5.416-2.909,6.368h-0.002
			l-46.378,17.29C425.293,660.729,424.706,660.833,424.117,660.833L424.117,660.833L424.117,660.833z M370.278,680.901
			c-2.068,0-3.919-1.282-4.64-3.22c-0.955-2.559,0.347-5.411,2.909-6.367l0,0l29.102-10.85c2.557-0.964,5.415,0.325,6.382,2.88
			c0.966,2.557-0.321,5.415-2.878,6.377c-0.017,0.007-0.029,0.012-0.046,0.019l-29.102,10.846
			C371.45,680.793,370.866,680.901,370.278,680.901L370.278,680.901L370.278,680.901z M506.791,757.412L460.409,774.7
			c-2.735-0.007-4.957,2.207-4.963,4.94c-0.003,2.733,2.208,4.957,4.943,4.963c0.598,0,1.193-0.108,1.752-0.316
			c0.573,0,1.157-0.099,1.726-0.313l46.38-17.288c2.56-0.952,3.863-3.798,2.911-6.362c0,0,0,0-0.002,0
			c-0.952-2.565-3.799-3.864-6.36-2.912C506.794,757.412,506.792,757.412,506.791,757.412L506.791,757.412L506.791,757.412z
			 M435.674,783.917l-34.036,12.685c-2.559,0.954-3.864,3.803-2.911,6.363l0.002,0.005c0.723,1.938,2.572,3.22,4.64,3.225
			c0.573,0,1.157-0.104,1.726-0.313l34.036-12.691c2.56-0.952,3.863-3.798,2.909-6.356c0-0.007,0-0.007-0.002-0.007
			c-0.95-2.559-3.799-3.863-6.36-2.912C435.677,783.917,435.676,783.917,435.674,783.917L435.674,783.917L435.674,783.917z
			 M769.442,419.592l-17.945-9.737c-7.156-3.885-17.416,1.172-22.911,11.298L579.278,696.341c-0.663,1.225-1.007,2.577-0.966,3.82
			l0.979,30.445c-0.473,0.027-0.942,0.128-1.388,0.297l-46.38,17.288c-2.735-0.007-4.957,2.207-4.963,4.94
			c-0.005,2.738,2.207,4.957,4.941,4.962c0.6,0.007,1.191-0.101,1.754-0.313c0.573,0,1.157-0.101,1.726-0.315l44.638-16.639
			l0.012,0.357c0.108,3.355,2.87,4.857,5.741,3.114l35.113-21.253c1.063-0.644,2.01-1.668,2.675-2.89l149.306-275.189
			c5.493-10.129,4.138-21.486-3.025-25.373V419.592L769.442,419.592z"/>
	</g>
</g>
</svg>
