<?xml version="1.0" encoding="utf-8"?>
<!-- Generator: Adobe Illustrator 17.0.0, SVG Export Plug-In . SVG Version: 6.00 Build 0)  -->
<!DOCTYPE svg PUBLIC "-//W3C//DTD SVG 1.1//EN" "http://www.w3.org/Graphics/SVG/1.1/DTD/svg11.dtd">
<svg version="1.1" xmlns="http://www.w3.org/2000/svg" xmlns:xlink="http://www.w3.org/1999/xlink" x="0px" y="0px" width="1024px"
	 height="1024px" viewBox="0 0 1024 1024" style="enable-background:new 0 0 1024 1024;" xml:space="preserve">
<g id="图层_1">
</g>
<g id="图层_2" style="display:none;">
	<g style="display:inline;">
		<g>
			<defs>
				<rect id="SVGID_1_" x="63.896" y="109.265" width="896.346" height="805.696"/>
			</defs>
			<clipPath id="SVGID_2_">
				<use xlink:href="#SVGID_1_"  style="overflow:visible;"/>
			</clipPath>
			<path style="clip-path:url(#SVGID_2_);fill:#3B3C3C;" d="M424.666,914.961h39.251c0,0,0.497-173.943,0-187.11
				s5.197-27.598,10.932-34.284l435.742-507.786c0,0-118.681,606.492-120.259,614.531c-1.225,6.21-5.282,8.857-10.913,7.037
				c-6.794-2.2-254.888-79.498-254.888-79.498l-12.605,38.255c0,0,235.554,73.988,259.045,80.992
				c25.836,7.7,52.666-8.948,58.136-38.259c4.512-24.188,127.38-649.568,129.182-660.819c1.802-11.249,6.781-27.16-12.15-36.298
				c-14.014-6.765-30.913,7.812-30.913,7.812l-5.301-10.27c0,0-796.376,425.225-824.778,440.545
				c-28.404,15.319-27.145,47.585-3.313,55.319c23.831,7.731,264.329,85.787,264.329,85.787l12.254-37.76L120.59,576.641
				l743.296-397.817c0,0-397.483,463.069-413.882,481.952c-16.396,18.879-25.62,38.506-25.588,63.348L424.666,914.961
				L424.666,914.961L424.666,914.961z"/>
		</g>
	</g>
</g>
<g id="图层_3">
	<g>
		<path style="fill:#3B3C3C;" d="M737.873,913.989H286.318c-12.661,0-22.964-10.301-22.964-22.961V750.824h497.484v140.204
			C760.838,903.687,750.534,913.989,737.873,913.989L737.873,913.989z M286.318,110.258h451.553
			c12.663,0,22.966,10.303,22.966,22.963v567.747H263.354V133.221C263.354,120.56,273.657,110.258,286.318,110.258L286.318,110.258z
			 M737.873,64.33H286.318c-37.986,0-68.891,30.906-68.891,68.891v757.807c0,37.987,30.906,68.89,68.891,68.89h451.553
			c37.986,0,68.893-30.902,68.893-68.89V133.221C806.765,95.236,775.859,64.33,737.873,64.33L737.873,64.33z M512.095,782.643
			c-25.162,0-45.635,20.469-45.635,45.637c0,25.162,20.472,45.635,45.635,45.635c25.164,0,45.637-20.472,45.637-45.635
			C557.731,803.112,537.259,782.643,512.095,782.643L512.095,782.643z"/>
	</g>
</g>
</svg>
