<?xml version="1.0" encoding="utf-8"?>
<!-- Generator: Adobe Illustrator 17.0.0, SVG Export Plug-In . SVG Version: 6.00 Build 0)  -->
<!DOCTYPE svg PUBLIC "-//W3C//DTD SVG 1.1//EN" "http://www.w3.org/Graphics/SVG/1.1/DTD/svg11.dtd">
<svg version="1.1" xmlns="http://www.w3.org/2000/svg" xmlns:xlink="http://www.w3.org/1999/xlink" x="0px" y="0px" width="1024px"
	 height="1024px" viewBox="0 0 1024 1024" style="enable-background:new 0 0 1024 1024;" xml:space="preserve">
<g id="图层_1">
</g>
<g id="图层_2">
	<g>
		<path d="M744.357,481.876L111.524,92.441c-26.778-16.486-47.791-4.304-47.791,26.668v784.351
			c0,31.169,21.399,42.907,47.791,26.668l632.833-389.435C771.135,524.218,770.752,498.114,744.357,481.876L744.357,481.876z
			 M904.209,63.027c-31.158,0-56.031,25.111-56.031,56.083v784.351c0,31.169,25.085,56.074,56.031,56.074
			c31.16,0,56.031-25.102,56.031-56.074V119.11C960.24,87.94,935.155,63.027,904.209,63.027L904.209,63.027z M904.209,63.027"/>
	</g>
</g>
</svg>
