<?xml version="1.0" encoding="utf-8"?>
<!-- Generator: Adobe Illustrator 17.0.0, SVG Export Plug-In . SVG Version: 6.00 Build 0)  -->
<!DOCTYPE svg PUBLIC "-//W3C//DTD SVG 1.1//EN" "http://www.w3.org/Graphics/SVG/1.1/DTD/svg11.dtd">
<svg version="1.1" xmlns="http://www.w3.org/2000/svg" xmlns:xlink="http://www.w3.org/1999/xlink" x="0px" y="0px" width="1024px"
	 height="1024px" viewBox="0 0 1024 1024" style="enable-background:new 0 0 1024 1024;" xml:space="preserve">
<g id="图层_1">
</g>
<g id="图层_2" style="display:none;">
	<g style="display:inline;">
		<path d="M744.357,481.876L111.524,92.441c-26.778-16.486-47.791-4.304-47.791,26.668v784.351
			c0,31.169,21.399,42.907,47.791,26.668l632.833-389.435C771.135,524.218,770.752,498.114,744.357,481.876L744.357,481.876z
			 M904.209,63.027c-31.158,0-56.031,25.111-56.031,56.083v784.351c0,31.169,25.085,56.074,56.031,56.074
			c31.16,0,56.031-25.102,56.031-56.074V119.11C960.24,87.94,935.155,63.027,904.209,63.027L904.209,63.027z M904.209,63.027"/>
	</g>
</g>
<g id="图层_3">
	<g>
		<path d="M279.798,541.389l632.655,389.331c26.773,16.473,47.778,4.303,47.778-26.661V119.916
			c0-31.161-21.391-42.904-47.778-26.661L279.798,482.585C253.028,499.058,253.404,525.146,279.798,541.389L279.798,541.389z
			 M119.98,960.117c31.152,0,56.016-25.096,56.016-56.059V119.916c0-31.161-25.078-56.068-56.016-56.068
			c-31.152,0-56.016,25.104-56.016,56.068v784.142C63.965,935.21,89.043,960.117,119.98,960.117L119.98,960.117z M119.98,960.117"/>
	</g>
</g>
</svg>
