<?xml version="1.0" encoding="utf-8"?>
<!-- Generator: Adobe Illustrator 17.0.0, SVG Export Plug-In . SVG Version: 6.00 Build 0)  -->
<!DOCTYPE svg PUBLIC "-//W3C//DTD SVG 1.1//EN" "http://www.w3.org/Graphics/SVG/1.1/DTD/svg11.dtd">
<svg version="1.1" xmlns="http://www.w3.org/2000/svg" xmlns:xlink="http://www.w3.org/1999/xlink" x="0px" y="0px" width="1024px"
	 height="1024px" viewBox="0 0 1024 1024" style="enable-background:new 0 0 1024 1024;" xml:space="preserve">
<g id="图层_1">
</g>
<g id="图层_2" style="display:none;">
	<g style="display:inline;">
		<path d="M512.262,959.683C293.919,959.683,117,871.225,117,762.054c0-70.351,73.741-131.976,184.475-167.019v52.892
			c-80.121,26.576-131.71,67.743-131.71,114.127c0,80.117,153.34,144.999,342.632,144.999s342.627-64.881,342.627-144.999
			c0-46.384-51.72-87.551-131.71-114.127v-52.892c110.734,35.044,184.475,96.668,184.475,167.019
			C907.528,871.095,730.609,959.683,512.262,959.683L512.262,959.683z M526.073,788.239l-13.811,13.284l-13.676-13.153
			c-10.161-9.643-249.871-238.277-249.871-461.189c0-145.909,118.16-263.29,263.547-263.29
			c145.394,0,263.556,118.684,263.556,264.593C775.818,545.528,536.234,778.335,526.073,788.239L526.073,788.239z M512.262,116.003
			c-116.075,0-210.786,99.145-210.786,211.182c0,159.462,162.978,348.494,210.786,395.266
			c47.683-47.683,210.791-240.102,210.791-395.266C723.053,215.144,628.34,116.003,512.262,116.003L512.262,116.003z M380.033,353.5
			c0-72.569,59.276-131.584,132.103-131.584c72.956,0,132.232,59.015,132.232,131.584c0,72.565-59.281,131.709-132.232,131.709
			C439.309,485.21,380.033,426.065,380.033,353.5L380.033,353.5z M591.342,353.5c0-43.385-35.436-78.689-79.08-78.689
			c-43.641,0-79.076,35.304-79.076,78.689c0,43.379,35.435,78.688,79.076,78.688C555.906,432.188,591.342,396.884,591.342,353.5
			L591.342,353.5z M591.342,353.5"/>
	</g>
</g>
<g id="图层_3" style="display:none;">
	<g style="display:inline;">
		<path d="M64.003,287.939l448.172,448.172l448.172-448.172H64.003z M64.003,287.939"/>
	</g>
</g>
<g id="图层_4" style="display:none;">
	<g style="display:inline;">
		<path d="M735.992,63.859l-447.93,447.93l447.93,447.93V63.859z M735.992,63.859"/>
	</g>
</g>
<g id="图层_5" style="display:none;">
	<g style="display:inline;">
		<path d="M288.247,63.817l447.924,447.924L288.247,959.665V63.817z M288.247,63.817"/>
	</g>
</g>
<g id="图层_6" style="display:none;">
	<g style="display:inline;">
		<path d="M64.212,736.483l447.987-447.987l447.987,447.987H64.212z M64.212,736.483"/>
	</g>
</g>
<g id="图层_7" style="display:none;">
	<g style="display:inline;">
		<g>
			<defs>
				<rect id="SVGID_1_" x="64.212" y="273.174" width="895.974" height="477.689"/>
			</defs>
			<clipPath id="SVGID_2_">
				<use xlink:href="#SVGID_1_"  style="overflow:visible;"/>
			</clipPath>
			<path style="clip-path:url(#SVGID_2_);" d="M72.408,281.961c-5.456,5.454-8.195,12.616-8.195,19.777
				c0,7.154,2.74,14.317,8.195,19.771L491.923,741.02c10.937,10.935,28.606,10.935,39.543,0l419.516-419.511
				c10.937-10.935,10.937-28.613,0-39.548c-10.935-10.935-28.611-10.935-39.548,0l-399.739,399.74l-399.74-399.74
				C101.019,271.026,83.315,271.026,72.408,281.961L72.408,281.961z M72.408,281.961"/>
		</g>
	</g>
</g>
<g id="图层_8" style="display:none;">
	<g style="display:inline;">
		<g>
			<defs>
				<rect id="SVGID_3_" x="275" y="63.89" width="475.109" height="895.837"/>
			</defs>
			<clipPath id="SVGID_4_">
				<use xlink:href="#SVGID_3_"  style="overflow:visible;"/>
			</clipPath>
			<path style="clip-path:url(#SVGID_4_);" d="M741.335,73.069c-5.443-5.443-12.583-8.179-19.731-8.179
				c-7.147,0-14.293,2.736-19.732,8.179L283.186,491.757c-10.915,10.913-10.915,28.549,0,39.463l418.686,418.686
				c10.915,10.915,28.549,10.915,39.463,0c10.915-10.914,10.915-28.555,0-39.468l-398.948-398.95l398.948-398.95
				C752.25,101.625,752.25,83.957,741.335,73.069L741.335,73.069z M741.335,73.069"/>
		</g>
	</g>
</g>
<g id="图层_9" style="display:none;">
	<g style="display:inline;">
		<g>
			<defs>
				<rect id="SVGID_5_" x="274.458" y="63.868" width="475.12" height="895.859"/>
			</defs>
			<clipPath id="SVGID_6_">
				<use xlink:href="#SVGID_5_"  style="overflow:visible;"/>
			</clipPath>
			<path style="clip-path:url(#SVGID_6_);" d="M282.644,949.914c5.443,5.443,12.59,8.179,19.732,8.179
				c7.147,0,14.294-2.736,19.739-8.179l418.689-418.698c10.915-10.914,10.915-28.548,0-39.464L322.115,73.056
				c-10.915-10.915-28.557-10.915-39.471,0c-10.915,10.914-10.915,28.555,0,39.471l398.957,398.957L282.644,910.444
				C271.729,921.357,271.729,939.026,282.644,949.914L282.644,949.914z M282.644,949.914"/>
		</g>
	</g>
</g>
<g id="图层_10" style="display:none;">
	<g style="display:inline;">
		<g>
			<defs>
				<rect id="SVGID_7_" x="64" y="272.89" width="896.355" height="477.892"/>
			</defs>
			<clipPath id="SVGID_8_">
				<use xlink:href="#SVGID_7_"  style="overflow:visible;"/>
			</clipPath>
			<path style="clip-path:url(#SVGID_8_);" d="M951.153,740.935c5.458-5.458,8.199-12.615,8.199-19.779
				c0-7.166-2.741-14.33-8.199-19.779L531.458,281.681c-10.94-10.94-28.617-10.94-39.558,0L72.206,701.377
				c-10.941,10.94-10.941,28.616,0,39.558c10.94,10.94,28.623,10.94,39.565,0l399.908-399.91l399.91,399.91
				C922.528,751.875,940.241,751.875,951.153,740.935L951.153,740.935z M951.153,740.935"/>
		</g>
	</g>
</g>
<g id="图层_11" style="display:none;">
	<g style="display:inline;">
		<path d="M760.622,113.49L312.574,560.84L262,510.188L710.049,62.836L760.622,113.49z M760.622,113.49"/>
		<path d="M312.984,461.03L760.34,909.079l-50.652,50.573L262.332,511.603L312.984,461.03z M312.984,461.03"/>
	</g>
</g>
<g id="图层_12" style="display:none;">
	<g style="display:inline;">
		<path d="M539.394,466.715c-44.756,0-27.969,55.943-83.917,67.134l-16.782,5.597c-27.97,5.591-33.565,5.591-33.565,27.969
			c0,22.379,11.188,27.974,22.379,27.974h67.13v184.617c0,27.969,5.596,44.752,33.57,44.752c27.97,0,33.565-22.379,33.565-44.752
			V500.285C556.177,472.311,544.989,466.715,539.394,466.715L539.394,466.715z M539.394,466.715"/>
		<path d="M321.212,282.098h11.191c16.782,0,27.969-11.187,27.969-27.97V119.864c0-16.788-11.187-27.974-27.969-27.974h-11.191
			c-16.783,0-27.97,11.187-27.97,27.974v139.861C293.242,270.912,304.429,282.098,321.212,282.098L321.212,282.098z
			 M321.212,282.098"/>
		<g>
			<defs>
				<rect id="SVGID_9_" x="64" y="91.89" width="895.851" height="839.163"/>
			</defs>
			<clipPath id="SVGID_10_">
				<use xlink:href="#SVGID_9_"  style="overflow:visible;"/>
			</clipPath>
			<path style="clip-path:url(#SVGID_10_);" d="M679.254,282.098h11.191c16.783,0,27.97-11.187,27.97-27.97V119.864
				c0-16.788-11.187-27.974-27.97-27.974h-11.191c-16.782,0-27.969,11.187-27.969,27.974v139.861
				C651.285,270.912,668.068,282.098,679.254,282.098L679.254,282.098z M679.254,282.098"/>
			<path style="clip-path:url(#SVGID_10_);" d="M835.898,159.024h-72.726v50.349h72.726c33.569,0,61.539,27.973,61.539,61.539
				v55.943h-783.22v-55.943c0-33.566,27.974-61.539,61.539-61.539h72.731v-50.349h-67.134c-67.135,0-117.483,55.944-117.483,117.483
				V813.57c0,61.54,50.348,117.483,117.483,117.483h660.142c61.539,0,117.482-50.348,117.482-117.483V276.507
				C953.38,214.968,903.032,159.024,835.898,159.024L835.898,159.024z M835.898,875.11H181.352c-33.565,0-61.54-27.974-61.54-61.54
				V382.798h783.22V813.57C903.032,847.136,875.058,875.11,835.898,875.11L835.898,875.11z M835.898,875.11"/>
		</g>
		<rect x="399.533" y="159.024" width="223.778" height="50.348"/>
	</g>
</g>
<g id="图层_13" style="display:none;">
	<g style="display:inline;">
		<g>
			<defs>
				<rect id="SVGID_11_" x="279.511" y="63.392" width="464.899" height="896.166"/>
			</defs>
			<clipPath id="SVGID_12_">
				<use xlink:href="#SVGID_11_"  style="overflow:visible;"/>
			</clipPath>
			<path style="clip-path:url(#SVGID_12_);" d="M279.511,63.959c22.363,326.495,228.098,639.571,465.143,894.506V399.398
				C565.754,318.895,391.322,211.553,279.511,63.959L279.511,63.959z M279.511,63.959"/>
		</g>
	</g>
</g>
<g id="图层_14" style="display:none;">
	<g style="display:inline;">
		<g>
			<defs>
				<rect id="SVGID_13_" x="279" y="62.89" width="465.159" height="896.668"/>
			</defs>
			<clipPath id="SVGID_14_">
				<use xlink:href="#SVGID_13_"  style="overflow:visible;"/>
			</clipPath>
			<path style="clip-path:url(#SVGID_14_);" d="M279,399.085v559.38C516.179,703.387,722.029,390.136,744.404,63.458
				C632.53,211.134,458.001,318.536,279,399.085L279,399.085z M279,399.085"/>
		</g>
	</g>
</g>
<g id="图层_15" style="display:none;">
	<g style="display:inline;">
		<g>
			<defs>
				<rect id="SVGID_15_" x="63" y="194.89" width="897.355" height="633.674"/>
			</defs>
			<clipPath id="SVGID_16_">
				<use xlink:href="#SVGID_15_"  style="overflow:visible;"/>
			</clipPath>
			<path style="clip-path:url(#SVGID_16_);" d="M948.261,205.224c-14.992-14.064-38.641-13.392-52.707,1.639L398.089,736.522
				L126.341,468.764c-14.697-14.474-38.306-14.326-52.781,0.37c-14.474,14.663-14.287,38.312,0.41,52.746l298.978,294.544
				c0.114,0.108,0.262,0.149,0.376,0.256c0.108,0.114,0.147,0.262,0.262,0.376c2.344,2.237,5.184,3.506,7.905,4.996
				c1.343,0.785,2.499,1.941,3.917,2.499c4.399,1.719,9.066,2.613,13.688,2.613c4.89,0,9.773-0.968,14.326-2.908
				c1.531-0.637,2.722-1.941,4.138-2.76c2.801-1.645,5.709-3.023,8.094-5.448c0.114-0.114,0.153-0.296,0.262-0.409
				c0.073-0.114,0.227-0.149,0.335-0.262l523.614-557.446C964.044,242.972,963.259,219.362,948.261,205.224L948.261,205.224z
				 M948.261,205.224"/>
		</g>
	</g>
</g>
<g id="图层_16" style="display:none;">
	<g style="display:inline;">
		<g>
			<defs>
				<rect id="SVGID_17_" x="64.006" y="63.397" width="893.021" height="894.289"/>
			</defs>
			<clipPath id="SVGID_18_">
				<use xlink:href="#SVGID_17_"  style="overflow:visible;"/>
			</clipPath>
			<path style="clip-path:url(#SVGID_18_);" d="M862.577,64.242H157.152c-51.444,0-93.304,41.86-93.304,93.304v705.565
				c0,51.445,41.86,93.304,93.304,93.304h705.565c51.445,0,93.304-41.859,93.304-93.304V157.547
				C956.021,106.103,914.022,64.242,862.577,64.242L862.577,64.242z M458.348,787.846L188.303,513.289l69.06-55.534l156.168,122.338
				c63.704-75.967,205.779-227.338,401.55-347.282l16.63,38.195C651.864,436.337,504.718,668.894,458.348,787.846L458.348,787.846z
				 M458.348,787.846"/>
		</g>
	</g>
</g>
<g id="图层_17" style="display:none;">
	<g style="display:inline;">
		<g>
			<defs>
				<rect id="SVGID_19_" x="63.006" y="63.897" width="894.391" height="895.661"/>
			</defs>
			<clipPath id="SVGID_20_">
				<use xlink:href="#SVGID_19_"  style="overflow:visible;"/>
			</clipPath>
			<path style="clip-path:url(#SVGID_20_);" d="M862.802,64.744H156.295c-51.523,0-93.448,41.925-93.448,93.448v706.647
				c0,51.524,41.925,93.448,93.448,93.448h706.647c51.524,0,93.448-41.923,93.448-93.448V158.191
				C956.39,106.668,914.327,64.744,862.802,64.744L862.802,64.744z M894.704,864.839c0,17.503-14.258,31.9-31.901,31.9H156.295
				c-17.503,0-31.9-14.251-31.9-31.9V158.191c0-17.503,14.257-31.9,31.9-31.9h706.647c17.503,0,31.9,14.257,31.9,31.9
				L894.704,864.839z M894.704,864.839"/>
		</g>
	</g>
</g>
<g id="图层_18" style="display:none;">
	<g style="display:inline;">
		<g>
			<defs>
				<rect id="SVGID_21_" x="63.503" y="63.393" width="895.204" height="896.165"/>
			</defs>
			<clipPath id="SVGID_22_">
				<use xlink:href="#SVGID_21_"  style="overflow:visible;"/>
			</clipPath>
			<path style="clip-path:url(#SVGID_22_);" d="M901.966,259.633v-55.901c0-46.317-37.544-83.861-83.857-83.861l-55.905-0.004
				V63.961h55.905c77.19,0,139.766,62.577,139.766,139.771v55.901H901.966z M901.97,511.219
				c0,148.221-82.436,277.162-203.935,343.578l92.119,103.669h-83.861l-75.053-75.052c-38.016,12.318-78.494,19.151-120.618,19.151
				c-42.121,0-82.603-6.838-120.62-19.151l-75.053,75.052h-83.86l92.122-103.669C201.713,788.381,119.277,659.44,119.277,511.219
				c0-216.137,175.211-391.348,391.345-391.348C726.754,119.871,901.97,295.082,901.97,511.219L901.97,511.219z M510.622,175.781
				c-185.256,0-335.435,150.174-335.435,335.438c0,185.257,150.179,335.435,335.435,335.435
				c185.26,0,335.438-150.178,335.438-335.435C846.06,325.954,695.882,175.781,510.622,175.781L510.622,175.781z M706.294,539.166
				H510.622c-15.437,0-27.951-12.515-27.951-27.954V287.588c0-15.441,12.515-27.955,27.951-27.955
				c15.44,0,27.954,12.515,27.954,27.955V483.26h167.722c15.437,0,27.95,12.519,27.95,27.951
				C734.248,526.651,721.735,539.166,706.294,539.166L706.294,539.166z M203.138,119.871c-46.313,0-83.861,37.544-83.861,83.861
				v55.901H63.372v-55.901c0-77.194,62.577-139.771,139.766-139.771h55.906v55.906L203.138,119.871z M203.138,119.871"/>
		</g>
	</g>
</g>
<g id="图层_19" style="display:none;">
	<g style="display:inline;">
		<g>
			<defs>
				<rect id="SVGID_23_" x="64.014" y="63.904" width="893.771" height="895.654"/>
			</defs>
			<clipPath id="SVGID_24_">
				<use xlink:href="#SVGID_23_"  style="overflow:visible;"/>
			</clipPath>
			<path style="clip-path:url(#SVGID_24_);" d="M577.244,511.309l365.608-365.608c18.475-18.446,18.475-48.42,0-66.898
				c-18.485-18.448-48.422-18.448-66.899,0L510.346,444.41L144.731,78.804c-18.438-18.448-48.413-18.448-66.86,0
				c-18.475,18.477-18.475,48.452,0,66.898l365.616,365.608L77.871,876.915c-18.475,18.485-18.475,48.422,0,66.898
				c18.485,18.485,48.422,18.485,66.86,0l365.616-365.606l365.606,365.606c18.477,18.485,48.415,18.485,66.899,0
				c18.475-18.475,18.475-48.413,0-66.898L577.244,511.309z M577.244,511.309"/>
		</g>
	</g>
</g>
<g id="图层_20" style="display:none;">
	<g style="display:inline;">
		<g>
			<defs>
				<rect id="SVGID_25_" x="185.018" y="63.901" width="653.722" height="895.826"/>
			</defs>
			<clipPath id="SVGID_26_">
				<use xlink:href="#SVGID_25_"  style="overflow:visible;"/>
			</clipPath>
			<path style="clip-path:url(#SVGID_26_);" d="M838.988,65.449l-239.33,407.162H788.24v89.962H568.517v123.976H788.24v91.098
				H568.517v180.509H455.489V777.647H227.693v-91.098h227.795V562.573H227.693v-89.962H422.06L185.018,65.449h127.437
				c110.75,202.243,177.993,330.472,201.854,384.681h2.318c8.073-22.283,30.196-67.282,66.337-134.961L718.48,65.449H838.988z
				 M838.988,65.449"/>
		</g>
	</g>
</g>
<g id="图层_21" style="display:none;">
	<g style="display:inline;">
		<path d="M512.445,63.075l-348.73,208.633l350.987,210.066l348.8-208.706L512.445,63.075z M512.445,63.075"/>
		<path d="M129.876,749.759l349.879,209.34V539.017L129.876,329.62V749.759z M129.876,749.759"/>
		<path d="M544.986,541.697v417.403l350.045-209.34V332.396L544.986,541.697z M544.986,541.697"/>
	</g>
</g>
<g id="图层_22" style="display:none;">
	<g style="display:inline;">
		<g>
			<defs>
				<rect id="SVGID_27_" x="62.958" y="155.803" width="897.229" height="711.896"/>
			</defs>
			<clipPath id="SVGID_28_">
				<use xlink:href="#SVGID_27_"  style="overflow:visible;"/>
			</clipPath>
			<path style="clip-path:url(#SVGID_28_);" d="M953.922,283.61c-3.618-3.697-8.061-5.598-13.2-5.657
				c-12.545-0.141-26.571,10.966-36.119,20.304l-341.71,331.95c-12.529,12.257-58.653,87.171-60.607,90.354l-7.471,12.149
				l12.164-7.447c3.227-1.97,79.147-48.489,91.648-60.71l341.71-331.951C955.526,317.749,967.074,297.083,953.922,283.61
				L953.922,283.61z M953.922,283.61"/>
		</g>
		<path d="M740.656,386.854c0,27.671-22.461,50.131-50.137,50.131c-27.676,0-50.137-22.459-50.137-50.131
			c0-27.677,22.461-50.137,50.137-50.137C718.196,336.718,740.656,359.177,740.656,386.854L740.656,386.854z M740.656,386.854"/>
		<path d="M214.252,562.314c-27.676,0-50.137-22.454-50.137-50.127c0-27.676,22.461-50.136,50.137-50.136
			c27.671,0,50.132,22.459,50.132,50.136C264.384,539.859,241.923,562.314,214.252,562.314L214.252,562.314z M214.252,562.314"/>
		<path d="M289.449,386.854c0-27.677,22.465-50.137,50.136-50.137c27.672,0,50.137,22.459,50.137,50.137
			c0,27.671-22.465,50.131-50.137,50.131C311.913,436.985,289.449,414.551,289.449,386.854L289.449,386.854z M289.449,386.854"/>
		<g>
			<defs>
				<rect id="SVGID_29_" x="62.958" y="155.803" width="897.229" height="711.896"/>
			</defs>
			<clipPath id="SVGID_30_">
				<use xlink:href="#SVGID_29_"  style="overflow:visible;"/>
			</clipPath>
			<path style="clip-path:url(#SVGID_30_);" d="M464.918,336.718c0-27.671,22.46-50.132,50.132-50.132
				c27.676,0,50.136,22.461,50.136,50.132c0,27.672-22.46,50.137-50.136,50.137C487.378,386.854,464.918,364.419,464.918,336.718
				L464.918,336.718z M464.918,336.718"/>
			<path style="clip-path:url(#SVGID_30_);" d="M852.667,506.737c-23.043,149.319-159.101,300.647-352.769,300.647
				c-36.868,0-76.18-7.294-107.851-20.006c-33.685-13.522-48.963-29.421-52.028-39.786c-1.598-5.412-3.099-11.323-4.693-17.581
				c-4.66-18.348-9.944-39.141-20.299-56.393c-18.416-30.689-44.914-37.132-63.908-37.132c-7.182,0-14.834,0.919-22.729,2.718
				c-12.892,2.942-25.423,4.434-37.224,4.434c-25.184,0-67.625-6.678-68.93-51.427c-6.605-228.476,181.16-352.567,370.163-374.197
				c13.367-1.53,27.667-2.302,42.505-2.302c53.246,0,111.801,10.021,152.82,26.16c9.269,3.647,14.407,6.028,39.292,18.225
				c25.716,12.6,46.46,30.502,63.048,47.756l30.224-53.202c-18.065-17.053-40.427-34.487-67.258-47.639
				c-24.948-12.222-31.969-15.547-43.667-20.152c-47.449-18.666-114.3-30.263-174.458-30.263c-17.068,0-33.626,0.905-49.217,2.685
				c-115.786,13.249-221.206,59.195-296.838,129.377C103.14,368.189,59.677,473.746,63.153,593.926
				c1.008,34.555,15.152,63.166,40.901,82.75c22.436,17.058,52.556,26.073,87.112,26.073c16.22,0,33.17-1.99,50.385-5.915
				c3.588-0.817,6.811-1.238,9.568-1.238c11.498,0,17.033,10.071,26.914,48.968c1.662,6.527,3.373,13.274,5.294,19.781
				c9.456,31.984,39.435,58.917,86.702,77.89c38.407,15.421,85.742,24.259,129.87,24.259c54.228,0,106.722-10.159,156.021-30.194
				c46.353-18.837,88.71-45.868,125.901-80.35c35.826-33.221,65.425-71.961,87.962-115.155
				c22.578-43.262,36.975-88.872,42.794-135.586c0.259-2.121,0.508-4.332,0.733-6.561l0.146-1.472v-0.059
				c0.225-2.342,0.405-4.707,0.572-7.084L852.667,506.737z M852.667,506.737"/>
		</g>
	</g>
</g>
<g id="图层_23" style="display:none;">
	<g style="display:inline;">
		<g>
			<defs>
				<rect id="SVGID_31_" x="64" y="137.89" width="896.355" height="748.557"/>
			</defs>
			<clipPath id="SVGID_32_">
				<use xlink:href="#SVGID_31_"  style="overflow:visible;"/>
			</clipPath>
			<path style="clip-path:url(#SVGID_32_);" d="M960.203,568.174c0-94.788-57.107-182.342-152.776-234.192
				c-2.01-1.086-4.152-1.692-6.294-1.873c-52.975-113.183-193.157-194.266-357.339-194.266
				c-209.507,0-379.944,132.038-379.944,294.327c0,91.683,55.459,178.361,148.971,233.84l-25.557,122.305
				c-1.306,6.261,1.223,12.701,6.447,16.389c2.773,1.957,6.02,2.945,9.273,2.945c2.871,0,5.757-0.773,8.32-2.328l132.732-80.483
				c0.48,0.856,1.038,1.688,1.688,2.47C408.73,802.747,512.4,847.784,623.065,847.784c42.708,0,84.234-6.51,123.562-19.354
				l103.714,54.946c2.361,1.252,4.945,1.868,7.517,1.868c3.521,0,7.008-1.159,9.904-3.42c4.988-3.908,7.204-10.397,5.668-16.542
				l-22.787-90.734C920.424,721.63,960.203,646.973,960.203,568.174L960.203,568.174z M238.69,643.828
				C149.316,594.444,95.96,515.321,95.96,432.164c0-144.588,156.033-262.218,347.834-262.218
				c191.807,0,347.84,117.63,347.84,262.218c0,144.594-156.033,262.218-347.84,262.218c-30.172,0-60.106-2.925-88.987-8.686
				c-3.947-0.793-8.036-0.074-11.464,2.02l-117.082,70.988l20.38-97.546C248.075,654.256,244.856,647.233,238.69,643.828
				L238.69,643.828z M823.191,754.88c-5.429,3.824-7.923,10.584-6.314,17.015l16.629,66.22l-77.943-41.286
				c-3.937-2.078-8.559-2.425-12.78-0.978c-37.9,13.157-78.182,19.823-119.717,19.823c-92.915,0-180.102-34.295-237.861-92.666
				c19.315,2.309,38.909,3.483,58.59,3.483c209.508,0,379.95-132.038,379.95-294.328c0-18.746-2.285-37.094-6.627-54.877
				c69.995,46.866,110.976,116.529,110.976,190.887C928.093,639.72,889.86,707.759,823.191,754.88L823.191,754.88z M823.191,754.88"
				/>
		</g>
		<path d="M339.851,419.678c0-30.363-24.695-55.064-55.049-55.064c-30.363,0-55.059,24.7-55.059,55.064
			c0,30.358,24.695,55.057,55.059,55.057C315.155,474.736,339.851,450.036,339.851,419.678L339.851,419.678z M261.848,419.678
			c0-12.659,10.295-22.954,22.954-22.954c12.647,0,22.944,10.295,22.944,22.954c0,12.652-10.296,22.949-22.944,22.949
			C272.143,442.627,261.848,432.331,261.848,419.678L261.848,419.678z M261.848,419.678"/>
		<path d="M443.794,474.736c30.363,0,55.064-24.699,55.064-55.057c0-30.363-24.7-55.064-55.064-55.064
			c-30.358,0-55.057,24.7-55.057,55.064C388.736,450.036,413.43,474.736,443.794,474.736L443.794,474.736z M443.794,396.724
			c12.659,0,22.954,10.295,22.954,22.954c0,12.652-10.295,22.949-22.954,22.949c-12.652,0-22.949-10.296-22.949-22.949
			C420.845,407.019,431.141,396.724,443.794,396.724L443.794,396.724z M443.794,396.724"/>
		<path d="M596.311,474.736c30.363,0,55.059-24.699,55.059-55.057c0-30.363-24.695-55.064-55.059-55.064
			c-30.363,0-55.064,24.7-55.064,55.064C541.247,450.036,565.948,474.736,596.311,474.736L596.311,474.736z M596.311,396.724
			c12.658,0,22.954,10.295,22.954,22.954c0,12.652-10.296,22.949-22.954,22.949c-12.657,0-22.953-10.296-22.953-22.949
			C573.358,407.019,583.654,396.724,596.311,396.724L596.311,396.724z M596.311,396.724"/>
	</g>
</g>
<g id="图层_24" style="display:none;">
	<g style="display:inline;">
		<g>
			<defs>
				<rect id="SVGID_33_" x="64" y="62.89" width="895.558" height="896.519"/>
			</defs>
			<clipPath id="SVGID_34_">
				<use xlink:href="#SVGID_33_"  style="overflow:visible;"/>
			</clipPath>
			<path style="clip-path:url(#SVGID_34_);" d="M930.735,762.573H818.884V243.596L923.268,139.35
				c10.907-10.903,10.907-28.632,0-39.568c-10.902-10.932-28.632-10.932-39.567,0l-103.63,103.523H259.614V91.447
				c0-15.434-12.502-27.961-27.965-27.961c-15.463,0-27.962,12.527-27.962,27.961v111.856H91.831
				c-15.434,0-27.962,12.498-27.962,27.961c0,15.465,12.528,27.967,27.962,27.967h111.855v531.304c0,2.573,0.811,4.894,1.481,7.246
				c0.281,1.062,0.226,2.15,0.614,3.157c2.825,7.049,8.389,12.614,15.438,15.463c1.203,0.478,2.518,0.418,3.747,0.73
				c2.21,0.559,4.305,1.37,6.682,1.37h531.307v111.852c0,15.438,12.528,27.965,27.962,27.965c15.438,0,27.967-12.527,27.967-27.965
				V818.501h111.851c15.438,0,27.967-12.527,27.967-27.965C958.702,775.101,946.173,762.573,930.735,762.573L930.735,762.573z
				 M724.058,259.231L259.614,723.06V259.231H724.058z M299.182,762.573l463.773-463.13v463.13H299.182z M299.182,762.573"/>
		</g>
	</g>
</g>
<g id="图层_25" style="display:none;">
	<g style="display:inline;">
		<path d="M608.104,767.024c-17.698,0-32.002-14.304-32.002-32.002v-352.07c0-17.698,14.304-32.009,32.002-32.009
			c17.698,0,32.009,14.31,32.009,32.009v352.07C640.112,752.72,625.802,767.024,608.104,767.024L608.104,767.024z M416.07,767.024
			c-17.705,0-32.009-14.304-32.009-32.002v-352.07c0-17.698,14.304-32.009,32.009-32.009c17.698,0,32.002,14.31,32.002,32.009
			v352.07C448.073,752.72,433.769,767.024,416.07,767.024L416.07,767.024z M928.165,222.921H768.134V158.91
			c0-52.94-42.728-96.02-95.282-96.02H352.053c-52.934,0-96.013,43.08-96.013,96.02v64.011H96.009
			C78.304,222.921,64,237.225,64,254.93c0,17.698,14.304,32.002,32.009,32.002h832.156c17.698,0,32.009-14.304,32.009-32.002
			C960.174,237.225,945.864,222.921,928.165,222.921L928.165,222.921z M320.051,158.91c0-17.636,14.368-32.009,32.002-32.009
			h320.799c17.543,0,31.271,14.051,31.271,32.009v64.011H320.051V158.91z M736.258,959.064H288.106
			c-52.935,0-96.015-43.08-96.015-96.02V382.473c0-17.67,14.339-32.007,32.004-32.007c17.67,0,32.007,14.338,32.007,32.007v480.571
			c0,17.67,14.369,32.009,32.004,32.009h448.153c17.665,0,32.004-14.339,32.004-32.009V383.782
			c0-17.665,14.309-32.004,32.007-32.004c17.7,0,32.009,14.339,32.009,32.004v479.262
			C832.278,915.984,789.194,959.064,736.258,959.064L736.258,959.064z M736.258,959.064"/>
	</g>
</g>
<g id="图层_26" style="display:none;">
	<g style="display:inline;">
		<path d="M511.816,63.585c247.277,0,447.953,200.676,447.953,447.931c0,247.277-200.676,447.953-447.953,447.953
			c-247.255,0-447.931-200.676-447.931-447.953C63.884,264.261,264.56,63.585,511.816,63.585L511.816,63.585z M511.816,63.585"/>
	</g>
</g>
<g id="图层_27" style="display:none;">
	<g style="display:inline;">
		<path d="M229.796,415.927c0.183,0.183,0.371,0.367,0.555,0.546l251.413,248.539c7.275,7.669,17.554,12.463,28.961,12.463
			c12.983,0,24.514-6.205,31.803-15.803l248.154-243.4c8.574-7.319,14.013-18.198,14.013-30.357
			c0-22.039-17.867-39.911-39.912-39.911H615.607V144.802c0-22.039-17.866-39.911-39.911-39.911h-129.94
			c-22.043,0-39.915,17.872-39.915,39.911v203.203H258.223c-22.043,0-39.911,17.872-39.911,39.911
			C218.312,398.834,222.695,408.719,229.796,415.927L229.796,415.927z M229.796,415.927"/>
		<path d="M943.408,718.913L803.056,587.684h-0.286c-7.311-9.191-18.583-15.091-31.244-15.091c-12.661,0-23.933,5.9-31.243,15.091
			c-5.422,6.813-8.668,15.435-8.668,24.819c0,0.693,0.018,1.388,0.054,2.073l-0.228,0.703l16.653,94.527H644.321
			c-31.19,39.41-79.436,64.695-133.597,64.695c-54.156,0-102.408-25.286-133.598-64.695H273.274l16.653-94.527l-0.223-0.703
			c0.035-0.685,0.054-1.38,0.054-2.073c0-9.384-3.25-18.006-8.671-24.819c-7.311-9.191-18.583-15.091-31.244-15.091
			c-12.661,0-23.933,5.9-31.244,15.091h-0.286l-141.4,132.209c-8.22,7.311-13.403,17.966-13.403,29.829v129.94
			c0,22.045,17.872,39.915,39.911,39.915h814.61c22.044,0,39.915-17.871,39.915-39.915v-129.94
			C957.944,737.317,952.286,726.237,943.408,718.913L943.408,718.913z M682.611,879.661c-22.043,0-39.911-17.871-39.911-39.911
			c0-22.043,17.867-39.915,39.911-39.915c22.045,0,39.911,17.872,39.911,39.915C722.522,861.791,704.656,879.661,682.611,879.661
			L682.611,879.661z M804.582,879.661c-22.043,0-39.915-17.871-39.915-39.911c0-22.043,17.872-39.915,39.915-39.915
			s39.911,17.872,39.911,39.915C844.493,861.791,826.626,879.661,804.582,879.661L804.582,879.661z M804.582,879.661"/>
	</g>
</g>
<g id="图层_28" style="display:none;">
	<g style="display:inline;">
		<g>
			<defs>
				<rect id="SVGID_35_" x="64.005" y="139.04" width="896.182" height="746.119"/>
			</defs>
			<clipPath id="SVGID_36_">
				<use xlink:href="#SVGID_35_"  style="overflow:visible;"/>
			</clipPath>
			<rect x="63.83" y="340.751" style="clip-path:url(#SVGID_36_);" width="895.434" height="49.749"/>
			<rect x="63.83" y="489.995" style="clip-path:url(#SVGID_36_);" width="895.434" height="49.749"/>
			<rect x="63.83" y="639.247" style="clip-path:url(#SVGID_36_);" width="895.434" height="49.749"/>
		</g>
		<path d="M511.569,139.316L364.216,286.773h294.664L511.569,139.316z M511.569,139.316"/>
		<path d="M511.518,883.757l147.361-147.451H364.216L511.518,883.757z M511.518,883.757"/>
	</g>
</g>
<g id="图层_29" style="display:none;">
	<g style="display:inline;">
		<g>
			<defs>
				<rect id="SVGID_37_" x="63.475" y="83.2" width="896.083" height="857.304"/>
			</defs>
			<clipPath id="SVGID_38_">
				<use xlink:href="#SVGID_37_"  style="overflow:visible;"/>
			</clipPath>
			<path style="clip-path:url(#SVGID_38_);" d="M831.103,450.46c-14.72,0-26.634,11.871-26.634,26.514v335.675
				c0,40.627-33.189,73.657-73.958,73.657H190.689c-40.788,0-73.983-33.03-73.983-73.657V275.045
				c0-40.603,33.194-73.675,73.983-73.675h422.727c14.681,0,26.616-11.852,26.616-26.495c0-14.638-11.934-26.513-26.616-26.513
				H190.689c-70.132,0-127.213,56.839-127.213,126.684v537.584c0,69.846,57.057,126.679,127.213,126.679h539.822
				c70.112,0,127.189-56.833,127.189-126.679V476.953C857.718,462.331,845.79,450.46,831.103,450.46L831.103,450.46z
				 M428.331,355.338c0-14.638-11.909-26.514-26.616-26.514H219.989c-14.701,0-26.615,11.876-26.615,26.514
				c0,14.624,11.914,26.495,26.615,26.495h181.726C416.421,381.833,428.331,369.962,428.331,355.338L428.331,355.338z
				 M219.989,472.74c-14.701,0-26.615,11.87-26.615,26.514c0,14.638,11.914,26.489,26.615,26.489h128.475
				c14.706,0,26.615-11.851,26.615-26.489c0-14.644-11.909-26.514-26.615-26.514H219.989z M946.203,177.259l-81.415-81.089
				c-16.741-16.697-46.002-16.697-62.743,0l-100.228,99.825l144.133,143.547l100.291-99.826
				C963.512,222.446,963.492,194.446,946.203,177.259L946.203,177.259z M845.969,264.578L777.1,195.994l56.328-56.124l68.889,68.607
				L845.969,264.578z M385.611,650.45l173.108-24.902l239.254-237.705c10.429-10.346,10.448-27.107,0.043-37.472
				c-10.346-10.384-27.207-10.423-37.631-0.038L533.652,575.614l-81.741,11.749l15.498-80.905l227.199-225.689
				c10.404-10.346,10.448-27.105,0.039-37.491c-10.361-10.366-27.202-10.366-37.631-0.039L418.193,480.498L385.611,650.45z
				 M385.611,650.45"/>
		</g>
	</g>
</g>
<g id="图层_30" style="display:none;">
	<g style="display:inline;">
		<path d="M750.149,451.055c103.893,0,188.492,84.227,188.492,187.745s-84.538,187.749-188.492,187.749
			c-103.948,0-188.491-84.23-188.491-187.749S646.201,451.055,750.149,451.055 M750.149,432.634
			c-114.245,0-206.848,92.295-206.848,206.167c0,113.877,92.602,206.17,206.848,206.17c114.251,0,206.852-92.293,206.852-206.17
			C957.001,524.928,864.4,432.634,750.149,432.634L750.149,432.634z M750.149,432.634"/>
		<path d="M486.796,535.593c-2.05,0-4.093-0.681-5.769-2.048L86.119,214.869c-3.966-3.165-4.585-8.995-1.425-12.966
			c3.161-3.97,9.058-4.528,12.961-1.363l389.018,313.901l370.345-313.715c3.97-3.284,9.8-2.792,12.961,1.055
			c3.289,3.908,2.792,9.738-1.055,12.961l-376.112,318.68C491.074,534.851,488.968,535.593,486.796,535.593L486.796,535.593z
			 M486.796,535.593"/>
		<g>
			<defs>
				<rect id="SVGID_39_" x="64" y="178.89" width="893.872" height="667.242"/>
			</defs>
			<clipPath id="SVGID_40_">
				<use xlink:href="#SVGID_39_"  style="overflow:visible;"/>
			</clipPath>
			<path style="clip-path:url(#SVGID_40_);" d="M91.888,666.775c-2.357,0-4.714-0.87-6.511-2.729c-3.597-3.597-3.597-9.427,0-13.023
				l244.5-243.696c3.595-3.597,9.426-3.597,13.023,0c3.6,3.6,3.6,9.431,0,13.026L98.404,664.046
				C96.605,665.906,94.182,666.775,91.888,666.775L91.888,666.775z M91.888,666.775"/>
			<path style="clip-path:url(#SVGID_40_);" d="M485.925,685.567H110.683c-25.804,0-46.828-20.963-46.828-46.766V226.468
				c0-25.742,21.024-46.706,46.828-46.706h733.436c25.86,0,46.89,20.963,46.89,46.706v183.031c0,5.087-4.16,9.18-9.242,9.18
				c-5.087,0-9.242-4.093-9.242-9.18V226.468c0-15.569-12.715-28.284-28.406-28.284H110.683c-15.691,0-28.406,12.715-28.406,28.284
				V638.8c0,15.568,12.715,28.283,28.406,28.283h375.243c5.087,0,9.18,4.155,9.18,9.242
				C495.105,681.411,491.012,685.567,485.925,685.567L485.925,685.567z M485.925,685.567"/>
		</g>
		<path d="M835.619,740.581c-2.172,0-4.406-0.804-6.204-2.356L658.357,586.203c-3.847-3.473-4.16-9.304-0.809-13.146
			c3.473-3.847,9.304-4.155,13.15-0.809L841.761,724.27c3.843,3.474,4.155,9.304,0.804,13.151
			C840.706,739.464,838.161,740.581,835.619,740.581L835.619,740.581z M835.619,740.581"/>
		<path d="M664.617,740.581c-2.542,0-5.082-1.117-6.946-3.161c-3.412-3.847-3.038-9.677,0.808-13.151l171.059-152.022
			c3.787-3.411,9.616-3.099,13.151,0.809c3.411,3.843,3.038,9.673-0.804,13.146L670.821,738.225
			C669.023,739.777,666.79,740.581,664.617,740.581L664.617,740.581z M664.617,740.581"/>
	</g>
</g>
<g id="图层_31" style="display:none;">
	<g style="display:inline;">
		<path d="M750.925,450.768c104.162,0,188.98,84.445,188.98,188.231s-84.757,188.235-188.98,188.235
			c-104.217,0-188.979-84.448-188.979-188.235S646.708,450.768,750.925,450.768 M750.925,432.298
			c-114.541,0-207.383,92.533-207.383,206.7c0,114.172,92.842,206.704,207.383,206.704c114.547,0,207.388-92.532,207.388-206.704
			C958.313,524.831,865.472,432.298,750.925,432.298L750.925,432.298z M750.925,432.298"/>
		<path d="M486.891,535.524c-2.055,0-4.104-0.683-5.784-2.054L85.177,213.97c-3.976-3.174-4.597-9.018-1.428-12.999
			c3.169-3.98,9.081-4.54,12.994-1.366l390.025,314.713L858.071,199.79c3.98-3.293,9.826-2.8,12.994,1.058
			c3.297,3.918,2.799,9.764-1.058,12.994L492.921,533.347C491.18,534.78,489.069,535.524,486.891,535.524L486.891,535.524z
			 M486.891,535.524"/>
		<g>
			<defs>
				<rect id="SVGID_41_" x="63" y="177.898" width="896.186" height="668.97"/>
			</defs>
			<clipPath id="SVGID_42_">
				<use xlink:href="#SVGID_41_"  style="overflow:visible;"/>
			</clipPath>
			<path style="clip-path:url(#SVGID_42_);" d="M90.96,667.046c-2.363,0-4.726-0.872-6.528-2.736c-3.606-3.606-3.606-9.452,0-13.056
				l245.133-244.327c3.605-3.606,9.45-3.606,13.056,0c3.61,3.61,3.61,9.455,0,13.06L97.493,664.309
				C95.69,666.174,93.261,667.046,90.96,667.046L90.96,667.046z M90.96,667.046"/>
			<path style="clip-path:url(#SVGID_42_);" d="M486.018,685.886H109.804c-25.871,0-46.949-21.018-46.949-46.887v-413.4
				c0-25.809,21.078-46.827,46.949-46.827h735.335c25.927,0,47.011,21.018,47.011,46.827v183.505c0,5.1-4.171,9.204-9.266,9.204
				c-5.1,0-9.266-4.104-9.266-9.204V225.599c0-15.609-12.748-28.357-28.48-28.357H109.804c-15.732,0-28.48,12.748-28.48,28.357
				v413.4c0,15.608,12.748,28.356,28.48,28.356h376.214c5.1,0,9.204,4.166,9.204,9.266
				C495.222,681.72,491.118,685.886,486.018,685.886L486.018,685.886z M486.018,685.886"/>
		</g>
		<path d="M744.213,704.479h13.37l3.913-154.963h-0.307c-0.186-5.598-4.664-10.134-10.263-10.134
			c-5.593,0-10.072,4.536-10.262,10.134h-0.37L744.213,704.479z M744.213,704.479"/>
		<path d="M759.755,717.787c-2.362-2.302-5.408-3.359-8.952-3.359c-3.359,0-6.282,0.996-8.644,3.359
			c-2.548,2.178-3.73,5.1-3.73,8.644c0,3.359,1.182,6.282,3.73,8.644c2.362,2.362,5.223,3.544,8.644,3.544
			c3.42,0,6.404-1.182,8.952-3.358c2.362-2.364,3.549-5.224,3.549-8.83C763.304,722.887,762.117,720.027,759.755,717.787
			L759.755,717.787z M759.755,717.787"/>
	</g>
</g>
<g id="图层_32" style="display:none;">
	<g style="display:inline;">
		<path d="M694.397,723.542c-2.368,0-4.732-0.873-6.472-2.676l-75.383-75.193c-3.669-3.605-3.669-9.457-0.062-13.064
			c3.612-3.729,9.457-3.667,13.064-0.061l69.222,69.038l163.269-144.605c3.729-3.422,9.699-3.047,13.059,0.807
			c3.359,3.796,2.985,9.642-0.807,13.064L700.552,721.24C698.811,722.735,696.571,723.542,694.397,723.542L694.397,723.542z
			 M694.397,723.542"/>
		<path d="M751.054,450.811c104.181,0,189.016,84.461,189.016,188.266s-84.773,188.27-189.016,188.27
			c-104.237,0-189.015-84.464-189.015-188.27S646.817,450.811,751.054,450.811 M751.054,432.338
			c-114.562,0-207.422,92.551-207.422,206.739c0,114.193,92.859,206.743,207.422,206.743c114.569,0,207.427-92.55,207.427-206.743
			C958.481,524.889,865.623,432.338,751.054,432.338L751.054,432.338z M751.054,432.338"/>
		<path d="M486.971,535.584c-2.055,0-4.105-0.683-5.785-2.054L85.18,213.969c-3.977-3.174-4.598-9.02-1.429-13.002
			c3.169-3.981,9.083-4.541,12.997-1.367l390.098,314.772L858.22,199.786c3.981-3.293,9.828-2.8,12.997,1.058
			c3.298,3.919,2.8,9.765-1.058,12.997L493.002,533.406C491.26,534.839,489.149,535.584,486.971,535.584L486.971,535.584z
			 M486.971,535.584"/>
		<g>
			<defs>
				<rect id="SVGID_43_" x="63" y="177.89" width="896.355" height="669.096"/>
			</defs>
			<clipPath id="SVGID_44_">
				<use xlink:href="#SVGID_43_"  style="overflow:visible;"/>
			</clipPath>
			<path style="clip-path:url(#SVGID_44_);" d="M90.965,667.13c-2.364,0-4.727-0.872-6.529-2.737c-3.607-3.607-3.607-9.453,0-13.059
				l245.18-244.373c3.605-3.607,9.452-3.607,13.059,0c3.61,3.61,3.61,9.457,0,13.062L97.499,664.393
				C95.696,666.258,93.266,667.13,90.965,667.13L90.965,667.13z M90.965,667.13"/>
			<path style="clip-path:url(#SVGID_44_);" d="M486.097,685.974H109.812c-25.876,0-46.958-21.022-46.958-46.896V225.6
				c0-25.814,21.082-46.836,46.958-46.836h735.473c25.932,0,47.02,21.022,47.02,46.836v183.54c0,5.101-4.172,9.206-9.267,9.206
				c-5.101,0-9.268-4.105-9.268-9.206V225.6c0-15.612-12.75-28.362-28.485-28.362H109.812c-15.735,0-28.485,12.75-28.485,28.362
				v413.477c0,15.611,12.75,28.361,28.485,28.361h376.285c5.101,0,9.206,4.167,9.206,9.268S491.198,685.974,486.097,685.974
				L486.097,685.974z M486.097,685.974"/>
		</g>
	</g>
</g>
<g id="图层_33" style="display:none;">
	<g style="display:inline;">
		<path d="M878.495,188.89H145.449C100.471,188.89,64,225.1,64,269.757V754.96c0,44.662,36.471,80.872,81.449,80.872h733.046
			c44.979,0,81.449-36.21,81.449-80.872V269.757C959.945,225.1,923.474,188.89,878.495,188.89L878.495,188.89z M145.449,229.324
			h733.046c4.793,0,9.302,0.968,13.58,2.486L539.57,581.777c-7.375,7.327-17.178,11.371-27.6,11.371
			c-10.417,0-20.221-4.044-27.6-11.371L131.889,231.81C136.143,230.291,140.675,229.324,145.449,229.324L145.449,229.324z
			 M104.725,754.96V269.757c0-2.407,0.316-4.74,0.715-7.027l251.425,249.628L105.439,761.992
			C105.041,759.699,104.725,757.372,104.725,754.96L104.725,754.96z M878.495,795.394H145.449c-4.775,0-9.307-0.969-13.561-2.467
			l253.775-251.976l69.912,69.414c15.591,15.479,35.993,23.216,56.394,23.216c20.421,0,40.827-7.738,56.394-23.216l69.917-69.414
			l253.816,251.976C887.797,794.425,883.288,795.394,878.495,795.394L878.495,795.394z M919.22,754.96
			c0,2.412-0.321,4.739-0.72,7.032L667.075,512.358L918.5,262.73c0.399,2.286,0.72,4.62,0.72,7.027V754.96z M919.22,754.96"/>
	</g>
</g>
<g id="图层_34" style="display:none;">
	<g style="display:inline;">
		<g>
			<defs>
				<rect id="SVGID_45_" x="64" y="62.89" width="895.707" height="896.668"/>
			</defs>
			<clipPath id="SVGID_46_">
				<use xlink:href="#SVGID_45_"  style="overflow:visible;"/>
			</clipPath>
			<path style="clip-path:url(#SVGID_46_);" d="M433.062,719.796L433.062,719.796z M511.375,63.458
				c-246.129,0-447.506,201.377-447.506,447.506c0,246.124,201.377,447.5,447.506,447.5c246.124,0,447.5-201.377,447.5-447.5
				C958.875,264.835,757.499,63.458,511.375,63.458L511.375,63.458z M511.375,902.528c-216.297,0-391.569-175.272-391.569-391.564
				c0-216.297,175.272-391.569,391.569-391.569c216.292,0,391.564,175.271,391.564,391.569
				C902.938,727.256,727.667,902.528,511.375,902.528L511.375,902.528z M669.587,310.547l44.828,44.828L355.794,713.996
				l-44.828-44.828L669.587,310.547z M310.957,352.746l44.828-44.828l358.622,358.621l-44.829,44.828L310.957,352.746z
				 M310.957,352.746"/>
		</g>
	</g>
</g>
<g id="图层_35" style="display:none;">
	<g style="display:inline;">
		<g>
			<defs>
				<rect id="SVGID_47_" x="64.006" y="63.892" width="894.706" height="895.667"/>
			</defs>
			<clipPath id="SVGID_48_">
				<use xlink:href="#SVGID_47_"  style="overflow:visible;"/>
			</clipPath>
			<path style="clip-path:url(#SVGID_48_);" d="M510.881,958.466c-246.468,0-447.006-200.538-447.006-447.001
				c0-246.468,200.538-447.006,447.006-447.006c246.462,0,447.001,200.538,447.001,447.006
				C957.882,757.927,757.344,958.466,510.881,958.466L510.881,958.466z M510.881,92.399c-231.075,0-419.066,187.992-419.066,419.066
				c0,231.069,187.992,419.066,419.066,419.066c231.069,0,419.066-187.997,419.066-419.066
				C929.947,280.39,741.951,92.399,510.881,92.399L510.881,92.399z M510.881,92.399"/>
		</g>
		<path d="M511.383,738.344c-99.796,0-188.303-67.022-215.232-163.016l26.903-7.541c23.548,83.951,101.023,142.592,188.329,142.592
			c87.498,0,164.999-58.808,188.411-143.07l26.903,7.491C699.96,671.1,611.427,738.344,511.383,738.344L511.383,738.344z
			 M511.383,738.344"/>
		<path d="M287.826,399.852c0,30.859,25.015,55.874,55.874,55.874c30.86,0,55.874-25.015,55.874-55.874
			s-25.014-55.874-55.874-55.874C312.841,343.977,287.826,368.992,287.826,399.852L287.826,399.852z M287.826,399.852"/>
		<path d="M622.63,399.852c0,30.859,25.015,55.874,55.874,55.874c30.86,0,55.874-25.015,55.874-55.874s-25.014-55.874-55.874-55.874
			C647.645,343.977,622.63,368.992,622.63,399.852L622.63,399.852z M622.63,399.852"/>
	</g>
</g>
<g id="图层_36" style="display:none;">
	<g style="display:inline;">
		<g>
			<defs>
				<rect id="SVGID_49_" x="63.509" y="63.894" width="894.466" height="895.664"/>
			</defs>
			<clipPath id="SVGID_50_">
				<use xlink:href="#SVGID_49_"  style="overflow:visible;"/>
			</clipPath>
			<path style="clip-path:url(#SVGID_50_);" d="M956.263,403.696c-3.797-11.342-13.604-19.647-25.457-21.465l-269.843-41.653
				L540.386,82.423c-5.239-11.211-16.517-18.395-28.877-18.429h-0.064c-12.36,0-23.604,7.121-28.874,18.302L360.934,339.843
				L90.711,380.57c-11.848,1.788-21.689,10.03-25.52,21.367c-3.837,11.342-0.994,23.891,7.344,32.454l196.093,201.711l-46.8,284.281
				c-1.979,12.073,3.099,24.21,13.096,31.272c9.967,7.057,23.126,7.793,33.829,1.915l241.38-132.785l240.874,133.613
				c4.825,2.623,10.158,3.963,15.489,3.963h0.644c17.663,0,31.938-14.281,31.938-31.944c0-3.958-0.701-7.76-2.012-11.273
				l-44.811-278.183L948.82,436.083C957.125,427.554,960.035,415.033,956.263,403.696L956.263,403.696z M956.263,403.696"/>
		</g>
	</g>
</g>
<g id="图层_37" style="display:none;">
	<g style="display:inline;">
		<g>
			<defs>
				<rect id="SVGID_51_" x="62.987" y="63.754" width="894.606" height="895.804"/>
			</defs>
			<clipPath id="SVGID_52_">
				<use xlink:href="#SVGID_51_"  style="overflow:visible;"/>
			</clipPath>
			<path style="clip-path:url(#SVGID_52_);" d="M766.089,958.359c-5.334,0-10.671-1.341-15.492-4.022L509.687,820.702
				L268.264,953.503c-10.7,5.913-23.861,5.143-33.83-1.916c-9.998-7.058-15.077-19.23-13.098-31.276l46.802-284.261L72.019,434.307
				c-8.242-8.496-11.153-20.893-7.444-32.139c3.671-11.275,13.289-19.581,24.978-21.594l154.815-26.548
				c17.602-2.939,33.927,8.72,36.901,26.099c2.969,17.379-8.692,33.898-26.104,36.902l-95.008,16.29l165.067,169.795
				c7.063,7.288,10.255,17.476,8.628,27.444l-38.754,235.286l199.286-109.641c9.613-5.304,21.308-5.304,30.891,0.062l198.838,110.28
				L686.159,631.16c-1.629-9.997,1.629-20.185,8.692-27.41l164.393-167.971l-225.287-34.762
				c-10.539-1.627-19.547-8.399-24.086-18.05l-99.033-212.03L410.94,382.426c-7.541,15.975-26.582,22.779-42.555,15.238
				c-15.941-7.541-22.774-26.577-15.238-42.551l128.94-272.987c5.299-11.183,16.545-18.304,28.877-18.304h0.064
				c12.397,0.035,23.643,7.22,28.883,18.432L660.503,340.45l269.887,41.659c11.855,1.818,21.662,10.124,25.46,21.468
				c3.774,11.339,0.864,23.896-7.473,32.422l-196.6,200.879l45.842,284.394c1.949,12.075-3.193,24.212-13.192,31.242
				C778.963,956.442,772.544,958.359,766.089,958.359L766.089,958.359z M766.089,958.359"/>
		</g>
	</g>
</g>
<g id="图层_38" style="display:none;">
	<g style="display:inline;">
		<g>
			<defs>
				<rect id="SVGID_53_" x="115.37" y="64.072" width="794.729" height="895.486"/>
			</defs>
			<clipPath id="SVGID_54_">
				<use xlink:href="#SVGID_53_"  style="overflow:visible;"/>
			</clipPath>
			<path style="clip-path:url(#SVGID_54_);" d="M401.296,930.536c-9.097,0-18.136-3.581-24.686-10.664
				c-85.945-93.069-224.966-93.966-227.833-93.966h-0.204c-18.137,0-32.94-14.158-33.066-31.693
				c-0.145-17.641,14.464-32.017,32.673-32.202c6.865-0.359,171.062-0.189,277.725,115.299c12.174,13.154,10.98,33.342-2.634,45.108
				C416.992,927.848,409.117,930.536,401.296,930.536L401.296,930.536z M622.886,930.477c-8.025,0-16.089-2.818-22.469-8.539
				c-13.387-11.975-14.212-32.202-1.786-45.142c110.463-115.333,271.331-115.202,277.672-114.945
				c18.277,0.19,32.91,14.629,32.711,32.27c-0.199,17.534-14.938,31.624-33.042,31.624h-0.266
				c-2.743,0-138.953,0.868-228.595,94.475C640.629,927.052,631.744,930.477,622.886,930.477L622.886,930.477z M564.634,767.984
				H459.917c-3.334,0-6.574-0.481-9.656-1.402C338.479,752.71,243.48,689.99,182.245,589.436
				c-71.075-116.808-87.368-268.143-40.484-376.611c5.057-11.654,16.758-19.354,29.848-19.616l9.947-0.097
				c62.943,0,121.733,11.504,175.239,34.249c38.65-68.334,82.797-120.191,131.476-154.44c2.576-2.164,5.511-3.983,8.786-5.337
				c10.209-4.274,22.075-3.352,31.421,2.533c1.621,1.02,3.144,2.169,4.521,3.446c48.81,34.633,91.735,85.713,130.603,155.492
				c54.544-23.822,114.693-35.908,179.291-35.908l10.106,0.097c13.095,0.257,24.793,7.948,29.84,19.616
				c46.898,108.493,30.63,259.837-40.513,376.636C781.1,689.99,686.135,752.759,574.381,766.635
				C571.243,767.48,568.001,767.984,564.634,767.984L564.634,767.984z M465.797,704.094h92.957c0.689-0.135,1.407-0.232,2.144-0.324
				c119.488-12.843,188.019-86.927,224.471-146.765c55.806-91.738,72.725-211.604,43.915-299.849
				c-60.139,1.893-115.261,16.152-163.999,42.479c-7.967,4.269-17.389,5.176-26,2.61c-8.666-2.61-15.846-8.583-19.835-16.481
				c-33.507-66.257-69.43-115.009-109.283-148.239c-39.878,33.157-76.588,82.268-109.371,146.351
				c-3.993,7.788-11.067,13.673-19.66,16.287c-8.588,2.654-17.836,1.766-25.773-2.387c-47.713-25.084-101.54-38.727-160.062-40.58
				c-28.816,88.249-11.897,208.11,43.909,299.81c36.457,59.838,104.945,133.892,224.403,146.765
				C464.341,703.867,465.064,703.959,465.797,704.094L465.797,704.094z M512.026,958.366c-18.244,0-33.042-14.279-33.042-31.949
				V736.029c0-17.66,14.803-31.935,33.042-31.935c18.242,0,33.04,14.275,33.04,31.935v190.388
				C545.037,944.087,530.268,958.366,512.026,958.366L512.026,958.366z M512.026,958.366"/>
		</g>
	</g>
</g>
<g id="图层_39" style="display:none;">
	<g style="display:inline;">
		<g>
			<defs>
				<rect id="SVGID_55_" x="64.013" y="401.898" width="896.342" height="220.386"/>
			</defs>
			<clipPath id="SVGID_56_">
				<use xlink:href="#SVGID_55_"  style="overflow:visible;"/>
			</clipPath>
			<path style="clip-path:url(#SVGID_56_);" d="M172.747,403.074c60.146,0,108.908,48.761,108.908,108.908
				c0,60.152-48.756,108.908-108.908,108.908c-60.146,0-108.908-48.756-108.908-108.908
				C63.839,451.836,112.6,403.074,172.747,403.074L172.747,403.074z M172.747,403.074"/>
		</g>
		<path d="M511.576,403.074c60.146,0,108.908,48.761,108.908,108.908c0,60.152-48.761,108.908-108.908,108.908
			c-60.152,0-108.909-48.756-108.909-108.908C402.667,451.836,451.424,403.074,511.576,403.074L511.576,403.074z M511.576,403.074"
			/>
		<path d="M511.576,403.074c60.146,0,108.908,48.761,108.908,108.908c0,60.152-48.761,108.908-108.908,108.908
			c-60.152,0-108.909-48.756-108.909-108.908C402.667,451.836,451.424,403.074,511.576,403.074L511.576,403.074z M511.576,403.074"
			/>
		<path d="M850.398,403.074c60.152,0,108.914,48.761,108.914,108.908c0,60.152-48.762,108.908-108.914,108.908
			c-60.146,0-108.908-48.756-108.908-108.908C741.49,451.836,790.252,403.074,850.398,403.074L850.398,403.074z M850.398,403.074"/>
	</g>
</g>
<g id="图层_40" style="display:none;">
	<g style="display:inline;">
		<g>
			<defs>
				<rect id="SVGID_57_" x="64.499" y="63.392" width="892.06" height="896.166"/>
			</defs>
			<clipPath id="SVGID_58_">
				<use xlink:href="#SVGID_57_"  style="overflow:visible;"/>
			</clipPath>
			<path style="clip-path:url(#SVGID_58_);" d="M929.689,449.717L588.658,97.503C566.295,75.139,538.34,63.96,510.389,63.96
				c-27.956,0-55.911,11.179-78.269,33.543L91.09,449.717c-33.547,39.135-27.955,67.086-22.364,83.857
				c0,5.592,16.771,33.547,55.906,33.547h50.314v273.941c0,61.497,44.726,117.403,106.225,117.403h145.358V673.34
				c0-33.543-5.592-50.314,27.95-50.314h111.817c33.543,0,27.95,16.771,27.95,50.314v285.125h145.359
				c61.497,0,106.224-55.906,106.224-117.403V567.121h50.314c39.135,0,55.91-27.956,55.91-33.547
				C957.639,516.802,963.231,488.851,929.689,449.717L929.689,449.717z M896.142,511.215H789.923v329.847
				c0,33.542-22.364,61.497-50.318,61.497h-89.448V673.34c0-61.493-22.364-106.219-83.861-106.219H454.478
				c-61.493,0-83.856,44.726-83.856,106.219v229.219H281.17c-27.951,0-50.314-33.543-50.314-61.497V511.215H124.631v-5.593
				c0-5.592,5.592-11.184,11.18-16.771l341.031-352.214c5.592-11.18,22.363-16.772,33.547-16.772
				c11.179,0,27.95,5.592,39.134,16.772l341.032,352.214C890.555,494.439,896.142,505.622,896.142,511.215
				C896.142,505.622,896.142,511.215,896.142,511.215L896.142,511.215z M896.142,511.215"/>
		</g>
	</g>
</g>
<g id="图层_41" style="display:none;">
	<g style="display:inline;">
		<g>
			<defs>
				<rect id="SVGID_59_" x="63.499" y="63.394" width="895.203" height="896.164"/>
			</defs>
			<clipPath id="SVGID_60_">
				<use xlink:href="#SVGID_59_"  style="overflow:visible;"/>
			</clipPath>
			<path style="clip-path:url(#SVGID_60_);" d="M510.623,63.962c-247.099,0-447.254,200.155-447.254,447.254
				c0,246.876,200.261,447.249,447.254,447.249c246.988,0,447.249-200.151,447.249-447.249
				C957.871,264.117,757.61,63.962,510.623,63.962L510.623,63.962z M510.623,905.827c-217.993,0-394.616-176.623-394.616-394.61
				C116.114,293.223,292.74,116.6,510.623,116.6c217.987,0,394.61,176.623,394.61,394.616
				C905.233,729.204,728.61,905.827,510.623,905.827L510.623,905.827z M510.623,905.827"/>
		</g>
		<path d="M510.623,362.169c-20.576,0-37.318-16.635-37.318-37.318c0-20.576,16.634-37.318,37.318-37.318
			c20.571,0,37.312,16.634,37.312,37.318C547.829,345.423,531.193,362.169,510.623,362.169L510.623,362.169z M510.623,362.169"/>
		<path d="M510.623,734.788c-20.576,0-37.318-16.635-37.318-37.318V455.293c0-20.572,16.634-37.318,37.318-37.318
			c20.571,0,37.312,16.634,37.312,37.318v242.283C547.829,718.152,531.193,734.788,510.623,734.788L510.623,734.788z
			 M510.623,734.788"/>
	</g>
</g>
<g id="图层_42" style="display:none;">
	<g style="display:inline;">
		<path d="M718.574,140.279c-61.287,0-119.481,23.255-163.908,65.481c-4.252,4.016-26.645,26.703-43.983,44.309l-43.982-43.774
			c-44.453-42.584-102.861-66.016-164.444-66.016c-131.171,0-237.898,106.727-237.898,237.898
			c0,76.602,38.269,134.083,71.072,169.59l294.484,297.488c23.315,23.287,49.187,38.451,80.5,38.451s57.214-15.165,80.618-38.569
			l294.336-297.371l2.056-2.292c35.506-44.277,69.047-86.085,69.047-167.298C956.472,247.006,849.745,140.279,718.574,140.279
			L718.574,140.279z M718.574,140.279"/>
	</g>
</g>
<g id="图层_43" style="display:none;">
	<g style="display:inline;">
		<path d="M511.141,884.965c-26.976,0-54.015-11.817-80.786-38.588L132.766,545.505C97.134,501.066,63.5,459.082,63.5,377.64
			c0-131.637,107.106-238.743,238.743-238.743c49.507,0,96.988,15.009,137.365,43.45c13.461,9.49,16.712,28.115,7.19,41.603
			c-9.49,13.456-28.051,16.712-41.598,7.19c-30.204-21.306-65.836-32.559-102.957-32.559c-98.75,0-179.058,80.308-179.058,179.058
			c0,57.266,18.921,84.037,55.181,129.337l294.306,297.325c14.895,14.89,26.921,20.797,38.469,20.978
			c11.848,0.177,23.246-5.761,38.588-21.102L845.05,505.843c24.261-26.292,54.047-70.668,54.047-128.202
			c0-98.75-80.308-179.058-179.058-179.058c-44.821,0-87.734,16.652-120.803,46.885l-125.037,125.07
			c-11.671,11.671-30.533,11.671-42.199,0c-11.67-11.667-11.67-30.527,0-42.198l125.994-126.027
			c45.064-41.21,102.271-63.413,162.046-63.413c131.637,0,238.743,107.106,238.743,238.743c0,76.815-38.378,134.559-70.577,169.445
			L592.044,846.259C565.187,873.148,538.148,884.965,511.141,884.965L511.141,884.965z M511.141,884.965"/>
	</g>
</g>
<g id="图层_44" style="display:none;">
	<g style="display:inline;">
		<g>
			<defs>
				<rect id="SVGID_61_" x="71.5" y="63.392" width="881.86" height="896.166"/>
			</defs>
			<clipPath id="SVGID_62_">
				<use xlink:href="#SVGID_61_"  style="overflow:visible;"/>
			</clipPath>
			<path style="clip-path:url(#SVGID_62_);" d="M952.472,364.868L813.35,425.155v-60.287H688.142
				c46.371-27.825,78.832-78.836,78.832-139.122c0-90.427-71.876-162.308-162.307-162.308c-90.427,0-162.308,71.881-162.308,162.308
				c0,60.286,32.46,111.297,78.836,139.122H363.522c46.376-27.825,78.836-78.836,78.836-139.122
				c0-90.427-71.881-162.308-162.308-162.308c-90.431,0-162.308,71.881-162.308,162.308c0,60.286,32.46,111.297,78.832,139.122
				H71.368v370.991h338.53L219.765,925.993l32.46,32.46L442.359,768.32l190.133,190.133l32.46-32.46L474.819,735.859H813.35v-60.286
				l139.122,60.286V364.868z M488.734,225.746c0-64.921,51.011-115.932,115.932-115.932c64.926,0,115.937,51.011,115.937,115.932
				c0,64.926-51.011,115.937-115.937,115.937C539.745,341.683,488.734,290.672,488.734,225.746L488.734,225.746z M164.115,225.746
				c0-64.921,51.01-115.932,115.936-115.932c64.921,0,115.932,51.011,115.932,115.932c0,64.926-51.011,115.937-115.932,115.937
				C215.125,341.683,164.115,290.672,164.115,225.746L164.115,225.746z M766.974,689.484h-649.23v-278.24h649.23V689.484z
				 M906.097,666.298l-92.747-37.101V471.529l92.747-37.1V666.298z M906.097,666.298"/>
		</g>
	</g>
</g>
<g id="图层_45" style="display:none;">
	<g style="display:inline;">
		<path d="M660.244,223.688c0,53.647,43.492,97.145,97.145,97.145c53.647,0,97.145-43.498,97.145-97.145
			c0-53.653-43.498-97.145-97.145-97.145C703.736,126.543,660.244,170.035,660.244,223.688L660.244,223.688z M660.244,223.688"/>
		<path d="M780.703,492.776c0,48.288,39.142,87.43,87.43,87.43c48.287,0,87.43-39.142,87.43-87.43
			c0-48.287-39.143-87.43-87.43-87.43C819.845,405.345,780.703,444.489,780.703,492.776L780.703,492.776z M780.703,492.776"/>
		<path d="M672.871,765.754c0,42.923,34.792,77.716,77.716,77.716s77.716-34.792,77.716-77.716
			c0-42.923-34.792-77.716-77.716-77.716S672.871,722.83,672.871,765.754L672.871,765.754z M672.871,765.754"/>
		<path d="M413.008,869.701c0,37.552,30.443,68.001,68.001,68.001c37.559,0,68.001-30.449,68.001-68.001
			c0-37.559-30.443-68.001-68.001-68.001C443.451,801.7,413.008,832.142,413.008,869.701L413.008,869.701z M413.008,869.701"/>
		<g>
			<defs>
				<rect id="SVGID_63_" x="63.433" y="85.254" width="892.372" height="853.611"/>
			</defs>
			<clipPath id="SVGID_64_">
				<use xlink:href="#SVGID_63_"  style="overflow:visible;"/>
			</clipPath>
			<path style="clip-path:url(#SVGID_64_);" d="M158.486,753.127c0,32.188,26.099,58.287,58.287,58.287
				c32.194,0,58.287-26.099,58.287-58.287c0-32.194-26.093-58.287-58.287-58.287C184.586,694.84,158.486,720.934,158.486,753.127
				L158.486,753.127z M158.486,753.127"/>
			<path style="clip-path:url(#SVGID_64_);" d="M63.287,488.891c0,26.824,21.748,48.572,48.572,48.572s48.572-21.748,48.572-48.572
				c0-26.824-21.748-48.572-48.572-48.572S63.287,462.067,63.287,488.891L63.287,488.891z M63.287,488.891"/>
		</g>
		<path d="M186.663,222.715c0,21.459,17.394,38.858,38.858,38.858c21.458,0,38.858-17.399,38.858-38.858
			c0-21.464-17.4-38.858-38.858-38.858C204.057,183.858,186.663,201.251,186.663,222.715L186.663,222.715z M186.663,222.715"/>
		<path d="M452.839,114.884c0,16.094,13.049,29.143,29.143,29.143s29.143-13.049,29.143-29.143
			c0-16.094-13.049-29.143-29.143-29.143S452.839,98.789,452.839,114.884L452.839,114.884z M452.839,114.884"/>
	</g>
</g>
<g id="图层_46" style="display:none;">
	<g style="display:inline;">
		<g>
			<defs>
				<rect id="SVGID_65_" x="74.502" y="63.893" width="875.686" height="895.665"/>
			</defs>
			<clipPath id="SVGID_66_">
				<use xlink:href="#SVGID_65_"  style="overflow:visible;"/>
			</clipPath>
			<path style="clip-path:url(#SVGID_66_);" d="M89.488,906.148l37.158,37.156c20.17,20.171,53.008,20.171,73.178,0l504.071-504.069
				c20.17-20.17,20.17-53.008,0-73.178l-37.158-37.158c-20.17-20.17-53.008-20.17-73.178,0L89.488,832.97
				C69.318,853.14,69.318,885.978,89.488,906.148L89.488,906.148z M583.955,508.327l-59.43-59.428l94.548-94.548
				c6.123-6.123,16.148-6.123,22.332,0l37.156,37.162c6.064,6.059,6.064,16.268,0,22.331L583.955,508.327z M114.938,858.421
				l384.073-384.067l59.428,59.428L174.373,917.854c-6.064,6.059-16.268,6.059-22.272,0l-37.162-37.161
				C108.821,874.569,108.821,864.544,114.938,858.421L114.938,858.421z M114.938,858.421"/>
			<path style="clip-path:url(#SVGID_66_);" d="M540.491,205.599c0-8.587-5.642-16.148-13.863-18.673
				c-31.757-9.484-70.838-24.791-78.339-32.293c-7.566-7.566-22.753-46.586-32.358-78.339c-4.923-16.268-32.357-16.511-37.281,0
				c-9.544,31.752-24.85,70.773-32.411,78.339c-7.507,7.502-46.528,22.809-78.221,32.353c-8.226,2.465-13.868,10.026-13.868,18.613
				c0,8.582,5.642,16.145,13.808,18.668c31.753,9.545,70.773,24.85,78.28,32.358c7.561,7.561,22.808,46.582,32.411,78.279
				c2.464,8.221,10.026,13.864,18.673,13.864c8.642,0,16.148-5.643,18.668-13.864c9.485-31.698,24.732-70.718,32.298-78.279
				c7.561-7.566,46.582-22.812,78.279-32.358C534.849,221.807,540.491,214.181,540.491,205.599L540.491,205.599z M462.275,205.599
				c-17.11,7.14-33.378,15.366-41.539,23.531c-8.166,8.103-16.392,24.429-23.413,41.48c-7.145-17.051-15.37-33.378-23.531-41.48
				c-8.166-8.165-24.434-16.391-41.54-23.531c17.106-7.085,33.374-15.31,41.54-23.471c8.161-8.166,16.446-24.494,23.531-41.54
				c7.021,17.106,15.306,33.434,23.473,41.54C428.897,190.289,445.165,198.514,462.275,205.599L462.275,205.599z M462.275,205.599"
				/>
			<path style="clip-path:url(#SVGID_66_);" d="M897.432,168.621c0-6.366-4.145-11.949-10.268-13.748
				c-23.408-7.022-52.285-18.37-57.867-23.894c-5.583-5.583-16.808-34.395-23.893-57.868c-3.659-12.004-23.889-12.187-27.553,0
				c-7.081,23.473-18.37,52.285-23.949,57.868c-5.583,5.523-34.4,16.872-57.813,23.894c-6.064,1.8-10.264,7.442-10.264,13.748
				c0,6.362,4.141,11.945,10.205,13.745c23.471,7.025,52.288,18.31,57.871,23.894c5.578,5.582,16.868,34.395,23.949,57.867
				c1.8,6.064,7.383,10.264,13.748,10.264c6.362,0,11.945-4.14,13.745-10.264c7.025-23.471,18.31-52.285,23.894-57.867
				c5.583-5.583,34.395-16.868,57.867-23.894C893.287,180.566,897.432,174.983,897.432,168.621L897.432,168.621z M822.513,168.621
				c-8.102,3.361-15.846,7.263-19.689,11.167c-3.902,3.837-7.804,11.582-11.106,19.689c-3.361-8.108-7.263-15.852-11.167-19.689
				c-3.842-3.843-11.586-7.805-19.689-11.167c8.103-3.361,15.847-7.263,19.689-11.107c3.903-3.842,7.805-11.586,11.167-19.689
				c3.361,8.103,7.263,15.847,11.106,19.689C806.667,161.358,814.411,165.259,822.513,168.621L822.513,168.621z M822.513,168.621"/>
		</g>
		<path d="M689.188,648.138c0,6.124,4.02,11.587,9.906,13.328c22.748,6.842,50.663,17.765,56.067,23.169
			c5.4,5.405,16.328,33.379,23.17,56.068c1.74,5.885,7.145,9.906,13.327,9.906c6.182,0,11.587-4.022,13.327-9.906
			c6.783-22.689,17.766-50.663,23.17-56.068c5.404-5.404,33.379-16.326,56.067-23.169c5.886-1.8,9.966-7.205,9.966-13.328
			c0-6.123-4.02-11.586-9.966-13.327c-22.688-6.842-50.663-17.77-56.067-23.169c-5.404-5.405-16.268-33.379-23.17-56.068
			c-3.544-11.646-23.174-11.825-26.715,0c-6.842,22.689-17.77,50.663-23.17,56.068c-5.404,5.399-33.319,16.326-56.007,23.169
			C693.208,636.552,689.188,641.955,689.188,648.138L689.188,648.138z M761.102,648.138c8.047-3.302,15.668-7.204,19.51-11.046
			c3.843-3.843,7.685-11.464,11.047-19.511c3.302,8.047,7.205,15.668,11.047,19.511c3.842,3.842,11.463,7.684,19.506,11.046
			c-8.043,3.363-15.664,7.205-19.506,11.047c-3.842,3.779-7.685,11.464-11.047,19.506c-3.362-8.042-7.204-15.663-11.047-19.506
			C776.829,655.343,769.148,651.441,761.102,648.138L761.102,648.138z M761.102,648.138"/>
		<path d="M874.679,518.055c-4.502,0-8.464-2.944-9.723-7.204c-4.983-16.57-12.966-36.92-16.928-40.88
			c-3.962-3.962-24.314-11.885-40.88-16.868c-4.264-1.264-7.205-5.226-7.205-9.728c0-4.502,2.941-8.464,7.265-9.723
			c16.566-4.983,36.918-12.966,40.82-16.868c3.962-3.962,11.885-24.314,16.928-40.88c2.578-8.647,16.867-8.523,19.451,0
			c4.978,16.566,12.965,36.918,16.867,40.88c3.962,3.902,24.311,11.885,40.88,16.868c4.319,1.259,7.264,5.221,7.264,9.723
			c0,4.502-2.945,8.464-7.264,9.728c-16.569,4.983-36.918,12.965-40.88,16.868c-3.962,3.961-11.889,24.31-16.867,40.88
			C883.142,515.111,879.181,518.055,874.679,518.055L874.679,518.055z M874.679,518.055"/>
	</g>
</g>
<g id="图层_47" style="display:none;">
	<g style="display:inline;">
		<path d="M490.578,676.003c-90.913,0-164.807-73.939-164.807-164.803V228.674c0-90.888,73.894-164.808,164.807-164.808
			c90.859,0,164.802,73.92,164.802,164.808V511.2C655.38,602.065,581.438,676.003,490.578,676.003L490.578,676.003z
			 M490.578,110.953c-64.891,0-117.724,52.834-117.724,117.72V511.2c0,64.881,52.833,117.715,117.724,117.715
			c64.881,0,117.716-52.834,117.716-117.715V228.674C608.294,163.787,555.459,110.953,490.578,110.953L490.578,110.953z
			 M490.578,110.953"/>
		<g>
			<defs>
				<rect id="SVGID_67_" x="184.507" y="63.394" width="654.194" height="896.333"/>
			</defs>
			<clipPath id="SVGID_68_">
				<use xlink:href="#SVGID_67_"  style="overflow:visible;"/>
			</clipPath>
			<path style="clip-path:url(#SVGID_68_);" d="M796.644,511.2c0-12.993-10.579-23.548-23.543-23.548
				c-12.97,0-23.545,10.555-23.545,23.548c0,142.825-116.153,258.979-258.978,258.979c-142.83,0-258.983-116.155-258.983-258.979
				c0-12.993-10.531-23.548-23.545-23.548c-13.012,0-23.543,10.555-23.543,23.548c0,160.848,124.758,293.098,282.528,305.15v95.092
				h-70.633c-13.018,0-23.543,10.575-23.543,23.545c0,12.965,10.525,23.543,23.543,23.543h188.352
				c12.965,0,23.543-10.579,23.543-23.543c0-12.97-10.579-23.545-23.543-23.545h-70.636V816.35
				C671.935,804.298,796.644,672.048,796.644,511.2L796.644,511.2z M796.644,511.2"/>
			<path style="clip-path:url(#SVGID_68_);" d="M790.055,781.704L192.838,193.067c-11.009-10.847-11.112-28.548-0.288-39.527
				c10.833-10.989,28.519-11.136,39.529-0.288L829.3,741.889c10.954,10.805,11.116,28.539,0.282,39.532
				C818.759,792.4,801.01,792.503,790.055,781.704L790.055,781.704z M790.055,781.704"/>
		</g>
	</g>
</g>
<g id="图层_48" style="display:none;">
	<g style="display:inline;">
		<path d="M490.867,676.12c-91.148,0-165.23-74.131-165.23-165.231V227.63c0-91.124,74.082-165.236,165.23-165.236
			c91.1,0,165.235,74.112,165.235,165.236v283.259C656.102,601.989,581.967,676.12,490.867,676.12L490.867,676.12z M490.867,109.604
			c-65.055,0-118.025,52.971-118.025,118.026v283.259c0,65.049,52.97,118.021,118.025,118.021s118.026-52.971,118.026-118.021
			V227.63C608.893,162.576,555.922,109.604,490.867,109.604L490.867,109.604z M490.867,109.604"/>
		<path d="M797.732,510.889c0-13.027-10.606-23.609-23.604-23.609c-13.003,0-23.606,10.582-23.606,23.609
			c0,143.195-116.455,259.651-259.65,259.651c-143.2,0-259.655-116.456-259.655-259.651c0-13.027-10.558-23.609-23.606-23.609
			c-13.046,0-23.604,10.582-23.604,23.609c0,161.265,125.076,293.858,283.255,305.941v95.339h-70.811
			c-13.052,0-23.604,10.602-23.604,23.606c0,12.998,10.552,23.604,23.604,23.604h188.835c13.003,0,23.606-10.606,23.606-23.604
			c0-13.003-10.607-23.606-23.606-23.606h-70.814V816.83C672.7,804.747,797.732,672.154,797.732,510.889L797.732,510.889z
			 M797.732,510.889"/>
	</g>
</g>
<g id="图层_49" style="display:none;">
	<g style="display:inline;">
		<rect x="64" y="485.89" width="896.355" height="56.023"/>
	</g>
</g>
<g id="图层_50" style="display:none;">
	<g style="display:inline;">
		<g>
			<defs>
				<rect id="SVGID_69_" x="64.002" y="63.894" width="893.218" height="895.664"/>
			</defs>
			<clipPath id="SVGID_70_">
				<use xlink:href="#SVGID_69_"  style="overflow:visible;"/>
			</clipPath>
			<path style="clip-path:url(#SVGID_70_);" d="M947.868,488.59L823.973,364.7c-12.472-12.477-32.699-12.477-45.171,0
				c-12.472,12.472-12.472,32.699,0,45.171l69.366,69.364H637.804c-17.639,0-31.939,14.3-31.944,31.939
				c0.005,17.644,14.305,31.944,31.944,31.944h210.363l-69.366,69.365c-12.472,12.474-12.472,32.699,0,45.172
				c6.239,6.234,14.412,9.353,22.585,9.353c8.174,0,16.353-3.114,22.586-9.353l123.89-123.895
				C960.34,521.289,960.34,501.067,947.868,488.59L947.868,488.59z M947.868,488.59"/>
			<path style="clip-path:url(#SVGID_70_);" d="M172.906,543.119h210.363c17.639,0,31.944-14.3,31.944-31.944
				c0-17.639-14.305-31.939-31.944-31.939H172.906l69.366-69.364c12.472-12.472,12.472-32.699,0-45.171
				c-6.239-6.239-14.412-9.353-22.585-9.358c-8.174,0-16.348,3.119-22.586,9.358L73.21,488.593
				c-12.477,12.474-12.477,32.695-0.005,45.168L197.1,657.656c12.472,12.472,32.694,12.472,45.171,0
				c12.472-12.477,12.472-32.699,0-45.172L172.906,543.119z M172.906,543.119"/>
			<path style="clip-path:url(#SVGID_70_);" d="M612.338,779.941l-69.361,69.361V638.944c0-17.638-14.3-31.943-31.944-31.943
				c-17.638,0-31.938,14.305-31.938,31.943v210.363l-69.366-69.366c-12.472-12.472-32.699-12.472-45.171,0
				c-6.239,6.239-9.358,14.412-9.358,22.586s3.119,16.351,9.358,22.586l123.89,123.889c12.472,12.477,32.699,12.477,45.171,0
				l123.895-123.889c12.472-12.474,12.472-32.7,0-45.172C645.037,767.469,624.815,767.464,612.338,779.941L612.338,779.941z
				 M612.338,779.941"/>
			<path style="clip-path:url(#SVGID_70_);" d="M409.729,242.413l69.366-69.366v210.363c0,17.638,14.3,31.938,31.938,31.943
				c17.644-0.005,31.944-14.305,31.944-31.943V173.047l69.366,69.366c12.472,12.472,32.694,12.472,45.171,0
				c6.234-6.239,9.353-14.412,9.353-22.586c0-8.174-3.119-16.346-9.353-22.585L533.619,73.352
				c-12.472-12.477-32.694-12.477-45.171,0l-123.89,123.89c-12.472,12.472-12.472,32.694,0,45.171
				C377.03,254.89,397.257,254.885,409.729,242.413L409.729,242.413z M409.729,242.413"/>
		</g>
	</g>
</g>
<g id="图层_51" style="display:none;">
	<g style="display:inline;">
		<g>
			<defs>
				<rect id="SVGID_71_" x="64.002" y="192.897" width="896.352" height="640.667"/>
			</defs>
			<clipPath id="SVGID_72_">
				<use xlink:href="#SVGID_71_"  style="overflow:visible;"/>
			</clipPath>
			<path style="clip-path:url(#SVGID_72_);" d="M933.838,193.451H90.041c-14.405,0-26.189,11.784-26.189,26.189
				c0,14.399,11.784,26.183,26.189,26.183h843.797c14.399,0,26.183-11.784,26.183-26.183
				C960.021,205.235,948.238,193.451,933.838,193.451L933.838,193.451z M933.838,193.451"/>
			<path style="clip-path:url(#SVGID_72_);" d="M933.838,779.988H90.041c-14.405,0-26.189,11.784-26.189,26.184
				c0,14.404,11.784,26.188,26.189,26.188h843.797c14.399,0,26.183-11.784,26.183-26.188
				C960.021,791.772,948.238,779.988,933.838,779.988L933.838,779.988z M933.838,779.988"/>
			<path style="clip-path:url(#SVGID_72_);" d="M933.838,486.503H90.041c-14.405,0-26.189,11.785-26.189,26.189
				c0,14.4,11.784,26.189,26.189,26.189h843.797c14.399,0,26.183-11.785,26.183-26.189S948.238,486.503,933.838,486.503
				L933.838,486.503z M933.838,486.503"/>
		</g>
	</g>
</g>
<g id="图层_52" style="display:none;">
	<g style="display:inline;">
		<g>
			<defs>
				<rect id="SVGID_73_" x="124.657" y="63.674" width="774.619" height="896.053"/>
			</defs>
			<clipPath id="SVGID_74_">
				<use xlink:href="#SVGID_73_"  style="overflow:visible;"/>
			</clipPath>
			<path style="clip-path:url(#SVGID_74_);" d="M499.109,592.647h20.12c16.826,0,30.271,13.441,30.271,30.268v142.713
				c0,16.822-13.445,30.267-30.271,30.267h-20.12c-16.827,0-30.267-13.445-30.267-30.267V622.826
				C468.926,606,482.371,592.647,499.109,592.647L499.109,592.647z M835.099,490.083v366.085c0,21.813-18.519,40.327-40.326,40.327
				H225.435c-21.813,0-40.327-18.515-40.327-40.327V490.083H835.099 M897.155,429.633H124.657v428.223
				c0,55.377,45.317,100.782,102.382,100.782h569.333c55.376,0,102.382-45.317,102.382-100.782V429.633H897.155z M814.892,429.633
				h-60.451v-60.447c0-137.727-114.312-243.584-243.579-243.584c-132.654,0-243.58,110.843-243.58,243.584v60.447h-60.45v-60.447
				c0-166.218,139.416-305.634,305.63-305.634c164.614,0,305.634,132.654,305.634,305.634v60.447H814.892z M814.892,429.633"/>
		</g>
	</g>
</g>
<g id="图层_53" style="display:none;">
	<g style="display:inline;">
		<path d="M512.442,898.055c34.537,0,62.527-27.991,62.527-62.523c0-34.516-27.99-62.529-62.527-62.529
			c-34.533,0-62.523,28.012-62.523,62.529C449.919,870.065,477.909,898.055,512.442,898.055L512.442,898.055z M512.442,814.691
			c11.525,0,20.841,9.315,20.841,20.841c0,11.525-9.316,20.84-20.841,20.84c-11.525,0-20.841-9.315-20.841-20.84
			C491.6,824.006,500.917,814.691,512.442,814.691L512.442,814.691z M700.016,64.393H324.867c-46.037,0-83.364,37.328-83.364,83.364
			v729.457c0,46.037,37.328,83.364,83.364,83.364h375.149c46.041,0,83.369-37.328,83.369-83.364V147.757
			C783.385,101.721,746.057,64.393,700.016,64.393L700.016,64.393z M741.699,877.214c0,23.007-18.675,41.683-41.683,41.683H324.867
			c-23.007,0-41.682-18.675-41.682-41.683V752.162h458.513V877.214z M741.699,710.481H283.186V272.809h458.513V710.481z
			 M741.699,231.126H283.186v-83.369c0-23.007,18.674-41.682,41.682-41.682h375.149c23.007,0,41.683,18.674,41.683,41.682V231.126z
			 M595.811,147.757H429.077c-11.504,0-20.841,9.337-20.841,20.841c0,11.529,9.337,20.846,20.841,20.846h166.733
			c11.525,0,20.841-9.316,20.841-20.846C616.652,157.094,607.336,147.757,595.811,147.757L595.811,147.757z M595.811,147.757"/>
	</g>
</g>
<g id="图层_54" style="display:none;">
	<g style="display:inline;">
		<g>
			<defs>
				<rect id="SVGID_75_" x="64" y="62.89" width="896.186" height="897.148"/>
			</defs>
			<clipPath id="SVGID_76_">
				<use xlink:href="#SVGID_75_"  style="overflow:visible;"/>
			</clipPath>
			<path style="clip-path:url(#SVGID_76_);" d="M511.614,958.944c-246.88,0-447.746-200.844-447.746-447.74
				c0-246.902,200.866-447.746,447.746-447.746c246.874,0,447.74,200.844,447.74,447.746
				C959.354,758.1,758.489,958.944,511.614,958.944L511.614,958.944z M511.614,106.099c-223.382,0-405.105,181.723-405.105,405.105
				c0,223.381,181.723,405.1,405.105,405.1c223.381,0,405.1-181.719,405.1-405.1C916.714,287.822,734.995,106.099,511.614,106.099
				L511.614,106.099z M511.614,106.099"/>
		</g>
		<path d="M385.628,317.37l331.562,193.834L385.628,693.649V317.37z M385.628,317.37"/>
	</g>
</g>
<g id="图层_55" style="display:none;">
	<g style="display:inline;">
		<g>
			<defs>
				<rect id="SVGID_77_" x="64.004" y="63.762" width="894.12" height="895.797"/>
			</defs>
			<clipPath id="SVGID_78_">
				<use xlink:href="#SVGID_77_"  style="overflow:visible;"/>
			</clipPath>
			<path style="clip-path:url(#SVGID_78_);" d="M928.456,600.177c-17.883,0-29.809,11.926-29.809,29.807v226.546l-283.182-283.18
				c-11.926-11.926-29.807-11.926-41.733,0c-11.926,11.919-11.926,29.807,0,41.733l283.182,283.182H630.368
				c-17.883,0-29.809,11.919-29.809,29.807c0,17.883,11.926,29.809,29.809,29.809h298.089c17.882,0,29.808-11.926,29.808-29.809
				V629.985C958.264,612.103,946.338,600.177,928.456,600.177L928.456,600.177z M448.536,406.42L165.354,123.24h226.546
				c17.883,0,29.809-11.928,29.809-29.809c0-17.882-11.926-29.807-29.809-29.807H93.812c-17.882,0-29.807,11.926-29.807,29.807
				V391.52c0,17.882,11.926,29.809,29.807,29.809c17.883,0,29.809-11.928,29.809-29.809V164.974l283.182,283.182
				c11.926,11.926,29.807,11.926,41.733,0C460.462,439.211,460.462,418.348,448.536,406.42L448.536,406.42z M448.536,406.42"/>
		</g>
	</g>
</g>
<g id="图层_56" style="display:none;">
	<g style="display:inline;">
		<g>
			<defs>
				<rect id="SVGID_79_" x="64" y="62.89" width="895.147" height="896.668"/>
			</defs>
			<clipPath id="SVGID_80_">
				<use xlink:href="#SVGID_79_"  style="overflow:visible;"/>
			</clipPath>
			<path style="clip-path:url(#SVGID_80_);" d="M625.048,371.354c0.154,0.798,0.296,1.597,0.526,2.389
				c0.228,0.848,0.513,1.659,0.829,2.451c0.149,0.458,0.26,0.916,0.434,1.355c0.105,0.236,0.247,0.428,0.315,0.662
				c0.364,0.824,0.792,1.603,1.218,2.396c0.36,0.631,0.675,1.263,1.077,1.881c0.452,0.724,0.978,1.393,1.485,2.099
				c0.428,0.588,0.849,1.157,1.301,1.725c0.594,0.662,1.201,1.269,1.844,1.882c0.494,0.49,0.971,1.016,1.485,1.442
				c0.7,0.601,1.431,1.12,2.155,1.659c0.526,0.402,1.065,0.811,1.665,1.176c0.742,0.509,1.534,0.928,2.326,1.344
				c0.645,0.328,1.244,0.662,1.895,0.935c0.284,0.136,0.556,0.315,0.835,0.458c0.558,0.204,1.108,0.347,1.653,0.507
				c0.681,0.253,1.355,0.471,2.055,0.681c0.854,0.247,1.751,0.42,2.605,0.594c0.713,0.13,1.399,0.284,2.104,0.341
				c0.922,0.136,1.857,0.185,2.798,0.204c0.428,0.03,0.854,0.092,1.288,0.124h215.83c8.646,0.006,16.947-3.429,23.055-9.545
				c6.114-6.108,9.549-14.403,9.545-23.049c0.005-8.653-3.43-16.946-9.545-23.06c-6.108-6.116-14.403-9.551-23.055-9.545H735.625
				l213.491-213.497c7.692-7.643,11.059-18.63,8.968-29.269c-1.218-6.393-4.338-12.267-8.943-16.858
				c-6.116-6.116-14.415-9.545-23.062-9.526c-8.653-0.03-16.958,3.405-23.068,9.538l0.006,0.017L689.54,286.369v-137.14
				c0.006-13.195-7.935-25.098-20.127-30.149c-12.194-5.05-26.224-2.253-35.552,7.081c-6.133,6.11-9.568,14.415-9.556,23.068
				l0.013,215.842c0,0.458,0.098,0.898,0.098,1.363C624.465,368.092,624.676,369.74,625.048,371.354L625.048,371.354z
				 M397.636,649.993c-0.154-0.797-0.296-1.596-0.532-2.394c-0.222-0.83-0.501-1.646-0.822-2.445
				c-0.149-0.458-0.26-0.916-0.434-1.356c-0.105-0.234-0.247-0.426-0.315-0.662c-0.364-0.822-0.792-1.602-1.218-2.394
				c-0.36-0.632-0.675-1.263-1.084-1.882c-0.445-0.724-0.971-1.393-1.48-2.098c-0.42-0.582-0.854-1.163-1.306-1.727
				c-0.588-0.65-1.201-1.282-1.838-1.881c-0.494-0.49-0.978-1.016-1.485-1.443c-0.7-0.601-1.431-1.12-2.155-1.657
				c-0.532-0.421-1.089-0.818-1.665-1.177c-0.742-0.507-1.534-0.928-2.332-1.342c-0.639-0.328-1.237-0.662-1.889-0.935
				c-0.284-0.136-0.556-0.315-0.835-0.458c-0.558-0.204-1.108-0.347-1.659-0.509c-0.675-0.247-1.361-0.475-2.049-0.68
				c-0.854-0.247-1.751-0.421-2.605-0.594c-0.713-0.13-1.405-0.285-2.104-0.347c-0.928-0.124-1.863-0.185-2.798-0.198
				c-0.428-0.032-0.854-0.094-1.288-0.124H149.92c-8.646-0.006-16.941,3.429-23.055,9.537c-6.116,6.116-9.545,14.409-9.538,23.055
				c-0.006,8.646,3.422,16.947,9.538,23.062c6.114,6.114,14.409,9.549,23.055,9.543h137.153L73.575,902.383
				c-7.692,7.645-11.055,18.63-8.968,29.269c1.195,6.182,4.159,12.069,8.949,16.86c6.11,6.114,14.409,9.543,23.055,9.524
				c8.337,0.019,16.686-3.15,23.074-9.537l-0.013-0.019l213.472-213.485v137.141c-0.006,13.195,7.935,25.096,20.127,30.147
				c12.188,5.05,26.224,2.259,35.552-7.081c5.916-5.916,9.556-14.049,9.556-23.066l-0.013-215.844c0-0.458-0.098-0.897-0.098-1.361
				C398.219,653.268,398.009,651.615,397.636,649.993L397.636,649.993z M397.636,649.993"/>
		</g>
	</g>
</g>
<g id="图层_57" style="display:none;">
	<g style="display:inline;">
		<path d="M905.886,713.294l-72.482-64.271c21.171-43.521,33.089-92.356,33.089-144.045c0-166.422-123.161-303.721-283.235-326.685
			V82.89c212.406,23.511,377.649,203.432,377.649,422.088C960.908,580.787,940.676,651.693,905.886,713.294L905.886,713.294z
			 M488.849,116.924v226.564L365.1,233.757L488.849,116.924z M583.259,330.01c69.181,28.016,118.018,95.734,118.018,174.969
			c0,8.568-0.827,16.925-1.935,25.158L583.259,427.207V330.01z M894.369,940.166l-106.143-94.009
			c-58.674,43.428-128.611,72.46-204.967,80.91v-95.405c48.248-6.915,92.665-24.877,131.799-50.272L594.215,674.376
			c-3.684,1.814-7.132,4.013-10.956,5.569v-15.272l-94.41-83.599v301.548L263.868,670.195H64V339.761h152.311L71.125,211.193
			l62.715-70.569l823.244,728.947L894.369,940.166z M894.369,940.166"/>
	</g>
</g>
<g id="图层_58" style="display:none;">
	<g style="display:inline;">
		<path d="M803.99,62.9c43.421,0,78.956,43.645,78.956,96.995v701.262c0,53.35-35.535,96.982-78.956,96.982h-39.469
			c-43.421,0-78.951-43.632-78.951-96.982V159.895c0-53.35,35.531-96.995,78.951-96.995H803.99z M803.99,62.9"/>
		<path d="M258.43,62.9c43.421,0,78.956,43.645,78.956,96.995v701.262c0,53.35-35.535,96.982-78.956,96.982h-39.464
			c-43.427,0-78.956-43.632-78.956-96.982V159.895c0-53.35,35.529-96.995,78.956-96.995H258.43z M258.43,62.9"/>
	</g>
</g>
<g id="图层_59" style="display:none;">
	<g style="display:inline;">
		<g>
			<defs>
				<rect id="SVGID_81_" x="111" y="63.89" width="802.659" height="895.668"/>
			</defs>
			<clipPath id="SVGID_82_">
				<use xlink:href="#SVGID_81_"  style="overflow:visible;"/>
			</clipPath>
			<path style="clip-path:url(#SVGID_82_);" d="M789.43,376.902C624.054,287.46,524.426,198.03,359.051,108.563
				C193.67,19.089,111,63.841,111,242.713v536.71c0,178.921,82.696,223.648,248.051,134.219
				c165.375-89.518,265.002-178.922,430.378-268.37C954.784,555.824,954.784,466.332,789.43,376.902L789.43,376.902z
				 M789.43,376.902"/>
		</g>
	</g>
</g>
<g id="图层_60" style="display:none;">
	<g style="display:inline;">
		<path d="M191.869,64.076h641.089c70.81,0,128.216,56.98,128.216,127.4v636.977c0,70.289-57.406,127.4-128.216,127.4H191.869
			c-70.803,0-128.216-57.111-128.216-127.4V191.476C63.653,121.056,121.066,64.076,191.869,64.076L191.869,64.076z M191.869,64.076"
			/>
	</g>
</g>
<g id="图层_61" style="display:none;">
	<g style="display:inline;">
		<g>
			<defs>
				<rect id="SVGID_83_" x="62.973" y="129.36" width="897.213" height="767.65"/>
			</defs>
			<clipPath id="SVGID_84_">
				<use xlink:href="#SVGID_83_"  style="overflow:visible;"/>
			</clipPath>
			<path style="clip-path:url(#SVGID_84_);" d="M476.938,805.774c0,18.876-15.623,34.498-34.498,34.498
				c-9.172,0-17.771-3.773-24.27-10.247L238.71,650.535H97.471c-18.876,0-34.498-15.623-34.498-34.498V409.055
				c0-18.869,15.623-34.492,34.498-34.492H238.71l179.459-179.484c6.5-6.476,15.098-10.252,24.27-10.252
				c18.876,0,34.498,15.623,34.498,34.498V805.774z M600.352,639.214c-4.297,2.149-9.119,2.698-13.475,2.698
				c-18.821,0-34.493-15.098-34.493-34.497c0-40.973,62.541-29.647,62.541-94.866s-62.541-53.897-62.541-94.87
				c0-19.395,15.672-34.493,34.493-34.493c4.352,0,9.177,0.55,13.475,2.698c50.7,19.949,83.569,72.768,83.569,126.665
				C683.921,566.442,651.052,618.74,600.352,639.214L600.352,639.214z M654.823,766.429c-4.296,1.623-9.172,2.698-13.475,2.698
				c-19.394,0-35.071-15.648-35.071-34.498c0-15.098,8.648-25.345,21.022-31.794c14.573-7.549,28.048-14.025,40.998-23.722
				c53.373-38.825,84.618-100.791,84.618-166.565c0-65.768-31.245-127.739-84.618-166.559c-12.95-9.698-26.425-16.173-40.998-23.722
				c-12.37-6.45-21.022-16.702-21.022-31.8c0-18.845,15.677-34.497,34.497-34.497c4.876,0,9.753,1.073,14.049,2.702
				c101.346,42.597,167.09,144.462,167.09,253.876C821.913,621.968,756.169,723.833,654.823,766.429L654.823,766.429z
				 M709.246,893.09c-4.301,1.63-9.177,2.703-13.998,2.703c-18.876,0-34.498-15.623-34.498-34.497
				c0-15.624,8.074-24.246,21.024-31.795c7.549-4.326,16.147-7.029,24.275-11.327c15.044-8.098,30.142-17.246,44.195-27.498
				c88.391-65.219,140.66-168.163,140.66-278.127c0-109.968-52.269-212.908-140.66-278.126
				c-14.054-10.252-29.152-19.4-44.195-27.499c-8.128-4.296-16.726-6.999-24.275-11.325c-12.95-7.549-21.024-16.173-21.024-31.795
				c0-18.874,15.623-34.498,34.498-34.498c4.821,0,9.697,1.075,13.998,2.703c152.036,65.219,250.653,215.056,250.653,380.541
				S861.281,827.872,709.246,893.09L709.246,893.09z M709.246,893.09"/>
		</g>
	</g>
</g>
<g id="图层_62" style="display:none;">
	<g style="display:inline;">
		<path d="M959.648,481.695H541.45V63.893h-59.742v417.802H63.509v60.139h418.199v417.664h59.742V541.834h418.198V481.695z
			 M959.648,481.695"/>
	</g>
</g>
<g id="图层_63" style="display:none;">
	<g style="display:inline;">
		<g>
			<defs>
				<rect id="SVGID_85_" x="109.01" y="63.893" width="805.752" height="895.665"/>
			</defs>
			<clipPath id="SVGID_86_">
				<use xlink:href="#SVGID_85_"  style="overflow:visible;"/>
			</clipPath>
			<path style="clip-path:url(#SVGID_86_);" d="M160.919,774.578c19.915,6.735,41.67,2.641,61.238-11.663
				c0.507,0.785,0.997,1.556,1.504,2.323c-33.418,20.392-52.058,48.859-52.058,80.6c0,65.279,76.788,112.655,182.601,112.655
				c56.117,0,108.124-14.569,141.543-39.328c10.862,0.612,20.548,0.612,31.532,0.018c33.418,24.742,85.407,39.311,141.525,39.311
				c105.795,0,182.619-47.376,182.619-112.655c0-31.667-18.572-60.051-51.851-80.461c0.524-0.785,1.031-1.552,1.522-2.341
				c19.517,14.201,41.131,18.311,61.064,11.56c59.652-20.267,62.903-124.337,35.695-211.965
				c-14.448-46.483-40.994-82.906-63.112-107.144c0.261-3.357,0.4-6.7,0.4-10.074c0-25.708-6.73-50.645-20.003-74.303v-0.334
				c0-169.016-136.105-306.534-303.39-306.534c-167.299,0-303.405,137.518-303.405,306.534v1.084
				c-12.991,23.432-19.585,48.143-19.585,73.535c0,3.06,0.104,6.157,0.351,9.301c-22.399,24.377-49.262,61.086-63.814,107.933
				C98.067,650.294,101.319,754.329,160.919,774.578L160.919,774.578z M167.982,575.904c13.534-43.63,40.36-77.225,60.471-97.701
				c4.947-5.055,7.223-12.136,6.122-19.148c-0.737-4.722-1.122-9.236-1.122-13.623c0-19.252,5.598-38.227,16.598-56.325
				c2.393-3.955,3.512-8.568,3.217-13.17c-0.121-1.677-0.212-3.412-0.212-5.142c0-144.357,116.046-261.804,258.673-261.804
				s258.673,117.447,258.673,261.804c0,1.556-0.069,3.06-0.173,4.583c-0.3,4.634,0.858,9.231,3.269,13.168
				c11.227,18.254,16.911,37.386,16.911,56.867c0,4.583-0.404,9.214-1.206,14.148c-1.193,7.029,1.083,14.162,6.066,19.287
				c19.867,20.337,46.413,53.702,59.859,97.055c23.94,77.065,15.545,148.554-7.293,156.32c-11.837,4.003-25.861-8.619-34.589-19.044
				c-4.74-5.702-11.907-8.707-19.482-7.888c-7.379,0.773-13.919,5.178-17.397,11.751c-7.921,14.899-17.262,29.238-27.755,42.602
				c-4.301,5.507-5.805,12.697-4.036,19.461c1.764,6.751,6.59,12.297,13.043,14.989c31.215,13.008,49.088,31.862,49.088,51.725
				c0,37.459-61.853,67.921-137.886,67.921c-49.298,0-95.186-13.169-119.719-34.381c-4.058-3.512-9.271-5.437-14.621-5.437
				c-0.542,0-1.119,0.017-1.661,0.069c-15.441,1.158-27.491,1.136-42.493-0.018c-6.157-0.542-11.855,1.487-16.334,5.368
				c-24.568,21.229-70.457,34.399-119.772,34.399c-76.015,0-137.87-30.462-137.87-67.921c0-19.933,17.978-38.838,49.297-51.833
				c6.47-2.693,11.296-8.2,13.065-14.985c1.782-6.751,0.312-13.953-4.006-19.464c-10.545-13.481-19.864-27.837-27.734-42.668
				c-3.481-6.574-10.02-11-17.435-11.767c-7.518-0.789-14.725,2.185-19.499,7.887c-8.776,10.507-22.66,23.397-34.727,19.2
				C152.42,724.458,144.06,652.986,167.982,575.904L167.982,575.904z M167.982,575.904"/>
		</g>
	</g>
</g>
<g id="图层_64" style="display:none;">
	<g style="display:inline;">
		<path d="M312.79,187.296h-74.597c-27.504,0-49.788,22.284-49.788,49.765v74.645c0,27.477,22.284,49.761,49.788,49.761h74.597
			c27.503,0,49.788-22.284,49.788-49.761v-74.645C362.577,209.58,340.292,187.296,312.79,187.296L312.79,187.296z M387.455,535.634
			H163.523C108.56,535.634,64,580.198,64,635.162v223.932c0,54.964,44.56,99.523,99.523,99.523h223.933
			c54.963,0,99.527-44.559,99.527-99.523V635.162C486.983,580.198,442.418,535.634,387.455,535.634L387.455,535.634z
			 M437.243,834.211c0,41.209-33.431,74.645-74.666,74.645H188.405c-41.235,0-74.666-33.435-74.666-74.645V660.044
			c0-41.214,33.431-74.649,74.666-74.649h174.172c41.235,0,74.666,33.435,74.666,74.649V834.211z M810.438,709.805
			c13.753,0,24.908-11.129,24.908-24.883c0-13.753-11.155-24.883-24.908-24.883c-13.723,0-24.879,11.129-24.879,24.883
			C785.559,698.676,796.71,709.805,810.438,709.805L810.438,709.805z M561.626,684.922c-13.727,0-24.883,11.129-24.883,24.883
			s11.156,24.883,24.883,24.883h99.523c13.732,0,24.884-11.129,24.884-24.883v-124.41h74.643c13.728,0,24.883-11.125,24.883-24.878
			c0-13.754-11.155-24.883-24.883-24.883h-199.05c-13.727,0-24.883,11.129-24.883,24.883c0,13.753,11.156,24.878,24.883,24.878
			h74.667v99.527H561.626z M860.203,62.89h-223.91c-54.985,0-99.549,44.56-99.549,99.523v223.933
			c0,54.964,44.564,99.527,99.549,99.527h223.91c54.963,0,99.523-44.563,99.523-99.527V162.413
			C959.726,107.45,915.166,62.89,860.203,62.89L860.203,62.89z M909.939,361.467c0,41.209-33.383,74.645-74.592,74.645H661.149
			c-41.23,0-74.643-33.435-74.643-74.645V187.296c0-41.209,33.413-74.64,74.643-74.64h174.197c41.209,0,74.592,33.431,74.592,74.64
			V361.467z M785.559,187.296h-74.67c-27.455,0-49.74,22.284-49.74,49.765v74.645c0,27.477,22.285,49.761,49.74,49.761h74.67
			c27.481,0,49.787-22.284,49.787-49.761v-74.645C835.346,209.58,813.037,187.296,785.559,187.296L785.559,187.296z
			 M934.848,535.634c-13.755,0-24.909,11.129-24.909,24.883V784.45h-124.38c-13.727,0-24.883,11.125-24.883,24.878v99.527H586.505
			v-74.645c0-13.753-11.151-24.883-24.879-24.883c-13.727,0-24.883,11.129-24.883,24.883v99.527
			c0,13.75,11.156,24.878,24.883,24.878c4.533,0,8.779-1.216,12.442-3.337c3.659,2.121,7.904,3.337,12.437,3.337h199.053
			c13.728,0,24.879-11.125,24.879-24.878v-99.527h124.41c13.749,0,24.878-11.129,24.878-24.883V560.517
			C959.726,546.764,948.601,535.634,934.848,535.634L934.848,535.634z M387.455,62.89H163.523C108.56,62.89,64,107.45,64,162.413
			v223.933c0,54.964,44.56,99.527,99.523,99.527h223.933c54.963,0,99.527-44.563,99.527-99.527V162.413
			C486.983,107.45,442.418,62.89,387.455,62.89L387.455,62.89z M437.243,361.467c0,41.209-33.431,74.645-74.666,74.645H188.405
			c-41.235,0-74.666-33.435-74.666-74.645V187.296c0-41.209,33.431-74.64,74.666-74.64h174.172c41.235,0,74.666,33.431,74.666,74.64
			V361.467z M934.848,908.855c-13.755,0-24.909,11.129-24.909,24.883s11.155,24.878,24.909,24.878
			c13.754,0,24.878-11.125,24.878-24.878S948.601,908.855,934.848,908.855L934.848,908.855z M312.79,660.044h-74.597
			c-27.504,0-49.788,22.279-49.788,49.761v74.645c0,27.481,22.284,49.761,49.788,49.761h74.597
			c27.503,0,49.788-22.279,49.788-49.761v-74.645C362.577,682.324,340.292,660.044,312.79,660.044L312.79,660.044z M312.79,660.044"
			/>
	</g>
</g>
<g id="图层_65" style="display:none;">
	<g style="display:inline;">
		<g>
			<defs>
				<rect id="SVGID_87_" x="64" y="62.89" width="895.571" height="896.668"/>
			</defs>
			<clipPath id="SVGID_88_">
				<use xlink:href="#SVGID_87_"  style="overflow:visible;"/>
			</clipPath>
			<path style="clip-path:url(#SVGID_88_);" d="M924.233,336.372c-22.556-53.324-54.838-101.209-95.955-142.327
				c-41.114-41.113-89.003-73.399-142.327-95.951c-55.221-23.36-113.867-35.201-174.305-35.201
				c-60.438,0-119.084,11.84-174.305,35.201c-53.324,22.552-101.209,54.838-142.327,95.951
				c-41.113,41.118-73.399,89.003-95.951,142.327c-23.36,55.221-35.201,113.867-35.201,174.305
				c0,60.438,11.84,119.084,35.201,174.305c22.552,53.324,54.838,101.209,95.951,142.327
				c41.118,41.113,89.003,73.399,142.327,95.951c55.221,23.36,113.867,35.201,174.305,35.201c60.438,0,119.084-11.84,174.305-35.201
				c53.324-22.552,101.212-54.837,142.327-95.951c41.118-41.118,73.399-89.003,95.955-142.327
				c23.356-55.221,35.196-113.867,35.196-174.305C959.429,450.239,947.589,391.593,924.233,336.372L924.233,336.372z
				 M880.821,666.62c-20.177,47.706-49.071,90.556-85.874,127.358c-36.802,36.802-79.652,65.692-127.358,85.874
				c-49.378,20.883-101.846,31.474-155.943,31.474c-54.097,0-106.565-10.59-155.943-31.474
				c-47.706-20.177-90.556-49.071-127.358-85.874c-36.802-36.802-65.696-79.652-85.873-127.358
				c-20.883-49.378-31.474-101.846-31.474-155.943s10.59-106.565,31.478-155.943c20.177-47.706,49.067-90.556,85.869-127.358
				c36.803-36.802,79.652-65.696,127.358-85.874c49.378-20.883,101.846-31.474,155.943-31.474
				c54.102,0,106.565,10.59,155.943,31.474c47.706,20.177,90.556,49.071,127.358,85.874c36.802,36.803,65.696,79.652,85.874,127.358
				c20.887,49.378,31.474,101.846,31.474,155.943S901.704,617.242,880.821,666.62L880.821,666.62z M880.821,666.62"/>
		</g>
		<path d="M507.687,667.826c-11.22,0-20.458,3.299-28.376,11.22c-7.917,7.257-11.22,16.496-11.22,27.716
			c0,11.215,3.303,20.454,11.22,28.372c7.918,7.262,17.156,11.22,28.376,11.22c11.22,0,20.454-3.958,28.376-11.22
			c7.918-7.256,11.877-16.495,11.877-28.372c0-11.22-3.959-20.458-11.221-27.716C528.803,671.124,518.907,667.826,507.687,667.826
			L507.687,667.826z M507.687,667.826"/>
		<path d="M619.21,300.926c-25.738-23.752-59.394-34.972-101.624-34.972c-47.514,0-84.467,14.518-110.862,43.55
			c-26.395,27.716-38.931,64.669-38.931,110.862h52.129c0-32.335,7.261-57.408,21.779-75.885
			c15.836-21.776,40.253-32.335,73.244-32.335c27.715,0,49.495,7.258,64.669,23.097c14.518,14.518,22.436,34.972,22.436,61.367
			c0,18.477-6.596,35.634-19.793,52.133c-3.959,5.28-11.881,13.198-22.436,23.757c-35.633,31.675-57.413,56.748-66.651,76.546
			c-7.918,16.496-11.876,35.634-11.876,57.408v15.179h52.789v-15.179c0-17.817,3.962-33.651,12.541-48.17
			c6.597-11.877,16.496-23.757,31.014-36.294c29.037-25.738,46.853-42.895,53.449-50.811c16.5-21.776,25.078-47.514,25.078-77.207
			C656.16,354.38,643.624,323.363,619.21,300.926L619.21,300.926z M619.21,300.926"/>
	</g>
</g>
<g id="图层_66">
	<g>
		<path d="M512.347,62.89C264.729,62.89,64,263.624,64,511.237c0,247.612,200.729,448.351,448.347,448.351
			S960.694,758.85,960.694,511.237C960.694,263.624,759.961,62.89,512.347,62.89L512.347,62.89z M462.88,724.742L298.848,528.099
			l16.408-50.57l142.152,95.517l262.449-275.308l27.338,56.194L462.88,724.742z M462.88,724.742"/>
	</g>
</g>
<g id="图层_67">
</g>
</svg>
