<?xml version="1.0" encoding="utf-8"?>
<!-- Generator: Adobe Illustrator 17.0.0, SVG Export Plug-In . SVG Version: 6.00 Build 0)  -->
<!DOCTYPE svg PUBLIC "-//W3C//DTD SVG 1.1//EN" "http://www.w3.org/Graphics/SVG/1.1/DTD/svg11.dtd">
<svg version="1.1" xmlns="http://www.w3.org/2000/svg" xmlns:xlink="http://www.w3.org/1999/xlink" x="0px" y="0px" width="1024px"
	 height="1024px" viewBox="0 0 1024 1024" style="enable-background:new 0 0 1024 1024;" xml:space="preserve">
<g id="图层_1">
</g>
<g id="图层_2">
	<g>
		<path d="M930.802,481.924H539.319V93.237c0-16.776-11.181-27.964-27.964-27.964c-16.775,0-27.962,11.187-27.962,27.964v388.686
			l-391.485-2.797c-16.775,0-27.962,11.187-27.962,27.964c0,16.781,11.187,27.962,27.962,27.962l391.485,2.797v391.485
			c0,16.781,11.187,27.962,27.962,27.962c16.783,0,27.964-11.181,27.964-27.962V537.849h391.483
			c16.783,0,27.964-11.181,27.964-27.962C958.766,495.908,944.788,481.924,930.802,481.924L930.802,481.924z M930.802,481.924"/>
	</g>
</g>
</svg>
