<?xml version="1.0" encoding="utf-8"?>
<!-- Generator: Adobe Illustrator 17.0.0, SVG Export Plug-In . SVG Version: 6.00 Build 0)  -->
<!DOCTYPE svg PUBLIC "-//W3C//DTD SVG 1.1//EN" "http://www.w3.org/Graphics/SVG/1.1/DTD/svg11.dtd">
<svg version="1.1" xmlns="http://www.w3.org/2000/svg" xmlns:xlink="http://www.w3.org/1999/xlink" x="0px" y="0px" width="1024px"
	 height="1024px" viewBox="0 0 1024 1024" style="enable-background:new 0 0 1024 1024;" xml:space="preserve">
<g id="图层_1">
</g>
<g id="图层_2" style="display:none;">
	<g style="display:inline;">
		<path d="M930.802,481.924H539.319V93.237c0-16.776-11.181-27.964-27.964-27.964c-16.775,0-27.962,11.187-27.962,27.964v388.686
			l-391.485-2.797c-16.775,0-27.962,11.187-27.962,27.964c0,16.781,11.187,27.962,27.962,27.962l391.485,2.797v391.485
			c0,16.781,11.187,27.962,27.962,27.962c16.783,0,27.964-11.181,27.964-27.962V537.849h391.483
			c16.783,0,27.964-11.181,27.964-27.962C958.766,495.908,944.788,481.924,930.802,481.924L930.802,481.924z M930.802,481.924"/>
	</g>
</g>
<g id="图层_3" style="display:none;">
	<g style="display:inline;">
		<g>
			<defs>
				<rect id="SVGID_1_" x="64.012" y="87.531" width="896.009" height="848.916"/>
			</defs>
			<clipPath id="SVGID_2_">
				<use xlink:href="#SVGID_1_"  style="overflow:visible;"/>
			</clipPath>
			<path style="clip-path:url(#SVGID_2_);" d="M874.418,421.714H682.42c15.626-42.421,35.724-122.789,24.559-209.86
				c-4.467-58.042-40.184-102.693-89.3-118.323c-35.723-11.161-73.673-6.695-93.766,13.398
				c-24.557,24.557-35.722,73.673-49.116,127.25c-8.932,37.956-17.858,75.906-31.256,95.999
				c-35.718,62.514-129.484,87.071-140.649,91.537h-60.275c-13.398,0-22.33,8.928-22.33,22.326v468.827
				c0,13.394,8.932,22.326,22.33,22.326h71.44c2.229,0,6.695,0,8.928-2.233h413.017c212.089,0,223.254-417.479,223.254-421.945
				C957.023,461.898,912.373,421.714,874.418,421.714L874.418,421.714z M153.312,419.481H86.337
				c-13.393,0-22.324,8.928-22.324,22.326v468.827c0,13.398,8.932,22.326,22.324,22.326h66.976c13.398,0,22.324-8.928,22.324-22.326
				V441.806C175.637,430.642,164.477,419.481,153.312,419.481L153.312,419.481z M153.312,419.481"/>
		</g>
	</g>
</g>
<g id="图层_4" style="display:none;">
	<g style="display:inline;">
		<g>
			<defs>
				<rect id="SVGID_3_" x="64" y="82.995" width="896.029" height="856.549"/>
			</defs>
			<clipPath id="SVGID_4_">
				<use xlink:href="#SVGID_3_"  style="overflow:visible;"/>
			</clipPath>
			<path style="clip-path:url(#SVGID_4_);" d="M877.032,419.469H683.881c15.725-42.677,35.938-123.528,24.705-211.124
				c-4.493-58.392-40.424-103.31-89.836-119.035c-35.938-11.227-74.116-6.734-94.33,13.478
				c-24.705,24.706-35.937,74.116-49.411,128.015c-8.986,38.185-17.966,76.364-31.444,96.576
				c-38.179,62.89-123.528,89.842-130.263,92.089h-71.87c-13.478,0-22.459,8.98-22.459,22.459v473.894
				c0,6.739,2.241,11.227,6.734,15.719c4.493,4.493,8.986,6.739,15.725,6.739l80.852-2.246c60.643,0,332.4-2.246,413.255-2.246
				c213.365,0,224.597-419.99,224.597-424.483C960.135,459.894,915.217,419.469,877.032,419.469L877.032,419.469z M735.538,888.87
				c-89.837,0-424.483,2.246-424.483,2.246h-47.164V464.388h62.884c4.493-2.246,110.055-31.445,157.218-112.301
				c15.721-26.953,24.706-65.132,35.933-107.803c11.232-42.672,22.46-92.083,38.179-110.055c4.493-4.488,24.705-8.98,47.17-2.241
				c15.719,4.487,53.899,24.7,60.638,83.097c13.473,112.296-33.692,215.611-33.692,217.857c-2.246,6.739-2.246,15.719,2.246,22.459
				c4.493,6.74,11.232,11.233,17.971,11.233h224.591c13.48,0,38.185,17.966,38.185,44.917
				C915.217,585.669,883.773,888.87,735.538,888.87L735.538,888.87z M153.837,464.388c13.478,0,22.459-8.987,22.459-22.46
				c0-13.478-8.98-22.459-22.459-22.459H86.459c-13.473,0-22.459,8.98-22.459,22.459v471.648c0,13.473,8.986,22.459,22.459,22.459
				h67.379c13.478,0,22.459-8.986,22.459-22.459c0-13.474-8.98-22.46-22.459-22.46h-44.919V464.388H153.837z M153.837,464.388"/>
		</g>
	</g>
</g>
<g id="图层_5" style="display:none;">
	<g style="display:inline;">
		<g>
			<defs>
				<rect id="SVGID_5_" x="66" y="63.837" width="890.281" height="895.646"/>
			</defs>
			<clipPath id="SVGID_6_">
				<use xlink:href="#SVGID_5_"  style="overflow:visible;"/>
			</clipPath>
			<path style="clip-path:url(#SVGID_6_);" d="M555.684,509.35L946.79,118.237c12.722-12.714,12.722-31.796,0-44.51
				c-12.714-12.721-31.796-12.721-44.518,0L511.166,464.832L120.053,73.727c-12.714-12.721-31.798-12.721-44.512,0
				c-12.722,12.714-12.722,31.796,0,44.51L466.647,509.35L75.541,900.456c-12.722,12.721-12.722,31.806,0,44.52
				c6.361,6.361,15.894,9.541,22.255,9.541c6.361,0,15.904-3.18,22.257-9.541L511.166,557.05l387.931,391.106
				c6.355,6.361,15.896,9.541,22.257,9.541c9.541,0,15.894-3.18,22.255-9.541c12.721-12.721,12.721-31.798,0-44.52L555.684,509.35z
				 M555.684,509.35"/>
		</g>
	</g>
</g>
<g id="图层_6" style="display:none;">
	<g style="display:inline;">
		<g>
			<defs>
				<rect id="SVGID_7_" x="113.688" y="63.789" width="794.646" height="895.45"/>
			</defs>
			<clipPath id="SVGID_8_">
				<use xlink:href="#SVGID_7_"  style="overflow:visible;"/>
			</clipPath>
			<path style="clip-path:url(#SVGID_8_);" d="M576.711,130.887H444.376c-18.265,0-33.087-14.822-33.087-33.081
				c0-18.265,14.822-33.087,33.087-33.087h132.335c18.301,0,33.087,14.822,33.087,33.087
				C609.798,116.065,595.013,130.887,576.711,130.887L576.711,130.887z M576.711,130.887"/>
			<path style="clip-path:url(#SVGID_8_);" d="M827.924,323.474l36.858-36.858c12.934-12.934,12.934-33.843,0-46.782
				c-12.939-12.934-33.849-12.934-46.782,0l-34.011,34.01c-71.297-67.889-167.477-109.87-273.445-109.87
				c-218.918,0-397.011,178.092-397.011,397.011s178.094,397.011,397.011,397.011c218.919,0,397.011-178.092,397.011-397.011
				C907.555,471.889,877.68,389.808,827.924,323.474L827.924,323.474z M477.463,230.141c0-18.265,14.821-33.087,33.081-33.087
				c18.265,0,33.087,14.822,33.087,33.087v33.087c0,18.259-14.822,33.081-33.087,33.081c-18.26,0-33.081-14.822-33.081-33.081
				V230.141z M212.787,594.072H179.7c-18.26,0-33.08-14.792-33.08-33.087c0-18.295,14.821-33.087,33.08-33.087h33.087
				c18.26,0,33.081,14.792,33.081,33.087C245.868,579.28,231.047,594.072,212.787,594.072L212.787,594.072z M543.631,891.829
				c0,18.295-14.822,33.087-33.087,33.087c-18.26,0-33.081-14.792-33.081-33.087v-33.087c0-18.295,14.821-33.081,33.081-33.081
				c18.265,0,33.087,14.786,33.087,33.081V891.829z M696.644,454.487L531.222,586.822c-6.118,4.897-13.398,7.25-20.678,7.25
				c-9.693,0-19.32-4.236-25.837-12.409c-11.414-14.292-9.097-35.1,5.159-46.515l165.422-132.341
				c14.327-11.444,35.106-9.097,46.52,5.166C713.222,422.263,710.905,443.073,696.644,454.487L696.644,454.487z M841.388,594.072
				h-33.081c-18.301,0-33.087-14.792-33.087-33.087c0-18.295,14.786-33.087,33.087-33.087h33.081
				c18.295,0,33.087,14.792,33.087,33.087C874.475,579.28,859.682,594.072,841.388,594.072L841.388,594.072z M841.388,594.072"/>
		</g>
	</g>
</g>
<g id="图层_7" style="display:none;">
	<g style="display:inline;">
		<g>
			<defs>
				<rect id="SVGID_9_" x="114.639" y="64.12" width="794.7" height="895.511"/>
			</defs>
			<clipPath id="SVGID_10_">
				<use xlink:href="#SVGID_9_"  style="overflow:visible;"/>
			</clipPath>
			<path style="clip-path:url(#SVGID_10_);" d="M577.694,131.223H445.35c-18.266,0-33.089-14.823-33.089-33.083
				c0-18.266,14.823-33.089,33.089-33.089h132.344c18.302,0,33.089,14.823,33.089,33.089
				C610.784,116.4,595.997,131.223,577.694,131.223L577.694,131.223z M577.694,131.223"/>
			<path style="clip-path:url(#SVGID_10_);" d="M828.924,323.824l36.861-36.861c12.935-12.935,12.935-33.845,0-46.785
				c-12.94-12.935-33.852-12.935-46.785,0l-34.013,34.012c-71.302-67.894-167.488-109.877-273.464-109.877
				c-218.933,0-397.039,178.104-397.039,397.039S292.59,958.389,511.522,958.389c218.934,0,397.039-178.104,397.039-397.039
				C908.561,472.248,878.684,390.162,828.924,323.824L828.924,323.824z M544.612,890.531v-31.403
				c0-18.296-14.823-33.083-33.089-33.083c-18.261,0-33.083,14.787-33.083,33.083v31.403
				C322.366,874.981,197.897,750.507,182.342,594.44h31.403c18.261,0,33.083-14.793,33.083-33.089
				c0-18.296-14.822-33.089-33.083-33.089h-31.403C197.897,372.195,322.366,247.72,478.44,232.171v31.403
				c0,18.26,14.822,33.083,33.083,33.083c18.266,0,33.089-14.823,33.089-33.083v-31.403
				c156.068,15.584,280.541,140.024,296.092,296.091h-31.397c-18.302,0-33.089,14.793-33.089,33.089
				c0,18.296,14.787,33.089,33.089,33.089h31.397C825.153,750.507,700.68,874.981,544.612,890.531L544.612,890.531z
				 M544.612,890.531"/>
		</g>
		<path d="M656.277,403.162L490.843,535.512c-14.292,11.445-16.574,32.256-5.159,46.518c6.548,8.174,16.145,12.41,25.839,12.41
			c7.245,0,14.561-2.354,20.649-7.251l165.433-132.344c14.257-11.415,16.574-32.226,5.159-46.488
			C691.385,394.064,670.605,391.717,656.277,403.162L656.277,403.162z M656.277,403.162"/>
	</g>
</g>
<g id="图层_8" style="display:none;">
	<g style="display:inline;">
		<g>
			<defs>
				<rect id="SVGID_11_" x="81.157" y="63.89" width="861.446" height="896.614"/>
			</defs>
			<clipPath id="SVGID_12_">
				<use xlink:href="#SVGID_11_"  style="overflow:visible;"/>
			</clipPath>
			<path style="clip-path:url(#SVGID_12_);" d="M931.041,487.729L758.967,315.655c-13.769-13.763-34.416-13.763-48.181,0
				c-13.769,13.769-13.769,34.416,0,48.181l113.57,113.569H493.972c-20.648,0-34.411,13.769-34.411,34.418
				c0,20.648,13.763,34.411,34.411,34.411h330.385l-113.57,113.57c-13.769,13.769-13.769,34.416,0,48.181
				c6.886,6.884,13.765,10.323,24.088,10.323c10.324,0,17.209-3.439,24.093-10.323L931.041,532.47c0,0,0-3.439,3.44-3.439
				C944.806,518.707,944.806,498.054,931.041,487.729L931.041,487.729z M931.041,487.729"/>
			<path style="clip-path:url(#SVGID_12_);" d="M838.12,752.725c-20.648,0-34.411,13.763-34.411,34.417v68.828
				c0,20.648-13.77,34.411-34.418,34.411H184.241c-20.649,0-34.418-13.763-34.418-34.411V167.674
				c0-20.649,13.769-34.418,34.418-34.418h585.051c20.648,0,34.418,13.769,34.418,34.418v68.828
				c0,20.647,13.763,34.417,34.411,34.417c20.649,0,34.418-13.77,34.418-34.417v-68.828c0-58.505-44.741-103.246-103.246-103.246
				H184.241c-58.505,0-103.246,44.741-103.246,103.246v688.297c0,58.504,44.741,103.246,103.246,103.246h585.051
				c58.505,0,103.246-44.742,103.246-103.246v-68.828C872.538,766.488,858.769,752.725,838.12,752.725L838.12,752.725z
				 M838.12,752.725"/>
		</g>
	</g>
</g>
<g id="图层_9" style="display:none;">
	<g style="display:inline;">
		<path d="M510.457,63.331c-246.098,0-447.456,201.359-447.456,447.456c0,246.104,201.359,447.462,447.456,447.462
			c246.103,0,447.462-201.357,447.462-447.462C957.919,262.452,758.798,63.331,510.457,63.331L510.457,63.331z M913.173,510.787
			c0,93.966-33.561,181.224-87.257,250.58c-17.898-8.951-125.29-60.409-143.187-69.355c-20.134-8.952-51.458,4.475-78.306,22.372
			L494.798,609.229c-2.238-11.183-2.238-33.557,13.421-42.508c8.951-6.713,42.513,17.898,67.123,46.983
			c4.47,6.713,13.421,8.951,20.136,6.713c8.946-2.238,13.421-6.713,17.897-13.426c2.238-6.708,24.61-71.593-8.951-109.625
			c-6.708-6.713-6.708-11.189-6.708-13.426c4.475-22.373,58.167-53.691,98.44-76.064c53.691-31.323,100.674-58.172,105.15-93.965
			c2.238-11.189,4.475-33.562-116.338-114.106c-8.951-6.708-22.372-4.476-29.085,4.475l-73.832,89.489l-71.593-46.982l80.544-46.983
			c8.952-4.476,13.422-13.421,11.19-22.373c-2.238-8.946-8.952-15.659-17.903-17.897l-127.522-26.847l-24.61-13.423
			c26.842-4.475,53.691-8.951,80.539-8.951C731.95,108.076,913.173,287.061,913.173,510.787L913.173,510.787z M624.563,754.653
			c17.897-11.185,35.794-20.136,42.508-22.373c15.659,6.713,73.831,35.8,116.338,55.934
			C756.56,817.3,700.626,873.229,617.85,891.126C637.984,839.672,629.033,781.501,624.563,754.653L624.563,754.653z
			 M414.253,602.521c-44.745-69.36-76.063-116.343-111.863-123.051c-11.189-2.238-24.61,0-33.561,6.708
			c-20.136-4.47-60.404-98.442-82.778-201.354c15.659-26.847,82.778-123.051,190.17-145.423l58.172,33.555
			c4.47-2.232,6.708,0,8.946,0l73.831,15.665l-62.642,35.793c-6.713,4.475-11.189,11.189-11.189,17.902
			c0,6.709,4.475,15.66,8.951,20.136l118.576,78.301c8.946,6.713,22.372,4.475,29.086-4.47l73.831-89.495
			c33.557,22.372,69.355,49.221,78.301,62.647c-8.946,15.659-53.696,42.506-82.776,58.166
			c-58.172,33.561-114.106,64.885-118.576,107.393c-2.238,11.183,0,31.323,15.659,49.221c8.951,6.708,11.189,17.897,11.189,29.085
			c-26.847-22.377-62.647-42.513-93.97-24.61c-38.032,24.61-38.032,71.593-31.319,98.435c0,4.477,2.238,6.714,6.708,11.19
			l46.988,44.744c-17.902-4.475-31.324-8.946-40.275-8.946C454.528,662.925,429.919,627.125,414.253,602.521L414.253,602.521z
			 M107.746,510.787c0-64.88,15.659-125.284,42.508-178.98c17.902,69.355,53.696,178.98,100.678,196.883
			c15.665,6.708,29.087,4.47,42.508-4.476c17.902,2.238,60.409,71.593,82.783,105.148c38.031,62.648,58.172,91.734,85.014,91.734
			c11.189,0,67.123,20.134,116.343,38.032c4.47,13.421,22.373,100.679-17.902,154.374c-15.659,2.234-33.557,2.234-49.221,2.234
			C288.969,913.503,107.746,732.28,107.746,510.787L107.746,510.787z M107.746,510.787"/>
	</g>
</g>
<g id="图层_10" style="display:none;">
	<g style="display:inline;">
		<g>
			<defs>
				<rect id="SVGID_13_" x="64" y="181.89" width="895.987" height="660.232"/>
			</defs>
			<clipPath id="SVGID_14_">
				<use xlink:href="#SVGID_13_"  style="overflow:visible;"/>
			</clipPath>
			<path style="clip-path:url(#SVGID_14_);" d="M605.476,606.599C675.775,572.517,722.64,500.09,722.64,417.013
				c0-117.162-95.861-213.023-213.023-213.023c-117.163,0-213.018,95.861-213.018,213.023c0,83.077,48.991,155.505,117.157,189.586
				c-89.469,31.956-161.891,110.775-181.068,208.762c-2.126,6.392,0,12.784,4.261,17.045c4.263,4.256,10.654,8.518,17.041,8.518
				h511.252c6.393,0,12.785-2.131,17.041-8.518c4.261-4.261,6.392-10.653,4.261-17.045
				C767.373,717.374,697.076,640.685,605.476,606.599L605.476,606.599z M256.121,480.919c0-10.654-6.387-19.172-17.04-21.303
				c-61.776-14.909-72.429-78.819-72.429-115.031c0-68.166,46.865-119.293,108.645-119.293c12.779,0,21.303-8.518,21.303-21.303
				c0-12.779-8.524-21.301-21.303-21.301c-85.211,0-151.248,68.166-151.248,161.896c0,61.774,21.303,106.509,57.518,134.203
				c-59.649,25.562-104.383,76.689-117.162,146.986c-2.131,10.649,4.261,23.433,17.041,25.559h4.261
				c10.648,0,19.171-6.387,21.301-17.04c14.909-70.298,61.774-117.163,132.073-127.811
				C249.734,504.351,258.252,493.698,256.121,480.919L256.121,480.919z M959.094,627.9
				c-14.914-70.292-57.518-121.418-117.162-146.981c36.212-27.694,57.513-74.56,57.513-134.203
				c0-91.599-66.036-161.896-151.243-161.896c-12.784,0-21.301,8.523-21.301,21.301c0,12.78,8.518,21.303,21.301,21.303
				c63.905,0,108.64,51.126,108.64,119.293c0,36.212-8.523,100.117-72.428,115.031c-10.648,2.131-14.911,10.648-14.911,21.303v2.131
				c-2.131,10.648,6.393,23.432,17.041,23.432c70.297,10.648,117.162,57.513,132.071,127.811
				c2.131,10.653,10.653,17.04,21.303,17.04h4.261C954.833,649.208,961.225,638.554,959.094,627.9L959.094,627.9z M959.094,627.9"/>
		</g>
	</g>
</g>
<g id="图层_11" style="display:none;">
	<g style="display:inline;">
		<g>
			<defs>
				<rect id="SVGID_15_" x="63.005" y="181.896" width="896.982" height="660.965"/>
			</defs>
			<clipPath id="SVGID_16_">
				<use xlink:href="#SVGID_15_"  style="overflow:visible;"/>
			</clipPath>
			<path style="clip-path:url(#SVGID_16_);" d="M605.083,606.748c70.376-34.119,117.293-106.627,117.293-189.796
				c0-117.292-95.967-213.259-213.259-213.259c-117.293,0-213.254,95.967-213.254,213.259c0,83.169,49.045,155.677,117.287,189.796
				c-89.568,31.99-162.071,110.898-181.269,208.993c-2.128,10.665,4.266,23.458,17.065,25.591h4.261
				c10.665,0,19.197-6.399,21.33-17.059c23.459-110.893,121.553-191.934,234.58-191.934c113.026,0,211.126,81.041,234.584,191.934
				c2.133,10.66,12.793,19.192,25.591,17.059c10.661-2.133,19.193-12.793,17.06-25.591
				C767.159,717.646,696.784,640.871,605.083,606.748L605.083,606.748z M340.645,416.952c0-93.834,76.77-170.608,170.604-170.608
				c93.833,0,170.608,76.774,170.608,170.608S605.083,587.555,511.25,587.555C415.282,587.555,340.645,510.786,340.645,416.952
				L340.645,416.952z M255.339,480.928c0-10.665-6.394-19.192-17.059-21.325c-61.844-14.926-72.509-78.908-72.509-115.159
				c0-68.243,46.917-119.425,108.765-119.425c12.793,0,21.326-8.528,21.326-21.326c0-12.793-8.533-21.325-21.326-21.325
				c-87.439,0-151.416,70.375-151.416,162.076c0,61.843,21.326,106.627,57.582,134.351C120.987,504.387,76.203,555.57,63.41,625.945
				c-2.133,10.66,4.266,23.458,17.06,25.587h4.266c10.66,0,19.192-6.395,21.325-17.06c14.926-70.375,61.843-117.292,132.219-127.952
				C248.945,504.387,257.472,493.722,255.339,480.928L255.339,480.928z M959.093,625.945
				c-14.931-70.375-57.582-121.558-117.292-147.15c36.252-27.724,57.577-74.641,57.577-134.351
				c0-91.701-66.109-162.076-151.411-162.076c-12.798,0-21.325,8.532-21.325,21.325c0,12.798,8.527,21.326,21.325,21.326
				c63.976,0,108.76,51.182,108.76,119.425c0,36.251-8.532,100.233-72.508,115.159c-10.66,2.133-14.927,10.66-14.927,21.325v2.133
				c-2.133,10.661,6.4,23.459,17.06,23.459c70.375,10.66,117.292,57.577,132.218,127.952c2.133,10.665,10.665,17.06,21.326,17.06
				h4.266C952.694,649.403,961.226,636.605,959.093,625.945L959.093,625.945z M959.093,625.945"/>
		</g>
	</g>
</g>
<g id="图层_12" style="display:none;">
	<g style="display:inline;">
		<g>
			<defs>
				<rect id="SVGID_17_" x="113.148" y="63.701" width="797.785" height="896.412"/>
			</defs>
			<clipPath id="SVGID_18_">
				<use xlink:href="#SVGID_17_"  style="overflow:visible;"/>
			</clipPath>
			<path style="clip-path:url(#SVGID_18_);" d="M711.141,227.104c-8.318-6.238-18.716-4.159-24.949,0
				c-8.318,6.239-10.399,16.631-6.238,24.949c12.472,24.95,16.631,64.452,8.318,95.64c-76.929-228.7-234.94-280.679-241.179-282.759
				c-6.234-2.079-14.552,0-18.711,4.159c-6.238,4.159-8.314,12.477-6.238,18.711c14.556,91.481-29.104,203.751-126.824,332.654
				c-4.159-33.263-12.472-62.373-33.263-97.714c-4.159-8.318-14.556-12.478-22.87-10.397c-8.318,2.079-16.636,10.397-16.636,18.711
				c-4.154,49.899-24.945,93.56-49.894,141.38c-20.791,39.501-41.581,83.161-51.979,128.902
				C89.489,748.957,151.866,852.91,334.822,954.783c2.079,4.159,6.238,4.159,8.318,4.159c6.238,0,14.552-4.159,18.711-10.393
				c6.24-10.397,2.079-22.871-6.238-29.109h-2.075C162.259,813.408,137.309,719.848,160.18,611.736
				c8.318-41.581,29.108-81.087,47.819-118.509c14.553-29.109,29.109-58.212,39.502-87.322c4.159,22.871,6.238,43.661,8.318,70.691
				c0,8.318,6.238,16.631,14.553,18.711c8.318,2.08,16.636,0,22.87-6.238c114.35-139.296,172.568-264.043,170.488-370.076
				c49.894,27.028,149.693,103.953,197.513,284.833c2.079,6.239,6.234,12.477,14.552,14.556c6.24,2.076,14.553,0,20.791-4.159
				c29.108-27.029,39.502-66.53,39.502-106.037c54.058,64.457,133.061,182.961,126.827,313.943
				c-6.238,101.878-64.451,191.279-174.642,264.048c49.895-164.25-14.558-365.922-160.091-467.795
				c-6.238-4.159-16.637-4.159-22.871,0c-6.238,4.155-10.397,12.473-8.318,20.791c6.238,31.184,2.079,101.873-27.029,162.165
				c-8.314-41.581-27.025-66.53-27.025-68.61c-4.159-6.234-12.477-8.313-20.795-8.313c-8.314,2.08-14.553,8.313-14.553,16.631
				c0,0-12.472,66.53-58.212,130.981C324.43,709.45,299.479,753.116,297.4,807.17c0,12.477,8.318,20.79,20.791,20.79
				c12.477,2.08,20.79-8.313,20.79-20.79c2.079-45.74,22.87-81.083,45.74-114.35c22.87-31.184,37.422-64.451,47.82-89.401
				c2.079,16.631,4.159,37.427,0,60.297c-2.079,8.313,2.079,18.712,10.397,22.866c8.313,4.159,18.711,2.08,24.944-4.154
				c54.06-60.298,74.85-145.539,76.929-205.831c120.589,110.191,162.17,303.545,87.322,444.924v2.08c0,2.079,0,2.079-2.079,4.159
				v8.314c0,2.08,0,2.08,2.079,4.159v2.08l2.08,2.079c0,2.079,2.079,2.079,2.079,4.159c0,0,2.08,2.079,4.159,2.079l2.08,2.08
				c2.075,0,2.075,0,4.154,2.075h10.397c2.079,0,4.159,0,6.238-2.075c158.011-87.327,241.174-199.592,247.412-330.58
				C912.808,422.538,742.325,249.974,711.141,227.104L711.141,227.104z M711.141,227.104"/>
		</g>
	</g>
</g>
<g id="图层_13" style="display:none;">
	<g style="display:inline;">
		<g>
			<defs>
				<rect id="SVGID_19_" x="114.489" y="63.66" width="795.292" height="896.178"/>
			</defs>
			<clipPath id="SVGID_20_">
				<use xlink:href="#SVGID_19_"  style="overflow:visible;"/>
			</clipPath>
			<path style="clip-path:url(#SVGID_20_);" d="M765.388,205.051c-10.13-9.104-24.766-11.095-36.918-5.002
				c-12.186,6.093-19.406,18.972-18.214,32.547c3.612,40.929,2.653,83.672-1.586,115.992
				c-84.27-137.283-268.04-271.58-277.108-278.169c-10.596-7.684-24.702-8.412-36.059-1.824
				c-11.322,6.594-17.715,19.208-16.289,32.219c0.297,2.617,23.872,227.312-25.232,370.981
				c-14.172-27.551-33.078-55.793-55.959-71.026c-47.482-31.623-138.572-37.978-148.803-38.604
				c-13.475-0.961-26.091,6.886-31.85,19.269c-5.73,12.348-3.178,27.116,6.224,36.984c0.596,0.565,56.754,61.487,56.754,225.123
				c0,2.486,0.263,4.871,0.793,7.22c7.948,119.232,75.064,242.045,179.198,303.265c5.199,3.047,10.994,4.572,16.79,4.572
				c0.197,0,0.393-0.035,0.661,0c18.275,0,33.109-14.803,33.109-33.113c0-5.497-1.354-10.697-3.708-15.264
				c-4.436-16.223-6.655-46.189-6.655-63.014c0-1.354-0.065-2.677-0.232-4.006c-1.062-31.32-5.462-57.577-11.423-79.333
				c22.119,13.807,46.027,37.12,66.287,53.044c7.22,5.695,16.425,8.079,25.529,6.69c9.075-1.424,17.153-6.492,22.285-14.106
				c35.332-51.919,30.395-160.094,21.16-231.581c91.352,61.524,218.435,159.529,215.883,259.395c0,5.73-0.328,11.323-0.793,16.95
				c-1.229,13.708,6.189,26.758,18.572,32.714c12.419,6.064,27.188,3.643,37.22-5.794c73.34-69.597,113.77-153.502,113.77-253.367
				C916.01,344.082,771.547,210.577,765.388,205.051L765.388,205.051z M765.388,205.051"/>
		</g>
	</g>
</g>
<g id="图层_14" style="display:none;">
	<g style="display:inline;">
		<g>
			<defs>
				<rect id="SVGID_21_" x="64.262" y="63.765" width="895.017" height="896.371"/>
			</defs>
			<clipPath id="SVGID_22_">
				<use xlink:href="#SVGID_21_"  style="overflow:visible;"/>
			</clipPath>
			<path style="clip-path:url(#SVGID_22_);" d="M511.46,64.234c-246.686,0-447.348,200.662-447.348,447.349
				S264.774,958.931,511.46,958.931c246.688,0,447.349-200.66,447.349-447.348S758.147,64.234,511.46,64.234L511.46,64.234z
				 M543.558,736.252c0,17.748-14.349,32.098-32.098,32.098c-17.748,0-32.097-14.35-32.097-32.098V447.393
				c0-17.749,14.349-32.098,32.097-32.098c17.749,0,32.098,14.349,32.098,32.098V736.252z M511.46,351.105
				c-26.573,0-48.141-21.598-48.141-48.142c0-26.607,21.568-48.146,48.141-48.146c26.574,0,48.142,21.539,48.142,48.146
				C559.602,329.507,538.034,351.105,511.46,351.105L511.46,351.105z M511.46,351.105"/>
		</g>
	</g>
</g>
<g id="图层_15" style="display:none;">
	<g style="display:inline;">
		<g>
			<defs>
				<rect id="SVGID_23_" x="64.11" y="63.316" width="895.017" height="896.371"/>
			</defs>
			<clipPath id="SVGID_24_">
				<use xlink:href="#SVGID_23_"  style="overflow:visible;"/>
			</clipPath>
			<path style="clip-path:url(#SVGID_24_);" d="M511.929,959.218c246.686,0,447.348-200.662,447.348-447.349
				S758.616,64.521,511.929,64.521c-246.688,0-447.349,200.66-447.349,447.348S265.242,959.218,511.929,959.218L511.929,959.218z
				 M479.831,287.201c0-17.748,14.349-32.098,32.098-32.098c17.748,0,32.097,14.35,32.097,32.098v288.858
				c0,17.749-14.349,32.098-32.097,32.098c-17.749,0-32.098-14.349-32.098-32.098V287.201z M511.929,672.347
				c26.573,0,48.141,21.598,48.141,48.142c0,26.607-21.568,48.146-48.141,48.146c-26.574,0-48.142-21.539-48.142-48.146
				C463.787,693.946,485.355,672.347,511.929,672.347L511.929,672.347z M511.929,672.347"/>
		</g>
	</g>
</g>
<g id="图层_16" style="display:none;">
	<g style="display:inline;">
		<g>
			<defs>
				<rect id="SVGID_25_" x="63.705" y="62.806" width="896.013" height="897.368"/>
			</defs>
			<clipPath id="SVGID_26_">
				<use xlink:href="#SVGID_25_"  style="overflow:visible;"/>
			</clipPath>
			<path style="clip-path:url(#SVGID_26_);" d="M511.4,958.968c-246.927,0-447.846-200.884-447.846-447.846
				c0-246.927,200.919-447.847,447.846-447.847c246.962,0,447.847,200.885,447.847,447.847S758.362,958.968,511.4,958.968
				L511.4,958.968z M511.4,127.539c-211.518,0-383.584,172.065-383.584,383.584c0,211.489,172.066,383.584,383.584,383.584
				c211.489,0,383.585-172.066,383.585-383.584C894.986,299.603,722.89,127.539,511.4,127.539L511.4,127.539z M511.4,127.539"/>
		</g>
		<path d="M463.206,302.27c0,26.617,21.577,48.196,48.195,48.196c26.619,0,48.196-21.578,48.196-48.196
			c0-26.621-21.577-48.2-48.196-48.2C484.783,254.071,463.206,275.649,463.206,302.27L463.206,302.27z M463.206,302.27"/>
		<path d="M511.4,768.175c-17.738,0-32.133-14.366-32.133-32.134v-289.18c0-17.739,14.395-32.134,32.133-32.134
			c17.739,0,32.134,14.395,32.134,32.134v289.18C543.534,753.808,529.139,768.175,511.4,768.175L511.4,768.175z M511.4,768.175"/>
	</g>
</g>
<g id="图层_17" style="display:none;">
	<g style="display:inline;">
		<g>
			<defs>
				<rect id="SVGID_27_" x="63.555" y="62.857" width="896.013" height="897.368"/>
			</defs>
			<clipPath id="SVGID_28_">
				<use xlink:href="#SVGID_27_"  style="overflow:visible;"/>
			</clipPath>
			<path style="clip-path:url(#SVGID_28_);" d="M511.872,64.063c246.927,0,447.846,200.884,447.846,447.846
				c0,246.927-200.919,447.847-447.846,447.847c-246.962,0-447.847-200.885-447.847-447.847S264.91,64.063,511.872,64.063
				L511.872,64.063z M511.872,895.493c211.518,0,383.584-172.065,383.584-383.584c0-211.489-172.066-383.584-383.584-383.584
				c-211.489,0-383.585,172.066-383.585,383.584C128.287,723.428,300.383,895.493,511.872,895.493L511.872,895.493z
				 M511.872,895.493"/>
		</g>
		<path d="M560.067,720.761c0-26.617-21.577-48.196-48.195-48.196c-26.619,0-48.196,21.578-48.196,48.196
			c0,26.621,21.577,48.2,48.196,48.2C538.49,768.96,560.067,747.382,560.067,720.761L560.067,720.761z M560.067,720.761"/>
		<path d="M511.872,254.856c17.738,0,32.133,14.366,32.133,32.134v289.18c0,17.739-14.395,32.134-32.133,32.134
			c-17.739,0-32.134-14.395-32.134-32.134V286.99C479.738,269.223,494.134,254.856,511.872,254.856L511.872,254.856z
			 M511.872,254.856"/>
	</g>
</g>
<g id="图层_18" style="display:none;">
	<g style="display:inline;">
		<g>
			<defs>
				<rect id="SVGID_29_" x="141.985" y="64.467" width="741.051" height="896.376"/>
			</defs>
			<clipPath id="SVGID_30_">
				<use xlink:href="#SVGID_29_"  style="overflow:visible;"/>
			</clipPath>
			<path style="clip-path:url(#SVGID_30_);" d="M876.445,726.098c-1.139-1.605-114.955-159.943-114.955-277.091
				c0-162.41-73.431-245.653-156.859-276.72v-14.777c0-51.033-41.527-92.56-92.56-92.56c-51.028,0-92.555,41.527-92.555,92.56
				v14.744c-83.426,31.071-156.859,114.315-156.859,276.725c0,116.87-113.787,275.02-114.926,276.596
				c-5.216,7.189-7.095,16.322-5.122,25.022c1.972,8.639,7.589,16.073,15.428,20.268c5.461,2.965,103.543,55.227,225.164,81.482
				c20.639,64.021,71.176,107.337,128.87,107.337c57.699,0,108.233-43.316,128.844-107.305
				c121.592-26.132,219.675-78.088,225.135-81.02c7.868-4.195,13.511-11.6,15.489-20.268
				C883.512,742.42,881.661,733.287,876.445,726.098L876.445,726.098z M481.221,157.509c0-17.001,13.85-30.855,30.849-30.855
				c17,0,30.855,13.855,30.855,30.855v0.894c-6.912-0.588-13.761-0.894-20.55-0.894h-20.61c-6.784,0-13.634,0.306-20.545,0.894
				V157.509z M512.071,897.979c-21.533,0-41.588-12.927-55.904-34.027c18.511,1.939,37.21,3.178,55.904,3.178
				c18.7,0,37.395-1.239,55.905-3.178C553.664,885.085,533.576,897.979,512.071,897.979L512.071,897.979z M512.071,897.979"/>
		</g>
	</g>
</g>
<g id="图层_19" style="display:none;">
	<g style="display:inline;">
		<g>
			<defs>
				<rect id="SVGID_31_" x="142.14" y="64.124" width="741.059" height="896.386"/>
			</defs>
			<clipPath id="SVGID_32_">
				<use xlink:href="#SVGID_31_"  style="overflow:visible;"/>
			</clipPath>
			<path style="clip-path:url(#SVGID_32_);" d="M876.607,725.762c-1.139-1.573-114.956-160.189-114.956-277.094
				c0-162.411-73.432-245.655-156.86-276.723v-14.777c0-51.033-41.528-92.561-92.561-92.561c-51.029,0-92.556,41.528-92.556,92.561
				v15.982c-10.399,7.618-15.521,21.012-11.388,33.968c5.184,16.228,22.584,25.117,38.784,19.994
				c17.122-5.461,35.605-8.239,54.856-8.239h20.61c111.106,0,177.406,85.895,177.406,229.767
				c0,104.16,70.289,226.955,106.228,282.983c-55.317,25.239-176.479,73.461-293.94,73.461c-117.15,0-238.555-48.562-293.906-73.889
				C254.297,675.284,324.518,552.8,324.518,448.64c0-60.195,11.2-110.117,33.294-148.406c8.512-14.778,3.457-33.632-11.294-42.145
				c-14.839-8.55-33.628-3.455-42.145,11.289c-27.582,47.761-41.56,108.083-41.56,179.262
				c0,116.872-113.789,275.023-114.927,276.599c-5.216,7.189-7.095,16.322-5.122,25.023c1.972,8.639,7.589,16.073,15.428,20.268
				c5.461,2.965,103.544,55.227,225.167,81.483c20.639,64.022,71.177,107.338,128.872,107.338
				c57.699,0,108.234-43.316,128.845-107.306c121.594-26.133,219.677-78.089,225.138-81.021c7.834-4.195,13.511-11.6,15.489-20.268
				C883.675,742.084,881.823,732.983,876.607,725.762L876.607,725.762z M501.925,157.167c-7.001,0-13.696,0.956-20.545,1.511v-1.511
				c0-17.001,13.85-30.856,30.85-30.856c17.001,0,30.856,13.855,30.856,30.856v0.894c-6.912-0.588-13.761-0.894-20.55-0.894H501.925
				z M512.229,897.645c-21.533,0-41.588-12.927-55.905-34.028c18.511,1.939,37.211,3.178,55.905,3.178
				c18.7,0,37.395-1.239,55.906-3.178C553.823,884.75,533.735,897.645,512.229,897.645L512.229,897.645z M512.229,897.645"/>
		</g>
	</g>
</g>
<g id="图层_20">
	<g>
		<g>
			<defs>
				<rect id="SVGID_33_" x="64.158" y="84.651" width="897.028" height="855.384"/>
			</defs>
			<clipPath id="SVGID_34_">
				<use xlink:href="#SVGID_33_"  style="overflow:visible;"/>
			</clipPath>
			<path style="clip-path:url(#SVGID_34_);" d="M510.448,938.789c-21.737,0-45.798-13.04-71.526-38.733L249.403,710.538h-85.828
				c-54.899,0-99.573-44.674-99.573-99.572V411.825c0-54.899,44.674-99.573,99.573-99.573h85.828l189.422-189.417
				c25.489-25.495,49.52-38.404,71.423-38.404c23.799,0,51.613,16.232,51.613,61.868v730.192
				C561.862,922.492,534.149,938.789,510.448,938.789L510.448,938.789z M510.448,938.789"/>
		</g>
		<path d="M677.596,737.886c-6.7,0-13.472-2.02-19.346-6.239c-14.87-10.687-18.289-31.431-7.603-46.336l13.143-17.989
			c34.352-46.563,64.025-86.825,64.025-155.925c0-71.597-26.284-106.345-59.578-150.325c-5.874-7.732-11.75-15.563-17.559-23.63
			c-10.686-14.87-7.298-35.614,7.601-46.335c14.905-10.752,35.614-7.303,46.335,7.601c5.445,7.601,11.051,15.001,16.562,22.304
			c35.912,47.464,73.019,96.519,73.019,190.384c0,90.907-40.854,146.368-76.898,195.322l-12.682,17.362
			C698.112,733.111,687.953,737.886,677.596,737.886L677.596,737.886z M677.596,737.886"/>
		<path d="M790.513,850.571c-7.769,0-15.598-2.724-21.873-8.234c-13.775-12.08-15.168-33.056-3.09-46.831
			c66.618-75.973,128.218-162.9,128.218-284.108c0-121.213-61.6-208.176-128.218-284.083c-12.078-13.805-10.686-34.746,3.09-46.861
			c13.709-12.084,34.682-10.722,46.831,3.048c71.526,81.62,144.677,184.343,144.677,327.896
			c0,143.547-73.152,246.305-144.677,327.855C808.867,846.753,799.705,850.571,790.513,850.571L790.513,850.571z M790.513,850.571"
			/>
	</g>
</g>
</svg>
