<?xml version="1.0" encoding="utf-8"?>
<!-- Generator: Adobe Illustrator 17.0.0, SVG Export Plug-In . SVG Version: 6.00 Build 0)  -->
<!DOCTYPE svg PUBLIC "-//W3C//DTD SVG 1.1//EN" "http://www.w3.org/Graphics/SVG/1.1/DTD/svg11.dtd">
<svg version="1.1" xmlns="http://www.w3.org/2000/svg" xmlns:xlink="http://www.w3.org/1999/xlink" x="0px" y="0px" width="1024px"
	 height="1024px" viewBox="0 0 1024 1024" style="enable-background:new 0 0 1024 1024;" xml:space="preserve">
<g id="图层_1">
</g>
<g id="图层_2" style="display:none;">
	<g style="display:inline;">
		<g>
			<defs>
				<rect id="SVGID_1_" x="132.133" y="64.614" width="759.302" height="894.657"/>
			</defs>
			<clipPath id="SVGID_2_">
				<use xlink:href="#SVGID_1_"  style="overflow:visible;"/>
			</clipPath>
			<path style="clip-path:url(#SVGID_2_);" d="M855.845,193.623c-114.263-4.96-223.656-43.6-325.16-114.886l-19.24-13.495
				l-19.192,13.495C390.808,150.009,281.41,188.663,167.862,193.6h-35.866v302.153c0,221.331,152.682,410.867,371.313,460.897
				l9.54,1.526l6.854-1.526c218.582-50.031,371.237-239.566,371.237-460.897V193.6L855.845,193.623z M511.867,921.986l-0.2,0.049
				l-1.032-0.161c-202.041-46.522-343.098-221.651-343.098-426.108V229.128h1.085c120.744-5.235,236.092-45.767,342.844-120.459
				c106.792,74.693,222.141,115.224,343.609,120.472l0.307,266.612C855.397,700.41,714.082,875.686,511.867,921.986L511.867,921.986
				z M715.737,372.822c-5.942-5.844-15.58-5.76-21.416,0.173L465.727,610.271L329.066,465.162
				c-5.649-6.12-15.287-6.507-21.407-0.845l-3.864,3.567c-6.12,5.649-6.507,15.287-0.845,21.407l151.463,160.803
				c5.644,6.115,15.282,6.503,21.402,0.845L719.669,397.92c5.843-5.947,5.754-15.585-0.174-21.416L715.737,372.822z
				 M715.737,372.822"/>
		</g>
	</g>
</g>
<g id="图层_3">
	<g>
		<g>
			<defs>
				<rect id="SVGID_3_" x="131.512" y="64.281" width="760.214" height="895.732"/>
			</defs>
			<clipPath id="SVGID_4_">
				<use xlink:href="#SVGID_3_"  style="overflow:visible;"/>
			</clipPath>
			<path style="clip-path:url(#SVGID_4_);" d="M856.093,193.445c-114.4-4.966-223.925-43.652-325.551-115.024L511.279,64.91
				l-19.215,13.511c-101.567,71.358-211.096,110.058-324.78,115.001h-35.909v302.516c0,221.597,152.866,411.36,371.759,461.451
				l9.552,1.528l6.863-1.528c218.844-50.091,371.682-239.854,371.682-461.451V193.422L856.093,193.445z M719.753,397.982
				l-244.16,253.323c-6.127,5.655-15.763,5.281-21.428-0.846L302.52,489.464c-5.655-6.127-5.281-15.763,0.846-21.428l3.87-3.576
				c6.127-5.651,15.763-5.277,21.431,0.846l136.839,145.283l228.855-237.557c5.851-5.954,15.501-6.029,21.441-0.178l3.749,3.7
				C725.514,382.392,725.59,392.042,719.753,397.982L719.753,397.982z M719.753,397.982"/>
		</g>
	</g>
</g>
</svg>
