<?xml version="1.0" encoding="utf-8"?>
<!-- Generator: Adobe Illustrator 17.0.0, SVG Export Plug-In . SVG Version: 6.00 Build 0)  -->
<!DOCTYPE svg PUBLIC "-//W3C//DTD SVG 1.1//EN" "http://www.w3.org/Graphics/SVG/1.1/DTD/svg11.dtd">
<svg version="1.1" xmlns="http://www.w3.org/2000/svg" xmlns:xlink="http://www.w3.org/1999/xlink" x="0px" y="0px" width="1024px"
	 height="1024px" viewBox="0 0 1024 1024" style="enable-background:new 0 0 1024 1024;" xml:space="preserve">
<g id="图层_1">
</g>
<g id="图层_2" style="display:none;">
	<g style="display:inline;">
		<g>
			<defs>
				<rect id="SVGID_1_" x="67.875" y="64.143" width="888.396" height="895.915"/>
			</defs>
			<clipPath id="SVGID_2_">
				<use xlink:href="#SVGID_1_"  style="overflow:visible;"/>
			</clipPath>
			<path style="clip-path:url(#SVGID_2_);" d="M852.458,471.881c-44.583,0-82.642,28.586-96.777,68.434H677.88
				c1.542-9.259,2.528-18.728,2.528-28.581c0-63.106-35.396-117.969-87.347-145.889l29.815-98.605
				c7.719,1.861,15.856,2.911,24.241,2.911c56.685,0,102.707-45.987,102.707-102.809c0-56.725-46.022-102.707-102.707-102.707
				c-56.754,0-102.741,45.983-102.741,102.707c0,43.109,26.447,79.867,63.982,95.163l-29.222,96.782
				c-19.715-8.385-41.496-12.949-64.297-12.949c-43.003,0-82.044,16.313-111.51,43.114l-152.9-152.941l-1.651,1.758
				c17.435-18.451,28.201-43.358,28.201-70.824c0-56.72-45.914-102.707-102.702-102.707c-56.759,0-102.746,45.987-102.746,102.707
				c0,56.86,45.987,102.813,102.746,102.813c27.462,0,52.37-10.806,70.748-28.27l-5.4,5.293l152.971,152.9
				c-26.87,29.435-43.284,68.613-43.284,111.62c0,37.603,12.589,72.29,33.743,100.107L252.038,717.702
				c-18.797-24.518-48.336-40.408-81.622-40.408c-56.719,0-102.672,46.09-102.672,102.81c0,56.685,45.953,102.706,102.672,102.706
				c56.72,0,102.775-46.021,102.775-102.706c0-17.956-4.666-34.867-12.768-49.565L392.77,623.695
				c30.238,32.903,73.699,53.672,122.072,53.672c24.552,0,47.737-5.298,68.678-14.946l46.093,104.495
				c-31.113,17.679-52.019,51.003-52.019,89.272c0,56.753,46.021,102.775,102.809,102.775c56.719,0,102.639-46.022,102.639-102.775
				c0-56.685-45.919-102.741-102.639-102.741c-13.153,0-25.572,2.562-37.112,6.907L597.13,655.407
				c37.427-21.47,65.736-57.283,77.343-99.864h77.139c-1.23,6.135-1.72,12.449-1.72,19.01c0,56.72,45.953,102.741,102.634,102.741
				c56.826,0,102.818-46.021,102.818-102.741C955.268,517.868,909.353,471.881,852.458,471.881L852.458,471.881z M852.458,471.881"
				/>
		</g>
	</g>
</g>
<g id="图层_3">
	<g>
		<path d="M263.656,684.707c-109.739,0-199.782-90.045-199.782-199.782c0-109.743,90.043-199.786,199.782-199.786
			c109.743,0,199.786,90.043,199.786,199.786C466.252,591.847,376.209,684.707,263.656,684.707L263.656,684.707z M263.656,338.603
			c-78.785,0-143.502,64.716-143.502,143.507c0,78.785,64.717,143.507,143.502,143.507c78.79,0,143.507-64.722,143.507-143.507
			C407.163,403.318,342.446,338.603,263.656,338.603L263.656,338.603z M781.404,321.718c-70.343,0-126.624-56.275-126.624-126.622
			c0-70.343,56.281-126.624,126.624-126.624c70.349,0,126.628,56.281,126.628,126.624
			C908.033,265.443,851.753,321.718,781.404,321.718L781.404,321.718z M781.404,121.936c-39.39,0-70.343,30.954-70.343,70.349
			c0,39.39,30.952,70.343,70.343,70.343c39.395,0,70.349-30.952,70.349-70.343C851.753,152.89,820.799,121.936,781.404,121.936
			L781.404,121.936z M806.732,954.836c-84.418,0-151.951-67.533-151.951-151.949c0-84.418,67.533-151.949,151.951-151.949
			c84.416,0,151.949,67.531,151.949,151.949C958.681,887.303,891.148,954.836,806.732,954.836L806.732,954.836z M806.732,707.217
			c-53.464,0-95.67,42.206-95.67,95.67s42.206,95.676,95.67,95.676c53.464,0,95.668-42.212,95.668-95.676
			S860.196,707.217,806.732,707.217L806.732,707.217z M806.732,707.217"/>
		<path d="M430.376,540.692l283.891,177.612l-29.855,47.719L400.521,588.418L430.376,540.692z M678.479,211.643l26.956,49.379
			L423.853,414.66l-26.956-49.385L678.479,211.643z M678.479,211.643"/>
	</g>
</g>
</svg>
