<?xml version="1.0" encoding="utf-8"?>
<!-- Generator: Adobe Illustrator 17.0.0, SVG Export Plug-In . SVG Version: 6.00 Build 0)  -->
<!DOCTYPE svg PUBLIC "-//W3C//DTD SVG 1.1//EN" "http://www.w3.org/Graphics/SVG/1.1/DTD/svg11.dtd">
<svg version="1.1" xmlns="http://www.w3.org/2000/svg" xmlns:xlink="http://www.w3.org/1999/xlink" x="0px" y="0px" width="1024px"
	 height="1024px" viewBox="0 0 1024 1024" style="enable-background:new 0 0 1024 1024;" xml:space="preserve">
<g id="图层_1">
</g>
<g id="图层_2" style="display:none;">
	<g style="display:inline;">
		<g>
			<defs>
				<rect id="SVGID_1_" x="64.153" y="284.798" width="896.049" height="454.648"/>
			</defs>
			<clipPath id="SVGID_2_">
				<use xlink:href="#SVGID_1_"  style="overflow:visible;"/>
			</clipPath>
			<path style="clip-path:url(#SVGID_2_);" d="M732.003,284.798H291.345c-125.552,0-227.324,101.772-227.324,227.324
				s101.772,227.324,227.324,227.324h440.657c125.552,0,227.324-101.772,227.324-227.324S857.554,284.798,732.003,284.798
				L732.003,284.798z M291.345,707.969c-108.155,0-195.847-87.692-195.847-195.847s87.692-195.847,195.847-195.847
				s195.847,87.692,195.847,195.847S399.5,707.969,291.345,707.969L291.345,707.969z M291.345,707.969"/>
		</g>
	</g>
</g>
<g id="图层_3">
	<g>
		<g>
			<defs>
				<rect id="SVGID_3_" x="64.016" y="284.765" width="896.214" height="454.731"/>
			</defs>
			<clipPath id="SVGID_4_">
				<use xlink:href="#SVGID_3_"  style="overflow:visible;"/>
			</clipPath>
			<path style="clip-path:url(#SVGID_4_);" d="M731.989,284.765H291.25c-125.575,0-227.366,101.791-227.366,227.366
				S165.676,739.496,291.25,739.496h440.738c125.575,0,227.366-101.791,227.366-227.366S857.563,284.765,731.989,284.765
				L731.989,284.765z M731.989,708.014c-108.175,0-195.883-87.708-195.883-195.883s87.708-195.883,195.883-195.883
				s195.883,87.708,195.883,195.883S840.163,708.014,731.989,708.014L731.989,708.014z M731.989,708.014"/>
		</g>
	</g>
</g>
</svg>
