<?xml version="1.0" encoding="utf-8"?>
<!-- Generator: Adobe Illustrator 17.0.0, SVG Export Plug-In . SVG Version: 6.00 Build 0)  -->
<!DOCTYPE svg PUBLIC "-//W3C//DTD SVG 1.1//EN" "http://www.w3.org/Graphics/SVG/1.1/DTD/svg11.dtd">
<svg version="1.1" xmlns="http://www.w3.org/2000/svg" xmlns:xlink="http://www.w3.org/1999/xlink" x="0px" y="0px" width="1024px"
	 height="1024px" viewBox="0 0 1024 1024" style="enable-background:new 0 0 1024 1024;" xml:space="preserve">
<g id="图层_1">
</g>
<g id="图层_2" style="display:none;">
	<g style="display:inline;">
		<g>
			<defs>
				<rect id="SVGID_1_" x="132.133" y="64.614" width="759.302" height="894.657"/>
			</defs>
			<clipPath id="SVGID_2_">
				<use xlink:href="#SVGID_1_"  style="overflow:visible;"/>
			</clipPath>
			<path style="clip-path:url(#SVGID_2_);" d="M855.845,193.623c-114.263-4.96-223.656-43.6-325.16-114.886l-19.24-13.495
				l-19.192,13.495C390.808,150.009,281.41,188.663,167.862,193.6h-35.866v302.153c0,221.331,152.682,410.867,371.313,460.897
				l9.54,1.526l6.854-1.526c218.582-50.031,371.237-239.566,371.237-460.897V193.6L855.845,193.623z M511.867,921.986l-0.2,0.049
				l-1.032-0.161c-202.041-46.522-343.098-221.651-343.098-426.108V229.128h1.085c120.744-5.235,236.092-45.767,342.844-120.459
				c106.792,74.693,222.141,115.224,343.609,120.472l0.307,266.612C855.397,700.41,714.082,875.686,511.867,921.986L511.867,921.986
				z M715.737,372.822c-5.942-5.844-15.58-5.76-21.416,0.173L465.727,610.271L329.066,465.162
				c-5.649-6.12-15.287-6.507-21.407-0.845l-3.864,3.567c-6.12,5.649-6.507,15.287-0.845,21.407l151.463,160.803
				c5.644,6.115,15.282,6.503,21.402,0.845L719.669,397.92c5.843-5.947,5.754-15.585-0.174-21.416L715.737,372.822z
				 M715.737,372.822"/>
		</g>
	</g>
</g>
<g id="图层_3" style="display:none;">
	<g style="display:inline;">
		<g>
			<defs>
				<rect id="SVGID_3_" x="131.512" y="64.281" width="760.214" height="895.732"/>
			</defs>
			<clipPath id="SVGID_4_">
				<use xlink:href="#SVGID_3_"  style="overflow:visible;"/>
			</clipPath>
			<path style="clip-path:url(#SVGID_4_);" d="M856.093,193.445c-114.4-4.966-223.925-43.652-325.551-115.024L511.279,64.91
				l-19.215,13.511c-101.567,71.358-211.096,110.058-324.78,115.001h-35.909v302.516c0,221.597,152.866,411.36,371.759,461.451
				l9.552,1.528l6.863-1.528c218.844-50.091,371.682-239.854,371.682-461.451V193.422L856.093,193.445z M719.753,397.982
				l-244.16,253.323c-6.127,5.655-15.763,5.281-21.428-0.846L302.52,489.464c-5.655-6.127-5.281-15.763,0.846-21.428l3.87-3.576
				c6.127-5.651,15.763-5.277,21.431,0.846l136.839,145.283l228.855-237.557c5.851-5.954,15.501-6.029,21.441-0.178l3.749,3.7
				C725.514,382.392,725.59,392.042,719.753,397.982L719.753,397.982z M719.753,397.982"/>
		</g>
	</g>
</g>
<g id="图层_4">
	<g>
		<g>
			<defs>
				<rect id="SVGID_5_" x="64.134" y="183.935" width="896.052" height="654.126"/>
			</defs>
			<clipPath id="SVGID_6_">
				<use xlink:href="#SVGID_5_"  style="overflow:visible;"/>
			</clipPath>
			<path style="clip-path:url(#SVGID_6_);" d="M563.44,502.769c53.08-21.039,90.774-72.78,90.774-133.255
				c0-79.068-64.334-143.39-143.403-143.39c-79.072,0-143.39,64.322-143.39,143.39c0,60.475,37.677,112.216,90.757,133.255
				c-118.018,24.4-207.02,129.138-207.02,254.284c0,30.43,21.351,40.512,38.5,48.608l0.984,0.407
				c69.167,24.413,169.196,30.921,217.4,30.921c52.568,0,155.472-8.533,223.81-32.137c25.616-9.823,38.613-25.91,38.613-47.798
				C770.465,631.894,681.459,527.156,563.44,502.769L563.44,502.769z M563.44,502.769"/>
			<path style="clip-path:url(#SVGID_6_);" d="M390.766,490.692c-33.97-31.673-55.333-76.683-55.333-126.792
				c0-61.363,31.943-115.169,80.017-146.019v-0.013c-0.297-0.42-0.73-0.661-1.068-1.015c-0.35-0.376-0.565-0.849-0.985-1.186
				c-25.449-20.44-57.105-31.598-89.745-31.647c-79.068,0-143.403,64.322-143.403,143.39c0,60.475,37.695,112.216,90.77,133.255
				C152.989,485.064,64,589.802,64,714.944c0,21.905,12.997,37.978,38.951,47.937c38.433,13.281,86.126,20.93,120.201,25.088
				c-1.413-11.513-2.135-23.105-2.156-34.709C220.995,636.361,290.698,535.807,390.766,490.692L390.766,490.692z M752.852,460.677
				c53.08-21.039,90.769-72.78,90.769-133.255c0-79.068-64.329-143.39-143.402-143.39c-33.104,0-65.425,11.565-90.971,32.552
				l-3.808,3.116c48.152,32.18,77.051,86.284,77.021,144.199c0,50.109-21.363,95.119-55.333,126.792
				c100.068,45.115,169.771,145.67,169.771,262.568c0,12.011-0.822,23.817-2.24,35.44l0.718-0.083
				c35.073-4.074,85.33-11.832,125.9-25.857c25.612-9.823,38.608-25.91,38.608-47.798
				C959.884,589.802,870.883,485.064,752.852,460.677L752.852,460.677z M752.852,460.677"/>
		</g>
	</g>
</g>
</svg>
