<?xml version="1.0" encoding="utf-8"?>
<!-- Generator: Adobe Illustrator 17.0.0, SVG Export Plug-In . SVG Version: 6.00 Build 0)  -->
<!DOCTYPE svg PUBLIC "-//W3C//DTD SVG 1.1//EN" "http://www.w3.org/Graphics/SVG/1.1/DTD/svg11.dtd">
<svg version="1.1" xmlns="http://www.w3.org/2000/svg" xmlns:xlink="http://www.w3.org/1999/xlink" x="0px" y="0px" width="1024px"
	 height="1024px" viewBox="0 0 1024 1024" style="enable-background:new 0 0 1024 1024;" xml:space="preserve">
<g id="图层_1">
</g>
<g id="图层_2" style="display:none;">
	<g style="display:inline;">
		<g>
			<defs>
				<rect id="SVGID_1_" x="63.896" y="109.265" width="896.346" height="805.696"/>
			</defs>
			<clipPath id="SVGID_2_">
				<use xlink:href="#SVGID_1_"  style="overflow:visible;"/>
			</clipPath>
			<path style="clip-path:url(#SVGID_2_);fill:#3B3C3C;" d="M424.666,914.961h39.251c0,0,0.497-173.943,0-187.11
				s5.197-27.598,10.932-34.284l435.742-507.786c0,0-118.681,606.492-120.259,614.531c-1.225,6.21-5.282,8.857-10.913,7.037
				c-6.794-2.2-254.888-79.498-254.888-79.498l-12.605,38.255c0,0,235.554,73.988,259.045,80.992
				c25.836,7.7,52.666-8.948,58.136-38.259c4.512-24.188,127.38-649.568,129.182-660.819c1.802-11.249,6.781-27.16-12.15-36.298
				c-14.014-6.765-30.913,7.812-30.913,7.812l-5.301-10.27c0,0-796.376,425.225-824.778,440.545
				c-28.404,15.319-27.145,47.585-3.313,55.319c23.831,7.731,264.329,85.787,264.329,85.787l12.254-37.76L120.59,576.641
				l743.296-397.817c0,0-397.483,463.069-413.882,481.952c-16.396,18.879-25.62,38.506-25.588,63.348L424.666,914.961
				L424.666,914.961L424.666,914.961z"/>
		</g>
	</g>
</g>
<g id="图层_3" style="display:none;">
	<g style="display:inline;">
		<path style="fill:#3B3C3C;" d="M737.873,913.989H286.318c-12.661,0-22.964-10.301-22.964-22.961V750.824h497.484v140.204
			C760.838,903.687,750.534,913.989,737.873,913.989L737.873,913.989z M286.318,110.258h451.553
			c12.663,0,22.966,10.303,22.966,22.963v567.747H263.354V133.221C263.354,120.56,273.657,110.258,286.318,110.258L286.318,110.258z
			 M737.873,64.33H286.318c-37.986,0-68.891,30.906-68.891,68.891v757.807c0,37.987,30.906,68.89,68.891,68.89h451.553
			c37.986,0,68.893-30.902,68.893-68.89V133.221C806.765,95.236,775.859,64.33,737.873,64.33L737.873,64.33z M512.095,782.643
			c-25.162,0-45.635,20.469-45.635,45.637c0,25.162,20.472,45.635,45.635,45.635c25.164,0,45.637-20.472,45.637-45.635
			C557.731,803.112,537.259,782.643,512.095,782.643L512.095,782.643z"/>
	</g>
</g>
<g id="图层_4" style="display:none;">
	<g style="display:inline;">
		<path style="fill:#3B3C3C;" d="M922.816,734.255c0,28.456-23.072,51.479-51.485,51.479H152.835
			c-28.401,0-51.475-23.023-51.475-51.479V289.944c0-11.271,3.632-21.682,9.77-30.157l385.677,353.295
			c0.585,0.755,1.225,1.485,1.959,2.164c3.675,3.364,8.5,5.016,13.31,4.965c4.818,0.051,9.658-1.601,13.332-4.965
			c0.814-0.748,1.523-1.55,2.153-2.388l385.251-353.403c6.286,8.531,10.005,19.07,10.005,30.487V734.255L922.816,734.255
			L922.816,734.255z M152.835,238.467h718.496c3.703,0,7.306,0.397,10.782,1.141L512.08,579.104L141.674,239.696
			C145.269,238.902,149.003,238.467,152.835,238.467L152.835,238.467z M857.205,204.281H166.967
			c-56.81,0-102.96,46.048-102.96,102.96v409.82c0,56.81,46.15,102.86,102.96,102.86h690.237c56.865,0,102.966-46.05,102.966-102.86
			v-409.82C960.171,250.329,914.07,204.281,857.205,204.281L857.205,204.281z"/>
	</g>
</g>
<g id="图层_5">
	<g>
		<path style="fill:#3B3C3C;" d="M318.346,299.557c0-100.891,82.461-182.977,183.831-182.977
			c101.372,0,183.833,82.086,183.833,182.977c0,100.893-82.461,182.977-183.833,182.977
			C400.807,482.534,318.346,400.449,318.346,299.557L318.346,299.557z M795.056,636.21
			c-44.078-59.862-105.56-106.161-176.908-131.672c71.759-40.47,120.384-117.116,120.384-204.981
			c0-129.853-106.02-235.499-236.357-235.499c-130.331,0-236.353,105.646-236.353,235.499c0,84.65,45.188,158.784,112.656,200.298
			c-152.512,47.923-263.42,190.105-263.42,357.679c0,5.08,0.565,10.002,0.768,15.029h52.524c-0.24-5.014-0.77-9.949-0.77-15.029
			c0-177.813,145.291-322.478,323.894-322.478c92.564,0,176.101,38.948,235.191,101.154H795.056L795.056,636.21z M882.814,793.757
			h-87.535v-87.52c0-14.514-11.764-26.26-26.26-26.26c-14.501,0-26.264,11.747-26.264,26.26v87.52h-87.537
			c-14.516,0-26.262,11.768-26.262,26.262c0,14.503,11.746,26.262,26.262,26.262h87.537v87.556
			c0,14.501,11.764,26.262,26.264,26.262c14.496,0,26.26-11.761,26.26-26.262v-87.556h87.535c14.503,0,26.271-11.759,26.271-26.262
			C909.084,805.525,897.316,793.757,882.814,793.757L882.814,793.757z"/>
	</g>
</g>
</svg>
