<?xml version="1.0" encoding="utf-8"?>
<!-- Generator: Adobe Illustrator 17.0.0, SVG Export Plug-In . SVG Version: 6.00 Build 0)  -->
<!DOCTYPE svg PUBLIC "-//W3C//DTD SVG 1.1//EN" "http://www.w3.org/Graphics/SVG/1.1/DTD/svg11.dtd">
<svg version="1.1" xmlns="http://www.w3.org/2000/svg" xmlns:xlink="http://www.w3.org/1999/xlink" x="0px" y="0px" width="1024px"
	 height="1024px" viewBox="0 0 1024 1024" style="enable-background:new 0 0 1024 1024;" xml:space="preserve">
<g id="图层_1">
</g>
<g id="图层_2">
	<g>
		<g>
			<defs>
				<rect id="SVGID_1_" x="64.144" y="65.424" width="896.058" height="893.706"/>
			</defs>
			<clipPath id="SVGID_2_">
				<use xlink:href="#SVGID_1_"  style="overflow:visible;"/>
			</clipPath>
			<path style="clip-path:url(#SVGID_2_);" d="M774.705,326.767c0,144.008-116.745,260.778-260.777,260.778
				c-144.037,0-260.778-116.745-260.778-260.778c0-144.007,116.741-260.777,260.778-260.777
				C657.96,65.99,774.705,182.736,774.705,326.767L774.705,326.767z M774.705,326.767"/>
			<path style="clip-path:url(#SVGID_2_);" d="M729.157,599.813c-60.771,47.972-136.09,74.621-215.229,74.621
				c-80.062,0-156.105-27.261-217.152-76.158C135.878,657.347,64.013,863.767,64.013,958.04h895.283
				c0-93.439-72.418-298.409-230.139-358.202V599.813z M729.157,599.813"/>
		</g>
	</g>
</g>
</svg>
