<?xml version="1.0" encoding="utf-8"?>
<!-- Generator: Adobe Illustrator 17.0.0, SVG Export Plug-In . SVG Version: 6.00 Build 0)  -->
<!DOCTYPE svg PUBLIC "-//W3C//DTD SVG 1.1//EN" "http://www.w3.org/Graphics/SVG/1.1/DTD/svg11.dtd">
<svg version="1.1" id="图层_1" xmlns="http://www.w3.org/2000/svg" xmlns:xlink="http://www.w3.org/1999/xlink" x="0px" y="0px"
	 width="1024px" height="1024px" viewBox="0 0 1024 1024" style="enable-background:new 0 0 1024 1024;" xml:space="preserve">
<g>
	<g>
		<defs>
			<rect id="SVGID_1_" x="64.071" y="201.77" width="895.965" height="619.707"/>
		</defs>
		<clipPath id="SVGID_2_">
			<use xlink:href="#SVGID_1_"  style="overflow:visible;"/>
		</clipPath>
		<path style="clip-path:url(#SVGID_2_);" d="M511.568,201.704c-163.559,0-291.099,117.98-447.496,309.285
			C198.767,674.43,311.759,820.277,511.568,820.277c199.584,0,346.359-184.542,447.496-305.769
			C855.691,372.449,708.911,201.704,511.568,201.704L511.568,201.704z M512.001,713.628c-105.823,0-191.967-86.212-191.967-191.972
			c0-105.995,86.144-191.974,191.967-191.974c105.824,0,191.974,86.213,191.974,191.974
			C703.975,627.649,617.826,713.628,512.001,713.628L512.001,713.628z M512.001,444.757c0-19.088,7.129-36.293,18.636-49.739
			c-6.025-1.074-12.333-1.342-18.636-1.342c-70.428,0-127.978,57.268-127.978,127.979s57.55,127.978,127.978,127.978
			c70.434,0,127.984-57.266,127.984-127.978c0-5.649-0.547-11.025-1.099-16.667c-13.425,10.213-30.142,16.667-48.504,16.667
			C547.085,521.655,512.001,487.242,512.001,444.757L512.001,444.757z M512.001,444.757"/>
	</g>
</g>
</svg>
