<?xml version="1.0" encoding="utf-8"?>
<!-- Generator: Adobe Illustrator 17.0.0, SVG Export Plug-In . SVG Version: 6.00 Build 0)  -->
<!DOCTYPE svg PUBLIC "-//W3C//DTD SVG 1.1//EN" "http://www.w3.org/Graphics/SVG/1.1/DTD/svg11.dtd">
<svg version="1.1" xmlns="http://www.w3.org/2000/svg" xmlns:xlink="http://www.w3.org/1999/xlink" x="0px" y="0px" width="1024px"
	 height="1024px" viewBox="0 0 1024 1024" style="enable-background:new 0 0 1024 1024;" xml:space="preserve">
<g id="图层_1">
</g>
<g id="图层_2" style="display:none;">
	<g style="display:inline;">
		<path style="fill:#E60012;" d="M763.21,543.787v198.278H543.729V677.96h149.389v-73.164H543.729V406.717h149.389v-67.186H543.729
			v-64.129H763.21v198.074H613.821v67.156H763.21V543.787z M259.982,543.787v198.278h219.457V677.96H330.045v-73.164h149.394
			V406.717H330.045v-67.186h149.394v-64.129H259.982v198.074h149.394v67.156H259.982V543.787z M259.982,543.787"/>
		<path style="fill:#E60012;" d="M511.686,64.897c-246.844,0-446.91,200.066-446.91,446.91c0,246.85,200.066,446.91,446.91,446.91
			c246.85,0,446.91-200.06,446.91-446.91C958.596,264.964,758.536,64.897,511.686,64.897L511.686,64.897z M511.686,870.084
			c-197.874,0-358.267-160.403-358.267-358.267s160.403-358.325,358.267-358.325s358.267,160.413,358.267,358.325
			c0,197.917-160.403,358.257-358.267,358.257V870.084z M511.686,870.084"/>
	</g>
</g>
<g id="图层_3" style="display:none;">
	<g style="display:inline;">
		<g>
			<defs>
				<rect id="SVGID_1_" x="64.15" y="63.94" width="893.016" height="895.568"/>
			</defs>
			<clipPath id="SVGID_2_">
				<use xlink:href="#SVGID_1_"  style="overflow:visible;"/>
			</clipPath>
			<path style="clip-path:url(#SVGID_2_);fill:#004EA2;" d="M69.024,488.223c0,0,29.905-436.127,483.499-423.617
				c0,0,371.357,22.488,403.754,426.207l-214.34-0.049c0,0-127.096,5.004-231.784-196.876c0,0-117.137,179.652-244.255,194.604
				L69.024,488.223z M64.02,515.631l219.324,5.004c0,0,34.883,0,64.8,27.413l-279.139,0.161L64,515.651L64.02,515.631z
				 M74.027,572.945h318.988c0,0,27.423,10.007,37.385,34.888l-348.916,2.502l-7.477-37.352L74.027,572.945z M91.472,637.635
				l368.864,0.108c0,0,52.339,49.847,39.878,171.96c0,0,24.921,19.932,29.915-2.492c0,0-17.454-169.468,37.377-169.468
				l368.976-2.492l-22.581,49.96l-127.092-0.113c0,0-44.862-10.008-42.37,64.8c0,0,1.911,230.172-226.848,206.735
				c0,0-239.183,12.578-236.72-194.276c0,0,10.007-89.719-52.339-69.773H108.956l-17.504-54.938L91.472,637.635z M589.935,607.833
				c0,0,10.007-39.873,64.793-29.905l291.6-2.492l-5.004,29.915l-351.415,2.492L589.935,607.833z M667.199,550.51
				c0,0,14.952-32.398,39.868-32.398l244.245,5.004l-5.004,29.916l-279.138-2.493L667.199,550.51z M667.199,550.51"/>
		</g>
	</g>
</g>
<g id="图层_4" style="display:none;">
	<g style="display:inline;">
		<g>
			<defs>
				<rect id="SVGID_3_" x="63.373" y="79.95" width="897.016" height="864.296"/>
			</defs>
			<clipPath id="SVGID_4_">
				<use xlink:href="#SVGID_3_"  style="overflow:visible;"/>
			</clipPath>
			<path style="clip-path:url(#SVGID_4_);fill:#E60012;" d="M928.151,252.753l-31.753-40.65c0,0-124.49,20.326-121.938-49.54
				c0,0,8.889-52.077-81.302-31.751c0,0-21.591-20.316-20.326-31.758c0,0,6.352-30.49-91.476-13.974
				c0,0-144.812,17.782-303.577,199.421c0,0-160.056,130.827-160.056-3.814c0,0-87.643,88.915-40.651,160.056
				c0,0,53.349,74.936,154.976,13.969c0,0-31.751,246.414,130.832,374.713c0,0,170.217,157.509,365.834,101.617
				c0,0,163.85-34.3,226.094-199.426c0,0-29.211,29.209-41.918,26.677c0,0,44.465-53.349,47.007-76.218
				c0,0-1.275-31.756-26.681,17.784c0,0,6.357-30.491-11.427-15.241c0,0-86.382,100.341-123.224,105.416
				c0,0-273.101,161.323-397.586-163.85c0,0-53.349-153.699,72.378-269.282c125.723-115.581,248.961-104.151,362.021-20.326
				c0,0,57.157-64.774,81.292-52.077c0,0,21.592-12.697,11.432-31.756L928.151,252.753z M928.151,252.753"/>
		</g>
		<path style="fill:#E60012;" d="M549.502,407.239l277.906-1.311v211.363H549.502V407.239z M549.502,407.239"/>
	</g>
</g>
<g id="图层_5" style="display:none;">
	<g style="display:inline;">
		<g>
			<defs>
				<rect id="SVGID_5_" x="99.82" y="63.711" width="824.536" height="896.131"/>
			</defs>
			<clipPath id="SVGID_6_">
				<use xlink:href="#SVGID_5_"  style="overflow:visible;"/>
			</clipPath>
			<path style="clip-path:url(#SVGID_6_);fill:#1D2088;" d="M770.571,735.102c-52.491,1.723-101.006,3.388-153.498,5.081
				c-33.24,141.385-308.087,103.2-277.471-76.203c15.378-106.279,158.981-152.684,248.124-72.446
				c19.589,22.14,29.185,42.674,35.471,87.689c44.031-1.7,103.392-3.393,147.402-5.088
				c2.237-228.618-257.427-344.636-452.144-233.68c-186.669,106.347-165.122,430.346,30.483,513.1v5.081
				c-106.662-2.094-223.609-84.707-249.118-182.884l1.444-527.078c84.65-57.569,178.223-126.583,262.852-184.162l10.16,5.083
				c-5.846,79.458-2.16,210.482,2.536,306.094c53.054-51.483,88.781-105.286,180.358-123.205
				c59.031-11.53,115.503-4.582,151.142,7.618c267.512,91.65,284.168,437.319,57.151,556.289c-5.081,0-16.112,10.027-24.544,11.663
				c0-1.695,5.283-9.023,9.303-16.745l20.319-76.207H770.571z M770.571,735.102"/>
		</g>
	</g>
</g>
<g id="图层_6" style="display:none;">
	<g style="display:inline;">
		<path style="fill:#004D28;" d="M550.59,754.97l140.539,171.424h221.269L783.821,788.847l-5.974-8.971l-0.999-3.98l-0.999-3.99
			v-10.958l0.999-3.991l0.999-3.98l1.992-4.989l3.981-5.978l4.979-8.969l5.988-6.978l128.577-149.508l8.969-10.968l6.972-9.96
			l4.979-9.969l5.988-9.969l3.98-9.969l2.997-9.97l1.992-9.959v-28.908l-1.992-9.969l-2.997-8.97l-3.98-9.97l-5.988-9.959
			l-4.979-7.98l-6.972-9.96L656.248,96.153l-43.856,38.867l132.562,160.467l7.977,10.968l5.978,10.963l2.991,5.978l0.999,4.979
			l0.984,5.988v4.979l-0.984,11.962l-2.996,10.968l-4.989,10.958l-6.973,10.968L555.58,605.46l-4.989,3.981l-1.983,4.989
			l-5.987,6.976l-4.981,8.971l-2.991,8.969l-3.98,8.971l-1.998,8.97l-0.999,9.969l-1.992,8.971v9.959l1.992,9.969l0.999,10.968
			l2.991,8.971l3.986,9.969l3.99,9.969l4.979,9.969l3.99,4.979L550.59,754.97z M550.59,754.97"/>
		<path style="fill:#D21B21;" d="M346.274,335.361l0.993-15.957l2.997-16.946l0.999-7.97l2.981-8.971l5.988-14.948l6.973-13.95
			l3.98-6.986l3.995-6.973l9.969-11.957l8.971-12.961l12.951-9.959l11.966-8.979l13.95-8.961l13.95-6.986l14.958-4.979l8.97-2.992
			l7.972-0.999l7.975-1.987l8.971-0.994h7.97l8.971-1.998l14.948,1.998l14.949,2.981l14.958,1.998l13.949,5.983l6.977,2.986
			l6.973,2.992l13.959,6.976l12.956,7.972l10.963,9.969l8.975,10.968l5.973,4.979l3.996,5.973l9.954,10.968l6.987,13.95
			l6.976,13.959l0.994,6.978l2.987,6.973l3.99,14.948l2.991,14.959h-96.681l-67.775-67.785l-87.713,85.729l87.713,85.705
			l67.775-67.765h96.681l-2.991,16.931l-3.99,13.965l-2.987,6.973l-0.994,6.976l-6.976,13.96l-6.987,13.949l-9.954,10.958
			l-9.97,10.963l-8.975,10.968l-10.963,9.97l-6.978,3.98l-5.978,3.99l-6.981,3.986l-6.977,2.991l-13.95,5.978l-13.949,4.989
			l-14.958,3.98l-14.949,1.993l-14.948,0.999l-16.941-0.999l-16.946-2.982l-7.972-0.998l-8.97-2.992l-14.958-5.978l-13.95-6.981
			l-6.977-3.986l-6.973-3.99l-11.966-9.959l-12.951-9.97l-8.971-11.961l-9.969-12.951l-7.975-13.964l-6.973-12.951l-5.988-15.947
			l-2.981-7.972l-0.999-7.982l-1.998-8.96l-0.999-7.977l-0.993-7.97V335.361z M346.274,335.361"/>
		<path style="fill:#004D28;" d="M471.863,754.97L332.324,926.393H110.057l129.575-137.546l4.981-8.971l1.992-3.98l0.999-3.99
			v-10.958l-0.999-3.991l-1.992-3.98l-0.999-4.989l-3.981-5.978l-5.987-8.969l-6.978-6.978L99.094,576.554l-7.977-10.968
			l-6.973-9.96l-5.978-9.969l-4.989-9.969l-3.98-9.969l-2.997-9.97l-2.991-9.959v-28.908l2.991-9.969l2.997-8.97l3.98-9.97
			l3.99-9.959l6.978-7.98l6.973-9.96L367.205,96.153l43.856,38.867L278.499,295.487l-8.976,10.968l-4.979,10.963l-2.991,5.978
			l-0.999,4.979l-1.983,5.988v4.979l1.983,11.962l1.997,10.968l5.978,10.958l6.983,10.968L467.873,605.46l3.99,3.981l2.982,4.989
			l4.989,6.976l4.979,8.971l3.98,8.969l3.99,8.971l0.999,8.97l1.998,9.969l0.999,8.971v9.959l-0.999,9.969l-1.998,10.968
			l-1.992,8.971l-4.981,9.969l-3.995,9.969l-4.979,9.969l-2.991,4.979L471.863,754.97z M471.863,754.97"/>
	</g>
</g>
<g id="图层_7" style="display:none;">
	<g style="display:inline;">
		<path style="fill:#008566;" d="M511.177,64.622c-13.404,0-26.813,0.45-40.217,1.786v215.827
			c0.029,9.857,8.013,17.846,17.875,17.87h44.684c9.857-0.024,17.846-8.013,17.87-17.87V66.407
			C537.985,65.062,524.581,64.622,511.177,64.622L511.177,64.622z M538.434,357.302h62.51c9.859-0.024,17.846-8.013,17.876-17.87
			V109.306h44.684v366.413c0.009,5.44-2.138,10.664-5.984,14.52c-3.84,3.855-9.055,6.021-14.5,6.026H541.56
			c-19.656,0-20.556,10.278-20.556,10.278V374.727C520.564,365.319,528.597,357.302,538.434,357.302L538.434,357.302z
			 M538.434,357.302"/>
		<g>
			<defs>
				<rect id="SVGID_7_" x="64.484" y="64.121" width="894.035" height="895.387"/>
			</defs>
			<clipPath id="SVGID_8_">
				<use xlink:href="#SVGID_7_"  style="overflow:visible;"/>
			</clipPath>
			<path style="clip-path:url(#SVGID_8_);fill:#008566;" d="M484.818,357.302h-62.559c-9.862-0.024-17.846-8.013-17.876-17.87
				V109.306H359.7v366.413c-0.015,5.454,2.147,10.694,6.003,14.554c3.86,3.86,9.098,6.018,14.559,6.003h101.46
				c19.657,0,20.556,10.278,20.556,10.278V374.727C502.688,365.319,494.647,357.302,484.818,357.302L484.818,357.302z
				 M377.521,654.003h71.497c9.886,0,17.905,8.004,17.924,17.89v277.526h35.746V535.64c0.015-5.459-2.143-10.698-6.003-14.559
				c-3.86-3.855-9.098-6.016-14.554-6.001H380.701c-19.656,0-20.561-10.279-20.561-10.279v131.777
				c-0.45,9.388,7.598,17.425,17.425,17.425H377.521z M645.629,654.003h-71.443c-9.867,0.025-17.86,8.023-17.875,17.89v277.526
				h-35.746V535.64c-0.02-5.459,2.143-10.698,6.003-14.559c3.86-3.855,9.098-6.016,14.554-6.001h101.421
				c19.657,0,20.561-10.279,20.561-10.279v131.777c0.451,9.388-7.597,17.425-17.425,17.425H645.629z M645.629,654.003"/>
			<path style="clip-path:url(#SVGID_8_);fill:#008566;" d="M618.87,77.576v92.944c144.77,45.578,249.777,180.971,249.777,340.945
				c0,197.501-159.969,357.47-357.47,357.47S153.7,708.966,153.7,511.465c0-160.415,105.457-295.806,250.682-341.386V77.135
				c-195.274,48.251-340.05,224.314-340.05,434.33c0,246.656,200.187,446.843,446.843,446.843S958.02,758.121,958.02,511.465
				C958.02,301.89,813.685,125.864,618.87,77.576L618.87,77.576z M618.87,77.576"/>
		</g>
		<path style="fill:#008566;" d="M533.068,895.748h-44.683c-9.862-0.029-17.846-8.013-17.876-17.875V654.454h80.43v223.419
			C550.914,887.735,542.925,895.719,533.068,895.748L533.068,895.748z M533.068,895.748"/>
	</g>
</g>
<g id="图层_8" style="display:none;">
	<g style="display:inline;">
		<g>
			<defs>
				<rect id="SVGID_9_" x="73.426" y="65.017" width="876.975" height="894.368"/>
			</defs>
			<clipPath id="SVGID_10_">
				<use xlink:href="#SVGID_9_"  style="overflow:visible;"/>
			</clipPath>
			<path style="clip-path:url(#SVGID_10_);fill:#0081CC;" d="M948.405,808.421l0.132-636.795
				C941.708,43.998,811.238,67.081,811.238,67.081L196.87,69.66C69.158,66.92,74.59,208.288,74.59,208.288l-1.314,613.706
				C74.59,971.353,214.58,956.417,214.58,956.417l611.599,1.772C970.248,956.836,948.405,808.421,948.405,808.421L948.405,808.421z
				 M792.198,774.47c0,0-323.471-224.037-558.597,29.902c0,0,249.372-295.749,1.358-581.094c0,0,301.721,262.051,558.597-5.421
				C793.566,217.798,546.208,506.997,792.198,774.47L792.198,774.47z M792.198,774.47"/>
		</g>
	</g>
</g>
<g id="图层_9" style="display:none;">
	<g style="display:inline;">
		<g>
			<defs>
				<rect id="SVGID_11_" x="64.817" y="64.607" width="893.959" height="895.26"/>
			</defs>
			<clipPath id="SVGID_12_">
				<use xlink:href="#SVGID_11_"  style="overflow:visible;"/>
			</clipPath>
			<path style="clip-path:url(#SVGID_12_);fill:#E8252A;" d="M940.116,633.886l4.074-14.986l3.531-14.977l3.019-15.265l2.434-14.986
				l1.108-7.636l0.792-7.903l0.84-7.63l0.801-7.606l0.259-7.903l0.58-7.903v-7.904l0.269-7.888l-0.269-11.465l-0.259-11.157
				l-0.849-11.177l-0.792-11.171l-1.109-11.177l-1.372-10.883l-1.642-10.912l-2.168-10.624l-2.165-10.615l-2.486-10.624
				l-2.424-10.355l-3.024-10.355l-3.268-10.093l-3.541-10.097l-3.805-10.063l-3.81-9.804l-4.382-9.803l-4.332-9.824l-4.91-9.545
				l-4.914-9.535l-5.182-9.241l-5.442-9.271l-5.969-9.276l-6.024-8.984l-6.233-8.982l-6.555-8.725l-6.82-8.715l-6.814-8.451
				l-7.342-8.724l-7.616-8.163l-7.664-8.455l-8.182-8.163l-8.142-7.903l-8.451-7.923l-8.456-7.342l-8.456-7.347l-8.708-7.078
				l-8.725-6.824l-8.984-6.555l-8.982-6.253l-8.989-5.999l-9.3-5.735l-9.247-5.442l-9.5-5.441l-9.565-4.884l-9.515-4.651
				l-9.833-4.622l-9.824-4.103l-10.043-4.088l-10.088-3.815l-10.092-3.267l-10.092-3.254l-10.355-3.009L620.75,78.61l-10.616-2.447
				l-10.624-2.173l-10.614-1.929l-10.893-1.612L567.12,69.08l-10.937-1.353l-11.142-0.82l-11.157-0.548l-11.201-0.562h-22.88
				l-11.465,0.562l-11.416,0.548l-11.206,0.82l-10.883,1.353l-10.883,1.368l-10.883,1.612l-10.938,1.929l-10.624,2.173L400.88,78.61
				l-10.35,2.726l-10.355,3.009l-10.044,3.254l-10.087,3.267l-10.092,3.815l-9.834,4.088l-9.774,4.103l-9.823,4.622l-9.516,4.651
				l-9.564,4.884l-9.242,5.441l-9.305,5.442l-9.242,5.735l-8.982,5.999l-8.984,6.253l-8.725,6.555l-8.713,6.824l-8.725,7.078
				l-8.715,7.347l-8.192,7.342l-8.455,7.923l-8.133,7.903l-8.192,8.163l-7.616,8.455l-7.649,8.163l-7.357,8.724l-7.068,8.451
				l-6.555,8.715l-6.551,8.725l-6.243,8.982l-6.281,8.984l-5.715,9.276l-5.442,9.271l-5.173,9.241l-5.182,9.535l-4.651,9.545
				l-4.333,9.824l-4.382,9.803l-4.069,9.804l-3.541,10.063l-3.541,10.097l-3.273,10.093l-3.009,10.355l-2.701,10.355l-2.482,10.624
				l-2.173,10.615l-1.901,10.624l-1.631,10.912l-1.378,10.883l-1.05,11.177L65.776,477.5l-0.528,11.177l-0.323,11.157l-0.259,11.465
				l0.259,11.43l0.323,11.446l0.528,11.176l1.113,11.152l1.05,11.177l1.378,10.903l1.631,10.888l1.901,10.653l2.173,10.614
				l2.482,10.624l2.701,10.615l3.009,10.36l3.273,10.068l3.541,10.35l3.541,9.833l4.069,10.068l4.382,9.824l4.333,9.803l4.651,9.545
				l5.182,9.53l5.173,9.516l5.442,9.276l5.715,9.261l6.281,9.251l6.243,9.007l6.551,8.72l6.555,8.989l7.068,8.45l7.357,8.715
				l7.649,8.431l7.616,8.456l8.192,8.192l8.133,7.893l8.455,7.904l8.192,7.616l8.715,7.102l8.725,7.083l8.713,6.81l8.725,6.525
				l8.984,6.263l8.982,6.004l9.242,5.73l9.305,5.442l9.242,5.441l9.564,4.914l9.516,4.909l9.823,4.332l9.774,4.392l9.834,3.8
				l10.092,3.815l10.087,3.531l10.044,3.009l10.355,2.995l10.35,2.721l10.624,2.457l10.624,2.192l10.938,1.901l21.766,3.283
				l10.883,1.079l11.206,0.822l11.416,0.518l11.465,0.561h11.465l16.065-0.259l15.798-0.561l15.534-1.349l15.539-1.641l15.216-2.193
				l14.747-2.721l14.942-3.273l14.488-3.536l14.156-4.362l14.166-4.627l13.893-5.177l13.638-5.447l13.315-6.261l13.365-6.541
				l13.105-7.083l12.784-7.372l8.725-5.441l8.45-5.447l8.187-5.441l7.611-5.73l7.616-5.442l7.073-5.735l6.819-5.71l6.556-5.735
				l5.969-5.989l6.022-5.745l5.442-5.964l5.173-5.999l4.913-6.267l4.602-5.989l4.123-6.291l4.069-6.263l3.541-6.267l3.272-6.263
				l3.009-6.253l2.702-6.55l2.481-6.531l1.899-6.555l1.906-6.521l1.377-6.814l1.05-6.55l0.85-6.795l0.264-6.814l0.259-6.819
				l-0.259-7.073l-0.264-6.824l-0.85-7.083l-1.05-7.074l-1.377-5.73l-1.373-5.974l-1.641-5.471l-1.642-5.705l-2.158-5.471
				l-2.175-5.183l-2.476-5.173l-2.691-5.177l-3.015-4.894l-3.009-4.91l-3.542-4.884l-3.541-4.651l-3.805-4.362l-3.81-4.363
				l-4.382-4.352l-4.332-4.362l-4.651-4.069l-4.915-3.835l-5.178-3.8l-5.123-3.8l-5.501-3.57l-5.705-3.541l-5.97-3.254l-6.286-3.541
				l-6.291-3.009l-6.501-2.985l-6.815-3.009l-7.083-2.721l-7.342-2.721l-7.391-2.721l-7.616-2.461l-7.923-2.452l-20.398-7.083
				l6.506-3.8l6.281-4.104l5.97-4.088l5.495-4.362l5.183-4.627l4.861-4.621l4.38-4.909l4.069-5.182l3.805-5.183l3.278-5.441
				l3.274-5.735l2.481-5.701l2.432-6.004l1.911-5.994l1.367-6.261l1.373-6.551l0.533-7.616l0.269-7.073l-0.269-7.37l-0.533-7.372
				l-1.373-7.054l-1.9-7.112l-2.168-6.785l-2.751-7.112l-3.273-6.78l-3.8-6.824l-4.392-6.814l-4.864-6.531l-5.491-6.545
				l-5.974-6.551l-6.551-6.262l-6.814-6.261l-7.611-6.556l-7.606-6.261l-7.923-5.711l-8.191-5.461l-8.402-5.183l-8.725-4.884
				l-9.036-4.357l-9.242-4.362l-9.515-3.835l-9.824-3.8l-10.092-3.283l-10.355-2.98l-10.624-2.72l-10.884-2.721l-11.205-2.193
				l-11.416-1.901l-13.107-1.909l-13.043-1.632l-13.638-1.377l-13.633-1.084l-13.897-1.08l-14.157-0.82l-14.166-0.548l-14.683-0.273
				l-14.747-0.259l-15.006,0.259h-15.216l-15.534,0.533l-15.798,0.82l-16.065,0.84l-16.115,0.79l-16.33,1.378v140.867l13.058-1.631
				l13.105-1.642l13.043-1.079L378,429.263l13.107-0.82l13.315-0.533l13.375-0.288h26.945l13.374,0.551l13.633,0.556l13.629,1.085
				l13.584,1.079l13.623,1.378l13.898,1.631l13.907,1.642l11.191,1.9l10.624,2.175l9.775,2.456l9.305,2.452l8.451,2.995l7.874,3.009
				l7.342,3.273l6.555,3.541l3.009,1.607l2.691,1.935l2.751,2.16l2.432,1.91l2.481,2.193l1.901,2.16l2.168,2.202l1.642,2.16
				l1.631,2.462l1.642,2.452l1.373,2.457l1.059,2.72l0.85,2.462l0.792,2.711l0.576,2.731l0.531,3.014v4.879l-0.531,2.462
				l-0.576,2.721l-2.173,5.994l-3.01,6.824l-1.9,2.72l-2.165,2.721l-2.427,2.447l-3.014,1.906l-3.01,1.91l-3.283,1.632l-3.541,1.377
				l-3.8,1.08l-4.073,0.82l-4.651,0.82l-4.656,0.259h-10.35l-5.442-0.259l-5.705-0.82l-6.293-0.82l-16.324-1.901l-16.066-1.641
				l-16.056-1.368l-15.855-1.089l-15.48-0.812l-15.534-0.562l-15.539-0.259l-15.275-0.274l-15.006,0.274l-14.947,0.259
				l-15.006,0.562l-14.693,0.812l-14.425,1.089l-14.478,1.368l-14.166,1.641l-14.157,1.901v143.588l19.867-2.188l19.339-2.165
				l19.08-1.636l19.075-1.373l18.279-0.82l18.24-0.82l17.692-0.259h17.439l17.164,0.551l16.921,0.528l16.325,1.109l16.115,1.612
				l15.798,1.631l15.538,2.198l14.952,2.432l14.738,2.741l11.683,2.173l10.937,2.721l10.352,2.721l9.515,3.009l8.984,3.541
				l8.191,3.541l3.805,1.899l3.541,1.906l3.533,1.93l3.278,2.158l3.014,2.203l2.96,2.16l2.75,2.461l2.433,2.188l2.481,2.433
				l2.16,2.462l1.899,2.451l1.909,2.721l1.632,2.721l1.383,2.721l1.367,2.721l0.792,3.009l1.114,2.721l0.528,2.994l0.531,3.009
				l0.576,3.274v2.432l0.264,2.721l-0.264,2.75v2.427l-0.576,2.721l-0.531,2.452l-0.792,2.75l-0.85,2.433l-1.05,2.75l-1.377,2.432
				l-1.373,2.721l-1.641,2.74l-3.541,5.452l-4.333,5.431l-2.741,3.283l-3.283,2.98l-3.278,3.014l-3.531,2.721l-3.541,2.721
				l-3.8,2.731l-3.815,2.451l-4.123,2.462l-4.069,2.429l-4.323,2.193l-4.649,2.188l-4.651,2.173l-4.914,1.9l-5.133,1.901
				l-5.168,1.641l-5.505,1.642l-5.442,1.632l-5.701,1.377l-5.715,1.343l-6.281,1.08l-12.525,2.197l-13.105,1.906l-13.898,1.338
				l-14.683,1.109l-15.275,0.561h-24.521l-8.456-0.288l-8.451-0.533l-8.392-0.553l-8.196-0.82l-8.192-1.089l-7.874-1.109
				l-8.192-1.343l-7.874-1.636l-7.923-1.906l-7.611-1.899l-7.654-2.188l-7.614-2.175l-7.611-2.74l-7.395-2.731l-7.343-2.72
				l-7.342-3.249l-7.352-3.273l-7.073-3.273l-7.147-3.81l-6.76-3.835l-6.814-4.059l-6.809-4.103l-6.824-4.353l-6.556-4.631
				l-6.55-4.908l-6.491-4.914l-6.556-5.183l-6.291-5.441l-6.233-5.442l-6.024-5.735l-6.233-5.989l-5.759-5.974l-5.706-6.291
				l-5.71-6.263l-5.442-6.263l-5.182-6.253l-4.909-6.555l-4.914-6.531l-4.651-6.55l-4.332-6.814l-4.382-6.521l-4.074-7.083
				l-3.8-6.814l-7.083-14.167l-3.274-7.083l-3.278-7.37l-3.014-7.083l-2.701-7.635L197.079,617l-2.428-7.634l-2.163-7.636
				l-1.96-7.611l-1.9-7.903l-1.583-7.923l-1.367-7.893l-1.383-8.163l-0.84-8.172l-1.059-8.187l-0.581-8.162l-0.528-8.451
				l-0.264-8.466v-16.877l0.264-8.45l0.528-8.437l0.581-8.181l1.059-8.163l0.84-8.162l1.383-7.903l1.367-8.197l1.583-7.631
				l1.9-7.903l1.96-7.606l2.163-7.923l2.428-7.352l2.481-7.634l2.701-7.342l3.014-7.372l3.278-7.342l3.274-7.083l3.541-7.083
				l3.541-7.073l3.8-7.118l4.074-6.79l4.382-6.814l4.332-6.55l4.651-6.814l4.914-6.521l4.909-6.555l5.182-6.263l5.442-6.262
				l5.71-6.263l5.706-6.263l5.759-6.002l6.233-5.989l6.288-5.735l6.238-5.442l6.286-5.441l6.551-5.183l6.501-4.914l6.555-4.889
				l6.55-4.641l13.629-8.724l6.819-4.074l7.083-3.82l7.073-3.81l7.083-3.542l7.083-3.272l7.342-3.009l7.347-2.995l7.4-2.721
				l7.606-2.72l7.352-2.188l7.923-2.175l7.601-2.158l7.933-1.671l7.874-1.612l7.923-1.373l7.874-1.338l8.192-1.119l8.455-0.81
				l8.133-0.533l8.451-0.556l8.456-0.264l8.456-0.259l8.46,0.259l8.456,0.264l8.451,0.556l8.133,0.533l8.196,0.81l8.192,1.119
				l7.874,1.338l7.923,1.373l7.874,1.612l7.923,1.671l7.611,2.158l7.664,2.175l7.601,2.188l7.347,2.72l7.659,2.721l7.083,2.995
				l7.347,3.009l7.083,3.272l7.083,3.542l7.083,3.81l6.809,3.82l7.073,4.074l6.565,4.362l6.81,4.362l6.506,4.641l6.55,4.889
				l6.283,4.914l6.501,5.183l6.281,5.441l6.024,5.442l6.242,5.735l6.022,5.989l5.706,6.002l5.71,5.975l5.701,6.281l5.495,6.263
				l5.183,6.262l4.861,6.55l4.908,6.536l4.656,6.54l4.333,6.824l4.118,6.785l4.074,6.819l4.069,7.073l3.541,6.824l3.531,7.372
				l3.283,7.083l3.273,7.347l3.009,7.362l2.701,7.352l2.482,7.634l2.432,7.611l2.168,7.634l1.954,7.636l1.9,7.898l1.637,7.894
				l1.324,7.903l1.108,8.197l1.109,8.162l0.792,8.163l0.84,8.181l0.533,8.437l0.268,8.45v8.456l-1.641,35.952l7.083,4.362
				l7.083,4.094l7.073,4.631l6.824,4.621l6.541,4.914l6.565,4.909l6.55,4.894l6.232,5.461l6.283,5.451l6.242,5.442l5.755,5.735
				l5.969,5.7l5.715,6.263l5.442,5.994l5.491,6.551L940.116,633.886z M940.116,633.886"/>
		</g>
	</g>
</g>
<g id="图层_10" style="display:none;">
	<g style="display:inline;">
		<g>
			<defs>
				<rect id="SVGID_13_" x="65.025" y="64.203" width="894.265" height="895.618"/>
			</defs>
			<clipPath id="SVGID_14_">
				<use xlink:href="#SVGID_13_"  style="overflow:visible;"/>
			</clipPath>
			<path style="clip-path:url(#SVGID_14_);fill:#C52A27;" d="M64.875,511.559c0-246.925,200.131-447.056,447.056-447.056
				c246.93,0,447.061,200.131,447.061,447.056c0,246.93-200.131,447.061-447.061,447.061
				C265.006,958.62,64.875,758.489,64.875,511.559L64.875,511.559z M64.875,511.559"/>
		</g>
		<path style="fill:#FFFFFF;" d="M575.969,276.358c2.207,11.621,15.032,17.435,23.552,23.552
			c40.384,8.915,83.578,15.228,126.868,12.527c6.92,2.505,15.433,4.306,18.644,12.527c-1.605,26.957-5.412,54.717-31.366,70.448
			c-16.637,8.016-53.416-12.126-53.116,17.239c13.03,32.765,53.116,13.926,76.663,28.058c10.726,7.115-1.101,21.247,4.711,31.366
			c0,7.418-3.508,14.431-9.419,18.839c-6.117,2.505-13.731,2.505-20.346,4.512c-8.514,11.426-31.866,11.426-25.151,29.864
			c1.302,8.92,11.024,16.837,18.839,20.341c10.823,4.012,25.357-1.399,34.473,3.108c3.91,21.55,1.704,43.795-6.312,64.141
			c-13.025,8.915-21.545,25.552-40.785,23.547c-7.218,4.511-17.44,9.419-20.146,18.844c0,16.832,19.744,12.125,28.258,21.946
			c12.331,1.801,22.451-6.914,34.479-1.404c17.938,17.039,5.412,44.798,4.706,65.741l-14.132,17.034
			c-12.722,5.113-26.052,8.519-39.283,12.527v3.108h-18.639c0.699-9.019-9.42-5.212-14.132-8.016
			c-11.422,5.613-20.841-2.906-31.366-4.511c-54.316,7.819-91.197-26.655-145.513-18.839c-19.738-14.631-48.903-10.824-73.555-9.22
			c-24.252,17.239-54.017,21.046-82.981,26.658c-16.334,2.707-20.341-17.439-31.366-23.55c-0.699-16.535-21.247-26.86-12.527-45.499
			c13.232-15.633,11.926-37.38,25.054-53.111c-0.699-17.239,3.308-36.382-9.218-48.605c3.606-23.052,5.108-46.902,11.025-69.049
			c7.213-8.015,15.933-24.153,29.761-15.633c15.433,24.652,63.035-4.908,63.941,31.366c0.499,28.263-2.907,59.028-29.766,71.955
			c-13.931,23.15-50.405-8.117-54.717,25.054c-4.511,14.631,12.727,21.745,20.341,29.766c15.737-5.613,32.972-8.021,45.499-21.952
			c18.139-0.899,24.451-20.341,42.189-21.946c13.731,5.812,30.667,7.418,39.186,21.946c8.117,2.007,9.924,9.023,17.238,12.527
			c19.74,15.737,44.793-9.919,61.029,14.133c10.32,2.304,21.046,2.304,31.366,0c8.119-4.908,15.032-13.027,12.527-23.552
			c1.404-6.009-1.8-10.119-6.312-13.726c-6.312-4.312-12.527,1.101-18.839,1.399c-24.451,2.006-42.19-12.727-65.643-14.126
			c-16.534-10.526-36.274-20.646-39.181-42.19c-7.819-6.518-4.012-17.738-9.419-25.054c-1.404-9.425,7.614-15.635,14.126-20.444
			c19.344-5.613,33.671,10.72,50.01,3.302c10.521-7.614,27.158-2.901,32.971-18.839c6.009-9.018,2.707-21.946-3.107-29.761
			c-4.81-3.107-10.927-3.107-15.737,0c-11.22,11.926-30.265,9.821-45.297,7.815c-8.112-3.607-17.738-6.312-21.946-15.635
			c2.408-14.63,0-30.965,14.132-40.785c1.404-10.727-8.117-18.14-15.634-23.552c-20.342,7.619-32.972-34.576-48.703-6.112
			c-1.302,20.341,9.018,37.478,3.107,58.024c-18.341,11.22-38.584-1.106-57.824-1.605c-19.945-9.218-43.995-22.846-53.318-45.297
			c4.214-16.637-8.112-32.467-1.6-50.005c-9.419-21.75,9.919-35.678,10.824-54.722c10.72-9.619,22.245-21.344,37.678-14.327
			c9.218,8.72,22.25,7.814,29.766,20.341c15.731,3.308,30.465,13.433,47.097,9.42c13.032-5.212,17.538-21.546,32.77-21.947
			c23.053,0,53.616,9.42,68.849-14.126c8.016-3.611,18.639-7.418,21.947-15.737h32.77V276.358z M575.969,276.358"/>
	</g>
</g>
<g id="图层_11" style="display:none;">
	<g style="display:inline;">
		<path style="fill:#E50012;" d="M511.475,150.861c199.017,0,361.32,162.284,361.32,361.295
			c0,199.017-162.312,361.291-361.32,361.291c-199.002,0-361.285-162.332-361.285-361.3
			C150.189,313.184,312.511,150.861,511.475,150.861L511.475,150.861z M511.475,65.496C265.49,65.486,64.833,266.168,64.833,512.147
			c0,245.983,200.647,446.665,446.631,446.665s446.666-200.672,446.666-446.665c0-245.989-200.623-446.661-446.656-446.661V65.496z
			 M313.271,298.483v90.041h40.655v-90.041H313.271z M495.222,733.328l41.196-0.141l0.093-157.378h23.707v61.318h32.636v-61.23
			h24.116l-0.228,88.018l-56.373,0.141v69.273h89.035l-0.38-265.457l72.129,0.218v-36.583h-72.081l0.219-133.062h-39.523v67.248
			h-81.661v48.831l89.053-0.228l0.253,133.777l-80.086,0.273l-120.405-0.273l0.218-133.777l89.055,0.228v-48.831h-88.407v-67.21
			h-32.656l0.248,133.062h-72.109v36.593l72.149-0.218l-0.41,265.457h89.065v-69.283l-56.373-0.136l-0.234-88.017h24.121v61.229
			h32.638v-61.323h23.717l0.049,157.34l-2.721,0.141H495.222z M313.271,492.459v240.87h40.655v-240.87H313.271z M675.641,298.483
			v90.041h48.126v-90.041H675.641z M675.641,492.459v240.87h48.126v-240.87H675.641z M447.257,298.483v41.858h57.045v-41.858
			H447.257z M528.914,298.483v41.858h49.4v-41.858H528.914z M437.321,434.694v90.041h37.541v-90.041H437.321z M497.582,434.694
			v90.041h37.532v-90.041H497.582z M554.676,434.694v90.041h37.541v-90.041H554.676z M554.676,434.694"/>
	</g>
</g>
<g id="图层_12" style="display:none;">
	<g style="display:inline;">
		<g>
			<defs>
				<rect id="SVGID_15_" x="64.027" y="64.12" width="894.139" height="895.388"/>
			</defs>
			<clipPath id="SVGID_16_">
				<use xlink:href="#SVGID_15_"  style="overflow:visible;"/>
			</clipPath>
			<path style="clip-path:url(#SVGID_16_);fill:#A30000;" d="M512.422,958.31c-248.401,0-448.545-200.081-448.545-445.056
				c-0.235-119.032,46.945-233.257,131.117-317.429C279.16,111.658,393.39,64.48,512.422,64.718
				c244.977,0,445.046,200.135,445.046,448.536c0,244.975-200.08,445.046-445.046,445.046V958.31z M429.588,161.36
				c-158.693,37.973-275.982,179.399-275.982,351.894c0,117.313,58.635,224.289,148.335,289.77
				c-37.974-62.081-51.751-189.743-51.751-189.743c-6.875-210.428,141.43-275.996,141.43-275.996
				c75.936-44.838,120.774,3.483,120.774,3.483l31.044,30.977c27.586,31.074,69.023,17.305,69.023,17.305
				c79.341-37.967,34.494-127.706,34.494-127.706C605.565,157.877,498.624,154.427,429.588,161.36L429.588,161.36z M574.472,865.152
				c169.094-27.586,296.765-175.92,296.765-351.898c0-113.831-55.21-217.327-137.99-282.896
				C812.583,392.51,764.292,530.5,764.292,530.5C719.455,678.894,605.6,699.566,605.6,699.566
				c-79.371,20.671-106.918-37.974-106.918-37.974c-20.765-27.547-51.839-27.547-51.839-27.547
				c-65.548-3.425-75.882,55.225-75.882,55.225c0,6.918-3.453,17.248-3.453,20.677c6.883,65.568,44.832,103.497,44.832,103.497
				c48.322,48.322,124.204,55.225,162.181,51.751L574.472,865.152z M415.81,513.254l100.057,100.072L615.91,513.254L515.867,409.766
				L415.81,513.254z M415.81,513.254"/>
		</g>
	</g>
</g>
<g id="图层_13" style="display:none;">
	<g style="display:inline;">
		<g>
			<defs>
				<rect id="SVGID_17_" x="63.992" y="241.818" width="896.045" height="540.867"/>
			</defs>
			<clipPath id="SVGID_18_">
				<use xlink:href="#SVGID_17_"  style="overflow:visible;"/>
			</clipPath>
			<path style="clip-path:url(#SVGID_18_);fill:#004098;" d="M568.658,253.697c0,0-220.485-63.995-431.633,104.784
				c0,0-171.049,152.369,10.389,311.699c0,0,160.923,154.61,496.972,99.384c0,0,282.414-29.998,312.388-233.472
				c0,0,45.748-176.693-241.391-216.129c0,0-296.603-53.634-457.535,162.49c0,0,195.642,108.856,263.475,145.132L740.63,506.114
				l-96.244-48.908L524.491,518.73l-97.811-53.634c0,0,94.653-86.767,241.386-59.996c0,0,255.58,9.467,164.077,181.42
				c0,0-88.355,138.829-457.531,89.921c0,0-347.089-72.564-141.994-309.2c0,0,81.997-97.801,336.049-113.582L568.658,253.697z
				 M568.658,253.697"/>
		</g>
	</g>
</g>
<g id="图层_14" style="display:none;">
	<g style="display:inline;">
		<path style="fill:#BC0015;" d="M510.441,433.144c-35.738,71.616-75.87,140.955-120.175,207.613
			c-113.721,6.818-224.861,23.94-325.865,51.451C208.78,534.532,328.196,328.975,391.226,125.024h0.218
			C418.858,226.158,459.686,331.05,510.441,433.144L510.441,433.144z M510.441,433.144"/>
		<path style="fill:#730000;" d="M390.266,640.723c80.04-4.783,160.298-4.608,240.312,0.531
			c63.468,95.635,134.515,183.644,209.63,257.371c-209.128-47.064-447.969-48.179-657.175-0.897l-0.199-0.342l3.463-3.458
			l3.458-3.521l3.464-3.521l3.438-3.551l3.464-3.58l3.444-3.585l3.438-3.6l3.444-3.6l3.439-3.662l3.414-3.629l3.41-3.664
			l3.414-3.692l6.761-7.442l3.381-3.741l3.351-3.741l3.385-3.799l3.351-3.799l3.352-3.833l3.352-3.829l3.351-3.882l3.322-3.858
			l3.322-3.912l3.303-3.882C309.574,755.156,351.615,699.102,390.266,640.723L390.266,640.723z M390.266,640.723"/>
		<path style="fill:#E4001F;" d="M630.588,641.264c-44.297-66.824-84.419-136.317-120.147-208.091
			c50.838-102.07,91.467-206.814,117.965-308.129c64.842,204.71,184.141,411.773,330.283,568.306l-0.142,0.248
			c-101.641-27.443-213.478-44.974-327.988-52.344L630.588,641.264z M630.588,641.264"/>
		<path style="fill:#BC0015;" d="M630.588,641.264c114.501,7.403,226.381,24.939,327.993,52.344L840.218,898.595
			c-75.124-73.696-146.191-161.705-209.63-257.369V641.264z M630.588,641.264"/>
		<path style="fill:#E4001F;" d="M390.266,640.723c-63.044,94.852-133.502,182.5-207.424,256.645L64.401,692.218
			c101.003-27.549,212.124-44.632,325.865-51.471V640.723z M390.266,640.723"/>
		<path style="fill:#730000;" d="M628.406,125.024c-26.469,101.272-67.097,206.08-117.965,308.086
			c-50.755-102.06-91.583-206.951-118.997-308.086H628.406z M628.406,125.024"/>
	</g>
</g>
<g id="图层_15" style="display:none;">
	<g style="display:inline;">
		<g>
			<defs>
				<rect id="SVGID_19_" x="63.333" y="150.273" width="897.036" height="723.155"/>
			</defs>
			<clipPath id="SVGID_20_">
				<use xlink:href="#SVGID_19_"  style="overflow:visible;"/>
			</clipPath>
			<path style="clip-path:url(#SVGID_20_);fill:#024770;" d="M140.112,468.186c-50.374,0.44-72.717,27.216-75.909,78.681
				c-1.549,24.977-0.552,50.111-0.572,75.176v247.95c5.777,1.28,8.169,2.634,10.059,2.121
				c116.499-31.59,232.978-63.25,349.437-94.967V467.404C328.81,467.273,234.469,467.532,140.112,468.186L140.112,468.186z
				 M140.112,468.186"/>
			<path style="clip-path:url(#SVGID_20_);fill:#E66711;" d="M955.02,436.65c7.612-63.063,7.572-62.912-45.686-80.792
				c-60.908-20.446-121.807-40.932-182.701-61.447v142.2C802.112,437.212,877.752,436.65,955.02,436.65L955.02,436.65z
				 M955.02,436.65"/>
			<path style="clip-path:url(#SVGID_20_);fill:#BA2631;" d="M937.337,267.137c-59.413-35.93-118.127-73.01-177.119-109.626
				c-22.221-13.793-31.752-4.403-32.441,18.521c-0.694,22.772-1.574,45.706,0.528,68.299c0.733,7.85,8.613,19.019,15.808,21.654
				c70.243,26.135,141.036,50.794,215.225,77.141C957.455,313.655,968.145,285.736,937.337,267.137L937.337,267.137z
				 M937.337,267.137"/>
		</g>
		<path style="fill:#DA251C;" d="M476.274,210.217c-32.803-11.07-47.531-9.272-53.157,12.792
			c-1.783,7.008-2.673,15.944-2.903,27.226c-1.002,47.862,1.872,95.89-1.002,143.601c-0.708,11.882,0.533,20.133,3.876,25.799
			c5.567,9.439,17.015,11.721,35.037,11.711c80.822,0,161.629,4.116,242.461,5.083c8.68,0.103,17.381,0.123,26.027,0.191v-142.21
			C643.167,266.365,559.72,238.299,476.274,210.217L476.274,210.217z M476.274,210.217"/>
		<path style="fill:#005E78;" d="M726.643,690.665V467.356l-33.375,0.679c-90.045-0.166-180.095-0.377-270.141-0.631v309.733
			c92.939-25.359,185.849-50.795,278.733-76.301l24.792-6.608v-3.574L726.643,690.665z M726.643,690.665"/>
		<path style="fill:#45916B;" d="M931.329,468.485c-59.124,0.801-118.273,0.952-177.388-0.059h-3.172l-26.585-1.002l2.41,206.696
			v20.118c0,0,92.866-27.026,155.895-45.506c17.904-5.01,35.667-10.153,53.292-15.427c0.964-0.298,1.887-0.703,2.753-1.206
			c14.449-4.697,16.829-25.208,16.829-25.208c0.288-1.226,0.484-2.474,0.582-3.725c2.552-36.209,0.342-72.727,1.369-109.113
			C957.925,474.683,950.348,468.226,931.329,468.485L931.329,468.485z M931.329,468.485"/>
	</g>
</g>
<g id="图层_16" style="display:none;">
	<g style="display:inline;">
		<g>
			<defs>
				<rect id="SVGID_21_" x="64" y="277.04" width="896.036" height="469.767"/>
			</defs>
			<clipPath id="SVGID_22_">
				<use xlink:href="#SVGID_21_"  style="overflow:visible;"/>
			</clipPath>
			<path style="clip-path:url(#SVGID_22_);fill:#A72217;" d="M492.407,505.455l13.998,11.903l14.799-4.301
				c41.398-11.698,82.592-24.701,133.189-40.1c-32.298-29.295-56.295-51.794-81.293-73.091c-1.001-0.8-2.002-1.704-3.199-2.5h-0.102
				c-2.197-1.601-4.697-3.202-7.299-4.501l-7.5-4.6l-5.8,1.499c-0.201,0-0.401,0.103-0.601,0.103
				c-1.299,0.299-2.5,0.699-3.799,0.996l-0.6,0.2c-42.698,11.504-85.093,24.998-137.49,40.798
				C440.111,460.658,466.105,483.86,492.407,505.455L492.407,505.455z M900.176,395.965
				c-119.791-103.694-265.581-120.094-415.37-118.693l-31.497,2.1l41.096,37.2c0,0,26.697-5.401,45.997-2.602h0.099
				c39.601,6.303,80.194,7.499,119.093,16.4c50.699,11.6,98.992,31.096,132.593,74.595c28.694,37.096,28.294,76.493-0.4,112.99
				c-6.303,8.002-12.7,16-21,26.302l117.492,90.194c6.098-1.801,12.098-6.601,18.997-13.202
				C978.271,553.454,978.072,463.358,900.176,395.965L900.176,395.965z M600.197,630.549l-28.196-26.599l-44.899,2.7
				c-66.094,1.299-129.791-12.299-189.187-43.196c-91.692-47.799-103.791-109.191-34.699-188.785
				c-15.096-16.6-25.994-28.602-35.296-36.599h-0.097l-3.3-2.7l-15.503-12.597c-1.996,0-6.898,1.196-7.196,1.299
				c-8.999,2.7-18.1,6.698-18.1,6.698c-10.102,4.302-22.401,11.699-38.996,21.898c-29.099,17.796-57.296,38.898-80.796,63.495
				c-48.399,50.895-53.697,118.693-11,173.988c22.9,29.597,52.795,56.895,85.195,75.292
				c163.89,92.996,339.077,93.895,526.061,58.897c-36.395-32.595-67.896-58.595-96.893-87.294
				C604.997,634.747,602.697,632.551,600.197,630.549L600.197,630.549z M600.197,630.549"/>
		</g>
	</g>
</g>
<g id="图层_17">
	<g>
		<path style="fill:#F2943A;" d="M168.705,629.983c-34.851-11.078-67.917-27.139-98.169-47.687
			c11.219,70.651,39.327,137.549,81.937,195.012c0-1.437-0.077-2.873-0.077-4.32C152.366,724.854,157.837,676.875,168.705,629.983
			L168.705,629.983z M420.956,621.443c-57.619,22.54-119.876,30.656-181.348,23.656c-16.514,70.401-19.188,143.336-7.882,214.756
			c64.526,52.036,142.308,84.996,224.577,95.167c-62.924-99.688-75.985-222.944-35.347-333.608V621.443z M259.854,421.014
			c-67.947-7.628-123.982-56.699-140.511-123.042c-32.98,60.401-51.477,127.631-54.034,196.402
			c34.421,33.212,75.975,58.125,121.493,72.827C204.676,515.495,229.232,466.353,259.854,421.014L259.854,421.014z M319.144,346.097
			c14.467-15.681,29.715-30.626,45.693-44.773c20.86-42.275,8.195-93.434-29.984-121.089c-38.177-27.66-90.735-23.758-124.406,9.241
			c-33.671,32.994-38.64,85.46-11.764,124.192C225.564,352.396,276.45,366.099,319.144,346.097L319.144,346.097z M865.443,784.621
			c14.975-43.282-2.469-91.129-41.782-114.624c-39.317-23.495-89.716-16.188-120.742,17.503
			c-31.026,33.69-34.164,84.523-7.516,121.775c26.646,37.247,75.769,50.698,117.673,32.215
			C832.132,824.074,849.655,805.047,865.443,784.621L865.443,784.621z M865.443,784.621"/>
		<g>
			<defs>
				<rect id="SVGID_23_" x="64.978" y="64.428" width="894.008" height="895.205"/>
			</defs>
			<clipPath id="SVGID_24_">
				<use xlink:href="#SVGID_23_"  style="overflow:visible;"/>
			</clipPath>
			<path style="clip-path:url(#SVGID_24_);fill:#F2943A;" d="M764.59,143.382c-47.146-32.448-100.112-55.48-155.997-67.839
				c15.443,25.969,27.714,53.702,36.546,82.594C684.397,149.428,724.397,144.484,764.59,143.382L764.59,143.382z M659.495,229.124
				c6.006,57.683-1.252,115.974-21.23,170.421c100.576-39.375,213.169-34.012,309.549,14.747
				c-16.041-71.985-49.709-138.86-97.974-194.618c-63.508-7.764-127.879-4.569-190.301,9.45H659.495z M958.228,497.096
				c-120.275-85.785-284.149-75.804-393.122,23.943c-7.716,8.647-15.773,16.889-24.172,24.723
				c-103.362,117.678-103.79,293.648-0.999,411.824c62.875-3.864,124.212-21.059,179.931-50.448
				c-63.695-22.35-109.466-82.809-109.466-154.16c-0.024-77.139,53.888-143.79,129.326-159.894
				c75.44-16.105,151.867,22.726,183.341,93.151c23.421-55.198,35.455-114.551,35.381-174.513
				C958.458,506.814,958.384,501.938,958.228,497.096L958.228,497.096z M518.345,475.146
				c50.215-57.137,77.86-130.628,77.748-206.695c0-6.985-0.248-13.966-0.707-20.81c-72.452,25.828-138.766,66.377-194.783,119.091
				c-5.218,5.899-10.848,11.418-16.851,16.509c-55.217,56.402-97.832,123.875-125.03,197.969c7.843,0.59,15.759,0.892,23.753,0.907
				c78.298,0.097,153.781-29.199,211.507-82.098C501.758,491.367,509.879,483.076,518.345,475.146L518.345,475.146z M440.89,243.578
				c44.027-28.453,91.451-51.281,141.158-67.941c-12.665-40.609-33.457-78.216-61.117-110.528c-3.064-0.064-6.128-0.102-9.212-0.102
				c-62.626-0.084-124.566,13.051-181.771,38.542C390.266,123.722,434.962,178.014,440.89,243.578L440.89,243.578z M440.89,243.578"
				/>
			<path style="clip-path:url(#SVGID_24_);fill:#FED966;" d="M540.934,545.762c8.399-7.834,16.456-16.076,24.172-24.723
				c108.944-99.752,272.799-109.767,393.079-24.02c-0.872-27.841-4.345-55.535-10.371-82.726
				c-96.376-48.768-208.97-54.141-309.549-14.78c19.973-54.433,27.236-112.715,21.23-170.387
				c62.441-14.025,126.827-17.22,190.344-9.45c-25.034-28.956-53.673-54.593-85.211-76.291
				c-40.193,1.091-80.192,6.026-119.452,14.727c-8.832-28.892-21.103-56.625-36.541-82.595
				c-28.824-6.351-58.199-9.839-87.705-10.404c27.665,32.322,48.462,69.939,61.127,110.556
				c-49.709,16.66-97.131,39.488-141.16,67.942c-5.937-65.565-50.623-119.857-110.95-140.058
				c-89.58,40.038-163.563,108.345-210.606,194.452c16.538,66.333,72.574,115.389,140.511,123.012
				c-30.617,45.329-55.175,94.461-73.052,146.158c-45.518-14.703-87.072-39.615-121.493-72.828
				c-0.219,5.753-0.332,11.536-0.332,17.347c-0.005,23.636,1.846,47.233,5.548,70.577c30.252,20.543,63.319,36.608,98.169,47.686
				c-10.868,46.898-16.339,94.88-16.309,143.015c0,1.447,0,2.893,0.077,4.321c22.794,30.782,49.426,58.521,79.253,82.546
				c-11.306-71.419-8.632-144.36,7.882-214.756c61.472,7,123.724-1.12,181.348-23.656c-40.632,110.66-27.567,233.916,35.357,333.599
				c18.384,2.276,36.891,3.416,55.417,3.416c9.46,0,18.848-0.293,28.167-0.882c-102.791-118.176-102.363-294.147,0.999-411.825
				L540.934,545.762z M181.278,258.436c0.015-39.907,24.528-75.707,61.721-90.16c37.198-14.454,79.448-4.593,106.406,24.829
				c26.958,29.424,33.086,72.379,15.443,108.171c-15.978,14.146-31.226,29.087-45.694,44.773c-29.974,14.058-65.058,11.819-93-5.939
				c-27.942-17.756-44.865-48.568-44.865-81.674H181.278z M282.476,582.117c-7.979,0-15.895-0.302-23.753-0.907
				c27.198-74.094,69.813-141.567,125.03-197.969c6.002-5.091,11.633-10.61,16.851-16.509
				c56.031-52.704,122.37-93.239,194.832-119.053c0.449,6.884,0.712,13.815,0.712,20.811
				c0.082,76.057-27.578,149.538-77.802,206.655c-8.466,7.92-16.577,16.212-24.333,24.873
				C436.281,552.923,360.784,582.224,282.476,582.117L282.476,582.117z M282.476,582.117"/>
		</g>
		<path style="fill:#FED966;" d="M773.968,589.467c-43.376-0.014-84.977,17.206-115.658,47.872
			c-30.674,30.666-47.91,72.262-47.91,115.638c0,71.352,45.772,131.81,109.466,154.16c33.738-17.81,65.066-39.858,93.219-65.608
			c-41.88,18.462-90.97,5.012-117.596-32.215c-26.628-37.233-23.49-88.031,7.516-121.703c31.006-33.671,81.377-40.974,120.67-17.499
			c39.293,23.471,56.732,71.288,41.777,114.552c23.349-30.198,42.723-63.266,57.658-98.393
			C896.855,627.401,838.431,589.477,773.968,589.467L773.968,589.467z M773.968,589.467"/>
	</g>
</g>
</svg>
