<?xml version="1.0" encoding="utf-8"?>
<!-- Generator: Adobe Illustrator 17.0.0, SVG Export Plug-In . SVG Version: 6.00 Build 0)  -->
<!DOCTYPE svg PUBLIC "-//W3C//DTD SVG 1.1//EN" "http://www.w3.org/Graphics/SVG/1.1/DTD/svg11.dtd">
<svg version="1.1" xmlns="http://www.w3.org/2000/svg" xmlns:xlink="http://www.w3.org/1999/xlink" x="0px" y="0px" width="1024px"
	 height="1024px" viewBox="0 0 1024 1024" style="enable-background:new 0 0 1024 1024;" xml:space="preserve">
<g id="图层_1">
</g>
<g id="图层_2" style="display:none;">
	<g style="display:inline;">
		<path style="fill:#E60012;" d="M763.21,543.787v198.278H543.729V677.96h149.389v-73.164H543.729V406.717h149.389v-67.186H543.729
			v-64.129H763.21v198.074H613.821v67.156H763.21V543.787z M259.982,543.787v198.278h219.457V677.96H330.045v-73.164h149.394
			V406.717H330.045v-67.186h149.394v-64.129H259.982v198.074h149.394v67.156H259.982V543.787z M259.982,543.787"/>
		<path style="fill:#E60012;" d="M511.686,64.897c-246.844,0-446.91,200.066-446.91,446.91c0,246.85,200.066,446.91,446.91,446.91
			c246.85,0,446.91-200.06,446.91-446.91C958.596,264.964,758.536,64.897,511.686,64.897L511.686,64.897z M511.686,870.084
			c-197.874,0-358.267-160.403-358.267-358.267s160.403-358.325,358.267-358.325s358.267,160.413,358.267,358.325
			c0,197.917-160.403,358.257-358.267,358.257V870.084z M511.686,870.084"/>
	</g>
</g>
<g id="图层_3">
	<g>
		<g>
			<defs>
				<rect id="SVGID_1_" x="64.15" y="63.94" width="893.016" height="895.568"/>
			</defs>
			<clipPath id="SVGID_2_">
				<use xlink:href="#SVGID_1_"  style="overflow:visible;"/>
			</clipPath>
			<path style="clip-path:url(#SVGID_2_);fill:#004EA2;" d="M69.024,488.223c0,0,29.905-436.127,483.499-423.617
				c0,0,371.357,22.488,403.754,426.207l-214.34-0.049c0,0-127.096,5.004-231.784-196.876c0,0-117.137,179.652-244.255,194.604
				L69.024,488.223z M64.02,515.631l219.324,5.004c0,0,34.883,0,64.8,27.413l-279.139,0.161L64,515.651L64.02,515.631z
				 M74.027,572.945h318.988c0,0,27.423,10.007,37.385,34.888l-348.916,2.502l-7.477-37.352L74.027,572.945z M91.472,637.635
				l368.864,0.108c0,0,52.339,49.847,39.878,171.96c0,0,24.921,19.932,29.915-2.492c0,0-17.454-169.468,37.377-169.468
				l368.976-2.492l-22.581,49.96l-127.092-0.113c0,0-44.862-10.008-42.37,64.8c0,0,1.911,230.172-226.848,206.735
				c0,0-239.183,12.578-236.72-194.276c0,0,10.007-89.719-52.339-69.773H108.956l-17.504-54.938L91.472,637.635z M589.935,607.833
				c0,0,10.007-39.873,64.793-29.905l291.6-2.492l-5.004,29.915l-351.415,2.492L589.935,607.833z M667.199,550.51
				c0,0,14.952-32.398,39.868-32.398l244.245,5.004l-5.004,29.916l-279.138-2.493L667.199,550.51z M667.199,550.51"/>
		</g>
	</g>
</g>
</svg>
