<?xml version="1.0" encoding="utf-8"?>
<!-- Generator: Adobe Illustrator 17.0.0, SVG Export Plug-In . SVG Version: 6.00 Build 0)  -->
<!DOCTYPE svg PUBLIC "-//W3C//DTD SVG 1.1//EN" "http://www.w3.org/Graphics/SVG/1.1/DTD/svg11.dtd">
<svg version="1.1" xmlns="http://www.w3.org/2000/svg" xmlns:xlink="http://www.w3.org/1999/xlink" x="0px" y="0px" width="1024px"
	 height="1024px" viewBox="0 0 1024 1024" style="enable-background:new 0 0 1024 1024;" xml:space="preserve">
<g id="图层_1">
</g>
<g id="图层_2" style="display:none;">
	<g style="display:inline;">
		<path style="fill:#E60012;" d="M763.21,543.787v198.278H543.729V677.96h149.389v-73.164H543.729V406.717h149.389v-67.186H543.729
			v-64.129H763.21v198.074H613.821v67.156H763.21V543.787z M259.982,543.787v198.278h219.457V677.96H330.045v-73.164h149.394
			V406.717H330.045v-67.186h149.394v-64.129H259.982v198.074h149.394v67.156H259.982V543.787z M259.982,543.787"/>
		<path style="fill:#E60012;" d="M511.686,64.897c-246.844,0-446.91,200.066-446.91,446.91c0,246.85,200.066,446.91,446.91,446.91
			c246.85,0,446.91-200.06,446.91-446.91C958.596,264.964,758.536,64.897,511.686,64.897L511.686,64.897z M511.686,870.084
			c-197.874,0-358.267-160.403-358.267-358.267s160.403-358.325,358.267-358.325s358.267,160.413,358.267,358.325
			c0,197.917-160.403,358.257-358.267,358.257V870.084z M511.686,870.084"/>
	</g>
</g>
<g id="图层_3" style="display:none;">
	<g style="display:inline;">
		<g>
			<defs>
				<rect id="SVGID_1_" x="64.15" y="63.94" width="893.016" height="895.568"/>
			</defs>
			<clipPath id="SVGID_2_">
				<use xlink:href="#SVGID_1_"  style="overflow:visible;"/>
			</clipPath>
			<path style="clip-path:url(#SVGID_2_);fill:#004EA2;" d="M69.024,488.223c0,0,29.905-436.127,483.499-423.617
				c0,0,371.357,22.488,403.754,426.207l-214.34-0.049c0,0-127.096,5.004-231.784-196.876c0,0-117.137,179.652-244.255,194.604
				L69.024,488.223z M64.02,515.631l219.324,5.004c0,0,34.883,0,64.8,27.413l-279.139,0.161L64,515.651L64.02,515.631z
				 M74.027,572.945h318.988c0,0,27.423,10.007,37.385,34.888l-348.916,2.502l-7.477-37.352L74.027,572.945z M91.472,637.635
				l368.864,0.108c0,0,52.339,49.847,39.878,171.96c0,0,24.921,19.932,29.915-2.492c0,0-17.454-169.468,37.377-169.468
				l368.976-2.492l-22.581,49.96l-127.092-0.113c0,0-44.862-10.008-42.37,64.8c0,0,1.911,230.172-226.848,206.735
				c0,0-239.183,12.578-236.72-194.276c0,0,10.007-89.719-52.339-69.773H108.956l-17.504-54.938L91.472,637.635z M589.935,607.833
				c0,0,10.007-39.873,64.793-29.905l291.6-2.492l-5.004,29.915l-351.415,2.492L589.935,607.833z M667.199,550.51
				c0,0,14.952-32.398,39.868-32.398l244.245,5.004l-5.004,29.916l-279.138-2.493L667.199,550.51z M667.199,550.51"/>
		</g>
	</g>
</g>
<g id="图层_4" style="display:none;">
	<g style="display:inline;">
		<g>
			<defs>
				<rect id="SVGID_3_" x="63.373" y="79.95" width="897.016" height="864.296"/>
			</defs>
			<clipPath id="SVGID_4_">
				<use xlink:href="#SVGID_3_"  style="overflow:visible;"/>
			</clipPath>
			<path style="clip-path:url(#SVGID_4_);fill:#E60012;" d="M928.151,252.753l-31.753-40.65c0,0-124.49,20.326-121.938-49.54
				c0,0,8.889-52.077-81.302-31.751c0,0-21.591-20.316-20.326-31.758c0,0,6.352-30.49-91.476-13.974
				c0,0-144.812,17.782-303.577,199.421c0,0-160.056,130.827-160.056-3.814c0,0-87.643,88.915-40.651,160.056
				c0,0,53.349,74.936,154.976,13.969c0,0-31.751,246.414,130.832,374.713c0,0,170.217,157.509,365.834,101.617
				c0,0,163.85-34.3,226.094-199.426c0,0-29.211,29.209-41.918,26.677c0,0,44.465-53.349,47.007-76.218
				c0,0-1.275-31.756-26.681,17.784c0,0,6.357-30.491-11.427-15.241c0,0-86.382,100.341-123.224,105.416
				c0,0-273.101,161.323-397.586-163.85c0,0-53.349-153.699,72.378-269.282c125.723-115.581,248.961-104.151,362.021-20.326
				c0,0,57.157-64.774,81.292-52.077c0,0,21.592-12.697,11.432-31.756L928.151,252.753z M928.151,252.753"/>
		</g>
		<path style="fill:#E60012;" d="M549.502,407.239l277.906-1.311v211.363H549.502V407.239z M549.502,407.239"/>
	</g>
</g>
<g id="图层_5" style="display:none;">
	<g style="display:inline;">
		<g>
			<defs>
				<rect id="SVGID_5_" x="99.82" y="63.711" width="824.536" height="896.131"/>
			</defs>
			<clipPath id="SVGID_6_">
				<use xlink:href="#SVGID_5_"  style="overflow:visible;"/>
			</clipPath>
			<path style="clip-path:url(#SVGID_6_);fill:#1D2088;" d="M770.571,735.102c-52.491,1.723-101.006,3.388-153.498,5.081
				c-33.24,141.385-308.087,103.2-277.471-76.203c15.378-106.279,158.981-152.684,248.124-72.446
				c19.589,22.14,29.185,42.674,35.471,87.689c44.031-1.7,103.392-3.393,147.402-5.088
				c2.237-228.618-257.427-344.636-452.144-233.68c-186.669,106.347-165.122,430.346,30.483,513.1v5.081
				c-106.662-2.094-223.609-84.707-249.118-182.884l1.444-527.078c84.65-57.569,178.223-126.583,262.852-184.162l10.16,5.083
				c-5.846,79.458-2.16,210.482,2.536,306.094c53.054-51.483,88.781-105.286,180.358-123.205
				c59.031-11.53,115.503-4.582,151.142,7.618c267.512,91.65,284.168,437.319,57.151,556.289c-5.081,0-16.112,10.027-24.544,11.663
				c0-1.695,5.283-9.023,9.303-16.745l20.319-76.207H770.571z M770.571,735.102"/>
		</g>
	</g>
</g>
<g id="图层_6" style="display:none;">
	<g style="display:inline;">
		<path style="fill:#004D28;" d="M550.59,754.97l140.539,171.424h221.269L783.821,788.847l-5.974-8.971l-0.999-3.98l-0.999-3.99
			v-10.958l0.999-3.991l0.999-3.98l1.992-4.989l3.981-5.978l4.979-8.969l5.988-6.978l128.577-149.508l8.969-10.968l6.972-9.96
			l4.979-9.969l5.988-9.969l3.98-9.969l2.997-9.97l1.992-9.959v-28.908l-1.992-9.969l-2.997-8.97l-3.98-9.97l-5.988-9.959
			l-4.979-7.98l-6.972-9.96L656.248,96.153l-43.856,38.867l132.562,160.467l7.977,10.968l5.978,10.963l2.991,5.978l0.999,4.979
			l0.984,5.988v4.979l-0.984,11.962l-2.996,10.968l-4.989,10.958l-6.973,10.968L555.58,605.46l-4.989,3.981l-1.983,4.989
			l-5.987,6.976l-4.981,8.971l-2.991,8.969l-3.98,8.971l-1.998,8.97l-0.999,9.969l-1.992,8.971v9.959l1.992,9.969l0.999,10.968
			l2.991,8.971l3.986,9.969l3.99,9.969l4.979,9.969l3.99,4.979L550.59,754.97z M550.59,754.97"/>
		<path style="fill:#D21B21;" d="M346.274,335.361l0.993-15.957l2.997-16.946l0.999-7.97l2.981-8.971l5.988-14.948l6.973-13.95
			l3.98-6.986l3.995-6.973l9.969-11.957l8.971-12.961l12.951-9.959l11.966-8.979l13.95-8.961l13.95-6.986l14.958-4.979l8.97-2.992
			l7.972-0.999l7.975-1.987l8.971-0.994h7.97l8.971-1.998l14.948,1.998l14.949,2.981l14.958,1.998l13.949,5.983l6.977,2.986
			l6.973,2.992l13.959,6.976l12.956,7.972l10.963,9.969l8.975,10.968l5.973,4.979l3.996,5.973l9.954,10.968l6.987,13.95
			l6.976,13.959l0.994,6.978l2.987,6.973l3.99,14.948l2.991,14.959h-96.681l-67.775-67.785l-87.713,85.729l87.713,85.705
			l67.775-67.765h96.681l-2.991,16.931l-3.99,13.965l-2.987,6.973l-0.994,6.976l-6.976,13.96l-6.987,13.949l-9.954,10.958
			l-9.97,10.963l-8.975,10.968l-10.963,9.97l-6.978,3.98l-5.978,3.99l-6.981,3.986l-6.977,2.991l-13.95,5.978l-13.949,4.989
			l-14.958,3.98l-14.949,1.993l-14.948,0.999l-16.941-0.999l-16.946-2.982l-7.972-0.998l-8.97-2.992l-14.958-5.978l-13.95-6.981
			l-6.977-3.986l-6.973-3.99l-11.966-9.959l-12.951-9.97l-8.971-11.961l-9.969-12.951l-7.975-13.964l-6.973-12.951l-5.988-15.947
			l-2.981-7.972l-0.999-7.982l-1.998-8.96l-0.999-7.977l-0.993-7.97V335.361z M346.274,335.361"/>
		<path style="fill:#004D28;" d="M471.863,754.97L332.324,926.393H110.057l129.575-137.546l4.981-8.971l1.992-3.98l0.999-3.99
			v-10.958l-0.999-3.991l-1.992-3.98l-0.999-4.989l-3.981-5.978l-5.987-8.969l-6.978-6.978L99.094,576.554l-7.977-10.968
			l-6.973-9.96l-5.978-9.969l-4.989-9.969l-3.98-9.969l-2.997-9.97l-2.991-9.959v-28.908l2.991-9.969l2.997-8.97l3.98-9.97
			l3.99-9.959l6.978-7.98l6.973-9.96L367.205,96.153l43.856,38.867L278.499,295.487l-8.976,10.968l-4.979,10.963l-2.991,5.978
			l-0.999,4.979l-1.983,5.988v4.979l1.983,11.962l1.997,10.968l5.978,10.958l6.983,10.968L467.873,605.46l3.99,3.981l2.982,4.989
			l4.989,6.976l4.979,8.971l3.98,8.969l3.99,8.971l0.999,8.97l1.998,9.969l0.999,8.971v9.959l-0.999,9.969l-1.998,10.968
			l-1.992,8.971l-4.981,9.969l-3.995,9.969l-4.979,9.969l-2.991,4.979L471.863,754.97z M471.863,754.97"/>
	</g>
</g>
<g id="图层_7" style="display:none;">
	<g style="display:inline;">
		<path style="fill:#008566;" d="M511.177,64.622c-13.404,0-26.813,0.45-40.217,1.786v215.827
			c0.029,9.857,8.013,17.846,17.875,17.87h44.684c9.857-0.024,17.846-8.013,17.87-17.87V66.407
			C537.985,65.062,524.581,64.622,511.177,64.622L511.177,64.622z M538.434,357.302h62.51c9.859-0.024,17.846-8.013,17.876-17.87
			V109.306h44.684v366.413c0.009,5.44-2.138,10.664-5.984,14.52c-3.84,3.855-9.055,6.021-14.5,6.026H541.56
			c-19.656,0-20.556,10.278-20.556,10.278V374.727C520.564,365.319,528.597,357.302,538.434,357.302L538.434,357.302z
			 M538.434,357.302"/>
		<g>
			<defs>
				<rect id="SVGID_7_" x="64.484" y="64.121" width="894.035" height="895.387"/>
			</defs>
			<clipPath id="SVGID_8_">
				<use xlink:href="#SVGID_7_"  style="overflow:visible;"/>
			</clipPath>
			<path style="clip-path:url(#SVGID_8_);fill:#008566;" d="M484.818,357.302h-62.559c-9.862-0.024-17.846-8.013-17.876-17.87
				V109.306H359.7v366.413c-0.015,5.454,2.147,10.694,6.003,14.554c3.86,3.86,9.098,6.018,14.559,6.003h101.46
				c19.657,0,20.556,10.278,20.556,10.278V374.727C502.688,365.319,494.647,357.302,484.818,357.302L484.818,357.302z
				 M377.521,654.003h71.497c9.886,0,17.905,8.004,17.924,17.89v277.526h35.746V535.64c0.015-5.459-2.143-10.698-6.003-14.559
				c-3.86-3.855-9.098-6.016-14.554-6.001H380.701c-19.656,0-20.561-10.279-20.561-10.279v131.777
				c-0.45,9.388,7.598,17.425,17.425,17.425H377.521z M645.629,654.003h-71.443c-9.867,0.025-17.86,8.023-17.875,17.89v277.526
				h-35.746V535.64c-0.02-5.459,2.143-10.698,6.003-14.559c3.86-3.855,9.098-6.016,14.554-6.001h101.421
				c19.657,0,20.561-10.279,20.561-10.279v131.777c0.451,9.388-7.597,17.425-17.425,17.425H645.629z M645.629,654.003"/>
			<path style="clip-path:url(#SVGID_8_);fill:#008566;" d="M618.87,77.576v92.944c144.77,45.578,249.777,180.971,249.777,340.945
				c0,197.501-159.969,357.47-357.47,357.47S153.7,708.966,153.7,511.465c0-160.415,105.457-295.806,250.682-341.386V77.135
				c-195.274,48.251-340.05,224.314-340.05,434.33c0,246.656,200.187,446.843,446.843,446.843S958.02,758.121,958.02,511.465
				C958.02,301.89,813.685,125.864,618.87,77.576L618.87,77.576z M618.87,77.576"/>
		</g>
		<path style="fill:#008566;" d="M533.068,895.748h-44.683c-9.862-0.029-17.846-8.013-17.876-17.875V654.454h80.43v223.419
			C550.914,887.735,542.925,895.719,533.068,895.748L533.068,895.748z M533.068,895.748"/>
	</g>
</g>
<g id="图层_8" style="display:none;">
	<g style="display:inline;">
		<g>
			<defs>
				<rect id="SVGID_9_" x="73.426" y="65.017" width="876.975" height="894.368"/>
			</defs>
			<clipPath id="SVGID_10_">
				<use xlink:href="#SVGID_9_"  style="overflow:visible;"/>
			</clipPath>
			<path style="clip-path:url(#SVGID_10_);fill:#0081CC;" d="M948.405,808.421l0.132-636.795
				C941.708,43.998,811.238,67.081,811.238,67.081L196.87,69.66C69.158,66.92,74.59,208.288,74.59,208.288l-1.314,613.706
				C74.59,971.353,214.58,956.417,214.58,956.417l611.599,1.772C970.248,956.836,948.405,808.421,948.405,808.421L948.405,808.421z
				 M792.198,774.47c0,0-323.471-224.037-558.597,29.902c0,0,249.372-295.749,1.358-581.094c0,0,301.721,262.051,558.597-5.421
				C793.566,217.798,546.208,506.997,792.198,774.47L792.198,774.47z M792.198,774.47"/>
		</g>
	</g>
</g>
<g id="图层_9" style="display:none;">
	<g style="display:inline;">
		<g>
			<defs>
				<rect id="SVGID_11_" x="64.817" y="64.607" width="893.959" height="895.26"/>
			</defs>
			<clipPath id="SVGID_12_">
				<use xlink:href="#SVGID_11_"  style="overflow:visible;"/>
			</clipPath>
			<path style="clip-path:url(#SVGID_12_);fill:#E8252A;" d="M940.116,633.886l4.074-14.986l3.531-14.977l3.019-15.265l2.434-14.986
				l1.108-7.636l0.792-7.903l0.84-7.63l0.801-7.606l0.259-7.903l0.58-7.903v-7.904l0.269-7.888l-0.269-11.465l-0.259-11.157
				l-0.849-11.177l-0.792-11.171l-1.109-11.177l-1.372-10.883l-1.642-10.912l-2.168-10.624l-2.165-10.615l-2.486-10.624
				l-2.424-10.355l-3.024-10.355l-3.268-10.093l-3.541-10.097l-3.805-10.063l-3.81-9.804l-4.382-9.803l-4.332-9.824l-4.91-9.545
				l-4.914-9.535l-5.182-9.241l-5.442-9.271l-5.969-9.276l-6.024-8.984l-6.233-8.982l-6.555-8.725l-6.82-8.715l-6.814-8.451
				l-7.342-8.724l-7.616-8.163l-7.664-8.455l-8.182-8.163l-8.142-7.903l-8.451-7.923l-8.456-7.342l-8.456-7.347l-8.708-7.078
				l-8.725-6.824l-8.984-6.555l-8.982-6.253l-8.989-5.999l-9.3-5.735l-9.247-5.442l-9.5-5.441l-9.565-4.884l-9.515-4.651
				l-9.833-4.622l-9.824-4.103l-10.043-4.088l-10.088-3.815l-10.092-3.267l-10.092-3.254l-10.355-3.009L620.75,78.61l-10.616-2.447
				l-10.624-2.173l-10.614-1.929l-10.893-1.612L567.12,69.08l-10.937-1.353l-11.142-0.82l-11.157-0.548l-11.201-0.562h-22.88
				l-11.465,0.562l-11.416,0.548l-11.206,0.82l-10.883,1.353l-10.883,1.368l-10.883,1.612l-10.938,1.929l-10.624,2.173L400.88,78.61
				l-10.35,2.726l-10.355,3.009l-10.044,3.254l-10.087,3.267l-10.092,3.815l-9.834,4.088l-9.774,4.103l-9.823,4.622l-9.516,4.651
				l-9.564,4.884l-9.242,5.441l-9.305,5.442l-9.242,5.735l-8.982,5.999l-8.984,6.253l-8.725,6.555l-8.713,6.824l-8.725,7.078
				l-8.715,7.347l-8.192,7.342l-8.455,7.923l-8.133,7.903l-8.192,8.163l-7.616,8.455l-7.649,8.163l-7.357,8.724l-7.068,8.451
				l-6.555,8.715l-6.551,8.725l-6.243,8.982l-6.281,8.984l-5.715,9.276l-5.442,9.271l-5.173,9.241l-5.182,9.535l-4.651,9.545
				l-4.333,9.824l-4.382,9.803l-4.069,9.804l-3.541,10.063l-3.541,10.097l-3.273,10.093l-3.009,10.355l-2.701,10.355l-2.482,10.624
				l-2.173,10.615l-1.901,10.624l-1.631,10.912l-1.378,10.883l-1.05,11.177L65.776,477.5l-0.528,11.177l-0.323,11.157l-0.259,11.465
				l0.259,11.43l0.323,11.446l0.528,11.176l1.113,11.152l1.05,11.177l1.378,10.903l1.631,10.888l1.901,10.653l2.173,10.614
				l2.482,10.624l2.701,10.615l3.009,10.36l3.273,10.068l3.541,10.35l3.541,9.833l4.069,10.068l4.382,9.824l4.333,9.803l4.651,9.545
				l5.182,9.53l5.173,9.516l5.442,9.276l5.715,9.261l6.281,9.251l6.243,9.007l6.551,8.72l6.555,8.989l7.068,8.45l7.357,8.715
				l7.649,8.431l7.616,8.456l8.192,8.192l8.133,7.893l8.455,7.904l8.192,7.616l8.715,7.102l8.725,7.083l8.713,6.81l8.725,6.525
				l8.984,6.263l8.982,6.004l9.242,5.73l9.305,5.442l9.242,5.441l9.564,4.914l9.516,4.909l9.823,4.332l9.774,4.392l9.834,3.8
				l10.092,3.815l10.087,3.531l10.044,3.009l10.355,2.995l10.35,2.721l10.624,2.457l10.624,2.192l10.938,1.901l21.766,3.283
				l10.883,1.079l11.206,0.822l11.416,0.518l11.465,0.561h11.465l16.065-0.259l15.798-0.561l15.534-1.349l15.539-1.641l15.216-2.193
				l14.747-2.721l14.942-3.273l14.488-3.536l14.156-4.362l14.166-4.627l13.893-5.177l13.638-5.447l13.315-6.261l13.365-6.541
				l13.105-7.083l12.784-7.372l8.725-5.441l8.45-5.447l8.187-5.441l7.611-5.73l7.616-5.442l7.073-5.735l6.819-5.71l6.556-5.735
				l5.969-5.989l6.022-5.745l5.442-5.964l5.173-5.999l4.913-6.267l4.602-5.989l4.123-6.291l4.069-6.263l3.541-6.267l3.272-6.263
				l3.009-6.253l2.702-6.55l2.481-6.531l1.899-6.555l1.906-6.521l1.377-6.814l1.05-6.55l0.85-6.795l0.264-6.814l0.259-6.819
				l-0.259-7.073l-0.264-6.824l-0.85-7.083l-1.05-7.074l-1.377-5.73l-1.373-5.974l-1.641-5.471l-1.642-5.705l-2.158-5.471
				l-2.175-5.183l-2.476-5.173l-2.691-5.177l-3.015-4.894l-3.009-4.91l-3.542-4.884l-3.541-4.651l-3.805-4.362l-3.81-4.363
				l-4.382-4.352l-4.332-4.362l-4.651-4.069l-4.915-3.835l-5.178-3.8l-5.123-3.8l-5.501-3.57l-5.705-3.541l-5.97-3.254l-6.286-3.541
				l-6.291-3.009l-6.501-2.985l-6.815-3.009l-7.083-2.721l-7.342-2.721l-7.391-2.721l-7.616-2.461l-7.923-2.452l-20.398-7.083
				l6.506-3.8l6.281-4.104l5.97-4.088l5.495-4.362l5.183-4.627l4.861-4.621l4.38-4.909l4.069-5.182l3.805-5.183l3.278-5.441
				l3.274-5.735l2.481-5.701l2.432-6.004l1.911-5.994l1.367-6.261l1.373-6.551l0.533-7.616l0.269-7.073l-0.269-7.37l-0.533-7.372
				l-1.373-7.054l-1.9-7.112l-2.168-6.785l-2.751-7.112l-3.273-6.78l-3.8-6.824l-4.392-6.814l-4.864-6.531l-5.491-6.545
				l-5.974-6.551l-6.551-6.262l-6.814-6.261l-7.611-6.556l-7.606-6.261l-7.923-5.711l-8.191-5.461l-8.402-5.183l-8.725-4.884
				l-9.036-4.357l-9.242-4.362l-9.515-3.835l-9.824-3.8l-10.092-3.283l-10.355-2.98l-10.624-2.72l-10.884-2.721l-11.205-2.193
				l-11.416-1.901l-13.107-1.909l-13.043-1.632l-13.638-1.377l-13.633-1.084l-13.897-1.08l-14.157-0.82l-14.166-0.548l-14.683-0.273
				l-14.747-0.259l-15.006,0.259h-15.216l-15.534,0.533l-15.798,0.82l-16.065,0.84l-16.115,0.79l-16.33,1.378v140.867l13.058-1.631
				l13.105-1.642l13.043-1.079L378,429.263l13.107-0.82l13.315-0.533l13.375-0.288h26.945l13.374,0.551l13.633,0.556l13.629,1.085
				l13.584,1.079l13.623,1.378l13.898,1.631l13.907,1.642l11.191,1.9l10.624,2.175l9.775,2.456l9.305,2.452l8.451,2.995l7.874,3.009
				l7.342,3.273l6.555,3.541l3.009,1.607l2.691,1.935l2.751,2.16l2.432,1.91l2.481,2.193l1.901,2.16l2.168,2.202l1.642,2.16
				l1.631,2.462l1.642,2.452l1.373,2.457l1.059,2.72l0.85,2.462l0.792,2.711l0.576,2.731l0.531,3.014v4.879l-0.531,2.462
				l-0.576,2.721l-2.173,5.994l-3.01,6.824l-1.9,2.72l-2.165,2.721l-2.427,2.447l-3.014,1.906l-3.01,1.91l-3.283,1.632l-3.541,1.377
				l-3.8,1.08l-4.073,0.82l-4.651,0.82l-4.656,0.259h-10.35l-5.442-0.259l-5.705-0.82l-6.293-0.82l-16.324-1.901l-16.066-1.641
				l-16.056-1.368l-15.855-1.089l-15.48-0.812l-15.534-0.562l-15.539-0.259l-15.275-0.274l-15.006,0.274l-14.947,0.259
				l-15.006,0.562l-14.693,0.812l-14.425,1.089l-14.478,1.368l-14.166,1.641l-14.157,1.901v143.588l19.867-2.188l19.339-2.165
				l19.08-1.636l19.075-1.373l18.279-0.82l18.24-0.82l17.692-0.259h17.439l17.164,0.551l16.921,0.528l16.325,1.109l16.115,1.612
				l15.798,1.631l15.538,2.198l14.952,2.432l14.738,2.741l11.683,2.173l10.937,2.721l10.352,2.721l9.515,3.009l8.984,3.541
				l8.191,3.541l3.805,1.899l3.541,1.906l3.533,1.93l3.278,2.158l3.014,2.203l2.96,2.16l2.75,2.461l2.433,2.188l2.481,2.433
				l2.16,2.462l1.899,2.451l1.909,2.721l1.632,2.721l1.383,2.721l1.367,2.721l0.792,3.009l1.114,2.721l0.528,2.994l0.531,3.009
				l0.576,3.274v2.432l0.264,2.721l-0.264,2.75v2.427l-0.576,2.721l-0.531,2.452l-0.792,2.75l-0.85,2.433l-1.05,2.75l-1.377,2.432
				l-1.373,2.721l-1.641,2.74l-3.541,5.452l-4.333,5.431l-2.741,3.283l-3.283,2.98l-3.278,3.014l-3.531,2.721l-3.541,2.721
				l-3.8,2.731l-3.815,2.451l-4.123,2.462l-4.069,2.429l-4.323,2.193l-4.649,2.188l-4.651,2.173l-4.914,1.9l-5.133,1.901
				l-5.168,1.641l-5.505,1.642l-5.442,1.632l-5.701,1.377l-5.715,1.343l-6.281,1.08l-12.525,2.197l-13.105,1.906l-13.898,1.338
				l-14.683,1.109l-15.275,0.561h-24.521l-8.456-0.288l-8.451-0.533l-8.392-0.553l-8.196-0.82l-8.192-1.089l-7.874-1.109
				l-8.192-1.343l-7.874-1.636l-7.923-1.906l-7.611-1.899l-7.654-2.188l-7.614-2.175l-7.611-2.74l-7.395-2.731l-7.343-2.72
				l-7.342-3.249l-7.352-3.273l-7.073-3.273l-7.147-3.81l-6.76-3.835l-6.814-4.059l-6.809-4.103l-6.824-4.353l-6.556-4.631
				l-6.55-4.908l-6.491-4.914l-6.556-5.183l-6.291-5.441l-6.233-5.442l-6.024-5.735l-6.233-5.989l-5.759-5.974l-5.706-6.291
				l-5.71-6.263l-5.442-6.263l-5.182-6.253l-4.909-6.555l-4.914-6.531l-4.651-6.55l-4.332-6.814l-4.382-6.521l-4.074-7.083
				l-3.8-6.814l-7.083-14.167l-3.274-7.083l-3.278-7.37l-3.014-7.083l-2.701-7.635L197.079,617l-2.428-7.634l-2.163-7.636
				l-1.96-7.611l-1.9-7.903l-1.583-7.923l-1.367-7.893l-1.383-8.163l-0.84-8.172l-1.059-8.187l-0.581-8.162l-0.528-8.451
				l-0.264-8.466v-16.877l0.264-8.45l0.528-8.437l0.581-8.181l1.059-8.163l0.84-8.162l1.383-7.903l1.367-8.197l1.583-7.631
				l1.9-7.903l1.96-7.606l2.163-7.923l2.428-7.352l2.481-7.634l2.701-7.342l3.014-7.372l3.278-7.342l3.274-7.083l3.541-7.083
				l3.541-7.073l3.8-7.118l4.074-6.79l4.382-6.814l4.332-6.55l4.651-6.814l4.914-6.521l4.909-6.555l5.182-6.263l5.442-6.262
				l5.71-6.263l5.706-6.263l5.759-6.002l6.233-5.989l6.288-5.735l6.238-5.442l6.286-5.441l6.551-5.183l6.501-4.914l6.555-4.889
				l6.55-4.641l13.629-8.724l6.819-4.074l7.083-3.82l7.073-3.81l7.083-3.542l7.083-3.272l7.342-3.009l7.347-2.995l7.4-2.721
				l7.606-2.72l7.352-2.188l7.923-2.175l7.601-2.158l7.933-1.671l7.874-1.612l7.923-1.373l7.874-1.338l8.192-1.119l8.455-0.81
				l8.133-0.533l8.451-0.556l8.456-0.264l8.456-0.259l8.46,0.259l8.456,0.264l8.451,0.556l8.133,0.533l8.196,0.81l8.192,1.119
				l7.874,1.338l7.923,1.373l7.874,1.612l7.923,1.671l7.611,2.158l7.664,2.175l7.601,2.188l7.347,2.72l7.659,2.721l7.083,2.995
				l7.347,3.009l7.083,3.272l7.083,3.542l7.083,3.81l6.809,3.82l7.073,4.074l6.565,4.362l6.81,4.362l6.506,4.641l6.55,4.889
				l6.283,4.914l6.501,5.183l6.281,5.441l6.024,5.442l6.242,5.735l6.022,5.989l5.706,6.002l5.71,5.975l5.701,6.281l5.495,6.263
				l5.183,6.262l4.861,6.55l4.908,6.536l4.656,6.54l4.333,6.824l4.118,6.785l4.074,6.819l4.069,7.073l3.541,6.824l3.531,7.372
				l3.283,7.083l3.273,7.347l3.009,7.362l2.701,7.352l2.482,7.634l2.432,7.611l2.168,7.634l1.954,7.636l1.9,7.898l1.637,7.894
				l1.324,7.903l1.108,8.197l1.109,8.162l0.792,8.163l0.84,8.181l0.533,8.437l0.268,8.45v8.456l-1.641,35.952l7.083,4.362
				l7.083,4.094l7.073,4.631l6.824,4.621l6.541,4.914l6.565,4.909l6.55,4.894l6.232,5.461l6.283,5.451l6.242,5.442l5.755,5.735
				l5.969,5.7l5.715,6.263l5.442,5.994l5.491,6.551L940.116,633.886z M940.116,633.886"/>
		</g>
	</g>
</g>
<g id="图层_10" style="display:none;">
	<g style="display:inline;">
		<g>
			<defs>
				<rect id="SVGID_13_" x="65.025" y="64.203" width="894.265" height="895.618"/>
			</defs>
			<clipPath id="SVGID_14_">
				<use xlink:href="#SVGID_13_"  style="overflow:visible;"/>
			</clipPath>
			<path style="clip-path:url(#SVGID_14_);fill:#C52A27;" d="M64.875,511.559c0-246.925,200.131-447.056,447.056-447.056
				c246.93,0,447.061,200.131,447.061,447.056c0,246.93-200.131,447.061-447.061,447.061
				C265.006,958.62,64.875,758.489,64.875,511.559L64.875,511.559z M64.875,511.559"/>
		</g>
		<path style="fill:#FFFFFF;" d="M575.969,276.358c2.207,11.621,15.032,17.435,23.552,23.552
			c40.384,8.915,83.578,15.228,126.868,12.527c6.92,2.505,15.433,4.306,18.644,12.527c-1.605,26.957-5.412,54.717-31.366,70.448
			c-16.637,8.016-53.416-12.126-53.116,17.239c13.03,32.765,53.116,13.926,76.663,28.058c10.726,7.115-1.101,21.247,4.711,31.366
			c0,7.418-3.508,14.431-9.419,18.839c-6.117,2.505-13.731,2.505-20.346,4.512c-8.514,11.426-31.866,11.426-25.151,29.864
			c1.302,8.92,11.024,16.837,18.839,20.341c10.823,4.012,25.357-1.399,34.473,3.108c3.91,21.55,1.704,43.795-6.312,64.141
			c-13.025,8.915-21.545,25.552-40.785,23.547c-7.218,4.511-17.44,9.419-20.146,18.844c0,16.832,19.744,12.125,28.258,21.946
			c12.331,1.801,22.451-6.914,34.479-1.404c17.938,17.039,5.412,44.798,4.706,65.741l-14.132,17.034
			c-12.722,5.113-26.052,8.519-39.283,12.527v3.108h-18.639c0.699-9.019-9.42-5.212-14.132-8.016
			c-11.422,5.613-20.841-2.906-31.366-4.511c-54.316,7.819-91.197-26.655-145.513-18.839c-19.738-14.631-48.903-10.824-73.555-9.22
			c-24.252,17.239-54.017,21.046-82.981,26.658c-16.334,2.707-20.341-17.439-31.366-23.55c-0.699-16.535-21.247-26.86-12.527-45.499
			c13.232-15.633,11.926-37.38,25.054-53.111c-0.699-17.239,3.308-36.382-9.218-48.605c3.606-23.052,5.108-46.902,11.025-69.049
			c7.213-8.015,15.933-24.153,29.761-15.633c15.433,24.652,63.035-4.908,63.941,31.366c0.499,28.263-2.907,59.028-29.766,71.955
			c-13.931,23.15-50.405-8.117-54.717,25.054c-4.511,14.631,12.727,21.745,20.341,29.766c15.737-5.613,32.972-8.021,45.499-21.952
			c18.139-0.899,24.451-20.341,42.189-21.946c13.731,5.812,30.667,7.418,39.186,21.946c8.117,2.007,9.924,9.023,17.238,12.527
			c19.74,15.737,44.793-9.919,61.029,14.133c10.32,2.304,21.046,2.304,31.366,0c8.119-4.908,15.032-13.027,12.527-23.552
			c1.404-6.009-1.8-10.119-6.312-13.726c-6.312-4.312-12.527,1.101-18.839,1.399c-24.451,2.006-42.19-12.727-65.643-14.126
			c-16.534-10.526-36.274-20.646-39.181-42.19c-7.819-6.518-4.012-17.738-9.419-25.054c-1.404-9.425,7.614-15.635,14.126-20.444
			c19.344-5.613,33.671,10.72,50.01,3.302c10.521-7.614,27.158-2.901,32.971-18.839c6.009-9.018,2.707-21.946-3.107-29.761
			c-4.81-3.107-10.927-3.107-15.737,0c-11.22,11.926-30.265,9.821-45.297,7.815c-8.112-3.607-17.738-6.312-21.946-15.635
			c2.408-14.63,0-30.965,14.132-40.785c1.404-10.727-8.117-18.14-15.634-23.552c-20.342,7.619-32.972-34.576-48.703-6.112
			c-1.302,20.341,9.018,37.478,3.107,58.024c-18.341,11.22-38.584-1.106-57.824-1.605c-19.945-9.218-43.995-22.846-53.318-45.297
			c4.214-16.637-8.112-32.467-1.6-50.005c-9.419-21.75,9.919-35.678,10.824-54.722c10.72-9.619,22.245-21.344,37.678-14.327
			c9.218,8.72,22.25,7.814,29.766,20.341c15.731,3.308,30.465,13.433,47.097,9.42c13.032-5.212,17.538-21.546,32.77-21.947
			c23.053,0,53.616,9.42,68.849-14.126c8.016-3.611,18.639-7.418,21.947-15.737h32.77V276.358z M575.969,276.358"/>
	</g>
</g>
<g id="图层_11" style="display:none;">
	<g style="display:inline;">
		<path style="fill:#E50012;" d="M511.475,150.861c199.017,0,361.32,162.284,361.32,361.295
			c0,199.017-162.312,361.291-361.32,361.291c-199.002,0-361.285-162.332-361.285-361.3
			C150.189,313.184,312.511,150.861,511.475,150.861L511.475,150.861z M511.475,65.496C265.49,65.486,64.833,266.168,64.833,512.147
			c0,245.983,200.647,446.665,446.631,446.665s446.666-200.672,446.666-446.665c0-245.989-200.623-446.661-446.656-446.661V65.496z
			 M313.271,298.483v90.041h40.655v-90.041H313.271z M495.222,733.328l41.196-0.141l0.093-157.378h23.707v61.318h32.636v-61.23
			h24.116l-0.228,88.018l-56.373,0.141v69.273h89.035l-0.38-265.457l72.129,0.218v-36.583h-72.081l0.219-133.062h-39.523v67.248
			h-81.661v48.831l89.053-0.228l0.253,133.777l-80.086,0.273l-120.405-0.273l0.218-133.777l89.055,0.228v-48.831h-88.407v-67.21
			h-32.656l0.248,133.062h-72.109v36.593l72.149-0.218l-0.41,265.457h89.065v-69.283l-56.373-0.136l-0.234-88.017h24.121v61.229
			h32.638v-61.323h23.717l0.049,157.34l-2.721,0.141H495.222z M313.271,492.459v240.87h40.655v-240.87H313.271z M675.641,298.483
			v90.041h48.126v-90.041H675.641z M675.641,492.459v240.87h48.126v-240.87H675.641z M447.257,298.483v41.858h57.045v-41.858
			H447.257z M528.914,298.483v41.858h49.4v-41.858H528.914z M437.321,434.694v90.041h37.541v-90.041H437.321z M497.582,434.694
			v90.041h37.532v-90.041H497.582z M554.676,434.694v90.041h37.541v-90.041H554.676z M554.676,434.694"/>
	</g>
</g>
<g id="图层_12" style="display:none;">
	<g style="display:inline;">
		<g>
			<defs>
				<rect id="SVGID_15_" x="64.027" y="64.12" width="894.139" height="895.388"/>
			</defs>
			<clipPath id="SVGID_16_">
				<use xlink:href="#SVGID_15_"  style="overflow:visible;"/>
			</clipPath>
			<path style="clip-path:url(#SVGID_16_);fill:#A30000;" d="M512.422,958.31c-248.401,0-448.545-200.081-448.545-445.056
				c-0.235-119.032,46.945-233.257,131.117-317.429C279.16,111.658,393.39,64.48,512.422,64.718
				c244.977,0,445.046,200.135,445.046,448.536c0,244.975-200.08,445.046-445.046,445.046V958.31z M429.588,161.36
				c-158.693,37.973-275.982,179.399-275.982,351.894c0,117.313,58.635,224.289,148.335,289.77
				c-37.974-62.081-51.751-189.743-51.751-189.743c-6.875-210.428,141.43-275.996,141.43-275.996
				c75.936-44.838,120.774,3.483,120.774,3.483l31.044,30.977c27.586,31.074,69.023,17.305,69.023,17.305
				c79.341-37.967,34.494-127.706,34.494-127.706C605.565,157.877,498.624,154.427,429.588,161.36L429.588,161.36z M574.472,865.152
				c169.094-27.586,296.765-175.92,296.765-351.898c0-113.831-55.21-217.327-137.99-282.896
				C812.583,392.51,764.292,530.5,764.292,530.5C719.455,678.894,605.6,699.566,605.6,699.566
				c-79.371,20.671-106.918-37.974-106.918-37.974c-20.765-27.547-51.839-27.547-51.839-27.547
				c-65.548-3.425-75.882,55.225-75.882,55.225c0,6.918-3.453,17.248-3.453,20.677c6.883,65.568,44.832,103.497,44.832,103.497
				c48.322,48.322,124.204,55.225,162.181,51.751L574.472,865.152z M415.81,513.254l100.057,100.072L615.91,513.254L515.867,409.766
				L415.81,513.254z M415.81,513.254"/>
		</g>
	</g>
</g>
<g id="图层_13" style="display:none;">
	<g style="display:inline;">
		<g>
			<defs>
				<rect id="SVGID_17_" x="63.992" y="241.818" width="896.045" height="540.867"/>
			</defs>
			<clipPath id="SVGID_18_">
				<use xlink:href="#SVGID_17_"  style="overflow:visible;"/>
			</clipPath>
			<path style="clip-path:url(#SVGID_18_);fill:#004098;" d="M568.658,253.697c0,0-220.485-63.995-431.633,104.784
				c0,0-171.049,152.369,10.389,311.699c0,0,160.923,154.61,496.972,99.384c0,0,282.414-29.998,312.388-233.472
				c0,0,45.748-176.693-241.391-216.129c0,0-296.603-53.634-457.535,162.49c0,0,195.642,108.856,263.475,145.132L740.63,506.114
				l-96.244-48.908L524.491,518.73l-97.811-53.634c0,0,94.653-86.767,241.386-59.996c0,0,255.58,9.467,164.077,181.42
				c0,0-88.355,138.829-457.531,89.921c0,0-347.089-72.564-141.994-309.2c0,0,81.997-97.801,336.049-113.582L568.658,253.697z
				 M568.658,253.697"/>
		</g>
	</g>
</g>
<g id="图层_14" style="display:none;">
	<g style="display:inline;">
		<path style="fill:#BC0015;" d="M510.441,433.144c-35.738,71.616-75.87,140.955-120.175,207.613
			c-113.721,6.818-224.861,23.94-325.865,51.451C208.78,534.532,328.196,328.975,391.226,125.024h0.218
			C418.858,226.158,459.686,331.05,510.441,433.144L510.441,433.144z M510.441,433.144"/>
		<path style="fill:#730000;" d="M390.266,640.723c80.04-4.783,160.298-4.608,240.312,0.531
			c63.468,95.635,134.515,183.644,209.63,257.371c-209.128-47.064-447.969-48.179-657.175-0.897l-0.199-0.342l3.463-3.458
			l3.458-3.521l3.464-3.521l3.438-3.551l3.464-3.58l3.444-3.585l3.438-3.6l3.444-3.6l3.439-3.662l3.414-3.629l3.41-3.664
			l3.414-3.692l6.761-7.442l3.381-3.741l3.351-3.741l3.385-3.799l3.351-3.799l3.352-3.833l3.352-3.829l3.351-3.882l3.322-3.858
			l3.322-3.912l3.303-3.882C309.574,755.156,351.615,699.102,390.266,640.723L390.266,640.723z M390.266,640.723"/>
		<path style="fill:#E4001F;" d="M630.588,641.264c-44.297-66.824-84.419-136.317-120.147-208.091
			c50.838-102.07,91.467-206.814,117.965-308.129c64.842,204.71,184.141,411.773,330.283,568.306l-0.142,0.248
			c-101.641-27.443-213.478-44.974-327.988-52.344L630.588,641.264z M630.588,641.264"/>
		<path style="fill:#BC0015;" d="M630.588,641.264c114.501,7.403,226.381,24.939,327.993,52.344L840.218,898.595
			c-75.124-73.696-146.191-161.705-209.63-257.369V641.264z M630.588,641.264"/>
		<path style="fill:#E4001F;" d="M390.266,640.723c-63.044,94.852-133.502,182.5-207.424,256.645L64.401,692.218
			c101.003-27.549,212.124-44.632,325.865-51.471V640.723z M390.266,640.723"/>
		<path style="fill:#730000;" d="M628.406,125.024c-26.469,101.272-67.097,206.08-117.965,308.086
			c-50.755-102.06-91.583-206.951-118.997-308.086H628.406z M628.406,125.024"/>
	</g>
</g>
<g id="图层_15" style="display:none;">
	<g style="display:inline;">
		<g>
			<defs>
				<rect id="SVGID_19_" x="63.333" y="150.273" width="897.036" height="723.155"/>
			</defs>
			<clipPath id="SVGID_20_">
				<use xlink:href="#SVGID_19_"  style="overflow:visible;"/>
			</clipPath>
			<path style="clip-path:url(#SVGID_20_);fill:#024770;" d="M140.112,468.186c-50.374,0.44-72.717,27.216-75.909,78.681
				c-1.549,24.977-0.552,50.111-0.572,75.176v247.95c5.777,1.28,8.169,2.634,10.059,2.121
				c116.499-31.59,232.978-63.25,349.437-94.967V467.404C328.81,467.273,234.469,467.532,140.112,468.186L140.112,468.186z
				 M140.112,468.186"/>
			<path style="clip-path:url(#SVGID_20_);fill:#E66711;" d="M955.02,436.65c7.612-63.063,7.572-62.912-45.686-80.792
				c-60.908-20.446-121.807-40.932-182.701-61.447v142.2C802.112,437.212,877.752,436.65,955.02,436.65L955.02,436.65z
				 M955.02,436.65"/>
			<path style="clip-path:url(#SVGID_20_);fill:#BA2631;" d="M937.337,267.137c-59.413-35.93-118.127-73.01-177.119-109.626
				c-22.221-13.793-31.752-4.403-32.441,18.521c-0.694,22.772-1.574,45.706,0.528,68.299c0.733,7.85,8.613,19.019,15.808,21.654
				c70.243,26.135,141.036,50.794,215.225,77.141C957.455,313.655,968.145,285.736,937.337,267.137L937.337,267.137z
				 M937.337,267.137"/>
		</g>
		<path style="fill:#DA251C;" d="M476.274,210.217c-32.803-11.07-47.531-9.272-53.157,12.792
			c-1.783,7.008-2.673,15.944-2.903,27.226c-1.002,47.862,1.872,95.89-1.002,143.601c-0.708,11.882,0.533,20.133,3.876,25.799
			c5.567,9.439,17.015,11.721,35.037,11.711c80.822,0,161.629,4.116,242.461,5.083c8.68,0.103,17.381,0.123,26.027,0.191v-142.21
			C643.167,266.365,559.72,238.299,476.274,210.217L476.274,210.217z M476.274,210.217"/>
		<path style="fill:#005E78;" d="M726.643,690.665V467.356l-33.375,0.679c-90.045-0.166-180.095-0.377-270.141-0.631v309.733
			c92.939-25.359,185.849-50.795,278.733-76.301l24.792-6.608v-3.574L726.643,690.665z M726.643,690.665"/>
		<path style="fill:#45916B;" d="M931.329,468.485c-59.124,0.801-118.273,0.952-177.388-0.059h-3.172l-26.585-1.002l2.41,206.696
			v20.118c0,0,92.866-27.026,155.895-45.506c17.904-5.01,35.667-10.153,53.292-15.427c0.964-0.298,1.887-0.703,2.753-1.206
			c14.449-4.697,16.829-25.208,16.829-25.208c0.288-1.226,0.484-2.474,0.582-3.725c2.552-36.209,0.342-72.727,1.369-109.113
			C957.925,474.683,950.348,468.226,931.329,468.485L931.329,468.485z M931.329,468.485"/>
	</g>
</g>
<g id="图层_16" style="display:none;">
	<g style="display:inline;">
		<g>
			<defs>
				<rect id="SVGID_21_" x="64" y="277.04" width="896.036" height="469.767"/>
			</defs>
			<clipPath id="SVGID_22_">
				<use xlink:href="#SVGID_21_"  style="overflow:visible;"/>
			</clipPath>
			<path style="clip-path:url(#SVGID_22_);fill:#A72217;" d="M492.407,505.455l13.998,11.903l14.799-4.301
				c41.398-11.698,82.592-24.701,133.189-40.1c-32.298-29.295-56.295-51.794-81.293-73.091c-1.001-0.8-2.002-1.704-3.199-2.5h-0.102
				c-2.197-1.601-4.697-3.202-7.299-4.501l-7.5-4.6l-5.8,1.499c-0.201,0-0.401,0.103-0.601,0.103
				c-1.299,0.299-2.5,0.699-3.799,0.996l-0.6,0.2c-42.698,11.504-85.093,24.998-137.49,40.798
				C440.111,460.658,466.105,483.86,492.407,505.455L492.407,505.455z M900.176,395.965
				c-119.791-103.694-265.581-120.094-415.37-118.693l-31.497,2.1l41.096,37.2c0,0,26.697-5.401,45.997-2.602h0.099
				c39.601,6.303,80.194,7.499,119.093,16.4c50.699,11.6,98.992,31.096,132.593,74.595c28.694,37.096,28.294,76.493-0.4,112.99
				c-6.303,8.002-12.7,16-21,26.302l117.492,90.194c6.098-1.801,12.098-6.601,18.997-13.202
				C978.271,553.454,978.072,463.358,900.176,395.965L900.176,395.965z M600.197,630.549l-28.196-26.599l-44.899,2.7
				c-66.094,1.299-129.791-12.299-189.187-43.196c-91.692-47.799-103.791-109.191-34.699-188.785
				c-15.096-16.6-25.994-28.602-35.296-36.599h-0.097l-3.3-2.7l-15.503-12.597c-1.996,0-6.898,1.196-7.196,1.299
				c-8.999,2.7-18.1,6.698-18.1,6.698c-10.102,4.302-22.401,11.699-38.996,21.898c-29.099,17.796-57.296,38.898-80.796,63.495
				c-48.399,50.895-53.697,118.693-11,173.988c22.9,29.597,52.795,56.895,85.195,75.292
				c163.89,92.996,339.077,93.895,526.061,58.897c-36.395-32.595-67.896-58.595-96.893-87.294
				C604.997,634.747,602.697,632.551,600.197,630.549L600.197,630.549z M600.197,630.549"/>
		</g>
	</g>
</g>
<g id="图层_17" style="display:none;">
	<g style="display:inline;">
		<path style="fill:#F2943A;" d="M168.705,629.983c-34.851-11.078-67.917-27.139-98.169-47.687
			c11.219,70.651,39.327,137.549,81.937,195.012c0-1.437-0.077-2.873-0.077-4.32C152.366,724.854,157.837,676.875,168.705,629.983
			L168.705,629.983z M420.956,621.443c-57.619,22.54-119.876,30.656-181.348,23.656c-16.514,70.401-19.188,143.336-7.882,214.756
			c64.526,52.036,142.308,84.996,224.577,95.167c-62.924-99.688-75.985-222.944-35.347-333.608V621.443z M259.854,421.014
			c-67.947-7.628-123.982-56.699-140.511-123.042c-32.98,60.401-51.477,127.631-54.034,196.402
			c34.421,33.212,75.975,58.125,121.493,72.827C204.676,515.495,229.232,466.353,259.854,421.014L259.854,421.014z M319.144,346.097
			c14.467-15.681,29.715-30.626,45.693-44.773c20.86-42.275,8.195-93.434-29.984-121.089c-38.177-27.66-90.735-23.758-124.406,9.241
			c-33.671,32.994-38.64,85.46-11.764,124.192C225.564,352.396,276.45,366.099,319.144,346.097L319.144,346.097z M865.443,784.621
			c14.975-43.282-2.469-91.129-41.782-114.624c-39.317-23.495-89.716-16.188-120.742,17.503
			c-31.026,33.69-34.164,84.523-7.516,121.775c26.646,37.247,75.769,50.698,117.673,32.215
			C832.132,824.074,849.655,805.047,865.443,784.621L865.443,784.621z M865.443,784.621"/>
		<g>
			<defs>
				<rect id="SVGID_23_" x="64.978" y="64.428" width="894.008" height="895.205"/>
			</defs>
			<clipPath id="SVGID_24_">
				<use xlink:href="#SVGID_23_"  style="overflow:visible;"/>
			</clipPath>
			<path style="clip-path:url(#SVGID_24_);fill:#F2943A;" d="M764.59,143.382c-47.146-32.448-100.112-55.48-155.997-67.839
				c15.443,25.969,27.714,53.702,36.546,82.594C684.397,149.428,724.397,144.484,764.59,143.382L764.59,143.382z M659.495,229.124
				c6.006,57.683-1.252,115.974-21.23,170.421c100.576-39.375,213.169-34.012,309.549,14.747
				c-16.041-71.985-49.709-138.86-97.974-194.618c-63.508-7.764-127.879-4.569-190.301,9.45H659.495z M958.228,497.096
				c-120.275-85.785-284.149-75.804-393.122,23.943c-7.716,8.647-15.773,16.889-24.172,24.723
				c-103.362,117.678-103.79,293.648-0.999,411.824c62.875-3.864,124.212-21.059,179.931-50.448
				c-63.695-22.35-109.466-82.809-109.466-154.16c-0.024-77.139,53.888-143.79,129.326-159.894
				c75.44-16.105,151.867,22.726,183.341,93.151c23.421-55.198,35.455-114.551,35.381-174.513
				C958.458,506.814,958.384,501.938,958.228,497.096L958.228,497.096z M518.345,475.146
				c50.215-57.137,77.86-130.628,77.748-206.695c0-6.985-0.248-13.966-0.707-20.81c-72.452,25.828-138.766,66.377-194.783,119.091
				c-5.218,5.899-10.848,11.418-16.851,16.509c-55.217,56.402-97.832,123.875-125.03,197.969c7.843,0.59,15.759,0.892,23.753,0.907
				c78.298,0.097,153.781-29.199,211.507-82.098C501.758,491.367,509.879,483.076,518.345,475.146L518.345,475.146z M440.89,243.578
				c44.027-28.453,91.451-51.281,141.158-67.941c-12.665-40.609-33.457-78.216-61.117-110.528c-3.064-0.064-6.128-0.102-9.212-0.102
				c-62.626-0.084-124.566,13.051-181.771,38.542C390.266,123.722,434.962,178.014,440.89,243.578L440.89,243.578z M440.89,243.578"
				/>
			<path style="clip-path:url(#SVGID_24_);fill:#FED966;" d="M540.934,545.762c8.399-7.834,16.456-16.076,24.172-24.723
				c108.944-99.752,272.799-109.767,393.079-24.02c-0.872-27.841-4.345-55.535-10.371-82.726
				c-96.376-48.768-208.97-54.141-309.549-14.78c19.973-54.433,27.236-112.715,21.23-170.387
				c62.441-14.025,126.827-17.22,190.344-9.45c-25.034-28.956-53.673-54.593-85.211-76.291
				c-40.193,1.091-80.192,6.026-119.452,14.727c-8.832-28.892-21.103-56.625-36.541-82.595
				c-28.824-6.351-58.199-9.839-87.705-10.404c27.665,32.322,48.462,69.939,61.127,110.556
				c-49.709,16.66-97.131,39.488-141.16,67.942c-5.937-65.565-50.623-119.857-110.95-140.058
				c-89.58,40.038-163.563,108.345-210.606,194.452c16.538,66.333,72.574,115.389,140.511,123.012
				c-30.617,45.329-55.175,94.461-73.052,146.158c-45.518-14.703-87.072-39.615-121.493-72.828
				c-0.219,5.753-0.332,11.536-0.332,17.347c-0.005,23.636,1.846,47.233,5.548,70.577c30.252,20.543,63.319,36.608,98.169,47.686
				c-10.868,46.898-16.339,94.88-16.309,143.015c0,1.447,0,2.893,0.077,4.321c22.794,30.782,49.426,58.521,79.253,82.546
				c-11.306-71.419-8.632-144.36,7.882-214.756c61.472,7,123.724-1.12,181.348-23.656c-40.632,110.66-27.567,233.916,35.357,333.599
				c18.384,2.276,36.891,3.416,55.417,3.416c9.46,0,18.848-0.293,28.167-0.882c-102.791-118.176-102.363-294.147,0.999-411.825
				L540.934,545.762z M181.278,258.436c0.015-39.907,24.528-75.707,61.721-90.16c37.198-14.454,79.448-4.593,106.406,24.829
				c26.958,29.424,33.086,72.379,15.443,108.171c-15.978,14.146-31.226,29.087-45.694,44.773c-29.974,14.058-65.058,11.819-93-5.939
				c-27.942-17.756-44.865-48.568-44.865-81.674H181.278z M282.476,582.117c-7.979,0-15.895-0.302-23.753-0.907
				c27.198-74.094,69.813-141.567,125.03-197.969c6.002-5.091,11.633-10.61,16.851-16.509
				c56.031-52.704,122.37-93.239,194.832-119.053c0.449,6.884,0.712,13.815,0.712,20.811
				c0.082,76.057-27.578,149.538-77.802,206.655c-8.466,7.92-16.577,16.212-24.333,24.873
				C436.281,552.923,360.784,582.224,282.476,582.117L282.476,582.117z M282.476,582.117"/>
		</g>
		<path style="fill:#FED966;" d="M773.968,589.467c-43.376-0.014-84.977,17.206-115.658,47.872
			c-30.674,30.666-47.91,72.262-47.91,115.638c0,71.352,45.772,131.81,109.466,154.16c33.738-17.81,65.066-39.858,93.219-65.608
			c-41.88,18.462-90.97,5.012-117.596-32.215c-26.628-37.233-23.49-88.031,7.516-121.703c31.006-33.671,81.377-40.974,120.67-17.499
			c39.293,23.471,56.732,71.288,41.777,114.552c23.349-30.198,42.723-63.266,57.658-98.393
			C896.855,627.401,838.431,589.477,773.968,589.467L773.968,589.467z M773.968,589.467"/>
	</g>
</g>
<g id="图层_18" style="display:none;">
	<g style="display:inline;">
		<g>
			<defs>
				<rect id="SVGID_25_" x="64.151" y="83.215" width="896.036" height="857.025"/>
			</defs>
			<clipPath id="SVGID_26_">
				<use xlink:href="#SVGID_25_"  style="overflow:visible;"/>
			</clipPath>
			<path style="clip-path:url(#SVGID_26_);fill:#D8353B;" d="M67.01,325.462L312.121,83.264h341.404L907.372,322.55v320.92
				c0,0-84.651,43.779-163.372,20.381c-78.826-23.295-116.681-55.428-116.681-55.428V322.55H338.327v341.404
				c0,0,140.077-67.077,227.537-32.031c87.563,35.042,180.846,110.856,285.976,84.547c105.031-26.207,107.944-69.99,107.944-69.99
				v239.286c0,0-102.12,61.15-204.239,52.418c-102.119-8.737-136.062-56.233-212.976-72.902c-76.918-16.769-99.212-11.645-145.903,0
				c-46.691,11.649-102.119,40.871-102.119,40.871L64,672.691L67.01,325.462z M67.01,325.462"/>
		</g>
	</g>
</g>
<g id="图层_19" style="display:none;">
	<g style="display:inline;">
		<g>
			<defs>
				<rect id="SVGID_27_" x="64.111" y="135.061" width="895.704" height="754.272"/>
			</defs>
			<clipPath id="SVGID_28_">
				<use xlink:href="#SVGID_27_"  style="overflow:visible;"/>
			</clipPath>
			<path style="clip-path:url(#SVGID_28_);fill:#1D2088;" d="M417.961,379.254c-83.806-165.388-295.875-140.11-342.416,0.65
				c0,0-6.475,45.64-11.585,93.129v288.431l136.17,127.869V537.285c0,0,14.776-168.305,217.792-158.023L417.961,379.254z
				 M218.16,647.775c0,0,223.588,30.844,231.296-197.862c-3.568-214.703,272.05-228.942,346.932-74.525
				c0,0-195.306,2.564-215.863,164.463c0,0,2.575,199.791-151.625,220.343C428.9,760.192,261.857,789.108,218.16,647.775
				L218.16,647.775z M604.791,645.141c83.806,165.388,292.035,138.182,338.574-2.569c0,0,14.155-32.214,15.418-91.211V262.931
				l-136.17-127.869V487.11c0,0-14.805,168.305-217.83,158.031H604.791z M604.791,645.141"/>
		</g>
	</g>
</g>
<g id="图层_20" style="display:none;">
	<g style="display:inline;">
		<g>
			<defs>
				<rect id="SVGID_29_" x="66.952" y="64.564" width="890.173" height="895.111"/>
			</defs>
			<clipPath id="SVGID_30_">
				<use xlink:href="#SVGID_29_"  style="overflow:visible;"/>
			</clipPath>
			<path style="clip-path:url(#SVGID_30_);fill:#FFCA02;" d="M525.88,448.227c114.817,0,215.572,9.275,302.459,26.332
				c52.771,10.877,94.569,21.749,128.689,35.714L510.42,65.063L66.803,508.68c38.806-13.97,88.383-26.337,147.34-35.714
				C308.711,456.007,412.655,448.227,525.88,448.227L525.88,448.227z M525.88,448.227"/>
		</g>
		<path style="fill:#314693;" d="M510.42,958.478l443.613-445.111c-62.046-4.686-147.341-4.686-254.378,3.092
			c-113.224,7.779-190.735,18.656-235.723,32.518c-40.301,12.372-58.957,29.431-55.863,49.581c0,6.186,3.092,13.965,9.279,20.151
			l10.872,9.279c15.46,10.872,24.842,15.563,27.929,18.651c13.97,12.372,18.656,27.935,15.563,46.489
			c-6.181,24.842-55.86,51.174-147.34,77.613L510.42,958.478z M510.42,958.478"/>
	</g>
</g>
<g id="图层_21" style="display:none;">
	<g style="display:inline;">
		<g>
			<defs>
				<rect id="SVGID_31_" x="64.983" y="64.323" width="894.269" height="895.518"/>
			</defs>
			<clipPath id="SVGID_32_">
				<use xlink:href="#SVGID_31_"  style="overflow:visible;"/>
			</clipPath>
			<path style="clip-path:url(#SVGID_32_);fill:#005BAB;" d="M109.507,65.323h615.298C666.742,95.503,544.819,168.156,484.76,271.79
				c-159.398-2-208.263,2.797-208.263,2.797l-16.693,447.008c60.864-36.875,107.932-88.14,138.314-134.609
				c36.972-56.468,38.876-110.232,61.859-170.793C544.721,192.14,738.795,83.109,868.11,65.323h45.37
				c24.584,0,44.673,20.084,44.673,44.673v803.877c0,24.584-20.089,44.668-44.673,44.668H290.386
				c59.862-31.776,176.287-103.132,234.549-203.569c159.399,2.001,208.263-2.796,208.263-2.796l16.59-447.01
				c-60.76,36.876-107.83,88.141-138.21,134.615c-36.876,56.462-38.876,110.226-61.86,170.885
				c-81.046,214.162-262.032,323.29-390.747,347.976h-49.464c-24.589,0-44.673-20.089-44.673-44.673V109.996
				C64.833,85.407,84.918,65.323,109.507,65.323L109.507,65.323z M109.507,65.323"/>
		</g>
	</g>
</g>
<g id="图层_22" style="display:none;">
	<g style="display:inline;">
		<g>
			<defs>
				<rect id="SVGID_33_" x="64.192" y="63.958" width="895.45" height="895.6"/>
			</defs>
			<clipPath id="SVGID_34_">
				<use xlink:href="#SVGID_33_"  style="overflow:visible;"/>
			</clipPath>
			<path style="clip-path:url(#SVGID_34_);fill:#E41F1F;" d="M673.953,643.747c0,16.612-13.51,30.02-30.02,30.02H534.654v285.791
				h334.829c49.833,0,90.158-40.427,90.158-90.158V534.571H673.953V643.747z M643.83,349.75c16.612,0,30.02,13.51,30.02,30.119
				v109.174h285.791V154.116c0-49.731-40.427-90.158-90.158-90.158H534.654v285.689H643.83V349.75z M349.833,379.869
				c0-16.609,13.408-30.119,30.02-30.119h109.176V63.958H154.302c-49.833,0-90.163,40.427-90.163,90.158v334.927h285.793V379.869
				H349.833z M379.952,673.869c-16.609,0-30.02-13.413-30.02-30.02V534.571H64.042V869.4c0,49.731,40.427,90.158,90.158,90.158
				h334.829V673.869H379.952z M379.952,673.869"/>
		</g>
	</g>
</g>
<g id="图层_23" style="display:none;">
	<g style="display:inline;">
		<g>
			<defs>
				<rect id="SVGID_35_" x="77.232" y="64.879" width="869.378" height="895.388"/>
			</defs>
			<clipPath id="SVGID_36_">
				<use xlink:href="#SVGID_35_"  style="overflow:visible;"/>
			</clipPath>
			<path style="clip-path:url(#SVGID_36_);fill:#E4372D;" d="M486.761,895.645c0,12.646,1.751,25.628-0.579,37.866
				c-1.756,9.202-6.93,21.995-13.95,24.768c-7.027,2.769-20.758-2.126-27.187-8.243c-38.669-36.791-76.175-74.799-113.877-112.611
				c-79.834-80.088-159.548-160.283-239.139-240.58c-6.18-6.272-13.056-14.282-14.427-22.364
				c-2.384-14.034,7.036-22.68,20.835-23.59c130.917-8.646,245.519,23.021,327.174,134.274
				C468.285,743.265,486.917,807.907,486.761,895.645L486.761,895.645z M536.665,886.414
				c-2.224-192.15,140.431-336.131,332.395-335.902c14.072,0,28.421-1.723,42.115,0.559c11.318,1.882,27.574,5.98,31.093,13.785
				c3.395,7.571-3.869,23.843-11.305,31.716c-36.173,38.338-73.922,75.187-111.19,112.49
				c-77.009,77.066-154.04,154.103-231.102,231.115c-3.985,3.99-7.352,9.43-12.164,11.512c-8.385,3.615-19.435,9.245-26.102,6.399
				c-6.666-2.851-12.057-14.7-13.152-23.231C535.2,918.953,536.665,902.588,536.665,886.414L536.665,886.414z M536.665,886.414"/>
			<path style="clip-path:url(#SVGID_36_);fill:#5FB644;" d="M927.407,496.165l-0.341-0.331l-0.618,0.199L927.407,496.165z
				 M727.778,518.246c-5.771,2.029-11.43,4.385-16.939,7.045C711.39,525.053,717.336,522.192,727.778,518.246L727.778,518.246z
				 M727.778,518.246"/>
			<path style="clip-path:url(#SVGID_36_);fill:#5FB644;" d="M941.707,470.594l-0.141-0.131c-0.549-0.594-1.143-1.143-1.781-1.644
				l-27.545-25.323c-14.719-13.863-29.628-27.545-43.778-41.953c-37.04-37.75-72.468-77.091-109.95-114.384
				c-30.889-30.78-64.823-58.575-95.664-89.469c-33.584-33.672-64.585-69.898-97.722-104.027
				c-36.801-37.867-68.892-38.056-107.24-0.867c-34.669,33.623-68.361,68.264-102.49,102.443
				c-85.83,85.951-171.557,172.018-257.187,258.214l-0.059,0.067l-4.628,4.676c-1.542,1.606-2.934,3.353-4.156,5.222l-5.917,6.686
				c-0.657,0.613-1.256,1.279-1.795,1.994l-0.097,0.107c-3.392,4.658-3.879,10.817-1.261,15.946
				c2.613,5.128,7.888,8.355,13.644,8.34l15.357,0.083c35.696,2.719,71.753,1.552,107.268,5.43
				c57.331,6.267,111.852,24.602,158.191,58.736c58.138,42.85,106.051,95.824,134.834,166.6l2.579,5.483
				c1.373-6.637,3.665-13.051,6.808-19.055c40.976-77.26,67.125-108.621,138.688-156.01c17.21-11.392,34.432-23.468,53.204-32.505
				c5.513-2.666,11.167-5.016,16.942-7.045c32.486-12.277,108.383-35.039,198.671-22.213l0.618-0.199
				c6.505,1.435,13.197-1.509,16.529-7.275c3.338-5.771,2.55-13.036-1.941-17.96L941.707,470.594z M941.707,470.594"/>
		</g>
	</g>
</g>
<g id="图层_24" style="display:none;">
	<g style="display:inline;">
		<g>
			<defs>
				<rect id="SVGID_37_" x="63.984" y="261.49" width="896.702" height="501.032"/>
			</defs>
			<clipPath id="SVGID_38_">
				<use xlink:href="#SVGID_37_"  style="overflow:visible;"/>
			</clipPath>
			<path style="clip-path:url(#SVGID_38_);fill:#00908C;" d="M312.03,262.132h623.264c20.393,5.981,26.28,19.513,24.028,37.291
				L773.018,735.431c-10.241,14.067-24.72,23.444-45.387,25.887H82.135c-16.986-1.702-22.148-16.304-15.485-43.806L246.724,296.17
				c15.225-20.77,37.094-31.997,65.317-34.077L312.03,262.132z M312.03,262.132"/>
			<path style="clip-path:url(#SVGID_38_);fill:#E60012;" d="M312.664,262.132h184.297c-28.227,2.09-50.096,13.307-65.317,34.077
				L251.6,717.511c-6.703,27.468-1.55,42.055,15.451,43.762H82.729c-16.986-1.673-22.139-16.26-15.456-43.762L247.347,296.17
				C262.601,275.39,284.44,264.145,312.664,262.132L312.664,262.132z M312.664,262.132"/>
		</g>
		<path style="fill:#00508E;" d="M496.961,262.132h226.82c-28.228,2.09-50.092,13.307-65.317,34.077L478.428,717.511
			c-6.698,27.468-1.545,42.055,15.456,43.762H267.066c-16.991-1.673-22.144-16.26-15.456-43.762L431.654,296.17
			c15.22-20.77,37.089-31.997,65.317-34.077L496.961,262.132z M496.961,262.132"/>
		<path style="fill:#FFFFFF;" d="M336.117,442.608h31.995l0.363,14.381h28.557v27.875h-41.981
			c-6.865,11.584-20.27,16.25-34.411,12.762l-0.137-22.497c11.835-1.438,16.721-11.369,15.593-32.512L336.117,442.608z
			 M737.067,491.306h-23.739l-19.763-29.655c-1.727,1.006-2.193,4.524-3.92,5.51c-2.885,1.643-5.446,0.432-8.332,2.075
			l0.191,130.011c8.244,5.367,5.531,12.281,6.128,20.554c6.595-1.319,10.756,0.712,17.335-0.613
			c3.748-12.855,12.139-27.605,16.491-41.279c1.006-3.16-0.481-6.546,0.392-9.51h-26.319l0.452-25.122l31.024,0.305
			c0-5.279,0.608-15.407,0.608-20.682h-32.084v-25.628l93.211,1.521l-0.299,24.175l-30.72,1.065l-0.613,20.834l29.356-0.451
			l0.147,22.811l-31.049,0.432c-2.772,0-1.006,6.088-2.713,8.69v2.011c3.959,0.481,8.734-1.496,12.36,1.526
			c3.336,2.782,1.266,9.725,4.018,14.317c4.803,7.969,6.291,18.514,19.989,19.922l-0.191,29.479h-20.347
			c-9.809-12.831-19.721-20.246-23.739-39.621l-3.949,2.011c-4.357,15.937-11.605,27.521-21.747,37.56h-29.64
			c-1.124-2.541,0.574-7.727,0.107-8.832c-0.76-1.84-3.733,1.143-8.037-1.006c-1.276,7.184,1.065,6.031-2.1,9.888
			c-9.617-0.089-18.419,0.314-26.53-1.001c-5.024-0.815,0.294-7.336-4.784-8.273c-12.963-2.39-38.526-0.555-57.524-0.604v-25.784
			c7.182-1.276,6.024,1.526,9.887-1.629V447.814c8.562,0.663,17.133,0.103,25.696,0.766c0.662,3.297-0.506,8.719,0.147,12.055
			c1.639-1.094,6.51,2.282,6.703,0.221c1.187-12.507,26.721-15.681,51.088-13.223c5.235,0.535-0.462-4.372,5.308-4.651
			c9.465-0.461,19.523-1.619,29.662-1.006c4.484,10.221,6.893,17.423,17.796,21.747v27.673L737.067,491.306z M762.758,443.864
			h27.678v3.949c6.339,17.247-9.809,33.013-18.09,42.428l-23.263,0.152l-0.172-26.28c10.049-1.859,10.471-3.645,13.837-10.338
			v-9.892L762.758,443.864z M413.062,445.875h22.11l0.731,15.814c15.828-15.622,37.501-17.29,77.937-14.567l0.201,82.882
			c0,11.266-10.186,15.667-11.241,17.202l-70.091-0.691l0.319,59.616c1.953,3.468,4.391,6.152,7.547,6.132l20.098-0.132l-0.3,27.644
			l-43.138-0.172c-3.817-0.481-5.024-3.577-5.024-7.856l0.883-185.966L413.062,445.875z M632.516,470.693
			c-4.754,10.049-5.132,21.104-4.793,37.816c11.599-1.237,18.09-5.325,24.342-11.86c-0.667-8.557,0.539-17.079-0.113-25.622
			C646.024,471.027,638.449,470.693,632.516,470.693L632.516,470.693z M438.263,474.894v25.024c2.011-2.012,4.852-2.836,6.834-4.813
			c16.3-13.797,22.782-6.59,36.668-10.329v-9.892L438.263,474.894z M318.684,505.182h81.052v21.747h-31.623v23.827h29.656v25.593
			h-13.886c-6.355,12.261-16.653,26.647-13.842,41.509h21.747v23.729l-37.56,2.007c-18.882-10.829-17.085-36.898-15.819-67.216
			h-21.732v-25.662h21.742V526.89h-19.775v-21.747L318.684,505.182z M481.774,526.036l0.496-11.82l-42.207,0.181v11.909l41.692-0.27
			H481.774z M627.482,523.019v33.547c8.563-2.012,16.079-3.95,24.612-5.933v-27.703L627.482,523.019z M497.741,554.553h19.549
			c-0.662,9.225-0.191,20.028-0.854,29.253c-7.63,3.194-16.731,2.841-29.204,2.6v6.154c3.106,9.774,1.006,18.929,10.923,22.821
			c4.189-4.283,9.048-3.489,18.09-3.508c-0.662,9.225,0.25,18.448-0.402,27.673c-16.388,0.402-29.435,1.688-37.07-3.375
			c-20.288-13.454-15.323-47.232-24.892-77.677c0.663-1.315,2.012-2.635,2.655-3.95h21.741c2.012,5.274,1.933,10.991,3.911,16.261
			c8.925-0.422,10.431-1.85,15.598-4.401v-11.85H497.741z M629.102,572.349v31.634h21.784c-0.662-10.54,0-20.55-0.623-31.088
			c-6.594,0-14.538-0.545-21.104-0.545H629.102z M629.102,572.349"/>
	</g>
</g>
<g id="图层_25" style="display:none;">
	<g style="display:inline;">
		<g>
			<defs>
				<rect id="SVGID_39_" x="66.816" y="64.305" width="890.543" height="895.37"/>
			</defs>
			<clipPath id="SVGID_40_">
				<use xlink:href="#SVGID_39_"  style="overflow:visible;"/>
			</clipPath>
			<path style="clip-path:url(#SVGID_40_);fill:#DFB711;" d="M670.047,481.19l-80.611,84.089l197.25,188.988l80.611-83.992
				L670.047,481.19z M464.838,445.858l80.611-84.09L336.364,161.336l-80.514,83.992L464.838,445.858z M576.7,578.517l-80.509,84.095
				l197.245,189.086l80.611-84.095L576.7,578.517z M483.45,675.849l-78.419,81.802l63.395,60.907l-12.741,13.236L202.013,588.571
				l12.736-13.237l65.684,62.895l78.419-81.802L149.766,355.995L71.842,437.3l80.907,77.628l-86.082,89.664L435.78,958.481
				l85.985-89.766l81.009,77.525l77.924-81.305L483.45,675.849z M558.191,348.434l74.241-77.428l-65.684-62.894l12.736-13.237
				l253.675,243.127l-12.736,13.334l-63.395-60.805l-74.241,77.423l197.245,189.085l76.529-79.911l-80.907-77.526l77.526-80.912
				L584.067,64.902l-77.525,80.908l-80.912-77.622l-76.53,79.814L558.191,348.434z M371.593,543.087l80.509-83.992L243.113,258.668
				l-80.611,84.09L371.593,543.087z M371.593,543.087"/>
		</g>
	</g>
</g>
<g id="图层_26" style="display:none;">
	<g style="display:inline;">
		<g>
			<defs>
				<rect id="SVGID_41_" x="64.62" y="64.295" width="895.163" height="895.213"/>
			</defs>
			<clipPath id="SVGID_42_">
				<use xlink:href="#SVGID_41_"  style="overflow:visible;"/>
			</clipPath>
			<path style="clip-path:url(#SVGID_42_);fill:#E46214;" d="M491.381,64.959c225.778-3.502,366.227,118.639,432.051,275.794
				c22.805,54.619,53.119,158.659,23.005,228.581C899.42,678.171,728.364,751.898,590.415,772.207
				c81.729-119.642,114.337-285.802,44.513-444.257c-10.301-23.309-24.706-65.023-45.915-77.127
				c-24.51-10.804-56.821-8.005-86.129-12.905c-74.327-12.304-177.562-15.607-255.489-2.901c-33.014,4.8-66.024,9.505-99.033,14.306
				c0.498-1.402,0.997-2.901,1.397-4.303c21.511-23.309,43.116-46.716,64.623-70.024c36.316-28.913,76.228-56.52,122.044-75.725
				c30.108-12.607,64.525-21.511,99.035-28.614C454.063,68.759,472.674,66.858,491.381,64.959L491.381,64.959z M491.381,64.959"/>
			<path style="clip-path:url(#SVGID_42_);fill:#E46214;" d="M428.157,249.325h4.303
				c-81.727,119.642-114.341,285.799-44.517,444.252c10.306,23.309,24.71,65.023,45.919,77.127l73.224,11.405
				c104.338,17.809,274.397,16.407,367.429-11.405c-6.502,15.405-20.408,25.009-30.113,37.118
				c-70.821,87.828-238.082,180.063-414.843,141.446c-81.23-17.706-145.652-49.617-200.969-92.831
				c-96.635-75.529-237.188-308.51-119.045-455.759c51.917-64.725,146.853-103.938,235.385-131.447
				C372.639,262.631,400.447,255.923,428.157,249.325L428.157,249.325z M428.157,249.325"/>
		</g>
		<path style="fill:#E46214;" d="M413.854,403.577c41.513,0.899,86.93,12.704,133.445,5.701c21.009-1.402,42.115-2.901,63.122-4.299
			l8.602,8.602c-2.403,34.71-4.802,69.522-7.204,104.236c1.904,30.508,3.805,60.919,5.705,91.433
			c-2.901,2.398-5.705,4.802-8.602,7.101c-20.11-1.402-40.214-2.901-60.324-4.303c-45.416,1.402-90.931,2.901-136.346,4.303
			c-2.403-2.901-4.802-5.705-7.205-8.601l5.706-88.532c5.602-37.713-11.904-79.53-4.304-111.44
			C409.048,406.377,411.451,404.979,413.854,403.577L413.854,403.577z M413.854,403.577"/>
	</g>
</g>
<g id="图层_27" style="display:none;">
	<g style="display:inline;">
		<g>
			<defs>
				<rect id="SVGID_43_" x="64.167" y="314.873" width="896.036" height="394.772"/>
			</defs>
			<clipPath id="SVGID_44_">
				<use xlink:href="#SVGID_43_"  style="overflow:visible;"/>
			</clipPath>
			<path style="clip-path:url(#SVGID_44_);fill:#E6A400;" d="M64.167,315.944h201.138c0,0,36.565,0,43.883,11.001h-36.574v10.999
				h58.501c0,0,11,7.309,11,10.995H276.27v11.001h73.135c0,0,7.318,3.662,7.318,14.628H129.992v11h230.384v11H126.33v11h234.046
				c0,0,0,7.308-3.661,10.999l-230.385,3.447v11h226.738c0,0,0,11-7.309,11H122.683v11H338.44c0,0,0,10.994-7.324,14.628H126.33
				v10.999h190.168c0,0-3.657,14.629-32.908,10.995h-36.575v11h58.516c0,0,25.599,0,29.257,11l-84.105,3.662v10.994h98.733
				c0,0,11,7.309,11,11H129.992v11l234.041-3.662c0,0,11,7.31,11,11H130.051v11h248.615c0,0,3.657,3.662,0,11l-248.674,3.656v11
				h248.674c0,0,3.657,7.319,0,11H129.992v18.29h248.674c0,0,3.657,7.318-3.661,11H130.022v10.994h237.673c0,0,0,11-7.309,11H276.27
				v11h73.135c0,0-3.657,11-11,11H276.27v18.29h43.889c0,0-7.319,14.628-62.169,10.995H71.485V315.944H64.167z M64.167,315.944"/>
			<path style="clip-path:url(#SVGID_44_);fill:#6A1585;" d="M389.632,568.265c0,0-7.309-51.198,54.859-62.163
				c0,0,109.7-21.937,113.362,47.535l3.656,127.988l7.289,21.952h-58.491l-3.662-18.29c0,0-29.255,29.255-73.135,18.29
				c0,0-51.198-3.662-51.198-58.517c0,0-3.657-36.569,32.908-47.535c0,0,54.86-14.633,73.135-14.633c0,0,36.57-7.318,7.318-32.908
				c0,0-47.535-10.995-47.535,21.942l-58.516-3.662H389.632z M576.142,509.758h54.855V531.7c0,0,29.255-29.26,51.198-29.26
				c0,0,58.516-11,69.483,54.86v146.278h-54.884V571.928c0,0-14.628-36.57-54.86-14.628c0,0-18.285,7.318-14.628,51.193v95.086
				h-54.825L576.142,509.758z M769.957,432.967h51.198l3.627,146.268l62.168-80.453h62.164l-54.855,76.792l65.825,124.331
				l-62.168,3.662l-43.883-80.453l-25.599,36.565v43.888h-54.825l-3.662-270.611L769.957,432.967z M502.973,612.153v25.599
				c0,0-7.308,21.937-25.593,25.598c0,0-32.908,21.937-43.889-7.308c0,0-3.661-14.633,11-21.942
				c0-3.657,54.855-14.628,58.507-21.937L502.973,612.153z M502.973,612.153"/>
		</g>
	</g>
</g>
<g id="图层_28" style="display:none;">
	<g style="display:inline;">
		<g>
			<defs>
				<rect id="SVGID_45_" x="85.476" y="63.811" width="853.308" height="896.032"/>
			</defs>
			<clipPath id="SVGID_46_">
				<use xlink:href="#SVGID_45_"  style="overflow:visible;"/>
			</clipPath>
			<path style="clip-path:url(#SVGID_46_);fill:#003B90;" d="M479.885,95.567c0,0,75.958-58.645,206.575-15.998
				c0,0,43.985,15.998,94.618,61.307l157.279,165.266l-83.964,83.955l-239.91-243.925c0,0-39.993-49.309-134.607-50.643
				L479.885,95.567z M826.406,419.408l-98.625,95.967c0,0-15.998,22.657-29.325,1.333L517.191,339.453
				c0,0-15.993-21.323-27.981-2.662L306.616,523.371c0,0-11.998,18.661,2.706,26.629l178.55,178.611c0,0,14.631,23.986,27.986,5.326
				l185.265-186.581c0,0,5.325-15.998,34.645-11.998h189.233c0,0,8.002,191.915-138.608,311.867c0,0-190.591,190.575-451.809,73.3
				c0,0-251.898-87.966-249.235-414.478c0,0,6.662-218.567,205.25-334.514c0,0,145.271-107.955,261.223-27.986l274.573,275.868
				L826.406,419.408z M826.406,419.408"/>
		</g>
	</g>
</g>
<g id="图层_29" style="display:none;">
	<g style="display:inline;">
		<g>
			<defs>
				<rect id="SVGID_47_" x="64.067" y="153.49" width="896.036" height="717.049"/>
			</defs>
			<clipPath id="SVGID_48_">
				<use xlink:href="#SVGID_47_"  style="overflow:visible;"/>
			</clipPath>
			<path style="clip-path:url(#SVGID_48_);fill:#1D2088;" d="M502.505,350.5l87.46,47.064l-83.41,51.138l-87.455-44.41
				l83.405-53.831V350.5z M506.514,293.984L701.631,402.98l-87.455,53.821c0,0,216.605,24.222,295.992,125.166
				c0,0,119.466,171.164-159.023,258.634c0,0-539.235,131.61-687.229-168.474l126.466-4.005c0,0,98.191,185.163,305.404,162.286
				c0,0,364.594-12.908,302.701-213.412c0,0-73.994-134.558-322.899-131.875l-153.391-86.178l184.355-104.914L506.514,293.984z
				 M506.514,293.984"/>
			<path style="clip-path:url(#SVGID_48_);fill:#5AA572;" d="M428.08,619.786l87.446-48.394l88.799,48.443l-91.494,48.448
				l-84.76-48.448L428.08,619.786z M532.218,155.891c136.372,9.426,361.396,42.42,427.562,202.622H824.655
				c-47.465-208.596-530.492-238.518-602.678-31.164c-37.099,95.057,101.13,204.069,200.706,202.728
				c20.706-0.278,53.831-11.627,85.249-4.405l175.745,93.375l-175.92,103.135L315.5,613.04l88.324-51.959
				c-143.969-15.01-349.53-94.007-322.135-228.535c34.436-169.023,314.127-186.066,450.499-176.645L532.218,155.891z
				 M532.218,155.891"/>
		</g>
	</g>
</g>
<g id="图层_30" style="display:none;">
	<g style="display:inline;">
		<g>
			<defs>
				<rect id="SVGID_49_" x="64.292" y="73.973" width="895.361" height="876.477"/>
			</defs>
			<clipPath id="SVGID_50_">
				<use xlink:href="#SVGID_49_"  style="overflow:visible;"/>
			</clipPath>
			<path style="clip-path:url(#SVGID_50_);fill:#BA893C;" d="M512.042,949.252c3.069-107.841,81.935-194.752,178.134-194.781
				c-98.132-0.059-178.154-90.394-178.247-201.192c-0.077,110.767-80.109,201.133-178.193,201.192
				c-0.077-2.167-0.107-4.338-0.107-6.513c0-110.91,80.066-201.323,178.242-201.358c0.059,1.796,0.094,3.621,0.094,5.479
				c0-1.859,0.029-3.683,0.098-5.479c98.18,0.064,178.242,90.497,178.242,201.358c0,2.171-0.03,4.343-0.089,6.513
				c0.059,2.137,0.089,4.308,0.089,6.473c0,85.843-48.008,159.44-115.281,188.307h384.532L735.74,511.522L511.93,73.773
				l-223.814,437.73L64.292,949.252h384.56c-67.253-28.867-115.261-102.464-115.261-188.307c0-2.166,0-4.336,0.107-6.473
				c96.234,0,175.056,86.93,178.114,194.781H512.042z M512.042,949.252"/>
		</g>
	</g>
</g>
<g id="图层_31" style="display:none;">
	<g style="display:inline;">
		<path style="fill:#EA5504;" d="M372.103,670.127l0.191-0.239h-0.191l-0.161,0.229L372.103,670.127z M372.103,670.127"/>
		<path style="fill:#EA5504;" d="M378.042,658.805l-2.471-1.24l-2.331-1.392l-2.207-1.499l-2.091-1.632l-2.003-1.758l-1.832-1.88
			l-2.598-3.062l-0.952-0.781l-1.002-0.479l-1.099-0.112l-1.089,0.249l-1.002,0.591l-1.002,0.869
			c-1.192,1.485-2.398,2.955-3.628,4.371l-0.551,0.655l-1.71,1.787l-1.802,1.729l-1.861,1.642l-1.998,1.602l-5.24,3.849l1.318-6.149
			h0.089l0.273-2.452v-1.538l-0.19-1.47l-0.151-0.44l-0.2-0.41l-0.318-0.449l-0.42-0.381l-0.484-0.283l-1.158-0.376l-1.304-0.171
			H326.67l-1.23,0.079l-1.104,0.278l-0.938,0.445l-0.753,0.639l-0.556,0.758l-0.361,0.904l-0.2,0.995l-0.049,1.002v53.345
			l0.049,0.63l0.18,0.64l0.318,0.581l0.445,0.488l0.528,0.371l0.6,0.269l0.65,0.141l0.743,0.059l0.728-0.059l0.678-0.151
			l0.601-0.269l0.533-0.38l0.41-0.489l0.298-0.571l0.181-0.63l0.059-0.63v-12.884l1.714,0.6c0.449,0.133,0.918,0.239,1.358,0.333
			c0.795,0.136,1.602,0.2,2.412,0.19h0.938l0.924-0.123l0.908-0.21l0.889-0.278l0.86-0.41l0.8-0.46l0.743-0.58l0.679-0.67
			l0.561-0.751l0.479-0.802l0.371-0.859l0.288-0.86l0.21-0.899l0.23-1.914v-0.997l-0.059-1.182c-0.098-0.781-0.21-1.563-0.351-2.319
			c-0.24-1.09-0.548-2.139-0.84-3.215l-1.222-3.16l-1.997-4.41l-0.23-1.432l0.298-3.111l1.891,1.42l0.63,0.279l0.694,0.171h0.708
			l0.728-0.146l0.723-0.284l0.718-0.39l2.526-1.662l0.259,1.783c0.103,0.313,0.225,0.62,0.371,0.919l0.385,0.523l0.465,0.42
			l0.556,0.298l0.6,0.19l0.669,0.092h7.004l-2.052,1.891l-0.351,0.576l-0.229,0.601l-0.099,0.683v0.699l0.108,0.708
			c0.523,2.101,1.002,4.245,1.524,6.364c0.518,2.121,0.85,4.504,1.24,6.751l0.669,4.801l0.161,0.731l0.25,0.67l0.316,0.61
			l0.455,0.541l0.528,0.43l0.62,0.289l0.698,0.141h0.753l0.679-0.161l2.002-0.899l-0.293,2.101v0.708l0.141,0.679l0.781,1.813
			h-12.122l2.447-2.272l0.371-0.546l0.239-0.645l0.122-0.699v-0.736c-0.098-0.684-0.22-1.353-0.341-2.003
			c-0.259-1.128-0.558-2.291-0.86-3.4l-0.728-2.373l-0.82-2.378l-0.933-2.452l-2.159-5.001l-1.212-2.589l-0.429-0.639l-0.45-0.553
			l-0.523-0.469l-0.546-0.341l-0.64-0.249l-0.669-0.084l-0.684,0.084l-0.649,0.229l-0.621,0.308l-0.508,0.454l-0.41,0.548
			l-0.239,0.62l-0.103,0.64c0.111,2.242,1.553,4.512,2.432,6.603l1.998,5.114l1.45,4.459l1.123,4.24l0.23,0.713l0.308,0.64
			l0.371,0.556l2.403,2.242h-9.695l-0.65,0.074l-0.61,0.175l-0.571,0.274l-0.489,0.401l-0.39,0.478l-0.269,0.571l-0.19,0.63
			l-0.084,0.738l0.054,0.713l0.156,0.64l0.254,0.566l0.381,0.513l0.459,0.401l0.548,0.288l0.6,0.181l0.659,0.102h35.504l0.62-0.102
			l0.566-0.191l0.503-0.298l0.45-0.4l0.341-0.494l0.25-0.546l0.16-0.591l0.108-0.733l-0.108-0.756l-0.16-0.601l-0.25-0.541
			l-0.341-0.499l-0.45-0.41l-0.513-0.298l-0.585-0.191l-0.611-0.083h-9.084c0.4-0.728,0.83-1.47,1.172-2.208l0.117-0.273l2.002-5.68
			l0.889-2.872l0.822-2.911l0.698-2.941l0.601-2.998l0.483-3.005l0.348-3.067v-0.791l-0.059-0.741l-0.171-0.699l-0.269-0.63
			l-0.429-0.581l-0.523-0.449l-0.65-0.333l-0.718-0.165l-1.909-0.153l-1.232,1.48c-0.249,0.395-0.439,0.825-0.581,1.27l-0.723,4.122
			l-1.187,6.158l-0.65,2.872l-2.519,9.383c-0.333-2.637-0.63-5.319-1.001-7.951c-0.249-1.719-0.551-3.428-0.83-5.124l-1.002-4.576
			l-1.172-4.342l-0.249-0.639l-1.998-2.882h13.099l1.002-1.524l0.24-0.556l0.244-1.363l-0.122-1.901l4.132,2.149l2.857,0.19
			l2.281-1.997l0.143-2.951l-2.091-1.899L378.042,658.805z M336.034,685.58l-0.064,0.591l-0.138,0.679
			c-0.092,0.225-0.205,0.44-0.331,0.64c-0.166,0.215-0.353,0.405-0.561,0.581c-0.255,0.057-0.519,0.103-0.778,0.131h-0.19
			l-2.583-0.43h-0.669l-0.64,0.138l-1.568,0.684v-33.613h5.788l-2.569,12.166l-0.22,2.237l0.049,1.232
			c0.069,0.6,0.181,1.192,0.333,1.773c0.2,0.59,0.44,1.138,0.679,1.689c0.62,1.348,1.24,2.692,1.802,4.084l0.601,1.617l0.805,3.072
			c0.094,0.533,0.171,1.002,0.235,1.592L336.034,685.58z M350.676,663.035l2.551-2.329l1.44-1.49l1.23-1.42l2.052-2.721
			c0.161-0.171,0.308-0.361,0.469-0.533l1.002-1.089l1.997,1.909l1.25,1.383l1.514,1.422c0.84,0.688,1.69,1.387,2.521,1.997
			c1.338,1.002,2.711,1.919,4.059,2.853L350.676,663.035z M419.114,674.987l-0.489-0.899l-0.64-0.771l-0.79-0.64l-0.879-0.489
			l-0.991-0.303l-1.05-0.097l-1.07,0.097l-0.972,0.303l-0.899,0.499l-0.761,0.64l-0.65,0.761l-0.479,0.909l-0.303,0.972
			l-0.098,1.069l0.098,1.05l0.303,0.982l0.479,0.88l0.65,0.781l0.761,0.649l0.899,0.489l0.972,0.293l1.07,0.117l1.05-0.117
			l0.991-0.293l0.879-0.489l0.79-0.649l0.64-0.781l0.489-0.88l0.303-0.982l0.108-1.05l-0.108-1.069L419.114,674.987z
			 M303.403,695.964l-3.551-1.929l-3.233-2.002l-2.886-1.998l-2.564-2.096l-2.218-2.119l-2.701-3.121h18.555l0.581-0.059l0.586-0.2
			l0.503-0.299l0.43-0.38l0.336-0.504l0.235-0.518l0.146-0.571l0.054-0.59l-0.054-0.64l-0.136-0.548l-0.245-0.541l-0.328-0.479
			l-0.439-0.42l-0.513-0.313l-0.576-0.19l-0.591-0.049h-20.757v-5.422h13.744l1.002-0.108l1-0.313l0.87-0.469l0.781-0.63l0.62-0.781
			l0.488-0.86l0.299-1l0.111-1.001v-14.003l-0.111-1.002l-0.299-1.002l-0.488-0.879l-0.62-0.758l-0.781-0.649l-0.879-0.474
			l-1.002-0.288l-1.002-0.103h-33.559l-1.002,0.103l-1,0.288l-0.889,0.474l-0.763,0.649l-1.387,1.68l-0.811-2.481l-0.249-0.504
			l-2.319-1.558h-1.002l-0.753,0.171l-0.718,0.318l-0.674,0.513l-0.518,0.566l-0.42,0.684l-0.333,0.776l-0.219,0.874l-0.65,3.248
			l-0.81,3.082l-0.997,2.911l-1.055,2.76l-1.289,2.633l-1.49,2.471l-1.602,2.339l-1.817,2.272l-0.41,0.639l-0.293,0.67l-0.181,0.688
			v0.714l0.093,0.688l0.23,0.679l0.351,0.655l0.566,0.786l2.526,1.002l3.56-1.891v30.286l0.079,0.733l0.18,0.709l0.279,0.63
			l0.4,0.571l0.533,0.459l0.62,0.323l0.689,0.2l0.781,0.069l0.748-0.069l0.703-0.2l0.601-0.323l0.546-0.469l0.391-0.571l0.288-0.62
			l0.181-0.699l0.103-0.733v-3.096l2.232,1.215l0.576,0.133h0.62l0.62-0.123l0.601-0.22l3.301-1.846l3-1.86l2.765-1.916l2.529-1.929
			l2.271-1.997l3.791-3.854v16.235l0.078,0.63l0.19,0.63l0.304,0.541l0.4,0.479l0.498,0.381l0.591,0.279l0.65,0.16l0.708,0.059
			l0.669-0.059l0.62-0.16l0.571-0.279l0.504-0.381l0.385-0.479l0.294-0.551l0.19-0.61l0.088-0.64v-16.713l2.672,2.778l2.378,2.184
			l2.564,2.119l2.75,1.998l2.931,2.002l3.111,1.891l3.473,1.929l2.568,0.131l2.091-2.061l0.469-3l-1.548-2.002L303.403,695.964z
			 M273.174,685.18l-2.002,2.003l-2.349,1.997l-2.682,2.003l-2.998,2.071l-3.39,2.071l-4.763,2.78V680.98l2.188,1.45l0.571,0.19
			l0.581,0.059h17.002L273.174,685.18z M277.307,676.379h-19.004l-0.704,0.088c-0.333,0.097-0.649,0.24-0.938,0.42l-1.709,1.553
			v-15.692c0.508-1.304,0.997-2.623,1.479-4.005l2.628-7.932v15.004l0.093,1.001l0.308,1l0.469,0.87l0.63,0.781l0.763,0.63
			l0.879,0.478l1.002,0.304l1,0.108h13.095L277.307,676.379z M266.722,664.373c-0.151-0.049-0.298-0.116-0.469-0.2l-0.22-0.219
			l-0.21-0.338v-9.383l0.089-0.323l0.18-0.239l0.249-0.22l0.313-0.141h28.645l0.381,0.131l0.289,0.259l0.229,0.479v9.685
			l-0.997,0.499L266.722,664.373z M788.499,672.497l-0.333-0.576l-0.469-0.504l-0.551-0.4l-0.63-0.308l-4.107-1.192l-3.112-1.129
			l-3.633-1.67l0.092,0.23l-4.254-3.003l-2.091-1.852l-1.85-2.056l-1.339-1.896l0.289-0.997l0.273-1.202h11.611
			c-0.679,1.002-1.339,2.003-1.998,2.931c-0.551,0.718-1.124,1.432-1.622,2.149l-0.269,0.62l-0.171,0.64v0.674l0.099,0.63
			l1.279,3.16l3.003-0.904l0.591-0.269l0.556-0.4l0.553-0.489l1.773-2.271l1.47-2.281l1.177-2.369l0.943-2.442l0.249-1.23
			l0.049-1.138l-0.21-1.065l-0.518-0.908l-0.83-0.699l-1.002-0.44l-1.25-0.254l-1.45-0.078H756.19l0.239-3.732l-1.689-1.997
			l-0.879-0.254l-0.655-0.069l-0.669,0.059l-0.61,0.22l-0.548,0.341l-0.493,0.469l-0.401,0.551l-0.938,1.998l-0.698,1.304
			l-1.632,2.549l-2.173,2.721l-1.871,2.232l-0.118-2.731l-1.87-1.861l-10.404-3.682l-1.719-0.543l-0.731-0.108h-0.679l-0.65,0.108
			l-0.6,0.274l-0.533,0.356l-0.45,0.484l-0.37,0.591l-0.25,0.669l-0.17,0.698v0.723l0.151,0.65l0.313,0.591l0.429,0.478l0.509,0.411
			l0.581,0.316l1.22,0.474l1.002,0.269c1.069,0.308,2.139,0.64,3.18,1.002l3.17,1.128c1.163,0.45,2.301,0.933,3.418,1.422l0.684,0.2
			l0.679,0.098l1.758-0.049v1.114l0.143,0.649l0.62,1.388l-3,1.25l-3.321,2.042l-3.311,2.002l-3.492,1.827
			c-1.442,0.674-2.902,1.343-4.332,2.062l-0.581,0.419l-0.489,0.494l-0.351,0.581l-0.21,0.63l-0.049,0.679l0.113,0.689l0.259,0.669
			l0.381,0.649l0.508,0.543l0.581,0.38l0.659,0.25l0.679,0.078h0.713l0.699-0.126l0.733-0.21l4.279-2.003
			c1.563-0.82,3.15-1.632,4.674-2.481l2.159-1.129l-0.059,2.443l0.136,0.756l0.884,1.724h-4.522l-1.002,0.098l-1.002,0.308
			l-0.918,0.503l-0.791,0.65l-0.669,0.781l-0.488,0.918l-0.323,1.001l-0.098,1.002v16.821l0.058,0.645l0.201,0.669l0.288,0.538
			l2.749,2.681l-6.521,0.484l-0.746,0.126l-0.674,0.24l-0.611,0.331l-0.498,0.42l-0.42,0.509l-0.269,0.62l-0.141,0.649v0.791
			l0.22,0.733l0.313,0.61l0.41,0.508l0.518,0.43l0.581,0.294l0.659,0.2l0.689,0.078h0.751l6.614-0.488l5.851-1.193l5.07-1.899
			l4.302-2.583l3.478-3.322l2.671-4l1.812-4.679l1.002-5.314l0.059-0.776v-0.733l-0.488-2.003h14.32l0.312,0.102l0.229,0.151
			l0.289,0.376c0.062,0.186,0.107,0.381,0.131,0.571v12.714l0.22,2.301l-3.531-1.47c-1.739-0.669-3.482-1.289-5.222-1.861
			l-1.002-0.328l-2.462-0.674l-0.708-0.107h-0.669l-0.659,0.089c-0.396,0.108-0.773,0.268-1.114,0.493l-1.348,1.148l-0.074,1.832
			l0.123,0.62l0.239,0.6l0.361,0.509l0.469,0.449l0.553,0.351l0.63,0.304l2.929,0.869l2.818,0.938l2.785,1.002l2.749,1.108
			l2.711,1.212l2.672,1.314l2.637,1.387l2.745,1.563l2.638,0.548l2.212-1.808v-2.813l-1.909-1.997l-7.146-3.722l1.793-1.002
			l0.523-0.429l0.42-0.543l0.318-0.591l0.2-0.669l0.067-0.639v-15.283l-0.108-1.002l-0.313-1.001l-1.518-2.798l5.391,1.358
			l2.731-0.171l1.602-2.091v-0.938l-0.093-0.688L788.499,672.497z M745.483,665.136l-0.908-3.218l1.309-0.323
			c0.649-0.22,1.254-0.561,1.782-1.002c0.611-0.538,1.212-1.099,1.778-1.719c0.884-0.943,1.724-2.003,2.575-2.998h7.399l-0.42,1.528
			l-1.07,2.291l-1.509,2.062l-1.889,1.861l-2.375,1.699l-2.788,1.49l-3.238,1.328l-3.482,1.075L745.483,665.136z M752.38,683.822
			l-0.21,0.776l-0.645,4.132l-1.299,3.472l-1.997,2.931l-2.653,2.442l-3.36,1.949l-7.302,2.549l2.321-2.838l0.326-0.59l0.191-0.65
			l0.072-0.649V682.89l0.098-0.346l0.171-0.235l0.22-0.22l0.551-0.165h14.302L752.38,683.822z M747.638,675.197l6.149-2.657
			l2.564-1.402l2.281-1.622l1.998-1.812l2.549-3.077l1,1.289l2.121,2.271l2.373,1.998l2.647,1.822l5.793,3.16L747.638,675.197z
			 M670.306,665.668h-0.01H670.306z M712.974,703.999l-0.259-0.655l-0.371-0.546l-0.566-0.474l-0.571-0.376l-0.669-0.293
			l-0.733-0.19l-2.339-0.376l-2.232-0.464l-2.208-0.586l-2.163-0.674l-2.149-0.802l-2.101-0.889l-3.072-1.499l2.594-2.539
			l1.616-1.832l1.544-1.929l1.44-2.061l1.368-2.174l1.26-2.281l1.192-2.388l0.669-1.729l0.351-1.64v-0.773l-0.068-0.737
			l-0.171-0.724l-0.274-0.688l-0.42-0.62l-0.469-0.514l-0.556-0.459l-3.844-2.252h8.532l0.689-0.087l0.649-0.18l0.581-0.279
			l0.523-0.381l0.43-0.498l0.318-0.581l0.19-0.64l0.064-0.713l-0.064-0.689l-0.146-0.62l-0.294-0.591l-0.4-0.498l-0.538-0.381
			l-0.62-0.278l-0.693-0.151h-6.579l-1.373-0.323v-11.693l-0.078-1.138l-0.249-1.001l-0.445-0.933l-0.63-0.766l-0.83-0.602
			l-0.948-0.4l-1.089-0.23l-1.172-0.068H680.09l-1.324,0.068l-1.177,0.23l-1.002,0.381l-0.86,0.61l-0.684,0.776l-0.439,1.002
			l-0.249,1.079l-0.079,1.212v4.743l-0.064,1.622l-0.269,1.47l-0.478,1.367l-0.704,1.242l-2.437,3.242v-0.498l-3.361,2.247
			l-0.523,0.523l-0.429,0.571l-0.289,0.639l-0.141,0.679l0.059,0.728l0.229,0.714l0.401,0.679l1.094,1.279l-1.87,1.05
			c-1.002,0.65-2.003,1.373-3.005,2.081v-11.179h7.805l-0.19-4.533l-0.18-0.479l-0.313-0.494l-0.42-0.42l-0.489-0.288l-0.561-0.19
			h-5.661v-11.253l-0.058-0.581l-0.171-0.563l-0.298-0.508l-0.401-0.41l-0.503-0.323l-0.548-0.219l-0.59-0.138h-1.363l-0.581,0.128
			l-0.566,0.229l-0.459,0.343l-0.401,0.4l-0.303,0.518l-0.17,0.553v11.756h-5.969l-0.571,0.166l-0.508,0.283l-0.41,0.41
			l-0.353,0.499l-0.21,0.571l-0.131,0.59v1.339l0.131,0.581l0.21,0.546l0.328,0.503l0.41,0.401l0.523,0.308l0.563,0.161l0.575,0.059
			h5.422v14.594l-2.071,1l-2.657,1.373c-0.85,0.44-1.743,0.869-2.593,1.397l-0.43,0.4l-0.336,0.465l-0.22,0.536l-0.133,0.553v0.61
			l0.089,0.6l0.19,0.67l0.323,0.6l0.371,0.498l0.42,0.411l0.478,0.321l0.528,0.22l0.563,0.098h0.571l0.6-0.088
			c0.82-0.381,1.622-0.761,2.398-1.163l1.934-1v13.826l-2.682-1.001l-2.921-0.049l-1.62,2.369v0.899l0.088,0.683l0.19,0.64
			l0.313,0.61l0.42,0.558l0.538,0.503l0.64,0.4l0.742,0.348l2.423,0.63l2.109,0.293l1.852-0.083l1.607-0.469l1.279-0.919
			l1.593-2.309l1.182,1.997l0.449,0.523l0.519,0.42l0.61,0.318l0.659,0.2l0.713,0.084h0.748l0.811-0.103l2.773-0.719l2.657-0.781
			l2.574-0.859l2.481-0.914l2.388-0.995l2.311-1.094l3.912-2.082l1.67,1.002l2.319,1.26l2.501,1.143l2.682,1.05l2.852,0.948l3,0.849
			l3.198,0.763l3.443,0.659h0.763l0.708-0.049l0.649-0.18l0.611-0.318l0.513-0.445l0.395-0.536l0.284-0.63l0.19-0.753v-0.83
			L712.974,703.999z M675.556,670.117l1.593-1.67l1.289-1.802l0.997-1.929l0.713-2.003l0.41-2.148l0.143-2.262v-4.728h13.729v10.74
			l0.143,1.763l0.321,1.489l0.23,0.601l0.288,0.546l0.353,0.45l0.39,0.4l0.489,0.361l4.131,2.091h-27.508L675.556,670.117z
			 M676.988,697.816l-2.003,0.8l-4.287,1.46l-4.845,1.348l-0.728,0.294l-0.62,0.375l-2.003,1.744v-19.375
			c2.003-1.163,4-2.339,5.905-3.531l0.649-0.401l2.711-3.213l-1.002,4.102v0.714l0.143,0.747l0.278,0.733l0.411,0.738l2.568,3.561
			l2.574,3.193c0.84,0.996,1.68,1.88,2.568,2.808l1.862,1.901L676.988,697.816z M690.678,689.323l-2.998,2.539l-1.793-1.539
			l-1.118-1.133c-0.699-0.718-1.402-1.47-2.091-2.207l-1.27-1.519l-2.413-3.233l-2.227-3.371h21.437l-1.222,2.462l-1.002,1.67
			l-1.118,1.617l-1.24,1.593l-1.422,1.553L690.678,689.323z M690.678,689.323"/>
		<path style="fill:#EA5504;" d="M756.419,695.383l-0.551,1.442l1.64-1.402l0.069-1.788L756.419,695.383z M505.28,699.325
			l-2.901-1.852l-2.584-1.998l-1.645-1.459c1.607-1.534,3.247-3.005,4.791-4.601c0.83-0.83,1.607-1.695,2.388-2.501l0.561-0.601
			l0.391-0.58l0.288-0.611l0.151-0.639v-0.65l-0.151-0.669l-0.269-0.591L505.91,682l-0.62-0.649l-3.233-0.87l2.071-1.714l0.63-0.756
			l0.484-0.879l0.308-1.002l0.113-1.002v-22.384l-0.113-1.002l-0.299-1.002l-0.493-0.879l-0.62-0.761l-0.776-0.64l-0.884-0.469
			l-0.997-0.293l-1.002-0.099h-23.068l-1.001,0.099l-1.002,0.293l-0.889,0.469l-0.756,0.64l-0.62,0.741l-1.001,1.998l-1.432-0.708
			l-0.61-0.191l-0.63-0.078h-8.762c0.118-0.684,0.26-1.392,0.42-2.081l0.049-0.284l0.059-0.669v-0.689l-0.156-0.649l-0.283-0.581
			l-0.41-0.523l-0.518-0.42l-0.601-0.328l-0.718-0.264l-0.845-0.068h-0.698l-0.66,0.161l-0.59,0.278l-0.528,0.41l-0.42,0.533
			l-0.343,0.601l-0.229,0.669l-0.753,2.998l-0.83,2.803l-1.001,2.682l-0.997,2.578l-1.162,2.482l-1.26,2.378l-1.392,2.262
			l-1.5,2.232l-0.4,0.698l-0.288,0.714l-0.161,0.728v0.723l0.141,0.698l0.308,0.64l0.44,0.581l0.703,0.65l2.77,0.469l2.598-1.652
			l1.294-1.768h1.607v7.151h-5.997l-0.601,0.078l-0.581,0.161l-0.541,0.294l-0.44,0.395l-0.346,0.503l-0.245,0.581l-0.126,0.63
			v1.378l0.136,0.63l0.245,0.571l0.346,0.513l0.43,0.385l0.531,0.313l0.571,0.191l0.601,0.098h5.998v20.606l0.229,1.719l0.21,0.724
			l0.274,0.669l0.356,0.61l0.455,0.498l0.536,0.455l0.591,0.288l0.64,0.2l0.649,0.049h0.694l0.689-0.161l0.679-0.239l1.479-0.766
			l2.321-1.66l2.363-1.944c1.24-1.158,2.457-2.311,3.61-3.487l2.139-2.213v4.411l0.141,1.832l0.371,1.577l0.63,1.275l0.918,0.997
			l1.192,0.581l1.393,0.17l1.489-0.229l1.68-0.553l2.159-1.367l2.299-1.754c1.29-1.138,2.549-2.301,3.791-3.448l1.42-1.392
			l0.459-0.699l0.343-0.683l0.21-0.699l0.259-2.672l2.529,2.769l3.405,3.003l3.81,2.628l4.302,2.354l2.892,0.6l2.417-1.572
			l0.269-2.912l-1.997-2.109L505.28,699.325z M456.268,663.177l2.368-5.543h10.873c0.424-0.039,0.844-0.128,1.25-0.259l1.528-0.64
			v7.732l-0.997,2.129l0.997,2.149v9.636l-1.997-1.094l-0.563-0.181l-0.581-0.059h-8v-7.151h6.584l0.649-0.083l0.61-0.166
			l0.576-0.274l0.494-0.375l0.39-0.494l0.909-1.909l-0.909-1.929l-0.38-0.503l-0.494-0.401l-0.546-0.278l-0.62-0.201l-0.66-0.087
			L456.268,663.177z M472.351,695.183l-3.854-1.212l-2.301,1.295c-1.002,1.059-1.949,2.158-2.998,3.218l-2.081,2.129V683.75h8.048
			l0.581-0.099l0.571-0.21l2.003-1.24L472.351,695.183z M479.072,655.123l0.077-0.288l0.191-0.284l0.229-0.181l0.294-0.106
			l0.249-0.05h18.003l0.353,0.138l0.269,0.239l0.209,0.381v5.685h-19.932L479.072,655.123z M479.072,667.348h19.937v5.5l-0.2,0.323
			l-0.141,0.165l-0.4,0.284h-19.254L479.072,667.348z M486.852,694.675l-2.482,1.548l-1.46,1.709
			c-0.356,0.353-0.728,0.723-1.108,1.114c-0.88,0.83-1.822,1.719-2.721,2.578V680.32h4l1.104,3.859l1.719,4.235l2.139,3.897
			l2.603,3.644L486.852,694.675z M496.635,686.25l-0.601,0.62l-1.948,1.871l-1.602-3c-0.499-1.059-0.997-2.109-1.398-3.17
			l-0.8-2.319h11.883c-1.88,2.066-3.684,4.069-5.593,6.07L496.635,686.25z M775.653,666.718l-0.019-0.044l-0.05,0.01
			L775.653,666.718z M621.23,674.987l-0.488-0.899l-0.63-0.771l-0.791-0.64l-0.899-0.489l-0.982-0.303l-1.05-0.097l-1.05,0.097
			l-0.992,0.303l-0.889,0.499l-0.761,0.64l-0.649,0.761l-0.479,0.899l-0.313,0.982l-0.097,1.069l0.097,1.05l0.313,0.982l0.479,0.88
			l0.649,0.781l0.761,0.649l0.889,0.489l0.992,0.293l1.05,0.117l1.05-0.117l0.991-0.293l0.889-0.489l0.791-0.64l0.63-0.79
			l0.488-0.87l0.313-0.992l0.118-1.05l-0.118-1.069L621.23,674.987z M522.434,665.785l0.61,0.679l2.559,0.933l2.344-1.22l2.778-3.41
			l2.599-3.604l2.519-3.961l2.554-4.372l0.401-2.798l-1.862-2.329l-2.823-0.161l-1.987,2.012l-2.023,3.659l-2.212,3.482l-2.482,3.38
			l-2.768,3.322l-0.41,0.551l-0.318,0.62l-0.201,0.65l-0.034,0.679l0.103,0.649l0.269,0.65L522.434,665.785z M544.148,653.96
			l0.464,0.523l0.546,0.381l0.611,0.279l0.659,0.17l0.723,0.079h32.138l0.738-0.049l0.733-0.161l0.65-0.279l0.6-0.39l0.469-0.528
			l0.351-0.601l0.21-0.733l0.069-0.771l-0.079-0.756l-0.219-0.669l-0.343-0.611L582,649.32l-0.59-0.41l-0.65-0.288l-0.733-0.181
			l-0.738-0.039h-32.128l-0.733,0.069l-0.669,0.18l-0.62,0.279l-0.528,0.4l-0.474,0.513l-0.318,0.63l-0.18,0.679l-0.049,0.728
			l0.049,0.771l0.18,0.699L544.148,653.96z M534.428,662.092l-1.924,2.116l-1.138,2.217l-1.128,2.052l-1.202,2.002l-1.25,1.998
			l-2.691,3.722l-3.005,3.619l-1.148,2.501l1.06,2.701l2.662,1.002l2.471-1.279l1.929-2.282v23.557l0.079,0.743l0.171,0.708
			l0.268,0.64l0.401,0.581l0.503,0.469l0.62,0.361l0.689,0.21l0.761,0.069l0.776-0.069l0.714-0.21l0.6-0.351l0.518-0.469
			l0.371-0.591l0.269-0.64l0.161-0.718l0.077-0.743v-33.281l1.891-3.228c0.909-1.597,1.363-3.408,1.314-5.24l-2.003-2.213
			L534.428,662.092z M585.903,665.917l-0.313-0.61l-0.41-0.504l-0.518-0.41l-0.581-0.279l-0.639-0.19l-0.679-0.059h-38.292
			l-0.733,0.059l-0.679,0.181l-0.62,0.268l-0.528,0.411l-0.42,0.503l-0.323,0.6l-0.249,0.997l0.078,1.163l0.171,0.708l0.323,0.63
			l0.449,0.543l0.518,0.381l0.611,0.288l0.649,0.171l0.713,0.103h24.235v26.432l-0.049,1.002l-0.131,0.802l-0.21,0.679
			c-0.138,0.269-0.303,0.518-0.499,0.743c-0.151,0.156-0.308,0.308-0.474,0.449l-0.63,0.22l-0.508,0.141l-1.001,0.107
			c-0.61,0-1.22,0-1.822-0.088l-2.998-0.469l-6.49-1.573c-0.333-0.069-0.665-0.113-1.002-0.133h-0.351l-0.768,0.143l-0.493,0.229
			l-1.66,2.003l0.093,3.16l2.339,1.622l3.252,0.84l2.867,0.64l2.603,0.508l2.408,0.323l2.174,0.141h1.938l1.719-0.225l1.504-0.376
			l1.29-0.541l1.138-0.771l1.001-0.996l0.762-1.192l0.556-1.402l0.391-1.568l0.22-1.773l0.083-1.919v-27.191h6.818l0.664-0.087
			l0.63-0.171l0.576-0.278l0.533-0.381l0.42-0.508l0.313-0.61l0.166-0.704l0.073-0.756l-0.073-0.743L585.903,665.917z
			 M747.046,459.018c0,5.001,0.948,8.944,7.312,12.162c5.114,2.564,13.554,6.554,21.133,10.124
			c7.595-3.57,16.006-7.56,21.168-10.124c6.364-3.21,7.302-7.141,7.302-12.162v-5.44h-56.916V459.018z M747.046,459.018"/>
		<path style="fill:#EA5504;" d="M897.387,299.004H126.615c-9.426,0-18.466,3.746-25.133,10.413
			c-6.662,6.667-10.404,15.712-10.399,25.138v241.786c-0.005,19.629,15.903,35.547,35.532,35.562h770.773
			c19.629-0.015,35.536-15.933,35.532-35.562V334.555c0.004-9.426-3.737-18.471-10.399-25.138
			C915.853,302.75,906.813,299.004,897.387,299.004L897.387,299.004z M698.434,410.772c0.02-8.035,6.546-14.535,14.584-14.53h50.141
			V389.4c0-0.753,0.293-1.47,0.825-2.008c0.528-0.533,1.245-0.83,1.998-0.835h19.004c0.753,0,1.47,0.303,2.003,0.835
			c0.526,0.533,0.825,1.255,0.82,2.008v6.842h50.16c8.045,0,14.564,6.521,14.564,14.565v9.44c0,1.558-1.259,2.823-2.817,2.828
			H836.52c-0.748,0.005-1.47-0.293-1.998-0.825c-0.533-0.533-0.825-1.25-0.82-2.003v-8.254H717.317v8.254
			c0.005,0.753-0.293,1.475-0.825,2.003c-0.533,0.533-1.25,0.83-2.003,0.825h-13.226c-0.748,0-1.47-0.298-2.002-0.825
			c-0.528-0.533-0.826-1.25-0.826-2.003V410.772z M332.668,475.513c-0.015,9.168-7.453,16.591-16.621,16.586h-49.814v23.357
			c0.005,0.751-0.293,1.47-0.825,2.002c-0.533,0.533-1.255,0.826-2.007,0.816h-20.197c-0.746,0.005-1.469-0.289-1.997-0.82
			c-0.533-0.528-0.825-1.25-0.821-1.998v-23.357h-49.755c-9.168,0.005-16.606-7.418-16.616-16.586v-54.215
			c0.005-9.173,7.445-16.611,16.616-16.616h49.795v-14.843c-0.005-0.751,0.288-1.475,0.82-2.007
			c0.528-0.533,1.245-0.835,1.998-0.835h20.186c0.753,0,1.48,0.298,2.008,0.83c0.531,0.531,0.83,1.26,0.825,2.012v14.843h49.784
			c9.173,0.005,16.611,7.438,16.621,16.616V475.513z M511.102,498.009c-0.005,4.405-1.758,8.625-4.869,11.737
			c-3.117,3.116-7.341,4.859-11.747,4.859H371.864c-4.406,0-8.631-1.743-11.747-4.859c-3.116-3.112-4.869-7.332-4.869-11.737
			v-90.133c0.01-9.167,7.448-16.592,16.616-16.587h122.593c4.4-0.005,8.625,1.739,11.741,4.85c3.116,3.111,4.87,7.331,4.875,11.737
			L511.102,498.009z M683.058,488.778c-0.004,1.548-1.259,2.803-2.813,2.808h-62.014v23.859c0,0.753-0.298,1.475-0.83,2.003
			c-0.538,0.531-1.26,0.825-2.013,0.815h-19.004c-0.751,0.005-1.47-0.288-2.002-0.82c-0.533-0.528-0.83-1.25-0.83-1.998v-23.849
			h-62.015c-1.553,0-2.818-1.255-2.823-2.808v-12.675c0.005-1.553,1.27-2.813,2.823-2.813h62.015v-61.882h-57.013
			c-0.758,0-1.48-0.303-2.012-0.84c-0.533-0.533-0.831-1.26-0.831-2.012V396.56c0.005-0.748,0.304-1.465,0.84-1.988
			c0.533-0.523,1.255-0.81,2.003-0.8h138.627c1.548-0.005,2.808,1.24,2.823,2.788v12.006c0,1.563-1.26,2.832-2.823,2.852h-57.018
			v61.844h62.02c1.548,0.005,2.803,1.26,2.808,2.813L683.058,488.778z M542.727,421.185h19.117c1.968-0.082,3.815,0.933,4.801,2.633
			l19.004,37.06c0.361,0.558,0.361,1.275,0.01,1.837c-0.351,0.558-1.002,0.865-1.655,0.781h-19.117
			c-1.964,0.079-3.815-0.928-4.811-2.618l-19.004-37.06c-0.376-0.556-0.391-1.284-0.03-1.857
			C541.404,421.39,542.063,421.088,542.727,421.185L542.727,421.185z M670.654,423.818l-19.005,37.06
			c-1.005,1.69-2.857,2.697-4.82,2.618h-19.107c-0.66,0.093-1.314-0.21-1.67-0.776c-0.351-0.566-0.348-1.284,0.019-1.842
			l19.01-37.06c0.982-1.7,2.827-2.711,4.791-2.633h19.13c0.66-0.067,1.299,0.245,1.647,0.806c0.341,0.561,0.336,1.274-0.025,1.827
			H670.654z M853.633,450.745c0,0.756-0.303,1.475-0.835,2.007c-0.536,0.533-1.259,0.826-2.012,0.826h-24.406v7.682
			c0,8.924-4.074,17.354-15.004,22.663c-4.142,2.003-9.285,4.504-14.745,7.126c9.724,3.952,18.305,5.778,27.365,5.778h23.059
			c0.766,0,1.499,0.304,2.041,0.84c0.543,0.543,0.85,1.275,0.85,2.042v12.122c0,1.603-1.294,2.897-2.891,2.902h-22.678
			c-10.095-0.128-20.098-1.973-29.578-5.46c-3.81-1.412-11.004-4.591-19.336-8.362c-8.279,3.771-15.493,7.004-19.312,8.362
			c-9.471,3.472-19.464,5.309-29.549,5.43h-22.649c-1.602-0.005-2.901-1.299-2.911-2.901V499.66c0.01-1.597,1.314-2.886,2.911-2.882
			h23.01c9.089,0,17.661-1.831,27.375-5.783c-4.923-2.358-9.842-4.733-14.754-7.121c-10.932-5.319-15.004-13.744-15.004-22.668
			v-7.628h-24.358c-1.558-0.005-2.818-1.27-2.818-2.833v-12.273c0-1.558,1.26-2.823,2.818-2.828h24.397v-10.394
			c0.005-1.602,1.299-2.901,2.901-2.911h16.616c1.607,0.005,2.906,1.304,2.911,2.911v10.414h56.906v-10.414
			c0.005-1.607,1.304-2.906,2.911-2.911h16.597c0.771-0.005,1.513,0.303,2.061,0.85c0.548,0.546,0.85,1.289,0.85,2.061v10.414
			h24.362c1.568,0,2.843,1.264,2.852,2.827L853.633,450.745z M853.633,450.745"/>
		<path style="fill:#EA5504;" d="M377.412,496.988h111.501v-89.395H377.412V496.988z M388.808,471.444h33.437v-14.648h-28.655
			v-13.871h28.645v-10.144h-33.427v-15.053h88.735v15.053h-33.481v10.134h28.646v13.871h-28.646v14.648h16.645v-6.544h16.827v21.577
			h-88.726V471.444z M388.808,471.444"/>
		<path style="fill:#EA5504;" d="M197.436,423.091h42.961v50.654h-42.961V423.091z M266.233,423.091h42.942v50.654h-42.942V423.091z
			 M266.233,423.091"/>
		<path style="fill:#EA5504;" d="M959.846,328.142l-0.948-6.242l-1.553-6.003l-2.111-5.773l-2.652-5.489l-3.141-5.173l-3.6-4.88
			l-4-4.449l-4.464-4.064l-4.84-3.61l-5.183-3.141l-5.519-2.661l-5.783-2.121l-6.003-1.543l-6.232-1.002l-6.159-0.308H126.444
			l-6.174,0.308l-6.232,1.002l-5.998,1.543l-5.773,2.121l-5.495,2.642l-5.186,3.141l-4.983,3.628l-4.454,4.049l-4,4.445l-3.62,4.85
			l-3.141,5.171l-2.642,5.49l-2.149,5.793l-1.553,6.003l-1.002,6.252l-0.298,6.168v355.353l0.298,6.159l1.002,6.252l1.553,6.003
			l2.111,5.773l2.671,5.5l3.141,5.191l3.62,4.811l4,4.474l4.464,4.069l4.831,3.608l5.181,3.141l5.5,2.642l5.773,2.121l6.002,1.553
			l6.233,0.948l6.168,0.321h771.216l6.164-0.321l6.227-0.948l6.003-1.553l5.793-2.121l5.49-2.642l5.181-3.141l4.83-3.608l4.475-4.05
			l4-4.474l3.609-4.83l3.141-5.191l2.652-5.49l2.111-5.773l1.553-6.003l0.948-6.232l0.323-6.169V334.326L959.846,328.142z
			 M950.653,689.415c-0.005,29.432-23.869,53.291-53.306,53.291H126.615c-29.432-0.005-53.291-23.864-53.296-53.291v-354.86
			c-0.014-14.144,5.598-27.713,15.591-37.721c9.998-10.003,23.562-15.624,37.706-15.624h770.762
			c14.139-0.005,27.703,5.612,37.7,15.611c9.998,10.003,15.609,23.56,15.606,37.706L950.653,689.415z M950.653,689.415"/>
	</g>
</g>
<g id="图层_32" style="display:none;">
	<g style="display:inline;">
		<g>
			<defs>
				<rect id="SVGID_51_" x="63.75" y="123.839" width="896.27" height="776.568"/>
			</defs>
			<clipPath id="SVGID_52_">
				<use xlink:href="#SVGID_51_"  style="overflow:visible;"/>
			</clipPath>
			<path style="clip-path:url(#SVGID_52_);fill:#E50012;" d="M588.285,124.263v91.652c0,0,74.755-24.149,72.34,60.251l2.415,224.319
				l-106.06,60.221l2.416-147.075c0.769-47.412-95.699-47.471-94.915,0l2.415,147.075L360.75,495.659l2.416-219.454
				c-2.416-84.4,72.33-60.25,72.33-60.25v-91.692H588.285z M63.75,766.426l79.383-45.813c0,0-58.283-52.672,16.02-92.772
				l193.04-114.257l105.217,61.79l-128.601,71.452c-41.434,23.029,6.766,106.605,47.466,82.193l126.175-75.622l-3.322,124.412
				L307.874,885.461c-71.891,44.27-88.349-32.522-88.349-32.522l-79.383,45.818L63.75,766.426z M883.649,897.55l-79.383-45.804
				c0,0-16.458,76.807-88.35,32.488L520.402,774.175l0.901-121.977l126.176,75.622c40.645,24.383,88.939-59.159,47.459-82.193
				l-128.558-71.482l109.387-59.364l188.89,111.861c74.293,40.1,15.962,92.772,15.962,92.772l79.383,45.887L883.649,897.55z
				 M883.649,897.55"/>
		</g>
	</g>
</g>
<g id="图层_33" style="display:none;">
	<g style="display:inline;">
		<rect x="64.81" y="65.323" style="fill:#0068B2;" width="893.361" height="893.361"/>
		<path style="fill:#FFFFFF;" d="M511.008,955.77L66.745,511.521L511.008,67.258l444.258,444.263L511.008,955.77z M511.008,955.77"
			/>
		<path style="fill:#E60012;" d="M378.142,253.503l0.998-3.884l0.994-1.935l0.999-1.935l2.914-2.904l2.904-1.94l29.104-11.638
			l7.769-1.935l7.763-2.913l15.421-3.904l15.522-2.906l8.733-0.993l7.764-0.999l16.487-1.94h32.94l17.467,1.999l15.517,1.934
			l16.492,2.906l15.518,3.884l15.522,4.85l14.552,5.819l14.552,6.788l2.904,1.935l2.914,2.915l1.935,2.904v1.94l0.999,1.934v2.914
			l-0.999,2.914l-0.999,1.935l-0.994,1.94l-1.939,1.935l-1.935,0.998l-5.77,2.944l-7.764,3.879l-8.742,4.806l-9.704,6.783
			l-4.849,3.884l-5.819,4.849l-5.819,6.79l-5.75,5.828l-4.849,5.819l-3.884,5.82l-6.785,11.638l-5.819,11.638l-2.914,10.668
			l-2.904,9.703l-1.939,7.764l-0.994,5.819v431.645l-10.673,1.935l-10.668,0.999h-44.646l-11.638-1.935l-10.668-0.999V371.866
			l-0.999-6.783l-1.934-8.733l-2.914-8.733l-3.855-9.684l-4.849-10.668l-2.904-5.819l-3.894-5.867l-3.879-4.855l-3.885-5.819
			l-5.819-5.819l-4.848-5.819l-5.82-4.849l-4.853-3.884l-5.829-3.869l-4.849-2.914l-8.733-4.855l-6.788-3.879l-5.8-2.949
			l-1.934-0.994l-1.935-1.939l-1.896-1.876l-0.998-1.935V253.503z M646.827,777.302l-15.542,7.773l-16.487,6.79l-17.457,5.819
			l-16.487,3.884V376.685l0.999-10.667l2.914-9.704l2.914-8.733l2.904-7.763l4.848-7.764l3.885-6.788l9.698-11.639l5.819-4.848
			l4.854-4.854l9.698-6.783l4.849-2.914l4.854-1.935l3.879-1.94l3.884-1.935v488.876L646.827,777.302z M671.082,259.293
			l13.554,9.771l13.582,9.698l12.608,10.673l11.658,10.62l11.638,11.638l9.698,12.602l5.819,6.789l4.855,6.788l17.467,27.164
			l7.763,14.553l6.79,15.522l5.839,15.532l5.819,15.518l3.884,16.491l3.879,16.487l1.999,17.467l-0.999,2.914l-1.935,2.904
			l-2.914,3.885l-3.884,2.914l-1.935,1.934l-5.829,1.999l-3.884,0.994h-3.884l-4.85-0.994l-3.884-0.999l-3.88-0.999l-3.884-1.934
			l-3.884-1.94l-4.868-3.899l-2.906-2.904l-1.934-1.94l-3.924-4.868l-1.94-4.854l-2.914-5.814l-0.993-0.999l-0.999-1.94l-1.94-0.993
			h-3.879l-1.94,0.993l-2.914,1.94l-1.935,3.879l-3.884,5.82l-5.814,9.703l-1.94,6.788l-2.914,6.785l-0.999,4.853v3.88l-0.993,9.703
			v5.819l0.993,5.819l1.94,6.789l2.914,6.783l2.914,6.789l0.999,3.884l1.935,2.914l4.848,5.819l3.885,4.849l1.934,0.998l1.935,0.994
			h2.904l0.999-0.994l1.94-0.998l1.935-2.914l2.913-6.79l3.885-4.848l3.889-5.79l2.914-1.935l2.904-2.904l2.915-1.94l7.769-3.869
			l3.879-0.999l4.854-0.999h4.848l3.885,0.999l3.879,0.999l3.884,2.914l3.884,1.934l2.914,2.914l1.935,2.914l1.935,1.935v1.94
			l-1.935,17.457l-3.884,16.487l-1.935,7.763l-1.935,8.733l-5.779,15.523l-5.82,15.522l-6.788,15.518l-7.764,14.552l-8.733,13.587
			l-8.733,13.583l-9.703,13.583l-5.819,5.819l-4.85,6.788l-11.656,11.619l-11.639,11.638l-12.607,9.698l-13.583,10.673
			l-13.581,8.733V259.322L671.082,259.293z M352.896,763.719l-14.552-10.673l-7.754-4.897l-7.763-5.819l-6.79-5.819l-6.783-6.789
			l-6.789-5.819l-5.819-6.783l-12.607-13.588l-5.819-7.754l-5.819-6.788l-4.859-7.715l-5.819-7.764l-9.703-15.522l-3.88-8.733
			l-4.853-7.764l-6.785-17.457l-3.884-8.733l-2.904-8.733l-2.914-8.733l-2.914-9.703l-1.935-8.733l-1.94-9.699l-2.904-19.405
			l-1.934-19.402l-0.999-19.402v-9.674l0.999-9.698v-9.704l1.934-9.703l0.999-9.698l1.94-9.704l3.879-18.426l5.819-18.432
			l2.904-8.733l3.885-8.733l6.783-17.457l4.854-7.768l3.879-8.733l9.703-15.518l10.591-15.503l11.638-14.552l12.607-13.582
			l12.686-12.608l13.583-12.602l15.522-10.673l14.553-10.668v218.245l-0.999,2.914l-0.999,2.904l-5.829,5.829l-3.894,1.934
			l-1.935,0.999l-2.914,0.994l-2.904,0.999h-5.819l-3.884-0.999l-3.88-0.994l-4.853-0.999l-2.914-1.934l-3.83-1.95l-5.82-3.879
			l-1.934-2.904l-1.94-1.94l-3.879-4.868l-1.94-4.854l-2.914-5.814l-0.999-0.999l-1.935-1.94l-0.998-0.993h-3.88l-1.939,0.993
			l-2.914,1.94l-2.842,3.924l-3.884,5.819l-4.849,9.698l-2.904,6.79l-1.94,6.783l-0.993,4.854v3.879l-0.999,9.703v5.819l0.999,5.82
			l1.934,6.788l1.935,6.783l2.904,6.789l1.935,3.884l1.94,2.914l3.879,5.819l4.854,4.849l3.869,1.997h2.914l1.999-1.997l2.904-2.914
			l2.914-6.789l2.914-4.848l4.82-5.829l2.914-1.935l2.904-2.904l2.914-1.94l2.914-1.934l3.884-1.935l4.849-0.999l3.884-0.999h4.849
			l7.769,1.999l3.879,1.935l2.904,1.934l4.854,4.854l2.904,3.879v219.225H352.896z M443.105,801.547l-17.457-4.853l-16.487-4.849
			l-7.764-3.884l-7.759-2.886l-7.763-3.879l-7.734-3.904V288.416l6.788,2.906l9.698,4.848l4.849,3.885l4.854,2.913l4.848,3.885
			l4.85,4.848l4.854,5.82l4.849,5.819l3.884,5.819l4.849,6.783l2.913,7.769l2.914,8.733l2.906,8.733l1.905,10.687V801.547z
			 M443.105,801.547"/>
	</g>
</g>
<g id="图层_34" style="display:none;">
	<g style="display:inline;">
		<g>
			<defs>
				<rect id="SVGID_53_" x="63.989" y="78.775" width="896.031" height="866.253"/>
			</defs>
			<clipPath id="SVGID_54_">
				<use xlink:href="#SVGID_53_"  style="overflow:visible;"/>
			</clipPath>
			<path style="clip-path:url(#SVGID_54_);fill:#023B94;" d="M956.687,105.895c0.622-2.284,1.246-4.569,1.763-6.849
				c2.493-10.583-1.864-15.563-5.081-17.641c-1.454-0.931-3.115-1.241-4.773-1.348c-0.521,0-0.936-0.101-1.454-0.101H802.816
				c-7.158,0-14.109,0.416-20.127,4.565c-6.328,4.458-9.859,11.099-12.347,18.365c-8.197,23.137-14.317,47.105-20.026,70.967
				c-3.941,16.393-7.159,32.996-9.961,49.592c-1.555,9.549-3.111,19.196-4.459,28.74h-140.07c-0.314-12.656-0.208-25.416,0-38.077
				c0.209-11.516,0.725-23.031,1.45-34.552c0.623-10.062,1.353-20.021,2.284-29.981c0.725-8.197,1.663-16.395,2.594-24.591
				c0.831-6.849,4.773-29.779,5.913-34.445c2.908-11.519-8.09-10.583-8.09-10.583H427.636c-10.376-0.207-11.617,5.604-11.202,9.545
				c0.208,2.695,1.034,5.497,1.348,8.197c11.308,83.937,6.12,154.488,6.12,154.488h-138.93
				c-3.213-45.752-25.002-119.212-32.474-143.18c-1.348-4.464-2.488-9.028-4.251-13.386c-2.491-6.535-5.917-10.375-9.236-12.654
				c-5.917-3.947-15.67-2.7-22.306-2.7H78.5c-18.989,0-12.656,18.466-12.656,18.466c113.714,402.259,20.335,753.472,3.526,810.852
				c-1.14,3.835-2.386,7.574-3.734,11.308c-3.84,11.099-0.831,17.017,2.385,19.92c3.319,3.115,7.884,2.7,12.139,2.7
				c0,0,110.913,0.309,142.355-0.106c6.22-0.101,12.654-0.831,17.842-4.458c8.198-5.71,12.038-15.563,14.632-25.529
				c3.318-12.762,6.434-25.625,9.645-38.387c7.68-30.088,18.263-73.875,22.519-103.755h140.172
				c1.245,55.925-3.425,104.273-6.952,132.081c-1.14,9.337-3.216,18.258-5.395,27.286c-1.039,4.149-1.454,9.235,2.903,11.622
				c4.257,2.386,9.753,1.246,14.423,1.246H591.05c3.323,0,6.849,0.309,10.067-0.623c4.771-1.454,5.81-5.087,5.704-7.989
				c-0.101-5.503-1.763-10.999-2.386-16.501c-10.062-80.613-5.188-147.122-5.188-147.122h138.93
				c3.84,55.404,34.967,151.069,34.967,151.069c4.048,13.902,12.863,18.572,18.572,20.127c3.84,1.039,7.884,0.831,11.831,0.831
				h141.208c18.988,0,12.656-18.471,12.656-18.471c-58.413-191.532-70.759-402.361-45.96-600.327
				c7.052-56.133,17.427-111.952,31.127-166.941C944.648,148.745,954.3,114.296,956.687,105.895L956.687,105.895z M302.821,597.38
				c4.878-95.036,4.048-171.196,4.048-171.196h413.465c-4.878,95.042-4.048,171.196-4.048,171.196H302.821z M302.821,597.38"/>
		</g>
	</g>
</g>
<g id="图层_35" style="display:none;">
	<g style="display:inline;">
		<path style="fill:#007F3E;" d="M146.16,561.937l-4.325,24.505h129.732l5.758-24.505H146.16z M476.247,586.442l4.32-24.505H333.546
			l-5.763,24.505H476.247z M558.407,462.484l-20.179,99.453l-5.774,24.505l-20.179,99.454h-204.7l-4.325,23.056h239.297
			l31.717-147.016l20.18-99.453h286.839l-21.618,99.453H630.48l-51.926,246.49H281.65l-4.325,23.115h332.954l31.711-145.577
			l20.215-99.513H855.34l-20.18,99.454H698.222l-30.268,145.635l-21.618,99.454H199.49l51.925-245.041H64l21.618-99.454
			l4.325-24.564l21.618-99.453h185.944l51.926-245.042h204.7l25.962-123.968h379.026l-21.62,99.454H614.624l-4.345,24.514
			l-20.18,99.454h-204.7l-5.763,23.066h240.751l4.32-23.066l21.628-99.454h286.84l-21.618,99.454H682.361l-25.958,122.52H359.494
			l-5.768,23.067h204.7H558.407z M558.407,462.484"/>
	</g>
</g>
<g id="图层_36">
	<g>
		<g>
			<defs>
				<rect id="SVGID_55_" x="64.877" y="64.193" width="894.498" height="895.799"/>
			</defs>
			<clipPath id="SVGID_56_">
				<use xlink:href="#SVGID_55_"  style="overflow:visible;"/>
			</clipPath>
			<path style="clip-path:url(#SVGID_56_);fill:#A61F23;" d="M958.211,493.352h-161.9l7.175,18.5h155.156v-18.5H958.211z
				 M220.865,692.663h247.627L342.124,386.506L220.865,692.663z M767.512,425.535h182.865l-1.784-8.148l-1.741-7.718l-0.582-2.62
				H759.252l8.271,18.496L767.512,425.535z M474.66,692.663h247.656L595.929,386.506L474.66,692.663z M474.66,692.663"/>
			<path style="clip-path:url(#SVGID_56_);fill:#A61F23;" d="M878.464,686.519l-96.596,140.741H253.735L149.944,697.83
				l228.095-588.75L507.52,417.338l123.326-311.314L748.964,382.4h190.601C884.041,198.666,713.478,64.904,511.664,64.904
				c-246.824,0-446.937,200.113-446.937,446.947c0,246.84,200.103,446.939,446.937,446.939
				c193.065,0,357.508-122.404,420.042-293.845h-62.48L878.464,686.519z M878.464,686.519"/>
		</g>
		<path style="fill:#A61F23;" d="M813.75,536.505l8.236,18.52H956.55l2.053-18.52H813.75z M840.447,598.178h109.93l1.119-6.754
			l1.946-11.711H832.255l8.212,18.465H840.447z M784.981,468.688H956.55l-0.166-1.051l-1.001-9.716l-0.841-7.718h-176.78
			l7.21,18.485H784.981z M850.746,622.793l8.206,17.499h81.205l5.156-17.499h-94.577H850.746z M850.746,622.793"/>
	</g>
</g>
</svg>
