<svg xmlns="http://www.w3.org/2000/svg" width="1024" height="1024" viewBox="0 0 1024 1024"><path d="M512.262 959.683C293.919 959.683 117 871.225 117 762.054c0-70.351 73.741-131.976 184.475-167.019v52.892c-80.121 26.576-131.71 67.743-131.71 114.127 0 80.117 153.34 144.999 342.632 144.999s342.627-64.881 342.627-144.999c0-46.384-51.72-87.551-131.71-114.127v-52.892c110.734 35.044 184.475 96.668 184.475 167.019-.261 109.041-177.18 197.629-395.527 197.629zm13.811-171.444l-13.811 13.284-13.676-13.153c-10.161-9.643-249.871-238.277-249.871-461.189 0-145.909 118.16-263.29 263.547-263.29 145.394 0 263.556 118.684 263.556 264.593 0 217.044-239.584 449.851-249.745 459.755zm-13.811-672.236c-116.075 0-210.786 99.145-210.786 211.182 0 159.462 162.978 348.494 210.786 395.266 47.683-47.683 210.791-240.102 210.791-395.266 0-112.041-94.713-211.182-210.791-211.182zM380.033 353.5c0-72.569 59.276-131.584 132.103-131.584 72.956 0 132.232 59.015 132.232 131.584 0 72.565-59.281 131.709-132.232 131.709-72.827.001-132.103-59.144-132.103-131.709zm211.309 0c0-43.385-35.436-78.689-79.08-78.689-43.641 0-79.076 35.304-79.076 78.689 0 43.379 35.435 78.688 79.076 78.688 43.644 0 79.08-35.304 79.08-78.688zm0 0"/></svg>