<svg xmlns="http://www.w3.org/2000/svg" xmlns:xlink="http://www.w3.org/1999/xlink" width="1024" height="1024" viewBox="0 0 1024 1024"><defs><path id="a" d="M63.896 109.265h896.346v805.696H63.896z"/></defs><clipPath id="b"><use xlink:href="#a" overflow="visible"/></clipPath><path d="M424.666 914.961h39.251s.497-173.943 0-187.11 5.197-27.598 10.932-34.284l435.742-507.786S791.91 792.273 790.332 800.312c-1.225 6.21-5.282 8.857-10.913 7.037-6.794-2.2-254.888-79.498-254.888-79.498l-12.605 38.255s235.554 73.988 259.045 80.992c25.836 7.7 52.666-8.948 58.136-38.259 4.512-24.188 127.38-649.568 129.182-660.819 1.802-11.249 6.781-27.16-12.15-36.298-14.014-6.765-30.913 7.812-30.913 7.812l-5.301-10.27S113.549 534.489 85.147 549.809c-28.404 15.319-27.145 47.585-3.313 55.319 23.831 7.731 264.329 85.787 264.329 85.787l12.254-37.76-237.827-76.514 743.296-397.817S466.403 641.893 450.004 660.776c-16.396 18.879-25.62 38.506-25.588 63.348l.25 190.837z" clip-path="url(#b)" fill="#3b3c3c"/></svg>