<svg xmlns="http://www.w3.org/2000/svg" xmlns:xlink="http://www.w3.org/1999/xlink" width="1024" height="1024" viewBox="0 0 1024 1024"><defs><path id="a" d="M64.048 116.711h895.844v790.762H64.048z"/></defs><clipPath id="b"><use xlink:href="#a" overflow="visible"/></clipPath><path d="M511.436 348.368l141.677-141.676c59.844-59.764 156.791-59.774 216.65-.021 59.793 59.839 59.774 156.816-.045 216.63L657.272 635.723v.025L497.913 795.082c-89.182 89.181-233.69 89.181-322.871.021-89.207-89.182-89.186-233.624.152-322.983l247.832-247.832c8.388-8.686 8.266-22.489-.268-31.024-8.535-8.535-22.338-8.657-31.019-.269L143.901 440.782c-106.64 106.666-106.666 279.103-.151 385.613 106.444 106.443 279.013 106.443 385.456 0l159.332-159.379h.026l212.447-212.447c77.101-77.101 77.121-202.134.019-279.236-77.009-77.011-202.154-77.011-279.21.045L480.145 317.03 285.512 511.663a122.245 122.245 0 0 0-.112 173.055c47.835 47.719 125.281 47.668 173.055-.106L723.858 419.23c8.388-8.686 8.272-22.489-.268-31.024-8.535-8.535-22.338-8.657-31.019-.268L427.163 653.34c-30.486 30.496-79.918 30.547-110.47.112a77.993 77.993 0 0 1-22.869-55.267 78.013 78.013 0 0 1 23-55.21l194.612-194.607zm0 0" clip-path="url(#b)" fill="#3d3d3d"/></svg>