<svg xmlns="http://www.w3.org/2000/svg" xmlns:xlink="http://www.w3.org/1999/xlink" width="1024" height="1024" viewBox="0 0 1024 1024"><path d="M539.394 466.715c-44.756 0-27.969 55.943-83.917 67.134l-16.782 5.597c-27.97 5.591-33.565 5.591-33.565 27.969 0 22.379 11.188 27.974 22.379 27.974h67.13v184.617c0 27.969 5.596 44.752 33.57 44.752 27.97 0 33.565-22.379 33.565-44.752V500.285c-5.597-27.974-16.785-33.57-22.38-33.57zm0 0M321.212 282.098h11.191c16.782 0 27.969-11.187 27.969-27.97V119.864c0-16.788-11.187-27.974-27.969-27.974h-11.191c-16.783 0-27.97 11.187-27.97 27.974v139.861c0 11.187 11.187 22.373 27.97 22.373zm0 0"/><defs><path id="i" d="M64 91.89h895.851v839.163H64z"/></defs><clipPath id="j"><use xlink:href="#i" overflow="visible"/></clipPath><path d="M679.254 282.098h11.191c16.783 0 27.97-11.187 27.97-27.97V119.864c0-16.788-11.187-27.974-27.97-27.974h-11.191c-16.782 0-27.969 11.187-27.969 27.974v139.861c0 11.187 16.783 22.373 27.969 22.373zm0 0" clip-path="url(#j)"/><path d="M835.898 159.024h-72.726v50.349h72.726c33.569 0 61.539 27.973 61.539 61.539v55.943h-783.22v-55.943c0-33.566 27.974-61.539 61.539-61.539h72.731v-50.349h-67.134c-67.135 0-117.483 55.944-117.483 117.483V813.57c0 61.54 50.348 117.483 117.483 117.483h660.142c61.539 0 117.482-50.348 117.482-117.483V276.507c-5.597-61.539-55.945-117.483-123.079-117.483zm0 716.086H181.352c-33.565 0-61.54-27.974-61.54-61.54V382.798h783.22V813.57c0 33.566-27.974 61.54-67.134 61.54zm0 0" clip-path="url(#j)"/><path d="M399.533 159.024h223.778v50.348H399.533z"/></svg>