<svg xmlns="http://www.w3.org/2000/svg" xmlns:xlink="http://www.w3.org/1999/xlink" width="1024" height="1024" viewBox="0 0 1024 1024"><defs><path id="a" d="M63.819 180.206h896.048v663.938H63.819z"/></defs><clipPath id="b"><use xlink:href="#a" overflow="visible"/></clipPath><path d="M294.401 287.737H112.606c-26.938 0-48.786 21.683-48.786 48.425v458.726c0 26.742 21.829 48.425 48.786 48.425H911.13c26.953 0 48.783-21.683 48.783-48.425V336.163c0-26.762-21.829-48.425-48.783-48.425H733.922c-16.357-12.918-37.297-34.887-56.317-71.314-20.085-38.472-76.551-34.847-76.129-35.871l-179.221-.347c1.235 1.371-45.383-8.927-73.427 35.773-19.799 31.571-37.644 56.45-54.427 71.758zm209.897 71.686c104.674 0 204.71 88.285 204.71 197.141 0 108.876-100.036 197.141-204.71 197.141-104.69 0-189.574-88.265-189.574-197.141s84.884-197.141 189.574-197.141zm294.319 8.954c0 14.86-12.035 26.891-26.892 26.891-14.84 0-26.875-12.031-26.875-26.891 0-14.828 12.035-26.875 26.875-26.875 14.857-.001 26.892 12.031 26.892 26.875zm-286.75 26.891c89.077 0 161.296 72.222 161.296 161.296 0 89.073-72.2 161.295-161.296 161.295-89.079 0-161.298-72.222-161.298-161.295 0-89.093 72.219-161.296 161.298-161.296zM171.351 251.893v-23.892c0-6.595 4.917-11.954 10.985-11.954h49.715c6.07 0 10.986 5.359 10.986 11.954v23.892h-71.686zm0 0" clip-path="url(#b)"/></svg>