<svg xmlns="http://www.w3.org/2000/svg" xmlns:xlink="http://www.w3.org/1999/xlink" width="1024" height="1024" viewBox="0 0 1024 1024"><defs><path id="o" d="M63 194.89h897.355v633.674H63z"/></defs><clipPath id="p"><use xlink:href="#o" overflow="visible"/></clipPath><path d="M948.261 205.224c-14.992-14.064-38.641-13.392-52.707 1.639L398.089 736.522 126.341 468.764c-14.697-14.474-38.306-14.326-52.781.37-14.474 14.663-14.287 38.312.41 52.746l298.978 294.544c.114.108.262.149.376.256.108.114.147.262.262.376 2.344 2.237 5.184 3.506 7.905 4.996 1.343.785 2.499 1.941 3.917 2.499 4.399 1.719 9.066 2.613 13.688 2.613 4.89 0 9.773-.968 14.326-2.908 1.531-.637 2.722-1.941 4.138-2.76 2.801-1.645 5.709-3.023 8.094-5.448.114-.114.153-.296.262-.409.073-.114.227-.149.335-.262l523.614-557.446c14.179-14.959 13.394-38.569-1.604-52.707zm0 0" clip-path="url(#p)"/></svg>