<svg xmlns="http://www.w3.org/2000/svg" xmlns:xlink="http://www.w3.org/1999/xlink" width="1024" height="1024" viewBox="0 0 1024 1024"><defs><path id="A" d="M62.958 155.803h897.229v711.896H62.958z"/></defs><clipPath id="B"><use xlink:href="#A" overflow="visible"/></clipPath><path d="M953.922 283.61c-3.618-3.697-8.061-5.598-13.2-5.657-12.545-.141-26.571 10.966-36.119 20.304l-341.71 331.95c-12.529 12.257-58.653 87.171-60.607 90.354l-7.471 12.149 12.164-7.447c3.227-1.97 79.147-48.489 91.648-60.71l341.71-331.951c15.189-14.853 26.737-35.519 13.585-48.992zm0 0" clip-path="url(#B)"/><path d="M740.656 386.854c0 27.671-22.461 50.131-50.137 50.131-27.676 0-50.137-22.459-50.137-50.131 0-27.677 22.461-50.137 50.137-50.137 27.677.001 50.137 22.46 50.137 50.137zm0 0M214.252 562.314c-27.676 0-50.137-22.454-50.137-50.127 0-27.676 22.461-50.136 50.137-50.136 27.671 0 50.132 22.459 50.132 50.136 0 27.672-22.461 50.127-50.132 50.127zm0 0M289.449 386.854c0-27.677 22.465-50.137 50.136-50.137 27.672 0 50.137 22.459 50.137 50.137 0 27.671-22.465 50.131-50.137 50.131s-50.136-22.434-50.136-50.131zm0 0"/><g><defs><path id="C" d="M62.958 155.803h897.229v711.896H62.958z"/></defs><clipPath id="D"><use xlink:href="#C" overflow="visible"/></clipPath><path d="M464.918 336.718c0-27.671 22.46-50.132 50.132-50.132 27.676 0 50.136 22.461 50.136 50.132 0 27.672-22.46 50.137-50.136 50.137-27.672-.001-50.132-22.436-50.132-50.137zm0 0" clip-path="url(#D)"/><path d="M852.667 506.737c-23.043 149.319-159.101 300.647-352.769 300.647-36.868 0-76.18-7.294-107.851-20.006-33.685-13.522-48.963-29.421-52.028-39.786-1.598-5.412-3.099-11.323-4.693-17.581-4.66-18.348-9.944-39.141-20.299-56.393-18.416-30.689-44.914-37.132-63.908-37.132-7.182 0-14.834.919-22.729 2.718-12.892 2.942-25.423 4.434-37.224 4.434-25.184 0-67.625-6.678-68.93-51.427-6.605-228.476 181.16-352.567 370.163-374.197 13.367-1.53 27.667-2.302 42.505-2.302 53.246 0 111.801 10.021 152.82 26.16 9.269 3.647 14.407 6.028 39.292 18.225 25.716 12.6 46.46 30.502 63.048 47.756l30.224-53.202c-18.065-17.053-40.427-34.487-67.258-47.639-24.948-12.222-31.969-15.547-43.667-20.152-47.449-18.666-114.3-30.263-174.458-30.263-17.068 0-33.626.905-49.217 2.685-115.786 13.249-221.206 59.195-296.838 129.377-85.71 79.53-129.173 185.087-125.697 305.267 1.008 34.555 15.152 63.166 40.901 82.75 22.436 17.058 52.556 26.073 87.112 26.073 16.22 0 33.17-1.99 50.385-5.915 3.588-.817 6.811-1.238 9.568-1.238 11.498 0 17.033 10.071 26.914 48.968 1.662 6.527 3.373 13.274 5.294 19.781 9.456 31.984 39.435 58.917 86.702 77.89 38.407 15.421 85.742 24.259 129.87 24.259 54.228 0 106.722-10.159 156.021-30.194 46.353-18.837 88.71-45.868 125.901-80.35 35.826-33.221 65.425-71.961 87.962-115.155 22.578-43.262 36.975-88.872 42.794-135.586.259-2.121.508-4.332.733-6.561l.146-1.472v-.059c.225-2.342.405-4.707.572-7.084l-61.361 16.704zm0 0" clip-path="url(#D)"/></g></svg>