<svg xmlns="http://www.w3.org/2000/svg" width="1024" height="1024" viewBox="0 0 1024 1024"><path d="M175.863 221.01c0 12.357-10.017 22.373-22.372 22.373-12.357 0-22.373-10.017-22.373-22.373v-50.29c0-59.427 49.089-107.393 109.386-107.393h609.013c60.318 0 109.405 47.966 109.405 107.393v680.136c0 59.423-49.087 107.393-109.384 107.393H240.523c-60.317 0-109.405-47.97-109.405-107.393v-47.741c0-12.355 10.017-22.377 22.373-22.377 12.355 0 22.372 10.022 22.372 22.377v47.741c0 34.478 28.819 62.647 64.64 62.647h609.013c35.795 0 64.635-28.169 64.635-62.647V170.72c.025-34.478-28.794-62.647-64.614-62.647H240.523c-35.82 0-64.66 28.169-64.66 62.647v50.29zM86.372 331.804h134.237c12.357 0 22.377 10.017 22.377 22.373 0 12.355-10.021 22.372-22.377 22.372H86.372C74.017 376.549 64 366.533 64 354.177s10.017-22.373 22.372-22.373zm0 156.609h134.237c12.357 0 22.377 10.017 22.377 22.372 0 12.357-10.021 22.373-22.377 22.373H86.372C74.017 533.158 64 523.142 64 510.785c0-12.356 10.017-22.372 22.372-22.372zm0 156.614h134.237c12.357 0 22.377 10.015 22.377 22.372s-10.021 22.373-22.377 22.373H86.372C74.017 689.772 64 679.756 64 667.399c0-12.357 10.017-22.372 22.372-22.372zm333.583-340.742c-5.258 3.667-11.189 8.813-17.539 15.188a265.593 265.593 0 0 0-22.351 25.531c-6.489 7.605-12.864 24.744-13.181 35.795l-.287 2.617a37.893 37.893 0 0 0-.18 1.633c-1.725 18.076 2.014 42.508 11.881 70.59 17.38 49.395 51.187 101.171 101.949 154.191 52.13 54.48 104.438 89.491 155.493 105.76 15.285 4.875 29.915 7.829 43.629 8.972a19.569 19.569 0 0 1 16.674 10.988 19.584 19.584 0 0 1-1.644 19.9 19.566 19.566 0 0 1-18.251 8.107 237.156 237.156 0 0 1-52.308-10.693c-57.476-18.327-115.264-56.83-171.869-115.985-54.546-56.958-91.303-113.43-110.588-168.243-11.768-33.449-16.223-63.426-13.918-87.319.111-1.235.224-2.377.379-3.36.895-19.218 10.292-44.095 21.701-57.455a305.752 305.752 0 0 1 25.149-28.682c7.968-7.963 15.551-14.517 22.823-19.597 19.08-13.38 36.133-17.047 49.713-9.018 11.455 5.238 21.968 22.086 44.746 68.465 1.899 3.825 3.845 7.829 5.862 12.013a2303.576 2303.576 0 0 1 32.979 71.951c5.745 12.996 4.183 30.741-3.76 42.529l-28.548 42.399c1.342 5.638 15.102 25.235 40.024 50.63 21.119 21.523 39.824 36.177 55.51 43.962 4.25 2.104 7.917 3.533 10.892 4.296l36.516-26.935c11.589-7.834 29.081-9.668 42.016-4.475l5.771 2.305a2122.703 2122.703 0 0 1 61.009 25.66c4.768 2.105 9.31 4.137 13.652 6.13 41.525 18.998 56.667 28.037 61.972 39.465 12.956 24.458-1.7 50.563-41.391 85.579a447.156 447.156 0 0 1-14.855 12.53 19.579 19.579 0 0 1-31.62-12.489 19.573 19.573 0 0 1 7.348-18.23l3.646-2.976a413.943 413.943 0 0 0 9.576-8.188c17.897-15.772 31.231-33.157 32.394-37.587a104.187 104.187 0 0 0-9.264-5.684c-8.234-4.588-19.683-10.246-34.093-16.827a1844.873 1844.873 0 0 0-72.962-31.052l-5.704-2.278a11.314 11.314 0 0 0-5.612.557l-45.575 30.741a19.976 19.976 0 0 1-10.518 3.353c-7.918.159-18.409-2.775-30.628-8.859-19.801-9.842-41.856-26.981-66.001-51.591-39.733-40.475-55.751-69.489-49.755-90.12.671-2.28 1.563-4.317 2.93-6.422l30.807-45.748c.522-1.587.661-3.272.404-4.921l-2.687-6.042a2561.758 2561.758 0 0 0-29.753-64.727 1435.15 1435.15 0 0 0-5.709-11.701 668.366 668.366 0 0 0-20.136-38.483c-2.908-5.008-5.392-8.946-7.312-11.589a60.106 60.106 0 0 0-9.422 5.413l-.024.026zm0 0" fill="#333"/></svg>