<svg xmlns="http://www.w3.org/2000/svg" xmlns:xlink="http://www.w3.org/1999/xlink" width="1024" height="1024" viewBox="0 0 1024 1024"><defs><path id="G" d="M64 62.89h895.558v896.519H64z"/></defs><clipPath id="H"><use xlink:href="#G" overflow="visible"/></clipPath><path d="M930.735 762.573H818.884V243.596L923.268 139.35c10.907-10.903 10.907-28.632 0-39.568-10.902-10.932-28.632-10.932-39.567 0l-103.63 103.523H259.614V91.447c0-15.434-12.502-27.961-27.965-27.961s-27.962 12.527-27.962 27.961v111.856H91.831c-15.434 0-27.962 12.498-27.962 27.961 0 15.465 12.528 27.967 27.962 27.967h111.855v531.304c0 2.573.811 4.894 1.481 7.246.281 1.062.226 2.15.614 3.157a27.834 27.834 0 0 0 15.438 15.463c1.203.478 2.518.418 3.747.73 2.21.559 4.305 1.37 6.682 1.37h531.307v111.852c0 15.438 12.528 27.965 27.962 27.965 15.438 0 27.967-12.527 27.967-27.965V818.501h111.851c15.438 0 27.967-12.527 27.967-27.965 0-15.435-12.529-27.963-27.967-27.963zM724.058 259.231L259.614 723.06V259.231h464.444zM299.182 762.573l463.773-463.13v463.13H299.182zm0 0" clip-path="url(#H)"/></svg>