<svg xmlns="http://www.w3.org/2000/svg" width="1024" height="1024" viewBox="0 0 1024 1024"><path d="M608.104 767.024c-17.698 0-32.002-14.304-32.002-32.002v-352.07c0-17.698 14.304-32.009 32.002-32.009s32.009 14.31 32.009 32.009v352.07c-.001 17.698-14.311 32.002-32.009 32.002zm-192.034 0c-17.705 0-32.009-14.304-32.009-32.002v-352.07c0-17.698 14.304-32.009 32.009-32.009 17.698 0 32.002 14.31 32.002 32.009v352.07c.001 17.698-14.303 32.002-32.002 32.002zm512.095-544.103H768.134V158.91c0-52.94-42.728-96.02-95.282-96.02H352.053c-52.934 0-96.013 43.08-96.013 96.02v64.011H96.009C78.304 222.921 64 237.225 64 254.93c0 17.698 14.304 32.002 32.009 32.002h832.156c17.698 0 32.009-14.304 32.009-32.002 0-17.705-14.31-32.009-32.009-32.009zM320.051 158.91c0-17.636 14.368-32.009 32.002-32.009h320.799c17.543 0 31.271 14.051 31.271 32.009v64.011H320.051V158.91zm416.207 800.154H288.106c-52.935 0-96.015-43.08-96.015-96.02V382.473c0-17.67 14.339-32.007 32.004-32.007 17.67 0 32.007 14.338 32.007 32.007v480.571c0 17.67 14.369 32.009 32.004 32.009h448.153c17.665 0 32.004-14.339 32.004-32.009V383.782c0-17.665 14.309-32.004 32.007-32.004 17.7 0 32.009 14.339 32.009 32.004v479.262c-.001 52.94-43.085 96.02-96.021 96.02zm0 0"/></svg>