<svg xmlns="http://www.w3.org/2000/svg" width="1024" height="1024" viewBox="0 0 1024 1024"><path d="M229.796 415.927c.183.183.371.367.555.546l251.413 248.539c7.275 7.669 17.554 12.463 28.961 12.463 12.983 0 24.514-6.205 31.803-15.803l248.154-243.4c8.574-7.319 14.013-18.198 14.013-30.357 0-22.039-17.867-39.911-39.912-39.911H615.607V144.802c0-22.039-17.866-39.911-39.911-39.911h-129.94c-22.043 0-39.915 17.872-39.915 39.911v203.203H258.223c-22.043 0-39.911 17.872-39.911 39.911 0 10.918 4.383 20.803 11.484 28.011zm0 0"/><path d="M943.408 718.913L803.056 587.684h-.286c-7.311-9.191-18.583-15.091-31.244-15.091-12.661 0-23.933 5.9-31.243 15.091a39.718 39.718 0 0 0-8.668 24.819c0 .693.018 1.388.054 2.073l-.228.703 16.653 94.527H644.321c-31.19 39.41-79.436 64.695-133.597 64.695-54.156 0-102.408-25.286-133.598-64.695H273.274l16.653-94.527-.223-.703c.035-.685.054-1.38.054-2.073 0-9.384-3.25-18.006-8.671-24.819-7.311-9.191-18.583-15.091-31.244-15.091-12.661 0-23.933 5.9-31.244 15.091h-.286l-141.4 132.209c-8.22 7.311-13.403 17.966-13.403 29.829v129.94c0 22.045 17.872 39.915 39.911 39.915h814.61c22.044 0 39.915-17.871 39.915-39.915v-129.94c-.002-12.405-5.66-23.485-14.538-30.809zM682.611 879.661c-22.043 0-39.911-17.871-39.911-39.911 0-22.043 17.867-39.915 39.911-39.915 22.045 0 39.911 17.872 39.911 39.915 0 22.041-17.866 39.911-39.911 39.911zm121.971 0c-22.043 0-39.915-17.871-39.915-39.911 0-22.043 17.872-39.915 39.915-39.915s39.911 17.872 39.911 39.915c0 22.041-17.867 39.911-39.911 39.911zm0 0"/></svg>