<svg xmlns="http://www.w3.org/2000/svg" xmlns:xlink="http://www.w3.org/1999/xlink" width="1024" height="1024" viewBox="0 0 1024 1024"><defs><path id="K" d="M63.475 83.2h896.083v857.304H63.475z"/></defs><clipPath id="L"><use xlink:href="#K" overflow="visible"/></clipPath><path d="M831.103 450.46c-14.72 0-26.634 11.871-26.634 26.514v335.675c0 40.627-33.189 73.657-73.958 73.657H190.689c-40.788 0-73.983-33.03-73.983-73.657V275.045c0-40.603 33.194-73.675 73.983-73.675h422.727c14.681 0 26.616-11.852 26.616-26.495 0-14.638-11.934-26.513-26.616-26.513H190.689c-70.132 0-127.213 56.839-127.213 126.684V812.63c0 69.846 57.057 126.679 127.213 126.679h539.822c70.112 0 127.189-56.833 127.189-126.679V476.953c.018-14.622-11.91-26.493-26.597-26.493zm-402.772-95.122c0-14.638-11.909-26.514-26.616-26.514H219.989c-14.701 0-26.615 11.876-26.615 26.514 0 14.624 11.914 26.495 26.615 26.495h181.726c14.706 0 26.616-11.871 26.616-26.495zM219.989 472.74c-14.701 0-26.615 11.87-26.615 26.514 0 14.638 11.914 26.489 26.615 26.489h128.475c14.706 0 26.615-11.851 26.615-26.489 0-14.644-11.909-26.514-26.615-26.514H219.989zm726.214-295.481L864.788 96.17c-16.741-16.697-46.002-16.697-62.743 0l-100.228 99.825L845.95 339.542l100.291-99.826c17.271-17.27 17.251-45.27-.038-62.457zm-100.234 87.319L777.1 195.994l56.328-56.124 68.889 68.607-56.348 56.101zM385.611 650.45l173.108-24.902 239.254-237.705c10.429-10.346 10.448-27.107.043-37.472-10.346-10.384-27.207-10.423-37.631-.038L533.652 575.614l-81.741 11.749 15.498-80.905 227.199-225.689c10.404-10.346 10.448-27.105.039-37.491-10.361-10.366-27.202-10.366-37.631-.039L418.193 480.498 385.611 650.45zm0 0" clip-path="url(#L)"/></svg>