<svg xmlns="http://www.w3.org/2000/svg" width="1024" height="1024" viewBox="0 0 1024 1024"><path d="M922.816 734.255c0 28.456-23.072 51.479-51.485 51.479H152.835c-28.401 0-51.475-23.023-51.475-51.479V289.944a51.229 51.229 0 0 1 9.77-30.157l385.677 353.295a17.618 17.618 0 0 0 1.959 2.164c3.675 3.364 8.5 5.016 13.31 4.965 4.818.051 9.658-1.601 13.332-4.965a17.533 17.533 0 0 0 2.153-2.388l385.251-353.403a51.209 51.209 0 0 1 10.005 30.487v444.313h-.001zM152.835 238.467h718.496c3.703 0 7.306.397 10.782 1.141L512.08 579.104 141.674 239.696a51.703 51.703 0 0 1 11.161-1.229zm704.37-34.186H166.967c-56.81 0-102.96 46.048-102.96 102.96v409.82c0 56.81 46.15 102.86 102.96 102.86h690.237c56.865 0 102.966-46.05 102.966-102.86v-409.82c.001-56.912-46.1-102.96-102.965-102.96z" fill="#3b3c3c"/></svg>