<svg xmlns="http://www.w3.org/2000/svg" xmlns:xlink="http://www.w3.org/1999/xlink" width="1024" height="1024" viewBox="0 0 1024 1024"><path d="M750.149 451.055c103.893 0 188.492 84.227 188.492 187.745s-84.538 187.749-188.492 187.749c-103.948 0-188.491-84.23-188.491-187.749s84.543-187.745 188.491-187.745m0-18.421c-114.245 0-206.848 92.295-206.848 206.167 0 113.877 92.602 206.17 206.848 206.17 114.251 0 206.852-92.293 206.852-206.17 0-113.873-92.601-206.167-206.852-206.167zm0 0M486.796 535.593a9.102 9.102 0 0 1-5.769-2.048L86.119 214.869c-3.966-3.165-4.585-8.995-1.425-12.966 3.161-3.97 9.058-4.528 12.961-1.363l389.018 313.901 370.345-313.715c3.97-3.284 9.8-2.792 12.961 1.055 3.289 3.908 2.792 9.738-1.055 12.961l-376.112 318.68a9.421 9.421 0 0 1-6.016 2.171zm0 0"/><defs><path id="M" d="M64 178.89h893.872v667.242H64z"/></defs><clipPath id="N"><use xlink:href="#M" overflow="visible"/></clipPath><path d="M91.888 666.775c-2.357 0-4.714-.87-6.511-2.729a9.207 9.207 0 0 1 0-13.023l244.5-243.696c3.595-3.597 9.426-3.597 13.023 0 3.6 3.6 3.6 9.431 0 13.026L98.404 664.046c-1.799 1.86-4.222 2.729-6.516 2.729zm0 0" clip-path="url(#N)"/><path d="M485.925 685.567H110.683c-25.804 0-46.828-20.963-46.828-46.766V226.468c0-25.742 21.024-46.706 46.828-46.706h733.436c25.86 0 46.89 20.963 46.89 46.706v183.031c0 5.087-4.16 9.18-9.242 9.18-5.087 0-9.242-4.093-9.242-9.18V226.468c0-15.569-12.715-28.284-28.406-28.284H110.683c-15.691 0-28.406 12.715-28.406 28.284V638.8c0 15.568 12.715 28.283 28.406 28.283h375.243c5.087 0 9.18 4.155 9.18 9.242-.001 5.086-4.094 9.242-9.181 9.242zm0 0" clip-path="url(#N)"/><path d="M835.619 740.581c-2.172 0-4.406-.804-6.204-2.356L658.357 586.203c-3.847-3.473-4.16-9.304-.809-13.146a9.384 9.384 0 0 1 13.15-.809L841.761 724.27a9.384 9.384 0 0 1 .804 13.151c-1.859 2.043-4.404 3.16-6.946 3.16zm0 0"/><path d="M664.617 740.581c-2.542 0-5.082-1.117-6.946-3.161-3.412-3.847-3.038-9.677.808-13.151l171.059-152.022c3.787-3.411 9.616-3.099 13.151.809 3.411 3.843 3.038 9.673-.804 13.146L670.821 738.225c-1.798 1.552-4.031 2.356-6.204 2.356zm0 0"/></svg>