<svg xmlns="http://www.w3.org/2000/svg" xmlns:xlink="http://www.w3.org/1999/xlink" width="1024" height="1024" viewBox="0 0 1024 1024"><defs><path id="W" d="M63.509 63.894h894.466v895.664H63.509z"/></defs><clipPath id="X"><use xlink:href="#W" overflow="visible"/></clipPath><path d="M956.263 403.696c-3.797-11.342-13.604-19.647-25.457-21.465l-269.843-41.653L540.386 82.423c-5.239-11.211-16.517-18.395-28.877-18.429h-.064a31.906 31.906 0 0 0-28.874 18.302L360.934 339.843 90.711 380.57a31.955 31.955 0 0 0-25.52 21.367c-3.837 11.342-.994 23.891 7.344 32.454l196.093 201.711-46.8 284.281a31.948 31.948 0 0 0 13.096 31.272c9.967 7.057 23.126 7.793 33.829 1.915l241.38-132.785 240.874 133.613a32.451 32.451 0 0 0 15.489 3.963h.644c17.663 0 31.938-14.281 31.938-31.944 0-3.958-.701-7.76-2.012-11.273l-44.811-278.183L948.82 436.083c8.305-8.529 11.215-21.05 7.443-32.387zm0 0" clip-path="url(#X)"/></svg>