<svg xmlns="http://www.w3.org/2000/svg" xmlns:xlink="http://www.w3.org/1999/xlink" width="1024" height="1024" viewBox="0 0 1024 1024"><defs><path id="Y" d="M62.987 63.754h894.606v895.804H62.987z"/></defs><clipPath id="Z"><use xlink:href="#Y" overflow="visible"/></clipPath><path d="M766.089 958.359a31.858 31.858 0 0 1-15.492-4.022l-240.91-133.635-241.423 132.801c-10.7 5.913-23.861 5.143-33.83-1.916a31.972 31.972 0 0 1-13.098-31.276l46.802-284.261L72.019 434.307c-8.242-8.496-11.153-20.893-7.444-32.139a31.961 31.961 0 0 1 24.978-21.594l154.815-26.548c17.602-2.939 33.927 8.72 36.901 26.099 2.969 17.379-8.692 33.898-26.104 36.902l-95.008 16.29 165.067 169.795a32.041 32.041 0 0 1 8.628 27.444l-38.754 235.286 199.286-109.641c9.613-5.304 21.308-5.304 30.891.062l198.838 110.28-37.954-235.383c-1.629-9.997 1.629-20.185 8.692-27.41l164.393-167.971-225.287-34.762c-10.539-1.627-19.547-8.399-24.086-18.05l-99.033-212.03-99.898 211.489c-7.541 15.975-26.582 22.779-42.555 15.238-15.941-7.541-22.774-26.577-15.238-42.551l128.94-272.987c5.299-11.183 16.545-18.304 28.877-18.304h.064a31.973 31.973 0 0 1 28.883 18.432L660.503 340.45l269.887 41.659c11.855 1.818 21.662 10.124 25.46 21.468 3.774 11.339.864 23.896-7.473 32.422l-196.6 200.879 45.842 284.394c1.949 12.075-3.193 24.212-13.192 31.242-5.464 3.928-11.883 5.845-18.338 5.845zm0 0" clip-path="url(#Z)"/></svg>