<svg xmlns="http://www.w3.org/2000/svg" xmlns:xlink="http://www.w3.org/1999/xlink" width="1024" height="1024" viewBox="0 0 1024 1024"><defs><path id="m" d="M64.161 64.159h896.025v894.52H64.161z"/></defs><clipPath id="n"><use xlink:href="#m" overflow="visible"/></clipPath><path d="M868.601 285.423H726.614c18.16-23.114 29.166-52.285 29.166-84.201 0-75.399-61.087-136.486-135.935-136.486-45.126 0-84.752 22.012-109.513 56.132-24.768-34.12-64.945-56.132-109.52-56.132-74.848 0-135.935 61.087-135.935 136.486 0 31.916 11.005 61.087 29.166 84.201h-141.99c-48.428 0-88.053 39.626-88.053 88.053v109.52c0 40.171 26.415 73.745 63.291 84.752v301.588c0 47.33 38.524 85.854 85.85 85.854h287.832c3.301 1.098 6.602 2.199 10.455 2.199s7.153-.551 10.46-2.199h287.826c47.33 0 85.854-38.524 85.854-85.854V567.748c36.32-11.007 63.287-44.581 63.287-84.752v-109.52c-2.201-48.428-41.827-88.053-90.254-88.053zM619.844 117.015c46.229 0 83.656 37.426 83.656 83.656 0 46.228-37.426 83.649-83.656 83.649h-83.649v-83.649c0-46.23 37.421-83.656 83.649-83.656zm-219.585 0c46.228 0 83.649 37.426 83.649 83.656v84.201h-83.649c-46.23 0-83.105-37.422-83.105-83.65-.545-46.781 36.876-84.207 83.105-84.207zM115.734 482.996v-109.52c0-19.813 15.955-35.774 35.223-35.774h332.401V518.77H150.957c-19.267 0-35.223-15.961-35.223-35.774zm63.286 386.891V571.6h304.889v331.304H212.595c-18.716.001-33.575-14.857-33.575-33.017zm628.494 33.018H536.195V571.6h304.887v298.286c0 18.161-14.857 33.019-33.568 33.019zm96.309-419.909c0 19.813-15.961 35.774-35.223 35.774H536.195V337.702h332.406c19.262 0 35.223 15.961 35.223 35.774v109.52zm0 0" clip-path="url(#n)"/><path d="M619.844 117.015c46.229 0 83.656 37.426 83.656 83.656 0 46.228-37.426 83.649-83.656 83.649h-83.649v-83.649c0-46.23 37.421-83.656 83.649-83.656zm0 0M400.259 117.015c46.228 0 83.649 37.426 83.649 83.656v84.201h-83.649c-46.23 0-83.105-37.422-83.105-83.65-.545-46.781 36.876-84.207 83.105-84.207zm0 0"/></svg>