<svg xmlns="http://www.w3.org/2000/svg" xmlns:xlink="http://www.w3.org/1999/xlink" width="1024" height="1024" viewBox="0 0 1024 1024"><defs><path id="k" d="M63.909 70.301h895.994v883.413H63.909z"/></defs><clipPath id="l"><use xlink:href="#k" overflow="visible"/></clipPath><path d="M443.941 370.524c-1.346 0-2.687-.082-4.033-.268-44.764-5.758-109.025-23.257-160.873-73.862-35.452-34.637-47.86-85.242-32.395-132.088 16.397-49.79 61.127-84.32 119.567-92.379 31.419-4.253 63.609 6.187 88.763 28.771 23.686 21.346 41.876 42.223 55.47 64.223 12.37-18.235 28.201-36.464 47.983-55.47 32.92-31.624 79.401-44.198 120.913-32.906 50.053 13.593 87.128 49.347 99.177 95.642 11.516 44.378-1.751 91.975-34.716 124.189-40.371 39.371-92.585 63.993-155.218 73.213-17.134 2.584-32.964-9.303-35.491-26.392-2.52-17.075 9.323-32.946 26.373-35.471 49.367-7.241 89.943-26.104 120.669-56.061 17.172-16.827 23.89-40.654 17.864-63.751-6.387-24.685-26.45-43.281-55.022-51.053-20.429-5.456-44.32 1.424-61.248 17.659-37.279 35.837-55.876 65.237-62.102 98.388-2.808 14.773-15.71 25.455-30.726 25.455-15.017 0-27.918-10.682-30.727-25.455-6.432-34.125-19.986-65.179-65.038-105.73-11.229-10.118-25.598-15.139-38.377-13.311-34.793 4.783-59.864 23.013-68.776 50.015-7.9 23.993-1.468 49.976 16.767 67.782 41.512 40.575 96.246 52.867 125.145 56.611 17.133 2.199 29.22 17.864 27.021 34.978-2.038 15.774-15.51 27.271-30.97 27.271zm0 0" clip-path="url(#l)"/><path d="M800.121 952.514h-577.41c-34.964 0-63.37-31.478-63.37-70.161V498.941h704.105v383.411c0 38.684-28.404 70.162-63.325 70.162zM221.853 561.452v320.9c0 5.09 2.199 7.732 2.726 8.098l575.42-.444c-1.141-.082.936-2.71.936-7.654l-.814-320.9H221.853zm0 0"/><path d="M837.157 558.079H185.675c-67.153 0-121.766-54.618-121.766-121.766v-6.533c0-67.153 54.618-121.766 121.766-121.766h651.482c67.153 0 121.766 54.613 121.766 121.766v6.533c.001 67.148-54.617 121.766-121.766 121.766zM185.675 370.524c-32.682 0-59.255 26.573-59.255 59.255v6.528c0 32.682 26.573 59.26 59.255 59.26h651.482c32.682 0 59.255-26.578 59.255-59.26v-6.528c0-32.682-26.572-59.255-59.255-59.255H185.675zm0 0"/></svg>