<svg xmlns="http://www.w3.org/2000/svg" xmlns:xlink="http://www.w3.org/1999/xlink" width="1024" height="1024" viewBox="0 0 1024 1024"><defs><path id="ae" d="M64.499 63.392h892.06v896.166H64.499z"/></defs><clipPath id="af"><use xlink:href="#ae" overflow="visible"/></clipPath><path d="M929.689 449.717L588.658 97.503C566.295 75.139 538.34 63.96 510.389 63.96c-27.956 0-55.911 11.179-78.269 33.543L91.09 449.717c-33.547 39.135-27.955 67.086-22.364 83.857 0 5.592 16.771 33.547 55.906 33.547h50.314v273.941c0 61.497 44.726 117.403 106.225 117.403h145.358V673.34c0-33.543-5.592-50.314 27.95-50.314h111.817c33.543 0 27.95 16.771 27.95 50.314v285.125h145.359c61.497 0 106.224-55.906 106.224-117.403V567.121h50.314c39.135 0 55.91-27.956 55.91-33.547 5.586-16.772 11.178-44.723-22.364-83.857zm-33.547 61.498H789.923v329.847c0 33.542-22.364 61.497-50.318 61.497h-89.448V673.34c0-61.493-22.364-106.219-83.861-106.219H454.478c-61.493 0-83.856 44.726-83.856 106.219v229.219H281.17c-27.951 0-50.314-33.543-50.314-61.497V511.215H124.631v-5.593c0-5.592 5.592-11.184 11.18-16.771l341.031-352.214c5.592-11.18 22.363-16.772 33.547-16.772 11.179 0 27.95 5.592 39.134 16.772l341.032 352.214c0 5.588 5.587 16.771 5.587 22.364 0-5.593 0 0 0 0zm0 0" clip-path="url(#af)"/></svg>