<svg xmlns="http://www.w3.org/2000/svg" xmlns:xlink="http://www.w3.org/1999/xlink" width="1024" height="1024" viewBox="0 0 1024 1024"><defs><path id="ag" d="M63.499 63.394h895.203v896.164H63.499z"/></defs><clipPath id="ah"><use xlink:href="#ag" overflow="visible"/></clipPath><path d="M510.623 63.962c-247.099 0-447.254 200.155-447.254 447.254 0 246.876 200.261 447.249 447.254 447.249 246.988 0 447.249-200.151 447.249-447.249-.001-247.099-200.262-447.254-447.249-447.254zm0 841.865c-217.993 0-394.616-176.623-394.616-394.61C116.114 293.223 292.74 116.6 510.623 116.6c217.987 0 394.61 176.623 394.61 394.616 0 217.988-176.623 394.611-394.61 394.611zm0 0" clip-path="url(#ah)"/><path d="M510.623 362.169c-20.576 0-37.318-16.635-37.318-37.318 0-20.576 16.634-37.318 37.318-37.318 20.571 0 37.312 16.634 37.312 37.318-.106 20.572-16.742 37.318-37.312 37.318zm0 0M510.623 734.788c-20.576 0-37.318-16.635-37.318-37.318V455.293c0-20.572 16.634-37.318 37.318-37.318 20.571 0 37.312 16.634 37.312 37.318v242.283c-.106 20.576-16.742 37.212-37.312 37.212zm0 0"/></svg>