<svg xmlns="http://www.w3.org/2000/svg" xmlns:xlink="http://www.w3.org/1999/xlink" width="1024" height="1024" viewBox="0 0 1024 1024"><defs><path id="a" d="M117.256 63.701H906.75v895.914H117.256z"/></defs><clipPath id="b"><use xlink:href="#a" overflow="visible"/></clipPath><path d="M455.179 556.254c4.957 0 9.762-2.585 12.505-7.216l70.347-120.668c9.66-16.778 12.178-36.183 7.196-54.872-4.976-18.635-16.962-34.204-33.694-43.853-33.349-19.25-79.524-6.814-98.721 26.441-1.731 2.996-3.265 6.086-4.521 9.229a66.706 66.706 0 0 0-8.492-5.719c-33.368-19.251-79.558-6.751-98.754 26.44-9.658 16.68-12.176 36.16-7.181 54.833 4.962 18.679 16.928 34.214 33.627 43.917l120.454 69.511c2.322 1.311 4.785 1.957 7.234 1.957zm0 0" clip-path="url(#b)"/><path d="M898.474 286.197c-8.124-14.063-21.24-24.07-36.824-28.264l-98.11-26.299v-31.75c0-33.467-27.232-60.69-60.703-60.69H602.196l-8.07-30.317c-8.506-31.593-42.607-51.421-74.402-42.925L162.113 161.75c-15.638 4.19-28.685 14.269-36.844 28.333-8.085 14.112-10.27 30.429-6.076 46.057l155.738 581.141c5.588 20.981 21.959 36.77 42.099 42.484l-.138.733 357.612 95.816c5.187 1.453 10.427 2.097 15.735 2.097 10.501 0 20.899-2.742 30.328-8.193 14.063-8.124 24.144-21.19 28.283-36.843l155.72-581.12c4.194-15.619 2.009-31.936-6.096-46.058zM702.838 168.036c17.554 0 31.827 14.324 31.827 31.848v433.688L609.969 168.036h92.869zM302.775 809.802L147.053 228.637c-2.166-8.124-1.046-16.738 3.25-24.134 4.264-7.396 11.111-12.681 19.251-14.889L527.22 93.802c2.688-.733 5.431-1.051 8.139-1.051 14.464 0 27.129 9.723 30.85 23.63l155.743 581.165c4.556 16.943-5.558 34.414-22.52 38.989L341.82 832.337c-16.861 4.508-34.591-5.939-39.045-22.535zM734.7 747.749v53.826c0 17.594-14.309 31.847-31.862 31.847H449.255l257.602-69.043c11.091-2.932 20.422-8.906 27.843-16.63zm-13.732 158.188c-2.18 8.173-7.421 14.987-14.881 19.318-7.391 4.229-16.004 5.416-24.144 3.231l-246.998-66.207h267.892c11.927 0 22.97-3.564 32.419-9.552l-14.288 53.21zm155.738-581.121L763.54 747.07V261.486l90.616 24.29c8.158 2.205 15.041 7.503 19.303 14.904 4.278 7.344 5.452 15.956 3.247 24.136zm0 0" clip-path="url(#b)"/></svg>