<svg xmlns="http://www.w3.org/2000/svg" xmlns:xlink="http://www.w3.org/1999/xlink" width="1024" height="1024" viewBox="0 0 1024 1024"><defs><path id="a" d="M63.818 297.223h896.34v430.015H63.818z"/></defs><clipPath id="b"><use xlink:href="#a" overflow="visible"/></clipPath><path d="M857.378 459.293c38.026-33.932 71.101-73.379 97.804-117.013 8.317-13.587 4.046-31.346-9.545-39.668-13.587-8.317-31.351-4.041-39.668 9.545C821.173 450.701 673.701 533.41 511.481 533.41c-162.117 0-309.545-82.63-394.365-221.047-8.322-13.587-26.086-17.847-39.668-9.522-13.587 8.322-17.852 26.086-9.525 39.668 25.712 41.96 57.309 80.055 93.542 113.081L77.95 557.429c-10.1 12.323-8.307 30.498 4.016 40.603a28.757 28.757 0 0 0 18.278 6.544c8.34 0 16.618-3.6 22.319-10.555l83.624-101.972a520.533 520.533 0 0 0 47.361 30.66c30.896 17.685 63.515 32.06 97.261 42.998L309.6 687.96c-5.089 15.1 3.027 31.462 18.122 36.557a28.798 28.798 0 0 0 9.222 1.518c12.039 0 23.275-7.602 27.335-19.645l42.449-125.936a521.237 521.237 0 0 0 104.754 10.658c36.772 0 73.31-3.899 108.981-11.525l56.01 124.213c4.815 10.676 15.32 16.994 26.315 16.994 3.963 0 7.998-.818 11.844-2.557 14.522-6.548 20.992-23.631 14.438-38.158l-52.258-115.892c32.129-10.75 63.216-24.64 92.72-41.548a517.84 517.84 0 0 0 42.443-27.148l96.982 96.98a28.773 28.773 0 0 0 20.4 8.45c7.385 0 14.766-2.816 20.399-8.45 11.269-11.264 11.269-29.533 0-40.799l-92.378-92.379zm0 0" clip-path="url(#b)"/></svg>