<svg xmlns="http://www.w3.org/2000/svg" xmlns:xlink="http://www.w3.org/1999/xlink" width="1024" height="1024" viewBox="0 0 1024 1024"><defs><path id="ai" d="M71.5 63.392h881.86v896.166H71.5z"/></defs><clipPath id="aj"><use xlink:href="#ai" overflow="visible"/></clipPath><path d="M952.472 364.868L813.35 425.155v-60.287H688.142c46.371-27.825 78.832-78.836 78.832-139.122 0-90.427-71.876-162.308-162.307-162.308-90.427 0-162.308 71.881-162.308 162.308 0 60.286 32.46 111.297 78.836 139.122H363.522c46.376-27.825 78.836-78.836 78.836-139.122 0-90.427-71.881-162.308-162.308-162.308-90.431 0-162.308 71.881-162.308 162.308 0 60.286 32.46 111.297 78.832 139.122H71.368v370.991h338.53L219.765 925.993l32.46 32.46L442.359 768.32l190.133 190.133 32.46-32.46-190.133-190.134H813.35v-60.286l139.122 60.286V364.868zM488.734 225.746c0-64.921 51.011-115.932 115.932-115.932 64.926 0 115.937 51.011 115.937 115.932 0 64.926-51.011 115.937-115.937 115.937-64.921 0-115.932-51.011-115.932-115.937zm-324.619 0c0-64.921 51.01-115.932 115.936-115.932 64.921 0 115.932 51.011 115.932 115.932 0 64.926-51.011 115.937-115.932 115.937-64.926 0-115.936-51.011-115.936-115.937zm602.859 463.738h-649.23v-278.24h649.23v278.24zm139.123-23.186l-92.747-37.101V471.529l92.747-37.1v231.869zm0 0" clip-path="url(#aj)"/></svg>