<svg xmlns="http://www.w3.org/2000/svg" xmlns:xlink="http://www.w3.org/1999/xlink" width="1024" height="1024" viewBox="0 0 1024 1024"><path d="M660.244 223.688c0 53.647 43.492 97.145 97.145 97.145 53.647 0 97.145-43.498 97.145-97.145 0-53.653-43.498-97.145-97.145-97.145-53.653 0-97.145 43.492-97.145 97.145zm0 0M780.703 492.776c0 48.288 39.142 87.43 87.43 87.43 48.287 0 87.43-39.142 87.43-87.43 0-48.287-39.143-87.43-87.43-87.43-48.288-.001-87.43 39.143-87.43 87.43zm0 0M672.871 765.754c0 42.923 34.792 77.716 77.716 77.716s77.716-34.792 77.716-77.716c0-42.923-34.792-77.716-77.716-77.716s-77.716 34.792-77.716 77.716zm0 0M413.008 869.701c0 37.552 30.443 68.001 68.001 68.001 37.559 0 68.001-30.449 68.001-68.001 0-37.559-30.443-68.001-68.001-68.001-37.558 0-68.001 30.442-68.001 68.001zm0 0"/><defs><path id="ak" d="M63.433 85.254h892.372v853.611H63.433z"/></defs><clipPath id="al"><use xlink:href="#ak" overflow="visible"/></clipPath><path d="M158.486 753.127c0 32.188 26.099 58.287 58.287 58.287 32.194 0 58.287-26.099 58.287-58.287 0-32.194-26.093-58.287-58.287-58.287-32.187 0-58.287 26.094-58.287 58.287zm0 0M63.287 488.891c0 26.824 21.748 48.572 48.572 48.572s48.572-21.748 48.572-48.572-21.748-48.572-48.572-48.572-48.572 21.748-48.572 48.572zm0 0" clip-path="url(#al)"/><path d="M186.663 222.715c0 21.459 17.394 38.858 38.858 38.858 21.458 0 38.858-17.399 38.858-38.858 0-21.464-17.4-38.858-38.858-38.858-21.464.001-38.858 17.394-38.858 38.858zm0 0M452.839 114.884c0 16.094 13.049 29.143 29.143 29.143s29.143-13.049 29.143-29.143-13.049-29.143-29.143-29.143-29.143 13.048-29.143 29.143zm0 0"/></svg>