<svg xmlns="http://www.w3.org/2000/svg" xmlns:xlink="http://www.w3.org/1999/xlink" width="1024" height="1024" viewBox="0 0 1024 1024"><path d="M490.578 676.003c-90.913 0-164.807-73.939-164.807-164.803V228.674c0-90.888 73.894-164.808 164.807-164.808 90.859 0 164.802 73.92 164.802 164.808V511.2c0 90.865-73.942 164.803-164.802 164.803zm0-565.05c-64.891 0-117.724 52.834-117.724 117.72V511.2c0 64.881 52.833 117.715 117.724 117.715 64.881 0 117.716-52.834 117.716-117.715V228.674c0-64.887-52.835-117.721-117.716-117.721zm0 0"/><defs><path id="ao" d="M184.507 63.394h654.194v896.333H184.507z"/></defs><clipPath id="ap"><use xlink:href="#ao" overflow="visible"/></clipPath><path d="M796.644 511.2c0-12.993-10.579-23.548-23.543-23.548-12.97 0-23.545 10.555-23.545 23.548 0 142.825-116.153 258.979-258.978 258.979-142.83 0-258.983-116.155-258.983-258.979 0-12.993-10.531-23.548-23.545-23.548-13.012 0-23.543 10.555-23.543 23.548 0 160.848 124.758 293.098 282.528 305.15v95.092h-70.633c-13.018 0-23.543 10.575-23.543 23.545 0 12.965 10.525 23.543 23.543 23.543h188.352c12.965 0 23.543-10.579 23.543-23.543 0-12.97-10.579-23.545-23.543-23.545h-70.636V816.35c157.817-12.052 282.526-144.302 282.526-305.15zm0 0" clip-path="url(#ap)"/><path d="M790.055 781.704L192.838 193.067c-11.009-10.847-11.112-28.548-.288-39.527 10.833-10.989 28.519-11.136 39.529-.288L829.3 741.889c10.954 10.805 11.116 28.539.282 39.532-10.823 10.979-28.572 11.082-39.527.283zm0 0" clip-path="url(#ap)"/></svg>