<svg xmlns="http://www.w3.org/2000/svg" xmlns:xlink="http://www.w3.org/1999/xlink" width="1024" height="1024" viewBox="0 0 1024 1024"><defs><path id="aq" d="M64.002 63.894H957.22v895.664H64.002z"/></defs><clipPath id="ar"><use xlink:href="#aq" overflow="visible"/></clipPath><path d="M947.868 488.59L823.973 364.7c-12.472-12.477-32.699-12.477-45.171 0-12.472 12.472-12.472 32.699 0 45.171l69.366 69.364H637.804c-17.639 0-31.939 14.3-31.944 31.939.005 17.644 14.305 31.944 31.944 31.944h210.363l-69.366 69.365c-12.472 12.474-12.472 32.699 0 45.172 6.239 6.234 14.412 9.353 22.585 9.353 8.174 0 16.353-3.114 22.586-9.353l123.89-123.895c12.478-12.471 12.478-32.693.006-45.17zm0 0M172.906 543.119h210.363c17.639 0 31.944-14.3 31.944-31.944 0-17.639-14.305-31.939-31.944-31.939H172.906l69.366-69.364c12.472-12.472 12.472-32.699 0-45.171-6.239-6.239-14.412-9.353-22.585-9.358-8.174 0-16.348 3.119-22.586 9.358L73.21 488.593c-12.477 12.474-12.477 32.695-.005 45.168L197.1 657.656c12.472 12.472 32.694 12.472 45.171 0 12.472-12.477 12.472-32.699 0-45.172l-69.365-69.365zm0 0M612.338 779.941l-69.361 69.361V638.944c0-17.638-14.3-31.943-31.944-31.943-17.638 0-31.938 14.305-31.938 31.943v210.363l-69.366-69.366c-12.472-12.472-32.699-12.472-45.171 0-6.239 6.239-9.358 14.412-9.358 22.586s3.119 16.351 9.358 22.586l123.89 123.889c12.472 12.477 32.699 12.477 45.171 0l123.895-123.889c12.472-12.474 12.472-32.7 0-45.172-12.477-12.472-32.699-12.477-45.176 0zm0 0M409.729 242.413l69.366-69.366V383.41c0 17.638 14.3 31.938 31.938 31.943 17.644-.005 31.944-14.305 31.944-31.943V173.047l69.366 69.366c12.472 12.472 32.694 12.472 45.171 0 6.234-6.239 9.353-14.412 9.353-22.586 0-8.174-3.119-16.346-9.353-22.585L533.619 73.352c-12.472-12.477-32.694-12.477-45.171 0l-123.89 123.89c-12.472 12.472-12.472 32.694 0 45.171 12.472 12.477 32.699 12.472 45.171 0zm0 0" clip-path="url(#ar)"/></svg>