<svg xmlns="http://www.w3.org/2000/svg" xmlns:xlink="http://www.w3.org/1999/xlink" width="1024" height="1024" viewBox="0 0 1024 1024"><defs><path id="as" d="M64.002 192.897h896.352v640.667H64.002z"/></defs><clipPath id="at"><use xlink:href="#as" overflow="visible"/></clipPath><path d="M933.838 193.451H90.041c-14.405 0-26.189 11.784-26.189 26.189 0 14.399 11.784 26.183 26.189 26.183h843.797c14.399 0 26.183-11.784 26.183-26.183 0-14.405-11.783-26.189-26.183-26.189zm0 0M933.838 779.988H90.041c-14.405 0-26.189 11.784-26.189 26.184 0 14.404 11.784 26.188 26.189 26.188h843.797c14.399 0 26.183-11.784 26.183-26.188 0-14.4-11.783-26.184-26.183-26.184zm0 0M933.838 486.503H90.041c-14.405 0-26.189 11.785-26.189 26.189 0 14.4 11.784 26.189 26.189 26.189h843.797c14.399 0 26.183-11.785 26.183-26.189s-11.783-26.189-26.183-26.189zm0 0" clip-path="url(#at)"/></svg>