<svg xmlns="http://www.w3.org/2000/svg" xmlns:xlink="http://www.w3.org/1999/xlink" width="1024" height="1024" viewBox="0 0 1024 1024"><defs><path id="au" d="M124.657 63.674h774.619v896.053H124.657z"/></defs><clipPath id="av"><use xlink:href="#au" overflow="visible"/></clipPath><path d="M499.109 592.647h20.12c16.826 0 30.271 13.441 30.271 30.268v142.713c0 16.822-13.445 30.267-30.271 30.267h-20.12c-16.827 0-30.267-13.445-30.267-30.267V622.826c.084-16.826 13.529-30.179 30.267-30.179zm335.99-102.564v366.085c0 21.813-18.519 40.327-40.326 40.327H225.435c-21.813 0-40.327-18.515-40.327-40.327V490.083h649.991m62.056-60.45H124.657v428.223c0 55.377 45.317 100.782 102.382 100.782h569.333c55.376 0 102.382-45.317 102.382-100.782V429.633h-1.599zm-82.263 0h-60.451v-60.447c0-137.727-114.312-243.584-243.579-243.584-132.654 0-243.58 110.843-243.58 243.584v60.447h-60.45v-60.447c0-166.218 139.416-305.634 305.63-305.634 164.614 0 305.634 132.654 305.634 305.634v60.447h-3.204zm0 0" clip-path="url(#av)"/></svg>