<svg xmlns="http://www.w3.org/2000/svg" width="1024" height="1024" viewBox="0 0 1024 1024"><path d="M737.873 913.989H286.318c-12.661 0-22.964-10.301-22.964-22.961V750.824h497.484v140.204c0 12.659-10.304 22.961-22.965 22.961zM286.318 110.258h451.553c12.663 0 22.966 10.303 22.966 22.963v567.747H263.354V133.221c0-12.661 10.303-22.963 22.964-22.963zM737.873 64.33H286.318c-37.986 0-68.891 30.906-68.891 68.891v757.807c0 37.987 30.906 68.89 68.891 68.89h451.553c37.986 0 68.893-30.902 68.893-68.89V133.221c.001-37.985-30.905-68.891-68.891-68.891zM512.095 782.643c-25.162 0-45.635 20.469-45.635 45.637 0 25.162 20.472 45.635 45.635 45.635 25.164 0 45.637-20.472 45.637-45.635-.001-25.168-20.473-45.637-45.637-45.637z" fill="#3b3c3c"/></svg>