<svg xmlns="http://www.w3.org/2000/svg" xmlns:xlink="http://www.w3.org/1999/xlink" width="1024" height="1024" viewBox="0 0 1024 1024"><defs><path id="aw" d="M64 62.89h896.186v897.148H64z"/></defs><clipPath id="ax"><use xlink:href="#aw" overflow="visible"/></clipPath><path d="M511.614 958.944c-246.88 0-447.746-200.844-447.746-447.74 0-246.902 200.866-447.746 447.746-447.746 246.874 0 447.74 200.844 447.74 447.746 0 246.896-200.865 447.74-447.74 447.74zm0-852.845c-223.382 0-405.105 181.723-405.105 405.105 0 223.381 181.723 405.1 405.105 405.1 223.381 0 405.1-181.719 405.1-405.1 0-223.382-181.719-405.105-405.1-405.105zm0 0" clip-path="url(#ax)"/><path d="M385.628 317.37L717.19 511.204 385.628 693.649V317.37zm0 0"/></svg>