<svg xmlns="http://www.w3.org/2000/svg" xmlns:xlink="http://www.w3.org/1999/xlink" width="1024" height="1024" viewBox="0 0 1024 1024"><defs><path id="aE" d="M62.973 129.36h897.213v767.65H62.973z"/></defs><clipPath id="aF"><use xlink:href="#aE" overflow="visible"/></clipPath><path d="M476.938 805.774c0 18.876-15.623 34.498-34.498 34.498-9.172 0-17.771-3.773-24.27-10.247l-179.46-179.49H97.471c-18.876 0-34.498-15.623-34.498-34.498V409.055c0-18.869 15.623-34.492 34.498-34.492H238.71l179.459-179.484c6.5-6.476 15.098-10.252 24.27-10.252 18.876 0 34.498 15.623 34.498 34.498v586.449zm123.414-166.56c-4.297 2.149-9.119 2.698-13.475 2.698-18.821 0-34.493-15.098-34.493-34.497 0-40.973 62.541-29.647 62.541-94.866s-62.541-53.897-62.541-94.87c0-19.395 15.672-34.493 34.493-34.493 4.352 0 9.177.55 13.475 2.698 50.7 19.949 83.569 72.768 83.569 126.665 0 53.893-32.869 106.191-83.569 126.665zm54.471 127.215c-4.296 1.623-9.172 2.698-13.475 2.698-19.394 0-35.071-15.648-35.071-34.498 0-15.098 8.648-25.345 21.022-31.794 14.573-7.549 28.048-14.025 40.998-23.722 53.373-38.825 84.618-100.791 84.618-166.565 0-65.768-31.245-127.739-84.618-166.559-12.95-9.698-26.425-16.173-40.998-23.722-12.37-6.45-21.022-16.702-21.022-31.8 0-18.845 15.677-34.497 34.497-34.497 4.876 0 9.753 1.073 14.049 2.702 101.346 42.597 167.09 144.462 167.09 253.876 0 109.42-65.744 211.285-167.09 253.881zm54.423 126.661c-4.301 1.63-9.177 2.703-13.998 2.703-18.876 0-34.498-15.623-34.498-34.497 0-15.624 8.074-24.246 21.024-31.795 7.549-4.326 16.147-7.029 24.275-11.327 15.044-8.098 30.142-17.246 44.195-27.498 88.391-65.219 140.66-168.163 140.66-278.127 0-109.968-52.269-212.908-140.66-278.126-14.054-10.252-29.152-19.4-44.195-27.499-8.128-4.296-16.726-6.999-24.275-11.325-12.95-7.549-21.024-16.173-21.024-31.795 0-18.874 15.623-34.498 34.498-34.498 4.821 0 9.697 1.075 13.998 2.703 152.036 65.219 250.653 215.056 250.653 380.541s-98.618 315.322-250.653 380.54zm0 0" clip-path="url(#aF)"/></svg>