<svg xmlns="http://www.w3.org/2000/svg" xmlns:xlink="http://www.w3.org/1999/xlink" width="1024" height="1024" viewBox="0 0 1024 1024"><defs><path id="aA" d="M64 62.89h895.147v896.668H64z"/></defs><clipPath id="aB"><use xlink:href="#aA" overflow="visible"/></clipPath><path d="M625.048 371.354c.154.798.296 1.597.526 2.389.228.848.513 1.659.829 2.451.149.458.26.916.434 1.355.105.236.247.428.315.662.364.824.792 1.603 1.218 2.396.36.631.675 1.263 1.077 1.881.452.724.978 1.393 1.485 2.099.428.588.849 1.157 1.301 1.725a33.409 33.409 0 0 0 1.844 1.882c.494.49.971 1.016 1.485 1.442.7.601 1.431 1.12 2.155 1.659.526.402 1.065.811 1.665 1.176.742.509 1.534.928 2.326 1.344.645.328 1.244.662 1.895.935.284.136.556.315.835.458.558.204 1.108.347 1.653.507.681.253 1.355.471 2.055.681.854.247 1.751.42 2.605.594.713.13 1.399.284 2.104.341.922.136 1.857.185 2.798.204.428.03.854.092 1.288.124h215.83a32.56 32.56 0 0 0 23.055-9.545 32.563 32.563 0 0 0 9.545-23.049 32.578 32.578 0 0 0-9.545-23.06 32.55 32.55 0 0 0-23.055-9.545H735.625l213.491-213.497a32.448 32.448 0 0 0 8.968-29.269 32.36 32.36 0 0 0-8.943-16.858 32.516 32.516 0 0 0-23.062-9.526 32.404 32.404 0 0 0-23.068 9.538l.006.017L689.54 286.369v-137.14a32.615 32.615 0 0 0-20.127-30.149 32.615 32.615 0 0 0-35.552 7.081 32.496 32.496 0 0 0-9.556 23.068l.013 215.842c0 .458.098.898.098 1.363.049 1.658.26 3.306.632 4.92zM397.636 649.993c-.154-.797-.296-1.596-.532-2.394a21.404 21.404 0 0 0-.822-2.445c-.149-.458-.26-.916-.434-1.356-.105-.234-.247-.426-.315-.662-.364-.822-.792-1.602-1.218-2.394-.36-.632-.675-1.263-1.084-1.882-.445-.724-.971-1.393-1.48-2.098a42.961 42.961 0 0 0-1.306-1.727 32.627 32.627 0 0 0-1.838-1.881c-.494-.49-.978-1.016-1.485-1.443-.7-.601-1.431-1.12-2.155-1.657a18.243 18.243 0 0 0-1.665-1.177c-.742-.507-1.534-.928-2.332-1.342-.639-.328-1.237-.662-1.889-.935-.284-.136-.556-.315-.835-.458-.558-.204-1.108-.347-1.659-.509a35.352 35.352 0 0 0-2.049-.68c-.854-.247-1.751-.421-2.605-.594-.713-.13-1.405-.285-2.104-.347a23.602 23.602 0 0 0-2.798-.198c-.428-.032-.854-.094-1.288-.124H149.92a32.596 32.596 0 0 0-23.055 9.537 32.563 32.563 0 0 0-9.538 23.055 32.577 32.577 0 0 0 32.593 32.605h137.153L73.575 902.383a32.46 32.46 0 0 0-8.968 29.269 32.438 32.438 0 0 0 8.949 16.86 32.497 32.497 0 0 0 23.055 9.524 32.416 32.416 0 0 0 23.074-9.537l-.013-.019 213.472-213.485v137.141a32.607 32.607 0 1 0 55.679 23.066c5.916-5.916 9.556-14.049 9.556-23.066l-.013-215.844c0-.458-.098-.897-.098-1.361a25.357 25.357 0 0 0-.632-4.938zm0 0" clip-path="url(#aB)"/></svg>