<svg xmlns="http://www.w3.org/2000/svg" xmlns:xlink="http://www.w3.org/1999/xlink" width="1024" height="1024" viewBox="0 0 1024 1024"><defs><path id="aG" d="M109.01 63.893h805.752v895.665H109.01z"/></defs><clipPath id="aH"><use xlink:href="#aG" overflow="visible"/></clipPath><path d="M160.919 774.578c19.915 6.735 41.67 2.641 61.238-11.663.507.785.997 1.556 1.504 2.323-33.418 20.392-52.058 48.859-52.058 80.6 0 65.279 76.788 112.655 182.601 112.655 56.117 0 108.124-14.569 141.543-39.328 10.862.612 20.548.612 31.532.018 33.418 24.742 85.407 39.311 141.525 39.311 105.795 0 182.619-47.376 182.619-112.655 0-31.667-18.572-60.051-51.851-80.461a87.079 87.079 0 0 0 1.522-2.341c19.517 14.201 41.131 18.311 61.064 11.56 59.652-20.267 62.903-124.337 35.695-211.965-14.448-46.483-40.994-82.906-63.112-107.144.261-3.357.4-6.7.4-10.074 0-25.708-6.73-50.645-20.003-74.303v-.334c0-169.016-136.105-306.534-303.39-306.534-167.299 0-303.405 137.518-303.405 306.534v1.084c-12.991 23.432-19.585 48.143-19.585 73.535 0 3.06.104 6.157.351 9.301-22.399 24.377-49.262 61.086-63.814 107.933-27.228 87.664-23.976 191.699 35.624 211.948zm7.063-198.674c13.534-43.63 40.36-77.225 60.471-97.701a22.383 22.383 0 0 0 6.122-19.148c-.737-4.722-1.122-9.236-1.122-13.623 0-19.252 5.598-38.227 16.598-56.325a22.678 22.678 0 0 0 3.217-13.17c-.121-1.677-.212-3.412-.212-5.142 0-144.357 116.046-261.804 258.673-261.804s258.673 117.447 258.673 261.804c0 1.556-.069 3.06-.173 4.583-.3 4.634.858 9.231 3.269 13.168 11.227 18.254 16.911 37.386 16.911 56.867 0 4.583-.404 9.214-1.206 14.148-1.193 7.029 1.083 14.162 6.066 19.287 19.867 20.337 46.413 53.702 59.859 97.055 23.94 77.065 15.545 148.554-7.293 156.32-11.837 4.003-25.861-8.619-34.589-19.044-4.74-5.702-11.907-8.707-19.482-7.888a22.329 22.329 0 0 0-17.397 11.751 288.493 288.493 0 0 1-27.755 42.602 22.404 22.404 0 0 0-4.036 19.461 22.382 22.382 0 0 0 13.043 14.989c31.215 13.008 49.088 31.862 49.088 51.725 0 37.459-61.853 67.921-137.886 67.921-49.298 0-95.186-13.169-119.719-34.381a22.377 22.377 0 0 0-14.621-5.437c-.542 0-1.119.017-1.661.069-15.441 1.158-27.491 1.136-42.493-.018-6.157-.542-11.855 1.487-16.334 5.368-24.568 21.229-70.457 34.399-119.772 34.399-76.015 0-137.87-30.462-137.87-67.921 0-19.933 17.978-38.838 49.297-51.833 6.47-2.693 11.296-8.2 13.065-14.985a22.314 22.314 0 0 0-4.006-19.464c-10.545-13.481-19.864-27.837-27.734-42.668a22.341 22.341 0 0 0-17.435-11.767c-7.518-.789-14.725 2.185-19.499 7.887-8.776 10.507-22.66 23.397-34.727 19.2-22.892-7.731-31.252-79.203-7.33-156.285zm0 0" clip-path="url(#aH)"/></svg>