<svg xmlns="http://www.w3.org/2000/svg" width="1024" height="1024" viewBox="0 0 1024 1024"><path d="M312.79 187.296h-74.597c-27.504 0-49.788 22.284-49.788 49.765v74.645c0 27.477 22.284 49.761 49.788 49.761h74.597c27.503 0 49.788-22.284 49.788-49.761v-74.645c-.001-27.481-22.286-49.765-49.788-49.765zm74.665 348.338H163.523C108.56 535.634 64 580.198 64 635.162v223.932c0 54.964 44.56 99.523 99.523 99.523h223.933c54.963 0 99.527-44.559 99.527-99.523V635.162c0-54.964-44.565-99.528-99.528-99.528zm49.788 298.577c0 41.209-33.431 74.645-74.666 74.645H188.405c-41.235 0-74.666-33.435-74.666-74.645V660.044c0-41.214 33.431-74.649 74.666-74.649h174.172c41.235 0 74.666 33.435 74.666 74.649v174.167zm373.195-124.406c13.753 0 24.908-11.129 24.908-24.883 0-13.753-11.155-24.883-24.908-24.883-13.723 0-24.879 11.129-24.879 24.883s11.151 24.883 24.879 24.883zm-248.812-24.883c-13.727 0-24.883 11.129-24.883 24.883s11.156 24.883 24.883 24.883h99.523c13.732 0 24.884-11.129 24.884-24.883v-124.41h74.643c13.728 0 24.883-11.125 24.883-24.878 0-13.754-11.155-24.883-24.883-24.883h-199.05c-13.727 0-24.883 11.129-24.883 24.883 0 13.753 11.156 24.878 24.883 24.878h74.667v99.527h-74.667zM860.203 62.89h-223.91c-54.985 0-99.549 44.56-99.549 99.523v223.933c0 54.964 44.564 99.527 99.549 99.527h223.91c54.963 0 99.523-44.563 99.523-99.527V162.413c0-54.963-44.56-99.523-99.523-99.523zm49.736 298.577c0 41.209-33.383 74.645-74.592 74.645H661.149c-41.23 0-74.643-33.435-74.643-74.645V187.296c0-41.209 33.413-74.64 74.643-74.64h174.197c41.209 0 74.592 33.431 74.592 74.64v174.171zm-124.38-174.171h-74.67c-27.455 0-49.74 22.284-49.74 49.765v74.645c0 27.477 22.285 49.761 49.74 49.761h74.67c27.481 0 49.787-22.284 49.787-49.761v-74.645c0-27.481-22.309-49.765-49.787-49.765zm149.289 348.338c-13.755 0-24.909 11.129-24.909 24.883V784.45h-124.38c-13.727 0-24.883 11.125-24.883 24.878v99.527H586.505V834.21c0-13.753-11.151-24.883-24.879-24.883-13.727 0-24.883 11.129-24.883 24.883v99.527c0 13.75 11.156 24.878 24.883 24.878 4.533 0 8.779-1.216 12.442-3.337a24.714 24.714 0 0 0 12.437 3.337h199.053c13.728 0 24.879-11.125 24.879-24.878V834.21h124.41c13.749 0 24.878-11.129 24.878-24.883v-248.81c.001-13.753-11.124-24.883-24.877-24.883zM387.455 62.89H163.523C108.56 62.89 64 107.45 64 162.413v223.933c0 54.964 44.56 99.527 99.523 99.527h223.933c54.963 0 99.527-44.563 99.527-99.527V162.413c0-54.963-44.565-99.523-99.528-99.523zm49.788 298.577c0 41.209-33.431 74.645-74.666 74.645H188.405c-41.235 0-74.666-33.435-74.666-74.645V187.296c0-41.209 33.431-74.64 74.666-74.64h174.172c41.235 0 74.666 33.431 74.666 74.64v174.171zm497.605 547.388c-13.755 0-24.909 11.129-24.909 24.883s11.155 24.878 24.909 24.878 24.878-11.125 24.878-24.878-11.125-24.883-24.878-24.883zM312.79 660.044h-74.597c-27.504 0-49.788 22.279-49.788 49.761v74.645c0 27.481 22.284 49.761 49.788 49.761h74.597c27.503 0 49.788-22.279 49.788-49.761v-74.645c-.001-27.481-22.286-49.761-49.788-49.761zm0 0"/></svg>