<svg xmlns="http://www.w3.org/2000/svg" width="1024" height="1024" viewBox="0 0 1024 1024"><path d="M512.171 63.548c-247.429 0-447.985 200.613-447.985 447.985 0 247.434 200.556 447.99 447.985 447.99 247.434 0 447.99-200.556 447.99-447.99 0-247.373-200.556-447.985-447.99-447.985zm10.741 709.617c-35.745 0-64.758-29.013-64.758-64.808 0-35.745 29.013-64.714 64.758-64.714 35.75 0 64.763 28.968 64.763 64.714 0 35.75-29.012 64.808-64.763 64.808zm86.305-277.046c-28.938 26.694-31.543 53.87-31.864 56.194-3.648 29.421-24.009 44.09-51.586 44.852-26.094.722-47.696-19.199-51.464-44.21-1.725-22.486-1.645-63.411 38.598-95.715 13.908-11.183 32.385-31.504 32.385-44.813.082-28.537-18.318-47.497-40.24-48.299-25.773-.962-41.647 20.562-45.974 39.24v.519s-6.694 48.021-49.1 48.941c-27.017.603-48.94-21.926-48.98-48.941 0-91.025 80.924-146.82 149.825-146.82 65.053 0 145.898 52.668 147.702 135.84.844 38.96-6.651 63.891-49.302 103.212z"/></svg>