<svg xmlns="http://www.w3.org/2000/svg" xmlns:xlink="http://www.w3.org/1999/xlink" width="1024" height="1024" viewBox="0 0 1024 1024"><defs><path id="aK" d="M63.509 147.394h896.845v730.131H63.509z"/></defs><clipPath id="aL"><use xlink:href="#aK" overflow="visible"/></clipPath><path d="M954.732 604.088L815.55 464.906c-7.982-7.983-21.951-7.983-29.934 0L646.435 604.088c-7.978 7.982-6.485 29.432 12.475 29.432h103.264c-42.404 96.779-139.182 164.123-250.928 164.123-106.755 0-200.042-62.857-244.94-153.645H180.5c49.39 135.687 178.095 232.469 331.246 232.469 156.144 0 288.34-101.27 333.734-242.946h99.772c18.956-.001 17.463-21.951 9.48-29.433zm0 0M511.745 227.449c107.254 0 201.038 62.857 245.935 153.649h85.805C795.097 244.907 665.39 148.129 513.242 148.129c-156.144 0-288.34 101.27-333.739 242.946H78.233c-18.956 0-16.958 21.951-9.476 29.432L207.939 559.69c7.983 7.979 21.951 7.979 29.433 0l139.182-139.182c7.978-7.982 6.485-29.432-12.475-29.432H260.816c42.404-96.283 138.686-163.627 250.929-163.627zm0 0" clip-path="url(#aL)"/></svg>