<svg xmlns="http://www.w3.org/2000/svg" width="1024" height="1024" viewBox="0 0 1024 1024"><path d="M930.802 481.924H539.319V93.237c0-16.776-11.181-27.964-27.964-27.964-16.775 0-27.962 11.187-27.962 27.964v388.686l-391.485-2.797c-16.775 0-27.962 11.187-27.962 27.964 0 16.781 11.187 27.962 27.962 27.962l391.485 2.797v391.485c0 16.781 11.187 27.962 27.962 27.962 16.783 0 27.964-11.181 27.964-27.962V537.849h391.483c16.783 0 27.964-11.181 27.964-27.962 0-13.979-13.978-27.963-27.964-27.963zm0 0"/></svg>