<svg xmlns="http://www.w3.org/2000/svg" width="1024" height="1024" viewBox="0 0 1024 1024"><path d="M511.582 959.31C264.776 959.31 64 758.534 64 511.722 64 264.916 264.776 64.14 511.582 64.14c246.812 0 447.589 200.776 447.589 447.582 0 246.812-200.777 447.588-447.589 447.588zm0-831.231c-211.546 0-383.643 172.097-383.643 383.643 0 211.552 172.097 383.649 383.643 383.649 211.552 0 383.649-172.097 383.649-383.649 0-211.546-172.096-383.643-383.649-383.643zm0 0"/><path d="M668.273 500.888c-.034-.127-.195-.259-.258-.386-1.531-3.61-3.644-7.063-6.585-10.039-.03-.029-.064-.029-.097-.064-.03-.029-.03-.064-.064-.097L502.504 331.095c-12.468-12.503-32.705-12.567-45.207-.069-12.498 12.468-12.532 32.708-.064 45.207l136.162 136.548-137.28 135.778c-12.566 12.435-12.658 32.64-.258 45.207 6.235 6.327 14.484 9.494 22.733 9.494 8.122 0 16.24-3.103 22.475-9.24l160.11-158.349c9.493-9.368 11.86-23.177 7.098-34.783zm0 0"/></svg>