<svg xmlns="http://www.w3.org/2000/svg" xmlns:xlink="http://www.w3.org/1999/xlink" width="1024" height="1024" viewBox="0 0 1024 1024"><defs><path id="e" d="M66 63.837h890.281v895.646H66z"/></defs><clipPath id="f"><use xlink:href="#e" overflow="visible"/></clipPath><path d="M555.684 509.35L946.79 118.237c12.722-12.714 12.722-31.796 0-44.51-12.714-12.721-31.796-12.721-44.518 0L511.166 464.832 120.053 73.727c-12.714-12.721-31.798-12.721-44.512 0-12.722 12.714-12.722 31.796 0 44.51L466.647 509.35 75.541 900.456c-12.722 12.721-12.722 31.806 0 44.52 6.361 6.361 15.894 9.541 22.255 9.541 6.361 0 15.904-3.18 22.257-9.541L511.166 557.05l387.931 391.106c6.355 6.361 15.896 9.541 22.257 9.541 9.541 0 15.894-3.18 22.255-9.541 12.721-12.721 12.721-31.798 0-44.52L555.684 509.35zm0 0" clip-path="url(#f)"/></svg>