<svg xmlns="http://www.w3.org/2000/svg" xmlns:xlink="http://www.w3.org/1999/xlink" width="1024" height="1024" viewBox="0 0 1024 1024"><defs><path id="g" d="M113.688 63.789h794.646v895.45H113.688z"/></defs><clipPath id="h"><use xlink:href="#g" overflow="visible"/></clipPath><path d="M576.711 130.887H444.376c-18.265 0-33.087-14.822-33.087-33.081 0-18.265 14.822-33.087 33.087-33.087h132.335c18.301 0 33.087 14.822 33.087 33.087 0 18.259-14.785 33.081-33.087 33.081zm0 0M827.924 323.474l36.858-36.858c12.934-12.934 12.934-33.843 0-46.782-12.939-12.934-33.849-12.934-46.782 0l-34.011 34.01c-71.297-67.889-167.477-109.87-273.445-109.87-218.918 0-397.011 178.092-397.011 397.011s178.094 397.011 397.011 397.011c218.919 0 397.011-178.092 397.011-397.011 0-89.096-29.875-171.177-79.631-237.511zm-350.461-93.333c0-18.265 14.821-33.087 33.081-33.087 18.265 0 33.087 14.822 33.087 33.087v33.087c0 18.259-14.822 33.081-33.087 33.081-18.26 0-33.081-14.822-33.081-33.081v-33.087zM212.787 594.072H179.7c-18.26 0-33.08-14.792-33.08-33.087s14.821-33.087 33.08-33.087h33.087c18.26 0 33.081 14.792 33.081 33.087s-14.821 33.087-33.081 33.087zm330.844 297.757c0 18.295-14.822 33.087-33.087 33.087-18.26 0-33.081-14.792-33.081-33.087v-33.087c0-18.295 14.821-33.081 33.081-33.081 18.265 0 33.087 14.786 33.087 33.081v33.087zm153.013-437.342L531.222 586.822c-6.118 4.897-13.398 7.25-20.678 7.25-9.693 0-19.32-4.236-25.837-12.409-11.414-14.292-9.097-35.1 5.159-46.515l165.422-132.341c14.327-11.444 35.106-9.097 46.52 5.166 11.414 14.29 9.097 35.1-5.164 46.514zm144.744 139.585h-33.081c-18.301 0-33.087-14.792-33.087-33.087s14.786-33.087 33.087-33.087h33.081c18.295 0 33.087 14.792 33.087 33.087s-14.793 33.087-33.087 33.087zm0 0" clip-path="url(#h)"/></svg>