<svg xmlns="http://www.w3.org/2000/svg" xmlns:xlink="http://www.w3.org/1999/xlink" width="1024" height="1024" viewBox="0 0 1024 1024"><defs><path id="i" d="M114.639 64.12h794.7v895.511h-794.7z"/></defs><clipPath id="j"><use xlink:href="#i" overflow="visible"/></clipPath><path d="M577.694 131.223H445.35c-18.266 0-33.089-14.823-33.089-33.083 0-18.266 14.823-33.089 33.089-33.089h132.344c18.302 0 33.089 14.823 33.089 33.089.001 18.26-14.786 33.083-33.089 33.083zm0 0M828.924 323.824l36.861-36.861c12.935-12.935 12.935-33.845 0-46.785-12.94-12.935-33.852-12.935-46.785 0l-34.013 34.012c-71.302-67.894-167.488-109.877-273.464-109.877-218.933 0-397.039 178.104-397.039 397.039S292.59 958.389 511.522 958.389c218.934 0 397.039-178.104 397.039-397.039 0-89.102-29.877-171.188-79.637-237.526zM544.612 890.531v-31.403c0-18.296-14.823-33.083-33.089-33.083-18.261 0-33.083 14.787-33.083 33.083v31.403c-156.074-15.55-280.543-140.024-296.098-296.091h31.403c18.261 0 33.083-14.793 33.083-33.089s-14.822-33.089-33.083-33.089h-31.403C197.897 372.195 322.366 247.72 478.44 232.171v31.403c0 18.26 14.822 33.083 33.083 33.083 18.266 0 33.089-14.823 33.089-33.083v-31.403c156.068 15.584 280.541 140.024 296.092 296.091h-31.397c-18.302 0-33.089 14.793-33.089 33.089s14.787 33.089 33.089 33.089h31.397C825.153 750.507 700.68 874.981 544.612 890.531zm0 0" clip-path="url(#j)"/><path d="M656.277 403.162l-165.434 132.35c-14.292 11.445-16.574 32.256-5.159 46.518 6.548 8.174 16.145 12.41 25.839 12.41 7.245 0 14.561-2.354 20.649-7.251l165.433-132.344c14.257-11.415 16.574-32.226 5.159-46.488-11.379-14.293-32.159-16.64-46.487-5.195zm0 0"/></svg>