<svg xmlns="http://www.w3.org/2000/svg" xmlns:xlink="http://www.w3.org/1999/xlink" width="1024" height="1024" viewBox="0 0 1024 1024"><defs><path id="Y" d="M93.15 62.99H929v897.173H93.15z"/></defs><clipPath id="Z"><use xlink:href="#Y" overflow="visible"/></clipPath><path d="M765.807 958.962H189.116c-52.993 0-96.116-43.123-96.116-96.116V222.079c0-52.988 43.123-96.111 96.116-96.111H637.65c17.716 0 32.041 14.353 32.041 32.036 0 17.686-14.325 32.04-32.041 32.04H189.116c-17.654 0-32.041 14.382-32.041 32.036v640.766c0 17.687 14.387 32.04 32.041 32.04h576.691c17.681 0 32.034-14.352 32.034-32.04V350.235c0-17.687 14.325-32.04 32.041-32.04 17.716 0 32.035 14.352 32.035 32.04v512.611c0 52.993-43.123 96.116-96.11 96.116zm0 0" clip-path="url(#Z)"/><path d="M577.578 446.351a31.948 31.948 0 0 1-22.648-9.391c-12.53-12.525-12.53-32.773 0-45.298L873.323 73.264c12.529-12.53 32.778-12.53 45.303 0 12.53 12.524 12.53 32.773 0 45.303L600.233 436.96c-6.247 6.282-14.451 9.391-22.655 9.391zm0 0" clip-path="url(#Z)"/><path d="M445.424 446.351H253.192c-17.687 0-32.041-14.353-32.041-32.041 0-17.686 14.353-32.04 32.041-32.04h192.232c17.681 0 32.035 14.353 32.035 32.04 0 17.688-14.354 32.041-32.035 32.041zm0 0M637.65 638.579H253.192c-17.687 0-32.041-14.32-32.041-32.036 0-17.721 14.353-32.041 32.041-32.041H637.65c17.716 0 32.041 14.32 32.041 32.041 0 17.716-14.324 32.036-32.041 32.036zm0 0"/></svg>