<svg xmlns="http://www.w3.org/2000/svg" width="1024" height="1024" viewBox="0 0 1024 1024"><path d="M511.966 959.078C264.948 959.078 64 758.129 64 511.106 64 264.088 264.977 63.14 511.966 63.14c246.995 0 447.972 200.948 447.972 447.966 0 247.023-200.949 447.972-447.972 447.972zm0-831.944c-211.727 0-383.971 172.244-383.971 383.971 0 211.734 172.244 383.978 383.971 383.978 211.734 0 383.978-172.244 383.978-383.978 0-211.727-172.245-383.971-383.978-383.971zm0 0"/><path d="M513.026 772.436c-89.179 0-171.892-40.32-226.898-110.617-10.878-13.92-8.447-34.016 5.473-44.894 13.885-10.913 34.011-8.482 44.923 5.473 42.781 54.684 107.126 86.038 176.501 86.038 70.108 0 134.868-31.896 177.649-87.543 10.786-14.016 30.848-16.673 44.861-5.888 14.016 10.786 16.673 30.878 5.888 44.861-55.001 71.547-138.262 112.57-228.397 112.57zm0 0M369.032 514.309c-26.522 0-47.994-21.474-47.994-47.999v-63.995c0-26.526 21.472-47.994 47.994-47.994 26.527 0 47.999 21.468 47.999 47.994v63.995c0 26.497-21.502 47.999-47.999 47.999zm0 0M657.014 514.309c-26.497 0-47.999-21.474-47.999-47.999v-63.995c0-26.526 21.502-47.994 47.999-47.994 26.493 0 47.995 21.468 47.995 47.994v63.995c.001 26.497-21.502 47.999-47.995 47.999zm0 0"/></svg>