<svg xmlns="http://www.w3.org/2000/svg" width="1024" height="1024" viewBox="0 0 1024 1024"><path d="M511.966 63.14C264.977 63.14 64 264.088 64 511.106c0 247.024 200.948 447.972 447.966 447.972 246.995 0 447.972-200.948 447.972-447.972 0-247.018-200.949-447.966-447.972-447.966zm182.742 585.945c12.479 12.543 12.445 32.761-.064 45.241a31.927 31.927 0 0 1-22.591 9.346c-8.223 0-16.415-3.135-22.655-9.408L511.81 556.259 373.768 692.822c-6.24 6.147-14.364 9.248-22.493 9.248a31.875 31.875 0 0 1-22.747-9.502c-12.417-12.577-12.324-32.8.254-45.246l137.88-136.373-137.368-137.816c-12.479-12.509-12.445-32.766.064-45.246 12.509-12.509 32.731-12.447 45.246.067l137.559 137.974L650.199 329.36c12.543-12.445 32.83-12.318 45.245.254 12.445 12.578 12.319 32.83-.259 45.247L557.31 511.238l137.398 137.847zm0 0"/></svg>