<svg xmlns="http://www.w3.org/2000/svg" width="1024" height="1024" viewBox="0 0 1024 1024"><path d="M511.999 957.352C265 957.352 64.066 756.419 64.066 509.413c0-246.999 200.933-447.933 447.933-447.933 247.006 0 447.939 200.933 447.939 447.933 0 247.005-200.934 447.939-447.939 447.939zm0-831.594c-211.551 0-383.655 172.104-383.655 383.654 0 211.523 172.104 383.661 383.655 383.661 211.523 0 383.661-172.138 383.661-383.661-.001-211.55-172.138-383.654-383.661-383.654zm0 0"/><path d="M557.051 510.79l138.35-136.845c12.571-12.411 12.668-32.667.254-45.237-12.416-12.577-32.7-12.674-45.242-.26l-138.54 137.008-136.426-136.847c-12.513-12.507-32.735-12.576-45.243-.062-12.512 12.478-12.542 32.729-.062 45.242l136.235 136.65-137.359 135.882c-12.571 12.45-12.669 32.667-.254 45.244 6.269 6.337 14.495 9.5 22.75 9.5a31.982 31.982 0 0 0 22.492-9.246l137.549-136.04 138.666 139.116c6.239 6.268 14.432 9.402 22.653 9.402 8.193 0 16.35-3.135 22.589-9.34 12.508-12.478 12.543-32.7.064-45.242L557.051 510.79zm0 0"/></svg>