<svg xmlns="http://www.w3.org/2000/svg" xmlns:xlink="http://www.w3.org/1999/xlink" width="1024" height="1024" viewBox="0 0 1024 1024"><defs><path id="ak" d="M98.261 62.761h827.913v896.774H98.261z"/></defs><clipPath id="al"><use xlink:href="#ak" overflow="visible"/></clipPath><path d="M512.089 958.413c-55.83 0-110-10.9-161.001-32.503a411.228 411.228 0 0 1-131.53-88.606c-86.056-85.817-129.917-205.199-119.89-326.316C109.7 389.869 172.592 279.33 271.589 208.831c14.447-8.431 32.936-4.495 42.693 9.086 9.758 13.587 7.589 32.362-5.013 43.365A353.637 353.637 0 0 0 202.995 383.08a343.257 343.257 0 0 0-39.887 161.762c0 93.162 36.297 180.802 102.201 246.706a346.71 346.71 0 0 0 246.779 102.275c93.162 0 180.875-36.302 246.847-102.275a346.414 346.414 0 0 0 102.201-246.706 342.95 342.95 0 0 0-39.887-161.762 353.335 353.335 0 0 0-106.274-121.662c-14.502-10.404-17.825-30.596-7.417-45.097 10.404-14.502 30.594-17.825 45.097-7.422 99.04 70.481 161.967 181.041 171.998 302.185 10.028 121.144-33.863 240.551-119.967 326.355a412.679 412.679 0 0 1-292.598 121.045v-.071zm9.728-448.769a32.275 32.275 0 0 1-22.878-9.432 32.281 32.281 0 0 1-9.484-22.861V94.344c.795-17.312 15.067-30.937 32.4-30.937 17.329 0 31.6 13.626 32.396 30.937v383.007c.001 17.941-14.489 32.293-32.434 32.293zm0 0" clip-path="url(#al)"/></svg>