<svg xmlns="http://www.w3.org/2000/svg" width="1024" height="1024" viewBox="0 0 1024 1024"><path d="M510.457 63.331c-246.098 0-447.456 201.359-447.456 447.456 0 246.104 201.359 447.462 447.456 447.462 246.103 0 447.462-201.357 447.462-447.462 0-248.335-199.121-447.456-447.462-447.456zm402.716 447.456c0 93.966-33.561 181.224-87.257 250.58-17.898-8.951-125.29-60.409-143.187-69.355-20.134-8.952-51.458 4.475-78.306 22.372L494.798 609.229c-2.238-11.183-2.238-33.557 13.421-42.508 8.951-6.713 42.513 17.898 67.123 46.983 4.47 6.713 13.421 8.951 20.136 6.713 8.946-2.238 13.421-6.713 17.897-13.426 2.238-6.708 24.61-71.593-8.951-109.625-6.708-6.713-6.708-11.189-6.708-13.426 4.475-22.373 58.167-53.691 98.44-76.064 53.691-31.323 100.674-58.172 105.15-93.965 2.238-11.189 4.475-33.562-116.338-114.106-8.951-6.708-22.372-4.476-29.085 4.475l-73.832 89.489-71.593-46.982 80.544-46.983c8.952-4.476 13.422-13.421 11.19-22.373-2.238-8.946-8.952-15.659-17.903-17.897l-127.522-26.847-24.61-13.423c26.842-4.475 53.691-8.951 80.539-8.951 219.254-2.237 400.477 176.748 400.477 400.474zm-288.61 243.866c17.897-11.185 35.794-20.136 42.508-22.373 15.659 6.713 73.831 35.8 116.338 55.934-26.849 29.086-82.783 85.015-165.559 102.912 20.134-51.454 11.183-109.625 6.713-136.473zm-210.31-152.132c-44.745-69.36-76.063-116.343-111.863-123.051-11.189-2.238-24.61 0-33.561 6.708-20.136-4.47-60.404-98.442-82.778-201.354 15.659-26.847 82.778-123.051 190.17-145.423l58.172 33.555c4.47-2.232 6.708 0 8.946 0l73.831 15.665-62.642 35.793c-6.713 4.475-11.189 11.189-11.189 17.902 0 6.709 4.475 15.66 8.951 20.136l118.576 78.301c8.946 6.713 22.372 4.475 29.086-4.47l73.831-89.495c33.557 22.372 69.355 49.221 78.301 62.647-8.946 15.659-53.696 42.506-82.776 58.166-58.172 33.561-114.106 64.885-118.576 107.393-2.238 11.183 0 31.323 15.659 49.221 8.951 6.708 11.189 17.897 11.189 29.085-26.847-22.377-62.647-42.513-93.97-24.61-38.032 24.61-38.032 71.593-31.319 98.435 0 4.477 2.238 6.714 6.708 11.19l46.988 44.744c-17.902-4.475-31.324-8.946-40.275-8.946-11.184-11.188-35.793-46.988-51.459-71.592zm-306.507-91.734c0-64.88 15.659-125.284 42.508-178.98 17.902 69.355 53.696 178.98 100.678 196.883 15.665 6.708 29.087 4.47 42.508-4.476 17.902 2.238 60.409 71.593 82.783 105.148 38.031 62.648 58.172 91.734 85.014 91.734 11.189 0 67.123 20.134 116.343 38.032 4.47 13.421 22.373 100.679-17.902 154.374-15.659 2.234-33.557 2.234-49.221 2.234-221.488-2.233-402.711-183.456-402.711-404.949zm0 0"/></svg>