<svg xmlns="http://www.w3.org/2000/svg" xmlns:xlink="http://www.w3.org/1999/xlink" width="1024" height="1024" viewBox="0 0 1024 1024"><defs><path id="s" d="M114.489 63.66h795.292v896.178H114.489z"/></defs><clipPath id="t"><use xlink:href="#s" overflow="visible"/></clipPath><path d="M765.388 205.051c-10.13-9.104-24.766-11.095-36.918-5.002a33.125 33.125 0 0 0-18.214 32.547c3.612 40.929 2.653 83.672-1.586 115.992C624.4 211.305 440.63 77.008 431.562 70.419a33.083 33.083 0 0 0-36.059-1.824c-11.322 6.594-17.715 19.208-16.289 32.219.297 2.617 23.872 227.312-25.232 370.981-14.172-27.551-33.078-55.793-55.959-71.026-47.482-31.623-138.572-37.978-148.803-38.604-13.475-.961-26.091 6.886-31.85 19.269-5.73 12.348-3.178 27.116 6.224 36.984.596.565 56.754 61.487 56.754 225.123 0 2.486.263 4.871.793 7.22 7.948 119.232 75.064 242.045 179.198 303.265a33.171 33.171 0 0 0 16.79 4.572c.197 0 .393-.035.661 0 18.275 0 33.109-14.803 33.109-33.113a33.268 33.268 0 0 0-3.708-15.264c-4.436-16.223-6.655-46.189-6.655-63.014 0-1.354-.065-2.677-.232-4.006-1.062-31.32-5.462-57.577-11.423-79.333 22.119 13.807 46.027 37.12 66.287 53.044 7.22 5.695 16.425 8.079 25.529 6.69 9.075-1.424 17.153-6.492 22.285-14.106 35.332-51.919 30.395-160.094 21.16-231.581 91.352 61.524 218.435 159.529 215.883 259.395 0 5.73-.328 11.323-.793 16.95-1.229 13.708 6.189 26.758 18.572 32.714 12.419 6.064 27.188 3.643 37.22-5.794 73.34-69.597 113.77-153.502 113.77-253.367 7.216-283.731-137.247-417.236-143.406-422.762zm0 0" clip-path="url(#t)"/></svg>