<svg xmlns="http://www.w3.org/2000/svg" xmlns:xlink="http://www.w3.org/1999/xlink" width="1024" height="1024" viewBox="0 0 1024 1024"><defs><path id="q" d="M113.148 63.701h797.785v896.412H113.148z"/></defs><clipPath id="r"><use xlink:href="#q" overflow="visible"/></clipPath><path d="M711.141 227.104c-8.318-6.238-18.716-4.159-24.949 0-8.318 6.239-10.399 16.631-6.238 24.949 12.472 24.95 16.631 64.452 8.318 95.64-76.929-228.7-234.94-280.679-241.179-282.759-6.234-2.079-14.552 0-18.711 4.159-6.238 4.159-8.314 12.477-6.238 18.711C436.7 179.285 393.04 291.555 295.32 420.458c-4.159-33.263-12.472-62.373-33.263-97.714-4.159-8.318-14.556-12.478-22.87-10.397-8.318 2.079-16.636 10.397-16.636 18.711-4.154 49.899-24.945 93.56-49.894 141.38-20.791 39.501-41.581 83.161-51.979 128.902-31.189 147.617 31.188 251.57 214.144 353.443 2.079 4.159 6.238 4.159 8.318 4.159 6.238 0 14.552-4.159 18.711-10.393 6.24-10.397 2.079-22.871-6.238-29.109h-2.075C162.259 813.408 137.309 719.848 160.18 611.736c8.318-41.581 29.108-81.087 47.819-118.509 14.553-29.109 29.109-58.212 39.502-87.322 4.159 22.871 6.238 43.661 8.318 70.691 0 8.318 6.238 16.631 14.553 18.711 8.318 2.08 16.636 0 22.87-6.238C407.592 349.773 465.81 225.026 463.73 118.993c49.894 27.028 149.693 103.953 197.513 284.833 2.079 6.239 6.234 12.477 14.552 14.556 6.24 2.076 14.553 0 20.791-4.159 29.108-27.029 39.502-66.53 39.502-106.037 54.058 64.457 133.061 182.961 126.827 313.943-6.238 101.878-64.451 191.279-174.642 264.048 49.895-164.25-14.558-365.922-160.091-467.795-6.238-4.159-16.637-4.159-22.871 0-6.238 4.155-10.397 12.473-8.318 20.791 6.238 31.184 2.079 101.873-27.029 162.165-8.314-41.581-27.025-66.53-27.025-68.61-4.159-6.234-12.477-8.313-20.795-8.313-8.314 2.08-14.553 8.313-14.553 16.631 0 0-12.472 66.53-58.212 130.981-24.949 37.423-49.9 81.089-51.979 135.143 0 12.477 8.318 20.79 20.791 20.79 12.477 2.08 20.79-8.313 20.79-20.79 2.079-45.74 22.87-81.083 45.74-114.35 22.87-31.184 37.422-64.451 47.82-89.401 2.079 16.631 4.159 37.427 0 60.297-2.079 8.313 2.079 18.712 10.397 22.866 8.313 4.159 18.711 2.08 24.944-4.154 54.06-60.298 74.85-145.539 76.929-205.831 120.589 110.191 162.17 303.545 87.322 444.924v2.08c0 2.079 0 2.079-2.079 4.159v8.314c0 2.08 0 2.08 2.079 4.159v2.08l2.08 2.079c0 2.079 2.079 2.079 2.079 4.159 0 0 2.08 2.079 4.159 2.079l2.08 2.08c2.075 0 2.075 0 4.154 2.075h10.397c2.079 0 4.159 0 6.238-2.075 158.011-87.327 241.174-199.592 247.412-330.58 2.076-199.592-168.407-372.156-199.591-395.026zm0 0" clip-path="url(#r)"/></svg>