<svg xmlns="http://www.w3.org/2000/svg" xmlns:xlink="http://www.w3.org/1999/xlink" width="1024" height="1024" viewBox="0 0 1024 1024"><defs><path id="u" d="M63.262 63.765h895.017v896.371H63.262z"/></defs><clipPath id="v"><use xlink:href="#u" overflow="visible"/></clipPath><path d="M510.46 64.234c-246.686 0-447.348 200.662-447.348 447.349S263.774 958.931 510.46 958.931c246.688 0 447.349-200.66 447.349-447.348S757.147 64.234 510.46 64.234zm32.098 672.018c0 17.748-14.349 32.098-32.098 32.098-17.748 0-32.097-14.35-32.097-32.098V447.393c0-17.749 14.349-32.098 32.097-32.098 17.749 0 32.098 14.349 32.098 32.098v288.859zM510.46 351.105c-26.573 0-48.141-21.598-48.141-48.142 0-26.607 21.568-48.146 48.141-48.146 26.574 0 48.142 21.539 48.142 48.146 0 26.544-21.568 48.142-48.142 48.142zm0 0" clip-path="url(#v)"/></svg>