<svg xmlns="http://www.w3.org/2000/svg" xmlns:xlink="http://www.w3.org/1999/xlink" width="1024" height="1024" viewBox="0 0 1024 1024"><defs><path id="aa" d="M95.276 63.04H929.51v896.638H95.276z"/></defs><clipPath id="ab"><use xlink:href="#aa" overflow="visible"/></clipPath><path d="M766.632 958.478H191.056c-52.891 0-95.93-43.039-95.93-95.93V223.02c0-52.89 43.039-95.929 95.93-95.929h447.667c17.682 0 31.979 14.324 31.979 31.978s-14.297 31.979-31.979 31.979H191.056c-17.619 0-31.979 14.354-31.979 31.973v639.528c0 17.653 14.359 31.979 31.979 31.979h575.576c17.647 0 31.973-14.326 31.973-31.979V350.93c0-17.653 14.297-31.979 31.979-31.979s31.973 14.326 31.973 31.979v511.618c-.001 52.891-43.04 95.93-95.925 95.93zm0 0" clip-path="url(#ab)"/><path d="M478.524 541.506c-8.25 0-16.502-3.166-22.737-9.495-12.407-12.568-12.31-32.807.254-45.215L874.038 73.371c12.598-12.437 32.807-12.276 45.215.259 12.437 12.563 12.311 32.807-.254 45.215L501.002 532.266c-6.235 6.171-14.359 9.24-22.478 9.24zm0 0" clip-path="url(#ab)"/></svg>