<svg xmlns="http://www.w3.org/2000/svg" xmlns:xlink="http://www.w3.org/1999/xlink" width="1024" height="1024" viewBox="0 0 1024 1024"><defs><path id="W" d="M96.269 65.098h833.016V959.88H96.269z"/></defs><clipPath id="X"><use xlink:href="#W" overflow="visible"/></clipPath><path d="M780.528 661.248c-47.103 0-88.622 22.342-115.898 56.505L387.782 551.585c3.445-12.568 5.863-25.504 5.863-39.19 0-13.682-2.418-26.623-5.863-39.191l276.848-165.98c27.277 34.164 68.795 56.509 115.898 56.509 82.2 0 148.758-66.655 148.758-148.758 0-82.2-66.654-148.853-148.758-148.853-82.103 0-148.758 66.654-148.758 148.758 0 13.687 2.418 26.623 5.864 39.191l-276.848 166.07c-27.277-34.163-68.795-56.503-115.898-56.503-82.2 0-148.758 66.654-148.758 148.758 0 82.199 66.654 148.757 148.758 148.757 47.104 0 88.622-22.34 115.898-56.503l276.848 166.167c-3.445 12.562-5.864 25.504-5.864 39.19 0 82.2 66.655 148.758 148.758 148.758 82.104 0 148.758-66.654 148.758-148.758 0-82.2-66.654-148.759-148.758-148.759zm0-535.641c49.245 0 89.272 40.028 89.272 89.272 0 49.245-40.028 89.272-89.272 89.272-49.245 0-89.272-40.028-89.272-89.272 0-49.244 40.027-89.272 89.272-89.272zm-535.64 476.155c-49.245 0-89.272-40.026-89.272-89.271 0-49.246 40.028-89.277 89.272-89.277s89.272 40.031 89.272 89.277c0 49.244-40.028 89.271-89.272 89.271zm535.64 297.516c-49.245 0-89.272-40.026-89.272-89.272 0-49.245 40.028-89.276 89.272-89.276 49.245 0 89.272 40.031 89.272 89.276s-40.027 89.272-89.272 89.272zm0 0" clip-path="url(#X)"/></svg>