<svg xmlns="http://www.w3.org/2000/svg" xmlns:xlink="http://www.w3.org/1999/xlink" width="1024" height="1024" viewBox="0 0 1024 1024"><defs><path id="M" d="M65.335 64.061h894.839v896.29H65.335z"/></defs><clipPath id="N"><use xlink:href="#M" overflow="visible"/></clipPath><path d="M856.431 64.599H168.383c-56.904 0-103.209 46.305-103.209 103.209v688.048c0 56.898 46.305 103.209 103.209 103.209h688.048c56.898 0 103.209-46.31 103.209-103.209V167.807c-.001-56.904-46.311-103.208-103.209-103.208zM743.794 432.738L468.338 711.192c-.069.068-.21.105-.278.206-.099.067-.099.21-.206.278-2.204 2.131-4.918 3.438-7.464 4.882-1.275.724-2.305 1.826-3.649 2.341-4.126 1.648-8.498 2.509-12.866 2.509-4.405 0-8.84-.861-13.003-2.578-1.376-.589-2.478-1.754-3.786-2.478-2.545-1.443-5.197-2.719-7.395-4.888-.069-.067-.106-.204-.173-.273-.069-.105-.206-.105-.273-.204L283.769 571.758c-13.249-13.623-12.94-35.397.688-48.647 13.621-13.207 35.365-12.965 48.64.688l111.019 114.08L694.911 384.37c13.344-13.522 35.156-13.627 48.642-.278 13.453 13.386 13.59 35.16.241 48.646zm0 0" clip-path="url(#N)"/></svg>