<svg xmlns="http://www.w3.org/2000/svg" width="1024" height="1024" viewBox="0 0 1024 1024"><path d="M511.966 959.078C264.948 959.078 64 758.129 64 511.106 64 264.088 264.948 63.14 511.966 63.14c247.024 0 447.972 200.948 447.972 447.966 0 247.023-200.949 447.972-447.972 447.972zm0-831.655c-211.566 0-383.683 172.117-383.683 383.683 0 211.539 172.117 383.689 383.683 383.689 211.539 0 383.689-172.15 383.689-383.689 0-211.567-172.15-383.683-383.689-383.683zm0 0"/><path d="M726.927 392.302c-12.543-12.445-32.83-12.319-45.241.254L448.421 628.379l-103.26-106.101c-12.348-12.704-32.605-12.929-45.241-.64-12.675 12.319-12.963 32.605-.64 45.242l126.007 129.497c.064.093.19.093.254.19.064.064.097.191.161.254 2.016 1.987 4.511 3.203 6.88 4.546 1.25.674 2.241 1.792 3.52 2.305a31.696 31.696 0 0 0 12.094 2.397 32.21 32.21 0 0 0 11.967-2.334c1.25-.512 2.207-1.539 3.394-2.177 2.397-1.344 4.897-2.525 6.943-4.541.063-.064.098-.196.19-.259.064-.094.161-.128.259-.191l256.203-258.99c12.45-12.608 12.318-32.86-.225-45.275zm0 0"/></svg>