<svg xmlns="http://www.w3.org/2000/svg" width="1024" height="1024" viewBox="0 0 1024 1024"><path d="M511.844 63.987c-246.746 0-447.473 200.727-447.473 447.473 0 246.752 200.727 447.479 447.473 447.479 246.752 0 447.479-200.727 447.479-447.479 0-246.745-200.727-447.473-447.479-447.473zm0 830.74c-211.333 0-383.261-171.961-383.261-383.267 0-211.333 171.927-383.26 383.261-383.26 211.306 0 383.267 171.927 383.267 383.26 0 211.306-171.961 383.267-383.267 383.267zm0 0"/><path d="M671.628 511.46H511.844V287.788c0-17.738-14.221-32.091-31.959-32.091s-31.965 14.387-31.965 32.091v255.638a31.876 31.876 0 0 0 31.965 31.965h191.743c17.738 0 32.091-14.227 32.091-31.965s-14.353-31.966-32.091-31.966zm0 0"/></svg>