<svg xmlns="http://www.w3.org/2000/svg" width="1024" height="1024" viewBox="0 0 1024 1024"><path d="M511.715 63.646c-247.156 0-448.217 201.061-448.217 448.217 0 247.162 201.061 448.223 448.217 448.223 247.162 0 448.223-201.061 448.223-448.223 0-247.156-201.061-448.217-448.223-448.217zM671.06 575.899H479.864c-17.675 0-32.179-14.476-32.179-32.18V288.844c0-17.674 14.343-32.017 32.018-32.017 17.67 0 32.012 14.343 32.012 32.017v223.019H671.06c17.705 0 32.013 14.343 32.013 32.018 0 17.704-14.343 32.018-32.013 32.018zm0 0"/></svg>