<svg xmlns="http://www.w3.org/2000/svg" xmlns:xlink="http://www.w3.org/1999/xlink" width="1024" height="1024" viewBox="0 0 1024 1024"><defs><path id="ae" d="M64.023 123.078h896.064v777.38H64.023z"/></defs><clipPath id="af"><use xlink:href="#ae" overflow="visible"/></clipPath><path d="M929.593 899.273H93.729c-16.501 0-29.854-13.353-29.854-29.854V630.612c0-16.474 13.353-29.85 29.854-29.85 16.497 0 29.85 13.377 29.85 29.85v208.957h776.164V630.612c0-16.474 13.348-29.85 29.85-29.85 16.502 0 29.854 13.377 29.854 29.85v238.807c0 16.5-13.352 29.854-29.854 29.854zM639.992 353.001l-98.478-119.345v426.747c0 16.53-13.353 29.913-29.855 29.913-16.497 0-29.849-13.383-29.849-29.913V234.791l-97.547 118.211c-11.692 11.778-30.665 11.778-42.357 0-11.721-11.745-11.721-30.811 0-42.561l147.538-178.847c6.24-6.268 14.523-8.948 22.683-8.514 8.162-.434 16.444 2.246 22.712 8.514L682.35 310.44c11.72 11.745 11.72 30.811 0 42.561-11.692 11.778-30.667 11.778-42.358 0zm0 0" clip-path="url(#af)"/></svg>