<svg xmlns="http://www.w3.org/2000/svg" xmlns:xlink="http://www.w3.org/1999/xlink" width="1024" height="1024" viewBox="0 0 1024 1024"><defs><path id="w" d="M64.11 63.316h895.017v896.371H64.11z"/></defs><clipPath id="x"><use xlink:href="#w" overflow="visible"/></clipPath><path d="M511.929 959.218c246.686 0 447.348-200.662 447.348-447.349S758.616 64.521 511.929 64.521c-246.688 0-447.349 200.66-447.349 447.348s200.662 447.349 447.349 447.349zm-32.098-672.017c0-17.748 14.349-32.098 32.098-32.098 17.748 0 32.097 14.35 32.097 32.098v288.858c0 17.749-14.349 32.098-32.097 32.098-17.749 0-32.098-14.349-32.098-32.098V287.201zm32.098 385.146c26.573 0 48.141 21.598 48.141 48.142 0 26.607-21.568 48.146-48.141 48.146-26.574 0-48.142-21.539-48.142-48.146 0-26.543 21.568-48.142 48.142-48.142zm0 0" clip-path="url(#x)"/></svg>