<svg xmlns="http://www.w3.org/2000/svg" xmlns:xlink="http://www.w3.org/1999/xlink" width="1024" height="1024" viewBox="0 0 1024 1024"><defs><path id="ai" d="M64.151 155.94h896.203v713.453H64.151z"/></defs><clipPath id="aj"><use xlink:href="#ai" overflow="visible"/></clipPath><path d="M694.043 674.954c-6.107 0-12.173-2.63-16.36-7.708-41.51-50.398-102.742-79.3-167.998-79.3-63.133 0-123.075 27.381-164.446 75.13-7.678 8.849-21.037 9.794-29.872 2.142-8.845-7.657-9.801-21.037-2.142-29.872 49.428-57.036 121.036-89.757 196.461-89.757 77.956 0 151.107 34.522 200.693 94.72 7.436 9.037 6.146 22.377-2.876 29.814a21.11 21.11 0 0 1-13.46 4.831zm126.566-148.423a21.132 21.132 0 0 1-15.783-7.052c-75.091-83.855-182.669-131.944-295.145-131.944-110.292 0-216.441 46.547-291.261 127.72-7.908 8.603-21.318 9.16-29.921 1.217-8.603-7.924-9.15-21.318-1.217-29.923C270.085 396.711 387.59 345.18 509.676 345.18c124.513 0 243.584 53.234 326.697 146.043 7.806 8.721 7.068 22.107-1.644 29.907a21.084 21.084 0 0 1-14.12 5.401zm117.758-139.592c-5.708 0-11.382-2.286-15.557-6.812-106.19-114.894-256.774-180.791-413.149-180.791-156.406 0-301.691 62.691-409.081 176.518-8.042 8.515-21.427 8.903-29.936.866-8.506-8.022-8.894-21.422-.872-29.936C185.249 224.383 341.477 156.98 509.662 156.98c168.155 0 330.075 70.86 444.253 194.413 7.939 8.584 7.412 21.989-1.182 29.923a21.111 21.111 0 0 1-14.366 5.623zM511.64 868.184c-42.774 0-77.577-34.812-77.577-77.597 0-42.784 34.803-77.592 77.577-77.592 42.785 0 77.587 34.803 77.587 77.592 0 42.786-34.801 77.597-77.587 77.597zm0-112.832c-19.422 0-35.225 15.813-35.225 35.235 0 19.432 15.803 35.24 35.225 35.24s35.231-15.808 35.231-35.24c.001-19.422-15.808-35.235-35.231-35.235zm0 0" clip-path="url(#aj)"/></svg>