<svg xmlns="http://www.w3.org/2000/svg" width="1024" height="1024" viewBox="0 0 1024 1024"><path d="M511.966 957.329c-119.639 0-232.107-46.369-316.71-130.553C110.623 742.524 64 630.535 64 511.345c0-119.162 46.623-231.185 131.221-315.403C279.825 111.754 392.297 65.39 511.937 65.39s232.112 46.364 316.681 130.552c84.668 84.218 131.256 196.241 131.256 315.369.029 119.19-46.588 231.214-131.256 315.431-84.539 84.188-197.012 130.587-316.652 130.587zm0-827.974c-102.614 0-199.057 39.738-271.562 111.926-72.476 72.124-112.41 168.054-112.41 270.063 0 102.004 39.905 197.935 112.375 270.025C312.879 853.557 409.317 893.3 511.937 893.3c102.585 0 199.058-39.743 271.563-111.931 72.475-72.152 112.408-168.049 112.375-270.058 0-102.01-39.9-197.906-112.375-269.996-72.476-72.187-168.948-111.96-271.534-111.96zm0 0"/><path d="M735.955 479.346H543.966V287.357c0-17.66-14.335-31.995-32-31.995-17.659 0-31.994 14.335-31.994 31.995v191.989H287.983c-17.66 0-31.994 14.334-31.994 31.999 0 17.66 14.334 31.995 31.994 31.995h191.989v191.988c0 17.695 14.335 31.995 31.994 31.995 17.665 0 32-14.3 32-31.995V543.34h191.989c17.694 0 31.994-14.335 31.994-31.995 0-17.665-14.3-31.999-31.994-31.999zm0 0"/></svg>