<svg xmlns="http://www.w3.org/2000/svg" width="1024" height="1024" viewBox="0 0 1024 1024"><path d="M828.692 196.092C744.121 111.931 631.715 65.584 512.115 65.584c-119.599 0-232.03 46.347-316.605 130.509C110.906 280.282 64.298 392.268 64.298 511.39c0 119.151 46.607 231.103 131.177 315.293 84.576 84.16 197.01 130.509 316.611 130.509s232.035-46.349 316.576-130.509c84.64-84.22 131.241-196.206 131.212-315.328.029-119.122-46.544-231.073-131.182-315.263zm-92.663 347.281H544.104v191.925c0 17.688-14.331 31.985-31.99 31.985-17.653 0-31.983-14.297-31.983-31.985V543.373H288.207c-17.654 0-31.983-14.329-31.983-31.983 0-17.659 14.329-31.99 31.983-31.99h191.925V287.477c0-17.654 14.33-31.985 31.983-31.985 17.659 0 31.99 14.331 31.99 31.985V479.4H736.03c17.688 0 31.983 14.33 31.983 31.99 0 17.654-14.296 31.983-31.984 31.983zm0 0"/></svg>