<svg xmlns="http://www.w3.org/2000/svg" xmlns:xlink="http://www.w3.org/1999/xlink" width="1024" height="1024" viewBox="0 0 1024 1024"><defs><path id="a" d="M63.929 63.423h896.35v895.044H63.929z"/></defs><clipPath id="b"><use xlink:href="#a" overflow="visible"/></clipPath><path d="M952.261 949.844c-9.686 9.68-24.21 9.68-33.896 0l-147.677-150.1c-75.051 67.785-174.315 108.94-283.255 108.94-234.836 0-423.674-188.832-423.674-423.668S252.597 63.764 487.432 63.764 911.1 252.602 911.1 487.437c0 106.524-41.155 205.783-106.524 278.412l147.685 147.678c9.68 9.686 9.68 26.63 0 36.317zM487.432 112.183c-208.204 0-375.255 167.051-375.255 375.254s167.051 375.249 375.255 375.249 375.249-167.045 375.249-375.249-169.466-375.254-375.249-375.254zm0 0" clip-path="url(#b)"/></svg>