<svg xmlns="http://www.w3.org/2000/svg" xmlns:xlink="http://www.w3.org/1999/xlink" width="1024" height="1024" viewBox="0 0 1024 1024"><defs><path id="i" d="M63.705 91.05h896.481v842.692H63.705z"/></defs><clipPath id="j"><use xlink:href="#i" overflow="visible"/></clipPath><path d="M63.71 546.691c2.345-11.959 4.008-24.099 7.159-35.841 8.828-32.84 23.881-62.139 52.708-81.943 8.682-5.968 20.496-7.588 28.701-13.984 7.806-6.09 12.515-16.031 19.104-23.836 2.535-3.007 6.207-5.901 9.889-6.922 9.076-2.524 10.466-9.241 11.614-16.975 13.847-93.248 60.232-166.679 137.108-220.355 48.501-33.862 102.999-52.033 162.366-55.302 83.378-4.596 157.788 19.207 222.465 71.512 55.856 45.174 92.47 103.316 109.618 173.29 3.041 12.413 4.533 25.199 7.306 37.683.612 2.768 3.093 6.075 5.612 7.311 12.816 6.313 22.31 15.568 28.273 28.593.969 2.117 2.914 4.718 4.913 5.278 37.28 10.423 59.332 37.042 72.888 71.049 6.92 17.354 9.737 36.342 14.416 54.591.5 1.955 1.041 3.901 1.556 5.851v36.736c-2.315 11.951-3.965 24.076-7.077 35.812-8.793 33.195-24.148 62.542-53.135 82.698-7.301 5.078-15.754 8.866-24.173 11.834-5.059 1.779-8.361 3.555-10.588 8.729-4.888 11.348-13.346 19.82-24.557 25.009-4.815 2.223-6.644 5.069-7.15 10.297-2.582 26.745-9.996 52.012-25.101 74.526-25.438 37.909-62.299 57.354-106.599 62.071-25.398 2.699-51.205 1.78-76.827 2.052-5.578.059-8.676 1.372-11.395 6.654-8.901 17.276-23.264 28.122-42.869 28.628-32.903.852-65.889 1.324-98.747-.087-28.691-1.235-49.386-25.301-49.051-53.598.341-28.083 21.707-51.609 50.378-52.669 32.018-1.187 64.138-.967 96.175-.005 19.713.594 34.791 10.93 43.979 28.604 2.621 5.039 5.315 7.388 11.25 7.037 29.026-1.712 58.593-.107 87.002-5.131 51.39-9.086 80.256-47.741 85.956-99.102.525-4.738-.657-7.209-5.054-9.514-19.98-10.458-29.469-27.645-29.508-49.829a74531.54 74531.54 0 0 1-.005-264.124c.039-22.129 9.358-39.176 29.109-50.247 2.115-1.192 3.92-5.486 3.608-8.073-5.427-45.714-21.76-87.43-48.043-125.057-36.153-51.759-84.177-88.316-144.127-108.388-60.801-20.359-122.031-20.491-182.774.102-69.721 23.633-122.528 68.282-158.849 132.168-17.875 31.439-29.139 65.315-33.171 101.365-.288 2.564 1.644 6.766 3.799 7.981 19.391 10.933 28.855 27.694 28.909 49.47.214 88.335.249 176.669-.004 265.005-.083 27.859-16.931 48.67-42.714 54.512-24.241 5.496-48.151-6.932-60.349-31.128-1.177-2.34-3.258-5.263-5.481-5.886-36.672-10.204-58.423-36.463-72.081-69.648-7.213-17.529-10.038-36.868-14.834-55.389-.574-2.218-1.07-4.45-1.605-6.678.007-12.248.007-24.49.007-36.737zm161.102 19.251c0-38.467.009-76.929 0-115.392-.005-6.701.209-13.419-.156-20.101-.569-10.361-7.35-16.742-17.374-16.863-10.165-.122-16.906 6.016-17.815 16.357-.229 2.606-.186 5.238-.186 7.859-.009 85.091-.009 170.177.005 255.268 0 2.909-.072 5.851.293 8.724 1.444 11.294 12.446 18.123 23.234 14.548 7.908-2.621 11.964-9.226 11.974-20.146.053-43.418.025-86.836.025-130.254zm609.034-.224c0-39.046.01-78.096-.01-117.143-.004-6.405.224-12.845-.286-19.216-.783-9.81-7.69-15.803-17.427-15.773-9.698.024-16.6 6.104-17.612 15.71-.306 2.884-.194 5.817-.194 8.731-.01 84.798-.01 169.598 0 254.392 0 3.205-.171 6.455.273 9.601 1.585 11.236 12.762 17.933 23.477 14.247 7.822-2.694 11.736-9.198 11.751-20.292.063-43.419.023-86.838.028-130.257zm-681.222 111.35V453.342c-11.517 5.086-19.489 12.883-26.24 22.022-19.684 26.648-26.619 57.3-26.698 89.658-.072 31.755 6.692 61.891 25.409 88.344 6.921 9.792 15.175 18.285 27.529 23.702zm717.817.151c14.28-6.57 23.584-17.09 31.21-29.225 15.492-24.645 21.567-52.013 21.756-80.728.219-33.322-6.615-64.824-26.897-92.202-6.716-9.062-14.639-16.931-26.069-21.644v223.799zM520.297 896.588c14.25 0 28.507.112 42.757-.035 11.745-.116 19.733-7.183 20.048-17.373.321-10.277-7.305-17.991-19.152-18.108-28.793-.291-57.591-.276-86.385-.034-11.902.102-19.679 7.539-19.669 17.699.01 10.447 8.259 17.728 20.515 17.83 13.963.118 27.922.026 41.886.021zm0 0" clip-path="url(#j)"/></svg>