<svg xmlns="http://www.w3.org/2000/svg" width="1024" height="1024" viewBox="0 0 1024 1024"><path d="M645.764 934.605h-.005c-16.285-.005-32.117-6.739-42.342-18.022-13.93-15.273-58.069-54.987-94.2-54.987-35.881 0-80.704 39.947-93.577 53.936-10.201 11.091-25.921 17.714-42.051 17.714-7.685 0-14.931-1.475-21.553-4.383l-1.158-.509-109.82-61.415-1.091-.76c-19.994-13.995-27.603-41.37-17.694-63.673.076-.171 10.13-23.371 10.13-44.522 0-64.187-52.225-116.413-116.413-116.413h-3.894c-.237.005-.474.01-.705.01-18.389 0-33.36-16.335-38.146-41.613-.381-2.024-9.37-49.971-9.37-87.75 0-37.777 8.988-85.73 9.37-87.754 4.841-25.599 20.14-42.044 38.851-41.602h3.894c64.187 0 116.413-52.225 116.413-116.413 0-21.146-10.049-44.34-10.154-44.572-9.894-22.283-2.235-49.654 17.844-63.603l1.138-.79 115.9-63.664 1.207-.513c6.528-2.784 13.674-4.192 21.246-4.192 16.094 0 31.845 6.476 42.141 17.326 13.719 14.362 57.077 51.717 92.172 51.717 34.764 0 77.861-36.614 91.533-50.726 10.235-10.628 25.876-16.994 41.808-16.994 7.725 0 15.007 1.46 21.639 4.343l1.172.514 111.945 62.189 1.101.775c20.029 13.974 27.658 41.35 17.745 63.668-.076.171-10.131 23.371-10.131 44.522 0 64.187 52.225 116.413 116.414 116.413h3.895c18.685-.417 34.004 15.998 38.849 41.602.383 2.024 9.371 49.971 9.371 87.75 0 37.777-8.988 85.73-9.376 87.754-4.84 25.599-20.159 41.985-38.849 41.602h-3.889c-64.188 0-116.414 52.225-116.414 116.413 0 21.146 10.05 44.335 10.15 44.567 9.889 22.268 2.249 49.644-17.794 63.609l-1.122.785-113.832 62.914-1.188.513c-6.511 2.809-13.632 4.234-21.16 4.234zm-3.458-53.63c.509.332 1.948.895 3.458.895.061 0 .12 0 .17-.005l106.354-58.778c-2.566-5.964-14.306-34.91-14.306-65.098 0-90.29 71.117-164.286 160.275-168.915 1.283-7.086 8.247-46.947 8.247-76.855 0-29.901-6.964-69.747-8.247-76.853-89.158-4.63-160.275-78.625-160.275-168.915 0-30.235 11.775-59.216 14.322-65.134l-104.628-58.128c-.121-.005-.267-.014-.438-.014-1.782 0-3.447.649-4 1.022-1.757 1.806-16.924 17.184-38.709 32.508-32.247 22.685-62.738 34.19-90.633 34.19-28.166 0-58.903-11.73-91.357-34.863-21.92-15.62-37.154-31.296-38.915-33.133-.558-.378-2.244-1.047-4.041-1.047-.14 0-.267.005-.372.01L270.84 201.383c2.597 6.039 14.292 34.934 14.292 65.068 0 90.29-71.117 164.285-160.275 168.915-1.283 7.091-8.248 46.947-8.248 76.853 0 29.902 6.964 69.743 8.253 76.85 89.153 4.634 160.269 78.625 160.269 168.915 0 30.295-11.821 59.326-14.337 65.169l102.569 57.353c.066.005.142.005.227.005 1.5 0 2.919-.548 3.427-.875 1.918-2.059 17.236-18.273 39.303-34.447 32.891-24.105 64.147-36.328 92.898-36.328 29.026 0 60.518 12.455 93.601 37.023 22.191 16.481 37.576 32.998 39.487 35.091zm0 0"/><path d="M509.593 666.662c-85.484 0-155.03-69.546-155.03-155.031 0-85.484 69.546-155.03 155.03-155.03 85.485 0 155.036 69.546 155.036 155.03.001 85.485-69.551 155.031-155.036 155.031zm0-257.328c-56.407 0-102.297 45.89-102.297 102.297 0 56.408 45.89 102.303 102.297 102.303 56.408 0 102.303-45.895 102.303-102.303.001-56.407-45.889-102.297-102.303-102.297zm0 0"/></svg>