<svg xmlns="http://www.w3.org/2000/svg" xmlns:xlink="http://www.w3.org/1999/xlink" width="1024" height="1024" viewBox="0 0 1024 1024"><defs><path id="aY" d="M64.168 63.291h894.298v896.267H64.168z"/></defs><clipPath id="aZ"><use xlink:href="#aY" overflow="visible"/></clipPath><path clip-path="url(#aZ)" d="M356.366 392.594h284.755v118.503H356.366z"/><path d="M511.158 63.408c-246.953 0-447.146 200.354-447.146 447.469s200.194 447.442 447.146 447.442c246.951 0 447.15-200.327 447.15-447.442S758.115 63.408 511.158 63.408zM260.767 226.69h497.542v45.339H260.767V226.69zm452.308 116.441v213.31H285.438v-213.31h427.637zm45.234 406.005H236.096v-46.37h163.712c-14.24-49.465-32.798-67.238-55.852-101.803l55.852-19.595c22.169 32.819 41.938 71.932 59.438 121.397H564.91c20.928-49.465 39.297-80.563 55.105-123.953l60.715 24.707c-15.863 36.602-33.013 49.781-51.164 99.246h128.748v46.37h-.005zm0 0" clip-path="url(#aZ)"/></svg>