<svg xmlns="http://www.w3.org/2000/svg" xmlns:xlink="http://www.w3.org/1999/xlink" width="1024" height="1024" viewBox="0 0 1024 1024"><defs><path id="bi" d="M63.509 63.391h895.206v896.167H63.509z"/></defs><clipPath id="bj"><use xlink:href="#bi" overflow="visible"/></clipPath><path d="M510.634 63.959c-246.998 0-447.256 200.257-447.256 447.256 0 246.993 200.257 447.25 447.256 447.25 246.993 0 447.25-200.257 447.25-447.25 0-246.999-200.257-447.256-447.25-447.256zm-322.248 404.15s-31.81-99.681 74.691-99.681h9.669c-1.339 0-21.971-60.828 36.119-96.832 0 0 45.729-29.013 98.338-17.944 0 0 32.093 8.33 48.698 30.467 2.737 4.193 19.902 36.004 28.176 78.883 11.125 47.076 23.199 105.218 23.199 143.96 0-4.193 4.475-11.069 4.475-16.656-6.936-56.746-1.117-110.699-1.117-166.045 1.394-20.742 1.339-33.21 11.068-55.348 6.876-12.468 20.683-29.073 51.155-38.742 15.15-4.137 71.841-11.073 85.703 42.879 1.289 4.027 1.289 22.026 1.289 27.06 3.634-1.677 13.918-6.544 15.095-7.661 4.137-1.34 49.533-23.481 85.423 30.471 2.797 1.34 28.513 47.017 6.376 96.828 0 0-12.19 22.141-34.327 37.347-6.876 4.137-35.389 16.605-78.269 22.137-76.034 8.33-99.348 15.206-146.923 29.073 0-1.343-13.53-1.343-19.062-2.793-24.825-2.683-74.248-2.683-135.13 11.123-1.34 0-15.206 2.794-31.811 4.137-20.794 2.794-54.004 6.207-78.883.726-15.153-4.193-42.827-24.261-53.952-53.389zm352.771 281.043c-1.4 24.88-13.863 51.209-19.399 52.553-33.21 51.209-103.708 49.866-121.767 36.003-41.48-20.742-49.81-63.677-49.81-67.814-1.343-4.137-2.793-9.729-2.793-11.018 0 1.288-20.742 1.288-26.279 1.288-85.703-5.537-80.226-84.42-77.484-96.832-1.343-31.811 16.601-52.549 24.931-65.017 12.583-13.811 31.871-30.471 51.269-38.802 40.086-20.742 92.635-37.343 159.11-40.086 5.533-1.394 23.481 0 27.618-1.394-1.343 47.072 12.468 81.622 27.674 142.56 8.273 47.075 8.273 81.628 6.93 88.559zm279.366-133.45c-16.605 55.292-67.758 46.403-71.896 46.403-2.794 0-16.605-8.164-17.945-8.164h-1.399c1.399 0 8.275 34.439 9.669 38.631 4.193 55.292-63.621 73.185-78.827 73.185-31.755 1.394-48.416-12.468-60.824-22.142-11.073-16.605-16.605-31.755-24.88-49.81-18.005-45.622-37.403-103.763-51.21-157.77-1.454-5.532-1.454-15.262-4.249-19.399 44.274-2.737 77.484-11.068 141.051-15.205 47.073-4.137 76.09 4.137 83.021 5.592 27.617 6.93 40.085 15.151 40.085 15.151 42.996 24.929 44.336 81.061 37.404 93.528zm0 0" clip-path="url(#bj)"/></svg>