<svg xmlns="http://www.w3.org/2000/svg" xmlns:xlink="http://www.w3.org/1999/xlink" width="1024" height="1024" viewBox="0 0 1024 1024"><path d="M393.504 466.392c13.012-1.54 23.242-6.035 30.694-13.486 7.447-7.447 11.168-17.246 11.168-29.405 0-11.642-3.209-21.1-9.632-28.381-6.419-7.276-15.965-11.685-28.636-13.225-7.533-.858-29.196-1.285-64.981-1.285h-43.659v87.067h49.826c29.622 0 48.029-.428 55.22-1.285zm0 0"/><defs><path id="aW" d="M64 62.89h895.707v896.668H64z"/></defs><clipPath id="aX"><use xlink:href="#aW" overflow="visible"/></clipPath><path d="M417.262 535.733c-10.362-3.593-32.836-5.39-67.422-5.39h-61.383v100.68h70.371c27.394 0 44.777-.772 52.138-2.313 11.301-2.053 20.503-7.063 27.613-15.027 7.102-7.959 10.657-18.62 10.657-31.973 0-11.301-2.74-20.892-8.216-28.766-5.483-7.878-13.4-13.613-23.758-17.211zm0 0" clip-path="url(#aX)"/><path d="M511.375 63.458c-247.153 0-447.506 200.353-447.506 447.506 0 247.147 200.353 447.5 447.506 447.5 247.147 0 447.5-200.353 447.5-447.5 0-247.153-200.353-447.506-447.5-447.506zm96.126 283.574h150.894v42.438H607.501v-42.438zm-91.616 288.225c-7.959 16.184-18.838 29.115-32.618 38.785-13.785 9.675-30.779 15.629-50.982 17.848-12.671 1.374-43.236 2.228-91.688 2.57h-128.16V317.94h150.502c29.798 0 52.011 1.246 66.649 3.726 14.643 2.483 27.741 7.665 39.298 15.539 11.557 7.878 21.189 18.363 28.892 31.462 7.708 13.102 11.561 27.782 11.561 44.047 0 17.638-4.754 33.822-14.258 48.546-9.501 14.727-22.389 25.767-38.653 33.13 22.943 6.679 40.581 18.065 52.906 34.158 12.33 16.099 18.497 35.017 18.497 56.761 0 17.12-3.982 33.769-11.946 49.948zm301.835-56.372H624.397c.551 21.406 6.773 38.055 18.676 49.953 11.898 11.903 26.723 17.852 44.486 17.852 12.082 0 22.24-3.081 30.481-9.244 8.237-6.166 14.459-16.093 18.672-29.797l76.891 12.073c-9.887 26.366-25.494 46.446-46.821 60.226-21.33 13.786-48.012 20.677-80.046 20.677-50.714 0-88.243-15.495-112.59-46.489-19.222-24.825-28.833-56.159-28.833-94.001 0-45.204 12.633-80.604 37.894-106.202 25.265-25.593 57.213-38.396 95.84-38.396 43.386 0 77.617 13.397 102.703 40.193 25.074 26.802 37.072 67.848 35.97 123.155zm0 0" clip-path="url(#aX)"/><path d="M683.714 470.758c-16.849 0-30.758 5.74-41.743 17.207-10.985 11.472-16.384 27.057-16.2 46.744h115.33c-.546-20.886-6.316-36.766-17.297-47.644-10.985-10.871-24.347-16.307-40.09-16.307zm0 0"/></svg>