<svg xmlns="http://www.w3.org/2000/svg" xmlns:xlink="http://www.w3.org/1999/xlink" width="1024" height="1024" viewBox="0 0 1024 1024"><defs><path id="by" d="M63.87 63.279h895.318v896.279H63.87z"/></defs><clipPath id="bz"><use xlink:href="#by" overflow="visible"/></clipPath><path d="M511.051 958.465c247.04 0 447.306-200.266 447.306-447.306 0-247.046-200.266-447.312-447.306-447.312-247.046 0-447.312 200.266-447.312 447.312 0 247.04 200.266 447.306 447.312 447.306zM379.559 396.589c86.004 43.418 158.687 40.914 158.687 40.914s-27.554-96.021 57.611-138.607c85.168-42.582 143.777 29.213 143.777 29.213s14.854-4.078 25.919-8.156c11.07-4.079 27.089-11.361 27.089-11.361l-26.243 46.849 40.411-4.287s-4.983 7.286-21.154 22.119c-16.172 14.832-22.839 22.493-22.839 22.493s5.78 115.584-55.107 204.571c-60.887 88.99-139.554 142.394-253.833 153.635-114.278 11.241-188.705-35.065-188.705-35.065s49.979-2.854 81.828-15.033c31.845-12.174 77.651-44.254 77.651-44.254s-65.126-20.037-88.507-42.582c-23.382-22.546-29.226-35.906-29.226-35.906l64.295-.832s-67.636-35.906-86.841-64.295c-19.201-28.389-21.709-55.943-21.709-55.943l49.433 19.961s-41.08-55.866-46.925-99.284c-5.848-43.418 7.512-66.799 7.512-66.799s20.876 39.232 106.876 82.649zm0 0" clip-path="url(#bz)"/></svg>