<svg xmlns="http://www.w3.org/2000/svg" xmlns:xlink="http://www.w3.org/1999/xlink" width="1024" height="1024" viewBox="0 0 1024 1024"><defs><path id="bE" d="M63.448 64.252h894.346v895.306H63.448z"/></defs><clipPath id="bF"><use xlink:href="#bE" overflow="visible"/></clipPath><path d="M587.668 540.319c-10.014 0-20.105 10.435-20.105 20.786 0 10.521 10.091 20.842 20.105 20.842 15.221 0 25.167-10.321 25.167-20.842 0-10.364-9.946-20.786-25.167-20.786zM377.84 385.645c-15.046 0-30.281 10.231-30.281 25.955 0 15.724 15.234 26.027 30.281 26.027 15.051 0 25.099-10.435 25.099-26.027s-10.006-25.955-25.099-25.955zm140.792 51.982c15.132 0 25.167-10.435 25.167-26.027s-10.035-25.955-25.167-25.955c-15.132 0-30.221 10.231-30.221 25.955 0 15.724 15.14 26.027 30.221 26.027zm-8.488-372.808c-246.782 0-446.826 200.057-446.826 446.834 0 246.777 200.044 446.813 446.826 446.813 246.776 0 446.821-200.044 446.821-446.813S756.92 64.819 510.144 64.819zm-66.95 586.305c-25.107 0-45.279-5.289-70.459-10.435l-70.31 36.471 20.091-62.61c-50.312-36.387-80.473-83.325-80.473-140.443 0-98.98 90.56-176.922 201.152-176.922 98.878 0 185.518 62.261 202.959 146.058a145.496 145.496 0 0 0-19.435-1.219c-95.541 0-170.991 73.762-170.991 164.711a136.012 136.012 0 0 0 6.251 43.622c-6.214.452-12.473.767-18.785.767zm300.311 76.639l15.153 52.009-55.161-31.273c-20.127 5.229-40.342 10.444-60.361 10.444-95.717 0-171.073-67.643-171.073-150.968 0-83.328 75.369-150.971 171.08-150.971 90.348 0 170.851 67.796 170.851 150.988-.007 46.878-30.087 88.455-70.489 119.771zm-45.194-187.444c-9.945 0-19.973 10.435-19.973 20.786 0 10.521 10.027 20.842 19.973 20.842 15.076 0 25.167-10.321 25.167-20.842 0-10.364-10.099-20.786-25.167-20.786zm0 0" clip-path="url(#bF)"/></svg>