<svg xmlns="http://www.w3.org/2000/svg" xmlns:xlink="http://www.w3.org/1999/xlink" width="1024" height="1024" viewBox="0 0 1024 1024"><path d="M420.814 308.199c-35.639-1.052-59.563 34.826-53.379 81.665 6.119 46.903 40.019 79.643 75.657 80.746 35.587 1.036 56.058-29.12 49.93-76.027-6.122-46.838-36.629-85.294-72.208-86.384zm0 0"/><defs><path id="bc" d="M63.366 61.445h896.807v900.237H63.366z"/></defs><clipPath id="bd"><use xlink:href="#bc" overflow="visible"/></clipPath><path d="M435.758 566.508c-53.091-.601-98.052 33.578-98.052 73.222 0 40.435 38.318 74.112 91.431 74.112 74.614 0 100.625-31.606 100.625-72.064 0-4.882-.61-9.662-1.692-14.274-5.866-22.872-29.072-35.429-57.935-55.508-10.44-3.388-22.014-5.368-34.377-5.488zm0 0" clip-path="url(#bd)"/><path d="M511.863 61.969c-247.69 0-448.497 201.195-448.497 449.339 0 248.174 200.812 449.317 448.497 449.317 247.728 0 448.493-201.143 448.493-449.317 0-248.144-200.765-449.339-448.493-449.339zm34.273 330.639c0 29.304-16.152 52.884-39.045 70.758-22.318 17.495-26.547 24.796-26.547 39.662 0 12.664 26.659 31.538 38.937 40.728 42.686 32.083 51.343 52.267 51.343 92.368 0 50.081-53.886 99.83-141.404 99.83-76.817 0-141.641-31.271-141.641-81.343 0-50.793 53.765-103.772 130.573-103.772 8.383 0 16.031-.232 23.967-.232-10.491-10.195-18.989-19.011-18.989-34.467 0-9.224 2.893-17.989 7.02-25.839-4.165.266-8.438.541-12.832.541-63.058 0-99.8-44.412-99.8-100.1 0-54.517 55.904-104.104 122.977-104.104h132.21l-29.566 31.108h-34.712c24.527 14.042 37.509 42.929 37.509 74.862zm189.814-8.168h-60.998v61.052h-30.494V384.44H583.53v-30.55h60.928v-61.116h30.494v61.116h60.998v30.55zm0 0" clip-path="url(#bd)"/></svg>