<svg xmlns="http://www.w3.org/2000/svg" xmlns:xlink="http://www.w3.org/1999/xlink" width="1024" height="1024" viewBox="0 0 1024 1024"><defs><path id="bs" d="M64.009 63.891h894.707v895.667H64.009z"/></defs><clipPath id="bt"><use xlink:href="#bs" overflow="visible"/></clipPath><path d="M510.824 64.458c-246.855 0-446.946 200.146-446.946 447.006 0 246.855 200.146 447.001 447.006 447.001 246.855 0 447.001-200.09 447.001-447.001 0-246.86-200.146-447.006-447.061-447.006zM304.983 279.354c30.787 0 55.704 22.462 55.704 50.009 0 27.492-24.917 49.954-55.704 49.954s-55.709-22.462-55.709-49.954c0-27.547 24.977-50.009 55.709-50.009zm46.487 300.109c-14.695 45.596-11.007 28.665-69.396 155.5l-84.599-52.69s94.318-85.877 113.706-125.05c20.455-41.346-22.627-63.415-22.627-63.415l-64.759-40.455 34.978-53.919c48.837 36.261 52.524 39.334 85.49 72.356 25.533 25.593 22.294 61.13 7.207 107.673zm459.633 59.114c-16.484 154.775-217.692 97.226-217.692 97.226l10.896-44.254 39.002 10.001c86.27 5.534 70.292-69.844 70.292-69.844V412.73c0-83.141-70.628-91.747-212.218-41.07l36.768 4.191c-2.852 9.724-9.779 36.823-23.412 36.823h175.058v47.549h-95.103v47.554h95.103v23.744h-95.103v95.49c0-5.363 32.131-12.515 45.039-22.069l-8.717-35.034 50.512-15.589 41.849 102.307-61.629 25.646-10.841-40.788c-27.547 21.178-84.875 51.629-184.778 48.948-106.889 2.737-79.458-127.062-79.458-127.062l2.741-7.988h75.096c-.502 23.745-6.987 48.218 1.898 62.243 7.264 11.566 21.57 16.822 33.527 17.38 1.339.222-.336 3.516-.336 3.516v-107H380.748v-23.744h118.848v-47.554h-19c-24.47 23.749-46.821 47.609-46.821 47.609l-32.91-28.719c23.353-24.588 46.71-63.42 61.127-89.459a1209.652 1209.652 0 0 0-36.21 15.364c-12.29 15.369-26.149 31.18-41.683 46.77.559.839-53.696-30.45-53.696-30.45 56.1-47.942 87.556-150.586 87.556-150.586l78.114 21.848s-6.535 15.198-19.78 38.438c312.569-88.447 330.674 54.259 330.674 54.259s20.617 98.62 4.136 253.28zm0 0" clip-path="url(#bt)"/></svg>