<svg xmlns="http://www.w3.org/2000/svg" width="1024" height="1024" viewBox="0 0 1024 1024"><path d="M578.539 650.444s-66.621 53.313-90.859 67.279c-21.296 12.269-41.294 20.438-59.106 26.098-17.817 5.66-33.433 9.223-46.847 10.687-13.41 1.468-24.522 2.41-33.325 2.83-.835.42-1.888.635-3.142.635h-10.063c-23.058 0-44.749-2.728-65.079-8.179-20.329-5.451-38.039-13.517-53.132-24.209-15.094-10.687-27.04-24.102-35.839-40.24-8.802-16.138-13.205-34.896-13.205-56.275.42-18.445 5.446-35.213 15.089-50.302 9.638-15.094 22.111-27.88 37.414-38.361 15.3-10.478 32.276-18.447 50.932-23.892 18.651-5.452 37.409-7.754 56.275-6.915 18.445.835 36.257 3.034 53.445 6.597 17.187 3.567 33.643 7.862 49.361 12.887 15.723 5.036 30.602 10.482 44.646 16.353a3330.289 3330.289 0 0 1 39.928 16.977 632.953 632.953 0 0 0 15.723 6.29 764.988 764.988 0 0 0 16.972 6.285c12.16-15.513 22.428-30.704 30.812-45.588 8.384-14.879 15.303-28.503 20.749-40.87 5.452-12.37 9.643-22.74 12.581-31.129 2.932-8.379 4.816-14.249 5.655-17.602H344.63v-30.187h128.903v-69.792H294.327v-30.182h179.205v-56.593c0-3.772 2.094-6.807 6.286-9.116 4.191-2.302 9.012-3.874 14.464-4.713 6.285-1.259 13.415-1.889 21.374-1.889h48.419v72.311h184.236v30.182H564.075v69.792h146.402c.035-.205.074-.415.107-.625v.625h-.107c-2.947 18.681-7.934 38.381-14.986 59.111-5.865 18.026-14.561 38.566-26.093 61.619-11.526 23.058-26.722 46.74-45.588 71.052 0 0 144.31 69.022 296.646 93.339 25.303-56.109 39.387-118.372 39.387-183.925 0-247.377-200.541-447.919-447.924-447.919C264.54 62.89 64 263.431 64 510.814c0 247.379 200.54 447.919 447.919 447.919 153.454 0 288.872-77.166 369.595-194.806-82.045-17.851-169.173-54.041-302.975-113.483zm0 0"/><path d="M226.419 630.323c-1.684 76.859 85.281 82.569 98.687 82.978 44.319 1.367 80.114-15.376 107.992-31.934 27.87-16.558 73.34-59.321 75.019-60.79a104.834 104.834 0 0 0 5.026-4.713c-12.155-6.71-24.102-12.892-35.838-18.554-11.737-5.655-71.369-37.683-124.291-43.162-100.214-10.38-126.088 52.795-126.595 76.175zm0 0"/></svg>