<svg xmlns="http://www.w3.org/2000/svg" xmlns:xlink="http://www.w3.org/1999/xlink" width="1024" height="1024" viewBox="0 0 1024 1024"><path d="M603.494 678.19h-42.188s-5.416-3.348-5.416-12.792v-88.517l-47.603.623v98.463s4.584 26.051 39.106 26.051h79.934V582.979h-23.802v95.211h-.031zm0 0"/><defs><path id="aU" d="M64 62.89h894.798v897.296H64z"/></defs><clipPath id="aV"><use xlink:href="#aU" overflow="visible"/></clipPath><path d="M460.652 582.952h-44.644s-41.212-1.632-55.658 45.087c-5 31.174 4.472 43.045 6.13 47.011 1.657 3.908 14.979 26.941 48.402 26.941h69.54v-179.11l-23.802-.533v60.632l.032-.028zm0 95.238h-35.198s-21.674-.597-28.365-25.581c-3.342-11.158.533-21.787 2.282-26.851 1.626-5 8.881-19.004 23.861-19.004h37.421v71.436zm0 0" clip-path="url(#aV)"/><path d="M511.395 63.982c-247.168 0-447.533 200.392-447.533 447.561 0 247.168 200.392 447.533 447.533 447.533 247.137 0 447.533-200.393 447.533-447.533 0-247.137-200.365-447.561-447.533-447.561zm27.325 237.52c3.55-32.566 42.48-82.509 73.654-75.345 31.084 7.074 59.475 48.345 53.733 83.837-5.624 35.529-33.866 82.45-77.832 76.708-43.841-5.624-53.788-45.385-49.555-85.2zm-92.072-89.588c32.863 0 59.475 37.837 59.475 84.582 0 46.776-26.612 84.64-59.475 84.64-32.832 0-59.475-37.837-59.475-84.64 0-46.718 26.643-84.582 59.475-84.582zM261.203 412.311s7.021-69.603 55.216-73.926c38.279-3.315 66.462 38.578 69.389 62.556 1.807 15.544 9.921 86.682-49.644 99.503-59.39 12.757-81.502-55.956-74.987-88.133h.026zm453.159 299.922c-32.565 76.766-151.605 36.888-151.605 36.888s-43.904-14.095-94.823-2.815c-50.951 11.402-94.854 7.078-94.854 7.078s-59.593 1.45-76.556-73.834c-16.962-75.371 59.475-116.641 65.189-123.657 5.625-7.138 45.295-34.137 70.755-76.735 25.577-42.631 102.019-76.767 155.807 7.042 39.702 56.873 107.674 109.509 107.674 109.509s50.951 39.788 18.413 116.524zm-9.948-174.874c-65.189 1.481-67.971-44.053-67.971-76.677 0-34.164 7.015-82.509 59.506-82.509 52.4 0 66.49 51.217 66.49 68.212 0 17.138 7.138 89.55-58.052 90.974h.027zm0 0" clip-path="url(#aV)"/></svg>