<svg xmlns="http://www.w3.org/2000/svg" width="1024" height="1024" viewBox="0 0 1024 1024"><path d="M511.703 63.893c-247.527 0-448.192 200.659-448.192 448.192S264.17 960.277 511.703 960.277c247.531 0 448.191-200.659 448.191-448.192S759.23 63.893 511.703 63.893zM620.376 264.04c21.344 9.223 41.763 21.465 60.599 36.697a259.246 259.246 0 0 1 22.29 20.156c16.659 16.927 30.493 35.662 41.738 55.476a274.117 274.117 0 0 1 7.977 15.138L620.376 526.433c1.305-8.12 0-262.393 0-262.393zm-132.449-19.081a249.275 249.275 0 0 1 29.77-1.787c23.551 0 46.384 3.253 68.083 9.193 5.456 1.539 10.865 3.19 16.16 5.022v190.791c-4.733-6.648-182.39-185.564-182.39-185.564 21.544-8.822 44.465-14.904 68.377-17.655zM310.765 345.182c6.107-7.796 12.642-15.412 19.809-22.682 16.634-16.922 35.021-31.029 54.542-42.451 4.866-2.867 9.848-5.554 14.889-8.119l132.592 134.921c-7.982-1.304-257.914.049-257.914.049a267.734 267.734 0 0 1 36.082-61.718zm-54.992 196.844c-1.148-9.907-1.778-20.043-1.778-30.273 0-23.985 3.2-47.174 9.033-69.285 1.489-5.55 3.111-11.079 4.915-16.443h187.533c-6.581 4.792-182.326 185.564-182.326 185.564-8.744-21.88-14.67-45.206-17.377-69.563zm97.697 180.103c-7.704-6.219-15.187-12.892-22.285-20.137-16.678-16.95-30.537-35.665-41.738-55.523-2.819-4.959-5.5-10-7.982-15.163l132.562-134.921c-1.284 8.144.074 262.437.074 262.437-21.413-9.219-41.77-21.442-60.631-36.693zm193.191 57.083c-9.736 1.143-19.678 1.787-29.726 1.787-23.575 0-46.359-3.253-68.088-9.218a262.977 262.977 0 0 1-16.155-4.997V575.967c4.728 6.697 182.37 185.56 182.346 185.56-21.544 8.857-44.47 14.91-68.377 17.685zM722.563 680c-6.135 7.841-12.691 15.457-19.789 22.682a261.575 261.575 0 0 1-54.542 42.471 257.321 257.321 0 0 1-14.899 8.119l-132.607-134.92c8.002 1.308 257.893-.025 257.893-.025-9.056 21.743-21.118 42.495-36.056 61.673zm48.992-98.18c-1.486 5.544-3.111 11.055-4.915 16.438H579.132c6.584-4.811 182.345-185.579 182.345-185.579a268.512 268.512 0 0 1 17.357 69.559c1.153 9.931 1.783 20.043 1.783 30.296 0 23.986-3.205 47.151-9.062 69.286zm0 0"/></svg>