<svg xmlns="http://www.w3.org/2000/svg" xmlns:xlink="http://www.w3.org/1999/xlink" width="1024" height="1024" viewBox="0 0 1024 1024"><defs><path id="m" d="M64.068 95.005h896.287v833.958H64.068z"/></defs><clipPath id="n"><use xlink:href="#m" overflow="visible"/></clipPath><path d="M926.613 479.694c-17.645 0-31.965 14.319-31.965 31.965v319.639c0 17.641-14.32 31.961-31.961 31.961h-703.21c-17.641 0-31.961-14.32-31.961-31.961V287.913c0-17.646 14.32-31.966 31.961-31.966h223.751c17.641 0 31.961-14.319 31.961-31.965 0-17.641-14.32-31.961-31.961-31.961-1.024 0-1.888.478-2.878.576H159.863c-52.9 0-95.795 42.959-95.795 95.957V831.81c0 52.993 42.895 95.957 95.795 95.957h703.429c52.899 0 95.794-42.964 95.794-95.957V511.659h-.512c0-17.646-14.32-31.965-31.961-31.965zm-524.72 140.607c-1.917 4.127-3.165 8.599-3.165 13.427 0 17.646 14.32 31.965 31.966 31.965 15.436 0 27.712-11.159 30.717-25.732h.639c37.077-189.483 193.766-335.875 388.234-357.867l-67.702 67.697c-12.496 12.5-12.496 32.73 0 45.198 12.501 12.501 32.732 12.501 45.198 0l122.392-122.392c12.495-12.495 12.495-32.731 0-45.193L827.78 105.014c-12.496-12.501-32.732-12.501-45.198 0-12.496 12.495-12.496 32.73 0 45.198l67.444 67.443c-222.82 22.183-402.647 187.533-448.133 402.646zm0 0" clip-path="url(#n)"/></svg>