<svg xmlns="http://www.w3.org/2000/svg" width="1024" height="1024" viewBox="0 0 1024 1024"><path d="M512.278 62.89C264.713 62.89 64 263.603 64 511.167c0 247.556 200.713 448.269 448.278 448.269 247.556 0 448.268-200.713 448.268-448.269-.001-247.62-200.713-448.277-448.268-448.277zM628.15 511.107l-73.457.06-.056 268.96H453.831v-268.96h-67.243v-92.685l67.243-.056-.111-54.576c0-75.648 20.508-121.65 109.543-121.65h74.192v92.733h-46.399c-34.682 0-36.362 12.947-36.362 37.098l-.112 46.395h83.377l-9.809 92.681zm0 0"/></svg>