<svg xmlns="http://www.w3.org/2000/svg" xmlns:xlink="http://www.w3.org/1999/xlink" width="1024" height="1024" viewBox="0 0 1024 1024"><defs><path id="bG" d="M63.454 63.566h894.839v895.992H63.454z"/></defs><clipPath id="bH"><use xlink:href="#bG" overflow="visible"/></clipPath><path d="M510.786 63.513c-247.095 0-447.47 200.3-447.47 447.47 0 247.167 200.3 447.466 447.47 447.466 247.094 0 447.467-200.299 447.467-447.466 0-247.171-200.3-447.47-447.467-447.47zm246.288 745.906c-123.59 55.156-281.032 11.465-349.433-12.66-53.702-16.669-101.069-47.66-137.899-88.337-.918-.54-1.95-.847-2.874-1.355.572.005 1.163.005 1.825.194-49.151-54.877-79.079-127.307-79.079-206.702 0-171.358 138.876-310.194 310.18-310.194 171.322 0 310.18 138.876 310.18 310.194 0 110.232-57.535 206.936-144.192 261.922 7.74 9.708 30.478 30.382 91.374 46.97l-.082-.032zm-104.1-262.557v-.189a159.804 159.804 0 0 0 6.968-46.66c0-88.341-71.573-159.941-159.919-159.941-88.341 0-159.937 71.577-159.937 159.941 0 57.585 30.558 107.93 76.214 136.07l-1.446.301c-24.458 43.426-70.943 72.8-124.338 72.8-7.438 0-14.655-.807-21.805-1.951.343.369.788.794 1.113 1.167 37.365 19.628 79.849 30.906 125.018 30.906 122.049 0 225.056-81.174 258.173-192.47l-.041.026zm0 0" clip-path="url(#bH)"/></svg>