<svg xmlns="http://www.w3.org/2000/svg" xmlns:xlink="http://www.w3.org/1999/xlink" width="1024" height="1024" viewBox="0 0 1024 1024"><defs><path id="bo" d="M63.511 62.894h895.458v896.664H63.511z"/></defs><clipPath id="bp"><use xlink:href="#bo" overflow="visible"/></clipPath><path d="M510.587 62.891c-120.59 0-236.176 50.25-316.571 130.656-79.394 80.395-130.655 195.981-130.655 316.571 0 165.831 89.449 307.531 221.106 386.931 65.32 39.199 145.725 61.3 226.121 61.3 125.625 0 235.175-50.25 316.581-131.65 108.538-108.544 159.789-275.376 115.581-435.17C890.476 200.578 717.624 62.891 510.587 62.891zM787.964 442.78c-.996 6.031-8.034 15.08-22.103 26.141L649.28 575.448l4.024 21.105c-58.298 0-104.529-1.01-137.687-2.006-22.113-1.011-32.158-5.035-30.15-12.063 1.006-3.013 5.02-7.036 12.061-11.061 48.234-36.175 89.44-64.324 122.608-83.413 39.189-22.103 24.124-26.126-1.006-28.133-3.018-1.011-6.03-1.011-7.031-1.011-107.543-10.055-251.251 7.041-256.281 10.055 95.48 5.02 156.786 9.034 183.913 11.051 13.069 1 20.11 2.006 20.11 5.025 0 1.005-6.031 4.024-17.091 11.05l-4.015 3.019-35.175 25.13c-73.368 51.251-109.554 79.394-109.554 85.415 81.407 12.061 167.843 11.066 260.3-4.014l42.213-6.031-39.199 20.1 20.1 112.567s3.013 10.045 3.013 20.1v8.034c0 3.018 0 5.025-.996 6.031-3.018 3.018-18.093-3.014-29.144-10.055l-8.048-4.01-131.657-78.403-138.684 81.417c.996-1.011-23.113 15.065-29.144 11.051-2.016 0 0-21.106 2.008-30.15v-3.019l28.133-157.782-115.57-104.52-3.012-2.006c-4.024-8.049-20.1-17.093-20.1-26.141 1.006-4.014 20.1-7.027 33.168-8.037l11.051-.996 147.733-18.094 64.319-129.649c9.049-21.106 16.086-32.156 20.1-32.156 3.013-1.011 4.024 1.005 7.038 5.02l4.024 6.03c4.014 6.031 6.021 14.08 8.038 17.093l1.001 1.001 66.336 132.662 163.813 20.1 25.125 5.02 1.999 2.006zm0 0" clip-path="url(#bp)"/></svg>