<svg xmlns="http://www.w3.org/2000/svg" width="1024" height="1024" viewBox="0 0 1024 1024"><path d="M924.816 337.122c-22.623-53.409-54.883-101.332-96.112-142.56s-89.151-73.489-142.56-96.112C630.86 75.025 572.095 63.245 511.592 63.245S392.325 75.159 337.04 98.451c-53.409 22.623-101.332 54.883-142.56 96.112-41.228 41.228-73.489 89.151-96.112 142.56-23.425 55.284-35.205 114.049-35.205 174.552s11.913 119.268 35.205 174.552c22.623 53.409 54.883 101.332 96.112 142.56 41.228 41.228 89.151 73.489 142.56 96.112 55.284 23.425 114.049 35.205 174.552 35.205S630.86 948.191 686.144 924.9c53.409-22.623 101.332-54.883 142.56-96.112 41.228-41.228 73.489-89.151 96.111-142.56 23.425-55.284 35.205-114.049 35.205-174.552s-11.912-119.27-35.204-174.554zm-161.969 53.141L453.765 699.344c-12.448 12.448-32.929 12.448-45.378 0L250.432 541.389c-12.448-12.448-12.448-32.929 0-45.378 12.448-12.448 32.929-12.448 45.378 0l135.197 135.197 286.326-286.326c12.448-12.448 32.929-12.448 45.378 0 12.583 12.448 12.583 32.795.135 45.378l.001.003z"/></svg>