<svg xmlns="http://www.w3.org/2000/svg" xmlns:xlink="http://www.w3.org/1999/xlink" width="1024" height="1024" viewBox="0 0 1024 1024"><defs><path id="bK" d="M63.911 62.836h895.76v896.722H63.911z"/></defs><clipPath id="bL"><use xlink:href="#bK" overflow="visible"/></clipPath><path d="M511.312 958.464c-247.181 0-447.533-200.352-447.533-447.527 0-247.181 200.352-447.533 447.533-447.533 247.175 0 447.527 200.352 447.527 447.533 0 247.175-200.351 447.527-447.527 447.527zm0-839.119c-216.272 0-391.592 175.32-391.592 391.592 0 216.267 175.32 391.587 391.592 391.587 216.267 0 391.587-175.32 391.587-391.587 0-216.272-175.32-391.592-391.587-391.592zM464.04 666.761c-.922 1.314-1.482 2.826-2.659 3.999-5.51 5.51-12.782 8.054-19.995 7.857-7.218.172-14.49-2.347-20-7.857-1.173-1.173-1.737-2.684-2.659-3.999L281.532 529.562c-10.657-10.656-10.657-27.967 0-38.625 10.657-10.657 27.969-10.657 38.625 0L441.386 612.16l261.077-261.077c10.657-10.657 27.942-10.657 38.625 0 10.657 10.657 10.657 27.969 0 38.625L464.04 666.761zm0 0" clip-path="url(#bL)"/></svg>