<svg xmlns="http://www.w3.org/2000/svg" xmlns:xlink="http://www.w3.org/1999/xlink" width="1024" height="1024" viewBox="0 0 1024 1024"><defs><path id="bM" d="M71 62.89h882.693v896.668H71z"/></defs><clipPath id="bN"><use xlink:href="#bM" overflow="visible"/></clipPath><path d="M799.005 629.671c-32.082-32.619-88.371-24.507-120.335 7.871l-64.04 65.055c-29.575 30.649-38.282 22.779-113.114-37.982-1.074-.418-155.272-153.189-156.227-155.336-34.885-42.809-42.041-59.568-11.092-91.645l19.262-19.558s36.372-36.914 51.398-52.176c31.963-32.442 31.781-85.209-.296-117.768L301.223 123.183c-32.141-32.614-84.077-32.797-115.98-.355h-.059c-13.298 13.357-44.96 45.256-70.601 71.792-42.036 52.649-127.722 234.876 181.512 535.227 320.145 310.905 499.151 231.72 550.968 179.066l10.673-10.855 6.383-6.496c7.215-7.397 25.817-26.235 38.519-39.178 31.9-32.378 31.782-85.15-.3-117.705L799.005 629.671zM191.803 168.202c46.33-47.104 69.167-33.807 102.5 0l76.865 78.116c30.113 30.59 26.177 53.664-10.973 91.409-6.141 6.142-10.136 10.195-13.597 13.775L178.983 181.145c4.112-4.176 8.407-8.47 12.82-12.943zm385.499 708.451c-125.219-55.037-244.598-174.475-244.598-174.475-193.255-187.59-230.345-333.979-211.797-422.112 6.019-31.063 29.993-68.154 45.616-87.475L332.527 358.6c-5.068 5.127-22.478 29.93-30.413 38.101-8.584 8.407-26.054 30.831-22.178 53.427 12.402 76.447 120.748 174.293 161.114 214.664 53.846 53.068 113.833 97.911 151.52 92.425 16.992 2.206 50.029-30.826 71.97-53.723l166.004 166.004c-98.264 75.786-190.215 31.662-253.242 7.155zm282.226-31.008c-4.771 4.832-9.485 8.944-14.193 13.18L678.793 689.718c1.01-1.074 1.965-2.148 2.921-3.221 38.696-39.297 68.513-54.324 112.281-9.959l51.22 52.058c45.736 46.508 59.21 71.492 14.313 117.049zM684.576 332.778c53.191 54.083 63.444 116.813 71.255 155.214.837 3.757 2.625 7.038 5.128 9.599 4.594 4.713 11.568 6.978 18.665 5.308 10.973-2.502 18.066-13.238 15.859-23.97-9.298-45.734-18.661-110.552-81.51-174.415-69.827-71.075-127.071-74.536-172.388-85.209-10.731-2.503-21.763 4.117-24.684 14.849-2.926 10.732 3.517 21.527 14.19 24.029 38.104 9.003 83.243 3.103 153.485 74.595zm128.918-123.969C699.365 92.652 608.011 80.846 542.064 64.568c-10.796-2.625-22.006 3.935-24.926 14.667-3.039 10.677 3.281 21.469 13.953 24.152 58.914 14.49 157.42 36.432 253.005 133.686 97.609 99.344 117.231 199.461 129.396 260.876a19.393 19.393 0 0 0 5.128 9.722c4.59 4.709 11.505 6.916 18.601 5.364 11.033-2.443 18.13-13.175 16.042-23.912-13.658-68.807-14.909-153.243-139.769-280.314zm0 0" clip-path="url(#bN)"/></svg>