<svg xmlns="http://www.w3.org/2000/svg" width="1024" height="1024" viewBox="0 0 1024 1024"><path d="M631.662 775.818c-21.966 0-39.778 17.709-39.778 39.729 0 22.025 17.812 39.729 39.778 39.729 21.976 0 39.788-17.704 39.788-39.729 0-22.02-17.815-39.729-39.788-39.729zm.059-220.134c77.57-42.644 130.794-124.153 130.794-218.889 0-138.621-112.386-250.9-250.954-250.9-138.625 0-251.011 112.279-251.011 250.9 0 94.736 53.225 176.245 130.848 218.889C216.339 604.158 84.74 754.228 64.009 938.842h51.066c24.882-197.68 191.846-351.251 396.487-351.251 204.584 0 371.547 153.57 396.483 351.251h51.066c-20.732-184.614-152.331-334.684-327.39-383.158zM310.752 336.795c0-110.873 89.878-200.698 200.809-200.698 110.874 0 200.751 89.825 200.751 200.698 0 110.77-89.878 200.701-200.751 200.701-110.931 0-200.809-89.931-200.809-200.701zm427.043 439.023c-21.973 0-39.788 17.709-39.788 39.729 0 22.025 17.815 39.729 39.788 39.729 21.966 0 39.783-17.704 39.783-39.729 0-22.02-17.816-39.729-39.783-39.729zm-212.259 0c-21.966 0-39.832 17.709-39.832 39.729 0 22.025 17.865 39.729 39.832 39.729 21.976 0 39.788-17.704 39.788-39.729-.001-22.02-17.812-39.729-39.788-39.729zm0 0"/></svg>