<svg xmlns="http://www.w3.org/2000/svg" xmlns:xlink="http://www.w3.org/1999/xlink" width="1024" height="1024" viewBox="0 0 1024 1024"><defs><path id="a" d="M64.144 65.424h896.058V959.13H64.144z"/></defs><clipPath id="b"><use xlink:href="#a" overflow="visible"/></clipPath><path d="M774.705 326.767c0 144.008-116.745 260.778-260.777 260.778-144.037 0-260.778-116.745-260.778-260.778 0-144.007 116.741-260.777 260.778-260.777 144.032 0 260.777 116.746 260.777 260.777zm0 0M729.157 599.813c-60.771 47.972-136.09 74.621-215.229 74.621-80.062 0-156.105-27.261-217.152-76.158C135.878 657.347 64.013 863.767 64.013 958.04h895.283c0-93.439-72.418-298.409-230.139-358.202v-.025zm0 0" clip-path="url(#b)"/></svg>