<svg xmlns="http://www.w3.org/2000/svg" xmlns:xlink="http://www.w3.org/1999/xlink" width="1024" height="1024" viewBox="0 0 1024 1024"><defs><path id="i" d="M64.141 63.031h896.046v898.345H64.141z"/></defs><clipPath id="j"><use xlink:href="#i" overflow="visible"/></clipPath><path d="M721.395 647.351c-48.649 0-88.229 39.594-88.229 88.242 0 48.658 39.58 88.252 88.229 88.252 48.661 0 88.241-39.594 88.241-88.252 0-48.648-39.58-88.242-88.241-88.242zm0 131.021c-23.585 0-42.769-19.194-42.769-42.779 0-23.579 19.18-42.769 42.769-42.769 23.588 0 42.782 19.191 42.782 42.769 0 23.585-19.194 42.779-42.782 42.779zm233.297-88.883c-3.308-17.472-14.52-28.767-28.917-28.767h-1.998c-27.544 0-49.964-22.406-49.964-49.945 0-7.231 3.161-16.115 4.367-18.896 6.817-15.359 1.567-34.21-13.586-44.704l-58.417-32.345c-4.577-1.974-9.521-2.983-14.704-2.983-10.581 0-21.037 4.312-27.965 11.487-7.276 7.501-26.604 22.984-39.919 22.984-13.435 0-32.881-15.781-40.176-23.396-6.961-7.36-17.513-11.754-28.212-11.754-5.123 0-9.998.981-14.374 2.873l-1.091.449-59.448 32.647-1.411.916c-13.82 9.614-19.099 28.455-12.326 43.677.453 1.086 4.426 10.754 4.426 19.043 0 27.539-22.415 49.945-49.967 49.945h-2.333c-14.043 0-25.266 11.295-28.574 28.785-.504 2.69-4.93 26.852-4.93 46.385 0 19.539 4.426 43.695 4.93 46.408 3.308 17.471 14.521 28.766 28.922 28.766h1.98c27.552 0 49.972 22.412 49.972 49.945 0 7.23-3.161 16.116-4.362 18.902-6.808 15.341-1.58 34.169 13.523 44.698l57.313 31.938c4.569 1.984 9.517 3.01 14.713 3.01 10.773 0 21.34-4.509 28.244-12.042 7.062-7.661 27.104-24.44 40.795-24.44 13.837 0 33.655 16.815 41.064 24.944 6.951 7.661 17.592 12.23 28.45 12.23 5.11 0 9.975-.981 15.886-3.596l57.951-32.02 1.388-.917c13.802-9.594 19.066-28.418 12.299-43.657-.454-1.091-4.427-10.754-4.427-19.049 0-27.533 22.42-49.945 49.964-49.945h2.3c14.076 0 25.302-11.295 28.597-28.72.046-.243 4.944-25.907 4.944-46.459 0-19.528-4.423-43.69-4.927-46.397zm-43.424 76.919c-47.053 6.158-82.904 46.339-82.904 94.597 0 11.144 2.685 21.729 5.055 28.89l-41.817 23.117c-3.757-3.688-9.76-9.209-17.192-14.721-18.484-13.715-36.391-20.693-53.202-20.693-16.67 0-34.43 6.846-52.8 20.308a167.569 167.569 0 0 0-17.087 14.428l-39.974-22.36c2.374-7.175 5.081-17.825 5.081-28.964 0-48.263-35.84-88.443-82.9-94.597-1.205-7.79-2.895-20.487-2.895-30.527 0-10.08 1.681-22.74 2.895-30.507 47.05-6.158 82.9-46.348 82.9-94.603 0-11.111-2.685-21.687-5.049-28.853l43.164-23.686c3.743 3.524 9.755 8.826 17.137 14.081 18.122 12.917 35.594 19.474 51.916 19.474 16.156 0 33.481-6.429 51.484-19.107a164.43 164.43 0 0 0 17.027-13.792l41.33 22.965c-2.364 7.171-5.067 17.778-5.067 28.917 0 48.264 35.837 88.444 82.895 94.603 1.228 7.926 2.906 20.564 2.906 30.516-.002 10.023-1.675 22.618-2.903 30.514zM122.981 895.609v-49.967c0-169.905 131.025-309.929 297.952-325.71l-.068-.036s.164 0 .435.008c10.231-.962 20.583-1.498 31.066-1.498 1.577 0 3.13.087 4.701.106 36.917-2.863 92.779-11.538 121.975-37.596l14.287-11.139c55.815-43.585 87.83-108.701 87.83-178.638 0-125.321-102.653-227.272-228.84-227.272S223.485 165.818 223.485 291.138c0 69.937 32.015 135.053 87.825 178.638l14.287 11.134-16.83 6.685C160.077 546.628 64 687.165 64 845.642v79.201c0 16.124 13.22 29.243 29.486 29.243h430.878c-14.026-17.961-25.981-37.559-35.649-58.477H122.981zm159.484-604.471c0-93.081 76.191-168.8 169.854-168.8 93.658 0 169.864 75.718 169.864 168.8S545.978 459.933 452.32 459.933c-93.664 0-169.855-75.713-169.855-168.795zm0 0" clip-path="url(#j)"/></svg>