<svg xmlns="http://www.w3.org/2000/svg" xmlns:xlink="http://www.w3.org/1999/xlink" width="1024" height="1024" viewBox="0 0 1024 1024"><defs><path id="e" d="M64.134 183.935h896.052v654.126H64.134z"/></defs><clipPath id="f"><use xlink:href="#e" overflow="visible"/></clipPath><path d="M563.44 502.769c53.08-21.039 90.774-72.78 90.774-133.255 0-79.068-64.334-143.39-143.403-143.39-79.072 0-143.39 64.322-143.39 143.39 0 60.475 37.677 112.216 90.757 133.255-118.018 24.4-207.02 129.138-207.02 254.284 0 30.43 21.351 40.512 38.5 48.608l.984.407c69.167 24.413 169.196 30.921 217.4 30.921 52.568 0 155.472-8.533 223.81-32.137 25.616-9.823 38.613-25.91 38.613-47.798 0-125.16-89.006-229.898-207.025-254.285zm0 0" clip-path="url(#f)"/><path d="M390.766 490.692c-33.97-31.673-55.333-76.683-55.333-126.792 0-61.363 31.943-115.169 80.017-146.019v-.013c-.297-.42-.73-.661-1.068-1.015-.35-.376-.565-.849-.985-1.186a143.661 143.661 0 0 0-89.745-31.647c-79.068 0-143.403 64.322-143.403 143.39 0 60.475 37.695 112.216 90.77 133.255C152.989 485.064 64 589.802 64 714.944c0 21.905 12.997 37.978 38.951 47.937 38.433 13.281 86.126 20.93 120.201 25.088a289.245 289.245 0 0 1-2.156-34.709c-.001-116.899 69.702-217.453 169.77-262.568zm362.086-30.015c53.08-21.039 90.769-72.78 90.769-133.255 0-79.068-64.329-143.39-143.402-143.39-33.104 0-65.425 11.565-90.971 32.552l-3.808 3.116c48.152 32.18 77.051 86.284 77.021 144.199 0 50.109-21.363 95.119-55.333 126.792 100.068 45.115 169.771 145.67 169.771 262.568 0 12.011-.822 23.817-2.24 35.44l.718-.083c35.073-4.074 85.33-11.832 125.9-25.857 25.612-9.823 38.608-25.91 38.608-47.798-.001-125.159-89.002-229.897-207.033-254.284zm0 0" clip-path="url(#f)"/></svg>