<svg xmlns="http://www.w3.org/2000/svg" xmlns:xlink="http://www.w3.org/1999/xlink" width="1024" height="1024" viewBox="0 0 1024 1024"><defs><path id="a" d="M64.071 201.77h895.965v619.707H64.071z"/></defs><clipPath id="b"><use xlink:href="#a" overflow="visible"/></clipPath><path d="M511.568 201.704c-163.559 0-291.099 117.98-447.496 309.285C198.767 674.43 311.759 820.277 511.568 820.277c199.584 0 346.359-184.542 447.496-305.769-103.373-142.059-250.153-312.804-447.496-312.804zm.433 511.924c-105.823 0-191.967-86.212-191.967-191.972 0-105.995 86.144-191.974 191.967-191.974 105.824 0 191.974 86.213 191.974 191.974 0 105.993-86.149 191.972-191.974 191.972zm0-268.871c0-19.088 7.129-36.293 18.636-49.739-6.025-1.074-12.333-1.342-18.636-1.342-70.428 0-127.978 57.268-127.978 127.979s57.55 127.978 127.978 127.978c70.434 0 127.984-57.266 127.984-127.978 0-5.649-.547-11.025-1.099-16.667-13.425 10.213-30.142 16.667-48.504 16.667-43.297 0-78.381-34.413-78.381-76.898zm0 0" clip-path="url(#b)"/></svg>