<svg xmlns="http://www.w3.org/2000/svg" xmlns:xlink="http://www.w3.org/1999/xlink" width="1024" height="1024" viewBox="0 0 1024 1024"><defs><path id="a" d="M63.499 226.989h896.254v569.694H63.499z"/></defs><clipPath id="b"><use xlink:href="#a" overflow="visible"/></clipPath><path d="M954.819 499.102c-2.008-2.76-50.125-68.485-128.334-135.042-104.862-89.246-213.894-136.417-315.303-136.417-101.405 0-210.437 47.172-315.304 136.417-78.209 66.557-126.311 132.282-128.329 135.042a21.186 21.186 0 0 0 0 24.912c2.007 2.76 50.12 68.495 128.329 135.05 104.876 89.247 213.899 136.428 315.304 136.428 101.408 0 210.441-47.177 315.303-136.428 78.209-66.555 126.316-132.28 128.334-135.05a21.186 21.186 0 0 0 0-24.912zM511.182 753.116c-193.023 0-358.713-190.457-399.682-241.556 40.969-51.095 206.649-241.533 399.682-241.533 193.051 0 358.74 190.461 399.686 241.542-40.896 51.101-206.329 241.547-399.686 241.547zm0 0" clip-path="url(#b)"/><path d="M517.685 331.56c-100.095 0-181.524 81.438-181.524 181.538s81.429 181.539 181.524 181.539c100.09 0 181.519-81.439 181.519-181.539S617.77 331.56 517.685 331.56zm0 320.701c-76.725 0-139.148-62.428-139.148-139.163 0-76.734 62.423-139.163 139.148-139.163s139.143 62.429 139.143 139.163c0 76.724-62.428 139.163-139.143 139.163zm0 0"/></svg>