<svg xmlns="http://www.w3.org/2000/svg" width="1024" height="1024" viewBox="0 0 1024 1024"><path d="M951.896 821.95l-384.92-684.618c-24.322-43.26-85.13-43.26-109.453 0L72.604 821.95c-24.322 43.26 6.081 97.337 54.726 97.337h769.84c48.646 0 79.05-54.076 54.726-97.337zM471.852 369.395c11.293-13.554 25.646-20.332 43.158-20.332 17.52 0 31.864 6.71 43.165 20.061 11.225 13.385 16.839 30.125 16.839 50.253 0 17.315-23.441 144.662-31.254 237.309h-56.465c-6.86-92.645-32.292-219.991-32.292-237.309.003-19.823 5.626-36.494 16.849-49.982zm85.523 440.525c-11.873 12.843-26.004 19.247-42.364 19.247-16.352 0-30.491-6.405-42.365-19.247-11.842-12.809-17.733-28.329-17.733-46.561 0-18.129 5.89-33.819 17.733-46.968 11.873-13.148 26.013-19.722 42.365-19.722 16.359 0 30.491 6.574 42.364 19.722 11.842 13.148 17.741 28.837 17.741 46.968 0 18.234-5.897 33.753-17.741 46.561z"/></svg>