<svg xmlns="http://www.w3.org/2000/svg" width="1024" height="1024" viewBox="0 0 1024 1024"><path d="M848.731 927.266H175.555c-45.145 0-81.407-17.7-99.523-48.563-18.115-30.863-15.911-71.183 6.07-110.577l339.655-608.702c22.109-39.681 54.985-62.429 90.161-62.429s68.02 22.716 90.193 62.365l340.008 608.83c21.981 39.394 24.25 79.682 6.102 110.545-18.083 30.863-54.378 48.531-99.49 48.531zm-336.78-766.372c-11.182 0-23.994 11.086-34.378 29.649L137.919 799.309c-10.639 19.106-13.131 36.263-6.773 47.094 6.358 10.799 22.556 16.997 44.41 16.997h673.176c21.885 0 38.052-6.166 44.41-16.997 6.326-10.799 3.866-27.956-6.805-47.062L546.329 190.543c-10.352-18.563-23.227-29.649-34.378-29.649zm.192 478.124c-17.636 0-31.949-14.281-31.949-31.95V319.523c0-17.636 14.313-31.949 31.949-31.949s31.95 14.313 31.95 31.949v287.545c-.001 17.669-14.314 31.95-31.95 31.95zm-47.924 111.951c0 26.468 21.456 47.924 47.924 47.924s47.924-21.456 47.924-47.924-21.456-47.924-47.924-47.924-47.924 21.456-47.924 47.924z"/></svg>