<svg xmlns="http://www.w3.org/2000/svg" xmlns:xlink="http://www.w3.org/1999/xlink" width="1024" height="1024" viewBox="0 0 1024 1024"><defs><path id="bW" d="M63.504 63.394h895.203v896.164H63.504z"/></defs><clipPath id="bX"><use xlink:href="#bW" overflow="visible"/></clipPath><path d="M510.628 63.962c-246.993 0-447.254 200.253-447.254 447.254 0 246.996 200.261 447.249 447.254 447.249 246.988 0 447.249-200.252 447.249-447.249-.001-247-200.262-447.254-447.249-447.254zm0 838.598c-216.151 0-391.349-175.216-391.349-391.343 0-216.133 175.198-391.349 391.349-391.349 216.145 0 391.352 175.215 391.352 391.349-.001 216.127-175.207 391.343-391.352 391.343zm0 0" clip-path="url(#bX)"/><path d="M482.681 259.634h55.897v335.438h-55.897zM509.749 678.933c23.152 0 41.936 18.784 41.936 41.936 0 23.14-18.784 41.933-41.936 41.933-23.148 0-41.932-18.793-41.932-41.933.007-23.152 18.784-41.936 41.932-41.936zm0 0"/></svg>