<svg xmlns="http://www.w3.org/2000/svg" width="1024" height="1024" viewBox="0 0 1024 1024"><path d="M511.745 64.019c-247.213 0-447.734 200.521-447.734 447.734 0 247.277 200.521 447.734 447.734 447.734 247.341 0 447.734-200.457 447.734-447.734 0-247.213-200.393-447.734-447.734-447.734zm0 703.582c-26.416 0-47.971-21.491-47.971-47.971s21.555-47.971 47.971-47.971c26.608 0 47.971 21.491 47.971 47.971s-21.363 47.971-47.971 47.971zm47.972-239.857c0 26.544-21.363 47.971-47.971 47.971-26.416 0-47.971-21.427-47.971-47.971V303.877c0-26.544 21.555-47.971 47.971-47.971 26.608 0 47.971 21.427 47.971 47.971v223.867z"/></svg>