<svg xmlns="http://www.w3.org/2000/svg" xmlns:xlink="http://www.w3.org/1999/xlink" width="1024" height="1024" viewBox="0 0 1024 1024"><path d="M291.191 282.668c-27.474 0-57.126 18.835-57.126 49.272 0 30.514 29.652 49.404 57.126 49.404 29.043 0 49.323-20.313 49.323-49.417-.031-29.005-20.314-49.259-49.323-49.259zm0 0M550.059 331.94c0-29.009-20.332-49.272-49.439-49.272-27.419 0-57.014 18.835-57.014 49.284.034 30.51 29.622 49.391 57.014 49.391 29.107 0 49.439-20.313 49.439-49.403zm0 0"/><defs><path id="ca" d="M63.502 140.898h896.685v741.793H63.502z"/></defs><clipPath id="cb"><use xlink:href="#ca" overflow="visible"/></clipPath><path d="M597.928 499.622c-21.553 0-41.931 20.422-41.931 42.021 0 21.54 20.378 41.906 41.931 41.906 30.489 0 49.353-21.754 49.353-41.906 0-20.211-18.869-42.021-49.353-42.021zm0 0" clip-path="url(#cb)"/><path d="M960.213 608.896c0-60.355-26.835-118.625-75.561-164.077-45.632-42.566-105.768-69.585-170.238-76.672-30.136-129.4-169.431-226.481-326.026-226.481-179.143 0-324.886 125.683-324.886 280.168 0 80.711 39.766 153.709 115.135 211.59l-24.044 72.287a25.657 25.657 0 0 0 7.58 27.444 25.706 25.706 0 0 0 16.765 6.226c3.914 0 7.859-.926 11.473-2.71l96.755-48.418 8.567 1.736c31.47 6.465 58.648 12.056 92.661 12.056 9.827 0 19.966-.437 30.136-1.295a26.363 26.363 0 0 0 2.624-.356c42.818 91.032 145.181 151.321 259.305 151.321 29.013 0 57.392-6.169 86.233-13.32l73.329 40.087a25.723 25.723 0 0 0 12.288 3.156c5.861 0 11.588-2.028 16.112-5.706 8.142-6.603 11.435-17.325 8.403-27.273l-17.455-58.035c65.104-53.623 100.844-117.905 100.844-181.728zm-555.645 41.443c-5.376.286-10.778.432-16.151.432-29.111 0-53.901-5.115-82.657-11.053l-17-3.434c-5.612-1.201-11.709-.364-16.622 2.169l-49.366 24.713 10.419-31.299c3.597-10.83-.271-22.517-9.651-29.103-72.18-50.305-108.782-111.182-108.782-180.935 0-126.223 122.75-228.911 273.634-228.911 127.388 0 241.508 73.833 272.489 173.95-67.755 4.051-130.914 29.021-179.221 71.137-52.503 45.769-81.418 106.463-81.418 170.89-.004 13.498 1.449 27.385 4.326 41.444zm409.834 110.44c-8.515 6.426-12.177 17.604-9.115 27.838l4.48 14.885-27.238-14.902a25.603 25.603 0 0 0-12.344-3.181c-2.187 0-4.331.279-6.371.828-27.594 6.971-56.132 14.17-83.327 14.17-126.257 0-228.971-85.929-228.971-191.551 0-105.603 102.714-191.52 228.971-191.52 123.847 0 228.478 87.704 228.478 191.52 0 52.118-33.579 106.063-94.563 151.913zm0 0" clip-path="url(#cb)"/><path d="M762.442 499.622c-21.441 0-41.713 20.422-41.713 42.021 0 21.54 20.271 41.906 41.713 41.906 27.316 0 49.542-18.801 49.542-41.906-.005-20.211-18.943-42.021-49.542-42.021zm0 0"/></svg>