<?xml version="1.0" encoding="utf-8"?>
<!-- Generator: Adobe Illustrator 17.0.0, SVG Export Plug-In . SVG Version: 6.00 Build 0)  -->
<!DOCTYPE svg PUBLIC "-//W3C//DTD SVG 1.1//EN" "http://www.w3.org/Graphics/SVG/1.1/DTD/svg11.dtd">
<svg version="1.1" xmlns="http://www.w3.org/2000/svg" xmlns:xlink="http://www.w3.org/1999/xlink" x="0px" y="0px" width="1024px"
	 height="1024px" viewBox="0 0 1024 1024" style="enable-background:new 0 0 1024 1024;" xml:space="preserve">
<g id="图层_1">
</g>
<g id="图层_2" style="display:none;">
	<g style="display:inline;">
		<path style="fill:#E60012;" d="M763.21,543.787v198.278H543.729V677.96h149.389v-73.164H543.729V406.717h149.389v-67.186H543.729
			v-64.129H763.21v198.074H613.821v67.156H763.21V543.787z M259.982,543.787v198.278h219.457V677.96H330.045v-73.164h149.394
			V406.717H330.045v-67.186h149.394v-64.129H259.982v198.074h149.394v67.156H259.982V543.787z M259.982,543.787"/>
		<path style="fill:#E60012;" d="M511.686,64.897c-246.844,0-446.91,200.066-446.91,446.91c0,246.85,200.066,446.91,446.91,446.91
			c246.85,0,446.91-200.06,446.91-446.91C958.596,264.964,758.536,64.897,511.686,64.897L511.686,64.897z M511.686,870.084
			c-197.874,0-358.267-160.403-358.267-358.267s160.403-358.325,358.267-358.325s358.267,160.413,358.267,358.325
			c0,197.917-160.403,358.257-358.267,358.257V870.084z M511.686,870.084"/>
	</g>
</g>
<g id="图层_3" style="display:none;">
	<g style="display:inline;">
		<g>
			<defs>
				<rect id="SVGID_1_" x="64.15" y="63.94" width="893.016" height="895.568"/>
			</defs>
			<clipPath id="SVGID_2_">
				<use xlink:href="#SVGID_1_"  style="overflow:visible;"/>
			</clipPath>
			<path style="clip-path:url(#SVGID_2_);fill:#004EA2;" d="M69.024,488.223c0,0,29.905-436.127,483.499-423.617
				c0,0,371.357,22.488,403.754,426.207l-214.34-0.049c0,0-127.096,5.004-231.784-196.876c0,0-117.137,179.652-244.255,194.604
				L69.024,488.223z M64.02,515.631l219.324,5.004c0,0,34.883,0,64.8,27.413l-279.139,0.161L64,515.651L64.02,515.631z
				 M74.027,572.945h318.988c0,0,27.423,10.007,37.385,34.888l-348.916,2.502l-7.477-37.352L74.027,572.945z M91.472,637.635
				l368.864,0.108c0,0,52.339,49.847,39.878,171.96c0,0,24.921,19.932,29.915-2.492c0,0-17.454-169.468,37.377-169.468
				l368.976-2.492l-22.581,49.96l-127.092-0.113c0,0-44.862-10.008-42.37,64.8c0,0,1.911,230.172-226.848,206.735
				c0,0-239.183,12.578-236.72-194.276c0,0,10.007-89.719-52.339-69.773H108.956l-17.504-54.938L91.472,637.635z M589.935,607.833
				c0,0,10.007-39.873,64.793-29.905l291.6-2.492l-5.004,29.915l-351.415,2.492L589.935,607.833z M667.199,550.51
				c0,0,14.952-32.398,39.868-32.398l244.245,5.004l-5.004,29.916l-279.138-2.493L667.199,550.51z M667.199,550.51"/>
		</g>
	</g>
</g>
<g id="图层_4" style="display:none;">
	<g style="display:inline;">
		<g>
			<defs>
				<rect id="SVGID_3_" x="63.373" y="79.95" width="897.016" height="864.296"/>
			</defs>
			<clipPath id="SVGID_4_">
				<use xlink:href="#SVGID_3_"  style="overflow:visible;"/>
			</clipPath>
			<path style="clip-path:url(#SVGID_4_);fill:#E60012;" d="M928.151,252.753l-31.753-40.65c0,0-124.49,20.326-121.938-49.54
				c0,0,8.889-52.077-81.302-31.751c0,0-21.591-20.316-20.326-31.758c0,0,6.352-30.49-91.476-13.974
				c0,0-144.812,17.782-303.577,199.421c0,0-160.056,130.827-160.056-3.814c0,0-87.643,88.915-40.651,160.056
				c0,0,53.349,74.936,154.976,13.969c0,0-31.751,246.414,130.832,374.713c0,0,170.217,157.509,365.834,101.617
				c0,0,163.85-34.3,226.094-199.426c0,0-29.211,29.209-41.918,26.677c0,0,44.465-53.349,47.007-76.218
				c0,0-1.275-31.756-26.681,17.784c0,0,6.357-30.491-11.427-15.241c0,0-86.382,100.341-123.224,105.416
				c0,0-273.101,161.323-397.586-163.85c0,0-53.349-153.699,72.378-269.282c125.723-115.581,248.961-104.151,362.021-20.326
				c0,0,57.157-64.774,81.292-52.077c0,0,21.592-12.697,11.432-31.756L928.151,252.753z M928.151,252.753"/>
		</g>
		<path style="fill:#E60012;" d="M549.502,407.239l277.906-1.311v211.363H549.502V407.239z M549.502,407.239"/>
	</g>
</g>
<g id="图层_5" style="display:none;">
	<g style="display:inline;">
		<g>
			<defs>
				<rect id="SVGID_5_" x="99.82" y="63.711" width="824.536" height="896.131"/>
			</defs>
			<clipPath id="SVGID_6_">
				<use xlink:href="#SVGID_5_"  style="overflow:visible;"/>
			</clipPath>
			<path style="clip-path:url(#SVGID_6_);fill:#1D2088;" d="M770.571,735.102c-52.491,1.723-101.006,3.388-153.498,5.081
				c-33.24,141.385-308.087,103.2-277.471-76.203c15.378-106.279,158.981-152.684,248.124-72.446
				c19.589,22.14,29.185,42.674,35.471,87.689c44.031-1.7,103.392-3.393,147.402-5.088
				c2.237-228.618-257.427-344.636-452.144-233.68c-186.669,106.347-165.122,430.346,30.483,513.1v5.081
				c-106.662-2.094-223.609-84.707-249.118-182.884l1.444-527.078c84.65-57.569,178.223-126.583,262.852-184.162l10.16,5.083
				c-5.846,79.458-2.16,210.482,2.536,306.094c53.054-51.483,88.781-105.286,180.358-123.205
				c59.031-11.53,115.503-4.582,151.142,7.618c267.512,91.65,284.168,437.319,57.151,556.289c-5.081,0-16.112,10.027-24.544,11.663
				c0-1.695,5.283-9.023,9.303-16.745l20.319-76.207H770.571z M770.571,735.102"/>
		</g>
	</g>
</g>
<g id="图层_6" style="display:none;">
	<g style="display:inline;">
		<path style="fill:#004D28;" d="M550.59,754.97l140.539,171.424h221.269L783.821,788.847l-5.974-8.971l-0.999-3.98l-0.999-3.99
			v-10.958l0.999-3.991l0.999-3.98l1.992-4.989l3.981-5.978l4.979-8.969l5.988-6.978l128.577-149.508l8.969-10.968l6.972-9.96
			l4.979-9.969l5.988-9.969l3.98-9.969l2.997-9.97l1.992-9.959v-28.908l-1.992-9.969l-2.997-8.97l-3.98-9.97l-5.988-9.959
			l-4.979-7.98l-6.972-9.96L656.248,96.153l-43.856,38.867l132.562,160.467l7.977,10.968l5.978,10.963l2.991,5.978l0.999,4.979
			l0.984,5.988v4.979l-0.984,11.962l-2.996,10.968l-4.989,10.958l-6.973,10.968L555.58,605.46l-4.989,3.981l-1.983,4.989
			l-5.987,6.976l-4.981,8.971l-2.991,8.969l-3.98,8.971l-1.998,8.97l-0.999,9.969l-1.992,8.971v9.959l1.992,9.969l0.999,10.968
			l2.991,8.971l3.986,9.969l3.99,9.969l4.979,9.969l3.99,4.979L550.59,754.97z M550.59,754.97"/>
		<path style="fill:#D21B21;" d="M346.274,335.361l0.993-15.957l2.997-16.946l0.999-7.97l2.981-8.971l5.988-14.948l6.973-13.95
			l3.98-6.986l3.995-6.973l9.969-11.957l8.971-12.961l12.951-9.959l11.966-8.979l13.95-8.961l13.95-6.986l14.958-4.979l8.97-2.992
			l7.972-0.999l7.975-1.987l8.971-0.994h7.97l8.971-1.998l14.948,1.998l14.949,2.981l14.958,1.998l13.949,5.983l6.977,2.986
			l6.973,2.992l13.959,6.976l12.956,7.972l10.963,9.969l8.975,10.968l5.973,4.979l3.996,5.973l9.954,10.968l6.987,13.95
			l6.976,13.959l0.994,6.978l2.987,6.973l3.99,14.948l2.991,14.959h-96.681l-67.775-67.785l-87.713,85.729l87.713,85.705
			l67.775-67.765h96.681l-2.991,16.931l-3.99,13.965l-2.987,6.973l-0.994,6.976l-6.976,13.96l-6.987,13.949l-9.954,10.958
			l-9.97,10.963l-8.975,10.968l-10.963,9.97l-6.978,3.98l-5.978,3.99l-6.981,3.986l-6.977,2.991l-13.95,5.978l-13.949,4.989
			l-14.958,3.98l-14.949,1.993l-14.948,0.999l-16.941-0.999l-16.946-2.982l-7.972-0.998l-8.97-2.992l-14.958-5.978l-13.95-6.981
			l-6.977-3.986l-6.973-3.99l-11.966-9.959l-12.951-9.97l-8.971-11.961l-9.969-12.951l-7.975-13.964l-6.973-12.951l-5.988-15.947
			l-2.981-7.972l-0.999-7.982l-1.998-8.96l-0.999-7.977l-0.993-7.97V335.361z M346.274,335.361"/>
		<path style="fill:#004D28;" d="M471.863,754.97L332.324,926.393H110.057l129.575-137.546l4.981-8.971l1.992-3.98l0.999-3.99
			v-10.958l-0.999-3.991l-1.992-3.98l-0.999-4.989l-3.981-5.978l-5.987-8.969l-6.978-6.978L99.094,576.554l-7.977-10.968
			l-6.973-9.96l-5.978-9.969l-4.989-9.969l-3.98-9.969l-2.997-9.97l-2.991-9.959v-28.908l2.991-9.969l2.997-8.97l3.98-9.97
			l3.99-9.959l6.978-7.98l6.973-9.96L367.205,96.153l43.856,38.867L278.499,295.487l-8.976,10.968l-4.979,10.963l-2.991,5.978
			l-0.999,4.979l-1.983,5.988v4.979l1.983,11.962l1.997,10.968l5.978,10.958l6.983,10.968L467.873,605.46l3.99,3.981l2.982,4.989
			l4.989,6.976l4.979,8.971l3.98,8.969l3.99,8.971l0.999,8.97l1.998,9.969l0.999,8.971v9.959l-0.999,9.969l-1.998,10.968
			l-1.992,8.971l-4.981,9.969l-3.995,9.969l-4.979,9.969l-2.991,4.979L471.863,754.97z M471.863,754.97"/>
	</g>
</g>
<g id="图层_7">
	<g>
		<path style="fill:#008566;" d="M511.177,64.622c-13.404,0-26.813,0.45-40.217,1.786v215.827
			c0.029,9.857,8.013,17.846,17.875,17.87h44.684c9.857-0.024,17.846-8.013,17.87-17.87V66.407
			C537.985,65.062,524.581,64.622,511.177,64.622L511.177,64.622z M538.434,357.302h62.51c9.859-0.024,17.846-8.013,17.876-17.87
			V109.306h44.684v366.413c0.009,5.44-2.138,10.664-5.984,14.52c-3.84,3.855-9.055,6.021-14.5,6.026H541.56
			c-19.656,0-20.556,10.278-20.556,10.278V374.727C520.564,365.319,528.597,357.302,538.434,357.302L538.434,357.302z
			 M538.434,357.302"/>
		<g>
			<defs>
				<rect id="SVGID_7_" x="64.484" y="64.121" width="894.035" height="895.387"/>
			</defs>
			<clipPath id="SVGID_8_">
				<use xlink:href="#SVGID_7_"  style="overflow:visible;"/>
			</clipPath>
			<path style="clip-path:url(#SVGID_8_);fill:#008566;" d="M484.818,357.302h-62.559c-9.862-0.024-17.846-8.013-17.876-17.87
				V109.306H359.7v366.413c-0.015,5.454,2.147,10.694,6.003,14.554c3.86,3.86,9.098,6.018,14.559,6.003h101.46
				c19.657,0,20.556,10.278,20.556,10.278V374.727C502.688,365.319,494.647,357.302,484.818,357.302L484.818,357.302z
				 M377.521,654.003h71.497c9.886,0,17.905,8.004,17.924,17.89v277.526h35.746V535.64c0.015-5.459-2.143-10.698-6.003-14.559
				c-3.86-3.855-9.098-6.016-14.554-6.001H380.701c-19.656,0-20.561-10.279-20.561-10.279v131.777
				c-0.45,9.388,7.598,17.425,17.425,17.425H377.521z M645.629,654.003h-71.443c-9.867,0.025-17.86,8.023-17.875,17.89v277.526
				h-35.746V535.64c-0.02-5.459,2.143-10.698,6.003-14.559c3.86-3.855,9.098-6.016,14.554-6.001h101.421
				c19.657,0,20.561-10.279,20.561-10.279v131.777c0.451,9.388-7.597,17.425-17.425,17.425H645.629z M645.629,654.003"/>
			<path style="clip-path:url(#SVGID_8_);fill:#008566;" d="M618.87,77.576v92.944c144.77,45.578,249.777,180.971,249.777,340.945
				c0,197.501-159.969,357.47-357.47,357.47S153.7,708.966,153.7,511.465c0-160.415,105.457-295.806,250.682-341.386V77.135
				c-195.274,48.251-340.05,224.314-340.05,434.33c0,246.656,200.187,446.843,446.843,446.843S958.02,758.121,958.02,511.465
				C958.02,301.89,813.685,125.864,618.87,77.576L618.87,77.576z M618.87,77.576"/>
		</g>
		<path style="fill:#008566;" d="M533.068,895.748h-44.683c-9.862-0.029-17.846-8.013-17.876-17.875V654.454h80.43v223.419
			C550.914,887.735,542.925,895.719,533.068,895.748L533.068,895.748z M533.068,895.748"/>
	</g>
</g>
</svg>
