<?xml version="1.0" encoding="utf-8"?>
<!-- Generator: Adobe Illustrator 17.0.0, SVG Export Plug-In . SVG Version: 6.00 Build 0)  -->
<!DOCTYPE svg PUBLIC "-//W3C//DTD SVG 1.1//EN" "http://www.w3.org/Graphics/SVG/1.1/DTD/svg11.dtd">
<svg version="1.1" xmlns="http://www.w3.org/2000/svg" xmlns:xlink="http://www.w3.org/1999/xlink" x="0px" y="0px" width="1024px"
	 height="1024px" viewBox="0 0 1024 1024" style="enable-background:new 0 0 1024 1024;" xml:space="preserve">
<g id="图层_1">
</g>
<g id="图层_2" style="display:none;">
	<g style="display:inline;">
		<path style="fill:#E60012;" d="M763.21,543.787v198.278H543.729V677.96h149.389v-73.164H543.729V406.717h149.389v-67.186H543.729
			v-64.129H763.21v198.074H613.821v67.156H763.21V543.787z M259.982,543.787v198.278h219.457V677.96H330.045v-73.164h149.394
			V406.717H330.045v-67.186h149.394v-64.129H259.982v198.074h149.394v67.156H259.982V543.787z M259.982,543.787"/>
		<path style="fill:#E60012;" d="M511.686,64.897c-246.844,0-446.91,200.066-446.91,446.91c0,246.85,200.066,446.91,446.91,446.91
			c246.85,0,446.91-200.06,446.91-446.91C958.596,264.964,758.536,64.897,511.686,64.897L511.686,64.897z M511.686,870.084
			c-197.874,0-358.267-160.403-358.267-358.267s160.403-358.325,358.267-358.325s358.267,160.413,358.267,358.325
			c0,197.917-160.403,358.257-358.267,358.257V870.084z M511.686,870.084"/>
	</g>
</g>
<g id="图层_3" style="display:none;">
	<g style="display:inline;">
		<g>
			<defs>
				<rect id="SVGID_1_" x="64.15" y="63.94" width="893.016" height="895.568"/>
			</defs>
			<clipPath id="SVGID_2_">
				<use xlink:href="#SVGID_1_"  style="overflow:visible;"/>
			</clipPath>
			<path style="clip-path:url(#SVGID_2_);fill:#004EA2;" d="M69.024,488.223c0,0,29.905-436.127,483.499-423.617
				c0,0,371.357,22.488,403.754,426.207l-214.34-0.049c0,0-127.096,5.004-231.784-196.876c0,0-117.137,179.652-244.255,194.604
				L69.024,488.223z M64.02,515.631l219.324,5.004c0,0,34.883,0,64.8,27.413l-279.139,0.161L64,515.651L64.02,515.631z
				 M74.027,572.945h318.988c0,0,27.423,10.007,37.385,34.888l-348.916,2.502l-7.477-37.352L74.027,572.945z M91.472,637.635
				l368.864,0.108c0,0,52.339,49.847,39.878,171.96c0,0,24.921,19.932,29.915-2.492c0,0-17.454-169.468,37.377-169.468
				l368.976-2.492l-22.581,49.96l-127.092-0.113c0,0-44.862-10.008-42.37,64.8c0,0,1.911,230.172-226.848,206.735
				c0,0-239.183,12.578-236.72-194.276c0,0,10.007-89.719-52.339-69.773H108.956l-17.504-54.938L91.472,637.635z M589.935,607.833
				c0,0,10.007-39.873,64.793-29.905l291.6-2.492l-5.004,29.915l-351.415,2.492L589.935,607.833z M667.199,550.51
				c0,0,14.952-32.398,39.868-32.398l244.245,5.004l-5.004,29.916l-279.138-2.493L667.199,550.51z M667.199,550.51"/>
		</g>
	</g>
</g>
<g id="图层_4">
	<g>
		<g>
			<defs>
				<rect id="SVGID_3_" x="63.373" y="79.95" width="897.016" height="864.296"/>
			</defs>
			<clipPath id="SVGID_4_">
				<use xlink:href="#SVGID_3_"  style="overflow:visible;"/>
			</clipPath>
			<path style="clip-path:url(#SVGID_4_);fill:#E60012;" d="M928.151,252.753l-31.753-40.65c0,0-124.49,20.326-121.938-49.54
				c0,0,8.889-52.077-81.302-31.751c0,0-21.591-20.316-20.326-31.758c0,0,6.352-30.49-91.476-13.974
				c0,0-144.812,17.782-303.577,199.421c0,0-160.056,130.827-160.056-3.814c0,0-87.643,88.915-40.651,160.056
				c0,0,53.349,74.936,154.976,13.969c0,0-31.751,246.414,130.832,374.713c0,0,170.217,157.509,365.834,101.617
				c0,0,163.85-34.3,226.094-199.426c0,0-29.211,29.209-41.918,26.677c0,0,44.465-53.349,47.007-76.218
				c0,0-1.275-31.756-26.681,17.784c0,0,6.357-30.491-11.427-15.241c0,0-86.382,100.341-123.224,105.416
				c0,0-273.101,161.323-397.586-163.85c0,0-53.349-153.699,72.378-269.282c125.723-115.581,248.961-104.151,362.021-20.326
				c0,0,57.157-64.774,81.292-52.077c0,0,21.592-12.697,11.432-31.756L928.151,252.753z M928.151,252.753"/>
		</g>
		<path style="fill:#E60012;" d="M549.502,407.239l277.906-1.311v211.363H549.502V407.239z M549.502,407.239"/>
	</g>
</g>
</svg>
