<?xml version="1.0" encoding="utf-8"?>
<!-- Generator: Adobe Illustrator 17.0.0, SVG Export Plug-In . SVG Version: 6.00 Build 0)  -->
<!DOCTYPE svg PUBLIC "-//W3C//DTD SVG 1.1//EN" "http://www.w3.org/Graphics/SVG/1.1/DTD/svg11.dtd">
<svg version="1.1" xmlns="http://www.w3.org/2000/svg" xmlns:xlink="http://www.w3.org/1999/xlink" x="0px" y="0px" width="1024px"
	 height="1024px" viewBox="0 0 1024 1024" style="enable-background:new 0 0 1024 1024;" xml:space="preserve">
<g id="图层_1">
</g>
<g id="图层_2">
	<g>
		<path d="M511.647,958.875c0,0-335.33-373.685-335.33-558.879c0-185.208,150.132-335.331,335.33-335.331
			c185.195,0,335.331,150.123,335.327,335.331C846.974,585.19,511.647,958.875,511.647,958.875L511.647,958.875z M511.647,107.658
			c-161.447,0-292.337,132.805-292.337,296.635S511.647,898.69,511.647,898.69s292.338-330.568,292.338-494.397
			S673.091,107.658,511.647,107.658L511.647,107.658z M511.642,511.773c-77.167,0-139.717-62.554-139.717-139.721
			c0-77.171,62.55-139.721,139.717-139.721c77.172,0,139.721,62.55,139.721,139.721
			C651.363,449.214,588.815,511.773,511.642,511.773L511.642,511.773z M511.647,271.022c-56.979,0-103.178,46.198-103.178,103.178
			c0,56.98,46.199,103.178,103.178,103.178c56.989,0,103.178-46.198,103.178-103.178
			C614.825,317.22,568.636,271.022,511.647,271.022L511.647,271.022z M511.647,271.022"/>
	</g>
</g>
</svg>
