<?xml version="1.0" encoding="utf-8"?>
<!-- Generator: Adobe Illustrator 17.0.0, SVG Export Plug-In . SVG Version: 6.00 Build 0)  -->
<!DOCTYPE svg PUBLIC "-//W3C//DTD SVG 1.1//EN" "http://www.w3.org/Graphics/SVG/1.1/DTD/svg11.dtd">
<svg version="1.1" xmlns="http://www.w3.org/2000/svg" xmlns:xlink="http://www.w3.org/1999/xlink" x="0px" y="0px" width="1024px"
	 height="1024px" viewBox="0 0 1024 1024" style="enable-background:new 0 0 1024 1024;" xml:space="preserve">
<g id="图层_1">
</g>
<g id="图层_2">
	<g>
		<g>
			<defs>
				<rect id="SVGID_1_" x="63.896" y="109.265" width="896.346" height="805.696"/>
			</defs>
			<clipPath id="SVGID_2_">
				<use xlink:href="#SVGID_1_"  style="overflow:visible;"/>
			</clipPath>
			<path style="clip-path:url(#SVGID_2_);fill:#3B3C3C;" d="M424.666,914.961h39.251c0,0,0.497-173.943,0-187.11
				s5.197-27.598,10.932-34.284l435.742-507.786c0,0-118.681,606.492-120.259,614.531c-1.225,6.21-5.282,8.857-10.913,7.037
				c-6.794-2.2-254.888-79.498-254.888-79.498l-12.605,38.255c0,0,235.554,73.988,259.045,80.992
				c25.836,7.7,52.666-8.948,58.136-38.259c4.512-24.188,127.38-649.568,129.182-660.819c1.802-11.249,6.781-27.16-12.15-36.298
				c-14.014-6.765-30.913,7.812-30.913,7.812l-5.301-10.27c0,0-796.376,425.225-824.778,440.545
				c-28.404,15.319-27.145,47.585-3.313,55.319c23.831,7.731,264.329,85.787,264.329,85.787l12.254-37.76L120.59,576.641
				l743.296-397.817c0,0-397.483,463.069-413.882,481.952c-16.396,18.879-25.62,38.506-25.588,63.348L424.666,914.961
				L424.666,914.961L424.666,914.961z"/>
		</g>
	</g>
</g>
</svg>
