<?xml version="1.0" encoding="utf-8"?>
<!-- Generator: Adobe Illustrator 17.0.0, SVG Export Plug-In . SVG Version: 6.00 Build 0)  -->
<!DOCTYPE svg PUBLIC "-//W3C//DTD SVG 1.1//EN" "http://www.w3.org/Graphics/SVG/1.1/DTD/svg11.dtd">
<svg version="1.1" id="图层_1" xmlns="http://www.w3.org/2000/svg" xmlns:xlink="http://www.w3.org/1999/xlink" x="0px" y="0px"
	 width="1024px" height="1024px" viewBox="0 0 1024 1024" style="enable-background:new 0 0 1024 1024;" xml:space="preserve">
<g>
	<g>
		<defs>
			<rect id="SVGID_1_" x="64.048" y="116.711" width="895.844" height="790.762"/>
		</defs>
		<clipPath id="SVGID_2_">
			<use xlink:href="#SVGID_1_"  style="overflow:visible;"/>
		</clipPath>
		<path style="clip-path:url(#SVGID_2_);fill:#3D3D3D;" d="M511.436,348.368l141.677-141.676
			c59.844-59.764,156.791-59.774,216.65-0.021c59.793,59.839,59.774,156.816-0.045,216.63L657.272,635.723v0.025L497.913,795.082
			c-89.182,89.181-233.69,89.181-322.871,0.021c-89.207-89.182-89.186-233.624,0.152-322.983l247.832-247.832
			c8.388-8.686,8.266-22.489-0.268-31.024c-8.535-8.535-22.338-8.657-31.019-0.269L143.901,440.782
			C37.261,547.448,37.235,719.885,143.75,826.395c106.444,106.443,279.013,106.443,385.456,0l159.332-159.379h0.026l212.447-212.447
			c77.101-77.101,77.121-202.134,0.019-279.236c-77.009-77.011-202.154-77.011-279.21,0.045L480.145,317.03L285.512,511.663
			c-22.995,22.92-35.927,54.04-35.948,86.507c-0.019,32.462,12.871,63.603,35.836,86.548
			c47.835,47.719,125.281,47.668,173.055-0.106L723.858,419.23c8.388-8.686,8.272-22.489-0.268-31.024
			c-8.535-8.535-22.338-8.657-31.019-0.268L427.163,653.34c-30.486,30.496-79.918,30.547-110.47,0.112
			c-14.664-14.654-22.894-34.534-22.869-55.267c0.026-20.726,8.303-40.591,23-55.21L511.436,348.368z M511.436,348.368"/>
	</g>
</g>
</svg>
