<?xml version="1.0" encoding="utf-8"?>
<!-- Generator: Adobe Illustrator 17.0.0, SVG Export Plug-In . SVG Version: 6.00 Build 0)  -->
<!DOCTYPE svg PUBLIC "-//W3C//DTD SVG 1.1//EN" "http://www.w3.org/Graphics/SVG/1.1/DTD/svg11.dtd">
<svg version="1.1" xmlns="http://www.w3.org/2000/svg" xmlns:xlink="http://www.w3.org/1999/xlink" x="0px" y="0px" width="1024px"
	 height="1024px" viewBox="0 0 1024 1024" style="enable-background:new 0 0 1024 1024;" xml:space="preserve">
<g id="图层_1">
</g>
<g id="图层_2" style="display:none;">
	<g style="display:inline;">
		<path d="M512.262,959.683C293.919,959.683,117,871.225,117,762.054c0-70.351,73.741-131.976,184.475-167.019v52.892
			c-80.121,26.576-131.71,67.743-131.71,114.127c0,80.117,153.34,144.999,342.632,144.999s342.627-64.881,342.627-144.999
			c0-46.384-51.72-87.551-131.71-114.127v-52.892c110.734,35.044,184.475,96.668,184.475,167.019
			C907.528,871.095,730.609,959.683,512.262,959.683L512.262,959.683z M526.073,788.239l-13.811,13.284l-13.676-13.153
			c-10.161-9.643-249.871-238.277-249.871-461.189c0-145.909,118.16-263.29,263.547-263.29
			c145.394,0,263.556,118.684,263.556,264.593C775.818,545.528,536.234,778.335,526.073,788.239L526.073,788.239z M512.262,116.003
			c-116.075,0-210.786,99.145-210.786,211.182c0,159.462,162.978,348.494,210.786,395.266
			c47.683-47.683,210.791-240.102,210.791-395.266C723.053,215.144,628.34,116.003,512.262,116.003L512.262,116.003z M380.033,353.5
			c0-72.569,59.276-131.584,132.103-131.584c72.956,0,132.232,59.015,132.232,131.584c0,72.565-59.281,131.709-132.232,131.709
			C439.309,485.21,380.033,426.065,380.033,353.5L380.033,353.5z M591.342,353.5c0-43.385-35.436-78.689-79.08-78.689
			c-43.641,0-79.076,35.304-79.076,78.689c0,43.379,35.435,78.688,79.076,78.688C555.906,432.188,591.342,396.884,591.342,353.5
			L591.342,353.5z M591.342,353.5"/>
	</g>
</g>
<g id="图层_3" style="display:none;">
	<g style="display:inline;">
		<path d="M64.003,287.939l448.172,448.172l448.172-448.172H64.003z M64.003,287.939"/>
	</g>
</g>
<g id="图层_4" style="display:none;">
	<g style="display:inline;">
		<path d="M735.992,63.859l-447.93,447.93l447.93,447.93V63.859z M735.992,63.859"/>
	</g>
</g>
<g id="图层_5" style="display:none;">
	<g style="display:inline;">
		<path d="M288.247,63.817l447.924,447.924L288.247,959.665V63.817z M288.247,63.817"/>
	</g>
</g>
<g id="图层_6" style="display:none;">
	<g style="display:inline;">
		<path d="M64.212,736.483l447.987-447.987l447.987,447.987H64.212z M64.212,736.483"/>
	</g>
</g>
<g id="图层_7" style="display:none;">
	<g style="display:inline;">
		<g>
			<defs>
				<rect id="SVGID_1_" x="64.212" y="273.174" width="895.974" height="477.689"/>
			</defs>
			<clipPath id="SVGID_2_">
				<use xlink:href="#SVGID_1_"  style="overflow:visible;"/>
			</clipPath>
			<path style="clip-path:url(#SVGID_2_);" d="M72.408,281.961c-5.456,5.454-8.195,12.616-8.195,19.777
				c0,7.154,2.74,14.317,8.195,19.771L491.923,741.02c10.937,10.935,28.606,10.935,39.543,0l419.516-419.511
				c10.937-10.935,10.937-28.613,0-39.548c-10.935-10.935-28.611-10.935-39.548,0l-399.739,399.74l-399.74-399.74
				C101.019,271.026,83.315,271.026,72.408,281.961L72.408,281.961z M72.408,281.961"/>
		</g>
	</g>
</g>
<g id="图层_8" style="display:none;">
	<g style="display:inline;">
		<g>
			<defs>
				<rect id="SVGID_3_" x="275" y="63.89" width="475.109" height="895.837"/>
			</defs>
			<clipPath id="SVGID_4_">
				<use xlink:href="#SVGID_3_"  style="overflow:visible;"/>
			</clipPath>
			<path style="clip-path:url(#SVGID_4_);" d="M741.335,73.069c-5.443-5.443-12.583-8.179-19.731-8.179
				c-7.147,0-14.293,2.736-19.732,8.179L283.186,491.757c-10.915,10.913-10.915,28.549,0,39.463l418.686,418.686
				c10.915,10.915,28.549,10.915,39.463,0c10.915-10.914,10.915-28.555,0-39.468l-398.948-398.95l398.948-398.95
				C752.25,101.625,752.25,83.957,741.335,73.069L741.335,73.069z M741.335,73.069"/>
		</g>
	</g>
</g>
<g id="图层_9" style="display:none;">
	<g style="display:inline;">
		<g>
			<defs>
				<rect id="SVGID_5_" x="274.458" y="63.868" width="475.12" height="895.859"/>
			</defs>
			<clipPath id="SVGID_6_">
				<use xlink:href="#SVGID_5_"  style="overflow:visible;"/>
			</clipPath>
			<path style="clip-path:url(#SVGID_6_);" d="M282.644,949.914c5.443,5.443,12.59,8.179,19.732,8.179
				c7.147,0,14.294-2.736,19.739-8.179l418.689-418.698c10.915-10.914,10.915-28.548,0-39.464L322.115,73.056
				c-10.915-10.915-28.557-10.915-39.471,0c-10.915,10.914-10.915,28.555,0,39.471l398.957,398.957L282.644,910.444
				C271.729,921.357,271.729,939.026,282.644,949.914L282.644,949.914z M282.644,949.914"/>
		</g>
	</g>
</g>
<g id="图层_10" style="display:none;">
	<g style="display:inline;">
		<g>
			<defs>
				<rect id="SVGID_7_" x="64" y="272.89" width="896.355" height="477.892"/>
			</defs>
			<clipPath id="SVGID_8_">
				<use xlink:href="#SVGID_7_"  style="overflow:visible;"/>
			</clipPath>
			<path style="clip-path:url(#SVGID_8_);" d="M951.153,740.935c5.458-5.458,8.199-12.615,8.199-19.779
				c0-7.166-2.741-14.33-8.199-19.779L531.458,281.681c-10.94-10.94-28.617-10.94-39.558,0L72.206,701.377
				c-10.941,10.94-10.941,28.616,0,39.558c10.94,10.94,28.623,10.94,39.565,0l399.908-399.91l399.91,399.91
				C922.528,751.875,940.241,751.875,951.153,740.935L951.153,740.935z M951.153,740.935"/>
		</g>
	</g>
</g>
<g id="图层_11">
	<g>
		<path d="M760.622,113.49L312.574,560.84L262,510.188L710.049,62.836L760.622,113.49z M760.622,113.49"/>
		<path d="M312.984,461.03L760.34,909.079l-50.652,50.573L262.332,511.603L312.984,461.03z M312.984,461.03"/>
	</g>
</g>
</svg>
