<?xml version="1.0" encoding="utf-8"?>
<!-- Generator: Adobe Illustrator 17.0.0, SVG Export Plug-In . SVG Version: 6.00 Build 0)  -->
<!DOCTYPE svg PUBLIC "-//W3C//DTD SVG 1.1//EN" "http://www.w3.org/Graphics/SVG/1.1/DTD/svg11.dtd">
<svg version="1.1" xmlns="http://www.w3.org/2000/svg" xmlns:xlink="http://www.w3.org/1999/xlink" x="0px" y="0px" width="1024px"
	 height="1024px" viewBox="0 0 1024 1024" style="enable-background:new 0 0 1024 1024;" xml:space="preserve">
<g id="图层_1">
</g>
<g id="图层_2" style="display:none;">
	<g style="display:inline;">
		<g>
			<defs>
				<rect id="SVGID_1_" x="132.133" y="64.614" width="759.302" height="894.657"/>
			</defs>
			<clipPath id="SVGID_2_">
				<use xlink:href="#SVGID_1_"  style="overflow:visible;"/>
			</clipPath>
			<path style="clip-path:url(#SVGID_2_);" d="M855.845,193.623c-114.263-4.96-223.656-43.6-325.16-114.886l-19.24-13.495
				l-19.192,13.495C390.808,150.009,281.41,188.663,167.862,193.6h-35.866v302.153c0,221.331,152.682,410.867,371.313,460.897
				l9.54,1.526l6.854-1.526c218.582-50.031,371.237-239.566,371.237-460.897V193.6L855.845,193.623z M511.867,921.986l-0.2,0.049
				l-1.032-0.161c-202.041-46.522-343.098-221.651-343.098-426.108V229.128h1.085c120.744-5.235,236.092-45.767,342.844-120.459
				c106.792,74.693,222.141,115.224,343.609,120.472l0.307,266.612C855.397,700.41,714.082,875.686,511.867,921.986L511.867,921.986
				z M715.737,372.822c-5.942-5.844-15.58-5.76-21.416,0.173L465.727,610.271L329.066,465.162
				c-5.649-6.12-15.287-6.507-21.407-0.845l-3.864,3.567c-6.12,5.649-6.507,15.287-0.845,21.407l151.463,160.803
				c5.644,6.115,15.282,6.503,21.402,0.845L719.669,397.92c5.843-5.947,5.754-15.585-0.174-21.416L715.737,372.822z
				 M715.737,372.822"/>
		</g>
	</g>
</g>
<g id="图层_3" style="display:none;">
	<g style="display:inline;">
		<g>
			<defs>
				<rect id="SVGID_3_" x="131.512" y="64.281" width="760.214" height="895.732"/>
			</defs>
			<clipPath id="SVGID_4_">
				<use xlink:href="#SVGID_3_"  style="overflow:visible;"/>
			</clipPath>
			<path style="clip-path:url(#SVGID_4_);" d="M856.093,193.445c-114.4-4.966-223.925-43.652-325.551-115.024L511.279,64.91
				l-19.215,13.511c-101.567,71.358-211.096,110.058-324.78,115.001h-35.909v302.516c0,221.597,152.866,411.36,371.759,461.451
				l9.552,1.528l6.863-1.528c218.844-50.091,371.682-239.854,371.682-461.451V193.422L856.093,193.445z M719.753,397.982
				l-244.16,253.323c-6.127,5.655-15.763,5.281-21.428-0.846L302.52,489.464c-5.655-6.127-5.281-15.763,0.846-21.428l3.87-3.576
				c6.127-5.651,15.763-5.277,21.431,0.846l136.839,145.283l228.855-237.557c5.851-5.954,15.501-6.029,21.441-0.178l3.749,3.7
				C725.514,382.392,725.59,392.042,719.753,397.982L719.753,397.982z M719.753,397.982"/>
		</g>
	</g>
</g>
<g id="图层_4" style="display:none;">
	<g style="display:inline;">
		<g>
			<defs>
				<rect id="SVGID_5_" x="64.134" y="183.935" width="896.052" height="654.126"/>
			</defs>
			<clipPath id="SVGID_6_">
				<use xlink:href="#SVGID_5_"  style="overflow:visible;"/>
			</clipPath>
			<path style="clip-path:url(#SVGID_6_);" d="M563.44,502.769c53.08-21.039,90.774-72.78,90.774-133.255
				c0-79.068-64.334-143.39-143.403-143.39c-79.072,0-143.39,64.322-143.39,143.39c0,60.475,37.677,112.216,90.757,133.255
				c-118.018,24.4-207.02,129.138-207.02,254.284c0,30.43,21.351,40.512,38.5,48.608l0.984,0.407
				c69.167,24.413,169.196,30.921,217.4,30.921c52.568,0,155.472-8.533,223.81-32.137c25.616-9.823,38.613-25.91,38.613-47.798
				C770.465,631.894,681.459,527.156,563.44,502.769L563.44,502.769z M563.44,502.769"/>
			<path style="clip-path:url(#SVGID_6_);" d="M390.766,490.692c-33.97-31.673-55.333-76.683-55.333-126.792
				c0-61.363,31.943-115.169,80.017-146.019v-0.013c-0.297-0.42-0.73-0.661-1.068-1.015c-0.35-0.376-0.565-0.849-0.985-1.186
				c-25.449-20.44-57.105-31.598-89.745-31.647c-79.068,0-143.403,64.322-143.403,143.39c0,60.475,37.695,112.216,90.77,133.255
				C152.989,485.064,64,589.802,64,714.944c0,21.905,12.997,37.978,38.951,47.937c38.433,13.281,86.126,20.93,120.201,25.088
				c-1.413-11.513-2.135-23.105-2.156-34.709C220.995,636.361,290.698,535.807,390.766,490.692L390.766,490.692z M752.852,460.677
				c53.08-21.039,90.769-72.78,90.769-133.255c0-79.068-64.329-143.39-143.402-143.39c-33.104,0-65.425,11.565-90.971,32.552
				l-3.808,3.116c48.152,32.18,77.051,86.284,77.021,144.199c0,50.109-21.363,95.119-55.333,126.792
				c100.068,45.115,169.771,145.67,169.771,262.568c0,12.011-0.822,23.817-2.24,35.44l0.718-0.083
				c35.073-4.074,85.33-11.832,125.9-25.857c25.612-9.823,38.608-25.91,38.608-47.798
				C959.884,589.802,870.883,485.064,752.852,460.677L752.852,460.677z M752.852,460.677"/>
		</g>
	</g>
</g>
<g id="图层_5" style="display:none;">
	<g style="display:inline;">
		<g>
			<defs>
				<rect id="SVGID_7_" x="64.333" y="188.557" width="895.923" height="646.836"/>
			</defs>
			<clipPath id="SVGID_8_">
				<use xlink:href="#SVGID_7_"  style="overflow:visible;"/>
			</clipPath>
			<path style="clip-path:url(#SVGID_8_);" d="M564.754,503.551c49.018-22.767,83.167-72.331,83.167-129.845
				c0-78.963-64.235-143.199-143.195-143.199c-78.976,0-143.212,64.235-143.212,143.199c0,57.514,34.15,107.078,83.167,129.845
				c-112.847,27.152-197.036,128.66-197.036,249.71c0,31.554,22.695,42.283,39.272,50.117l1.244,0.515
				c68.097,24.029,166.456,30.446,213.849,30.446c51.682,0,152.882-8.391,220.215-31.648c32.721-12.544,39.589-33.806,39.589-49.418
				C761.801,632.211,677.601,530.703,564.754,503.551L564.754,503.551z M387.67,373.706c0-64.54,52.516-117.029,117.039-117.029
				c64.528,0,117.029,52.503,117.029,117.029c0,64.523-52.502,117.039-117.029,117.039
				C440.186,490.745,387.67,438.247,387.67,373.706L387.67,373.706z M713.255,778.092c-63.429,21.896-163.242,30.073-211.257,30.073
				c-45.565,0-139.772-6.057-204.51-28.722c-18.615-8.838-23.682-13.205-23.682-26.17c0-127.322,103.585-230.906,230.903-230.906
				c127.321,0,230.906,103.584,230.906,230.906C735.627,760.829,733.037,770.486,713.255,778.092L713.255,778.092z M713.255,778.092
				"/>
			<path style="clip-path:url(#SVGID_8_);" d="M239.156,771.361c-0.146-0.888-0.391-1.751-0.729-2.583
				c-0.146-0.369-0.133-0.768-0.317-1.137c-3.72-7.263-5.518-15.32-5.518-24.677c0-107.446,64.579-202.827,164.539-243.008
				c0.197-0.082,0.317-0.254,0.514-0.335c0.824-0.369,1.51-0.94,2.253-1.48c0.686-0.514,1.386-0.965,1.956-1.6
				c0.146-0.171,0.357-0.241,0.502-0.412c0.387-0.476,0.519-1.06,0.837-1.562c0.477-0.781,0.952-1.506,1.258-2.368
				c0.287-0.794,0.381-1.6,0.514-2.419c0.133-0.832,0.263-1.625,0.236-2.476c-0.025-0.914-0.261-1.771-0.489-2.66
				c-0.146-0.566-0.09-1.15-0.317-1.72c-0.078-0.211-0.249-0.331-0.356-0.528c-0.369-0.806-0.927-1.479-1.455-2.209
				c-0.518-0.686-0.965-1.39-1.587-1.957c-0.176-0.163-0.253-0.372-0.425-0.532c-4.488-3.736-8.755-7.726-12.779-11.961l-2.66-2.775
				l-2.184-0.519c-0.643-2.342-1.943-4.452-3.745-6.083c-1.402-1.205-2.698-2.845-4.033-4.315c-0.043-0.121,0-0.249-0.043-0.369
				c-0.995-2.845-2.955-5.243-5.542-6.787c-14.119-20.919-23.142-55.665-23.142-81.478c0-48.383,23.871-93.833,63.868-121.577
				c0.514-0.356,0.806-0.887,1.256-1.308c0.477-0.438,1.055-0.716,1.48-1.231c0.171-0.202,0.197-0.45,0.343-0.666
				c0.545-0.75,0.875-1.557,1.244-2.393c0.317-0.738,0.691-1.442,0.862-2.21c0.185-0.833,0.185-1.652,0.211-2.501
				c0.025-0.832,0.094-1.626-0.026-2.446c-0.12-0.794-0.437-1.51-0.703-2.278c-0.305-0.858-0.58-1.703-1.082-2.484
				c-0.133-0.214-0.146-0.463-0.291-0.678c-0.373-0.528-0.914-0.819-1.339-1.283c-0.425-0.463-0.7-1.047-1.202-1.454
				c-25.427-20.417-57.045-31.563-89.655-31.61c-78.976,0-143.212,64.237-143.212,143.2c0,57.513,34.15,107.077,83.172,129.849
				C148.522,489.475,64.333,590.983,64.333,712.046c0,15.612,6.882,36.873,40.01,49.577c38.739,13.376,86.939,20.969,120.573,24.977
				c1.918,0.21,3.86-0.022,5.676-0.674c0.343-0.12,0.66-0.223,0.991-0.369c0.279-0.12,0.571-0.171,0.837-0.304
				c0.407-0.214,0.648-0.583,1.029-0.819c1.451-0.871,2.686-2.055,3.612-3.466c0.965-1.352,1.635-2.887,1.974-4.514
				c0.103-0.45,0.344-0.819,0.395-1.295c0.055-0.425-0.103-0.824-0.103-1.244C239.365,773.056,239.309,772.201,239.156,771.361
				L239.156,771.361z M204.371,332.478c0-64.54,52.51-117.029,117.038-117.029c21.262,0,41.494,5.663,59.435,16.341
				c-38.361,32.986-60.468,81.031-60.572,131.62c0,26.081,7.607,58.986,20.837,84.374c-6.504,1.15-13.094,1.733-19.701,1.746
				C256.882,449.53,204.371,397.019,204.371,332.478L204.371,332.478z M90.503,712.046c0-127.322,103.585-230.906,230.906-230.906
				c14.698,0,29.413,1.681,43.978,4.5c-97.3,48.688-158.965,147.219-158.965,257.313c0,5.186,0.554,10.15,1.386,14.976
				c-29.714-4.222-65.347-10.85-94.507-20.906C93.098,729.27,90.503,719.601,90.503,712.046L90.503,712.046z M763.359,462.323
				c49.023-22.755,83.173-72.331,83.173-129.845c0-78.963-64.235-143.199-143.2-143.199c-33.102,0-65.36,11.548-90.855,32.523
				l-13.257,10.901l14.012,9.896c39.362,27.839,62.859,72.992,62.859,120.809c0,27.496-11.751,60.744-31.395,88.939l-7.903,11.352
				l-2.539,2.622c-3.87,4.02-7.967,7.816-12.279,11.364l-17.066,14.025l20.494,8.246c99.973,40.181,164.551,135.562,164.551,243.008
				c0,6.101-1.055,15.35-6.151,24.81l-11.867,22.094l24.9-2.895c34.492-4.012,83.936-11.657,123.988-25.496
				c32.721-12.544,39.573-33.807,39.573-49.418C960.382,590.983,876.194,489.475,763.359,462.323L763.359,462.323z M642.562,232.45
				c18.319-11.111,39.332-16.992,60.756-17.001c64.541,0,117.026,52.503,117.026,117.029c0,64.528-52.498,117.039-117.026,117.039
				c-3.478,0-7.173,0.107-10.939,0.198c-3.733,0.107-7.573,0.201-11.382,0.201h-0.012c-1.219,0-2.527,0-3.918-0.043
				c15.947-28.31,25.166-59.525,25.166-86.489C702.135,313.181,680.389,265.463,642.562,232.45L642.562,232.45z M911.853,736.865
				c-30.143,10.403-66.776,17.177-97.236,21.437c1.15-5.852,1.498-11.116,1.498-15.349
				c0.266-108.931-61.216-208.603-158.679-257.248c15.101-3.046,30.473-4.582,45.882-4.578
				c127.322,0,230.894,103.584,230.894,230.906C934.213,719.601,931.618,729.283,911.853,736.865L911.853,736.865z M911.853,736.865
				"/>
		</g>
	</g>
</g>
<g id="图层_6" style="display:none;">
	<g style="display:inline;">
		<path style="fill:#323333;" d="M775.753,275.667H537.907c-9.903,0.061-17.895,8.126-17.865,18.033
			c0,10.095,8.057,18.09,17.865,18.09h237.846c4.772-0.012,9.341-1.934,12.695-5.325c3.353-3.397,5.214-7.992,5.17-12.764
			c0.043-4.767-1.818-9.354-5.175-12.742C785.089,277.571,780.52,275.667,775.753,275.667L775.753,275.667z M775.753,365.723
			H537.907c-9.865,0-17.865,8.169-17.865,18.09c0,9.925,8,18.094,17.865,18.094h237.846c9.925,0,17.865-8.169,17.865-18.094
			C793.618,373.892,785.678,365.723,775.753,365.723L775.753,365.723z M619.966,473.928c0-9.894-7.969-17.942-17.861-18.033h-64.199
			c-9.89,0.091-17.865,8.139-17.865,18.033c0,10.038,8.057,18.146,17.865,18.146h64.199
			C612.04,491.979,620.032,483.867,619.966,473.928L619.966,473.928z M299.668,501.658c-4.28,4.461-9.169,8.299-14.521,11.401
			c-8.623,5.483-18.085,9.523-28.011,11.963c-10.328,2.721-20.543,5.845-30.624,9.358c-9.32,3.302-18.021,8.13-25.748,14.292
			c-7.719,6.498-12.535,15.805-13.382,25.86c-3.007,19.903-3.743,36.124-2.042,48.658c1.644,12.529,3.967,20.019,7.03,22.511
			c4.058,2.294,8.493,3.829,13.102,4.539c6.974,1.532,15.424,3.119,25.406,4.539c9.982,1.526,21.041,3.002,33.233,4.365
			c24.229,2.735,48.527,4.798,72.87,6.178c20.513,1.207,41.077,1.207,61.59,0c25.411-1.328,50.769-3.448,76.051-6.351
			c7.311-0.905,14.061-1.87,20.586-2.891V527.916c-2.441-0.683-4.652-1.306-7.036-1.873c-8.394-2.324-16.649-5.127-24.722-8.394
			c-7.17-2.596-13.815-6.46-19.626-11.396c-4.271-3.825-7.81-8.398-10.432-13.5c-2.159-4.46-3.448-9.289-3.799-14.234
			c-0.329-4.686-0.021-9.398,0.905-14.006c1.19-7.602,3.63-13.044,7.259-16.22c3.631-3.289,8.282-7.144,13.949-11.739
			c2.735-2.549,4.968-5.59,6.582-8.961c1.986-3.855,3.686-7.77,5.161-11.739c1.587-4.538,3.115-9.47,4.59-14.632
			c3.202-1.073,6.14-2.813,8.618-5.102c2.744-2.549,4.972-5.586,6.582-8.961c2.267-4.807,3.578-10.007,3.855-15.312
			c1.25-7.027,0.134-14.265-3.176-20.586c-1.169-2.371-2.903-4.413-5.045-5.954c0-12.59-0.683-24.956-2.215-37.149
			c-1.717-11.444-4.295-22.741-7.709-33.8c-3.64-11.738-9.493-22.671-17.242-32.208c-3.963-4.915-8.58-9.268-13.724-12.933
			c-6.305-4.508-13.071-8.328-20.189-11.396c-7.81-3.461-15.94-6.161-24.273-8.056c-8.528-2.02-17.263-3.028-26.029-3.003
			c-6.918,0-14.061,0.567-21.495,1.588c-15.944,2.548-31.006,9.016-43.834,18.825c-7.515,5.845-14.031,12.876-19.284,20.816
			c-6.46,9.215-11.275,19.479-14.234,30.338c-6.187,21.594-8.999,44.011-8.334,66.466c-2.595,2.782-4.599,6.062-5.901,9.64
			c-1.367,3.548-2.229,7.269-2.549,11.06c-0.372,4.815,0.325,9.656,2.038,14.174c1.791,7.164,5.776,13.589,11.401,18.374
			c1.9,1.398,4.002,2.488,6.239,3.232c1.588,5.162,3.064,10.095,4.535,14.633c1.532,3.967,3.232,7.883,4.937,11.739
			c1.869,3.743,3.968,6.75,6.408,8.904c5.101,4.253,9.808,8.394,14.005,12.59c4.198,4.197,6.638,9.696,7.204,16.787
			c0.338,4.877,0.511,9.299,0.511,13.27c0,3.968-0.795,7.767-2.267,11.453C305.123,494.714,302.687,498.434,299.668,501.658
			L299.668,501.658z M151.029,704.115c-23.671-2.717-41.523-22.788-41.454-46.615V204.039c0-25.744,20.812-44.911,46.218-44.911
			h676.726c25.406,0,48.203,19.167,48.203,44.911v281.342c11.344,9.017,35.163,18.943,44.691,29.776V174.666
			c0-34.592-43.726-60.284-77.806-60.284H126.869c-34.138,0-62.04,39.017-62.04,73.666v484.876c0,32.437,24.441,72.645,55.576,75.99
			h385.463c-2.782-10.15-4.82-34.082-6.239-44.743h-348.6V704.115z M636.585,674.681c-5.754,0.104-11.219,2.54-15.143,6.75
			c-3.811,4.184-5.811,9.714-5.555,15.368c0.173,5.586,2.535,10.881,6.576,14.746l88.921,83.815
			c4.401,4.072,10.298,6.127,16.278,5.672c5.988-0.657,11.435-3.781,15.026-8.618l119.887-165.2
			c6.858-9.501,4.838-22.741-4.538-29.772c-9.424-6.693-22.46-4.682-29.431,4.539L722.73,747.954l-71.573-67.488
			C647.294,676.633,642.028,674.543,636.585,674.681 M747.284,481.357c-116.427,0-210.792,95.555-210.792,213.513
			c0,117.901,94.364,213.516,210.792,213.516c116.313,0,210.734-95.615,210.734-213.516
			C958.018,576.856,863.597,481.357,747.284,481.357L747.284,481.357z M747.284,868.235c-94.595,0-171.267-77.637-171.267-173.421
			s76.672-173.478,171.267-173.478c94.481,0,171.21,77.638,171.21,173.478C918.494,790.598,841.764,868.235,747.284,868.235
			L747.284,868.235z M747.284,868.235"/>
	</g>
</g>
<g id="图层_7" style="display:none;">
	<g style="display:inline;">
		<path d="M804.983,550.993c-85.299,0-154.477,69.172-154.477,154.477c0,85.299,69.178,154.477,154.477,154.477
			c85.305,0,154.476-69.178,154.476-154.477C959.46,620.165,890.288,550.993,804.983,550.993L804.983,550.993z M881.298,666.11
			l-87.375,87.37c-2.781,2.782-6.643,4.511-10.936,4.511c-4.261,0-8.123-1.729-10.938-4.511l-43.687-43.687
			c-2.748-2.782-2.56-7.444,0.467-10.471c3.027-3.032,7.694-3.215,10.471-0.467l38.218,38.218c1.39,1.391,3.337,2.258,5.468,2.258
			s4.078-0.867,5.468-2.258l81.934-81.933c3.03-3.027,7.91-3.027,10.936,0C884.291,658.2,884.291,663.079,881.298,666.11
			L881.298,666.11z M881.298,666.11"/>
		<path d="M565.547,379.738h278.055c8.529,0,15.449-6.92,15.449-15.448c0-8.524-6.92-15.444-15.449-15.444H565.547
			c-8.528,0-15.449,6.92-15.449,15.444C550.098,372.818,557.02,379.738,565.547,379.738L565.547,379.738z M565.547,379.738"/>
		<path d="M565.547,503.323h278.055c8.529,0,15.449-6.921,15.449-15.449c0-8.528-6.92-15.449-15.449-15.449H565.547
			c-8.528,0-15.449,6.921-15.449,15.449C550.098,496.402,557.02,503.323,565.547,503.323L565.547,503.323z M565.547,503.323"/>
		<path d="M596.445,626.902c8.523,0,15.443-6.92,15.443-15.449c0-8.528-6.92-15.448-15.443-15.448h-30.898
			c-8.528,0-15.449,6.92-15.449,15.448c0,8.529,6.921,15.449,15.449,15.449H596.445z M596.445,626.902"/>
		<path d="M428.928,574.008c-5.624,6.425-4.973,16.189,1.419,21.813c36.827,32.288,57.961,78.875,57.961,127.814
			c0,8.528,6.92,15.448,15.449,15.448c8.528,0,15.449-6.92,15.449-15.448c0-57.835-24.967-112.86-68.466-151.045
			C444.283,566.997,434.552,567.615,428.928,574.008L428.928,574.008z M428.928,574.008"/>
		<path d="M117.566,723.634c0,8.528,6.92,15.448,15.449,15.448c8.523,0,15.443-6.92,15.443-15.448
			c0-73.283,48.076-138.656,117.343-161.27c16.189,6.826,33.952,10.625,52.582,10.625c74.985,0,135.941-60.988,135.941-135.939
			c0-74.953-60.988-135.908-135.941-135.908c-74.951,0-135.939,60.989-135.939,135.908c0,42.48,19.993,80.019,50.607,104.981
			C163.818,574.687,117.566,645.439,117.566,723.634L117.566,723.634z M213.341,437.021c0-57.9,47.114-105.014,105.043-105.014
			s105.043,47.114,105.043,105.014c0,57.929-47.114,105.043-105.043,105.043C260.455,542.093,213.341,494.95,213.341,437.021
			L213.341,437.021z M213.341,437.021"/>
		<path d="M648.532,812.276H133.015c-7.911,0-19.682-3.032-25.707-9.056s-12.912-13.931-12.912-21.841V225.261
			c0-7.91,6.887-15.816,12.912-21.84c6.025-6.025,17.796-9.051,25.707-9.051H874.5c7.911,0,11.955,3.027,17.98,9.051
			c6.026,6.025,5.191,13.931,5.191,21.84v327.523c11.093,6.425,21.412,13.963,30.898,22.492V225.261
			c0-15.816-2.164-31.636-14.242-43.687c-12.049-12.078-24.01-18.103-39.826-18.103H133.015c-15.822,0-35.498,6.025-47.549,18.103
			c-12.083,12.05-21.968,27.871-21.968,43.687v556.117c0,15.817,9.885,31.638,21.968,43.687
			c12.05,12.078,31.727,18.103,47.549,18.103h539.922C663.73,833.806,655.608,823.425,648.532,812.276L648.532,812.276z
			 M648.532,812.276"/>
	</g>
</g>
<g id="图层_8">
	<g>
		<path style="fill:#333333;" d="M175.863,221.01c0,12.357-10.017,22.373-22.372,22.373c-12.357,0-22.373-10.017-22.373-22.373
			V170.72c0-59.427,49.089-107.393,109.386-107.393h609.013c60.318,0,109.405,47.966,109.405,107.393v680.136
			c0,59.423-49.087,107.393-109.384,107.393H240.523c-60.317,0-109.405-47.97-109.405-107.393v-47.741
			c0-12.355,10.017-22.377,22.373-22.377c12.355,0,22.372,10.022,22.372,22.377v47.741c0,34.478,28.819,62.647,64.64,62.647h609.013
			c35.795,0,64.635-28.169,64.635-62.647V170.72c0.025-34.478-28.794-62.647-64.614-62.647H240.523
			c-35.82,0-64.66,28.169-64.66,62.647V221.01z M86.372,331.804h134.237c12.357,0,22.377,10.017,22.377,22.373
			c0,12.355-10.021,22.372-22.377,22.372H86.372C74.017,376.549,64,366.533,64,354.177C64,341.821,74.017,331.804,86.372,331.804
			L86.372,331.804z M86.372,488.413h134.237c12.357,0,22.377,10.017,22.377,22.372c0,12.357-10.021,22.373-22.377,22.373H86.372
			C74.017,533.158,64,523.142,64,510.785C64,498.429,74.017,488.413,86.372,488.413L86.372,488.413z M86.372,645.027h134.237
			c12.357,0,22.377,10.015,22.377,22.372c0,12.357-10.021,22.373-22.377,22.373H86.372C74.017,689.772,64,679.756,64,667.399
			C64,655.042,74.017,645.027,86.372,645.027L86.372,645.027z M419.955,304.285c-5.258,3.667-11.189,8.813-17.539,15.188
			c-7.987,8.024-15.454,16.556-22.351,25.531c-6.489,7.605-12.864,24.744-13.181,35.795l-0.287,2.617
			c-0.072,0.543-0.132,1.091-0.18,1.633c-1.725,18.076,2.014,42.508,11.881,70.59c17.38,49.395,51.187,101.171,101.949,154.191
			c52.13,54.48,104.438,89.491,155.493,105.76c15.285,4.875,29.915,7.829,43.629,8.972c7.148,0.337,13.544,4.552,16.674,10.988
			c3.128,6.438,2.499,14.068-1.644,19.9c-4.142,5.838-11.143,8.946-18.251,8.107c-17.784-1.582-35.328-5.173-52.308-10.693
			c-57.476-18.327-115.264-56.83-171.869-115.985c-54.546-56.958-91.303-113.43-110.588-168.243
			c-11.768-33.449-16.223-63.426-13.918-87.319c0.111-1.235,0.224-2.377,0.379-3.36c0.895-19.218,10.292-44.095,21.701-57.455
			c7.779-10.077,16.177-19.653,25.149-28.682c7.968-7.963,15.551-14.517,22.823-19.597c19.08-13.38,36.133-17.047,49.713-9.018
			c11.455,5.238,21.968,22.086,44.746,68.465c1.899,3.825,3.845,7.829,5.862,12.013c11.405,23.791,22.398,47.782,32.979,71.951
			c5.745,12.996,4.183,30.741-3.76,42.529l-28.548,42.399c1.342,5.638,15.102,25.235,40.024,50.63
			c21.119,21.523,39.824,36.177,55.51,43.962c4.25,2.104,7.917,3.533,10.892,4.296l36.516-26.935
			c11.589-7.834,29.081-9.668,42.016-4.475l5.771,2.305c20.469,8.234,40.807,16.792,61.009,25.66
			c4.768,2.105,9.31,4.137,13.652,6.13c41.525,18.998,56.667,28.037,61.972,39.465c12.956,24.458-1.7,50.563-41.391,85.579
			c-4.86,4.285-9.812,8.459-14.855,12.53c-5.485,4.394-12.899,5.51-19.434,2.93c-6.534-2.581-11.189-8.465-12.186-15.419
			c-0.999-6.954,1.802-13.913,7.348-18.23l3.646-2.976c3.108-2.576,6.329-5.325,9.576-8.188
			c17.897-15.772,31.231-33.157,32.394-37.587c-2.985-2.053-6.079-3.952-9.264-5.684c-8.234-4.588-19.683-10.246-34.093-16.827
			c-24.093-10.872-48.423-21.225-72.962-31.052l-5.704-2.278c-1.89-0.292-3.82-0.098-5.612,0.557l-45.575,30.741
			c-3.124,2.083-6.764,3.246-10.518,3.353c-7.918,0.159-18.409-2.775-30.628-8.859c-19.801-9.842-41.856-26.981-66.001-51.591
			c-39.733-40.475-55.751-69.489-49.755-90.12c0.671-2.28,1.563-4.317,2.93-6.422l30.807-45.748
			c0.522-1.587,0.661-3.272,0.404-4.921l-2.687-6.042c-9.617-21.713-19.537-43.292-29.753-64.727
			c-1.884-3.908-3.789-7.809-5.709-11.701c-6.294-13.042-13.007-25.875-20.136-38.483c-2.908-5.008-5.392-8.946-7.312-11.589
			c-3.302,1.517-6.452,3.33-9.422,5.413L419.955,304.285z M419.955,304.285"/>
	</g>
</g>
</svg>
