<?xml version="1.0" encoding="utf-8"?>
<!-- Generator: Adobe Illustrator 17.0.0, SVG Export Plug-In . SVG Version: 6.00 Build 0)  -->
<!DOCTYPE svg PUBLIC "-//W3C//DTD SVG 1.1//EN" "http://www.w3.org/Graphics/SVG/1.1/DTD/svg11.dtd">
<svg version="1.1" xmlns="http://www.w3.org/2000/svg" xmlns:xlink="http://www.w3.org/1999/xlink" x="0px" y="0px" width="1024px"
	 height="1024px" viewBox="0 0 1024 1024" style="enable-background:new 0 0 1024 1024;" xml:space="preserve">
<g id="图层_1">
</g>
<g id="图层_2">
	<g>
		<g>
			<defs>
				<rect id="SVGID_1_" x="125.342" y="63.942" width="773.254" height="895.985"/>
			</defs>
			<clipPath id="SVGID_2_">
				<use xlink:href="#SVGID_1_"  style="overflow:visible;"/>
			</clipPath>
			<path style="clip-path:url(#SVGID_2_);" d="M430.281,72.972c-11.838,11.845-11.838,29.611,0,41.449l399.681,396.723
				L430.281,907.864c-11.838,11.838-11.838,29.604,0,41.449c11.845,11.838,29.611,11.838,41.447,0l417.447-417.447
				c11.845-11.843,11.845-29.602,0-41.447L471.728,72.972C459.892,61.134,442.126,61.134,430.281,72.972L430.281,72.972z
				 M430.281,72.972"/>
			<path style="clip-path:url(#SVGID_2_);" d="M134.221,72.972c-11.838,11.845-11.838,29.611,0,41.449l399.681,396.723
				L134.221,907.864c-11.838,11.838-11.838,29.604,0,41.449c11.845,11.838,29.611,11.838,41.449,0l417.445-417.447
				c11.845-11.843,11.845-29.602,0-41.447L175.67,72.972C163.833,61.134,146.066,61.134,134.221,72.972L134.221,72.972z
				 M134.221,72.972"/>
		</g>
	</g>
</g>
<g id="图层_2_x5F_复制" style="display:none;">
	<g style="display:inline;">
		<g>
			<defs>
				<rect id="SVGID_3_" x="233" y="107.01" width="427.92" height="495.84"/>
			</defs>
			<clipPath id="SVGID_4_">
				<use xlink:href="#SVGID_3_"  style="overflow:visible;"/>
			</clipPath>
			<path style="clip-path:url(#SVGID_4_);" d="M401.754,112.007c-6.551,6.555-6.551,16.387,0,22.938l221.184,219.547
				L401.754,574.038c-6.551,6.551-6.551,16.383,0,22.938c6.555,6.551,16.387,6.551,22.937,0L655.707,365.96
				c6.555-6.554,6.555-16.382,0-22.937L424.691,112.007C418.141,105.456,408.309,105.456,401.754,112.007L401.754,112.007z
				 M401.754,112.007"/>
			<path style="clip-path:url(#SVGID_4_);" d="M237.914,112.007c-6.551,6.555-6.551,16.387,0,22.938l221.184,219.547
				L237.914,574.038c-6.551,6.551-6.551,16.383,0,22.938c6.555,6.551,16.387,6.551,22.938,0L491.867,365.96
				c6.555-6.554,6.555-16.382,0-22.937L260.852,112.007C254.301,105.456,244.469,105.456,237.914,112.007L237.914,112.007z
				 M237.914,112.007"/>
		</g>
	</g>
</g>
<g id="图层_2_x5F_复制_2" style="display:none;">
	<g style="display:inline;">
		<g>
			<defs>
				<rect id="SVGID_5_" x="233" y="107.01" width="427.92" height="495.84"/>
			</defs>
			<clipPath id="SVGID_6_">
				<use xlink:href="#SVGID_5_"  style="overflow:visible;"/>
			</clipPath>
			<path style="clip-path:url(#SVGID_6_);" d="M401.754,112.007c-6.551,6.555-6.551,16.387,0,22.938l221.184,219.547
				L401.754,574.038c-6.551,6.551-6.551,16.383,0,22.938c6.555,6.551,16.387,6.551,22.937,0L655.707,365.96
				c6.555-6.554,6.555-16.382,0-22.937L424.691,112.007C418.141,105.456,408.309,105.456,401.754,112.007L401.754,112.007z
				 M401.754,112.007"/>
			<path style="clip-path:url(#SVGID_6_);" d="M237.914,112.007c-6.551,6.555-6.551,16.387,0,22.938l221.184,219.547
				L237.914,574.038c-6.551,6.551-6.551,16.383,0,22.938c6.555,6.551,16.387,6.551,22.938,0L491.867,365.96
				c6.555-6.554,6.555-16.382,0-22.937L260.852,112.007C254.301,105.456,244.469,105.456,237.914,112.007L237.914,112.007z
				 M237.914,112.007"/>
		</g>
	</g>
</g>
<g id="图层_2_x5F_复制_3" style="display:none;">
	<g style="display:inline;">
		<g>
			<defs>
				<rect id="SVGID_7_" x="233" y="107.01" width="427.92" height="495.84"/>
			</defs>
			<clipPath id="SVGID_8_">
				<use xlink:href="#SVGID_7_"  style="overflow:visible;"/>
			</clipPath>
			<path style="clip-path:url(#SVGID_8_);" d="M401.754,112.007c-6.551,6.555-6.551,16.387,0,22.938l221.184,219.547
				L401.754,574.038c-6.551,6.551-6.551,16.383,0,22.938c6.555,6.551,16.387,6.551,22.937,0L655.707,365.96
				c6.555-6.554,6.555-16.382,0-22.937L424.691,112.007C418.141,105.456,408.309,105.456,401.754,112.007L401.754,112.007z
				 M401.754,112.007"/>
			<path style="clip-path:url(#SVGID_8_);" d="M237.914,112.007c-6.551,6.555-6.551,16.387,0,22.938l221.184,219.547
				L237.914,574.038c-6.551,6.551-6.551,16.383,0,22.938c6.555,6.551,16.387,6.551,22.938,0L491.867,365.96
				c6.555-6.554,6.555-16.382,0-22.937L260.852,112.007C254.301,105.456,244.469,105.456,237.914,112.007L237.914,112.007z
				 M237.914,112.007"/>
		</g>
	</g>
</g>
</svg>
