<?xml version="1.0" encoding="utf-8"?>
<!-- Generator: Adobe Illustrator 17.0.0, SVG Export Plug-In . SVG Version: 6.00 Build 0)  -->
<!DOCTYPE svg PUBLIC "-//W3C//DTD SVG 1.1//EN" "http://www.w3.org/Graphics/SVG/1.1/DTD/svg11.dtd">
<svg version="1.1" xmlns="http://www.w3.org/2000/svg" xmlns:xlink="http://www.w3.org/1999/xlink" x="0px" y="0px" width="1024px"
	 height="1024px" viewBox="0 0 1024 1024" style="enable-background:new 0 0 1024 1024;" xml:space="preserve">
<g id="图层_1">
</g>
<g id="图层_2" style="display:none;">
	<g style="display:inline;">
		<g>
			<defs>
				<rect id="SVGID_1_" x="125.342" y="63.942" width="773.254" height="895.985"/>
			</defs>
			<clipPath id="SVGID_2_">
				<use xlink:href="#SVGID_1_"  style="overflow:visible;"/>
			</clipPath>
			<path style="clip-path:url(#SVGID_2_);" d="M430.281,72.972c-11.838,11.845-11.838,29.611,0,41.449l399.681,396.723
				L430.281,907.864c-11.838,11.838-11.838,29.604,0,41.449c11.845,11.838,29.611,11.838,41.447,0l417.447-417.447
				c11.845-11.843,11.845-29.602,0-41.447L471.728,72.972C459.892,61.134,442.126,61.134,430.281,72.972L430.281,72.972z
				 M430.281,72.972"/>
			<path style="clip-path:url(#SVGID_2_);" d="M134.221,72.972c-11.838,11.845-11.838,29.611,0,41.449l399.681,396.723
				L134.221,907.864c-11.838,11.838-11.838,29.604,0,41.449c11.845,11.838,29.611,11.838,41.449,0l417.445-417.447
				c11.845-11.843,11.845-29.602,0-41.447L175.67,72.972C163.833,61.134,146.066,61.134,134.221,72.972L134.221,72.972z
				 M134.221,72.972"/>
		</g>
	</g>
</g>
<g id="图层_2_x5F_复制" style="display:none;">
	<g style="display:inline;">
		<g>
			<defs>
				<rect id="SVGID_3_" x="63.155" y="124.903" width="895.891" height="773.172"/>
			</defs>
			<clipPath id="SVGID_4_">
				<use xlink:href="#SVGID_3_"  style="overflow:visible;"/>
			</clipPath>
			<path style="clip-path:url(#SVGID_4_);" d="M72.184,593.168c11.844,11.836,29.608,11.836,41.445,0L510.309,193.53
				l396.679,399.638c11.836,11.836,29.601,11.836,41.445,0c11.836-11.844,11.836-29.608,0-41.443L531.029,134.322
				c-11.842-11.844-29.599-11.844-41.443,0L72.184,551.725C60.347,563.56,60.347,581.324,72.184,593.168L72.184,593.168z
				 M72.184,593.168"/>
			<path style="clip-path:url(#SVGID_4_);" d="M72.184,889.196c11.844,11.836,29.608,11.836,41.445,0l396.681-399.638
				l396.679,399.638c11.836,11.836,29.601,11.836,41.445,0c11.836-11.844,11.836-29.608,0-41.445L531.029,430.351
				c-11.842-11.844-29.599-11.844-41.443,0L72.184,847.752C60.347,859.588,60.347,877.353,72.184,889.196L72.184,889.196z
				 M72.184,889.196"/>
		</g>
	</g>
</g>
<g id="图层_2_x5F_复制_2" style="display:none;">
	<g style="display:inline;">
		<g>
			<defs>
				<rect id="SVGID_5_" x="124.845" y="65.147" width="772.859" height="895.528"/>
			</defs>
			<clipPath id="SVGID_6_">
				<use xlink:href="#SVGID_5_"  style="overflow:visible;"/>
			</clipPath>
			<path style="clip-path:url(#SVGID_6_);" d="M592.921,951.65c11.832-11.839,11.832-29.596,0-41.428l-399.477-396.52
				l399.477-396.518c11.832-11.832,11.832-29.589,0-41.428c-11.839-11.832-29.596-11.832-41.426,0L134.261,492.99
				c-11.839,11.837-11.839,29.587,0,41.426L551.495,951.65C563.324,963.481,581.082,963.481,592.921,951.65L592.921,951.65z
				 M592.921,951.65"/>
			<path style="clip-path:url(#SVGID_6_);" d="M888.829,951.65c11.832-11.839,11.832-29.596,0-41.428l-399.477-396.52
				l399.477-396.518c11.832-11.832,11.832-29.589,0-41.428c-11.839-11.832-29.596-11.832-41.428,0L430.169,492.99
				c-11.839,11.837-11.839,29.587,0,41.426L847.401,951.65C859.233,963.481,876.99,963.481,888.829,951.65L888.829,951.65z
				 M888.829,951.65"/>
		</g>
	</g>
</g>
<g id="图层_2_x5F_复制_3" style="display:none;">
	<g style="display:inline;">
		<g>
			<defs>
				<rect id="SVGID_7_" x="64.072" y="125.89" width="896.066" height="773.323"/>
			</defs>
			<clipPath id="SVGID_8_">
				<use xlink:href="#SVGID_7_"  style="overflow:visible;"/>
			</clipPath>
			<path style="clip-path:url(#SVGID_8_);" d="M951.107,430.857c-11.846-11.839-29.614-11.839-41.453,0L512.897,830.573
				L116.14,430.857c-11.839-11.839-29.607-11.839-41.453,0c-11.839,11.846-11.839,29.614,0,41.451l417.484,417.484
				c11.844,11.846,29.605,11.846,41.451,0l417.484-417.484C962.946,460.471,962.946,442.703,951.107,430.857L951.107,430.857z
				 M951.107,430.857"/>
			<path style="clip-path:url(#SVGID_8_);" d="M951.107,134.77c-11.846-11.839-29.614-11.839-41.453,0L512.897,534.487
				L116.14,134.77c-11.839-11.839-29.607-11.839-41.453,0c-11.839,11.846-11.839,29.614,0,41.453l417.484,417.483
				c11.844,11.846,29.605,11.846,41.451,0l417.484-417.483C962.946,164.384,962.946,146.616,951.107,134.77L951.107,134.77z
				 M951.107,134.77"/>
		</g>
	</g>
</g>
<g id="图层_2_x5F_复制_x5F_2">
	<g>
		<g>
			<defs>
				<rect id="SVGID_9_" x="234.82" y="191.152" width="553.121" height="640.914"/>
			</defs>
			<clipPath id="SVGID_10_">
				<use xlink:href="#SVGID_9_"  style="overflow:visible;"/>
			</clipPath>
			<path style="clip-path:url(#SVGID_10_);" d="M569.813,825.607c8.468-8.473,8.468-21.182,0-29.649L283.915,512.175
				l285.898-283.781c8.468-8.468,8.468-21.176,0-29.649c-8.473-8.468-21.182-8.468-29.648,0L241.558,497.352
				c-8.473,8.472-8.473,21.175,0,29.648l298.607,298.607C548.632,834.074,561.34,834.074,569.813,825.607L569.813,825.607z
				 M569.813,825.607"/>
			<path style="clip-path:url(#SVGID_10_);" d="M781.59,825.607c8.468-8.473,8.468-21.182,0-29.649L495.691,512.175L781.59,228.394
				c8.468-8.468,8.468-21.176,0-29.649c-8.473-8.468-21.182-8.468-29.649,0L453.335,497.352c-8.473,8.472-8.473,21.175,0,29.648
				L751.94,825.607C760.408,834.074,773.117,834.074,781.59,825.607L781.59,825.607z M781.59,825.607"/>
		</g>
	</g>
</g>
<g id="图层_2_x5F_复制_6" style="display:none;">
	<g style="display:inline;">
		<g>
			<defs>
				<rect id="SVGID_11_" x="189.473" y="233.735" width="642.636" height="554.608"/>
			</defs>
			<clipPath id="SVGID_12_">
				<use xlink:href="#SVGID_11_"  style="overflow:visible;"/>
			</clipPath>
			<path style="clip-path:url(#SVGID_12_);" d="M195.95,569.628c8.496,8.49,21.238,8.49,29.729,0l284.545-286.667l284.544,286.667
				c8.49,8.49,21.233,8.49,29.729,0c8.49-8.496,8.49-21.238,0-29.728l-299.41-299.41c-8.494-8.496-21.232-8.496-29.728,0
				l-299.41,299.41C187.459,548.39,187.459,561.133,195.95,569.628L195.95,569.628z M195.95,569.628"/>
			<path style="clip-path:url(#SVGID_12_);" d="M195.95,781.974c8.496,8.49,21.238,8.49,29.729,0l284.545-286.667l284.544,286.667
				c8.49,8.49,21.233,8.49,29.729,0c8.49-8.496,8.49-21.238,0-29.729l-299.41-299.408c-8.494-8.496-21.232-8.496-29.728,0
				L195.95,752.245C187.459,760.736,187.459,773.478,195.95,781.974L195.95,781.974z M195.95,781.974"/>
		</g>
	</g>
</g>
<g id="图层_2_x5F_复制_5" style="display:none;">
	<g style="display:inline;">
		<g>
			<defs>
				<rect id="SVGID_13_" x="124.845" y="65.147" width="772.859" height="895.528"/>
			</defs>
			<clipPath id="SVGID_14_">
				<use xlink:href="#SVGID_13_"  style="overflow:visible;"/>
			</clipPath>
			<path style="clip-path:url(#SVGID_14_);" d="M592.921,951.65c11.832-11.839,11.832-29.596,0-41.428l-399.477-396.52
				l399.477-396.518c11.832-11.832,11.832-29.589,0-41.428c-11.839-11.832-29.596-11.832-41.426,0L134.261,492.99
				c-11.839,11.837-11.839,29.587,0,41.426L551.495,951.65C563.324,963.481,581.082,963.481,592.921,951.65L592.921,951.65z
				 M592.921,951.65"/>
			<path style="clip-path:url(#SVGID_14_);" d="M888.829,951.65c11.832-11.839,11.832-29.596,0-41.428l-399.477-396.52
				l399.477-396.518c11.832-11.832,11.832-29.589,0-41.428c-11.839-11.832-29.596-11.832-41.428,0L430.169,492.99
				c-11.839,11.837-11.839,29.587,0,41.426L847.401,951.65C859.233,963.481,876.99,963.481,888.829,951.65L888.829,951.65z
				 M888.829,951.65"/>
		</g>
	</g>
</g>
<g id="图层_2_x5F_复制_4" style="display:none;">
	<g style="display:inline;">
		<g>
			<defs>
				<rect id="SVGID_15_" x="64.072" y="125.89" width="896.066" height="773.323"/>
			</defs>
			<clipPath id="SVGID_16_">
				<use xlink:href="#SVGID_15_"  style="overflow:visible;"/>
			</clipPath>
			<path style="clip-path:url(#SVGID_16_);" d="M951.107,430.857c-11.846-11.839-29.614-11.839-41.453,0L512.897,830.573
				L116.14,430.857c-11.839-11.839-29.607-11.839-41.453,0c-11.839,11.846-11.839,29.614,0,41.451l417.484,417.484
				c11.844,11.846,29.605,11.846,41.451,0l417.484-417.484C962.946,460.471,962.946,442.703,951.107,430.857L951.107,430.857z
				 M951.107,430.857"/>
			<path style="clip-path:url(#SVGID_16_);" d="M951.107,134.77c-11.846-11.839-29.614-11.839-41.453,0L512.897,534.487
				L116.14,134.77c-11.839-11.839-29.607-11.839-41.453,0c-11.839,11.846-11.839,29.614,0,41.453l417.484,417.483
				c11.844,11.846,29.605,11.846,41.451,0l417.484-417.483C962.946,164.384,962.946,146.616,951.107,134.77L951.107,134.77z
				 M951.107,134.77"/>
		</g>
	</g>
</g>
</svg>
