<?xml version="1.0" encoding="utf-8"?>
<!-- Generator: Adobe Illustrator 17.0.0, SVG Export Plug-In . SVG Version: 6.00 Build 0)  -->
<!DOCTYPE svg PUBLIC "-//W3C//DTD SVG 1.1//EN" "http://www.w3.org/Graphics/SVG/1.1/DTD/svg11.dtd">
<svg version="1.1" id="图层_1" xmlns="http://www.w3.org/2000/svg" xmlns:xlink="http://www.w3.org/1999/xlink" x="0px" y="0px"
	 width="1024px" height="1024px" viewBox="0 0 1024 1024" style="enable-background:new 0 0 1024 1024;" xml:space="preserve">
<g>
	<g>
		<defs>
			<rect id="SVGID_1_" x="63.995" y="68.543" width="895.912" height="886.78"/>
		</defs>
		<clipPath id="SVGID_2_">
			<use xlink:href="#SVGID_1_"  style="overflow:visible;"/>
		</clipPath>
		<path style="clip-path:url(#SVGID_2_);" d="M764.659,954.064H181.434c-63.694,0-117.44-51.756-117.44-117.445V251.406
			c0-65.687,53.746-121.422,117.44-121.422h392.137c11.943,0,19.902,7.966,19.902,19.907c0,11.943-7.959,19.902-19.902,19.902
			H181.434c-41.799,0-77.63,37.82-77.63,81.612V834.63c0,41.804,33.838,77.631,77.63,77.631h583.225
			c43.792,0,81.612-35.827,81.612-77.631V444.487c0-11.943,7.966-19.902,19.907-19.902c11.943,0,19.902,7.959,19.902,19.902V836.62
			C886.081,900.319,830.347,954.064,764.659,954.064L764.659,954.064z M764.659,954.064"/>
		<path style="clip-path:url(#SVGID_2_);" d="M298.879,776.908c-9.954,0-21.897-3.982-29.861-11.947
			c-13.931-11.943-17.913-33.838-11.943-53.74c113.463-234.884,119.434-242.844,121.422-244.838L756.7,88.186
			c25.872-25.879,71.659-25.879,97.537,0l85.589,85.589c25.879,25.879,25.879,69.671,0,97.537L561.625,649.511
			c-1.989,1.993-9.948,9.952-242.844,121.427C314.803,774.915,306.838,776.908,298.879,776.908L298.879,776.908z M410.347,494.249
			c-9.954,15.925-75.642,151.283-115.45,234.884c-1.989,3.982,0,5.971,1.988,7.961c1.994,1.993,3.982,0,5.971,0
			c81.612-39.81,216.97-105.498,232.895-115.452l376.208-376.207c11.942-11.943,11.942-29.856,0-39.81l-85.596-85.596
			c-9.948-9.949-29.855-9.949-39.808,0L410.347,494.249z M410.347,494.249"/>
	</g>
	<path d="M862.196,340.979c-5.971,0-9.954-1.989-13.936-5.971L696.983,183.729c-7.959-7.965-7.959-19.907,0-27.867
		c7.959-7.965,19.907-7.965,27.867,0L876.127,307.14c7.966,7.965,7.966,19.907,0,27.867
		C872.15,338.989,868.168,340.979,862.196,340.979L862.196,340.979z M539.728,659.463c-5.97,0-9.948-1.988-13.931-5.97
		L380.486,508.187c-7.959-7.966-7.959-19.907,0-27.868c7.965-7.965,19.907-7.965,27.872,0l145.306,145.306
		c7.961,7.966,7.961,19.907,0,27.868C549.682,657.475,543.71,659.463,539.728,659.463L539.728,659.463z M539.728,659.463"/>
</g>
</svg>
