<?xml version="1.0" encoding="utf-8"?>
<!-- Generator: Adobe Illustrator 17.0.0, SVG Export Plug-In . SVG Version: 6.00 Build 0)  -->
<!DOCTYPE svg PUBLIC "-//W3C//DTD SVG 1.1//EN" "http://www.w3.org/Graphics/SVG/1.1/DTD/svg11.dtd">
<svg version="1.1" id="图层_1" xmlns="http://www.w3.org/2000/svg" xmlns:xlink="http://www.w3.org/1999/xlink" x="0px" y="0px"
	 width="1024px" height="1024px" viewBox="0 0 1024 1024" style="enable-background:new 0 0 1024 1024;" xml:space="preserve">
<g>
	<path d="M751.814,450.494c104.161,0,188.979,84.444,188.979,188.229s-84.756,188.233-188.979,188.233
		c-104.217,0-188.978-84.448-188.978-188.233S647.597,450.494,751.814,450.494 M751.814,432.025
		c-114.54,0-207.381,92.533-207.381,206.699c0,114.171,92.841,206.702,207.381,206.702c114.546,0,207.386-92.531,207.386-206.702
		C959.2,524.558,866.36,432.025,751.814,432.025L751.814,432.025z M751.814,432.025"/>
	<path d="M487.782,535.25c-2.055,0-4.104-0.683-5.784-2.054L86.07,213.698c-3.976-3.174-4.597-9.018-1.428-12.999
		c3.169-3.98,9.081-4.54,12.994-1.366l390.022,314.711l371.301-314.525c3.98-3.293,9.826-2.8,12.994,1.058
		c3.297,3.918,2.799,9.764-1.058,12.994L493.812,533.073C492.07,534.506,489.959,535.25,487.782,535.25L487.782,535.25z
		 M487.782,535.25"/>
	<g>
		<defs>
			<rect id="SVGID_1_" x="63.894" y="177.627" width="896.179" height="668.964"/>
		</defs>
		<clipPath id="SVGID_2_">
			<use xlink:href="#SVGID_1_"  style="overflow:visible;"/>
		</clipPath>
		<path style="clip-path:url(#SVGID_2_);" d="M91.854,666.771c-2.363,0-4.726-0.872-6.528-2.736c-3.606-3.606-3.606-9.451,0-13.056
			l245.131-244.325c3.605-3.606,9.45-3.606,13.056,0c3.61,3.61,3.61,9.455,0,13.06L98.387,664.035
			C96.583,665.899,94.154,666.771,91.854,666.771L91.854,666.771z M91.854,666.771"/>
		<path style="clip-path:url(#SVGID_2_);" d="M486.908,685.611H110.697c-25.871,0-46.949-21.018-46.949-46.887V225.327
			c0-25.809,21.078-46.826,46.949-46.826h735.329c25.927,0,47.011,21.018,47.011,46.826v183.504c0,5.1-4.171,9.204-9.266,9.204
			c-5.1,0-9.266-4.104-9.266-9.204V225.327c0-15.609-12.748-28.357-28.48-28.357H110.697c-15.732,0-28.48,12.748-28.48,28.357
			v413.396c0,15.608,12.748,28.356,28.48,28.356h376.211c5.1,0,9.204,4.166,9.204,9.266
			C496.112,681.445,492.008,685.611,486.908,685.611L486.908,685.611z M486.908,685.611"/>
	</g>
	<path d="M745.101,704.204h13.37l3.913-154.962h-0.307c-0.186-5.598-4.664-10.134-10.263-10.134
		c-5.593,0-10.072,4.536-10.262,10.134h-0.37L745.101,704.204z M745.101,704.204"/>
	<path d="M760.643,717.512c-2.362-2.302-5.408-3.359-8.952-3.359c-3.359,0-6.282,0.996-8.644,3.359
		c-2.548,2.178-3.73,5.1-3.73,8.644c0,3.359,1.182,6.282,3.73,8.644c2.362,2.362,5.223,3.544,8.644,3.544
		c3.42,0,6.404-1.182,8.952-3.358c2.362-2.363,3.549-5.224,3.549-8.83C764.192,722.611,763.006,719.751,760.643,717.512
		L760.643,717.512z M760.643,717.512"/>
</g>
</svg>
