<?xml version="1.0" encoding="utf-8"?>
<!-- Generator: Adobe Illustrator 17.0.0, SVG Export Plug-In . SVG Version: 6.00 Build 0)  -->
<!DOCTYPE svg PUBLIC "-//W3C//DTD SVG 1.1//EN" "http://www.w3.org/Graphics/SVG/1.1/DTD/svg11.dtd">
<svg version="1.1" xmlns="http://www.w3.org/2000/svg" xmlns:xlink="http://www.w3.org/1999/xlink" x="0px" y="0px" width="1024px"
	 height="1024px" viewBox="0 0 1024 1024" style="enable-background:new 0 0 1024 1024;" xml:space="preserve">
<g id="图层_1">
</g>
<g id="图层_2" style="display:none;">
	<g style="display:inline;">
		<g>
			<defs>
				<rect id="SVGID_1_" x="117.256" y="63.701" width="789.494" height="895.914"/>
			</defs>
			<clipPath id="SVGID_2_">
				<use xlink:href="#SVGID_1_"  style="overflow:visible;"/>
			</clipPath>
			<path style="clip-path:url(#SVGID_2_);" d="M455.179,556.254c4.957,0,9.762-2.585,12.505-7.216l70.347-120.668
				c9.66-16.778,12.178-36.183,7.196-54.872c-4.976-18.635-16.962-34.204-33.694-43.853c-33.349-19.25-79.524-6.814-98.721,26.441
				c-1.731,2.996-3.265,6.086-4.521,9.229c-2.641-2.097-5.451-3.985-8.492-5.719c-33.368-19.251-79.558-6.751-98.754,26.44
				c-9.658,16.68-12.176,36.16-7.181,54.833c4.962,18.679,16.928,34.214,33.627,43.917l120.454,69.511
				C450.267,555.608,452.73,556.254,455.179,556.254L455.179,556.254z M455.179,556.254"/>
			<path style="clip-path:url(#SVGID_2_);" d="M898.474,286.197c-8.124-14.063-21.24-24.07-36.824-28.264l-98.11-26.299v-31.75
				c0-33.467-27.232-60.69-60.703-60.69H602.196l-8.07-30.317c-8.506-31.593-42.607-51.421-74.402-42.925L162.113,161.75
				c-15.638,4.19-28.685,14.269-36.844,28.333c-8.085,14.112-10.27,30.429-6.076,46.057l155.738,581.141
				c5.588,20.981,21.959,36.77,42.099,42.484l-0.138,0.733l357.612,95.816c5.187,1.453,10.427,2.097,15.735,2.097
				c10.501,0,20.899-2.742,30.328-8.193c14.063-8.124,24.144-21.19,28.283-36.843L904.57,332.255
				C908.764,316.636,906.579,300.319,898.474,286.197L898.474,286.197z M702.838,168.036c17.554,0,31.827,14.324,31.827,31.848
				v433.688L609.969,168.036H702.838z M302.775,809.802L147.053,228.637c-2.166-8.124-1.046-16.738,3.25-24.134
				c4.264-7.396,11.111-12.681,19.251-14.889l357.666-95.812c2.688-0.733,5.431-1.051,8.139-1.051
				c14.464,0,27.129,9.723,30.85,23.63l155.743,581.165c4.556,16.943-5.558,34.414-22.52,38.989l-357.612,95.802
				C324.959,836.845,307.229,826.398,302.775,809.802L302.775,809.802z M734.7,747.749v53.826c0,17.594-14.309,31.847-31.862,31.847
				H449.255l257.602-69.043C717.948,761.447,727.279,755.473,734.7,747.749L734.7,747.749z M720.968,905.937
				c-2.18,8.173-7.421,14.987-14.881,19.318c-7.391,4.229-16.004,5.416-24.144,3.231l-246.998-66.207h267.892
				c11.927,0,22.97-3.564,32.419-9.552L720.968,905.937z M876.706,324.816L763.54,747.07V261.486l90.616,24.29
				c8.158,2.205,15.041,7.503,19.303,14.904C877.737,308.024,878.911,316.636,876.706,324.816L876.706,324.816z M876.706,324.816"/>
		</g>
	</g>
</g>
<g id="图层_3" style="display:none;">
	<g style="display:inline;">
		<g>
			<defs>
				<rect id="SVGID_3_" x="63.875" y="81.621" width="896.103" height="861.262"/>
			</defs>
			<clipPath id="SVGID_4_">
				<use xlink:href="#SVGID_3_"  style="overflow:visible;"/>
			</clipPath>
			<path style="clip-path:url(#SVGID_4_);" d="M831.588,941.834h-639.76c-67.24,0-127.953-61.374-127.953-127.953
				c0,0,1.111-252.471,1.111-341.78c0-42.653,25.932-67.24,62.865-84.727V259.422c0-52.691,34.929-106.625,85.3-106.625h191.93
				l42.648-42.652c35.594-37.254,92.339-37.254,127.953,0l42.652,42.652h191.93c50.346,0,85.3,53.934,85.3,106.625v127.952
				c34.355,18.172,63.977,44.591,63.977,85.3v341.207C959.541,880.46,898.827,941.834,831.588,941.834L831.588,941.834z
				 M895.564,515.327c0-31.179-29.28-65.403-63.164-65.403l-0.812,1.426V280.75c0-42.14-22.05-63.976-63.977-63.976H255.805
				c-41.928,0-63.977,21.837-63.977,63.976v170.601c-33.888,0-63.977,32.798-63.977,63.977v319.882
				c0,31.174,30.088,42.649,63.977,42.649h639.76c33.884,0,63.977-32.798,63.977-63.977V515.327z M529.025,746.707
				c-7.432,3.952-16.315,4.062-23.845,0.299C289.627,639.931,307.967,511.319,308.86,505.924
				c-0.361-1.664,0.361-55.192,35.868-90.76c19.405-19.451,44.677-29.26,75.151-29.26c46.083,0,77.328,21.73,96.82,46.428
				c19.872-24.378,51.051-45.956,96.003-46.428c82.849,0,112.429,70.162,112.363,117.311
				C727.157,594.188,659.364,677.722,529.025,746.707L529.025,746.707z M614.153,437.872c-56.319,0.578-72.269,54.553-72.933,56.832
				c-3.238,11.367-14.306,17.724-25.719,18.958c-11.859-0.2-22.074-8.419-24.82-19.96c-1.365-5.546-15.524-55.831-70.757-55.831
				c-16.335,0-28.768,4.587-38.172,13.991c-17.36,17.36-21.115,48.601-21.05,58.177c-0.811,7.632-10.067,97.607,155.738,184.378
				c102.554-56.917,158.045-123.41,156.593-188.133C672.989,500.57,672.35,437.872,614.153,437.872L614.153,437.872z
				 M614.153,437.872"/>
		</g>
	</g>
</g>
<g id="图层_4" style="display:none;">
	<g style="display:inline;">
		<g>
			<defs>
				<rect id="SVGID_5_" x="63.737" y="81.186" width="896.365" height="861.515"/>
			</defs>
			<clipPath id="SVGID_6_">
				<use xlink:href="#SVGID_5_"  style="overflow:visible;"/>
			</clipPath>
			<path style="clip-path:url(#SVGID_6_);" d="M831.675,941.651H191.728c-67.26,0-127.991-61.392-127.991-127.991
				c0,0,1.112-252.545,1.112-341.88c0-42.665,25.939-67.26,62.884-84.752v-127.99c0-52.707,34.96-106.656,85.325-106.656h191.986
				l42.66-42.664c35.625-37.265,92.366-37.265,127.991,0l42.664,42.664h191.986c50.361,0,85.325,53.95,85.325,106.656v127.99
				c34.365,18.178,63.995,44.604,63.995,85.325V813.66C959.666,880.259,898.934,941.651,831.675,941.651L831.675,941.651z
				 M895.67,515.019c0-31.188-29.289-65.422-63.183-65.422l-0.813,1.427V280.373c0-42.152-22.056-63.995-63.995-63.995H255.723
				c-41.94,0-63.995,21.843-63.995,63.995v170.651c-33.898,0-63.995,32.808-63.995,63.995v319.976
				c0,31.184,30.097,42.661,63.995,42.661h639.947c33.894,0,63.995-32.807,63.995-63.995V515.019z M529.024,746.466
				c-7.434,3.953-16.32,4.063-23.852,0.299c-215.616-107.107-197.25-235.757-196.377-241.153
				c-0.361-1.665,0.361-55.208,35.879-90.787c19.411-19.456,44.69-29.269,75.173-29.269c46.097,0,77.351,21.736,96.868,46.441
				c19.858-24.385,51.046-45.97,96.011-46.441c82.873,0,112.462,70.182,112.396,117.346
				C727.214,593.902,659.401,677.461,529.024,746.466L529.024,746.466z M529.024,746.466"/>
		</g>
	</g>
</g>
<g id="图层_5" style="display:none;">
	<g style="display:inline;">
		<path d="M913.852,365.546c-0.23-0.23-0.46-6.35-0.704-6.58l6.801-6.933l-6.801,15.178c-11.799-11.586-35.384-23.219-57.3-23.905
			l-21.109-0.294V165.935c0-45.126-24.584-65.298-69.27-65.298H255.996c-44.699,0-68.097,20.168-68.097,65.298l-1.176,175.786
			l-20.863-0.657c-20.654,1.18-38.734,10.564-53.043,24.267l-7.905-14.087l6.721,11.744l0.903,0.264L97.946,344.7l0.367-0.353
			c15.489-14.837,35.585-24.421,57.36-27.518V165.94c0-55.757,45.002-101.117,100.324-101.117H765.47
			c55.317,0,100.324,45.36,100.324,101.117v150.543c23.237,2.711,44.568,12.728,60.854,28.72l0.887,0.878l-13.678,17.105
			L913.852,365.546z M913.852,365.546"/>
		<g>
			<defs>
				<rect id="SVGID_7_" x="69.475" y="64.252" width="884.555" height="895.289"/>
			</defs>
			<clipPath id="SVGID_8_">
				<use xlink:href="#SVGID_7_"  style="overflow:visible;"/>
			</clipPath>
			<path style="clip-path:url(#SVGID_8_);" d="M155.663,325.546h31.056v98.642l-31.056-5.885V325.546z M835.963,281.763h29.879
				v140.835l-29.879,3.533l-1.176-144.369H835.963z M835.963,281.763"/>
			<path style="clip-path:url(#SVGID_8_);" d="M852.411,958.448H170.462c-55.757,0-101.117-41.989-101.117-93.597V407.544
				c0-23.352,9.621-44.504,28.597-62.865c3.789-3.657,9.809-3.601,13.529,0.123L497.446,731.69c3.657,3.661,8.988,5.77,14.595,5.77
				c5.624,0,10.951-2.109,14.621-5.783l386.419-386.41c3.677-3.682,9.617-3.775,13.41-0.217
				c1.151,1.086,28.226,26.888,27.033,62.664v457.13C953.537,916.459,908.168,958.448,852.411,958.448L852.411,958.448z
				 M121.936,407.556v53.64l-0.337,392.693c0,36.036,35.811,63.777,76.936,63.777h621.439c41.125,0,78.108-27.741,78.108-63.777
				l-0.341-392.693c0-0.098-0.003-0.204,0-0.306c-0.003,0.306,0-51.76,0-51.76L535.55,758.28
				c-6.61,6.392-16.001,10.052-25.742,10.052c-9.736,0-19.115-3.669-25.741-10.052L121.936,407.556z M121.936,407.556"/>
		</g>
		<path d="M429.75,407.493l68.302,68.298c3.068,3.081,7.236,4.811,11.586,4.806c4.346,0.004,8.514-1.726,11.577-4.806l68.303-68.298
			c0.46-0.465,0.894-0.954,1.29-1.457c23.616-25.295,23.075-65.213-1.534-89.83c-21.502-21.467-54.637-24.603-79.548-9.362
			c-10.269-6.43-22.15-9.826-34.268-9.796c-17.164-0.047-33.629,6.775-45.731,18.949c-12.17,12.098-18.992,28.566-18.949,45.727
			c-0.047,16.9,6.567,33.135,18.404,45.19C429.375,407.104,429.558,407.292,429.75,407.493"/>
	</g>
</g>
<g id="图层_6" style="display:none;">
	<g style="display:inline;">
		<path d="M914.25,365.928c-0.226-0.235-0.46-6.354-0.698-6.58l6.8-6.932l-6.809,15.174c-11.787-11.586-35.381-23.215-57.297-23.905
			l-21.109-0.295V166.312c0-45.126-24.587-65.298-69.261-65.298H256.391c-44.692,0-68.094,20.168-68.094,65.298l-1.176,175.779
			l-20.867-0.657c-20.654,1.189-38.73,10.573-53.043,24.276l-7.904-14.087l6.72,11.744l0.908,0.264l-14.59-18.558l0.358-0.349
			c15.494-14.829,35.589-24.421,57.369-27.515V166.312c0.004-55.753,45.007-101.118,100.326-101.118h509.472
			c55.319,0,100.321,45.36,100.321,101.118v150.544c23.231,2.706,44.572,12.728,60.858,28.72c0.298,0.294,0.597,0.584,0.877,0.874
			l-13.67,17.114v2.352h-0.004V365.928z M914.25,365.928"/>
		<g>
			<defs>
				<rect id="SVGID_9_" x="69.877" y="64.627" width="884.561" height="895.295"/>
			</defs>
			<clipPath id="SVGID_10_">
				<use xlink:href="#SVGID_9_"  style="overflow:visible;"/>
			</clipPath>
			<path style="clip-path:url(#SVGID_10_);" d="M156.065,325.928h31.056v98.641l-31.056-5.884V325.928z M836.36,282.14h29.888
				v140.841l-29.888,3.538l-1.172-144.378H836.36z M430.153,407.871l68.294,68.298c3.069,3.081,7.24,4.811,11.586,4.806
				c4.347,0.004,8.519-1.726,11.582-4.806l68.303-68.298c0.46-0.456,0.89-0.941,1.29-1.453
				c23.616-25.299,23.084-65.217-1.534-89.831c-21.502-21.468-54.637-24.608-79.544-9.366c-10.269-6.43-22.15-9.822-34.268-9.792
				c-17.164-0.047-33.629,6.775-45.731,18.95c-12.17,12.098-18.996,28.562-18.949,45.727c-0.043,16.895,6.567,33.131,18.404,45.186
				L430.153,407.871"/>
			<path style="clip-path:url(#SVGID_10_);" d="M926.898,345.435c-3.797-3.557-9.733-3.463-13.414,0.214L527.066,732.071
				c-3.67,3.669-8.996,5.774-14.625,5.774c-5.611,0-10.934-2.105-14.595-5.77L111.872,345.184c-3.724-3.729-9.745-3.78-13.533-0.119
				c-18.98,18.357-28.593,39.505-28.593,62.861v457.303c0,51.611,45.36,93.601,101.113,93.601h681.949
				c55.762,0,101.122-41.99,101.118-93.601V408.097C955.128,372.324,928.052,346.518,926.898,345.435L926.898,345.435z
				 M926.898,345.435"/>
		</g>
	</g>
</g>
<g id="图层_7" style="display:none;">
	<g style="display:inline;">
		<g>
			<defs>
				<rect id="SVGID_11_" x="63.909" y="70.301" width="895.994" height="883.413"/>
			</defs>
			<clipPath id="SVGID_12_">
				<use xlink:href="#SVGID_11_"  style="overflow:visible;"/>
			</clipPath>
			<path style="clip-path:url(#SVGID_12_);" d="M443.941,370.524c-1.346,0-2.687-0.082-4.033-0.268
				c-44.764-5.758-109.025-23.257-160.873-73.862c-35.452-34.637-47.86-85.242-32.395-132.088
				c16.397-49.79,61.127-84.32,119.567-92.379c31.419-4.253,63.609,6.187,88.763,28.771c23.686,21.346,41.876,42.223,55.47,64.223
				c12.37-18.235,28.201-36.464,47.983-55.47c32.92-31.624,79.401-44.198,120.913-32.906c50.053,13.593,87.128,49.347,99.177,95.642
				c11.516,44.378-1.751,91.975-34.716,124.189c-40.371,39.371-92.585,63.993-155.218,73.213
				c-17.134,2.584-32.964-9.303-35.491-26.392c-2.52-17.075,9.323-32.946,26.373-35.471c49.367-7.241,89.943-26.104,120.669-56.061
				c17.172-16.827,23.89-40.654,17.864-63.751c-6.387-24.685-26.45-43.281-55.022-51.053c-20.429-5.456-44.32,1.424-61.248,17.659
				c-37.279,35.837-55.876,65.237-62.102,98.388c-2.808,14.773-15.71,25.455-30.726,25.455c-15.017,0-27.918-10.682-30.727-25.455
				c-6.432-34.125-19.986-65.179-65.038-105.73c-11.229-10.118-25.598-15.139-38.377-13.311
				c-34.793,4.783-59.864,23.013-68.776,50.015c-7.9,23.993-1.468,49.976,16.767,67.782c41.512,40.575,96.246,52.867,125.145,56.611
				c17.133,2.199,29.22,17.864,27.021,34.978C472.873,359.027,459.401,370.524,443.941,370.524L443.941,370.524z M443.941,370.524"
				/>
		</g>
		<path d="M800.121,952.514h-577.41c-34.964,0-63.37-31.478-63.37-70.161V498.941h704.105v383.411
			C863.446,921.036,835.042,952.514,800.121,952.514L800.121,952.514z M221.853,561.452v320.9c0,5.09,2.199,7.732,2.726,8.098
			l575.42-0.444c-1.141-0.082,0.936-2.71,0.936-7.654l-0.814-320.9H221.853z M221.853,561.452"/>
		<path d="M837.157,558.079H185.675c-67.153,0-121.766-54.618-121.766-121.766v-6.533c0-67.153,54.618-121.766,121.766-121.766
			h651.482c67.153,0,121.766,54.613,121.766,121.766v6.533C958.924,503.461,904.306,558.079,837.157,558.079L837.157,558.079z
			 M185.675,370.524c-32.682,0-59.255,26.573-59.255,59.255v6.528c0,32.682,26.573,59.26,59.255,59.26h651.482
			c32.682,0,59.255-26.578,59.255-59.26v-6.528c0-32.682-26.572-59.255-59.255-59.255H185.675z M185.675,370.524"/>
	</g>
</g>
<g id="图层_8">
	<g>
		<g>
			<defs>
				<rect id="SVGID_13_" x="64.161" y="64.159" width="896.025" height="894.52"/>
			</defs>
			<clipPath id="SVGID_14_">
				<use xlink:href="#SVGID_13_"  style="overflow:visible;"/>
			</clipPath>
			<path style="clip-path:url(#SVGID_14_);" d="M868.601,285.423H726.614c18.16-23.114,29.166-52.285,29.166-84.201
				c0-75.399-61.087-136.486-135.935-136.486c-45.126,0-84.752,22.012-109.513,56.132c-24.768-34.12-64.945-56.132-109.52-56.132
				c-74.848,0-135.935,61.087-135.935,136.486c0,31.916,11.005,61.087,29.166,84.201H152.053c-48.428,0-88.053,39.626-88.053,88.053
				v109.52c0,40.171,26.415,73.745,63.291,84.752v301.588c0,47.33,38.524,85.854,85.85,85.854h287.832
				c3.301,1.098,6.602,2.199,10.455,2.199s7.153-0.551,10.46-2.199h287.826c47.33,0,85.854-38.524,85.854-85.854V567.748
				c36.32-11.007,63.287-44.581,63.287-84.752v-109.52C956.654,325.048,917.028,285.423,868.601,285.423L868.601,285.423z
				 M619.844,117.015c46.229,0,83.656,37.426,83.656,83.656c0,46.228-37.426,83.649-83.656,83.649h-83.649v-83.649
				C536.195,154.441,573.616,117.015,619.844,117.015L619.844,117.015z M400.259,117.015c46.228,0,83.649,37.426,83.649,83.656
				v84.201h-83.649c-46.23,0-83.105-37.422-83.105-83.65C316.609,154.441,354.03,117.015,400.259,117.015L400.259,117.015z
				 M115.734,482.996v-109.52c0-19.813,15.955-35.774,35.223-35.774h332.401V518.77H150.957
				C131.69,518.77,115.734,502.809,115.734,482.996L115.734,482.996z M179.02,869.887V571.6h304.889v331.304H212.595
				C193.879,902.905,179.02,888.047,179.02,869.887L179.02,869.887z M807.514,902.905H536.195V571.6h304.887v298.286
				C841.082,888.047,826.225,902.905,807.514,902.905L807.514,902.905z M903.823,482.996c0,19.813-15.961,35.774-35.223,35.774
				H536.195V337.702h332.406c19.262,0,35.223,15.961,35.223,35.774V482.996z M903.823,482.996"/>
		</g>
		<path d="M619.844,117.015c46.229,0,83.656,37.426,83.656,83.656c0,46.228-37.426,83.649-83.656,83.649h-83.649v-83.649
			C536.195,154.441,573.616,117.015,619.844,117.015L619.844,117.015z M619.844,117.015"/>
		<path d="M400.259,117.015c46.228,0,83.649,37.426,83.649,83.656v84.201h-83.649c-46.23,0-83.105-37.422-83.105-83.65
			C316.609,154.441,354.03,117.015,400.259,117.015L400.259,117.015z M400.259,117.015"/>
	</g>
</g>
</svg>
