<?xml version="1.0" encoding="utf-8"?>
<!-- Generator: Adobe Illustrator 17.0.0, SVG Export Plug-In . SVG Version: 6.00 Build 0)  -->
<!DOCTYPE svg PUBLIC "-//W3C//DTD SVG 1.1//EN" "http://www.w3.org/Graphics/SVG/1.1/DTD/svg11.dtd">
<svg version="1.1" id="图层_1" xmlns="http://www.w3.org/2000/svg" xmlns:xlink="http://www.w3.org/1999/xlink" x="0px" y="0px"
	 width="1024px" height="1024px" viewBox="0 0 1024 1024" style="enable-background:new 0 0 1024 1024;" xml:space="preserve">
<g>
	<g>
		<defs>
			<rect id="SVGID_1_" x="63.818" y="297.223" width="896.34" height="430.015"/>
		</defs>
		<clipPath id="SVGID_2_">
			<use xlink:href="#SVGID_1_"  style="overflow:visible;"/>
		</clipPath>
		<path style="clip-path:url(#SVGID_2_);" d="M857.378,459.293c38.026-33.932,71.101-73.379,97.804-117.013
			c8.317-13.587,4.046-31.346-9.545-39.668c-13.587-8.317-31.351-4.041-39.668,9.545C821.173,450.701,673.701,533.41,511.481,533.41
			c-162.117,0-309.545-82.63-394.365-221.047c-8.322-13.587-26.086-17.847-39.668-9.522c-13.587,8.322-17.852,26.086-9.525,39.668
			c25.712,41.96,57.309,80.055,93.542,113.081L77.95,557.429c-10.1,12.323-8.307,30.498,4.016,40.603
			c5.147,4.232,11.612,6.549,18.278,6.544c8.34,0,16.618-3.6,22.319-10.555l83.624-101.972
			c15.223,11.069,31.032,21.305,47.361,30.66c30.896,17.685,63.515,32.06,97.261,42.998L309.6,687.96
			c-5.089,15.1,3.027,31.462,18.122,36.557c2.973,1.004,6.082,1.518,9.222,1.518c12.039,0,23.275-7.602,27.335-19.645
			l42.449-125.936c34.467,7.077,69.569,10.653,104.754,10.658c36.772,0,73.31-3.899,108.981-11.525L676.473,703.8
			c4.815,10.676,15.32,16.994,26.315,16.994c3.963,0,7.998-0.818,11.844-2.557c14.522-6.548,20.992-23.631,14.438-38.158
			l-52.258-115.892c32.129-10.75,63.216-24.64,92.72-41.548c14.581-8.356,28.745-17.416,42.443-27.148l96.982,96.98
			c5.408,5.418,12.749,8.46,20.4,8.45c7.385,0,14.766-2.816,20.399-8.45c11.269-11.264,11.269-29.533,0-40.799L857.378,459.293z
			 M857.378,459.293"/>
	</g>
</g>
</svg>
