<?xml version="1.0" encoding="utf-8"?>
<!-- Generator: Adobe Illustrator 17.0.0, SVG Export Plug-In . SVG Version: 6.00 Build 0)  -->
<!DOCTYPE svg PUBLIC "-//W3C//DTD SVG 1.1//EN" "http://www.w3.org/Graphics/SVG/1.1/DTD/svg11.dtd">
<svg version="1.1" xmlns="http://www.w3.org/2000/svg" xmlns:xlink="http://www.w3.org/1999/xlink" x="0px" y="0px" width="1024px"
	 height="1024px" viewBox="0 0 1024 1024" style="enable-background:new 0 0 1024 1024;" xml:space="preserve">
<g id="图层_1">
</g>
<g id="图层_2" style="display:none;">
	<path style="display:inline;" d="M924.816,337.122c-22.623-53.409-54.883-101.332-96.112-142.56s-89.151-73.489-142.56-96.112
		c-55.284-23.425-114.049-35.205-174.552-35.205S392.325,75.159,337.04,98.451c-53.409,22.623-101.332,54.883-142.56,96.112
		c-41.228,41.228-73.489,89.151-96.112,142.56c-23.425,55.284-35.205,114.049-35.205,174.552s11.913,119.268,35.205,174.552
		c22.623,53.409,54.883,101.332,96.112,142.56c41.228,41.228,89.151,73.489,142.56,96.112
		c55.284,23.425,114.049,35.205,174.552,35.205s119.268-11.913,174.552-35.204c53.409-22.623,101.332-54.883,142.56-96.112
		c41.228-41.228,73.489-89.151,96.111-142.56c23.425-55.284,35.205-114.049,35.205-174.552S948.108,392.406,924.816,337.122z
		 M762.847,390.263L453.765,699.344c-12.448,12.448-32.929,12.448-45.378,0L250.432,541.389c-12.448-12.448-12.448-32.929,0-45.378
		c12.448-12.448,32.929-12.448,45.378,0l135.197,135.197l286.326-286.326c12.448-12.448,32.929-12.448,45.378,0
		c12.583,12.448,12.583,32.795,0.135,45.378L762.847,390.263z"/>
</g>
<g id="图层_3" style="display:none;">
	<path style="display:inline;" d="M512.057,64.061c-247.422,0-447.996,200.574-447.996,447.996
		c0,247.419,200.574,447.995,447.996,447.995s447.996-200.574,447.996-447.995S759.478,64.061,512.057,64.061z M710.681,665.425
		c12.5,12.5,12.498,32.751-0.002,45.251c-6.25,6.25-14.439,9.377-22.627,9.377c-8.188,0-16.375-3.123-22.625-9.373l-153.37-153.371
		L358.685,710.68c-6.25,6.25-14.439,9.373-22.627,9.373s-16.377-3.127-22.627-9.377c-12.5-12.5-12.5-32.751,0-45.251
		l153.371-153.369l-153.37-153.372c-12.5-12.5-12.498-32.751,0.002-45.251c12.5-12.5,32.751-12.504,45.251-0.004L512.056,466.8
		l153.371-153.371c12.5-12.5,32.751-12.496,45.251,0.004c12.5,12.5,12.502,32.751,0.002,45.251L557.312,512.056L710.681,665.425z"/>
</g>
<g id="图层_4" style="display:none;">
	<path style="display:inline;" d="M512.076,959.863c247.07,0,448.084-201.014,448.083-448.085
		c0-247.073-201.014-448.085-448.083-448.085S63.991,264.705,63.991,511.778C63.991,758.849,265.005,959.863,512.076,959.863z
		 M512.075,287.734c30.931,0,56.011,25.078,56.011,56.014c0,30.929-25.078,56.008-56.011,56.008s-56.011-25.078-56.011-56.008
		C456.064,312.814,481.142,287.734,512.075,287.734z M456.064,511.78c0-30.931,25.078-56.011,56.011-56.011
		s56.011,25.078,56.011,56.011v168.028c0,30.931-25.078,56.011-56.011,56.011s-56.011-25.078-56.011-56.011
		C456.064,679.808,456.064,511.781,456.064,511.78z"/>
</g>
<g id="图层_5">
	<path d="M512.171,63.548c-247.429,0-447.985,200.613-447.985,447.985c0,247.434,200.556,447.99,447.985,447.99
		c247.434,0,447.99-200.556,447.99-447.99C960.161,264.16,759.605,63.548,512.171,63.548z M522.912,773.165
		c-35.745,0-64.758-29.013-64.758-64.808c0-35.745,29.013-64.714,64.758-64.714c35.75,0,64.763,28.968,64.763,64.714
		C587.675,744.107,558.663,773.165,522.912,773.165z M609.217,496.119c-28.938,26.694-31.543,53.87-31.864,56.194
		c-3.648,29.421-24.009,44.09-51.586,44.852c-26.094,0.722-47.696-19.199-51.464-44.21c-1.725-22.486-1.645-63.411,38.598-95.715
		c13.908-11.183,32.385-31.504,32.385-44.813c0.082-28.537-18.318-47.497-40.24-48.299c-25.773-0.962-41.647,20.562-45.974,39.24
		v0.519c0,0-6.694,48.021-49.1,48.941c-27.017,0.603-48.94-21.926-48.98-48.941c0-91.025,80.924-146.82,149.825-146.82
		c65.053,0,145.898,52.668,147.702,135.84C659.363,431.867,651.868,456.798,609.217,496.119z"/>
</g>
</svg>
