<?xml version="1.0" encoding="utf-8"?>
<!-- Generator: Adobe Illustrator 17.0.0, SVG Export Plug-In . SVG Version: 6.00 Build 0)  -->
<!DOCTYPE svg PUBLIC "-//W3C//DTD SVG 1.1//EN" "http://www.w3.org/Graphics/SVG/1.1/DTD/svg11.dtd">
<svg version="1.1" xmlns="http://www.w3.org/2000/svg" xmlns:xlink="http://www.w3.org/1999/xlink" x="0px" y="0px" width="1024px"
	 height="1024px" viewBox="0 0 1024 1024" style="enable-background:new 0 0 1024 1024;" xml:space="preserve">
<g id="图层_1">
</g>
<g id="图层_2" style="display:none;">
	<g style="display:inline;">
		<path d="M930.802,481.924H539.319V93.237c0-16.776-11.181-27.964-27.964-27.964c-16.775,0-27.962,11.187-27.962,27.964v388.686
			l-391.485-2.797c-16.775,0-27.962,11.187-27.962,27.964c0,16.781,11.187,27.962,27.962,27.962l391.485,2.797v391.485
			c0,16.781,11.187,27.962,27.962,27.962c16.783,0,27.964-11.181,27.964-27.962V537.849h391.483
			c16.783,0,27.964-11.181,27.964-27.962C958.766,495.908,944.788,481.924,930.802,481.924L930.802,481.924z M930.802,481.924"/>
	</g>
</g>
<g id="图层_3" style="display:none;">
	<g style="display:inline;">
		<g>
			<defs>
				<rect id="SVGID_1_" x="64.012" y="87.531" width="896.009" height="848.916"/>
			</defs>
			<clipPath id="SVGID_2_">
				<use xlink:href="#SVGID_1_"  style="overflow:visible;"/>
			</clipPath>
			<path style="clip-path:url(#SVGID_2_);" d="M874.418,421.714H682.42c15.626-42.421,35.724-122.789,24.559-209.86
				c-4.467-58.042-40.184-102.693-89.3-118.323c-35.723-11.161-73.673-6.695-93.766,13.398
				c-24.557,24.557-35.722,73.673-49.116,127.25c-8.932,37.956-17.858,75.906-31.256,95.999
				c-35.718,62.514-129.484,87.071-140.649,91.537h-60.275c-13.398,0-22.33,8.928-22.33,22.326v468.827
				c0,13.394,8.932,22.326,22.33,22.326h71.44c2.229,0,6.695,0,8.928-2.233h413.017c212.089,0,223.254-417.479,223.254-421.945
				C957.023,461.898,912.373,421.714,874.418,421.714L874.418,421.714z M153.312,419.481H86.337
				c-13.393,0-22.324,8.928-22.324,22.326v468.827c0,13.398,8.932,22.326,22.324,22.326h66.976c13.398,0,22.324-8.928,22.324-22.326
				V441.806C175.637,430.642,164.477,419.481,153.312,419.481L153.312,419.481z M153.312,419.481"/>
		</g>
	</g>
</g>
<g id="图层_4">
	<g>
		<g>
			<defs>
				<rect id="SVGID_3_" x="64" y="82.995" width="896.029" height="856.549"/>
			</defs>
			<clipPath id="SVGID_4_">
				<use xlink:href="#SVGID_3_"  style="overflow:visible;"/>
			</clipPath>
			<path style="clip-path:url(#SVGID_4_);" d="M877.032,419.469H683.881c15.725-42.677,35.938-123.528,24.705-211.124
				c-4.493-58.392-40.424-103.31-89.836-119.035c-35.938-11.227-74.116-6.734-94.33,13.478
				c-24.705,24.706-35.937,74.116-49.411,128.015c-8.986,38.185-17.966,76.364-31.444,96.576
				c-38.179,62.89-123.528,89.842-130.263,92.089h-71.87c-13.478,0-22.459,8.98-22.459,22.459v473.894
				c0,6.739,2.241,11.227,6.734,15.719c4.493,4.493,8.986,6.739,15.725,6.739l80.852-2.246c60.643,0,332.4-2.246,413.255-2.246
				c213.365,0,224.597-419.99,224.597-424.483C960.135,459.894,915.217,419.469,877.032,419.469L877.032,419.469z M735.538,888.87
				c-89.837,0-424.483,2.246-424.483,2.246h-47.164V464.388h62.884c4.493-2.246,110.055-31.445,157.218-112.301
				c15.721-26.953,24.706-65.132,35.933-107.803c11.232-42.672,22.46-92.083,38.179-110.055c4.493-4.488,24.705-8.98,47.17-2.241
				c15.719,4.487,53.899,24.7,60.638,83.097c13.473,112.296-33.692,215.611-33.692,217.857c-2.246,6.739-2.246,15.719,2.246,22.459
				c4.493,6.74,11.232,11.233,17.971,11.233h224.591c13.48,0,38.185,17.966,38.185,44.917
				C915.217,585.669,883.773,888.87,735.538,888.87L735.538,888.87z M153.837,464.388c13.478,0,22.459-8.987,22.459-22.46
				c0-13.478-8.98-22.459-22.459-22.459H86.459c-13.473,0-22.459,8.98-22.459,22.459v471.648c0,13.473,8.986,22.459,22.459,22.459
				h67.379c13.478,0,22.459-8.986,22.459-22.459c0-13.474-8.98-22.46-22.459-22.46h-44.919V464.388H153.837z M153.837,464.388"/>
		</g>
	</g>
</g>
</svg>
