<?xml version="1.0" encoding="utf-8"?>
<!-- Generator: Adobe Illustrator 17.0.0, SVG Export Plug-In . SVG Version: 6.00 Build 0)  -->
<!DOCTYPE svg PUBLIC "-//W3C//DTD SVG 1.1//EN" "http://www.w3.org/Graphics/SVG/1.1/DTD/svg11.dtd">
<svg version="1.1" xmlns="http://www.w3.org/2000/svg" xmlns:xlink="http://www.w3.org/1999/xlink" x="0px" y="0px" width="1024px"
	 height="1024px" viewBox="0 0 1024 1024" style="enable-background:new 0 0 1024 1024;" xml:space="preserve">
<g id="图层_1">
</g>
<g id="图层_2" style="display:none;">
	<g style="display:inline;">
		<path d="M930.802,481.924H539.319V93.237c0-16.776-11.181-27.964-27.964-27.964c-16.775,0-27.962,11.187-27.962,27.964v388.686
			l-391.485-2.797c-16.775,0-27.962,11.187-27.962,27.964c0,16.781,11.187,27.962,27.962,27.962l391.485,2.797v391.485
			c0,16.781,11.187,27.962,27.962,27.962c16.783,0,27.964-11.181,27.964-27.962V537.849h391.483
			c16.783,0,27.964-11.181,27.964-27.962C958.766,495.908,944.788,481.924,930.802,481.924L930.802,481.924z M930.802,481.924"/>
	</g>
</g>
<g id="图层_3" style="display:none;">
	<g style="display:inline;">
		<g>
			<defs>
				<rect id="SVGID_1_" x="64.012" y="87.531" width="896.009" height="848.916"/>
			</defs>
			<clipPath id="SVGID_2_">
				<use xlink:href="#SVGID_1_"  style="overflow:visible;"/>
			</clipPath>
			<path style="clip-path:url(#SVGID_2_);" d="M874.418,421.714H682.42c15.626-42.421,35.724-122.789,24.559-209.86
				c-4.467-58.042-40.184-102.693-89.3-118.323c-35.723-11.161-73.673-6.695-93.766,13.398
				c-24.557,24.557-35.722,73.673-49.116,127.25c-8.932,37.956-17.858,75.906-31.256,95.999
				c-35.718,62.514-129.484,87.071-140.649,91.537h-60.275c-13.398,0-22.33,8.928-22.33,22.326v468.827
				c0,13.394,8.932,22.326,22.33,22.326h71.44c2.229,0,6.695,0,8.928-2.233h413.017c212.089,0,223.254-417.479,223.254-421.945
				C957.023,461.898,912.373,421.714,874.418,421.714L874.418,421.714z M153.312,419.481H86.337
				c-13.393,0-22.324,8.928-22.324,22.326v468.827c0,13.398,8.932,22.326,22.324,22.326h66.976c13.398,0,22.324-8.928,22.324-22.326
				V441.806C175.637,430.642,164.477,419.481,153.312,419.481L153.312,419.481z M153.312,419.481"/>
		</g>
	</g>
</g>
<g id="图层_4" style="display:none;">
	<g style="display:inline;">
		<g>
			<defs>
				<rect id="SVGID_3_" x="64" y="82.995" width="896.029" height="856.549"/>
			</defs>
			<clipPath id="SVGID_4_">
				<use xlink:href="#SVGID_3_"  style="overflow:visible;"/>
			</clipPath>
			<path style="clip-path:url(#SVGID_4_);" d="M877.032,419.469H683.881c15.725-42.677,35.938-123.528,24.705-211.124
				c-4.493-58.392-40.424-103.31-89.836-119.035c-35.938-11.227-74.116-6.734-94.33,13.478
				c-24.705,24.706-35.937,74.116-49.411,128.015c-8.986,38.185-17.966,76.364-31.444,96.576
				c-38.179,62.89-123.528,89.842-130.263,92.089h-71.87c-13.478,0-22.459,8.98-22.459,22.459v473.894
				c0,6.739,2.241,11.227,6.734,15.719c4.493,4.493,8.986,6.739,15.725,6.739l80.852-2.246c60.643,0,332.4-2.246,413.255-2.246
				c213.365,0,224.597-419.99,224.597-424.483C960.135,459.894,915.217,419.469,877.032,419.469L877.032,419.469z M735.538,888.87
				c-89.837,0-424.483,2.246-424.483,2.246h-47.164V464.388h62.884c4.493-2.246,110.055-31.445,157.218-112.301
				c15.721-26.953,24.706-65.132,35.933-107.803c11.232-42.672,22.46-92.083,38.179-110.055c4.493-4.488,24.705-8.98,47.17-2.241
				c15.719,4.487,53.899,24.7,60.638,83.097c13.473,112.296-33.692,215.611-33.692,217.857c-2.246,6.739-2.246,15.719,2.246,22.459
				c4.493,6.74,11.232,11.233,17.971,11.233h224.591c13.48,0,38.185,17.966,38.185,44.917
				C915.217,585.669,883.773,888.87,735.538,888.87L735.538,888.87z M153.837,464.388c13.478,0,22.459-8.987,22.459-22.46
				c0-13.478-8.98-22.459-22.459-22.459H86.459c-13.473,0-22.459,8.98-22.459,22.459v471.648c0,13.473,8.986,22.459,22.459,22.459
				h67.379c13.478,0,22.459-8.986,22.459-22.459c0-13.474-8.98-22.46-22.459-22.46h-44.919V464.388H153.837z M153.837,464.388"/>
		</g>
	</g>
</g>
<g id="图层_5" style="display:none;">
	<g style="display:inline;">
		<g>
			<defs>
				<rect id="SVGID_5_" x="66" y="63.837" width="890.281" height="895.646"/>
			</defs>
			<clipPath id="SVGID_6_">
				<use xlink:href="#SVGID_5_"  style="overflow:visible;"/>
			</clipPath>
			<path style="clip-path:url(#SVGID_6_);" d="M555.684,509.35L946.79,118.237c12.722-12.714,12.722-31.796,0-44.51
				c-12.714-12.721-31.796-12.721-44.518,0L511.166,464.832L120.053,73.727c-12.714-12.721-31.798-12.721-44.512,0
				c-12.722,12.714-12.722,31.796,0,44.51L466.647,509.35L75.541,900.456c-12.722,12.721-12.722,31.806,0,44.52
				c6.361,6.361,15.894,9.541,22.255,9.541c6.361,0,15.904-3.18,22.257-9.541L511.166,557.05l387.931,391.106
				c6.355,6.361,15.896,9.541,22.257,9.541c9.541,0,15.894-3.18,22.255-9.541c12.721-12.721,12.721-31.798,0-44.52L555.684,509.35z
				 M555.684,509.35"/>
		</g>
	</g>
</g>
<g id="图层_6">
	<g>
		<g>
			<defs>
				<rect id="SVGID_7_" x="113.688" y="63.789" width="794.646" height="895.45"/>
			</defs>
			<clipPath id="SVGID_8_">
				<use xlink:href="#SVGID_7_"  style="overflow:visible;"/>
			</clipPath>
			<path style="clip-path:url(#SVGID_8_);" d="M576.711,130.887H444.376c-18.265,0-33.087-14.822-33.087-33.081
				c0-18.265,14.822-33.087,33.087-33.087h132.335c18.301,0,33.087,14.822,33.087,33.087
				C609.798,116.065,595.013,130.887,576.711,130.887L576.711,130.887z M576.711,130.887"/>
			<path style="clip-path:url(#SVGID_8_);" d="M827.924,323.474l36.858-36.858c12.934-12.934,12.934-33.843,0-46.782
				c-12.939-12.934-33.849-12.934-46.782,0l-34.011,34.01c-71.297-67.889-167.477-109.87-273.445-109.87
				c-218.918,0-397.011,178.092-397.011,397.011s178.094,397.011,397.011,397.011c218.919,0,397.011-178.092,397.011-397.011
				C907.555,471.889,877.68,389.808,827.924,323.474L827.924,323.474z M477.463,230.141c0-18.265,14.821-33.087,33.081-33.087
				c18.265,0,33.087,14.822,33.087,33.087v33.087c0,18.259-14.822,33.081-33.087,33.081c-18.26,0-33.081-14.822-33.081-33.081
				V230.141z M212.787,594.072H179.7c-18.26,0-33.08-14.792-33.08-33.087c0-18.295,14.821-33.087,33.08-33.087h33.087
				c18.26,0,33.081,14.792,33.081,33.087C245.868,579.28,231.047,594.072,212.787,594.072L212.787,594.072z M543.631,891.829
				c0,18.295-14.822,33.087-33.087,33.087c-18.26,0-33.081-14.792-33.081-33.087v-33.087c0-18.295,14.821-33.081,33.081-33.081
				c18.265,0,33.087,14.786,33.087,33.081V891.829z M696.644,454.487L531.222,586.822c-6.118,4.897-13.398,7.25-20.678,7.25
				c-9.693,0-19.32-4.236-25.837-12.409c-11.414-14.292-9.097-35.1,5.159-46.515l165.422-132.341
				c14.327-11.444,35.106-9.097,46.52,5.166C713.222,422.263,710.905,443.073,696.644,454.487L696.644,454.487z M841.388,594.072
				h-33.081c-18.301,0-33.087-14.792-33.087-33.087c0-18.295,14.786-33.087,33.087-33.087h33.081
				c18.295,0,33.087,14.792,33.087,33.087C874.475,579.28,859.682,594.072,841.388,594.072L841.388,594.072z M841.388,594.072"/>
		</g>
	</g>
</g>
</svg>
