<?xml version="1.0" encoding="utf-8"?>
<!-- Generator: Adobe Illustrator 17.0.0, SVG Export Plug-In . SVG Version: 6.00 Build 0)  -->
<!DOCTYPE svg PUBLIC "-//W3C//DTD SVG 1.1//EN" "http://www.w3.org/Graphics/SVG/1.1/DTD/svg11.dtd">
<svg version="1.1" xmlns="http://www.w3.org/2000/svg" xmlns:xlink="http://www.w3.org/1999/xlink" x="0px" y="0px" width="1024px"
	 height="1024px" viewBox="0 0 1024 1024" style="enable-background:new 0 0 1024 1024;" xml:space="preserve">
<g id="图层_1">
</g>
<g id="图层_2" style="display:none;">
	<g style="display:inline;">
		<g>
			<defs>
				<rect id="SVGID_1_" x="63.929" y="63.423" width="896.35" height="895.044"/>
			</defs>
			<clipPath id="SVGID_2_">
				<use xlink:href="#SVGID_1_"  style="overflow:visible;"/>
			</clipPath>
			<path style="clip-path:url(#SVGID_2_);" d="M952.261,949.844c-9.686,9.68-24.21,9.68-33.896,0l-147.677-150.1
				c-75.051,67.785-174.315,108.94-283.255,108.94c-234.836,0-423.674-188.832-423.674-423.668S252.597,63.764,487.432,63.764
				S911.1,252.602,911.1,487.437c0,106.524-41.155,205.783-106.524,278.412l147.685,147.678
				C961.941,923.213,961.941,940.157,952.261,949.844L952.261,949.844z M487.432,112.183
				c-208.204,0-375.255,167.051-375.255,375.254s167.051,375.249,375.255,375.249s375.249-167.045,375.249-375.249
				S693.215,112.183,487.432,112.183L487.432,112.183z M487.432,112.183"/>
		</g>
	</g>
</g>
<g id="图层_3">
	<g>
		<g>
			<defs>
				<rect id="SVGID_3_" x="63.934" y="66.283" width="896.331" height="891.876"/>
			</defs>
			<clipPath id="SVGID_4_">
				<use xlink:href="#SVGID_3_"  style="overflow:visible;"/>
			</clipPath>
			<path style="clip-path:url(#SVGID_4_);" d="M953.579,917.974L756.546,720.94c60.667-69.497,97.621-160.131,97.621-259.373
				c0-217.943-177.181-395.239-395.124-395.239c-217.945,0-395.24,177.295-395.24,395.239c0,217.889,177.295,395.124,395.24,395.124
				c102.151,0,195.13-39.248,265.411-103.153l196.863,196.863c4.475,4.474,10.345,6.709,16.159,6.709
				c5.814,0,11.798-2.235,16.159-6.709C962.58,941.456,962.58,926.974,953.579,917.974 M459.043,810.904
				c-192.674,0-349.447-156.723-349.447-349.392c0-192.673,156.773-349.447,349.447-349.447
				c192.613,0,349.447,156.774,349.447,349.447C808.434,654.238,651.656,810.904,459.043,810.904"/>
		</g>
	</g>
</g>
</svg>
