<?xml version="1.0" encoding="utf-8"?>
<!-- Generator: Adobe Illustrator 17.0.0, SVG Export Plug-In . SVG Version: 6.00 Build 0)  -->
<!DOCTYPE svg PUBLIC "-//W3C//DTD SVG 1.1//EN" "http://www.w3.org/Graphics/SVG/1.1/DTD/svg11.dtd">
<svg version="1.1" xmlns="http://www.w3.org/2000/svg" xmlns:xlink="http://www.w3.org/1999/xlink" x="0px" y="0px" width="1024px"
	 height="1024px" viewBox="0 0 1024 1024" style="enable-background:new 0 0 1024 1024;" xml:space="preserve">
<g id="图层_1">
</g>
<g id="图层_2">
	<g>
		<g>
			<defs>
				<rect id="SVGID_1_" x="63.929" y="63.423" width="896.35" height="895.044"/>
			</defs>
			<clipPath id="SVGID_2_">
				<use xlink:href="#SVGID_1_"  style="overflow:visible;"/>
			</clipPath>
			<path style="clip-path:url(#SVGID_2_);" d="M952.261,949.844c-9.686,9.68-24.21,9.68-33.896,0l-147.677-150.1
				c-75.051,67.785-174.315,108.94-283.255,108.94c-234.836,0-423.674-188.832-423.674-423.668S252.597,63.764,487.432,63.764
				S911.1,252.602,911.1,487.437c0,106.524-41.155,205.783-106.524,278.412l147.685,147.678
				C961.941,923.213,961.941,940.157,952.261,949.844L952.261,949.844z M487.432,112.183
				c-208.204,0-375.255,167.051-375.255,375.254s167.051,375.249,375.255,375.249s375.249-167.045,375.249-375.249
				S693.215,112.183,487.432,112.183L487.432,112.183z M487.432,112.183"/>
		</g>
	</g>
</g>
</svg>
