<?xml version="1.0" encoding="utf-8"?>
<!-- Generator: Adobe Illustrator 22.1.0, SVG Export Plug-In . SVG Version: 6.00 Build 0)  -->
<svg version="1.1" xmlns="http://www.w3.org/2000/svg" xmlns:xlink="http://www.w3.org/1999/xlink" x="0px" y="0px"
	 viewBox="0 0 1024 1024" style="enable-background:new 0 0 1024 1024;" xml:space="preserve">
<style type="text/css">
	.st0{clip-path:url(#SVGID_2_);}
</style>
<g id="图层_1">
</g>
<g id="图层_2">
	<g>
		<g>
			<defs>
				<rect id="SVGID_1_" x="69.4" y="64.3" width="884" height="895"/>
			</defs>
			<clipPath id="SVGID_2_">
				<use xlink:href="#SVGID_1_"  style="overflow:visible;"/>
			</clipPath>
			<path class="st0" d="M262.7,893.6c0,35.6,28.9,64.5,64.5,64.5s64.5-28.9,64.5-64.5c0-35.6-28.9-64.5-64.5-64.5
				S262.7,858,262.7,893.6L262.7,893.6z M714.3,893.6c0,35.6,28.9,64.5,64.5,64.5c35.6,0,64.5-28.9,64.5-64.5
				c0-35.6-28.9-64.5-64.5-64.5C743.1,829.1,714.3,858,714.3,893.6L714.3,893.6z M895.5,752.3h-516c-27.6,0-55.3-24.6-61.4-52.2
				l-92.1-543.7c-9.2-52.2-58.4-92.1-110.6-92.1H93.8c-12.3,0-24.6,12.3-24.6,24.6c0,12.3,12.3,24.6,24.6,24.6h21.5
				c27.6,0,55.3,24.6,61.4,52.2l92.1,543.7c9.2,52.2,58.4,92.1,110.6,92.1h516c12.3,0,24.6-12.3,24.6-24.6
				C920,764.6,910.8,752.3,895.5,752.3L895.5,752.3z M895.5,752.3"/>
			<path class="st0" d="M870.9,190.2H321.1c-12.3,0-24.6,12.3-24.6,24.6c0,12.3,12.3,24.6,24.6,24.6h549.8
				c24.6,0,36.9,15.4,30.7,39.9L834,549.6c-6.1,30.7-39.9,55.3-70.6,58.4l-380.9,27.6c-12.3,0-24.6,12.3-21.5,27.6
				c0,12.3,12.3,24.6,27.6,21.5l380.9-27.6c52.2-3.1,101.4-46.1,113.6-95.2l67.6-270.3C963.1,239.4,926.2,190.2,870.9,190.2
				L870.9,190.2z M870.9,190.2"/>
		</g>
	</g>
</g>
</svg>
