<?xml version="1.0" encoding="utf-8"?>
<!-- Generator: Adobe Illustrator 22.1.0, SVG Export Plug-In . SVG Version: 6.00 Build 0)  -->
<svg version="1.1" xmlns="http://www.w3.org/2000/svg" xmlns:xlink="http://www.w3.org/1999/xlink" x="0px" y="0px"
	 viewBox="0 0 1024 1024" style="enable-background:new 0 0 1024 1024;" xml:space="preserve">
<style type="text/css">
	.st0{clip-path:url(#SVGID_2_);}
</style>
<g id="图层_1">
</g>
<g id="图层_2">
	<g>
		<g>
			<defs>
				<rect id="SVGID_1_" x="64.7" y="64.4" width="894.6" height="895.6"/>
			</defs>
			<clipPath id="SVGID_2_">
				<use xlink:href="#SVGID_1_"  style="overflow:visible;"/>
			</clipPath>
			<path class="st0" d="M909.2,64.9H113.9c-27.2,0-49.3,22.1-49.3,49.3v795.3c0,27.3,22.1,49.3,49.3,49.3H542V612.7H425.5V477.8H542
				v-99.6C542,262.8,612.6,200,715.6,200c49.3,0,91.8,3.6,104.1,5.3v120.7h-71.5c-55.9,0-66.7,26.9-66.7,66v86.1h133.5l-17.3,135.2
				H681.4v345.7h227.8c27.3,0,49.3-22,49.3-49.3V114.3C958.5,87,936.5,64.9,909.2,64.9"/>
		</g>
	</g>
</g>
</svg>
