<?xml version="1.0" encoding="utf-8"?>
<!-- Generator: Adobe Illustrator 17.0.0, SVG Export Plug-In . SVG Version: 6.00 Build 0)  -->
<!DOCTYPE svg PUBLIC "-//W3C//DTD SVG 1.1//EN" "http://www.w3.org/Graphics/SVG/1.1/DTD/svg11.dtd">
<svg version="1.1" xmlns="http://www.w3.org/2000/svg" xmlns:xlink="http://www.w3.org/1999/xlink" x="0px" y="0px" width="1024px"
	 height="1024px" viewBox="0 0 1024 1024" style="enable-background:new 0 0 1024 1024;" xml:space="preserve">
<g id="图层_1">
</g>
<g id="图层_2">
	<g>
		<g>
			<defs>
				<rect id="SVGID_1_" x="64" y="85.06" width="895.964" height="854.346"/>
			</defs>
			<clipPath id="SVGID_2_">
				<use xlink:href="#SVGID_1_"  style="overflow:visible;"/>
			</clipPath>
			<path style="clip-path:url(#SVGID_2_);" d="M511.481,85.727C264.344,85.727,64,248.451,64,449.174
				c0,190.92,181.246,347.461,411.612,362.298c0.011,0,7.917,18.881,2.124,55.79c-3.023,19.286-20.116,37.267-18.354,50.669
				c1.68,12.756,18.82,23.394,27.708,19.221c199.096-93.457,356.592-244.319,363.37-250.703
				c67.615-63.668,108.506-146.597,108.506-237.274C958.967,248.451,758.624,85.727,511.481,85.727L511.481,85.727z
				 M359.167,543.395c-3.463,3.045-8.514,4.574-15.157,4.574h-97.917c-8.827,0-15.18-1.956-19.049-5.87
				c-3.869-3.912-5.803-10.237-5.803-18.977V369.004c0-8.193,1.842-14.333,5.532-18.43c3.685-4.097,8.535-6.14,14.544-6.14
				c6.097,0,11.034,2.021,14.816,6.069c3.778,4.054,5.663,10.22,5.663,18.501v145.659h82.213c6.551,0,11.581,1.589,15.087,4.774
				c3.506,3.187,5.256,7.192,5.256,12.015C364.358,536.367,362.624,540.345,359.167,543.395L359.167,543.395z M417.086,526.672
				c0,8.286-1.892,14.469-5.668,18.566c-3.778,4.097-8.715,6.146-14.816,6.146c-5.825,0-10.627-2.07-14.41-6.211
				c-3.776-4.145-5.663-10.306-5.663-18.501V369.004c0-8.193,1.865-14.333,5.598-18.43c3.735-4.097,8.557-6.14,14.475-6.14
				c6.101,0,11.039,2.021,14.816,6.069c3.776,4.054,5.668,10.22,5.668,18.501V526.672z M622.88,525.036
				c0,17.563-7.283,26.342-21.85,26.342c-3.642,0-6.92-0.52-9.83-1.566c-2.915-1.046-5.646-2.709-8.193-4.986
				c-2.553-2.275-4.915-4.936-7.099-7.982c-2.189-3.051-4.373-6.167-6.558-9.353l-76.062-116.581v117.263
				c0,7.647-1.777,13.423-5.327,17.341c-3.549,3.914-8.1,5.87-13.655,5.87c-5.734,0-10.335-1.978-13.792-5.939
				c-3.463-3.962-5.191-9.717-5.191-17.272V373.777c0-6.551,0.731-11.693,2.184-15.422c1.729-4.097,4.602-7.44,8.605-10.036
				c4.005-2.59,8.329-3.891,12.974-3.891c3.642,0,6.757,0.591,9.353,1.777c2.596,1.182,4.872,2.775,6.828,4.775
				c1.956,2.005,3.962,4.6,6.01,7.781c2.049,3.187,4.167,6.509,6.351,9.966l77.975,117.946V367.639
				c0-7.74,1.659-13.543,4.986-17.406c3.323-3.869,7.803-5.804,13.45-5.804c5.827,0,10.421,1.935,13.792,5.804
				c3.37,3.869,5.05,9.667,5.05,17.406V525.036z M810.587,543.531c-3.23,2.958-8.031,4.438-14.404,4.438H685.976
				c-8.833,0-15.184-1.956-19.049-5.87c-3.869-3.912-5.803-10.237-5.803-18.977V372.688c0-5.825,0.862-10.584,2.59-14.268
				c1.729-3.685,4.438-6.368,8.128-8.053c3.686-1.684,8.394-2.525,14.134-2.525h107.065c6.465,0,11.266,1.43,14.403,4.298
				c3.144,2.866,4.71,6.621,4.71,11.266c0,4.731-1.566,8.529-4.71,11.397c-3.137,2.866-7.944,4.302-14.403,4.302H701.68v49.146
				H785.8c6.194,0,10.811,1.387,13.862,4.162c3.05,2.775,4.574,6.438,4.574,10.99c0,4.552-1.501,8.259-4.503,11.125
				c-3.008,2.867-7.652,4.303-13.933,4.303H701.68v56.922h94.503c6.373,0,11.175,1.48,14.41,4.438
				c3.23,2.959,4.844,6.893,4.844,11.809C815.437,536.729,813.822,540.578,810.587,543.531L810.587,543.531z M810.587,543.531"/>
		</g>
	</g>
</g>
</svg>
