<?xml version="1.0" encoding="utf-8"?>
<!-- Generator: Adobe Illustrator 17.0.0, SVG Export Plug-In . SVG Version: 6.00 Build 0)  -->
<!DOCTYPE svg PUBLIC "-//W3C//DTD SVG 1.1//EN" "http://www.w3.org/Graphics/SVG/1.1/DTD/svg11.dtd">
<svg version="1.1" xmlns="http://www.w3.org/2000/svg" xmlns:xlink="http://www.w3.org/1999/xlink" x="0px" y="0px" width="1024px"
	 height="1024px" viewBox="0 0 1024 1024" style="enable-background:new 0 0 1024 1024;" xml:space="preserve">
<g id="图层_1">
</g>
<g id="图层_2" style="display:none;">
	<g style="display:inline;">
		<g>
			<defs>
				<rect id="SVGID_1_" x="149.169" y="63.105" width="724.618" height="896.677"/>
			</defs>
			<clipPath id="SVGID_2_">
				<use xlink:href="#SVGID_1_"  style="overflow:visible;"/>
			</clipPath>
			<path style="clip-path:url(#SVGID_2_);" d="M847.76,749.293c-14.473-5.26-30.262-1.316-40.787,10.524
				c-84.198,107.882-231.548,153.929-367.056,105.252c-169.717-60.52-257.86-248.651-197.345-418.368
				c60.521-169.716,248.656-257.86,418.368-197.344c5.265,2.635,11.839,3.949,17.104,6.579
				c-6.581,18.419-13.155,36.837-18.419,52.626c-7.895,22.363-14.474,39.467-15.789,44.731c-3.946,5.26-3.946,13.154-1.316,19.734
				c5.265,10.524,17.104,14.473,27.628,10.524h1.314l19.734-9.209l134.194-63.15l34.207-17.104c5.26-2.63,9.209-6.574,10.524-11.839
				c1.316-5.264,1.316-10.524-1.314-15.789l-7.895-15.784l-7.894-19.738L789.87,96.749l-9.209-19.734v-1.32
				c-5.26-10.525-17.104-14.469-27.628-9.209c-6.574,2.635-10.525,9.209-11.839,15.789c-2.63,5.265-7.895,22.368-15.789,44.731
				c-6.579,17.104-13.154,36.837-21.049,57.886c-5.265-2.63-11.839-5.26-17.104-6.574
				c-210.498-74.994-439.415,34.202-514.404,243.386C97.857,630.887,207.05,861.12,414.919,934.794
				C579.371,994,756.982,938.744,860.914,811.129c3.946-3.946,7.895-9.209,9.209-14.474
				C878.018,778.236,867.494,755.873,847.76,749.293L847.76,749.293z M847.76,749.293"/>
		</g>
	</g>
</g>
<g id="图层_3">
	<g>
		<g>
			<defs>
				<rect id="SVGID_3_" x="149.337" y="63.107" width="724.509" height="896.542"/>
			</defs>
			<clipPath id="SVGID_4_">
				<use xlink:href="#SVGID_3_"  style="overflow:visible;"/>
			</clipPath>
			<path style="clip-path:url(#SVGID_4_);" d="M174.337,749.192c14.467-5.259,30.253-1.315,40.775,10.522
				C299.298,867.58,446.63,913.619,582.113,864.95c169.692-60.511,257.826-248.613,197.316-418.305
				c-60.511-169.691-248.613-257.821-418.305-197.314c-5.259,2.635-11.838,3.949-17.1,6.578
				c6.578,18.416,13.157,36.832,18.416,52.618c7.892,22.36,14.471,39.461,15.786,44.724c3.944,5.259,3.944,13.152,1.314,19.731
				c-5.259,10.522-17.1,14.471-27.624,10.522h-1.314l-19.731-9.208l-134.174-63.14l-34.202-17.102
				c-5.259-2.63-9.208-6.573-10.522-11.838c-1.315-5.263-1.315-10.522,1.314-15.786l7.894-15.781l9.208-18.416l63.14-134.174
				l7.894-21.045v-1.319c5.263-10.523,17.1-14.467,27.624-9.208c6.578,2.635,10.522,9.208,11.836,15.786
				c2.635,5.264,7.894,22.365,15.786,44.724c6.578,17.102,13.158,36.832,21.045,57.877c5.264-2.63,11.843-5.259,17.102-6.573
				c210.467-74.983,439.349,34.197,514.332,243.349c74.979,209.153-34.202,439.35-242.04,513.014
				c-164.428,59.196-342.007,3.949-445.928-123.647c-3.945-3.945-7.894-9.208-9.208-14.472
				C144.078,778.13,154.607,755.77,174.337,749.192L174.337,749.192z M174.337,749.192"/>
		</g>
	</g>
</g>
</svg>
