<?xml version="1.0" encoding="utf-8"?>
<!-- Generator: Adobe Illustrator 17.0.0, SVG Export Plug-In . SVG Version: 6.00 Build 0)  -->
<!DOCTYPE svg PUBLIC "-//W3C//DTD SVG 1.1//EN" "http://www.w3.org/Graphics/SVG/1.1/DTD/svg11.dtd">
<svg version="1.1" xmlns="http://www.w3.org/2000/svg" xmlns:xlink="http://www.w3.org/1999/xlink" x="0px" y="0px" width="1024px"
	 height="1024px" viewBox="0 0 1024 1024" style="enable-background:new 0 0 1024 1024;" xml:space="preserve">
<g id="图层_1">
</g>
<g id="图层_2">
	<g>
		<g>
			<defs>
				<rect id="SVGID_1_" x="149.169" y="63.105" width="724.618" height="896.677"/>
			</defs>
			<clipPath id="SVGID_2_">
				<use xlink:href="#SVGID_1_"  style="overflow:visible;"/>
			</clipPath>
			<path style="clip-path:url(#SVGID_2_);" d="M847.76,749.293c-14.473-5.26-30.262-1.316-40.787,10.524
				c-84.198,107.882-231.548,153.929-367.056,105.252c-169.717-60.52-257.86-248.651-197.345-418.368
				c60.521-169.716,248.656-257.86,418.368-197.344c5.265,2.635,11.839,3.949,17.104,6.579
				c-6.581,18.419-13.155,36.837-18.419,52.626c-7.895,22.363-14.474,39.467-15.789,44.731c-3.946,5.26-3.946,13.154-1.316,19.734
				c5.265,10.524,17.104,14.473,27.628,10.524h1.314l19.734-9.209l134.194-63.15l34.207-17.104c5.26-2.63,9.209-6.574,10.524-11.839
				c1.316-5.264,1.316-10.524-1.314-15.789l-7.895-15.784l-7.894-19.738L789.87,96.749l-9.209-19.734v-1.32
				c-5.26-10.525-17.104-14.469-27.628-9.209c-6.574,2.635-10.525,9.209-11.839,15.789c-2.63,5.265-7.895,22.368-15.789,44.731
				c-6.579,17.104-13.154,36.837-21.049,57.886c-5.265-2.63-11.839-5.26-17.104-6.574
				c-210.498-74.994-439.415,34.202-514.404,243.386C97.857,630.887,207.05,861.12,414.919,934.794
				C579.371,994,756.982,938.744,860.914,811.129c3.946-3.946,7.895-9.209,9.209-14.474
				C878.018,778.236,867.494,755.873,847.76,749.293L847.76,749.293z M847.76,749.293"/>
		</g>
	</g>
</g>
<g id="图层_3" style="display:none;">
	<g style="display:inline;">
		<g>
			<defs>
				<rect id="SVGID_3_" x="63.004" y="62.441" width="724.933" height="897.066"/>
			</defs>
			<clipPath id="SVGID_4_">
				<use xlink:href="#SVGID_3_"  style="overflow:visible;"/>
			</clipPath>
			<path style="clip-path:url(#SVGID_4_);" d="M88.018,748.926c14.476-5.262,30.271-1.316,40.799,10.528
				c84.235,107.929,231.653,153.995,367.216,105.298c169.791-60.546,257.977-248.759,197.431-418.55
				c-60.546-169.79-248.759-257.972-418.55-197.43c-5.262,2.636-11.844,3.951-17.111,6.582
				c6.582,18.427,13.164,36.853,18.427,52.649c7.897,22.373,14.479,39.484,15.796,44.75c3.946,5.262,3.946,13.159,1.315,19.743
				c-5.262,10.528-17.11,14.479-27.64,10.528h-1.315l-19.743-9.213l-134.253-63.177l-34.222-17.112
				c-5.262-2.631-9.213-6.577-10.528-11.844c-1.316-5.266-1.316-10.528,1.315-15.796l7.898-15.79l9.213-18.427l63.177-134.253
				l7.898-21.058v-1.32c5.266-10.53,17.11-14.475,27.64-9.213c6.582,2.636,10.528,9.213,11.843,15.795
				c2.636,5.267,7.898,22.378,15.796,44.751c6.582,17.112,13.166,36.853,21.058,57.911c5.267-2.631,11.85-5.262,17.112-6.577
				c210.59-75.027,439.606,34.217,514.633,243.491c75.023,209.276-34.222,439.608-242.182,513.314
				c-164.524,59.231-342.207,3.951-446.188-123.719c-3.947-3.947-7.898-9.213-9.213-14.481
				C57.742,777.881,68.276,755.509,88.018,748.926L88.018,748.926z M88.018,748.926"/>
		</g>
	</g>
</g>
</svg>
