<?xml version="1.0" encoding="utf-8"?>
<!-- Generator: Adobe Illustrator 17.0.0, SVG Export Plug-In . SVG Version: 6.00 Build 0)  -->
<!DOCTYPE svg PUBLIC "-//W3C//DTD SVG 1.1//EN" "http://www.w3.org/Graphics/SVG/1.1/DTD/svg11.dtd">
<svg version="1.1" xmlns="http://www.w3.org/2000/svg" xmlns:xlink="http://www.w3.org/1999/xlink" x="0px" y="0px" width="1024px"
	 height="1024px" viewBox="0 0 1024 1024" style="enable-background:new 0 0 1024 1024;" xml:space="preserve">
<g id="图层_1">
</g>
<g id="图层_2" style="display:none;">
	<g style="display:inline;">
		<g>
			<defs>
				<rect id="SVGID_1_" x="132.133" y="64.614" width="759.302" height="894.657"/>
			</defs>
			<clipPath id="SVGID_2_">
				<use xlink:href="#SVGID_1_"  style="overflow:visible;"/>
			</clipPath>
			<path style="clip-path:url(#SVGID_2_);" d="M855.845,193.623c-114.263-4.96-223.656-43.6-325.16-114.886l-19.24-13.495
				l-19.192,13.495C390.808,150.009,281.41,188.663,167.862,193.6h-35.866v302.153c0,221.331,152.682,410.867,371.313,460.897
				l9.54,1.526l6.854-1.526c218.582-50.031,371.237-239.566,371.237-460.897V193.6L855.845,193.623z M511.867,921.986l-0.2,0.049
				l-1.032-0.161c-202.041-46.522-343.098-221.651-343.098-426.108V229.128h1.085c120.744-5.235,236.092-45.767,342.844-120.459
				c106.792,74.693,222.141,115.224,343.609,120.472l0.307,266.612C855.397,700.41,714.082,875.686,511.867,921.986L511.867,921.986
				z M715.737,372.822c-5.942-5.844-15.58-5.76-21.416,0.173L465.727,610.271L329.066,465.162
				c-5.649-6.12-15.287-6.507-21.407-0.845l-3.864,3.567c-6.12,5.649-6.507,15.287-0.845,21.407l151.463,160.803
				c5.644,6.115,15.282,6.503,21.402,0.845L719.669,397.92c5.843-5.947,5.754-15.585-0.174-21.416L715.737,372.822z
				 M715.737,372.822"/>
		</g>
	</g>
</g>
<g id="图层_3" style="display:none;">
	<g style="display:inline;">
		<g>
			<defs>
				<rect id="SVGID_3_" x="131.512" y="64.281" width="760.214" height="895.732"/>
			</defs>
			<clipPath id="SVGID_4_">
				<use xlink:href="#SVGID_3_"  style="overflow:visible;"/>
			</clipPath>
			<path style="clip-path:url(#SVGID_4_);" d="M856.093,193.445c-114.4-4.966-223.925-43.652-325.551-115.024L511.279,64.91
				l-19.215,13.511c-101.567,71.358-211.096,110.058-324.78,115.001h-35.909v302.516c0,221.597,152.866,411.36,371.759,461.451
				l9.552,1.528l6.863-1.528c218.844-50.091,371.682-239.854,371.682-461.451V193.422L856.093,193.445z M719.753,397.982
				l-244.16,253.323c-6.127,5.655-15.763,5.281-21.428-0.846L302.52,489.464c-5.655-6.127-5.281-15.763,0.846-21.428l3.87-3.576
				c6.127-5.651,15.763-5.277,21.431,0.846l136.839,145.283l228.855-237.557c5.851-5.954,15.501-6.029,21.441-0.178l3.749,3.7
				C725.514,382.392,725.59,392.042,719.753,397.982L719.753,397.982z M719.753,397.982"/>
		</g>
	</g>
</g>
<g id="图层_4" style="display:none;">
	<g style="display:inline;">
		<g>
			<defs>
				<rect id="SVGID_5_" x="64.134" y="183.935" width="896.052" height="654.126"/>
			</defs>
			<clipPath id="SVGID_6_">
				<use xlink:href="#SVGID_5_"  style="overflow:visible;"/>
			</clipPath>
			<path style="clip-path:url(#SVGID_6_);" d="M563.44,502.769c53.08-21.039,90.774-72.78,90.774-133.255
				c0-79.068-64.334-143.39-143.403-143.39c-79.072,0-143.39,64.322-143.39,143.39c0,60.475,37.677,112.216,90.757,133.255
				c-118.018,24.4-207.02,129.138-207.02,254.284c0,30.43,21.351,40.512,38.5,48.608l0.984,0.407
				c69.167,24.413,169.196,30.921,217.4,30.921c52.568,0,155.472-8.533,223.81-32.137c25.616-9.823,38.613-25.91,38.613-47.798
				C770.465,631.894,681.459,527.156,563.44,502.769L563.44,502.769z M563.44,502.769"/>
			<path style="clip-path:url(#SVGID_6_);" d="M390.766,490.692c-33.97-31.673-55.333-76.683-55.333-126.792
				c0-61.363,31.943-115.169,80.017-146.019v-0.013c-0.297-0.42-0.73-0.661-1.068-1.015c-0.35-0.376-0.565-0.849-0.985-1.186
				c-25.449-20.44-57.105-31.598-89.745-31.647c-79.068,0-143.403,64.322-143.403,143.39c0,60.475,37.695,112.216,90.77,133.255
				C152.989,485.064,64,589.802,64,714.944c0,21.905,12.997,37.978,38.951,47.937c38.433,13.281,86.126,20.93,120.201,25.088
				c-1.413-11.513-2.135-23.105-2.156-34.709C220.995,636.361,290.698,535.807,390.766,490.692L390.766,490.692z M752.852,460.677
				c53.08-21.039,90.769-72.78,90.769-133.255c0-79.068-64.329-143.39-143.402-143.39c-33.104,0-65.425,11.565-90.971,32.552
				l-3.808,3.116c48.152,32.18,77.051,86.284,77.021,144.199c0,50.109-21.363,95.119-55.333,126.792
				c100.068,45.115,169.771,145.67,169.771,262.568c0,12.011-0.822,23.817-2.24,35.44l0.718-0.083
				c35.073-4.074,85.33-11.832,125.9-25.857c25.612-9.823,38.608-25.91,38.608-47.798
				C959.884,589.802,870.883,485.064,752.852,460.677L752.852,460.677z M752.852,460.677"/>
		</g>
	</g>
</g>
<g id="图层_5">
	<g>
		<g>
			<defs>
				<rect id="SVGID_7_" x="64.333" y="188.557" width="895.923" height="646.836"/>
			</defs>
			<clipPath id="SVGID_8_">
				<use xlink:href="#SVGID_7_"  style="overflow:visible;"/>
			</clipPath>
			<path style="clip-path:url(#SVGID_8_);" d="M564.754,503.551c49.018-22.767,83.167-72.331,83.167-129.845
				c0-78.963-64.235-143.199-143.195-143.199c-78.976,0-143.212,64.235-143.212,143.199c0,57.514,34.15,107.078,83.167,129.845
				c-112.847,27.152-197.036,128.66-197.036,249.71c0,31.554,22.695,42.283,39.272,50.117l1.244,0.515
				c68.097,24.029,166.456,30.446,213.849,30.446c51.682,0,152.882-8.391,220.215-31.648c32.721-12.544,39.589-33.806,39.589-49.418
				C761.801,632.211,677.601,530.703,564.754,503.551L564.754,503.551z M387.67,373.706c0-64.54,52.516-117.029,117.039-117.029
				c64.528,0,117.029,52.503,117.029,117.029c0,64.523-52.502,117.039-117.029,117.039
				C440.186,490.745,387.67,438.247,387.67,373.706L387.67,373.706z M713.255,778.092c-63.429,21.896-163.242,30.073-211.257,30.073
				c-45.565,0-139.772-6.057-204.51-28.722c-18.615-8.838-23.682-13.205-23.682-26.17c0-127.322,103.585-230.906,230.903-230.906
				c127.321,0,230.906,103.584,230.906,230.906C735.627,760.829,733.037,770.486,713.255,778.092L713.255,778.092z M713.255,778.092
				"/>
			<path style="clip-path:url(#SVGID_8_);" d="M239.156,771.361c-0.146-0.888-0.391-1.751-0.729-2.583
				c-0.146-0.369-0.133-0.768-0.317-1.137c-3.72-7.263-5.518-15.32-5.518-24.677c0-107.446,64.579-202.827,164.539-243.008
				c0.197-0.082,0.317-0.254,0.514-0.335c0.824-0.369,1.51-0.94,2.253-1.48c0.686-0.514,1.386-0.965,1.956-1.6
				c0.146-0.171,0.357-0.241,0.502-0.412c0.387-0.476,0.519-1.06,0.837-1.562c0.477-0.781,0.952-1.506,1.258-2.368
				c0.287-0.794,0.381-1.6,0.514-2.419c0.133-0.832,0.263-1.625,0.236-2.476c-0.025-0.914-0.261-1.771-0.489-2.66
				c-0.146-0.566-0.09-1.15-0.317-1.72c-0.078-0.211-0.249-0.331-0.356-0.528c-0.369-0.806-0.927-1.479-1.455-2.209
				c-0.518-0.686-0.965-1.39-1.587-1.957c-0.176-0.163-0.253-0.372-0.425-0.532c-4.488-3.736-8.755-7.726-12.779-11.961l-2.66-2.775
				l-2.184-0.519c-0.643-2.342-1.943-4.452-3.745-6.083c-1.402-1.205-2.698-2.845-4.033-4.315c-0.043-0.121,0-0.249-0.043-0.369
				c-0.995-2.845-2.955-5.243-5.542-6.787c-14.119-20.919-23.142-55.665-23.142-81.478c0-48.383,23.871-93.833,63.868-121.577
				c0.514-0.356,0.806-0.887,1.256-1.308c0.477-0.438,1.055-0.716,1.48-1.231c0.171-0.202,0.197-0.45,0.343-0.666
				c0.545-0.75,0.875-1.557,1.244-2.393c0.317-0.738,0.691-1.442,0.862-2.21c0.185-0.833,0.185-1.652,0.211-2.501
				c0.025-0.832,0.094-1.626-0.026-2.446c-0.12-0.794-0.437-1.51-0.703-2.278c-0.305-0.858-0.58-1.703-1.082-2.484
				c-0.133-0.214-0.146-0.463-0.291-0.678c-0.373-0.528-0.914-0.819-1.339-1.283c-0.425-0.463-0.7-1.047-1.202-1.454
				c-25.427-20.417-57.045-31.563-89.655-31.61c-78.976,0-143.212,64.237-143.212,143.2c0,57.513,34.15,107.077,83.172,129.849
				C148.522,489.475,64.333,590.983,64.333,712.046c0,15.612,6.882,36.873,40.01,49.577c38.739,13.376,86.939,20.969,120.573,24.977
				c1.918,0.21,3.86-0.022,5.676-0.674c0.343-0.12,0.66-0.223,0.991-0.369c0.279-0.12,0.571-0.171,0.837-0.304
				c0.407-0.214,0.648-0.583,1.029-0.819c1.451-0.871,2.686-2.055,3.612-3.466c0.965-1.352,1.635-2.887,1.974-4.514
				c0.103-0.45,0.344-0.819,0.395-1.295c0.055-0.425-0.103-0.824-0.103-1.244C239.365,773.056,239.309,772.201,239.156,771.361
				L239.156,771.361z M204.371,332.478c0-64.54,52.51-117.029,117.038-117.029c21.262,0,41.494,5.663,59.435,16.341
				c-38.361,32.986-60.468,81.031-60.572,131.62c0,26.081,7.607,58.986,20.837,84.374c-6.504,1.15-13.094,1.733-19.701,1.746
				C256.882,449.53,204.371,397.019,204.371,332.478L204.371,332.478z M90.503,712.046c0-127.322,103.585-230.906,230.906-230.906
				c14.698,0,29.413,1.681,43.978,4.5c-97.3,48.688-158.965,147.219-158.965,257.313c0,5.186,0.554,10.15,1.386,14.976
				c-29.714-4.222-65.347-10.85-94.507-20.906C93.098,729.27,90.503,719.601,90.503,712.046L90.503,712.046z M763.359,462.323
				c49.023-22.755,83.173-72.331,83.173-129.845c0-78.963-64.235-143.199-143.2-143.199c-33.102,0-65.36,11.548-90.855,32.523
				l-13.257,10.901l14.012,9.896c39.362,27.839,62.859,72.992,62.859,120.809c0,27.496-11.751,60.744-31.395,88.939l-7.903,11.352
				l-2.539,2.622c-3.87,4.02-7.967,7.816-12.279,11.364l-17.066,14.025l20.494,8.246c99.973,40.181,164.551,135.562,164.551,243.008
				c0,6.101-1.055,15.35-6.151,24.81l-11.867,22.094l24.9-2.895c34.492-4.012,83.936-11.657,123.988-25.496
				c32.721-12.544,39.573-33.807,39.573-49.418C960.382,590.983,876.194,489.475,763.359,462.323L763.359,462.323z M642.562,232.45
				c18.319-11.111,39.332-16.992,60.756-17.001c64.541,0,117.026,52.503,117.026,117.029c0,64.528-52.498,117.039-117.026,117.039
				c-3.478,0-7.173,0.107-10.939,0.198c-3.733,0.107-7.573,0.201-11.382,0.201h-0.012c-1.219,0-2.527,0-3.918-0.043
				c15.947-28.31,25.166-59.525,25.166-86.489C702.135,313.181,680.389,265.463,642.562,232.45L642.562,232.45z M911.853,736.865
				c-30.143,10.403-66.776,17.177-97.236,21.437c1.15-5.852,1.498-11.116,1.498-15.349
				c0.266-108.931-61.216-208.603-158.679-257.248c15.101-3.046,30.473-4.582,45.882-4.578
				c127.322,0,230.894,103.584,230.894,230.906C934.213,719.601,931.618,729.283,911.853,736.865L911.853,736.865z M911.853,736.865
				"/>
		</g>
	</g>
</g>
</svg>
