<?xml version="1.0" encoding="utf-8"?>
<!-- Generator: Adobe Illustrator 17.0.0, SVG Export Plug-In . SVG Version: 6.00 Build 0)  -->
<!DOCTYPE svg PUBLIC "-//W3C//DTD SVG 1.1//EN" "http://www.w3.org/Graphics/SVG/1.1/DTD/svg11.dtd">
<svg version="1.1" xmlns="http://www.w3.org/2000/svg" xmlns:xlink="http://www.w3.org/1999/xlink" x="0px" y="0px" width="1024px"
	 height="1024px" viewBox="0 0 1024 1024" style="enable-background:new 0 0 1024 1024;" xml:space="preserve">
<g id="图层_1">
</g>
<g id="图层_2" style="display:none;">
	<g style="display:inline;">
		<g>
			<defs>
				<rect id="SVGID_1_" x="63.871" y="401.871" width="896.484" height="220.421"/>
			</defs>
			<clipPath id="SVGID_2_">
				<use xlink:href="#SVGID_1_"  style="overflow:visible;"/>
			</clipPath>
			<path style="clip-path:url(#SVGID_2_);" d="M172.622,403.047c60.156,0,108.925,48.769,108.925,108.925
				c0,60.162-48.763,108.925-108.925,108.925c-60.156,0-108.925-48.763-108.925-108.925
				C63.697,451.816,112.466,403.047,172.622,403.047L172.622,403.047z M172.622,403.047"/>
		</g>
		<path d="M511.505,403.047c60.156,0,108.925,48.769,108.925,108.925c0,60.162-48.769,108.925-108.925,108.925
			c-60.162,0-108.927-48.763-108.927-108.925C402.578,451.816,451.343,403.047,511.505,403.047L511.505,403.047z M511.505,403.047"
			/>
		<path d="M511.505,403.047c60.156,0,108.925,48.769,108.925,108.925c0,60.162-48.769,108.925-108.925,108.925
			c-60.162,0-108.927-48.763-108.927-108.925C402.578,451.816,451.343,403.047,511.505,403.047L511.505,403.047z M511.505,403.047"
			/>
		<path d="M850.381,403.047c60.162,0,108.931,48.769,108.931,108.925c0,60.162-48.769,108.925-108.931,108.925
			c-60.156,0-108.925-48.763-108.925-108.925C741.456,451.816,790.225,403.047,850.381,403.047L850.381,403.047z M850.381,403.047"
			/>
	</g>
</g>
<g id="图层_3" style="display:none;">
	<g style="display:inline;">
		<g>
			<defs>
				<rect id="SVGID_3_" x="73.875" y="63.88" width="875.699" height="895.678"/>
			</defs>
			<clipPath id="SVGID_4_">
				<use xlink:href="#SVGID_3_"  style="overflow:visible;"/>
			</clipPath>
			<path style="clip-path:url(#SVGID_4_);" d="M88.862,906.147l37.158,37.157c20.17,20.171,53.009,20.171,73.179,0l504.078-504.077
				c20.17-20.17,20.17-53.009,0-73.179l-37.158-37.158c-20.17-20.17-53.009-20.17-73.179,0L88.862,832.968
				C68.692,853.138,68.692,885.977,88.862,906.147L88.862,906.147z M583.336,508.32l-59.43-59.429l94.55-94.55
				c6.123-6.123,16.148-6.123,22.332,0l37.157,37.163c6.064,6.059,6.064,16.268,0,22.331L583.336,508.32z M114.313,858.419
				l384.078-384.073l59.429,59.429L173.748,917.853c-6.064,6.059-16.268,6.059-22.272,0l-37.163-37.162
				C108.195,874.568,108.195,864.543,114.313,858.419L114.313,858.419z M114.313,858.419"/>
			<path style="clip-path:url(#SVGID_4_);" d="M539.871,205.588c0-8.587-5.642-16.148-13.863-18.673
				c-31.758-9.484-70.839-24.791-78.34-32.293c-7.566-7.566-22.753-46.587-32.358-78.34c-4.923-16.268-32.358-16.511-37.281,0
				c-9.544,31.753-24.851,70.774-32.412,78.34c-7.507,7.503-46.529,22.809-78.222,32.353c-8.226,2.465-13.868,10.026-13.868,18.613
				c0,8.583,5.642,16.145,13.808,18.668c31.753,9.545,70.774,24.851,78.281,32.358c7.561,7.561,22.808,46.582,32.412,78.28
				c2.465,8.221,10.026,13.865,18.673,13.865c8.642,0,16.149-5.643,18.668-13.865c9.485-31.698,24.732-70.719,32.298-78.28
				c7.561-7.566,46.582-22.813,78.28-32.358C534.229,221.796,539.871,214.171,539.871,205.588L539.871,205.588z M461.654,205.588
				c-17.11,7.14-33.378,15.366-41.54,23.532c-8.166,8.103-16.392,24.43-23.413,41.481c-7.145-17.051-15.37-33.378-23.532-41.481
				c-8.166-8.165-24.434-16.391-41.541-23.532c17.106-7.085,33.375-15.31,41.541-23.472c8.162-8.166,16.446-24.494,23.532-41.541
				c7.021,17.106,15.307,33.434,23.473,41.541C428.276,190.278,444.544,198.503,461.654,205.588L461.654,205.588z M461.654,205.588"
				/>
			<path style="clip-path:url(#SVGID_4_);" d="M896.817,168.609c0-6.367-4.145-11.949-10.269-13.748
				c-23.408-7.022-52.285-18.37-57.868-23.894c-5.583-5.583-16.809-34.396-23.894-57.869c-3.659-12.004-23.889-12.187-27.553,0
				c-7.081,23.473-18.37,52.285-23.949,57.869c-5.583,5.524-34.401,16.872-57.814,23.894c-6.064,1.8-10.264,7.442-10.264,13.748
				c0,6.362,4.141,11.945,10.205,13.745c23.472,7.025,52.289,18.311,57.872,23.894c5.579,5.582,16.868,34.396,23.949,57.868
				c1.8,6.064,7.383,10.264,13.748,10.264c6.362,0,11.945-4.14,13.745-10.264c7.025-23.472,18.31-52.285,23.894-57.868
				c5.583-5.583,34.396-16.868,57.868-23.894C892.673,180.555,896.817,174.971,896.817,168.609L896.817,168.609z M821.897,168.609
				c-8.102,3.361-15.846,7.263-19.689,11.167c-3.902,3.837-7.804,11.582-11.106,19.689c-3.362-8.108-7.263-15.852-11.167-19.689
				c-3.842-3.843-11.586-7.805-19.689-11.167c8.103-3.361,15.847-7.263,19.689-11.107c3.903-3.842,7.805-11.586,11.167-19.689
				c3.362,8.103,7.263,15.847,11.106,19.689C806.051,161.346,813.795,165.248,821.897,168.609L821.897,168.609z M821.897,168.609"/>
		</g>
		<path d="M688.57,648.133c0,6.124,4.021,11.588,9.906,13.329c22.748,6.843,50.664,17.765,56.068,23.169
			c5.4,5.405,16.328,33.379,23.17,56.069c1.74,5.885,7.145,9.906,13.328,9.906c6.182,0,11.588-4.022,13.327-9.906
			c6.783-22.69,17.767-50.664,23.171-56.069c5.404-5.404,33.379-16.327,56.068-23.169c5.886-1.8,9.966-7.205,9.966-13.329
			c0-6.123-4.02-11.586-9.966-13.328c-22.688-6.843-50.664-17.77-56.068-23.169c-5.404-5.405-16.268-33.379-23.171-56.069
			c-3.544-11.646-23.174-11.826-26.715,0c-6.842,22.69-17.77,50.664-23.17,56.069c-5.404,5.399-33.319,16.327-56.008,23.169
			C692.591,636.547,688.57,641.951,688.57,648.133L688.57,648.133z M760.485,648.133c8.047-3.302,15.668-7.204,19.51-11.046
			c3.843-3.843,7.686-11.464,11.047-19.511c3.302,8.047,7.205,15.668,11.047,19.511c3.842,3.842,11.463,7.684,19.506,11.046
			c-8.043,3.363-15.664,7.205-19.506,11.047c-3.842,3.779-7.686,11.464-11.047,19.507c-3.362-8.042-7.204-15.663-11.047-19.507
			C776.213,655.338,768.532,651.436,760.485,648.133L760.485,648.133z M760.485,648.133"/>
		<path d="M874.064,518.048c-4.502,0-8.464-2.944-9.723-7.204c-4.983-16.571-12.966-36.92-16.928-40.881
			c-3.962-3.962-24.315-11.885-40.881-16.868c-4.264-1.264-7.205-5.226-7.205-9.728c0-4.502,2.941-8.464,7.265-9.723
			c16.566-4.983,36.919-12.966,40.821-16.868c3.962-3.962,11.885-24.315,16.928-40.881c2.578-8.647,16.867-8.523,19.451,0
			c4.978,16.566,12.965,36.919,16.867,40.881c3.962,3.902,24.311,11.885,40.881,16.868c4.319,1.259,7.265,5.221,7.265,9.723
			c0,4.502-2.945,8.464-7.265,9.728c-16.57,4.983-36.919,12.965-40.881,16.868c-3.962,3.961-11.889,24.31-16.867,40.881
			C882.527,515.104,878.567,518.048,874.064,518.048L874.064,518.048z M874.064,518.048"/>
	</g>
</g>
<g id="图层_4" style="display:none;">
	<g style="display:inline;">
		<g>
			<defs>
				<rect id="SVGID_5_" x="64.329" y="63.096" width="895.365" height="896.462"/>
			</defs>
			<clipPath id="SVGID_6_">
				<use xlink:href="#SVGID_5_"  style="overflow:visible;"/>
			</clipPath>
			<path style="clip-path:url(#SVGID_6_);" d="M924.364,336.515c-22.551-53.311-54.825-101.186-95.933-142.294
				c-41.105-41.104-88.982-73.382-142.294-95.929C630.928,74.937,572.296,63.1,511.872,63.1S392.815,74.937,337.607,98.292
				c-53.311,22.546-101.186,54.825-142.294,95.929c-41.104,41.108-73.382,88.982-95.929,142.294
				C76.029,391.724,64.192,450.356,64.192,510.78c0,60.424,11.837,119.056,35.193,174.265
				c22.546,53.311,54.825,101.185,95.929,142.294c41.108,41.104,88.982,73.382,142.294,95.929
				c55.209,23.355,113.841,35.193,174.265,35.193s119.056-11.837,174.265-35.193c53.311-22.546,101.189-54.825,142.294-95.929
				c41.108-41.108,73.382-88.982,95.933-142.294c23.351-55.209,35.188-113.841,35.188-174.265
				C959.552,450.356,947.715,391.724,924.364,336.515L924.364,336.515z M880.962,666.688
				c-20.173,47.695-49.06,90.535-85.854,127.329s-79.634,65.677-127.329,85.854c-49.367,20.879-101.823,31.466-155.908,31.466
				s-106.54-10.588-155.908-31.466c-47.695-20.173-90.535-49.06-127.329-85.854c-36.794-36.794-65.681-79.634-85.854-127.329
				c-20.879-49.367-31.466-101.823-31.466-155.908s10.588-106.54,31.471-155.908c20.173-47.695,49.055-90.535,85.849-127.329
				c36.794-36.794,79.634-65.681,127.329-85.854c49.367-20.879,101.823-31.466,155.908-31.466
				c54.089,0,106.54,10.588,155.908,31.466c47.695,20.173,90.535,49.06,127.329,85.854c36.794,36.794,65.681,79.634,85.854,127.329
				c20.882,49.367,31.466,101.823,31.466,155.908S901.84,617.321,880.962,666.688L880.962,666.688z M880.962,666.688"/>
		</g>
		<path d="M507.914,667.893c-11.217,0-20.454,3.298-28.37,11.217c-7.915,7.256-11.217,16.492-11.217,27.709
			c0,11.213,3.302,20.449,11.217,28.365c7.916,7.26,17.152,11.217,28.37,11.217c11.217,0,20.449-3.957,28.37-11.217
			c7.916-7.255,11.874-16.491,11.874-28.365c0-11.217-3.958-20.454-11.218-27.709C529.024,671.191,519.131,667.893,507.914,667.893
			L507.914,667.893z M507.914,667.893"/>
		<path d="M619.411,301.078c-25.732-23.747-59.38-34.964-101.6-34.964c-47.503,0-84.448,14.515-110.837,43.54
			c-26.389,27.709-38.922,64.654-38.922,110.837h52.117c0-32.328,7.259-57.395,21.774-75.868
			c15.832-21.771,40.244-32.328,73.227-32.328c27.708,0,49.484,7.256,64.654,23.091c14.515,14.515,22.431,34.964,22.431,61.353
			c0,18.473-6.594,35.625-19.789,52.121c-3.958,5.278-11.879,13.194-22.431,23.751c-35.624,31.667-57.4,56.735-66.636,76.528
			c-7.916,16.492-11.873,35.625-11.873,57.395v15.175h52.777v-15.175c0-17.813,3.961-33.644,12.538-48.159
			c6.596-11.874,16.492-23.751,31.007-36.286c29.03-25.732,46.843-42.885,53.437-50.8c16.496-21.771,25.072-47.503,25.072-77.19
			C656.352,354.52,643.819,323.509,619.411,301.078L619.411,301.078z M619.411,301.078"/>
	</g>
</g>
<g id="图层_5" style="display:none;">
	<g style="display:inline;">
		<g>
			<defs>
				<rect id="SVGID_7_" x="65" y="62.89" width="893.513" height="896.668"/>
			</defs>
			<clipPath id="SVGID_8_">
				<use xlink:href="#SVGID_7_"  style="overflow:visible;"/>
			</clipPath>
			<path style="clip-path:url(#SVGID_8_);" d="M512.883,62.661C265.523,62.661,65,263.185,65,510.545
				c0,247.361,200.523,447.889,447.883,447.889c218.108,0,403.45-156.974,441.022-369.364c1.748-9.878,3.165-19.834,4.248-29.856
				c1.298-11.995-7.373-22.769-19.372-24.069c-11.994-1.298-22.774,7.377-24.067,19.372c-0.982,9.045-2.258,18.029-3.833,26.942
				c-33.898,191.606-201.176,333.275-397.997,333.275c-223.226,0-404.189-180.962-404.189-404.189
				c0-223.226,180.963-404.189,404.189-404.189c162.749,0,307.663,97.072,371.165,243.892c4.789,11.074,17.65,16.172,28.724,11.379
				c11.074-4.789,16.172-17.65,11.379-28.725C853.795,170.223,693.213,62.661,512.883,62.661L512.883,62.661z M512.883,62.661"/>
		</g>
		<path d="M903.423,360.82l21.845-21.849H698.596c-12.069,0-21.85,9.784-21.85,21.849c0,12.065,9.781,21.85,21.85,21.85h226.673
			c12.069,0,21.85-9.785,21.85-21.85V119.979c0-12.069-9.781-21.85-21.85-21.85c-12.065,0-21.845,9.781-21.845,21.85V360.82z
			 M903.423,360.82"/>
	</g>
</g>
<g id="图层_6" style="display:none;">
	<g style="display:inline;">
		<g>
			<defs>
				<rect id="SVGID_9_" x="63.705" y="91.05" width="896.481" height="842.692"/>
			</defs>
			<clipPath id="SVGID_10_">
				<use xlink:href="#SVGID_9_"  style="overflow:visible;"/>
			</clipPath>
			<path style="clip-path:url(#SVGID_10_);" d="M63.71,546.691c2.345-11.959,4.008-24.099,7.159-35.841
				c8.828-32.84,23.881-62.139,52.708-81.943c8.682-5.968,20.496-7.588,28.701-13.984c7.806-6.09,12.515-16.031,19.104-23.836
				c2.535-3.007,6.207-5.901,9.889-6.922c9.076-2.524,10.466-9.241,11.614-16.975c13.847-93.248,60.232-166.679,137.108-220.355
				c48.501-33.862,102.999-52.033,162.366-55.302c83.378-4.596,157.788,19.207,222.465,71.512
				c55.856,45.174,92.47,103.316,109.618,173.29c3.041,12.413,4.533,25.199,7.306,37.683c0.612,2.768,3.093,6.075,5.612,7.311
				c12.816,6.313,22.31,15.568,28.273,28.593c0.969,2.117,2.914,4.718,4.913,5.278c37.28,10.423,59.332,37.042,72.888,71.049
				c6.92,17.354,9.737,36.342,14.416,54.591c0.5,1.955,1.041,3.901,1.556,5.851v36.736c-2.315,11.951-3.965,24.076-7.077,35.812
				c-8.793,33.195-24.148,62.542-53.135,82.698c-7.301,5.078-15.754,8.866-24.173,11.834c-5.059,1.779-8.361,3.555-10.588,8.729
				c-4.888,11.348-13.346,19.82-24.557,25.009c-4.815,2.223-6.644,5.069-7.15,10.297c-2.582,26.745-9.996,52.012-25.101,74.526
				c-25.438,37.909-62.299,57.354-106.599,62.071c-25.398,2.699-51.205,1.78-76.827,2.052c-5.578,0.059-8.676,1.372-11.395,6.654
				c-8.901,17.276-23.264,28.122-42.869,28.628c-32.903,0.852-65.889,1.324-98.747-0.087c-28.691-1.235-49.386-25.301-49.051-53.598
				c0.341-28.083,21.707-51.609,50.378-52.669c32.018-1.187,64.138-0.967,96.175-0.005c19.713,0.594,34.791,10.93,43.979,28.604
				c2.621,5.039,5.315,7.388,11.25,7.037c29.026-1.712,58.593-0.107,87.002-5.131c51.39-9.086,80.256-47.741,85.956-99.102
				c0.525-4.738-0.657-7.209-5.054-9.514c-19.98-10.458-29.469-27.645-29.508-49.829c-0.161-88.038-0.156-176.081-0.005-264.124
				c0.039-22.129,9.358-39.176,29.109-50.247c2.115-1.192,3.92-5.486,3.608-8.073c-5.427-45.714-21.76-87.43-48.043-125.057
				c-36.153-51.759-84.177-88.316-144.127-108.388c-60.801-20.359-122.031-20.491-182.774,0.102
				c-69.721,23.633-122.528,68.282-158.849,132.168c-17.875,31.439-29.139,65.315-33.171,101.365
				c-0.288,2.564,1.644,6.766,3.799,7.981c19.391,10.933,28.855,27.694,28.909,49.47c0.214,88.335,0.249,176.669-0.004,265.005
				c-0.083,27.859-16.931,48.67-42.714,54.512c-24.241,5.496-48.151-6.932-60.349-31.128c-1.177-2.34-3.258-5.263-5.481-5.886
				c-36.672-10.204-58.423-36.463-72.081-69.648c-7.213-17.529-10.038-36.868-14.834-55.389c-0.574-2.218-1.07-4.45-1.605-6.678
				C63.71,571.18,63.71,558.938,63.71,546.691L63.71,546.691z M224.812,565.942c0-38.467,0.009-76.929,0-115.392
				c-0.005-6.701,0.209-13.419-0.156-20.101c-0.569-10.361-7.35-16.742-17.374-16.863c-10.165-0.122-16.906,6.016-17.815,16.357
				c-0.229,2.606-0.186,5.238-0.186,7.859c-0.009,85.091-0.009,170.177,0.005,255.268c0,2.909-0.072,5.851,0.293,8.724
				c1.444,11.294,12.446,18.123,23.234,14.548c7.908-2.621,11.964-9.226,11.974-20.146
				C224.84,652.778,224.812,609.36,224.812,565.942L224.812,565.942z M833.846,565.718c0-39.046,0.01-78.096-0.01-117.143
				c-0.004-6.405,0.224-12.845-0.286-19.216c-0.783-9.81-7.69-15.803-17.427-15.773c-9.698,0.024-16.6,6.104-17.612,15.71
				c-0.306,2.884-0.194,5.817-0.194,8.731c-0.01,84.798-0.01,169.598,0,254.392c0,3.205-0.171,6.455,0.273,9.601
				c1.585,11.236,12.762,17.933,23.477,14.247c7.822-2.694,11.736-9.198,11.751-20.292
				C833.881,652.556,833.841,609.137,833.846,565.718L833.846,565.718z M152.624,677.068V453.342
				c-11.517,5.086-19.489,12.883-26.24,22.022c-19.684,26.648-26.619,57.3-26.698,89.658c-0.072,31.755,6.692,61.891,25.409,88.344
				C132.016,663.158,140.27,671.651,152.624,677.068L152.624,677.068z M870.441,677.219c14.28-6.57,23.584-17.09,31.21-29.225
				c15.492-24.645,21.567-52.013,21.756-80.728c0.219-33.322-6.615-64.824-26.897-92.202c-6.716-9.062-14.639-16.931-26.069-21.644
				V677.219z M520.297,896.588c14.25,0,28.507,0.112,42.757-0.035c11.745-0.116,19.733-7.183,20.048-17.373
				c0.321-10.277-7.305-17.991-19.152-18.108c-28.793-0.291-57.591-0.276-86.385-0.034c-11.902,0.102-19.679,7.539-19.669,17.699
				c0.01,10.447,8.259,17.728,20.515,17.83C492.374,896.685,506.333,896.593,520.297,896.588L520.297,896.588z M520.297,896.588"/>
		</g>
	</g>
</g>
<g id="图层_7" style="display:none;">
	<g style="display:inline;">
		<g>
			<defs>
				<rect id="SVGID_11_" x="64" y="63.89" width="895.335" height="896.296"/>
			</defs>
			<clipPath id="SVGID_12_">
				<use xlink:href="#SVGID_11_"  style="overflow:visible;"/>
			</clipPath>
			<path style="clip-path:url(#SVGID_12_);" d="M510.4,64.458c-246.146,0-446.531,200.385-446.531,446.531
				c0,247.72,200.385,448.105,446.531,448.105c246.142,0,448.104-200.385,448.104-448.105
				C958.504,264.843,758.12,64.458,510.4,64.458L510.4,64.458z M767.586,678.239H254.787V376.871L510.4,566.211l255.608-189.34
				v301.369H767.586z M510.4,536.234L254.787,346.89h511.221L510.4,536.234z M510.4,536.234"/>
		</g>
	</g>
</g>
<g id="图层_8" style="display:none;">
	<g style="display:inline;">
		<path d="M512.278,62.89C264.713,62.89,64,263.603,64,511.167c0,247.556,200.713,448.269,448.278,448.269
			c247.556,0,448.268-200.713,448.268-448.269C960.545,263.547,759.833,62.89,512.278,62.89L512.278,62.89z M628.15,511.107
			l-73.457,0.06l-0.056,268.96H453.831v-268.96h-67.243v-92.685l67.243-0.056l-0.111-54.576c0-75.648,20.508-121.65,109.543-121.65
			h74.192v92.733h-46.399c-34.682,0-36.362,12.947-36.362,37.098l-0.112,46.395h83.377L628.15,511.107z M628.15,511.107"/>
	</g>
</g>
<g id="图层_9" style="display:none;">
	<g style="display:inline;">
		<g>
			<defs>
				<rect id="SVGID_13_" x="64.068" y="95.005" width="896.287" height="833.958"/>
			</defs>
			<clipPath id="SVGID_14_">
				<use xlink:href="#SVGID_13_"  style="overflow:visible;"/>
			</clipPath>
			<path style="clip-path:url(#SVGID_14_);" d="M926.613,479.694c-17.645,0-31.965,14.319-31.965,31.965v319.639
				c0,17.641-14.32,31.961-31.961,31.961H159.477c-17.641,0-31.961-14.32-31.961-31.961V287.913
				c0-17.646,14.32-31.966,31.961-31.966h223.751c17.641,0,31.961-14.319,31.961-31.965c0-17.641-14.32-31.961-31.961-31.961
				c-1.024,0-1.888,0.478-2.878,0.576H159.863c-52.9,0-95.795,42.959-95.795,95.957V831.81c0,52.993,42.895,95.957,95.795,95.957
				h703.429c52.899,0,95.794-42.964,95.794-95.957V511.659h-0.512C958.574,494.013,944.254,479.694,926.613,479.694L926.613,479.694
				z M401.893,620.301c-1.917,4.127-3.165,8.599-3.165,13.427c0,17.646,14.32,31.965,31.966,31.965
				c15.436,0,27.712-11.159,30.717-25.732h0.639c37.077-189.483,193.766-335.875,388.234-357.867l-67.702,67.697
				c-12.496,12.5-12.496,32.73,0,45.198c12.501,12.501,32.732,12.501,45.198,0l122.392-122.392
				c12.495-12.495,12.495-32.731,0-45.193l-122.392-122.39c-12.496-12.501-32.732-12.501-45.198,0
				c-12.496,12.495-12.496,32.73,0,45.198l67.444,67.443C627.206,239.838,447.379,405.188,401.893,620.301L401.893,620.301z
				 M401.893,620.301"/>
		</g>
	</g>
</g>
<g id="图层_10" style="display:none;">
	<g style="display:inline;">
		<path d="M305.223,176.59c-133.011,0-241.225,108.176-241.225,241.14c0,38.186,9.162,76.215,26.489,109.967
			c5.425,10.554,18.366,14.719,28.919,9.293c10.549-5.416,14.71-18.369,9.289-28.923c-14.431-28.104-21.745-58.497-21.745-90.338
			c0-109.274,88.946-198.172,198.274-198.172c109.273,0,198.175,88.898,198.175,198.172c0,109.277-88.898,198.175-198.175,198.175
			c-15.052,0-30.049-1.688-44.572-5.022c-11.556-2.636-23.078,4.572-25.731,16.137c-2.652,11.564,4.572,23.09,16.128,25.743
			c17.672,4.054,35.895,6.107,54.174,6.107c132.96,0,241.127-108.172,241.127-241.14C546.354,284.766,438.183,176.59,305.223,176.59
			L305.223,176.59z M305.223,176.59"/>
		<g>
			<defs>
				<rect id="SVGID_15_" x="63.998" y="104.394" width="896.146" height="814.798"/>
			</defs>
			<clipPath id="SVGID_16_">
				<use xlink:href="#SVGID_15_"  style="overflow:visible;"/>
			</clipPath>
			<path style="clip-path:url(#SVGID_16_);" d="M263.065,478.682c12.948,9.063,28.7,14.397,45.707,14.397
				c44.087,0,79.827-35.749,79.827-79.853c0-44.1-35.74-79.853-79.827-79.853c-44.092,0-79.832,35.753-79.832,79.853
				c0,11.338,2.378,22.114,6.633,31.88c-17.118,18.095-36.048,40.758-54.563,68.253C130.002,589.103,72.627,717.426,89,898.592
				c1.007,11.158,10.378,19.552,21.365,19.547c0.646,0,1.302-0.03,1.958-0.086c11.813-1.072,20.525-11.513,19.453-23.332
				c-12.156-134.574,16.017-254.243,83.744-355.695C231.545,515.022,248.012,494.947,263.065,478.682L263.065,478.682z
				 M263.065,478.682"/>
			<path style="clip-path:url(#SVGID_16_);" d="M626.164,182.687c-32.393,68.147-3.368,149.941,64.719,182.326
				c19.552,9.303,41.255,13.871,62.752,13.215c6.736-0.21,12.015-5.824,11.81-12.554c-0.206-6.723-5.824-12.007-12.547-11.805
				c-17.906,0.548-35.255-3.107-51.556-10.859c-55.955-26.617-79.806-93.842-53.183-149.859
				c26.621-55.986,93.796-79.883,149.744-53.265c55.956,26.617,79.818,93.817,53.209,149.807
				c-3.671,7.708-8.183,14.98-13.433,21.608c-4.161,5.28-3.278,12.94,1.998,17.119c5.278,4.173,12.936,3.278,17.113-1.998
				c6.376-8.068,11.865-16.904,16.321-26.266c32.386-68.125,3.338-149.889-64.744-182.274
				C740.288,85.494,658.55,114.562,626.164,182.687L626.164,182.687z M626.164,182.687"/>
			<path style="clip-path:url(#SVGID_16_);" d="M770.578,277.863c7.789-4.422,14.366-11.196,18.502-19.908
				c10.742-22.585,1.144-49.605-21.442-60.347c-22.586-10.747-49.593-1.135-60.331,21.449c-10.742,22.59-1.144,49.606,21.442,60.349
				c5.806,2.764,11.903,4.169,17.945,4.37c5.091,13.176,12.088,28.396,21.651,44.58c26.361,44.58,78.097,105.233,174.84,140.969
				c5.961,2.203,12.542-0.553,15.216-6.179c0.163-0.335,0.304-0.672,0.441-1.029c2.328-6.315-0.9-13.321-7.211-15.648
				c-71.861-26.553-126.284-70.131-161.732-129.549C781.508,302.87,775.24,289.543,770.578,277.863L770.578,277.863z
				 M770.578,277.863"/>
		</g>
	</g>
</g>
<g id="图层_11" style="display:none;">
	<g style="display:inline;">
		<path d="M944.889,718.603l-140.51-131.377h-0.287c-7.319-9.202-18.609-15.108-31.279-15.108c-12.675,0-23.96,5.907-31.283,15.108
			c-5.424,6.821-8.677,15.453-8.677,24.847c0,0.694,0.023,1.389,0.054,2.076l-0.224,0.703l16.672,94.634H645.461
			c-31.221,39.454-79.525,64.768-133.742,64.768c-54.222,0-102.523-25.314-133.748-64.768h-103.97l16.672-94.634l-0.228-0.703
			c0.037-0.686,0.054-1.381,0.054-2.076c0-9.395-3.249-18.026-8.676-24.847c-7.319-9.202-18.609-15.108-31.279-15.108
			c-12.675,0-23.96,5.907-31.279,15.108h-0.287L77.418,719.584C69.189,726.903,64,737.57,64,749.446v130.086
			c0,22.069,17.892,39.96,39.955,39.96h815.526c22.069,0,39.957-17.891,39.957-39.96V749.446
			C959.438,737.027,953.772,725.934,944.889,718.603L944.889,718.603z M683.799,879.532c-22.068,0-39.96-17.891-39.96-39.955
			c0-22.068,17.892-39.96,39.96-39.96c22.069,0,39.955,17.892,39.955,39.96C723.754,861.641,705.868,879.532,683.799,879.532
			L683.799,879.532z M805.903,879.532c-22.064,0-39.955-17.891-39.955-39.955c0-22.068,17.892-39.96,39.955-39.96
			c22.068,0,39.96,17.892,39.96,39.96C845.863,861.641,827.971,879.532,805.903,879.532L805.903,879.532z M805.903,879.532"/>
		<path d="M258.154,433.731h147.784v203.427c0,22.069,17.887,39.96,39.957,39.96h130.089c22.069,0,39.957-17.891,39.957-39.96
			V433.731h149.344c22.068,0,39.96-17.891,39.96-39.96c0-12.168-5.45-23.063-14.033-30.391L542.778,119.711
			c-7.296-9.609-18.842-15.821-31.839-15.821c-11.42,0-21.71,4.796-28.993,12.477L230.249,365.186
			c-0.184,0.18-0.372,0.364-0.555,0.547c-7.108,7.216-11.495,17.112-11.495,28.038C218.199,415.84,236.085,433.731,258.154,433.731
			L258.154,433.731z M258.154,433.731"/>
	</g>
</g>
<g id="图层_12" style="display:none;">
	<g style="display:inline;">
		<g>
			<defs>
				<rect id="SVGID_17_" x="64.995" y="178.895" width="894.692" height="665.803"/>
			</defs>
			<clipPath id="SVGID_18_">
				<use xlink:href="#SVGID_17_"  style="overflow:visible;"/>
			</clipPath>
			<path style="clip-path:url(#SVGID_18_);" d="M891.407,179.956h-758.54c-37.469,0-68.026,30.558-68.026,68.026v527.46
				c0,37.469,30.557,68.026,68.026,68.026h758.435c37.468,0,68.026-30.557,68.026-68.026v-527.46
				C959.434,210.409,928.875,179.956,891.407,179.956L891.407,179.956z M921.76,775.342c0,16.745-13.609,30.349-30.352,30.349
				h-758.54c-16.745,0-30.352-13.604-30.352-30.349V247.877c0-16.744,13.608-30.347,30.352-30.347h758.435
				c16.743,0,30.352,13.604,30.352,30.347v527.465H921.76z M921.76,775.342"/>
		</g>
		<path d="M789.998,367.396H630.294c-10.363,0-18.838,8.475-18.838,18.836c0,10.363,8.475,18.836,18.838,18.836h159.703
			c10.362,0,18.836-8.473,18.836-18.836C808.834,375.87,800.464,367.396,789.998,367.396L789.998,367.396z M789.998,367.396"/>
		<path d="M789.998,492.561H630.294c-10.363,0-18.838,8.48-18.838,18.836c0,10.363,8.475,18.843,18.838,18.843h159.703
			c10.362,0,18.836-8.48,18.836-18.843C808.834,501.041,800.464,492.561,789.998,492.561L789.998,492.561z M789.998,492.561"/>
		<path d="M789.998,617.731H630.294c-10.363,0-18.838,8.475-18.838,18.836c0,10.358,8.475,18.838,18.838,18.838h159.703
			c10.362,0,18.836-8.48,18.836-18.838C808.834,626.206,800.464,617.731,789.998,617.731L789.998,617.731z M789.998,617.731"/>
		<path d="M478.126,543.004c-10.991-8.16-23.235-15.066-36.42-20.615c14.757-18.422,22.917-41.339,22.917-65.514
			c0-28.57-11.196-55.257-31.606-75.142c-20.405-19.886-47.406-30.563-75.876-29.829c-26.998,0.63-52.536,11.616-71.792,30.978
			c-19.256,19.36-30.138,44.899-30.662,71.901c-0.524,24.489,7.325,47.721,21.977,66.454c-14.231,5.758-27.421,13.083-39.246,21.873
			c-34.117,25.223-52.85,59.342-52.85,95.971v0.105c0,16.325,13.394,29.613,29.823,29.613h286.966
			c16.43,0,29.723-13.288,29.828-29.613v-0.105C530.976,602.346,512.245,568.227,478.126,543.004L478.126,543.004z M292.256,455.406
			c0.314-17.263,7.325-33.698,19.675-46.048c12.351-12.449,28.675-19.467,45.944-19.881c18.317-0.419,35.586,6.382,48.664,19.152
			c13.085,12.764,20.305,29.928,20.305,48.14c0,20.824-9.418,40.08-25.749,52.955l0.105,0.21
			c-14.127-2.827-28.674-4.186-43.64-4.186c-13.709,0-27.206,1.254-40.186,3.557C301.051,496.121,291.837,476.55,292.256,455.406
			L292.256,455.406z M222.662,631.021c2.512-21.559,15.491-41.758,37.155-57.769c25.952-19.256,60.7-29.828,97.954-29.828
			c37.258,0,72.006,10.573,97.959,29.828c21.663,16.011,34.537,36.315,37.154,57.769H222.662z M222.662,631.021"/>
	</g>
</g>
<g id="图层_13">
	<g>
		<path d="M620.819,174.003c0,60.043-48.672,108.72-108.72,108.72c-60.043,0-108.72-48.677-108.72-108.72
			s48.677-108.72,108.72-108.72C572.147,65.283,620.819,113.96,620.819,174.003L620.819,174.003z M620.819,174.003"/>
		<path d="M620.819,512.246c0,60.043-48.677,108.721-108.72,108.721c-60.043,0-108.72-48.679-108.72-108.721
			c0-60.047,48.677-108.72,108.72-108.72C572.141,403.526,620.819,452.199,620.819,512.246L620.819,512.246z M620.819,512.246"/>
		<path d="M620.819,512.246c0,60.043-48.677,108.721-108.72,108.721c-60.043,0-108.72-48.679-108.72-108.721
			c0-60.047,48.677-108.72,108.72-108.72C572.141,403.526,620.819,452.199,620.819,512.246L620.819,512.246z M620.819,512.246"/>
		<path d="M620.819,850.485c0,60.048-48.672,108.72-108.72,108.72c-60.043,0-108.72-48.672-108.72-108.72
			c0-60.043,48.677-108.72,108.72-108.72C572.147,741.765,620.819,790.443,620.819,850.485L620.819,850.485z M620.819,850.485"/>
	</g>
</g>
</svg>
