<?xml version="1.0" encoding="utf-8"?>
<!-- Generator: Adobe Illustrator 17.0.0, SVG Export Plug-In . SVG Version: 6.00 Build 0)  -->
<!DOCTYPE svg PUBLIC "-//W3C//DTD SVG 1.1//EN" "http://www.w3.org/Graphics/SVG/1.1/DTD/svg11.dtd">
<svg version="1.1" xmlns="http://www.w3.org/2000/svg" xmlns:xlink="http://www.w3.org/1999/xlink" x="0px" y="0px" width="1024px"
	 height="1024px" viewBox="0 0 1024 1024" style="enable-background:new 0 0 1024 1024;" xml:space="preserve">
<g id="图层_1">
</g>
<g id="图层_2">
	<g>
		<g>
			<defs>
				<rect id="SVGID_1_" x="63.499" y="226.989" width="896.254" height="569.694"/>
			</defs>
			<clipPath id="SVGID_2_">
				<use xlink:href="#SVGID_1_"  style="overflow:visible;"/>
			</clipPath>
			<path style="clip-path:url(#SVGID_2_);" d="M954.819,499.102c-2.008-2.76-50.125-68.485-128.334-135.042
				c-104.862-89.246-213.894-136.417-315.303-136.417c-101.405,0-210.437,47.172-315.304,136.417
				C117.669,430.617,69.567,496.342,67.549,499.102c-5.398,7.429-5.398,17.488,0,24.912c2.007,2.76,50.12,68.495,128.329,135.05
				c104.876,89.247,213.899,136.428,315.304,136.428c101.408,0,210.441-47.177,315.303-136.428
				c78.209-66.555,126.316-132.28,128.334-135.05C960.217,516.59,960.217,506.531,954.819,499.102L954.819,499.102z
				 M511.182,753.116c-193.023,0-358.713-190.457-399.682-241.556c40.969-51.095,206.649-241.533,399.682-241.533
				c193.051,0,358.74,190.461,399.686,241.542C869.972,562.67,704.539,753.116,511.182,753.116L511.182,753.116z M511.182,753.116"
				/>
		</g>
		<path d="M517.685,331.56c-100.095,0-181.524,81.438-181.524,181.538s81.429,181.539,181.524,181.539
			c100.09,0,181.519-81.439,181.519-181.539S617.77,331.56,517.685,331.56L517.685,331.56z M517.685,652.261
			c-76.725,0-139.148-62.428-139.148-139.163c0-76.734,62.423-139.163,139.148-139.163s139.143,62.429,139.143,139.163
			C656.828,589.822,594.4,652.261,517.685,652.261L517.685,652.261z M517.685,652.261"/>
	</g>
</g>
</svg>
